<svg width="24" height="24" viewBox="0 0 24 24" fill="none" xmlns="http://www.w3.org/2000/svg">
<path d="M7.12497 6.00001H15.075C15.2608 6.91054 15.7782 7.71963 16.5267 8.27041C17.2752 8.82119 18.2015 9.07442 19.1261 8.98102C20.0507 8.88762 20.9077 8.45423 21.5309 7.76487C22.1541 7.07552 22.4992 6.17932 22.4992 5.25001C22.4992 4.3207 22.1541 3.4245 21.5309 2.73514C20.9077 2.04579 20.0507 1.6124 19.1261 1.519C18.2015 1.42559 17.2752 1.67883 16.5267 2.22961C15.7782 2.78039 15.2608 3.58948 15.075 4.50001H7.12497C6.03095 4.50001 4.98174 4.93461 4.20815 5.70819C3.43456 6.48178 2.99997 7.53099 2.99997 8.62501C2.99997 9.71903 3.43456 10.7682 4.20815 11.5418C4.98174 12.3154 6.03095 12.75 7.12497 12.75H15.375C16.0712 12.75 16.7388 13.0266 17.2311 13.5189C17.7234 14.0111 18 14.6788 18 15.375C18 16.0712 17.7234 16.7389 17.2311 17.2312C16.7388 17.7234 16.0712 18 15.375 18H8.92497C8.73911 17.0895 8.22178 16.2804 7.47328 15.7296C6.72477 15.1788 5.79843 14.9256 4.87382 15.019C3.94922 15.1124 3.09224 15.5458 2.46901 16.2351C1.84579 16.9245 1.50073 17.8207 1.50073 18.75C1.50073 19.6793 1.84579 20.5755 2.46901 21.2649C3.09224 21.9542 3.94922 22.3876 4.87382 22.481C5.79843 22.5744 6.72477 22.3212 7.47328 21.7704C8.22178 21.2196 8.73911 20.4105 8.92497 19.5H15.375C16.469 19.5 17.5182 19.0654 18.2918 18.2918C19.0654 17.5182 19.5 16.469 19.5 15.375C19.5 14.281 19.0654 13.2318 18.2918 12.4582C17.5182 11.6846 16.469 11.25 15.375 11.25H7.12497C6.42877 11.25 5.7611 10.9734 5.26881 10.4812C4.77653 9.98888 4.49997 9.3212 4.49997 8.62501C4.49997 7.92882 4.77653 7.26114 5.26881 6.76885C5.7611 6.27657 6.42877 6.00001 7.12497 6.00001ZM18.75 3.00001C19.195 3.00001 19.63 3.13197 20 3.3792C20.37 3.62644 20.6584 3.97784 20.8287 4.38897C20.999 4.8001 21.0436 5.2525 20.9567 5.68896C20.8699 6.12542 20.6556 6.52633 20.341 6.841C20.0263 7.15567 19.6254 7.36996 19.1889 7.45678C18.7525 7.54359 18.3001 7.49903 17.8889 7.32874C17.4778 7.15844 17.1264 6.87005 16.8792 6.50004C16.6319 6.13003 16.5 5.69502 16.5 5.25001C16.5 4.65327 16.737 4.08098 17.159 3.65902C17.5809 3.23706 18.1532 3.00001 18.75 3.00001ZM5.24997 21C4.80496 21 4.36994 20.868 3.99993 20.6208C3.62992 20.3736 3.34154 20.0222 3.17124 19.611C3.00094 19.1999 2.95638 18.7475 3.0432 18.3111C3.13002 17.8746 3.34431 17.4737 3.65898 17.159C3.97365 16.8443 4.37456 16.6301 4.81101 16.5432C5.24747 16.4564 5.69987 16.501 6.11101 16.6713C6.52214 16.8416 6.87354 17.13 7.12077 17.5C7.36801 17.87 7.49997 18.305 7.49997 18.75C7.49997 19.3467 7.26292 19.919 6.84096 20.341C6.419 20.763 5.8467 21 5.24997 21Z" fill="currentColor"/>
</svg>
