<svg width="24" height="24" viewBox="0 0 24 24" fill="none" xmlns="http://www.w3.org/2000/svg">
<path d="M8.25 1.5H1.5V8.25H3V3H8.25V1.5Z" fill="currentColor"/>
<path d="M1.5 15.75V22.5H8.25V21H3V15.75H1.5Z" fill="currentColor"/>
<path d="M22.5 8.25V1.5H15.75V3H21V8.25H22.5Z" fill="currentColor"/>
<path d="M15.75 22.5H22.5V15.75H21V21H15.75V22.5Z" fill="currentColor"/>
<path d="M19.1175 7.5975L12.3675 3.8475C12.2535 3.78167 12.1242 3.74702 11.9925 3.74702C11.8608 3.74702 11.7315 3.78167 11.6175 3.8475L4.8675 7.5975C4.75444 7.66452 4.66098 7.76008 4.59648 7.8746C4.53198 7.98912 4.49871 8.11857 4.5 8.25V15.75C4.50023 15.8829 4.53577 16.0133 4.60298 16.128C4.67018 16.2426 4.76665 16.3374 4.8825 16.4025L11.6325 20.1525C11.7465 20.2183 11.8758 20.253 12.0075 20.253C12.1392 20.253 12.2685 20.2183 12.3825 20.1525L19.1325 16.4025C19.2456 16.3355 19.339 16.2399 19.4035 16.1254C19.468 16.0109 19.5013 15.8814 19.5 15.75V8.25C19.4998 8.1171 19.4642 7.98665 19.397 7.872C19.3298 7.75735 19.2333 7.66262 19.1175 7.5975ZM12 5.355L17.205 8.25L12 11.145L6.795 8.25L12 5.355ZM6 9.525L11.25 12.4425V18.225L6 15.3075V9.525ZM12.75 18.225V12.4425L18 9.525V15.3075L12.75 18.225Z" fill="currentColor"/>
</svg>
