<svg width="28" height="29" viewBox="0 0 28 29" fill="none" xmlns="http://www.w3.org/2000/svg">
<rect y="0.5" width="28" height="28" rx="14" fill="currentColor"/>
<g clip-path="url(#clip0_35297_29098)">
<path fill-rule="evenodd" clip-rule="evenodd" d="M17.1203 5.8317C17.3636 5.96616 17.4888 6.24509 17.4276 6.51621L16.3372 11.3501H19.3428C19.5808 11.3501 19.7981 11.4852 19.9034 11.6987C20.0086 11.9121 19.9835 12.1668 19.8387 12.3556L11.6689 23.0018C11.495 23.2283 11.1898 23.3082 10.9273 23.1959C10.6648 23.0837 10.5117 22.8078 10.5554 22.5256L11.7022 15.1197H8.65725C8.40414 15.1197 8.17603 14.967 8.07949 14.7331C7.98296 14.4991 8.03706 14.23 8.21652 14.0515L16.3772 5.93552C16.5743 5.73954 16.8771 5.69723 17.1203 5.8317ZM10.172 13.8697H13.1607L12.1645 20.3026L18.0754 12.6001H14.7738L15.7356 8.33658L10.172 13.8697Z" fill="white"/>
</g>
<defs>
<clipPath id="clip0_35297_29098">
<rect width="20" height="20" fill="white" transform="translate(4 4.5)"/>
</clipPath>
</defs>
</svg>
