<svg width="25" height="25" viewBox="0 0 25 25" fill="none" xmlns="http://www.w3.org/2000/svg">
<path fill-rule="evenodd" clip-rule="evenodd" d="M16.2444 1.97303C16.5362 2.13439 16.6865 2.46911 16.6131 2.79445L15.3046 8.59509H18.9114C19.1969 8.59509 19.4577 8.75726 19.584 9.01338C19.7103 9.26951 19.6802 9.57513 19.5064 9.80168L9.70258 22.5771C9.49399 22.8489 9.12773 22.9448 8.8127 22.8101C8.49767 22.6754 8.31399 22.3443 8.36642 22.0057L9.74259 13.1186H6.08865C5.78492 13.1186 5.51119 12.9354 5.39534 12.6547C5.2795 12.3739 5.34442 12.051 5.55977 11.8368L15.3526 2.09763C15.5891 1.86245 15.9525 1.81168 16.2444 1.97303ZM7.90636 11.6186H11.4927L10.2974 19.3381L17.3904 10.0951H13.4285L14.5827 4.9789L7.90636 11.6186Z" fill="currentColor"/>
</svg>
