<svg width="32" height="33" viewBox="0 0 32 33" fill="none" xmlns="http://www.w3.org/2000/svg">
<g clip-path="url(#clip0_2994_532)">
<path d="M19.9671 14.7685H17.9671V17.8046H19.9671V14.7685Z" fill="currentColor"/>
<path d="M23.5 26.9559C24.5355 26.9559 25.375 26.1165 25.375 25.0809C25.375 24.0454 24.5355 23.2059 23.5 23.2059C22.4644 23.2059 21.625 24.0454 21.625 25.0809C21.625 26.1165 22.4644 26.9559 23.5 26.9559Z" fill="currentColor"/>
<path d="M30.7908 24.592C29.4568 21.4714 26.5945 19.4559 23.5 19.4559C20.4055 19.4559 17.5433 21.4715 16.2091 24.592L16 25.0809L16.2091 25.5698C17.5433 28.6905 20.4055 30.7059 23.5 30.7059C26.5945 30.7059 29.4568 28.6904 30.7908 25.5698L31 25.0809L30.7908 24.592ZM23.5 28.8309C21.4322 28.8309 19.75 27.1487 19.75 25.0809C19.75 23.0132 21.4322 21.3309 23.5 21.3309C25.5677 21.3309 27.25 23.0132 27.25 25.0809C27.25 27.1487 25.5677 28.8309 23.5 28.8309Z" fill="currentColor"/>
<path d="M14.0503 8.7504H12.0503V12.7504H14.0503V8.7504Z" fill="currentColor"/>
<path d="M14.0503 14.7685H12.0503V18.7685H14.0503V14.7685Z" fill="currentColor"/>
<path d="M14.0503 20.7061H12.0503V24.7061H14.0503V20.7061Z" fill="currentColor"/>
<path d="M19.9671 8.7504H17.9671V12.7504H19.9671V8.7504Z" fill="currentColor"/>
<path d="M8.00778 28.7059H13.7709V30.7059H8.19839C6.96908 30.7059 5.96936 29.8084 5.96936 28.7059V4.70593C5.96936 3.60293 6.96908 2.70593 8.19839 2.70593H23.8016C25.0303 2.70593 26.0306 3.60293 26.0306 4.70593V15.7059H23.9715V8.70593H23.9697V6.70593H23.9715V4.70593H8.01526V6.70593H8.01704V8.70593H8.00778V28.7059Z" fill="currentColor"/>
</g>
<defs>
<clipPath id="clip0_2994_532">
<rect width="32" height="32" fill="white" transform="translate(0 0.705933)"/>
</clipPath>
</defs>
</svg>
