<svg width="24" height="25" viewBox="0 0 24 25" fill="none" xmlns="http://www.w3.org/2000/svg">
<path d="M21.75 20.251H2.25C2.05109 20.251 1.86032 20.172 1.71967 20.0313C1.57902 19.8907 1.5 19.6999 1.5 19.501V6.75098C1.5 6.55206 1.57902 6.3613 1.71967 6.22065C1.86032 6.07999 2.05109 6.00098 2.25 6.00098H7.095L8.3775 4.08848C8.44544 3.98531 8.53781 3.90051 8.64641 3.84164C8.75501 3.78276 8.87647 3.75162 9 3.75098H15C15.1235 3.75162 15.245 3.78276 15.3536 3.84164C15.4622 3.90051 15.5546 3.98531 15.6225 4.08848L16.905 6.00098H21.75C21.9489 6.00098 22.1397 6.07999 22.2803 6.22065C22.421 6.3613 22.5 6.55206 22.5 6.75098V19.501C22.5 19.6999 22.421 19.8907 22.2803 20.0313C22.1397 20.172 21.9489 20.251 21.75 20.251ZM3 18.751H21V7.50098H16.5C16.3765 7.50034 16.255 7.4692 16.1464 7.41032C16.0378 7.35144 15.9454 7.26665 15.8775 7.16348L14.595 5.25098H9.405L8.1225 7.16348C8.05456 7.26665 7.96219 7.35144 7.85359 7.41032C7.74499 7.4692 7.62353 7.50034 7.5 7.50098H3V18.751Z" fill="currentColor"/>
<path d="M12 17.251C11.11 17.251 10.24 16.9871 9.49993 16.4926C8.75991 15.9981 8.18314 15.2953 7.84254 14.4731C7.50195 13.6508 7.41283 12.746 7.58647 11.8731C7.7601 11.0002 8.18868 10.1983 8.81802 9.569C9.44736 8.93966 10.2492 8.51108 11.1221 8.33744C11.995 8.16381 12.8998 8.25292 13.7221 8.59352C14.5443 8.93411 15.2471 9.51089 15.7416 10.2509C16.2361 10.9909 16.5 11.861 16.5 12.751C16.5 13.9445 16.0259 15.089 15.182 15.933C14.3381 16.7769 13.1935 17.251 12 17.251ZM12 9.75098C11.4067 9.75098 10.8266 9.92692 10.3333 10.2566C9.83994 10.5862 9.45542 11.0547 9.22836 11.6029C9.0013 12.1511 8.94189 12.7543 9.05764 13.3362C9.1734 13.9182 9.45912 14.4527 9.87868 14.8723C10.2982 15.2919 10.8328 15.5776 11.4147 15.6933C11.9967 15.8091 12.5999 15.7497 13.1481 15.5226C13.6962 15.2956 14.1648 14.911 14.4944 14.4177C14.8241 13.9243 15 13.3443 15 12.751C15 11.9553 14.6839 11.1923 14.1213 10.6297C13.5587 10.067 12.7957 9.75098 12 9.75098Z" fill="currentColor"/>
</svg>
