<svg width="25" height="24" viewBox="0 0 25 24" fill="none" xmlns="http://www.w3.org/2000/svg">
<g clip-path="url(#clip0_11857_42377)">
<path d="M19.4913 7.59291C19.1641 5.8789 18.2495 4.33264 16.9049 3.22045C15.5603 2.10825 13.87 1.49976 12.125 1.49976C10.3801 1.49976 8.68972 2.10825 7.34513 3.22045C6.00055 4.33264 5.08589 5.8789 4.7587 7.59291C3.37515 7.84004 2.13433 8.5964 1.28074 9.71294C0.427144 10.8295 0.0226908 12.2252 0.147072 13.6252C0.271453 15.0251 0.915649 16.3277 1.95272 17.2763C2.98979 18.2248 4.34453 18.7506 5.74998 18.7499H6.12498V17.2499H5.74998C4.68077 17.2506 3.65313 16.8358 2.88399 16.0931C2.11484 15.3504 1.66439 14.3378 1.6277 13.2693C1.59102 12.2007 1.97099 11.1596 2.68739 10.3659C3.40379 9.57222 4.40056 9.08793 5.4673 9.01529L6.0946 8.97246L6.1621 8.34734C6.32254 6.87792 7.01989 5.51947 8.12036 4.53261C9.22083 3.54575 10.6469 2.99997 12.1251 2.99997C13.6032 2.99997 15.0293 3.54575 16.1298 4.53261C17.2303 5.51947 17.9276 6.87792 18.0881 8.34734L18.1556 8.97246L18.7829 9.01529C19.8496 9.08793 20.8464 9.57224 21.5628 10.366C22.2792 11.1597 22.6592 12.2008 22.6225 13.2694C22.5858 14.338 22.1353 15.3505 21.3661 16.0932C20.5969 16.8359 19.5692 17.2507 18.5 17.2499H18.125V18.7499H18.5C19.9054 18.7506 21.2602 18.2249 22.2973 17.2763C23.3344 16.3277 23.9786 15.0252 24.103 13.6252C24.2273 12.2253 23.8229 10.8295 22.9693 9.71296C22.1157 8.5964 20.8749 7.84004 19.4913 7.59291Z" fill="currentColor"/>
<path d="M17.375 16.4999V14.9999H15.7992C15.7024 14.5305 15.5161 14.0841 15.2502 13.6852L16.3677 12.5677L15.3072 11.5072L14.1897 12.6247C13.7909 12.3589 13.3445 12.1725 12.875 12.0757V10.4999H11.375V12.0757C10.9055 12.1724 10.4591 12.3588 10.0603 12.6247L8.9428 11.5072L7.8823 12.5677L8.9998 13.6852C8.73393 14.084 8.54753 14.5304 8.4508 14.9999H6.87498V16.4999H8.4508C8.54751 16.9694 8.73389 17.4157 8.99973 17.8146L7.88223 18.9321L8.94273 19.9926L10.0602 18.8751C10.4591 19.141 10.9055 19.3274 11.375 19.4241V20.9999H12.875V19.4241C13.3444 19.3274 13.7908 19.141 14.1897 18.8752L15.3072 19.9927L16.3677 18.9322L15.2502 17.8147C15.516 17.4158 15.7024 16.9694 15.7992 16.4999H17.375ZM12.125 17.9999C11.68 17.9999 11.245 17.868 10.8749 17.6207C10.5049 17.3735 10.2165 17.0221 10.0462 16.6109C9.87595 16.1998 9.8314 15.7474 9.91821 15.311C10.005 14.8745 10.2193 14.4736 10.534 14.1589C10.8487 13.8443 11.2496 13.63 11.686 13.5431C12.1225 13.4563 12.5749 13.5009 12.986 13.6712C13.3972 13.8415 13.7486 14.1299 13.9958 14.4999C14.243 14.8699 14.375 15.3049 14.375 15.7499C14.3743 16.3464 14.1371 16.9184 13.7152 17.3402C13.2934 17.762 12.7215 17.9993 12.125 17.9999Z" fill="currentColor"/>
</g>
<defs>
<clipPath id="clip0_11857_42377">
<rect width="24" height="24" fill="white" transform="translate(0.125)"/>
</clipPath>
</defs>
</svg>
