<svg width="24" height="24" viewBox="0 0 24 24" fill="none" xmlns="http://www.w3.org/2000/svg">
<g clip-path="url(#clip0_677_17404)">
<path d="M15 9.75H9C8.60233 9.7505 8.22109 9.90869 7.93989 10.1899C7.65869 10.4711 7.5005 10.8523 7.5 11.25V21C7.5005 21.3977 7.65869 21.7789 7.93989 22.0601C8.22109 22.3413 8.60233 22.4995 9 22.5H15C15.3977 22.4995 15.7789 22.3413 16.0601 22.0601C16.3413 21.7789 16.4995 21.3977 16.5 21V11.25C16.4995 10.8523 16.3413 10.4711 16.0601 10.1899C15.7789 9.90869 15.3977 9.7505 15 9.75ZM15 11.25V13.5H9V11.25H15ZM15 15V17.25H9V15H15ZM9 21V18.75H15V21H9Z" fill="currentColor"/>
<path d="M19.4325 7.59751C19.4147 7.59422 19.3982 7.58566 19.3853 7.57293C19.3724 7.5602 19.3636 7.54389 19.36 7.52611C19.0661 6.06533 18.344 4.7251 17.2857 3.67617C16.2274 2.62724 14.8808 1.91709 13.4175 1.63621C11.4732 1.26061 9.45923 1.66901 7.81482 2.77235C6.17041 3.87569 5.02895 5.58447 4.63936 7.52603C4.63586 7.54385 4.6271 7.56021 4.61421 7.573C4.60133 7.58579 4.5849 7.59443 4.56706 7.59781C3.19269 7.86131 1.96584 8.62753 1.12599 9.74689C0.286134 10.8663 -0.106434 12.2584 0.0249097 13.6517C0.156253 15.0449 0.802081 16.3392 1.83633 17.2819C2.87058 18.2246 4.21901 18.748 5.61841 18.75H6.00001V17.25H5.62156C5.02974 17.2484 4.44518 17.1196 3.90741 16.8725C3.36964 16.6255 2.8912 16.2658 2.50446 15.8178C2.11773 15.3698 1.83171 14.844 1.66575 14.2759C1.4998 13.7078 1.45778 13.1107 1.54254 12.525C1.69374 11.6465 2.11583 10.8372 2.74975 10.2104C3.38367 9.58366 4.19769 9.17077 5.07789 9.02956L5.84034 8.89186C5.85969 8.88829 5.87751 8.87897 5.89149 8.86512C5.90547 8.85128 5.91496 8.83354 5.91871 8.81423L6.05371 8.11291C6.27734 6.84057 6.89218 5.66965 7.81263 4.76322C8.73307 3.85679 9.91328 3.25997 11.1889 3.05588C11.9005 2.95825 12.6239 2.98988 13.3242 3.14926C14.486 3.4322 15.5404 4.04689 16.359 4.91845C17.1776 5.79 17.7251 6.88081 17.9348 8.05801L18.0804 8.81423C18.0841 8.83357 18.0936 8.85134 18.1076 8.86519C18.1216 8.87905 18.1394 8.88834 18.1588 8.89186L18.952 9.03541C19.827 9.17357 20.6386 9.57639 21.2778 10.1897C21.858 10.7651 22.2544 11.4998 22.4167 12.3006C22.5791 13.1015 22.5002 13.9325 22.19 14.6885C21.8798 15.4445 21.3522 16.0915 20.6741 16.5474C19.996 17.0034 19.1979 17.2479 18.3807 17.25H18V18.75H18.3807C19.7804 18.7485 21.1293 18.2253 22.164 17.2826C23.1986 16.3399 23.8448 15.0454 23.9762 13.6519C24.1076 12.2583 23.7149 10.8659 22.8747 9.74634C22.0346 8.62683 20.8073 7.86068 19.4325 7.59751Z" fill="currentColor"/>
</g>
<defs>
<clipPath id="clip0_677_17404">
<rect width="24" height="24" fill="white"/>
</clipPath>
</defs>
</svg>
