<svg width="24" height="24" viewBox="0 0 24 24" fill="none" xmlns="http://www.w3.org/2000/svg">
<g clip-path="url(#clip0_677_17420)">
<path d="M15 15V12.75C15 11.9544 14.6839 11.1913 14.1213 10.6287C13.5587 10.0661 12.7956 9.75 12 9.75C11.2044 9.75 10.4413 10.0661 9.87868 10.6287C9.31607 11.1913 9 11.9544 9 12.75V15C8.60233 15.0005 8.22109 15.1587 7.93989 15.4399C7.65869 15.7211 7.5005 16.1023 7.5 16.5V21C7.5005 21.3977 7.65869 21.7789 7.93989 22.0601C8.22109 22.3413 8.60233 22.4995 9 22.5H15C15.3977 22.4995 15.7789 22.3413 16.0601 22.0601C16.3413 21.7789 16.4995 21.3977 16.5 21V16.5C16.4995 16.1023 16.3413 15.7211 16.0601 15.4399C15.7789 15.1587 15.3977 15.0005 15 15ZM10.5 12.75C10.5 12.3522 10.658 11.9706 10.9393 11.6893C11.2206 11.408 11.6022 11.25 12 11.25C12.3978 11.25 12.7794 11.408 13.0607 11.6893C13.342 11.9706 13.5 12.3522 13.5 12.75V15H10.5V12.75ZM9 21V16.5H15L15.0009 21H9Z" fill="currentColor"/>
<path d="M19.3716 7.58637C19.0876 6.11301 18.3686 4.75859 17.3073 3.69794C16.2459 2.6373 14.891 1.91914 13.4175 1.63617C12.4496 1.4492 11.4543 1.45482 10.4886 1.65272C9.52286 1.85062 8.60561 2.23691 7.78927 2.78952C6.97293 3.34212 6.2735 4.0502 5.73098 4.87328C5.18846 5.69636 4.81348 6.61829 4.62747 7.58637C3.24506 7.83578 2.00594 8.59328 1.15371 9.70996C0.301483 10.8266 -0.102213 12.2217 0.0219849 13.6209C0.146183 15.0202 0.789291 16.3223 1.82488 17.2714C2.86048 18.2206 4.21364 18.748 5.61837 18.75H5.99997V17.25H5.62144C4.59111 17.2487 3.59854 16.862 2.83887 16.166C2.07921 15.4699 1.60743 14.5148 1.51629 13.4885C1.42516 12.4623 1.72126 11.439 2.34638 10.62C2.9715 9.80094 3.88041 9.24541 4.89439 9.0626L5.90599 8.87952L6.10032 7.87025C6.36496 6.49977 7.0985 5.26418 8.17499 4.37568C9.25147 3.48718 10.6037 3.0012 11.9995 3.0012C13.3953 3.0012 14.7476 3.48718 15.8241 4.37568C16.9005 5.26418 17.6341 6.49977 17.8987 7.87025L18.093 8.87952L19.1046 9.0626C20.1184 9.24536 21.0271 9.80065 21.6522 10.6194C22.2773 11.4381 22.5736 12.461 22.4829 13.487C22.3922 14.5131 21.921 15.4681 21.1619 16.1644C20.4028 16.8607 19.4107 17.2479 18.3807 17.25H18V18.75H18.3807C19.7854 18.748 21.1386 18.2206 22.1742 17.2714C23.2097 16.3223 23.8529 15.0202 23.9771 13.6209C24.1013 12.2217 23.6976 10.8266 22.8453 9.70996C21.9931 8.59328 20.754 7.83578 19.3716 7.58637Z" fill="currentColor"/>
</g>
<defs>
<clipPath id="clip0_677_17420">
<rect width="24" height="24" fill="white"/>
</clipPath>
</defs>
</svg>
