<svg width="24" height="25" viewBox="0 0 24 25" fill="none" xmlns="http://www.w3.org/2000/svg">
<g clip-path="url(#clip0_3390_384)">
<path d="M18.6006 9.7457C18.4555 9.0758 18.2077 8.43236 17.866 7.83815L22.5 3.2042L21.4404 2.14355L1.5 22.084L2.56065 23.1436L6.31065 19.3936H17.625C18.8329 19.3941 19.9979 18.9459 20.8941 18.1361C21.7903 17.3263 22.3538 16.2125 22.4753 15.0108C22.5968 13.809 22.2677 12.605 21.5518 11.6321C20.8358 10.6593 19.7841 9.98703 18.6006 9.7457ZM17.625 17.8936H7.81057L16.7564 8.94778C16.9869 9.4387 17.1389 9.96279 17.2068 10.5009L17.2808 11.1099L17.8923 11.1578C18.7613 11.2265 19.5699 11.629 20.1487 12.2808C20.7274 12.9326 21.0314 13.7832 20.9968 14.6542C20.9623 15.5252 20.5919 16.349 19.9633 16.9529C19.3347 17.5568 18.4967 17.8939 17.625 17.8936Z" fill="currentColor"/>
<path d="M3.22229 18.23L4.29577 17.1566C3.7604 16.7401 3.36375 16.1711 3.15806 15.5247C2.95236 14.8783 2.94726 14.1847 3.14343 13.5353C3.3396 12.886 3.72784 12.3112 4.25702 11.8868C4.78621 11.4624 5.43152 11.2082 6.10799 11.1577L6.71962 11.1098L6.79394 10.5008C6.90031 9.62622 7.22545 8.79262 7.73931 8.07702C8.25318 7.36142 8.93917 6.78692 9.73386 6.40666C10.5286 6.0264 11.4063 5.85263 12.2859 5.90144C13.1656 5.95025 14.0187 6.22005 14.7664 6.68589L15.8488 5.60379C14.9355 4.96722 13.8787 4.56681 12.7728 4.43834C11.667 4.30987 10.5466 4.45734 9.51166 4.86757C8.47674 5.27781 7.55955 5.93803 6.84207 6.78924C6.12458 7.64046 5.62913 8.65616 5.39999 9.74559C4.50412 9.92718 3.6775 10.3574 3.01478 10.987C2.35207 11.6166 1.88006 12.4201 1.6528 13.3055C1.42555 14.1909 1.45224 15.1223 1.72981 15.9933C2.00738 16.8642 2.52462 17.6394 3.22229 18.23Z" fill="currentColor"/>
</g>
<defs>
<clipPath id="clip0_3390_384">
<rect width="24" height="24" fill="white" transform="translate(0 0.643555)"/>
</clipPath>
</defs>
</svg>
