<svg width="24" height="24" viewBox="0 0 24 24" fill="none" xmlns="http://www.w3.org/2000/svg">
<g clip-path="url(#clip0_26359_25488)">
<path d="M21 4.5H13.5V3C13.5 2.60218 13.342 2.22064 13.0607 1.93934C12.7794 1.65804 12.3978 1.5 12 1.5H3C2.60218 1.5 2.22064 1.65804 1.93934 1.93934C1.65804 2.22064 1.5 2.60218 1.5 3V18C1.5 18.3978 1.65804 18.7794 1.93934 19.0607C2.22064 19.342 2.60218 19.5 3 19.5H10.5V21C10.5 21.3978 10.658 21.7794 10.9393 22.0607C11.2206 22.342 11.6022 22.5 12 22.5H21C21.3978 22.5 21.7794 22.342 22.0607 22.0607C22.342 21.7794 22.5 21.3978 22.5 21V6C22.5 5.60218 22.342 5.22064 22.0607 4.93934C21.7794 4.65804 21.3978 4.5 21 4.5ZM3 11.25H7.6275L5.6925 13.1925L6.75 14.25L10.5 10.5L6.75 6.75L5.6925 7.8075L7.6275 9.75H3V3H12V18H3V11.25ZM12 21V19.5C12.3978 19.5 12.7794 19.342 13.0607 19.0607C13.342 18.7794 13.5 18.3978 13.5 18V6H21V12.75H16.3725L18.3075 10.8075L17.25 9.75L13.5 13.5L17.25 17.25L18.3075 16.1925L16.3725 14.25H21V21H12Z" fill="currentColor"/>
</g>
<defs>
<clipPath id="clip0_26359_25488">
<rect width="24" height="24" fill="white"/>
</clipPath>
</defs>
</svg>
