<svg width="17" height="17" viewBox="0 0 17 17" fill="none" xmlns="http://www.w3.org/2000/svg">
<path d="M11 11.6257C11.5523 11.6257 12 11.1779 12 10.6257C12 10.0734 11.5523 9.62566 11 9.62566C10.4477 9.62566 10 10.0734 10 10.6257C10 11.1779 10.4477 11.6257 11 11.6257Z" fill="currentColor"/>
<path d="M4 4.62566C4.55228 4.62566 5 4.17795 5 3.62566C5 3.07338 4.55228 2.62566 4 2.62566C3.44772 2.62566 3 3.07338 3 3.62566C3 4.17795 3.44772 4.62566 4 4.62566Z" fill="currentColor"/>
<path d="M14 15.6257C13.6044 15.6257 13.2178 15.5084 12.8889 15.2886C12.56 15.0688 12.3036 14.7565 12.1522 14.391C12.0009 14.0256 11.9613 13.6234 12.0384 13.2355C12.1156 12.8475 12.3061 12.4912 12.5858 12.2115C12.8655 11.9317 13.2219 11.7413 13.6098 11.6641C13.9978 11.5869 14.3999 11.6265 14.7654 11.7779C15.1308 11.9293 15.4432 12.1856 15.6629 12.5145C15.8827 12.8434 16 13.2301 16 13.6257C15.9984 14.1556 15.7872 14.6634 15.4125 15.0382C15.0378 15.4129 14.53 15.6241 14 15.6257ZM14 12.6257C13.8022 12.6257 13.6089 12.6843 13.4444 12.7942C13.28 12.9041 13.1518 13.0603 13.0761 13.243C13.0004 13.4257 12.9806 13.6268 13.0192 13.8208C13.0578 14.0147 13.153 14.1929 13.2929 14.3328C13.4327 14.4726 13.6109 14.5679 13.8049 14.6064C13.9989 14.645 14.2 14.6252 14.3827 14.5495C14.5654 14.4739 14.7216 14.3457 14.8315 14.1812C14.9414 14.0168 15 13.8234 15 13.6257C14.9992 13.3607 14.8936 13.1068 14.7062 12.9194C14.5189 12.732 14.265 12.6264 14 12.6257Z" fill="currentColor"/>
<path d="M15.5 8.12566C15.4946 6.27082 14.7553 4.4935 13.4437 3.18192C12.1322 1.87034 10.3548 1.1311 8.5 1.12566C7.30563 1.10862 6.12952 1.41994 5.1 2.02566L5.65 2.87566C6.04084 2.68781 6.44141 2.52091 6.85 2.37566C6.02345 4.00662 5.56273 5.7983 5.5 7.62566H2.5C2.55602 6.80009 2.79514 5.99733 3.2 5.27566L2.45 4.62566C1.82785 5.68715 1.49993 6.89529 1.5 8.12566C1.49989 9.04495 1.68087 9.95525 2.03262 10.8046C2.38436 11.6539 2.89997 12.4256 3.55 13.0757C4.20004 13.7257 4.97175 14.2413 5.82108 14.593C6.67041 14.9448 7.58072 15.1258 8.5 15.1257C9.39134 15.1341 10.2754 14.9641 11.1 14.6257L10.8 13.6757C9.98024 14.0262 9.08989 14.1803 8.2 14.1257C7.13374 12.4857 6.5451 10.5813 6.5 8.62566H15.45C15.4913 8.46239 15.5082 8.29389 15.5 8.12566ZM6.9 13.9257C5.90573 13.6276 4.99713 13.0962 4.25 12.3757C3.25794 11.3605 2.64079 10.0381 2.5 8.62566H5.5C5.5688 10.4742 6.04697 12.2843 6.9 13.9257ZM6.5 7.62566C6.53977 5.67642 7.11023 3.77491 8.15 2.12566H8.85C9.88977 3.77491 10.4602 5.67642 10.5 7.62566H6.5ZM11.5 7.62566C11.462 5.77273 10.982 3.95567 10.1 2.32566C11.2764 2.66475 12.3222 3.35301 13.099 4.29939C13.8757 5.24578 14.3468 6.40569 14.45 7.62566H11.5Z" fill="currentColor"/>
</svg>
