<svg width="25" height="25" viewBox="0 0 25 25" fill="none" xmlns="http://www.w3.org/2000/svg">
<path d="M12.75 18.0435C12.1287 18.0435 11.625 18.5472 11.625 19.1685C11.625 19.7898 12.1287 20.2935 12.75 20.2935C13.3713 20.2935 13.875 19.7898 13.875 19.1685C13.875 18.5472 13.3713 18.0435 12.75 18.0435Z" fill="currentColor"/>
<path d="M13.5 9.79346H12V16.5435H13.5V9.79346Z" fill="currentColor"/>
<path d="M14.25 23.2935H3.00001C2.73796 23.2935 2.49481 23.1567 2.35899 22.9326C2.22294 22.7087 2.21379 22.4299 2.33461 22.1975L12.0846 3.44748C12.2137 3.19916 12.4819 3.04346 12.75 3.04346C13.0181 3.04346 13.2863 3.19916 13.4154 3.44748L18.4854 13.1975L17.1546 13.8894L12.75 5.41908L4.23541 21.7935H14.25V23.2935Z" fill="currentColor"/>
<path d="M23.25 18.7935H20.25V15.7935H18.75V18.7935H15.75V20.2935H18.75V23.2935H20.25V20.2935H23.25V18.7935Z" fill="currentColor"/>
</svg>
