<svg width="25" height="25" viewBox="0 0 25 25" fill="none" xmlns="http://www.w3.org/2000/svg">
<g clip-path="url(#clip0_3390_324)">
<path d="M20.25 22.8563H18.75V19.1063C18.75 18.6139 18.653 18.1262 18.4645 17.6713C18.2761 17.2163 17.9999 16.8029 17.6517 16.4547C17.3034 16.1065 16.89 15.8302 16.4351 15.6418C15.9801 15.4533 15.4925 15.3563 15 15.3563H10.5C9.50544 15.3563 8.55161 15.7514 7.84835 16.4547C7.14509 17.1579 6.75 18.1118 6.75 19.1063V22.8563H5.25V19.1063C5.25 17.7139 5.80312 16.3786 6.78769 15.394C7.77226 14.4094 9.10761 13.8563 10.5 13.8563H15C16.3924 13.8563 17.7277 14.4094 18.7123 15.394C19.6969 16.3786 20.25 17.7139 20.25 19.1063V22.8563Z" fill="currentColor"/>
<path d="M14.8334 3.98831C14.2167 3.57626 13.4917 3.35632 12.75 3.35632C11.7554 3.35632 10.8016 3.75141 10.0983 4.45467C9.39509 5.15793 9 6.11176 9 7.10632C9 7.848 9.21993 8.57303 9.63199 9.18971C10.044 9.8064 10.6297 10.287 11.3149 10.5709C12.0002 10.8547 12.7542 10.929 13.4816 10.7843C14.209 10.6396 14.8772 10.2824 15.4016 9.75797C15.5422 9.61747 15.6707 9.46665 15.7863 9.30713H17.5164C17.4021 9.55484 17.2681 9.79428 17.1152 10.0231C16.5383 10.8864 15.7184 11.5593 14.7591 11.9567C13.7998 12.3541 12.7442 12.458 11.7258 12.2554C10.7074 12.0529 9.77191 11.5529 9.03769 10.8186C8.30346 10.0844 7.80345 9.14895 7.60088 8.13055C7.3983 7.11215 7.50227 6.05655 7.89963 5.09724C8.29699 4.13792 8.9699 3.31799 9.83326 2.74111C10.6966 2.16423 11.7116 1.85632 12.75 1.85632C14.1424 1.85632 15.4777 2.40945 16.4623 3.39401C16.9032 3.83491 17.2576 4.34616 17.5145 4.90137H15.7833C15.5243 4.54519 15.2033 4.23551 14.8334 3.98831Z" fill="currentColor"/>
<path d="M21.75 3.35632H20.25V6.35632H17.25V7.85632H20.25V10.8563H21.75V7.85632H24.75V6.35632H21.75V3.35632Z" fill="currentColor"/>
</g>
<defs>
<clipPath id="clip0_3390_324">
<rect width="24" height="24" fill="white" transform="translate(0.75 0.356323)"/>
</clipPath>
</defs>
</svg>
