<svg width="24" height="24" viewBox="0 0 24 24" fill="none" xmlns="http://www.w3.org/2000/svg">
<g clip-path="url(#clip0_6924_27777)">
<path d="M1.5 13.5V15H3V21C3 21.8269 3.6729 22.5 4.5 22.5H19.5C20.3271 22.5 21 21.8269 21 21V15H22.5V13.5H1.5ZM19.5 21H4.5V15H19.5V21Z" fill="currentColor"/>
<path d="M9.75 6H8.25V12H9.75V6Z" fill="currentColor"/>
<path d="M6.75 6H5.25V12H6.75V6Z" fill="currentColor"/>
<path d="M18.75 6H17.25V10.5H18.75V6Z" fill="currentColor"/>
<path d="M14.25 12H12.75C12.3522 12 11.9706 11.842 11.6893 11.5607C11.408 11.2794 11.25 10.8978 11.25 10.5V7.5C11.25 7.10218 11.408 6.72064 11.6893 6.43934C11.9706 6.15804 12.3522 6 12.75 6H14.25C14.6478 6 15.0294 6.15804 15.3107 6.43934C15.592 6.72064 15.75 7.10218 15.75 7.5V10.5C15.75 10.8978 15.592 11.2794 15.3107 11.5607C15.0294 11.842 14.6478 12 14.25 12ZM12.75 10.5H14.25V7.5H12.75V10.5Z" fill="currentColor"/>
<path d="M6.75 1.5H5.25V4.5H6.75V1.5Z" fill="currentColor"/>
<path d="M15.75 1.5H14.25V4.5H15.75V1.5Z" fill="currentColor"/>
<path d="M18.75 1.5H17.25V4.5H18.75V1.5Z" fill="currentColor"/>
<path d="M11.25 4.5H9.75C9.35218 4.5 8.97064 4.34196 8.68934 4.06066C8.40804 3.77936 8.25 3.39782 8.25 3V1.5H9.75V3H11.25V1.5H12.75V3C12.75 3.39782 12.592 3.77936 12.3107 4.06066C12.0294 4.34196 11.6478 4.5 11.25 4.5Z" fill="currentColor"/>
<path d="M14.25 16.5H9.75V18H14.25V16.5Z" fill="currentColor"/>
</g>
<defs>
<clipPath id="clip0_6924_27777">
<rect width="24" height="24" fill="white"/>
</clipPath>
</defs>
</svg>
