<svg width="24" height="25" viewBox="0 0 24 25" fill="none" xmlns="http://www.w3.org/2000/svg">
<g clip-path="url(#clip0_21595_21253)">
<path d="M16.6277 12.249L14.6927 14.184L15.7502 15.249L18.7502 12.249L15.7502 9.24902L14.6852 10.3065L16.6277 12.249Z" fill="currentColor"/>
<path d="M11.6249 15.999L10.1887 15.5662L12.3749 8.49902L13.8111 8.93185L11.6249 15.999Z" fill="currentColor"/>
<path d="M7.37238 12.249L9.30738 10.314L8.24988 9.24902L5.24988 12.249L8.24988 15.249L9.31488 14.1915L7.37238 12.249Z" fill="currentColor"/>
<path d="M7.28247 21.999C4.38792 21.999 2.03247 19.6436 2.03247 16.749V7.74902C2.03247 4.8541 4.38792 2.49902 7.28247 2.49902V3.99902C5.21487 3.99902 3.53247 5.68142 3.53247 7.74902V16.749C3.53247 18.8166 5.21487 20.499 7.28247 20.499V21.999Z" fill="currentColor"/>
<path d="M16.7172 21.999C19.6117 21.999 21.9672 19.6436 21.9672 16.749V7.74902C21.9672 4.8541 19.6117 2.49902 16.7172 2.49902V3.99902C18.7848 3.99902 20.4672 5.68142 20.4672 7.74902V16.749C20.4672 18.8166 18.7848 20.499 16.7172 20.499V21.999Z" fill="currentColor"/>
</g>
<defs>
<clipPath id="clip0_21595_21253">
<rect width="24" height="24" fill="white" transform="translate(0 0.249023)"/>
</clipPath>
</defs>
</svg>
