<svg width="24" height="24" viewBox="0 0 24 24" fill="none" xmlns="http://www.w3.org/2000/svg">
<g clip-path="url(#clip0_6928_27789)">
<path fill-rule="evenodd" clip-rule="evenodd" d="M14.25 3H3C2.60218 3 2.22064 3.15804 1.93934 3.43934C1.65804 3.72064 1.5 4.10218 1.5 4.5V16.5C1.5 16.8978 1.65804 17.2794 1.93934 17.5607C2.22064 17.842 2.60218 18 3 18H9V21H6V22.5H18V21H15V18H21C21.3978 18 21.7794 17.842 22.0607 17.5607C22.342 17.2794 22.5 16.8978 22.5 16.5V11.25H21V16.5H3V4.5H14.25V3ZM10.5 21H13.5V18H10.5V21Z" fill="currentColor"/>
<path d="M22.4999 2.99994L16.4999 2.99994L16.4999 4.49971L19.9395 4.49971L14.545 9.89423L15.6056 10.9549L21.0002 5.56037L21.0002 8.99994H22.4999V2.99994Z" fill="currentColor"/>
</g>
<defs>
<clipPath id="clip0_6928_27789">
<rect width="24" height="24" fill="white"/>
</clipPath>
</defs>
</svg>
