<svg width="24" height="24" viewBox="0 0 24 24" fill="none" xmlns="http://www.w3.org/2000/svg">
<g clip-path="url(#clip0_6914_27808)">
<path fill-rule="evenodd" clip-rule="evenodd" d="M18 3H21C21.3978 3 21.7794 3.15804 22.0607 3.43934C22.342 3.72064 22.5 4.10218 22.5 4.5V16.5C22.5 16.8978 22.342 17.2794 22.0607 17.5607C21.7794 17.842 21.3978 18 21 18H15V21H18V22.5H6V21H9V18H3C2.60218 18 2.22064 17.842 1.93934 17.5607C1.65804 17.2794 1.5 16.8978 1.5 16.5V4.5C1.5 4.10218 1.65804 3.72064 1.93934 3.43934C2.22064 3.15804 2.60218 3 3 3H6V4.5H3V16.5H21V4.5H18V3ZM10.5 21H13.5V18H10.5V21Z" fill="currentColor"/>
<path d="M15 6.75H10.5V4.5C10.5 4.10218 10.658 3.72064 10.9393 3.43934C11.2206 3.15804 11.6022 3 12 3C12.3978 3 12.7794 3.15804 13.0607 3.43934C13.342 3.72064 13.5 4.10218 13.5 4.5V6.75H14.25H15V4.5C15 3.70435 14.6839 2.94129 14.1213 2.37868C13.5587 1.81607 12.7956 1.5 12 1.5C11.2044 1.5 10.4413 1.81607 9.87868 2.37868C9.31607 2.94129 9 3.70435 9 4.5V6.75C8.60233 6.7505 8.22109 6.90869 7.93989 7.18989C7.65869 7.47109 7.5005 7.85233 7.5 8.25V12C7.5005 12.3977 7.65869 12.7789 7.93989 13.0601C8.22109 13.3413 8.60233 13.4995 9 13.5H15C15.3977 13.4995 15.7789 13.3413 16.0601 13.0601C16.3413 12.7789 16.4995 12.3977 16.5 12V8.25C16.4995 7.85233 16.3413 7.47109 16.0601 7.18989C15.7789 6.90869 15.3977 6.7505 15 6.75ZM9 12V8.25H15V12H9Z" fill="currentColor"/>
</g>
<defs>
<clipPath id="clip0_6914_27808">
<rect width="24" height="24" fill="white"/>
</clipPath>
</defs>
</svg>
