<svg width="24" height="24" viewBox="0 0 24 24" fill="none" xmlns="http://www.w3.org/2000/svg">
<g clip-path="url(#clip0_7145_28038)">
<path d="M13.5 4.5H15V3H13.5C13.0726 3.00144 12.6504 3.09475 12.2622 3.27363C11.874 3.4525 11.5288 3.71275 11.25 4.03672C10.9712 3.71275 10.626 3.4525 10.2378 3.27363C9.84956 3.09475 9.42743 3.00144 9 3H8.25C6.4604 3.00199 4.74466 3.71378 3.47922 4.97922C2.21378 6.24466 1.50199 7.9604 1.5 9.75V14.25C1.50199 16.0396 2.21378 17.7553 3.47922 19.0208C4.74466 20.2862 6.4604 20.998 8.25 21H9C9.42743 20.9986 9.84956 20.9052 10.2378 20.7264C10.626 20.5475 10.9712 20.2873 11.25 19.9633C11.5288 20.2873 11.874 20.5475 12.2622 20.7264C12.6504 20.9052 13.0726 20.9986 13.5 21H15V19.5H13.5C13.1023 19.4995 12.721 19.3414 12.4398 19.0602C12.1586 18.779 12.0005 18.3977 12 18V6C12.0005 5.60232 12.1586 5.22105 12.4398 4.93984C12.721 4.65864 13.1023 4.50046 13.5 4.5ZM9 19.5H8.25C6.98882 19.4978 5.77052 19.042 4.81764 18.2158C3.86476 17.3896 3.24089 16.2481 3.06 15H4.5V13.5H3V10.5H5.25C5.84654 10.4993 6.41845 10.2621 6.84027 9.84027C7.26208 9.41845 7.49934 8.84654 7.5 8.25V6.75H6V8.25C5.99982 8.44886 5.92075 8.63952 5.78013 8.78013C5.63952 8.92075 5.44886 8.99982 5.25 9H3.06C3.24089 7.75186 3.86476 6.61044 4.81764 5.78424C5.77052 4.95805 6.98882 4.50221 8.25 4.5H9C9.39768 4.50046 9.77895 4.65864 10.0602 4.93984C10.3414 5.22105 10.4995 5.60232 10.5 6V9H9V10.5H10.5V13.5H9C8.40346 13.5007 7.83155 13.7379 7.40973 14.1597C6.98792 14.5815 6.75066 15.1535 6.75 15.75V17.25H8.25V15.75C8.25018 15.5511 8.32925 15.3605 8.46987 15.2199C8.61048 15.0793 8.80114 15.0002 9 15H10.5V18C10.4995 18.3977 10.3414 18.779 10.0602 19.0602C9.77895 19.3414 9.39768 19.4995 9 19.5Z" fill="currentColor"/>
<path d="M22.5 8.625L19.125 5.25L18.0675 6.3075L19.6275 7.875H13.5V9.375H19.6275L18.0675 10.9425L19.125 12L22.5 8.625Z" fill="currentColor"/>
<path d="M22.5 16.875L19.125 13.5L18.0675 14.5575L19.6275 16.125H13.5V17.625H19.6275L18.0675 19.1925L19.125 20.25L22.5 16.875Z" fill="currentColor"/>
</g>
<defs>
<clipPath id="clip0_7145_28038">
<rect width="24" height="24" fill="white"/>
</clipPath>
</defs>
</svg>
