<svg width="46" height="47" viewBox="0 0 46 47" fill="none" xmlns="http://www.w3.org/2000/svg">
<g clip-path="url(#clip0_4702_5)">
<path d="M21.5338 4.8125C21.4496 4.81263 21.3656 4.82013 21.2828 4.83492C16.7054 5.64796 12.5908 8.12596 9.73143 11.7916C6.87206 15.4573 5.47022 20.0514 5.7959 24.689C6.12158 29.3265 8.15175 33.6796 11.4954 36.9096C14.839 40.1397 19.2596 42.0183 23.9056 42.1836C24.1415 42.1922 24.3774 42.1836 24.6113 42.1836C27.6283 42.1852 30.6014 41.4603 33.2792 40.0703C35.9569 38.6802 38.2606 36.6658 39.9954 34.1974C40.1361 33.9847 40.2182 33.7387 40.2334 33.4842C40.2487 33.2296 40.1967 32.9756 40.0825 32.7475C39.9683 32.5195 39.7961 32.3256 39.5831 32.1854C39.3702 32.0451 39.124 31.9635 38.8694 31.9486C35.9976 31.6967 33.2221 30.7877 30.7576 29.2921C28.293 27.7964 26.2054 25.754 24.6561 23.3228C23.1068 20.8916 22.1373 18.1367 21.8225 15.2711C21.5077 12.4054 21.8561 9.50578 22.8407 6.79625C22.9245 6.57947 22.9553 6.34581 22.9304 6.11473C22.9056 5.88365 22.826 5.66184 22.6981 5.46777C22.5703 5.2737 22.3979 5.11299 22.1954 4.99901C21.9928 4.88503 21.766 4.82108 21.5338 4.8125Z" fill="#F5F5F5"/>
<path d="M33.0312 8L34.6341 11.3438L38.0625 11.8702L35.5469 14.3216L36.625 18.0625L33.0312 15.9014L29.4375 18.0625L30.5156 14.3216L28 11.8702L31.5219 11.3438L33.0312 8Z" fill="#F5F5F5"/>
<path d="M40.2188 18.0625L41.3636 20.451L43.8125 20.8269L42.0156 22.5779L42.7857 25.25L40.2188 23.7063L37.6518 25.25L38.4219 22.5779L36.625 20.8269L39.1406 20.451L40.2188 18.0625Z" fill="#F5F5F5"/>
</g>
<defs>
<clipPath id="clip0_4702_5">
<rect width="46" height="46" fill="white" transform="translate(0 0.5)"/>
</clipPath>
</defs>
</svg>
