<svg width="24" height="24" viewBox="0 0 24 24" fill="none" xmlns="http://www.w3.org/2000/svg">
<g clip-path="url(#clip0_7110_27853)">
<path d="M6.525 4.7139C6.67143 4.41357 6.74833 4.08412 6.75 3.75C6.75 3.30499 6.61804 2.86998 6.37081 2.49997C6.12357 2.12996 5.77217 1.84157 5.36104 1.67127C4.94991 1.50097 4.49751 1.45642 4.06105 1.54323C3.62459 1.63005 3.22368 1.84434 2.90901 2.15901C2.59434 2.47368 2.38005 2.87459 2.29323 3.31105C2.20642 3.74751 2.25097 4.19991 2.42127 4.61104C2.59157 5.02217 2.87996 5.37357 3.24997 5.62081C3.61998 5.86804 4.05499 6 4.5 6C4.83419 5.99831 5.16368 5.92119 5.4639 5.7744L7.5 7.81058V10.5H9V7.18943L6.525 4.7139ZM4.5 4.5C4.35167 4.5 4.20666 4.45601 4.08332 4.3736C3.95999 4.29119 3.86386 4.17406 3.80709 4.03701C3.75033 3.89997 3.73547 3.74917 3.76441 3.60368C3.79335 3.4582 3.86478 3.32456 3.96967 3.21967C4.07456 3.11478 4.2082 3.04335 4.35368 3.01441C4.49917 2.98547 4.64997 3.00033 4.78701 3.05709C4.92406 3.11386 5.04119 3.20999 5.1236 3.33332C5.20601 3.45666 5.25 3.60167 5.25 3.75C5.24982 3.94886 5.17075 4.13952 5.03013 4.28013C4.88952 4.42075 4.69886 4.49982 4.5 4.5Z" fill="currentColor"/>
<path d="M14.25 3.75C14.2518 3.33709 14.1399 2.93165 13.9266 2.57809C13.7134 2.22452 13.4069 1.93646 13.0408 1.74545C12.6748 1.55444 12.2632 1.46785 11.8512 1.49516C11.4392 1.52248 11.0426 1.66264 10.705 1.9003C10.3673 2.13796 10.1016 2.46395 9.93682 2.84258C9.77209 3.2212 9.71472 3.63786 9.771 4.04692C9.82728 4.45598 9.99504 4.84166 10.2559 5.16173C10.5168 5.4818 10.8607 5.72391 11.25 5.86155V10.4999H12.75V5.86192C13.1874 5.70777 13.5664 5.42202 13.835 5.0439C14.1035 4.66577 14.2485 4.21379 14.25 3.75ZM12 4.5C11.8516 4.5 11.7066 4.45601 11.5833 4.3736C11.46 4.29119 11.3638 4.17406 11.3071 4.03701C11.2503 3.89997 11.2355 3.74917 11.2644 3.60368C11.2933 3.45819 11.3648 3.32456 11.4697 3.21967C11.5745 3.11478 11.7082 3.04335 11.8537 3.01441C11.9991 2.98547 12.1499 3.00032 12.287 3.05709C12.424 3.11385 12.5412 3.20998 12.6236 3.33332C12.706 3.45666 12.75 3.60166 12.75 3.75C12.7498 3.94886 12.6707 4.13952 12.5301 4.28013C12.3895 4.42074 12.1988 4.49982 12 4.5Z" fill="currentColor"/>
<path d="M19.5 1.5C18.9035 1.50066 18.3315 1.73792 17.9097 2.15973C17.4879 2.58155 17.2507 3.15346 17.25 3.75C17.2517 4.08412 17.3286 4.41357 17.475 4.7139L15 7.18943V10.5H16.5V7.81057L18.5361 5.7744C18.8363 5.92119 19.1658 5.99831 19.5 6C20.0967 6 20.669 5.76295 21.091 5.34099C21.5129 4.91903 21.75 4.34674 21.75 3.75C21.75 3.15326 21.5129 2.58097 21.091 2.15901C20.669 1.73705 20.0967 1.5 19.5 1.5ZM19.5 4.5C19.3517 4.5 19.2067 4.45601 19.0833 4.3736C18.96 4.29119 18.8639 4.17406 18.8071 4.03701C18.7503 3.89997 18.7355 3.74917 18.7644 3.60368C18.7933 3.4582 18.8648 3.32456 18.9697 3.21967C19.0746 3.11478 19.2082 3.04335 19.3537 3.01441C19.4992 2.98547 19.65 3.00032 19.787 3.05709C19.9241 3.11386 20.0412 3.20999 20.1236 3.33332C20.206 3.45666 20.25 3.60166 20.25 3.75C20.2498 3.94886 20.1707 4.13952 20.0301 4.28013C19.8895 4.42075 19.6989 4.49982 19.5 4.5Z" fill="currentColor"/>
<path d="M12 18C12.8284 18 13.5 17.3284 13.5 16.5C13.5 15.6716 12.8284 15 12 15C11.1716 15 10.5 15.6716 10.5 16.5C10.5 17.3284 11.1716 18 12 18Z" fill="currentColor"/>
<path d="M17.8327 16.1089C17.3692 14.9284 16.5695 13.9098 15.5327 13.1794C14.4959 12.4491 13.2676 12.039 12 12C10.7324 12.039 9.50405 12.4491 8.46726 13.1794C7.43047 13.9098 6.63079 14.9284 6.16732 16.1089L6 16.5L6.16732 16.8911C6.63079 18.0716 7.43047 19.0902 8.46726 19.8206C9.50405 20.5509 10.7324 20.961 12 21C13.2676 20.961 14.4959 20.5509 15.5327 19.8206C16.5695 19.0902 17.3692 18.0716 17.8327 16.8911L18 16.5L17.8327 16.1089ZM12 19.5C11.4067 19.5 10.8266 19.3241 10.3333 18.9944C9.83994 18.6648 9.45542 18.1962 9.22836 17.648C9.0013 17.0999 8.94189 16.4967 9.05764 15.9147C9.1734 15.3328 9.45912 14.7982 9.87868 14.3787C10.2982 13.9591 10.8328 13.6734 11.4147 13.5576C11.9967 13.4419 12.5999 13.5013 13.148 13.7284C13.6962 13.9554 14.1648 14.3399 14.4944 14.8333C14.8241 15.3266 15 15.9067 15 16.5C14.9991 17.2954 14.6827 18.0579 14.1203 18.6203C13.5579 19.1827 12.7954 19.4991 12 19.5Z" fill="currentColor"/>
</g>
<defs>
<clipPath id="clip0_7110_27853">
<rect width="24" height="24" fill="white"/>
</clipPath>
</defs>
</svg>
