<svg width="24" height="24" viewBox="0 0 24 24" fill="none" xmlns="http://www.w3.org/2000/svg">
<g clip-path="url(#clip0_7148_28048)">
<path d="M12 20.25C9.3 20.25 6.675 18.9 5.1 16.5H9V15H3V21H4.5V18.225C6.375 20.475 9.075 21.75 12 21.75V20.25Z" fill="currentColor"/>
<path d="M15 7.5H18.9C16.425 3.675 11.325 2.625 7.5 5.1C5.175 6.6 3.75 9.225 3.75 12H2.25C2.25 6.6 6.6 2.25 12 2.25C14.925 2.25 17.625 3.525 19.5 5.775V3H21V9H15V7.5Z" fill="currentColor"/>
<path d="M18 17.25C18.8284 17.25 19.5 16.5784 19.5 15.75C19.5 14.9216 18.8284 14.25 18 14.25C17.1716 14.25 16.5 14.9216 16.5 15.75C16.5 16.5784 17.1716 17.25 18 17.25Z" fill="currentColor"/>
<path d="M23.8327 15.3589C23.3692 14.1784 22.5695 13.1598 21.5327 12.4294C20.4959 11.6991 19.2676 11.289 18 11.25C16.7324 11.289 15.5041 11.6991 14.4673 12.4294C13.4305 13.1598 12.6308 14.1784 12.1673 15.3589L12 15.75L12.1673 16.1411C12.6308 17.3216 13.4305 18.3402 14.4673 19.0706C15.5041 19.8009 16.7324 20.211 18 20.25C19.2676 20.211 20.4959 19.8009 21.5327 19.0706C22.5695 18.3402 23.3692 17.3216 23.8327 16.1411L24 15.75L23.8327 15.3589ZM18 18.75C17.4067 18.75 16.8266 18.5741 16.3333 18.2444C15.8399 17.9148 15.4554 17.4462 15.2284 16.898C15.0013 16.3499 14.9419 15.7467 15.0576 15.1647C15.1734 14.5828 15.4591 14.0482 15.8787 13.6287C16.2982 13.2091 16.8328 12.9234 17.4147 12.8076C17.9967 12.6919 18.5999 12.7513 19.148 12.9784C19.6962 13.2054 20.1648 13.5899 20.4944 14.0833C20.8241 14.5766 21 15.1567 21 15.75C20.9991 16.5454 20.6827 17.3079 20.1203 17.8703C19.5579 18.4327 18.7954 18.7491 18 18.75Z" fill="currentColor"/>
</g>
<defs>
<clipPath id="clip0_7148_28048">
<rect width="24" height="24" fill="white"/>
</clipPath>
</defs>
</svg>
