<svg width="32" height="32" viewBox="0 0 32 32" fill="none" xmlns="http://www.w3.org/2000/svg">
<g clip-path="url(#clip0_2994_535)">
<path d="M23.499 9.085L16.707 2.293C16.5195 2.10545 16.2652 2.00006 16 2H6C5.47004 2.00153 4.96222 2.21274 4.58748 2.58748C4.21274 2.96222 4.00153 3.47004 4 4V28C4.00153 28.53 4.21274 29.0378 4.58748 29.4125C4.96222 29.7873 5.47004 29.9985 6 30H14V28H6V4H14V10C14.0006 10.5302 14.2115 11.0386 14.5865 11.4135C14.9614 11.7885 15.4698 11.9994 16 12H22.292C22.6297 11.9999 22.9598 11.8998 23.2406 11.7121C23.5213 11.5244 23.7401 11.2577 23.8693 10.9457C23.9985 10.6337 24.0323 10.2904 23.9664 9.9592C23.9005 9.62799 23.7378 9.32377 23.499 9.085ZM16 10V4.4141L21.5854 10H16Z" fill="currentColor"/>
<path d="M28 21H22V18C22 17.4696 22.2107 16.9609 22.5858 16.5858C22.9609 16.2107 23.4696 16 24 16C24.5304 16 25.0391 16.2107 25.4142 16.5858C25.7893 16.9609 26 17.4696 26 18H28C28 16.9391 27.5786 15.9217 26.8284 15.1716C26.0783 14.4214 25.0609 14 24 14C22.9391 14 21.9217 14.4214 21.1716 15.1716C20.4214 15.9217 20 16.9391 20 18V21C19.4698 21.0007 18.9614 21.2116 18.5865 21.5865C18.2116 21.9614 18.0007 22.4698 18 23V28C18.0007 28.5302 18.2116 29.0386 18.5865 29.4135C18.9614 29.7884 19.4698 29.9993 20 30H28C28.5302 29.9993 29.0386 29.7884 29.4135 29.4135C29.7884 29.0386 29.9993 28.5302 30 28V23C29.9993 22.4698 29.7884 21.9614 29.4135 21.5865C29.0386 21.2116 28.5302 21.0007 28 21ZM20 28V23H28V28H20Z" fill="currentColor"/>
</g>
<defs>
<clipPath id="clip0_2994_535">
<rect width="32" height="32" fill="white"/>
</clipPath>
</defs>
</svg>
