<svg width="24" height="24" viewBox="0 0 24 24" fill="none" xmlns="http://www.w3.org/2000/svg">
<g id="icon=cs-gcenter">
<g id="Vector">
<path d="M16.4403 5.28174H4.5V6.78174H16.4403V5.28174Z" fill="currentColor"/>
<path fill-rule="evenodd" clip-rule="evenodd" d="M1.5 9.03174C1.5 9.85899 2.17275 10.5317 3 10.5317L21 10.5317C21.8273 10.5317 22.5 9.85899 22.5 9.03174V3.03174C22.5 2.20449 21.8273 1.53174 21 1.53174H3C2.17275 1.53174 1.5 2.20449 1.5 3.03174V9.03174ZM3 3.03174H21V9.03174L3 9.03174V3.03174Z" fill="currentColor"/>
<path d="M18.7015 6.78174C19.1158 6.78174 19.4515 6.44595 19.4515 6.03174C19.4515 5.61753 19.1158 5.28174 18.7015 5.28174C18.2873 5.28174 17.9515 5.61753 17.9515 6.03174C17.9515 6.44595 18.2873 6.78174 18.7015 6.78174Z" fill="currentColor"/>
<path d="M16.4403 15.745H4.5V17.2551H16.4403V15.745Z" fill="currentColor"/>
<path d="M16.4403 15.745H4.5V17.2551H16.4403V15.745Z" fill="currentColor"/>
<path d="M19.4515 16.5C19.4515 16.9142 19.1157 17.25 18.7015 17.25C18.2873 17.25 17.9515 16.9142 17.9515 16.5C17.9515 16.0858 18.2873 15.75 18.7015 15.75C19.1157 15.75 19.4515 16.0858 19.4515 16.5Z" fill="currentColor"/>
<path fill-rule="evenodd" clip-rule="evenodd" d="M1.5 19.5C1.5 20.3273 2.17275 21 3 21L21 21C21.8273 21 22.5 20.3273 22.5 19.5V13.5C22.5 12.6728 21.8273 12 21 12H3C2.17275 12 1.5 12.6728 1.5 13.5V19.5ZM3 13.5V19.5L21 19.5V13.5H3Z" fill="currentColor"/>
</g>
</g>
</svg>
