<svg width="24" height="24" viewBox="0 0 24 24" fill="none" xmlns="http://www.w3.org/2000/svg">
<g clip-path="url(#clip0_7118_27876)">
<path d="M11.25 11.25H4.5V12.75H11.25V11.25Z" fill="currentColor"/>
<path fill-rule="evenodd" clip-rule="evenodd" d="M11.25 16.5H3C2.17275 16.5 1.5 15.8273 1.5 15V9C1.5 8.17275 2.17275 7.5 3 7.5H21C21.8272 7.5 22.5 8.17275 22.5 9V10.5H21V9H3V15H11.25V16.5Z" fill="currentColor"/>
<path fill-rule="evenodd" clip-rule="evenodd" d="M17.2295 20.2424L17.2362 18.6479C16.9562 18.5746 16.6923 18.4619 16.4506 18.316L15.3127 19.4334L14.2617 18.3631L15.3997 17.2457C15.2633 17.01 15.1581 16.754 15.0896 16.4835L13.4951 16.4768L13.5013 14.9769L15.0958 14.9835C15.1692 14.7034 15.282 14.4393 15.4279 14.1975L14.3053 13.0742L15.3663 12.0139L16.4984 13.1467C16.734 13.0105 16.9898 12.9053 17.2602 12.8369L17.2668 11.2424L18.7668 11.2486L18.7602 12.8431C19.0401 12.9164 19.304 13.0291 19.5456 13.1748L20.6835 12.0575L21.7345 13.1278L20.5966 14.2451C20.733 14.4808 20.8383 14.7369 20.9068 15.0076L22.5013 15.0142L22.495 16.5141L20.9005 16.5075C20.8319 16.7698 20.7286 17.018 20.596 17.247L21.7281 18.3799L20.6671 19.4402L19.5445 18.3168C19.2961 18.4665 19.0244 18.5811 18.7361 18.6541L18.7295 20.2486L17.2295 20.2424ZM17.328 17.0875C18.0692 17.4576 18.97 17.1568 19.3401 16.4157C19.7102 15.6745 19.4095 14.7737 18.6683 14.4036C17.9271 14.0334 17.0263 14.3342 16.6562 15.0754C16.2861 15.8165 16.5868 16.7174 17.328 17.0875Z" fill="currentColor"/>
</g>
<defs>
<clipPath id="clip0_7118_27876">
<rect width="24" height="24" fill="white"/>
</clipPath>
</defs>
</svg>
