<svg width="46" height="47" viewBox="0 0 46 47" fill="none" xmlns="http://www.w3.org/2000/svg">
<g clip-path="url(#clip0_4702_10)">
<path d="M24.4375 3.375H21.5625V10.5625H24.4375V3.375Z" fill="#F2D179"/>
<path d="M36.2141 8.25324L31.1744 13.2929L33.2072 15.3256L38.2468 10.286L36.2141 8.25324Z" fill="#F2D179"/>
<path d="M43.125 22.0625H35.9375V24.9375H43.125V22.0625Z" fill="#F2D179"/>
<path d="M33.2072 31.6744L31.1744 33.7071L36.2141 38.7468L38.2468 36.714L33.2072 31.6744Z" fill="#F2D179"/>
<path d="M24.4375 36.4375H21.5625V43.625H24.4375V36.4375Z" fill="#F2D179"/>
<path d="M12.7929 31.6744L7.75325 36.714L9.78598 38.7468L14.8256 33.7071L12.7929 31.6744Z" fill="#F2D179"/>
<path d="M10.0625 22.0625H2.875V24.9375H10.0625V22.0625Z" fill="#F2D179"/>
<path d="M9.78599 8.25322L7.75327 10.286L12.7929 15.3256L14.8256 13.2929L9.78599 8.25322Z" fill="#F2D179"/>
<path d="M23 14.875C21.2941 14.875 19.6266 15.3808 18.2082 16.3286C16.7898 17.2763 15.6843 18.6233 15.0315 20.1994C14.3787 21.7754 14.2079 23.5096 14.5407 25.1827C14.8735 26.8557 15.695 28.3926 16.9012 29.5988C18.1074 30.805 19.6443 31.6265 21.3173 31.9593C22.9904 32.2921 24.7246 32.1213 26.3006 31.4685C27.8767 30.8157 29.2237 29.7102 30.1714 28.2918C31.1192 26.8734 31.625 25.2059 31.625 23.5C31.625 21.2125 30.7163 19.0187 29.0988 17.4012C27.4813 15.7837 25.2875 14.875 23 14.875Z" fill="#F2D179"/>
</g>
<defs>
<clipPath id="clip0_4702_10">
<rect width="46" height="46" fill="white" transform="translate(0 0.5)"/>
</clipPath>
</defs>
</svg>
