<svg width="24" height="24" viewBox="0 0 24 24" fill="none" xmlns="http://www.w3.org/2000/svg">
<g clip-path="url(#clip0_6916_27821)">
<path d="M10.5 9H6.75V10.5H10.5V9Z" fill="currentColor"/>
<path d="M17.25 9H13.5V10.5H17.25V9Z" fill="currentColor"/>
<path d="M14.55 14.25C13.95 15 12.975 15.45 12 15.45C11.025 15.45 10.05 15 9.45 14.25L8.25 15.15C9.15 16.2 10.5 16.95 12 16.95C13.5 16.95 14.85 16.275 15.75 15.15L14.55 14.25Z" fill="currentColor"/>
<path fill-rule="evenodd" clip-rule="evenodd" d="M19.8908 2.48019C20.3906 2.20751 21 2.56924 21 3.13857V12.7771L20.9171 13.5232C20.7062 15.421 19.8558 17.1905 18.5056 18.5407C17.9771 19.0692 17.3805 19.5248 16.7316 19.8957L12 22.5994L7.26843 19.8957C6.6195 19.5248 6.0229 19.0692 5.49441 18.5407C4.14422 17.1905 3.29376 15.421 3.0829 13.5232L3 12.7771V3.13857C3 2.56924 3.60943 2.20751 4.10921 2.48019C6.45252 3.7587 9.14025 4.48559 12 4.48559C14.8597 4.48559 17.5475 3.7587 19.8908 2.48019ZM4.5 4.35326V12.6941L4.57372 13.3576C4.74697 14.9168 5.44573 16.3707 6.55507 17.48C6.98929 17.9142 7.47947 18.2886 8.01264 18.5933L12 20.8718L15.9874 18.5933C16.5205 18.2886 17.0107 17.9142 17.4449 17.48C18.5543 16.3707 19.253 14.9168 19.4263 13.3576L19.5 12.6941V4.35326C17.2161 5.40141 14.6755 5.98559 12 5.98559C9.32453 5.98559 6.78385 5.40141 4.5 4.35326Z" fill="currentColor"/>
</g>
<defs>
<clipPath id="clip0_6916_27821">
<rect width="24" height="24" fill="white"/>
</clipPath>
</defs>
</svg>
