<svg width="24" height="24" viewBox="0 0 24 24" fill="none" xmlns="http://www.w3.org/2000/svg">
<g clip-path="url(#clip0_6590_1556)">
<path fill-rule="evenodd" clip-rule="evenodd" d="M11.7332 17.25C11.5437 19.3524 9.77677 21 7.625 21C5.34683 21 3.5 19.1532 3.5 16.875C3.5 14.5968 5.34683 12.75 7.625 12.75C9.51317 12.75 11.105 14.0186 11.5947 15.75H13.4053C13.895 14.0186 15.4868 12.75 17.375 12.75C19.6532 12.75 21.5 14.5968 21.5 16.875C21.5 19.1532 19.6532 21 17.375 21C15.2232 21 13.4563 19.3524 13.2668 17.25H11.7332ZM7.625 19.5C9.07475 19.5 10.25 18.3247 10.25 16.875C10.25 15.4253 9.07475 14.25 7.625 14.25C6.17525 14.25 5 15.4253 5 16.875C5 18.3247 6.17525 19.5 7.625 19.5ZM17.375 19.5C18.8247 19.5 20 18.3247 20 16.875C20 15.4253 18.8247 14.25 17.375 14.25C15.9253 14.25 14.75 15.4253 14.75 16.875C14.75 18.3247 15.9253 19.5 17.375 19.5Z" fill="currentColor"/>
<path fill-rule="evenodd" clip-rule="evenodd" d="M5 9V6C5 4.34315 6.34315 3 8 3H17C18.6569 3 20 4.34315 20 6V9H23V10.5L2 10.5V9H5ZM8 4.5H17C17.8284 4.5 18.5 5.17157 18.5 6V9H6.5V6C6.5 5.17157 7.17157 4.5 8 4.5Z" fill="currentColor"/>
</g>
<defs>
<clipPath id="clip0_6590_1556">
<rect width="24" height="24" fill="white"/>
</clipPath>
</defs>
</svg>
