<svg width="24" height="24" viewBox="0 0 24 24" fill="none" xmlns="http://www.w3.org/2000/svg">
<g clip-path="url(#clip0_7142_28017)">
<path d="M11.625 10.5H14.25V9H12.75V8.25H11.25V9.0381C10.795 9.13126 10.3907 9.38999 10.1155 9.76417C9.84037 10.1384 9.71387 10.6013 9.76056 11.0635C9.80724 11.5256 10.0238 11.9539 10.3682 12.2655C10.7127 12.5771 11.1605 12.7497 11.625 12.75H12.375C12.4745 12.75 12.5698 12.7895 12.6402 12.8598C12.7105 12.9302 12.75 13.0255 12.75 13.125C12.75 13.2245 12.7105 13.3198 12.6402 13.3902C12.5698 13.4605 12.4745 13.5 12.375 13.5H9.75V15H11.25V15.75H12.75V14.9619C13.205 14.8687 13.6093 14.61 13.8845 14.2358C14.1596 13.8616 14.2861 13.3987 14.2394 12.9365C14.1928 12.4744 13.9762 12.0461 13.6318 11.7345C13.2873 11.4229 12.8395 11.2503 12.375 11.25H11.625C11.5255 11.25 11.4302 11.2105 11.3598 11.1402C11.2895 11.0698 11.25 10.9745 11.25 10.875C11.25 10.7755 11.2895 10.6802 11.3598 10.6098C11.4302 10.5395 11.5255 10.5 11.625 10.5Z" fill="currentColor"/>
<path fill-rule="evenodd" clip-rule="evenodd" d="M9.00001 3.70164V1.5H10.5V3.16726C10.9824 3.0578 11.4845 3 12 3C12.5155 3 13.0176 3.0578 13.5 3.16726V1.5H15V3.70164C16.7408 4.56672 18.0551 6.16116 18.5431 8.08511L22.1638 7.10701L22.555 8.5551L18.748 9.58354C18.7493 9.63886 18.75 9.69435 18.75 9.75V12.8647L22.6233 13.5102L22.3767 14.9898L18.7487 14.3851C18.7299 15.3432 18.5115 16.2523 18.1333 17.0726L21.5303 20.4697L20.4697 21.5303L17.3307 18.3913C16.0956 19.9788 14.1671 21 12 21C9.83294 21 7.90438 19.9788 6.66934 18.3913L3.53034 21.5303L2.46968 20.4697L5.86672 17.0726C5.48856 16.2523 5.27014 15.3432 5.25133 14.3851L1.62331 14.9898L1.37671 13.5102L5.25001 12.8647V9.75C5.25001 9.69331 5.25071 9.63677 5.2521 9.58041L1.45669 8.5551L1.84788 7.10701L5.45763 8.08217C5.94628 6.15953 7.26015 4.56628 9.00001 3.70164ZM17.25 9.75V14.25C17.25 17.1495 14.8995 19.5 12 19.5C9.10051 19.5 6.75001 17.1495 6.75001 14.25V9.75C6.75001 6.85051 9.10051 4.5 12 4.5C14.8995 4.5 17.25 6.85051 17.25 9.75Z" fill="currentColor"/>
</g>
<defs>
<clipPath id="clip0_7142_28017">
<rect width="24" height="24" fill="white"/>
</clipPath>
</defs>
</svg>
