<svg width="24" height="24" viewBox="0 0 24 24" fill="none" xmlns="http://www.w3.org/2000/svg">
<g clip-path="url(#clip0_6925_27784)">
<path d="M4.57881 5.32879L5.63916 6.38899C6.47381 5.55246 7.46527 4.88879 8.55677 4.43596C9.64826 3.98313 10.8184 3.75004 12.0001 3.75004C13.1818 3.75004 14.3519 3.98313 15.4434 4.43596C16.5349 4.88879 17.5263 5.55246 18.361 6.38899L19.4212 5.32879C18.4474 4.35284 17.2907 3.57854 16.0173 3.05024C14.7438 2.52194 13.3787 2.25 12 2.25C10.6213 2.25 9.25616 2.52194 7.98271 3.05024C6.70927 3.57854 5.55261 4.35284 4.57881 5.32879Z" fill="currentColor"/>
<path d="M12 6C11.1136 5.99943 10.2359 6.17401 9.41717 6.5137C8.59848 6.85339 7.85497 7.35149 7.22937 7.9794L8.28934 9.03953C8.77622 8.55151 9.35458 8.16434 9.99131 7.90016C10.628 7.63599 11.3106 7.50001 12 7.50001C12.6893 7.50001 13.3719 7.63599 14.0086 7.90016C14.6454 8.16434 15.2237 8.55151 15.7106 9.03953L16.7707 7.9794C16.1451 7.3515 15.4015 6.8534 14.5828 6.51371C13.7641 6.17403 12.8864 5.99945 12 6Z" fill="currentColor"/>
<path d="M14.25 22.5H9.75C9.35218 22.5 8.97064 22.342 8.68934 22.0607C8.40804 21.7794 8.25 21.3978 8.25 21V12C8.25 11.6022 8.40804 11.2206 8.68934 10.9393C8.97064 10.658 9.35218 10.5 9.75 10.5H14.25C14.6478 10.5 15.0294 10.658 15.3107 10.9393C15.592 11.2206 15.75 11.6022 15.75 12V21C15.75 21.3978 15.592 21.7794 15.3107 22.0607C15.0294 22.342 14.6478 22.5 14.25 22.5ZM9.75 12V21H14.25V12H9.75Z" fill="currentColor"/>
<rect x="11.25" y="13.5" width="1.5" height="1.5" rx="0.75" fill="currentColor"/>
</g>
<defs>
<clipPath id="clip0_6925_27784">
<rect width="24" height="24" fill="white"/>
</clipPath>
</defs>
</svg>
