<svg width="24" height="25" viewBox="0 0 24 25" fill="none" xmlns="http://www.w3.org/2000/svg">
<path d="M19.5 22.8563H18V19.1063C18 18.6139 17.903 18.1262 17.7145 17.6713C17.5261 17.2163 17.2499 16.8029 16.9017 16.4547C16.5534 16.1065 16.14 15.8302 15.6851 15.6418C15.2301 15.4533 14.7425 15.3563 14.25 15.3563H9.75C8.75544 15.3563 7.80161 15.7514 7.09835 16.4547C6.39509 17.1579 6 18.1118 6 19.1063V22.8563H4.5V19.1063C4.5 17.7139 5.05312 16.3786 6.03769 15.394C7.02226 14.4094 8.35761 13.8563 9.75 13.8563H14.25C15.6424 13.8563 16.9777 14.4094 17.9623 15.394C18.9469 16.3786 19.5 17.7139 19.5 19.1063V22.8563Z" fill="currentColor"/>
<path d="M14.0834 3.98831C13.4667 3.57626 12.7417 3.35632 12 3.35632C11.0054 3.35632 10.0516 3.75141 9.34835 4.45467C8.64509 5.15793 8.25 6.11176 8.25 7.10632C8.25 7.848 8.46993 8.57303 8.88199 9.18971C9.29404 9.8064 9.87971 10.287 10.5649 10.5709C11.2502 10.8547 12.0042 10.929 12.7316 10.7843C13.459 10.6396 14.1272 10.2824 14.6516 9.75797C14.7922 9.61747 14.9207 9.46665 15.0363 9.30713H16.7664C16.6521 9.55484 16.5181 9.79428 16.3652 10.0231C15.7883 10.8864 14.9684 11.5593 14.0091 11.9567C13.0498 12.3541 11.9942 12.458 10.9758 12.2554C9.95738 12.0529 9.02191 11.5529 8.28769 10.8186C7.55346 10.0844 7.05345 9.14895 6.85088 8.13055C6.6483 7.11215 6.75227 6.05655 7.14963 5.09724C7.54699 4.13792 8.2199 3.31799 9.08326 2.74111C9.94661 2.16423 10.9616 1.85632 12 1.85632C13.3924 1.85632 14.7277 2.40945 15.7123 3.39401C16.1532 3.83491 16.5076 4.34616 16.7645 4.90137H15.0333C14.7743 4.54519 14.4533 4.23551 14.0834 3.98831Z" fill="currentColor"/>
<path d="M15.114 6.35632V7.85632H22.614V6.35632H15.114Z" fill="currentColor"/>
</svg>
