<svg width="24" height="24" viewBox="0 0 24 24" fill="none" xmlns="http://www.w3.org/2000/svg">
<g clip-path="url(#clip0_7149_28057)">
<path d="M12 20.25C14.7 20.25 17.325 18.9 18.9 16.5H15V15H21V21H19.5V18.225C17.625 20.475 14.925 21.75 12 21.75V20.25Z" fill="currentColor"/>
<path d="M9 7.5H5.1C7.575 3.675 12.675 2.625 16.5 5.1C18.825 6.6 20.25 9.225 20.25 12H21.75C21.75 6.6 17.4 2.25 12 2.25C9.075 2.25 6.375 3.525 4.5 5.775V3H3V9H9V7.5Z" fill="currentColor"/>
<path fill-rule="evenodd" clip-rule="evenodd" d="M7.84865 18.75C7.32994 19.6467 6.36042 20.25 5.25 20.25C4.13958 20.25 3.17006 19.6467 2.65135 18.75H0.75V17.25H2.25V15H0.75V13.5L2.34451 13.5C2.67755 12.2061 3.85212 11.25 5.25 11.25C6.64788 11.25 7.82245 12.2061 8.15549 13.5L9.75 13.5V15L8.25 15V17.25H9.75V18.75L7.84865 18.75ZM3.75 17.25V14.25C3.75 13.4216 4.42157 12.75 5.25 12.75C6.07818 12.75 6.7496 13.4212 6.75 14.2493L6.75 17.25C6.75 17.2503 6.75 17.2507 6.75 17.251C6.74943 18.079 6.07808 18.75 5.25 18.75C4.42157 18.75 3.75 18.0784 3.75 17.25Z" fill="currentColor"/>
</g>
<defs>
<clipPath id="clip0_7149_28057">
<rect width="24" height="24" fill="white" transform="matrix(-1 0 0 1 24 0)"/>
</clipPath>
</defs>
</svg>
