<svg width="24" height="26" viewBox="0 0 24 26" fill="none" xmlns="http://www.w3.org/2000/svg">
<path fill-rule="evenodd" clip-rule="evenodd" d="M22.4201 2.83322L2.44223 23.5307L1.38446 22.4228L21.3623 1.72537L22.4201 2.83322Z" fill="currentColor"/>
<path d="M17.1347 10.8393L21.075 14.9437C23.025 16.975 23.025 20.2562 21.075 22.2094C19.125 24.1625 16.05 24.1625 14.175 22.1312L10.2159 18.0072L11.3064 16.8775L15.3 21.0375C16.575 22.3656 18.75 22.3656 20.025 20.9594C21.3 19.6312 21.3 17.3656 19.95 16.0375L16.0442 11.969L17.1347 10.8393Z" fill="currentColor"/>
<path d="M15.7486 9.39545L9.82498 3.225C7.94999 1.19375 4.87498 1.19375 2.92498 3.14687C0.974985 5.1 0.974985 8.38125 2.92498 10.3344L2.99998 10.4125L5.09998 12.6781L6.14998 11.5844L3.97498 9.31875C2.69998 7.99062 2.69998 5.725 3.97498 4.39687C5.24998 3.06875 7.42498 2.99062 8.69999 4.31875L14.6582 10.5252L15.7486 9.39545Z" fill="currentColor"/>
<path d="M13.6053 11.616L13.275 11.2719C11.925 9.94375 9.82498 10.0219 8.54998 11.4281C7.34998 12.7562 7.34998 14.8656 8.54998 16.2719L8.82987 16.5634L9.92033 15.4337L9.67498 15.1781C8.92498 14.3969 8.99998 13.1469 9.67498 12.4437C10.425 11.7406 11.55 11.7406 12.3 12.4437L12.5525 12.7067L13.6053 11.616Z" fill="currentColor"/>
<path d="M13.9385 14.1506L15.375 15.6469L16.425 14.5531L14.9914 13.0598L13.9385 14.1506Z" fill="currentColor"/>
</svg>
