<svg width="24" height="25" viewBox="0 0 24 25" fill="none" xmlns="http://www.w3.org/2000/svg">
<path d="M12 18.0435C11.3787 18.0435 10.875 18.5472 10.875 19.1685C10.875 19.7898 11.3787 20.2935 12 20.2935C12.6213 20.2935 13.125 19.7898 13.125 19.1685C13.125 18.5472 12.6213 18.0435 12 18.0435Z" fill="currentColor"/>
<path d="M12.75 9.79346H11.25V16.5435H12.75V9.79346Z" fill="currentColor"/>
<path d="M13.5 23.2935H2.25001C1.98796 23.2935 1.74481 23.1567 1.60899 22.9326C1.47294 22.7087 1.46379 22.4299 1.58461 22.1975L11.3346 3.44748C11.4637 3.19916 11.7319 3.04346 12 3.04346C12.2681 3.04346 12.5363 3.19916 12.6654 3.44748L17.7354 13.1975L16.4046 13.8894L12 5.41908L3.48541 21.7935H13.5V23.2935Z" fill="currentColor"/>
<path d="M22.5 18.7935H19.5H18H15V20.2935H18H19.5H22.5V18.7935Z" fill="currentColor"/>
</svg>
