<svg width="24" height="24" viewBox="0 0 24 24" fill="none" xmlns="http://www.w3.org/2000/svg">
<g clip-path="url(#clip0_7153_28072)">
<path fill-rule="evenodd" clip-rule="evenodd" d="M12.5663 2.15203C12.2673 1.80772 11.7327 1.80772 11.4337 2.15203L9.75 4.09087V13.4999H8.25V11.2499C8.25 10.8357 7.91421 10.4999 7.5 10.4999H4.5C4.08579 10.4999 3.75 10.8357 3.75 11.2499V13.4999H2.25C1.83579 13.4999 1.5 13.8357 1.5 14.2499V18.75C1.5 19.1642 1.83579 19.5 2.25 19.5H6.75V21C6.75 21.4142 7.08579 21.75 7.5 21.75H16.5C16.9142 21.75 17.25 21.4142 17.25 21V19.5H21.75C22.1642 19.5 22.5 19.1642 22.5 18.75V14.2499C22.5 13.8357 22.1642 13.4999 21.75 13.4999H20.25V11.2499C20.25 10.8357 19.9142 10.4999 19.5 10.4999H16.5C16.0858 10.4999 15.75 10.8357 15.75 11.2499V13.4999H14.25V4.09087L12.5663 2.15203ZM12.75 4.65127L12 3.78764L11.25 4.65127V14.9999H6.75V11.9999H5.25V14.9999H3V18H8.25V20.25H15.75V18H21V14.9999H18.75V11.9999H17.25V14.9999H12.75V4.65127Z" fill="currentColor"/>
<path d="M13.5 17.25H10.5V18.75H13.5V17.25Z" fill="currentColor"/>
<path d="M6.75 9L6.75 5.25L5.25 5.25L5.25 9L6.75 9Z" fill="currentColor"/>
<path d="M6.75 3L6.75 1.5L5.25 1.5L5.25 3L6.75 3Z" fill="currentColor"/>
<path d="M18.75 3L18.75 1.5L17.25 1.5L17.25 3L18.75 3Z" fill="currentColor"/>
<path d="M18.75 9L18.75 5.25L17.25 5.25L17.25 9L18.75 9Z" fill="currentColor"/>
</g>
<defs>
<clipPath id="clip0_7153_28072">
<rect width="24" height="24" fill="white"/>
</clipPath>
</defs>
</svg>
