<svg width="24" height="24" viewBox="0 0 24 24" fill="none" xmlns="http://www.w3.org/2000/svg">
<g clip-path="url(#clip0_6909_72)">
<path d="M21 15L18 15V16.5H21V21H3V16.5H6V15H3C2.60232 15.0005 2.22107 15.1587 1.93987 15.4399C1.65866 15.7211 1.50048 16.1023 1.5 16.5V21C1.50048 21.3977 1.65866 21.7789 1.93987 22.0601C2.22107 22.3413 2.60232 22.4995 3 22.5H21C21.3977 22.4995 21.7789 22.3413 22.0601 22.0601C22.3413 21.7789 22.4995 21.3977 22.5 21V16.5C22.4995 16.1023 22.3413 15.7211 22.0601 15.4399C21.7789 15.1587 21.3977 15.0005 21 15Z" fill="currentColor"/>
<path d="M5.25 19.5C5.66421 19.5 6 19.1642 6 18.75C6 18.3358 5.66421 18 5.25 18C4.83579 18 4.5 18.3358 4.5 18.75C4.5 19.1642 4.83579 19.5 5.25 19.5Z" fill="currentColor"/>
<path d="M15 8.25H10.5V6C10.5 5.60218 10.658 5.22064 10.9393 4.93934C11.2206 4.65804 11.6022 4.5 12 4.5C12.3978 4.5 12.7794 4.65804 13.0607 4.93934C13.342 5.22064 13.5 5.60218 13.5 6H15C15 5.20435 14.6839 4.44129 14.1213 3.87868C13.5587 3.31607 12.7956 3 12 3C11.2044 3 10.4413 3.31607 9.87868 3.87868C9.31607 4.44129 9 5.20435 9 6V8.25C8.60233 8.2505 8.22109 8.40869 7.93989 8.68989C7.65869 8.97109 7.5005 9.35233 7.5 9.75V13.5C7.5005 13.8977 7.65869 14.2789 7.93989 14.5601C8.22109 14.8413 8.60233 14.9995 9 15H15C15.3977 14.9995 15.7789 14.8413 16.0601 14.5601C16.3413 14.2789 16.4995 13.8977 16.5 13.5V9.75C16.4995 9.35233 16.3413 8.97109 16.0601 8.68989C15.7789 8.40869 15.3977 8.2505 15 8.25ZM9 13.5V9.75H15V13.5H9Z" fill="currentColor"/>
</g>
<defs>
<clipPath id="clip0_6909_72">
<rect width="24" height="24" fill="white"/>
</clipPath>
</defs>
</svg>
