<svg width="24" height="24" viewBox="0 0 24 24" fill="none" xmlns="http://www.w3.org/2000/svg">
<g clip-path="url(#clip0_7105_27824)">
<path d="M12.75 22.5L12.75 19.5L11.25 19.5L11.25 22.5L12.75 22.5Z" fill="currentColor"/>
<path d="M12 18C10.8133 18 9.65328 17.6481 8.66658 16.9888C7.67989 16.3295 6.91085 15.3925 6.45673 14.2961C6.0026 13.1997 5.88378 11.9933 6.11529 10.8295C6.3468 9.66558 6.91825 8.59648 7.75736 7.75736C8.59648 6.91825 9.66558 6.3468 10.8295 6.11529C11.9933 5.88378 13.1997 6.0026 14.2961 6.45673C15.3925 6.91085 16.3295 7.67989 16.9888 8.66658C17.6481 9.65328 18 10.8133 18 12C17.9982 13.5907 17.3654 15.1158 16.2406 16.2406C15.1158 17.3654 13.5907 17.9982 12 18ZM12 7.5C11.11 7.5 10.24 7.76392 9.49994 8.25839C8.75992 8.75286 8.18314 9.45566 7.84255 10.2779C7.50195 11.1002 7.41284 12.005 7.58647 12.8779C7.7601 13.7508 8.18869 14.5526 8.81802 15.182C9.44736 15.8113 10.2492 16.2399 11.1221 16.4135C11.995 16.5872 12.8998 16.4981 13.7221 16.1575C14.5443 15.8169 15.2472 15.2401 15.7416 14.5001C16.2361 13.76 16.5 12.89 16.5 12C16.4987 10.8069 16.0241 9.66312 15.1805 8.81949C14.3369 7.97587 13.1931 7.50133 12 7.5Z" fill="currentColor"/>
</g>
<defs>
<clipPath id="clip0_7105_27824">
<rect width="24" height="24" fill="white"/>
</clipPath>
</defs>
</svg>
