<svg width="24" height="24" viewBox="0 0 24 24" fill="none" xmlns="http://www.w3.org/2000/svg">
<g clip-path="url(#clip0_7109_27844)">
<path d="M21 3H4.5C4.10218 3 3.72064 3.15804 3.43934 3.43934C3.15804 3.72064 3 4.10218 3 4.5V8.25H4.5V4.5H21V15H10.5V16.5H12V19.5H10.5V21H17.25V19.5H13.5V16.5H21C21.3978 16.5 21.7794 16.342 22.0607 16.0607C22.342 15.7794 22.5 15.3978 22.5 15V4.5C22.5 4.10218 22.342 3.72064 22.0607 3.43934C21.7794 3.15804 21.3978 3 21 3Z" fill="currentColor"/>
<path fill-rule="evenodd" clip-rule="evenodd" d="M5.25 14.25C6.07843 14.25 6.75 13.5784 6.75 12.75C6.75 11.9216 6.07843 11.25 5.25 11.25C4.42157 11.25 3.75 11.9216 3.75 12.75C3.75 13.5784 4.42157 14.25 5.25 14.25ZM5.25 15.75C6.90685 15.75 8.25 14.4069 8.25 12.75C8.25 11.0931 6.90685 9.75 5.25 9.75C3.59315 9.75 2.25 11.0931 2.25 12.75C2.25 14.4069 3.59315 15.75 5.25 15.75Z" fill="currentColor"/>
<path fill-rule="evenodd" clip-rule="evenodd" d="M3.75 18C3.33579 18 3 18.3358 3 18.75V21H1.5V18.75C1.5 17.5074 2.50736 16.5 3.75 16.5H6.75C7.99264 16.5 9 17.5074 9 18.75V21H7.5V18.75C7.5 18.3358 7.16421 18 6.75 18H3.75Z" fill="currentColor"/>
<path fill-rule="evenodd" clip-rule="evenodd" d="M12 12.75L12 9.75H13.5L13.5 12.75H12Z" fill="currentColor"/>
<path fill-rule="evenodd" clip-rule="evenodd" d="M15 12.75L15 6.75L16.5 6.75L16.5 12.75H15Z" fill="currentColor"/>
</g>
<defs>
<clipPath id="clip0_7109_27844">
<rect width="24" height="24" fill="white"/>
</clipPath>
</defs>
</svg>
