<svg width="24" height="24" viewBox="0 0 24 24" fill="none" xmlns="http://www.w3.org/2000/svg">
<path d="M18.75 7.5H3C2.6023 7.49958 2.22101 7.34141 1.9398 7.0602C1.65859 6.77899 1.50042 6.3977 1.5 6V3C1.50042 2.6023 1.65859 2.22101 1.9398 1.9398C2.22101 1.65859 2.6023 1.50042 3 1.5H18.75C19.1477 1.50042 19.529 1.65859 19.8102 1.9398C20.0914 2.22101 20.2496 2.6023 20.25 3V6C20.2496 6.3977 20.0914 6.77899 19.8102 7.0602C19.529 7.34141 19.1477 7.49958 18.75 7.5ZM3 3V6H18.75V3H3Z" fill="currentColor"/>
<path d="M21 15H5.25C4.8523 14.9996 4.47101 14.8414 4.1898 14.5602C3.90859 14.279 3.75042 13.8977 3.75 13.5V10.5C3.75042 10.1023 3.90859 9.72101 4.1898 9.4398C4.47101 9.15859 4.8523 9.00042 5.25 9H21C21.3977 9.00042 21.779 9.15859 22.0602 9.4398C22.3414 9.72101 22.4996 10.1023 22.5 10.5V13.5C22.4996 13.8977 22.3414 14.279 22.0602 14.5602C21.779 14.8414 21.3977 14.9996 21 15ZM5.25 10.5V13.5H21V10.5H5.25Z" fill="currentColor"/>
<path d="M18.75 22.5H3C2.6023 22.4996 2.22101 22.3414 1.9398 22.0602C1.65859 21.779 1.50042 21.3977 1.5 21V18C1.50042 17.6023 1.65859 17.221 1.9398 16.9398C2.22101 16.6586 2.6023 16.5004 3 16.5H18.75C19.1477 16.5004 19.529 16.6586 19.8102 16.9398C20.0914 17.221 20.2496 17.6023 20.25 18V21C20.2496 21.3977 20.0914 21.779 19.8102 22.0602C19.529 22.3414 19.1477 22.4996 18.75 22.5ZM3 18V21H18.75V18H3Z" fill="currentColor"/>
</svg>
