<svg width="24" height="24" viewBox="0 0 24 24" fill="none" xmlns="http://www.w3.org/2000/svg">
<g clip-path="url(#clip0_7141_28012)">
<path d="M21 9.75V6C20.9995 5.60232 20.8414 5.22105 20.5602 4.93984C20.279 4.65864 19.8977 4.50046 19.5 4.5H17.25V6H19.5V9.75C19.5014 10.1774 19.5948 10.5996 19.7736 10.9878C19.9525 11.376 20.2127 11.7212 20.5367 12C20.2127 12.2788 19.9525 12.624 19.7736 13.0122C19.5948 13.4004 19.5014 13.8226 19.5 14.25V18H17.25V19.5H19.5C19.8977 19.4995 20.279 19.3414 20.5602 19.0602C20.8414 18.779 20.9995 18.3977 21 18V14.25C21.0005 13.8523 21.1586 13.471 21.4398 13.1898C21.721 12.9086 22.1023 12.7505 22.5 12.75V11.25C22.1023 11.2495 21.721 11.0914 21.4398 10.8102C21.1586 10.5289 21.0005 10.1477 21 9.75Z" fill="currentColor"/>
<path d="M4.5 9.75V6H6.75V4.5H4.5C4.10232 4.50046 3.72105 4.65864 3.43984 4.93984C3.15864 5.22105 3.00046 5.60232 3 6V9.75C2.99954 10.1477 2.84136 10.5289 2.56016 10.8102C2.27895 11.0914 1.89768 11.2495 1.5 11.25V12.75C1.89768 12.7505 2.27895 12.9086 2.56016 13.1898C2.84136 13.471 2.99954 13.8523 3 14.25V18C3.00046 18.3977 3.15864 18.779 3.43984 19.0602C3.72105 19.3414 4.10232 19.4995 4.5 19.5H6.75V18H4.5V14.25C4.49856 13.8226 4.40525 13.4004 4.22637 13.0122C4.0475 12.624 3.78725 12.2788 3.46328 12C3.78725 11.7212 4.0475 11.376 4.22637 10.9878C4.40525 10.5996 4.49856 10.1774 4.5 9.75Z" fill="currentColor"/>
<path d="M13.5 6.75L12 12.39L10.56 6.75H9L11.3625 14.1525L10.8975 15.75H9V17.25H10.695C11.0164 17.2493 11.329 17.1455 11.5869 16.9538C11.8448 16.762 12.0343 16.4925 12.1275 16.185L15 6.75H13.5Z" fill="currentColor"/>
</g>
<defs>
<clipPath id="clip0_7141_28012">
<rect width="24" height="24" fill="white"/>
</clipPath>
</defs>
</svg>
