<svg width="24" height="24" viewBox="0 0 24 24" fill="none" xmlns="http://www.w3.org/2000/svg">
<g clip-path="url(#clip0_7119_27894)">
<path d="M5.25 6C5.66421 6 6 5.66421 6 5.25C6 4.83579 5.66421 4.5 5.25 4.5C4.83579 4.5 4.5 4.83579 4.5 5.25C4.5 5.66421 4.83579 6 5.25 6Z" fill="currentColor"/>
<path d="M5.25 12C5.66421 12 6 11.6642 6 11.25C6 10.8358 5.66421 10.5 5.25 10.5C4.83579 10.5 4.5 10.8358 4.5 11.25C4.5 11.6642 4.83579 12 5.25 12Z" fill="currentColor"/>
<path d="M5.25 18C5.66421 18 6 17.6642 6 17.25C6 16.8358 5.66421 16.5 5.25 16.5C4.83579 16.5 4.5 16.8358 4.5 17.25C4.5 17.6642 4.83579 18 5.25 18Z" fill="currentColor"/>
<path d="M9 19.5H3V15H9V13.5H3V9H16.5V3C16.5 2.60218 16.342 2.22064 16.0607 1.93934C15.7794 1.65804 15.3978 1.5 15 1.5H3C2.60218 1.5 2.22064 1.65804 1.93934 1.93934C1.65804 2.22064 1.5 2.60218 1.5 3V19.5C1.5 19.8978 1.65804 20.2794 1.93934 20.5607C2.22064 20.842 2.60218 21 3 21H9V19.5ZM3 3H15V7.5H3V3Z" fill="currentColor"/>
<path d="M21 12.7501V14.5599C20.5289 13.7723 19.8595 13.122 19.0586 12.6739C18.2576 12.2259 17.3532 11.9957 16.4355 12.0065C15.5178 12.0172 14.619 12.2684 13.8288 12.7351C13.0385 13.2018 12.3845 13.8676 11.932 14.666C11.4795 15.4645 11.2443 16.3676 11.25 17.2853C11.2556 18.2031 11.5019 19.1033 11.9641 19.8961C12.4264 20.6889 13.0886 21.3466 13.8845 21.8035C14.6804 22.2605 15.5822 22.5006 16.5 22.5001V21.0001C15.8237 21.001 15.1597 20.8189 14.5785 20.4733C13.9972 20.1276 13.5202 19.6312 13.198 19.0365C12.8759 18.4419 12.7205 17.7712 12.7484 17.0955C12.7763 16.4198 12.9863 15.7642 13.3564 15.1981C13.7265 14.6321 14.2427 14.1766 14.8505 13.88C15.4583 13.5834 16.1349 13.4567 16.8089 13.5132C17.4828 13.5698 18.1289 13.8076 18.6787 14.2014C19.2285 14.5951 19.6616 15.1303 19.9321 15.7501H18V17.2501H22.5V12.7501H21Z" fill="currentColor"/>
</g>
<defs>
<clipPath id="clip0_7119_27894">
<rect width="24" height="24" fill="white"/>
</clipPath>
</defs>
</svg>
