<svg width="24" height="24" viewBox="0 0 24 24" fill="none" xmlns="http://www.w3.org/2000/svg">
<path d="M5.25 6C5.66421 6 6 5.66421 6 5.25C6 4.83579 5.66421 4.5 5.25 4.5C4.83579 4.5 4.5 4.83579 4.5 5.25C4.5 5.66421 4.83579 6 5.25 6Z" fill="currentColor"/>
<path d="M5.25 12C5.66421 12 6 11.6642 6 11.25C6 10.8358 5.66421 10.5 5.25 10.5C4.83579 10.5 4.5 10.8358 4.5 11.25C4.5 11.6642 4.83579 12 5.25 12Z" fill="currentColor"/>
<path d="M5.25 18C5.66421 18 6 17.6642 6 17.25C6 16.8358 5.66421 16.5 5.25 16.5C4.83579 16.5 4.5 16.8358 4.5 17.25C4.5 17.6642 4.83579 18 5.25 18Z" fill="currentColor"/>
<path d="M9 19.5H3V15H9V13.5H3V9H16.5V3C16.5 2.60218 16.342 2.22064 16.0607 1.93934C15.7794 1.65804 15.3978 1.5 15 1.5H3C2.60218 1.5 2.22064 1.65804 1.93934 1.93934C1.65804 2.22064 1.5 2.60218 1.5 3V19.5C1.5 19.8978 1.65804 20.2794 1.93934 20.5607C2.22064 20.842 2.60218 21 3 21H9V19.5ZM3 3H15V7.5H3V3Z" fill="currentColor"/>
<path d="M21.0001 12.7501V14.5599C20.529 13.7723 19.8596 13.122 19.0587 12.6739C18.2577 12.2259 17.3533 11.9957 16.4356 12.0065C15.5179 12.0172 14.6191 12.2684 13.8289 12.7351C13.0386 13.2018 12.3846 13.8676 11.9321 14.666C11.4796 15.4645 11.2445 16.3676 11.2501 17.2853C11.2557 18.2031 11.502 19.1033 11.9643 19.8961C12.4265 20.6889 13.0887 21.3466 13.8846 21.8035C14.6805 22.2605 15.5823 22.5006 16.5001 22.5001V21.0001C15.8238 21.001 15.1599 20.8189 14.5786 20.4733C13.9973 20.1276 13.5203 19.6312 13.1982 19.0365C12.876 18.4419 12.7206 17.7712 12.7485 17.0955C12.7764 16.4198 12.9865 15.7642 13.3565 15.1981C13.7266 14.6321 14.2428 14.1766 14.8506 13.88C15.4584 13.5834 16.1351 13.4567 16.809 13.5132C17.4829 13.5698 18.129 13.8076 18.6788 14.2014C19.2286 14.5951 19.6617 15.1303 19.9322 15.7501H18.0001V17.2501H22.5001V12.7501H21.0001Z" fill="currentColor"/>
</svg>
