<svg width="24" height="24" viewBox="0 0 24 24" fill="none" xmlns="http://www.w3.org/2000/svg">
<g clip-path="url(#clip0_7124_27905)">
<path d="M12 2.25C8.02658 2.25 3.75 3.189 3.75 5.25V18.75C3.75 20.811 8.02658 21.75 12 21.75C15.9734 21.75 20.25 20.811 20.25 18.75V5.25C20.25 3.189 15.9734 2.25 12 2.25ZM12 3.75C16.3482 3.75 18.5962 4.82557 18.7476 5.25C18.5962 5.67443 16.3482 6.75 12 6.75C7.61902 6.75 5.37045 5.6583 5.25 5.2632V5.25953C5.37045 4.8417 7.61902 3.75 12 3.75ZM5.25 7.07078C6.84592 7.87133 9.48195 8.25 12 8.25C14.5181 8.25 17.1541 7.87133 18.75 7.07078V9.74047C18.6295 10.1583 16.381 11.25 12 11.25C7.61242 11.25 5.36318 10.155 5.25 9.75V7.07078ZM5.25 11.5708C6.84592 12.3713 9.48195 12.75 12 12.75C14.5181 12.75 17.1541 12.3713 18.75 11.5708V14.2405C18.6295 14.6583 16.381 15.75 12 15.75C7.61242 15.75 5.36318 14.655 5.25 14.25V11.5708ZM12 20.25C7.61242 20.25 5.36318 19.155 5.25 18.75V16.0708C6.84592 16.8713 9.48195 17.25 12 17.25C14.5181 17.25 17.1541 16.8713 18.75 16.0708V18.7405C18.6295 19.1583 16.381 20.25 12 20.25Z" fill="currentColor"/>
</g>
<defs>
<clipPath id="clip0_7124_27905">
<rect width="24" height="24" fill="white"/>
</clipPath>
</defs>
</svg>
