<svg width="24" height="24" viewBox="0 0 24 24" fill="none" xmlns="http://www.w3.org/2000/svg">
<g clip-path="url(#clip0_7107_27829)">
<path d="M22.3725 15L22.6275 13.5L18.75 12.8625V9.75C18.75 9.69 18.75 9.6375 18.75 9.5775L22.545 8.5575L22.1625 7.11L18.54 8.0775C18.2933 7.14515 17.8498 6.27648 17.2391 5.53C16.6285 4.78352 15.865 4.17656 15 3.75V1.5H13.5V3.1725C12.5132 2.94248 11.4868 2.94248 10.5 3.1725V1.5H9V3.75C8.1324 4.1814 7.36785 4.79454 6.75831 5.54773C6.14877 6.30092 5.70852 7.17652 5.4675 8.115L1.845 7.11L1.5 8.5575L5.25 9.5775C5.25 9.6375 5.25 9.69 5.25 9.75V12.8625L1.38 13.5L1.62 15L5.25 14.385C5.26714 15.3105 5.47657 16.2223 5.865 17.0625L2.4675 20.4675L3.5325 21.5325L6.675 18.3825C7.30616 19.1927 8.11389 19.8482 9.03667 20.2991C9.95945 20.75 10.973 20.9844 12 20.9844C13.0271 20.9844 14.0406 20.75 14.9633 20.2991C15.8861 19.8482 16.6938 19.1927 17.325 18.3825L20.4675 21.5325L21.5325 20.4675L18.1275 17.0625C18.5185 16.2229 18.7305 15.311 18.75 14.385L22.3725 15ZM11.25 19.44C10.0016 19.2598 8.85972 18.6361 8.03339 17.6831C7.20706 16.7301 6.75148 15.5114 6.75 14.25V9.75H11.25V19.44ZM6.9675 8.25C7.28979 7.16547 7.9538 6.21407 8.86064 5.53752C9.76747 4.86097 10.8686 4.49547 12 4.49547C13.1314 4.49547 14.2325 4.86097 15.1394 5.53752C16.0462 6.21407 16.7102 7.16547 17.0325 8.25H6.9675ZM17.25 14.25C17.2485 15.5114 16.7929 16.7301 15.9666 17.6831C15.1403 18.6361 13.9985 19.2598 12.75 19.44V9.75H17.25V14.25Z" fill="currentColor"/>
</g>
<defs>
<clipPath id="clip0_7107_27829">
<rect width="24" height="24" fill="white"/>
</clipPath>
</defs>
</svg>
