<svg width="28" height="29" viewBox="0 0 28 29" fill="none" xmlns="http://www.w3.org/2000/svg">
<rect y="0.5" width="28" height="28" rx="14" fill="currentColor"/>
<path d="M19.6246 15.625C19.1271 15.6264 18.6442 15.7928 18.2514 16.0982C17.8587 16.4036 17.5784 16.8307 17.4545 17.3125H15.1246C14.6772 17.3121 14.2483 17.1341 13.9319 16.8178C13.6155 16.5014 13.4376 16.0724 13.4371 15.625V13.375C13.4349 12.7644 13.2322 12.1715 12.86 11.6875H17.4545C17.5914 12.2178 17.917 12.6799 18.3703 12.9872C18.8235 13.2946 19.3733 13.4261 19.9166 13.3571C20.4598 13.2881 20.9593 13.0233 21.3213 12.6124C21.6833 12.2015 21.8831 11.6726 21.8831 11.125C21.8831 10.5774 21.6833 10.0485 21.3213 9.63762C20.9593 9.22671 20.4598 8.96194 19.9166 8.89294C19.3733 8.82393 18.8235 8.95544 18.3703 9.26279C17.917 9.57015 17.5914 10.0323 17.4545 10.5625H10.5448C10.4079 10.0323 10.0823 9.57015 9.62901 9.26279C9.17576 8.95544 8.62597 8.82393 8.0827 8.89294C7.53943 8.96194 7.03998 9.22671 6.67796 9.63762C6.31594 10.0485 6.11621 10.5774 6.11621 11.125C6.11621 11.6726 6.31594 12.2015 6.67796 12.6124C7.03998 13.0233 7.53943 13.2881 8.0827 13.3571C8.62597 13.4261 9.17576 13.2946 9.62901 12.9872C10.0823 12.6799 10.4079 12.2178 10.5448 11.6875H10.6246C11.0721 11.688 11.501 11.8659 11.8174 12.1823C12.1338 12.4986 12.3117 12.9276 12.3121 13.375V15.625C12.313 16.3707 12.6096 17.0855 13.1369 17.6128C13.6641 18.14 14.379 18.4366 15.1246 18.4375H17.4545C17.5603 18.8441 17.7781 19.2129 18.083 19.502C18.388 19.7911 18.7679 19.9889 19.1796 20.0729C19.5913 20.1569 20.0183 20.1238 20.4121 19.9773C20.8059 19.8307 21.1507 19.5767 21.4074 19.2441C21.6641 18.9114 21.8223 18.5134 21.8642 18.0953C21.906 17.6772 21.8298 17.2558 21.6441 16.8789C21.4584 16.5019 21.1707 16.1846 20.8138 15.963C20.4568 15.7413 20.0448 15.6242 19.6246 15.625ZM19.6246 10C19.8471 10 20.0647 10.066 20.2497 10.1896C20.4347 10.3132 20.5789 10.4889 20.664 10.6945C20.7492 10.9001 20.7714 11.1263 20.728 11.3445C20.6846 11.5627 20.5775 11.7632 20.4201 11.9205C20.2628 12.0778 20.0623 12.185 19.8441 12.2284C19.6259 12.2718 19.3997 12.2495 19.1941 12.1644C18.9886 12.0792 18.8129 11.935 18.6892 11.75C18.5656 11.565 18.4996 11.3475 18.4996 11.125C18.4999 10.8267 18.6186 10.5408 18.8295 10.3298C19.0404 10.1189 19.3264 10.0003 19.6246 10ZM8.37464 12.25C8.15213 12.25 7.93463 12.184 7.74962 12.0604C7.56462 11.9368 7.42042 11.7611 7.33527 11.5555C7.25013 11.35 7.22785 11.1238 7.27126 10.9055C7.31466 10.6873 7.42181 10.4868 7.57914 10.3295C7.73648 10.1722 7.93693 10.065 8.15516 10.0216C8.37339 9.97821 8.59959 10.0005 8.80516 10.0856C9.01072 10.1708 9.18643 10.315 9.31004 10.5C9.43366 10.685 9.49964 10.9025 9.49964 11.125C9.49934 11.4233 9.38072 11.7093 9.16981 11.9202C8.95889 12.1311 8.67292 12.2497 8.37464 12.25ZM19.6246 19C19.4021 19 19.1846 18.934 18.9996 18.8104C18.8146 18.6868 18.6704 18.5111 18.5853 18.3055C18.5001 18.1 18.4778 17.8738 18.5213 17.6555C18.5647 17.4373 18.6718 17.2368 18.8291 17.0795C18.9865 16.9222 19.1869 16.815 19.4052 16.7716C19.6234 16.7282 19.8496 16.7505 20.0552 16.8356C20.2607 16.9208 20.4364 17.065 20.56 17.25C20.6837 17.435 20.7496 17.6525 20.7496 17.875C20.7492 18.1732 20.6305 18.4591 20.4196 18.67C20.2088 18.8809 19.9229 18.9996 19.6246 19Z" fill="white"/>
</svg>
