<svg width="24" height="25" viewBox="0 0 24 25" fill="none" xmlns="http://www.w3.org/2000/svg">
<path d="M19.5 14.125C18.8367 14.1269 18.1927 14.3488 17.6691 14.756C17.1454 15.1631 16.7717 15.7326 16.6065 16.375H13.5C12.9035 16.3744 12.3315 16.1372 11.9097 15.7153C11.4878 15.2935 11.2506 14.7216 11.25 14.125V11.125C11.2471 10.3109 10.9767 9.52038 10.4805 8.87501H16.6065C16.7891 9.582 17.2232 10.1981 17.8275 10.608C18.4318 11.0178 19.1649 11.1931 19.8893 11.1011C20.6136 11.0091 21.2796 10.6561 21.7622 10.1082C22.2449 9.5603 22.5112 8.85519 22.5112 8.12501C22.5112 7.39483 22.2449 6.68971 21.7622 6.14183C21.2796 5.59395 20.6136 5.24092 19.8893 5.14892C19.1649 5.05691 18.4318 5.23225 17.8275 5.64206C17.2232 6.05187 16.7891 6.66801 16.6065 7.37501H7.39351C7.21096 6.66801 6.77683 6.05187 6.1725 5.64206C5.56817 5.23225 4.83512 5.05691 4.11076 5.14892C3.3864 5.24092 2.72046 5.59395 2.23777 6.14183C1.75507 6.68971 1.48877 7.39483 1.48877 8.12501C1.48877 8.85519 1.75507 9.5603 2.23777 10.1082C2.72046 10.6561 3.3864 11.0091 4.11076 11.1011C4.83512 11.1931 5.56817 11.0178 6.1725 10.608C6.77683 10.1981 7.21096 9.582 7.39351 8.87501H7.50001C8.09656 8.8756 8.66851 9.11285 9.09034 9.53467C9.51217 9.9565 9.74941 10.5285 9.75001 11.125V14.125C9.7512 15.1192 10.1467 16.0723 10.8497 16.7753C11.5527 17.4783 12.5058 17.8738 13.5 17.875H16.6065C16.7476 18.4172 17.038 18.9089 17.4445 19.2944C17.8511 19.6798 18.3576 19.9435 18.9066 20.0555C19.4555 20.1675 20.0248 20.1234 20.5499 19.928C21.075 19.7327 21.5348 19.394 21.877 18.9504C22.2193 18.5069 22.4303 17.9762 22.486 17.4188C22.5418 16.8613 22.4402 16.2994 22.1926 15.7968C21.945 15.2942 21.5615 14.8712 21.0855 14.5756C20.6095 14.2801 20.0602 14.124 19.5 14.125ZM19.5 6.62501C19.7967 6.62501 20.0867 6.71298 20.3334 6.8778C20.58 7.04262 20.7723 7.27689 20.8858 7.55098C20.9994 7.82507 21.0291 8.12667 20.9712 8.41764C20.9133 8.70861 20.7704 8.97589 20.5607 9.18567C20.3509 9.39545 20.0836 9.53831 19.7926 9.59619C19.5017 9.65406 19.2001 9.62436 18.926 9.51083C18.6519 9.39729 18.4176 9.20504 18.2528 8.95836C18.088 8.71169 18 8.42168 18 8.12501C18.0004 7.7273 18.1586 7.346 18.4398 7.06479C18.721 6.78357 19.1023 6.6254 19.5 6.62501ZM4.50001 9.62501C4.20334 9.62501 3.91333 9.53703 3.66665 9.37221C3.41998 9.20739 3.22772 8.97312 3.11419 8.69903C3.00066 8.42494 2.97095 8.12334 3.02883 7.83237C3.08671 7.5414 3.22957 7.27413 3.43935 7.06435C3.64913 6.85457 3.9164 6.71171 4.20737 6.65383C4.49834 6.59595 4.79994 6.62566 5.07403 6.73919C5.34812 6.85272 5.58239 7.04498 5.74721 7.29165C5.91203 7.53833 6.00001 7.82834 6.00001 8.12501C5.99961 8.52271 5.84145 8.90401 5.56023 9.18523C5.27901 9.46645 4.89771 9.62461 4.50001 9.62501ZM19.5 18.625C19.2033 18.625 18.9133 18.537 18.6667 18.3722C18.42 18.2074 18.2277 17.9731 18.1142 17.699C18.0007 17.4249 17.971 17.1233 18.0288 16.8324C18.0867 16.5414 18.2296 16.2741 18.4393 16.0643C18.6491 15.8546 18.9164 15.7117 19.2074 15.6538C19.4983 15.596 19.7999 15.6257 20.074 15.7392C20.3481 15.8527 20.5824 16.045 20.7472 16.2917C20.912 16.5383 21 16.8283 21 17.125C20.9994 17.5226 20.8412 17.9038 20.56 18.185C20.2788 18.4662 19.8976 18.6244 19.5 18.625Z" fill="currentColor"/>
</svg>
