<svg width="18" height="18" viewBox="0 0 18 18" fill="none" xmlns="http://www.w3.org/2000/svg">
  <path d="M15.875 10.875C16.9089 10.875 17.75 10.0339 17.75 9C17.75 7.96606 16.9089 7.125 15.875 7.125C15.0612 7.125 14.374 7.649 14.1152 8.375H10.5087L15.0717 3.812C15.3162 3.92919 15.5864 4 15.875 4C16.9089 4 17.75 3.15894 17.75 2.125C17.75 1.09106 16.9089 0.25 15.875 0.25C14.8411 0.25 14 1.09106 14 2.125C14 2.41369 14.0709 2.68375 14.1878 2.92825L9 8.11625V4.00006C9 3.311 9.56063 2.75006 10.25 2.75006H11.5V1.50006H10.25C9.49988 1.50006 8.83369 1.83913 8.375 2.364C7.91631 1.83913 7.25012 1.50006 6.5 1.50006H5.875C2.7735 1.50006 0.25 4.02325 0.25 7.12506V10.8751C0.25 13.9769 2.7735 16.5001 5.875 16.5001H6.5C7.25012 16.5001 7.91631 16.161 8.375 15.6361C8.83369 16.161 9.49988 16.5001 10.25 16.5001H11.5V15.2501H10.25C9.56063 15.2501 9 14.6891 9 14.0001V9.88387L14.1878 15.0719C14.0709 15.3163 14 15.5864 14 15.8751C14 16.9091 14.8411 17.7501 15.875 17.7501C16.9089 17.7501 17.75 16.9091 17.75 15.8751C17.75 14.8412 16.9089 14.0001 15.875 14.0001C15.5864 14.0001 15.3162 14.0709 15.0717 14.1881L10.5087 9.62512H14.1152C14.374 10.3511 15.0612 10.875 15.875 10.875ZM15.875 8.375C16.2196 8.375 16.5 8.65512 16.5 9C16.5 9.34488 16.2196 9.625 15.875 9.625C15.5304 9.625 15.25 9.34488 15.25 9C15.25 8.65512 15.5304 8.375 15.875 8.375ZM15.875 1.5C16.2197 1.5 16.5 1.78044 16.5 2.125C16.5 2.46956 16.2197 2.75 15.875 2.75C15.5303 2.75 15.25 2.46956 15.25 2.125C15.25 1.78044 15.5303 1.5 15.875 1.5ZM7.75 6.5H6.5V7.75H7.75V10.25H6.5C5.46606 10.25 4.625 11.0911 4.625 12.125V13.375H5.875V12.125C5.875 11.7801 6.15544 11.5 6.5 11.5H7.75V14C7.75 14.6891 7.18937 15.25 6.5 15.25H5.875C3.67531 15.25 1.85475 13.6167 1.54988 11.5H2.75V10.25H1.5V7.75H3.375C4.40894 7.75 5.25 6.90894 5.25 5.875V4.625H4V5.875C4 6.21987 3.71956 6.5 3.375 6.5H1.54988C1.85475 4.38331 3.67525 2.75 5.875 2.75H6.5C7.18937 2.75 7.75 3.31094 7.75 4V6.5ZM16.5 15.875C16.5 16.2196 16.2197 16.5 15.875 16.5C15.5303 16.5 15.25 16.2196 15.25 15.875C15.25 15.5304 15.5303 15.25 15.875 15.25C16.2197 15.25 16.5 15.5304 16.5 15.875Z" fill="currentColor"/>
</svg>
