<svg width="24" height="24" viewBox="0 0 24 24" fill="none" xmlns="http://www.w3.org/2000/svg">
<g clip-path="url(#clip0_3657_22218)">
<path d="M7.5 22.5H3C2.60218 22.5 2.22064 22.342 1.93934 22.0607C1.65804 21.7794 1.5 21.3978 1.5 21V12C1.5 11.6022 1.65804 11.2206 1.93934 10.9393C2.22064 10.658 2.60218 10.5 3 10.5H7.5C7.89782 10.5 8.27936 10.658 8.56066 10.9393C8.84196 11.2206 9 11.6022 9 12V21C9 21.3978 8.84196 21.7794 8.56066 22.0607C8.27936 22.342 7.89782 22.5 7.5 22.5ZM3 12V21H7.5V12H3Z" fill="currentColor"/>
<path d="M21 3H4.5C4.10218 3 3.72064 3.15804 3.43934 3.43934C3.15804 3.72064 3 4.10218 3 4.5V9H4.5V4.5H21V15H10.5V16.5H12V19.5H10.5V21H17.25V19.5H13.5V16.5H21C21.3978 16.5 21.7794 16.342 22.0607 16.0607C22.342 15.7794 22.5 15.3978 22.5 15V4.5C22.5 4.10218 22.342 3.72064 22.0607 3.43934C21.7794 3.15804 21.3978 3 21 3V3Z" fill="currentColor"/>
</g>
<defs>
<clipPath id="clip0_3657_22218">
<rect width="24" height="24" fill="white"/>
</clipPath>
</defs>
</svg>
