<svg width="24" height="24" viewBox="0 0 24 24" fill="none" xmlns="http://www.w3.org/2000/svg">
<g clip-path="url(#clip0_27662_213)">
<path d="M19.2803 6.96975L14.0303 1.71975C13.8896 1.57909 13.6989 1.50004 13.5 1.5H6C5.6023 1.5004 5.221 1.65856 4.93978 1.93978C4.65856 2.221 4.5004 2.6023 4.5 3V21C4.50046 21.3977 4.65864 21.7789 4.93984 22.0602C5.22105 22.3414 5.60232 22.4995 6 22.5H12V21H6V3H12V7.5C12.0004 7.8977 12.1586 8.279 12.4398 8.56022C12.721 8.84144 13.1023 8.9996 13.5 9H18V12H19.5V7.5C19.5 7.3011 19.4209 7.11037 19.2803 6.96975ZM13.5 3.31058L17.6894 7.5H13.5V3.31058Z" fill="currentColor"/>
<path d="M21.226 15.0063L20.5441 21.4583L19.5025 15.0063H18.0038L16.9622 21.4583L16.2803 15.0063H15.0063L16.0255 22.4999H17.734L18.7531 16.2278L19.7723 22.4999H21.4808L22.4999 15.0063H21.226Z" fill="currentColor"/>
<path d="M21.226 14.9563H21.181L21.1763 15.0011L20.5338 21.0805L19.5519 14.9984L19.5451 14.9563H19.5025H18.0038H17.9612L17.9544 14.9984L16.9725 21.0805L16.33 15.0011L16.3253 14.9563H16.2803H15.0063H14.9491L14.9568 15.0131L15.9759 22.5067L15.9818 22.5499H16.0255H17.734H17.7765L17.7834 22.508L18.7531 16.5396L19.7229 22.508L19.7297 22.5499H19.7723H21.4808H21.5245L21.5304 22.5067L22.5495 15.0131L22.5572 14.9563H22.4999H21.226Z" fill="currentColor" stroke="currentColor" stroke-width="0.1"/>
</g>
<defs>
<clipPath id="clip0_27662_213">
<rect width="24" height="24" fill="white"/>
</clipPath>
</defs>
</svg>
