<svg width="24" height="25" viewBox="0 0 24 25" fill="none" xmlns="http://www.w3.org/2000/svg">
<path d="M22.5 18.578H19.5H18H15V20.078H18H19.5H22.5V18.578Z" fill="currentColor"/>
<path d="M12 21.578H6V3.57802H12V8.07802C12.0011 8.47549 12.1596 8.85635 12.4406 9.13741C12.7217 9.41846 13.1025 9.57687 13.5 9.57802H18V12.578H19.5V8.07802C19.5027 7.97944 19.484 7.88146 19.4451 7.79082C19.4063 7.70019 19.3482 7.61905 19.275 7.55302L14.025 2.30302C13.959 2.22976 13.8778 2.17171 13.7872 2.13286C13.6966 2.09402 13.5986 2.0753 13.5 2.07802H6C5.60253 2.07916 5.22166 2.23757 4.94061 2.51862C4.65955 2.79968 4.50115 3.18054 4.5 3.57802V21.578C4.50115 21.9755 4.65955 22.3564 4.94061 22.6374C5.22166 22.9185 5.60253 23.0769 6 23.078H12V21.578ZM13.5 3.87802L17.7 8.07802H13.5V3.87802Z" fill="currentColor"/>
</svg>
