<svg width="24" height="24" viewBox="0 0 24 24" fill="none" xmlns="http://www.w3.org/2000/svg">
<g clip-path="url(#clip0_1770_37860)">
<path d="M19.5 7.5H14.25V9H19.5V7.5Z" fill="currentColor"/>
<path d="M19.5 11.25H14.25V12.75H19.5V11.25Z" fill="currentColor"/>
<path d="M19.5 15H14.25V16.5H19.5V15Z" fill="currentColor"/>
<path d="M21 3.75H3C2.6023 3.7504 2.221 3.90856 1.93978 4.18978C1.65856 4.471 1.5004 4.8523 1.5 5.25V18.75C1.50046 19.1477 1.65864 19.529 1.93984 19.8102C2.22105 20.0914 2.60232 20.2495 3 20.25H21C21.3977 20.2495 21.7789 20.0913 22.0601 19.8101C22.3413 19.5289 22.4995 19.1477 22.5 18.75V5.25C22.4995 4.85232 22.3414 4.47105 22.0602 4.18984C21.779 3.90864 21.3977 3.75046 21 3.75ZM3 5.25H11.25V18.75H3V5.25ZM12.75 18.75V5.25H21L21.0015 18.75H12.75Z" fill="currentColor"/>
</g>
<defs>
<clipPath id="clip0_1770_37860">
<rect width="24" height="24" fill="none"/>
</clipPath>
</defs>
</svg>
