<svg width="24" height="25" viewBox="0 0 24 25" fill="none" xmlns="http://www.w3.org/2000/svg">
<g clip-path="url(#clip0_7733_44397)">
<path d="M22.5 18.6287H19.5V15.6287H18V18.6287H15V20.1287H18V23.1287H19.5V20.1287H22.5V18.6287Z" fill="currentColor"/>
<path d="M12 21.6287H6V3.62868H12V8.12868C12.0011 8.52615 12.1596 8.90701 12.4406 9.18807C12.7217 9.46912 13.1025 9.62753 13.5 9.62868H18V12.6287H19.5V8.12868C19.5027 8.0301 19.484 7.93212 19.4451 7.84148C19.4063 7.75085 19.3482 7.66971 19.275 7.60368L14.025 2.35368C13.959 2.28042 13.8778 2.22237 13.7872 2.18352C13.6966 2.14468 13.5986 2.12596 13.5 2.12868H6C5.60253 2.12982 5.22166 2.28823 4.94061 2.56928C4.65955 2.85034 4.50115 3.2312 4.5 3.62868V21.6287C4.50115 22.0261 4.65955 22.407 4.94061 22.6881C5.22166 22.9691 5.60253 23.1275 6 23.1287H12V21.6287ZM13.5 3.92868L17.7 8.12868H13.5V3.92868Z" fill="currentColor"/>
</g>
<defs>
<clipPath id="clip0_7733_44397">
<rect width="24" height="24" fill="white" transform="translate(0 0.628662)"/>
</clipPath>
</defs>
</svg>
