<svg width="18" height="16" viewBox="0 0 18 16" fill="none" xmlns="http://www.w3.org/2000/svg">
  <path d="M17.75 3H15.1875C14.875 1.5625 13.625 0.5 12.125 0.5C10.625 0.5 9.375 1.5625 9.0625 3H0.25V4.25H9.0625C9.375 5.6875 10.625 6.75 12.125 6.75C13.625 6.75 14.875 5.6875 15.1875 4.25H17.75V3ZM12.125 5.5C11.0625 5.5 10.25 4.6875 10.25 3.625C10.25 2.5625 11.0625 1.75 12.125 1.75C13.1875 1.75 14 2.5625 14 3.625C14 4.6875 13.1875 5.5 12.125 5.5Z" fill="currentColor"/>
  <path d="M0.25 13H2.8125C3.125 14.4375 4.375 15.5 5.875 15.5C7.375 15.5 8.625 14.4375 8.9375 13H17.75V11.75H8.9375C8.625 10.3125 7.375 9.25 5.875 9.25C4.375 9.25 3.125 10.3125 2.8125 11.75H0.25V13ZM5.875 10.5C6.9375 10.5 7.75 11.3125 7.75 12.375C7.75 13.4375 6.9375 14.25 5.875 14.25C4.8125 14.25 4 13.4375 4 12.375C4 11.3125 4.8125 10.5 5.875 10.5Z" fill="currentColor"/>
</svg>
