<svg width="24" height="24" viewBox="0 0 24 24" fill="none" xmlns="http://www.w3.org/2000/svg">
<path d="M22.5 21.45L2.55 1.5L1.5 2.55L9.075 10.125L3 16.2V21H7.8L13.875 14.925L21.45 22.5L22.5 21.45ZM7.2 19.5H4.5V16.8L10.125 11.175L12.825 13.875L7.2 19.5Z" fill="currentColor"/>
<path d="M22.05 4.65L19.35 1.95C18.75 1.35 17.85 1.35 17.25 1.95L11.25 7.95L12.3 9L15 6.3L17.7 9L15 11.7L16.05 12.75L22.05 6.75C22.65 6.15 22.65 5.25 22.05 4.65ZM18.75 7.95L16.05 5.25L18.3 3L21 5.7L18.75 7.95Z" fill="currentColor"/>
</svg>
