<svg width="24" height="26" viewBox="0 0 24 26" fill="none" xmlns="http://www.w3.org/2000/svg">
<path d="M21.02 5.48903L18.32 2.70655C17.72 2.08822 16.82 2.08822 16.22 2.70655L9.13 10.0234L4.97 14.3002L2 17.361V22.3076H6.8L9.77 19.2469L12.88 16.0522L13.93 14.9701L21.02 7.65318C21.62 7.03485 21.62 6.10736 21.02 5.48903ZM12.88 13.888L11.82 14.9701L6.2 20.7618H3.5V17.9793L9.12 12.1876L10.18 11.1055L13.97 7.18944L16.67 9.97192L12.88 13.888ZM17.72 8.88984L15.02 6.10736L17.27 3.78862L19.97 6.57111L17.72 8.88984Z" fill="currentColor"/>
</svg>
