<svg width="24" height="25" viewBox="0 0 24 25" fill="none" xmlns="http://www.w3.org/2000/svg">
<path d="M11.501 21.249H7.00098C6.60328 21.2486 6.22199 21.0904 5.94078 20.8092C5.65956 20.528 5.50139 20.1467 5.50098 19.749V4.74902C5.50139 4.35133 5.65956 3.97004 5.94078 3.68882C6.22199 3.40761 6.60328 3.24944 7.00098 3.24902H11.501C11.8987 3.24944 12.28 3.40761 12.5612 3.68882C12.8424 3.97004 13.0006 4.35133 13.001 4.74902V19.749C13.0006 20.1467 12.8424 20.528 12.5612 20.8092C12.28 21.0904 11.8987 21.2486 11.501 21.249ZM7.00098 4.74902V19.749H11.501V4.74902H7.00098Z" fill="currentColor"/>
<path d="M18.4989 3.24902H17.001V21.249H18.4989V3.24902Z" fill="currentColor"/>
</svg>
