<svg width="24" height="24" viewBox="0 0 24 24" fill="none" xmlns="http://www.w3.org/2000/svg">
<g clip-path="url(#clip0_677_17381)">
<path d="M6.75 9V7.5H3C2.60218 7.5 2.22064 7.65804 1.93934 7.93934C1.65804 8.22064 1.5 8.60218 1.5 9V21C1.5 21.3978 1.65804 21.7794 1.93934 22.0607C2.22064 22.342 2.60218 22.5 3 22.5H15C15.3978 22.5 15.7794 22.342 16.0607 22.0607C16.342 21.7794 16.5 21.3978 16.5 21V14.25H15V21H3V9" fill="currentColor"/>
<path d="M16.5 9H10.5V3H16.5V9ZM9 3V9C9 9.39782 9.15804 9.77936 9.43934 10.0607C9.72064 10.342 10.1022 10.5 10.5 10.5H16.5C16.8978 10.5 17.2794 10.342 17.5607 10.0607C17.842 9.77936 18 9.39782 18 9V3C18 2.60218 17.842 2.22064 17.5607 1.93934C17.2794 1.65804 16.8978 1.5 16.5 1.5H10.5C10.1022 1.5 9.72064 1.65804 9.43934 1.93934C9.15804 2.22064 9 2.60218 9 3Z" fill="currentColor"/>
<path d="M10.5 13.5V16.5H7.5V13.5H10.5ZM6 13.5V16.5C6 16.8978 6.15804 17.2794 6.43934 17.5607C6.72064 17.842 7.10218 18 7.5 18H10.5C10.8978 18 11.2794 17.842 11.5607 17.5607C11.842 17.2794 12 16.8978 12 16.5V13.5C12 13.1022 11.842 12.7206 11.5607 12.4393C11.2794 12.158 10.8978 12 10.5 12H7.5C7.10218 12 6.72064 12.158 6.43934 12.4393C6.15804 12.7206 6 13.1022 6 13.5Z" fill="currentColor"/>
<path d="M21 12.75V14.25H19.5V12.75H21ZM18 12V15C18 15.1989 18.079 15.3897 18.2197 15.5303C18.3603 15.671 18.5511 15.75 18.75 15.75H21.75C21.9489 15.75 22.1397 15.671 22.2803 15.5303C22.421 15.3897 22.5 15.1989 22.5 15V12C22.5 11.8011 22.421 11.6103 22.2803 11.4697C22.1397 11.329 21.9489 11.25 21.75 11.25H18.75C18.5511 11.25 18.3603 11.329 18.2197 11.4697C18.079 11.6103 18 11.8011 18 12Z" fill="currentColor"/>
</g>
<defs>
<clipPath id="clip0_677_17381">
<rect width="24" height="24" fill="white"/>
</clipPath>
</defs>
</svg>
