<svg width="33" height="32" viewBox="0 0 33 32" fill="none" xmlns="http://www.w3.org/2000/svg">
<g clip-path="url(#clip0_3321_305)">
<path d="M19.5 24H4.5L4.4966 8.9062L15.9307 16.8223C16.098 16.938 16.2966 17 16.5 17C16.7034 17 16.902 16.938 17.0693 16.8223L28.5 8.9087V15.5791H30.5V8C30.4993 7.46979 30.2883 6.96149 29.9134 6.58658C29.5385 6.21166 29.0302 6.00071 28.5 6H4.5C3.96975 6.00061 3.4614 6.21152 3.08646 6.58646C2.71152 6.9614 2.50061 7.46975 2.5 8V24C2.50071 24.5302 2.71166 25.0385 3.08658 25.4134C3.46149 25.7883 3.96979 25.9993 4.5 26H19.5V24ZM26.2986 8L16.5 14.7837L6.7014 8H26.2986Z" fill="currentColor"/>
<path d="M26.5 28.4734C25.4693 28.5009 24.4696 28.1189 23.7199 27.411C22.9702 26.7031 22.5316 25.727 22.5 24.6964C22.5187 23.9606 22.7452 23.2451 23.1533 22.6325L25.67 18.8875C25.7667 18.7589 25.892 18.6546 26.036 18.5827C26.18 18.5109 26.3387 18.4735 26.4996 18.4735C26.6605 18.4735 26.8192 18.5109 26.9632 18.5827C27.1072 18.6546 27.2325 18.7589 27.3292 18.8875L29.8154 22.5834C30.24 23.2083 30.4775 23.9413 30.5 24.6964C30.4684 25.727 30.0298 26.7031 29.2801 27.411C28.5304 28.1189 27.5307 28.5009 26.5 28.4734ZM26.5 21.2366L24.8438 23.6991C24.6369 23.9922 24.5176 24.3381 24.5 24.6964C24.558 25.1861 24.7937 25.6375 25.1623 25.965C25.5309 26.2925 26.0069 26.4734 26.5 26.4734C26.9931 26.4734 27.4691 26.2925 27.8377 25.965C28.2063 25.6375 28.442 25.1861 28.5 24.6964C28.4775 24.3189 28.3474 23.9557 28.125 23.6498L26.5 21.2366Z" fill="currentColor"/>
</g>
<defs>
<clipPath id="clip0_3321_305">
<rect width="32" height="32" fill="white" transform="translate(0.5)"/>
</clipPath>
</defs>
</svg>
