<svg width="24" height="25" viewBox="0 0 24 25" fill="none" xmlns="http://www.w3.org/2000/svg">
<path d="M1.5 12.249C1.5 14.3257 2.11581 16.3558 3.26957 18.0825C4.42332 19.8092 6.0632 21.155 7.98182 21.9498C9.90045 22.7445 12.0116 22.9524 14.0484 22.5473C16.0852 22.1421 17.9562 21.1421 19.4246 19.6736C20.8931 18.2052 21.8931 16.3343 22.2982 14.2975C22.7034 12.2607 22.4955 10.1495 21.7007 8.23085C20.906 6.31222 19.5602 4.67235 17.8335 3.51859C16.1068 2.36484 14.0767 1.74902 12 1.74902C9.21523 1.74902 6.54451 2.85527 4.57538 4.8244C2.60625 6.79353 1.5 9.46425 1.5 12.249ZM18.8625 18.0615L6.1875 5.38652C7.91298 3.95027 10.1129 3.21076 12.3556 3.31312C14.5983 3.41548 16.7218 4.35233 18.3092 5.9398C19.8967 7.52726 20.8335 9.65072 20.9359 11.8934C21.0383 14.1361 20.2988 16.336 18.8625 18.0615ZM6.18 19.119C4.36374 17.5767 3.23325 15.377 3.03642 13.0023C2.83959 10.6277 3.59248 8.27189 5.13 6.45152L17.7975 19.119C16.1732 20.4915 14.1153 21.2445 11.9887 21.2445C9.86219 21.2445 7.80433 20.4915 6.18 19.119Z" fill="currentColor"/>
</svg>
