<svg width="24" height="24" viewBox="0 0 24 24" fill="none" xmlns="http://www.w3.org/2000/svg">
<g clip-path="url(#clip0_6913_27803)">
<path fill-rule="evenodd" clip-rule="evenodd" d="M18.75 15.75L24 19.5L18.75 23.25V15.75Z" fill="currentColor"/>
<path d="M15.1275 14.25L13.185 16.1925L14.25 17.25L17.25 14.25L14.25 11.25L13.185 12.3075L15.1275 14.25Z" fill="currentColor"/>
<path d="M8.8725 14.25L10.815 12.3075L9.75 11.25L6.75 14.25L9.75 17.25L10.815 16.1925L8.8725 14.25Z" fill="currentColor"/>
<path d="M6.75 6.75C7.16421 6.75 7.5 6.41421 7.5 6C7.5 5.58579 7.16421 5.25 6.75 5.25C6.33579 5.25 6 5.58579 6 6C6 6.41421 6.33579 6.75 6.75 6.75Z" fill="currentColor"/>
<path d="M4.5 6.75C4.91421 6.75 5.25 6.41421 5.25 6C5.25 5.58579 4.91421 5.25 4.5 5.25C4.08579 5.25 3.75 5.58579 3.75 6C3.75 6.41421 4.08579 6.75 4.5 6.75Z" fill="currentColor"/>
<path d="M15.75 19.5H3V9H21V14.25H22.5V4.5C22.5 3.67313 21.8271 3 21 3H3C2.1729 3 1.5 3.67313 1.5 4.5V19.5C1.5 20.3269 2.1729 21 3 21H15.75V19.5ZM3 4.5H21V7.5H3V4.5Z" fill="currentColor"/>
</g>
<defs>
<clipPath id="clip0_6913_27803">
<rect width="24" height="24" fill="white"/>
</clipPath>
</defs>
</svg>
