<svg width="32" height="33" viewBox="0 0 32 33" fill="none" xmlns="http://www.w3.org/2000/svg">
<g clip-path="url(#clip0_2994_543)">
<path d="M30 18.7061H28V28.7061H30V18.7061Z" fill="currentColor"/>
<path d="M26 14.7061H24V28.7061H26V14.7061Z" fill="currentColor"/>
<path d="M22 22.7061H20V28.7061H22V22.7061Z" fill="currentColor"/>
<path d="M22.175 10.706L23.76 9.43992C22.2862 7.59746 20.2059 6.33849 17.89 5.88762C16.5995 5.63832 15.2724 5.64582 13.9848 5.90968C12.6972 6.17355 11.4742 6.6886 10.3857 7.42541C9.29726 8.16222 8.3647 9.10632 7.64133 10.2038C6.91797 11.3012 6.41799 12.5304 6.16998 13.8212C4.28469 14.1619 2.60105 15.2107 1.46402 16.7526C0.327 18.2946 -0.177323 20.213 0.0543848 22.1147C0.319821 23.9632 1.24931 25.6518 2.66913 26.8648C4.08895 28.0779 5.90192 28.7324 7.76918 28.706H16V26.706H7.69448C6.38473 26.7265 5.1088 26.2898 4.08628 25.471C3.06376 24.6523 2.35861 23.5028 2.09218 22.2202C1.95877 21.5066 1.96777 20.7737 2.11868 20.0636C2.26959 19.3535 2.55942 18.6803 2.9715 18.0826C3.38359 17.4849 3.90978 16.9746 4.51982 16.5811C5.12986 16.1876 5.81169 15.9186 6.52608 15.7895L7.87468 15.5454L8.08858 14.4354C8.38894 12.7675 9.19837 11.2334 10.4057 10.044C11.613 8.85464 13.1589 8.06823 14.8312 7.79282C15.8349 7.64384 16.8578 7.68796 17.8449 7.92282C19.5615 8.33412 21.0879 9.31526 22.175 10.706Z" fill="currentColor"/>
</g>
<defs>
<clipPath id="clip0_2994_543">
<rect width="32" height="32" fill="white" transform="translate(0 0.706055)"/>
</clipPath>
</defs>
</svg>
