<svg width="24" height="24" viewBox="0 0 24 24" fill="none" xmlns="http://www.w3.org/2000/svg">
<path d="M18.2308 20.9998H4.38462C4.01754 20.9993 3.66565 20.8533 3.40609 20.5937C3.14653 20.3341 3.00049 19.9822 3 19.6152V5.76901C3.00049 5.40194 3.14653 5.05005 3.40609 4.79049C3.66565 4.53093 4.01754 4.38489 4.38462 4.3844H11.3077V5.76901H4.38462V19.6152H18.2308V12.6921H19.6154V19.6152C19.6149 19.9822 19.4689 20.3341 19.2093 20.5937C18.9497 20.8533 18.5978 20.9993 18.2308 20.9998Z" fill="currentColor"/>
<path d="M14.0769 3V4.38462H18.6364L12.6923 10.3288L13.6712 11.3077L19.6153 5.36354V9.92308H21V3H14.0769Z" fill="currentColor"/>
</svg>
