<svg width="32" height="33" viewBox="0 0 32 33" fill="none" xmlns="http://www.w3.org/2000/svg">
<g clip-path="url(#clip0_2994_553)">
<path d="M16 21.7061C17.1046 21.7061 18 20.8106 18 19.7061C18 18.6015 17.1046 17.7061 16 17.7061C14.8954 17.7061 14 18.6015 14 19.7061C14 20.8106 14.8954 21.7061 16 21.7061Z" fill="currentColor"/>
<path d="M23.7769 19.1846C23.1589 17.6105 22.0927 16.2525 20.7103 15.2786C19.3279 14.3048 17.6902 13.758 16 13.7061C14.3098 13.758 12.6721 14.3048 11.2897 15.2786C9.90729 16.2525 8.84105 17.6105 8.2231 19.1846L8 19.7061L8.2231 20.2276C8.84105 21.8016 9.90729 23.1596 11.2897 24.1335C12.6721 25.1073 14.3098 25.6541 16 25.7061C17.6902 25.6541 19.3279 25.1073 20.7103 24.1335C22.0927 23.1596 23.1589 21.8016 23.7769 20.2276L24 19.7061L23.7769 19.1846ZM16 23.7061C15.2089 23.7061 14.4355 23.4715 13.7777 23.0319C13.1199 22.5924 12.6072 21.9677 12.3045 21.2368C12.0017 20.5059 11.9225 19.7016 12.0769 18.9257C12.2312 18.1498 12.6122 17.437 13.1716 16.8776C13.731 16.3182 14.4437 15.9373 15.2196 15.7829C15.9956 15.6286 16.7998 15.7078 17.5307 16.0105C18.2616 16.3133 18.8864 16.826 19.3259 17.4838C19.7654 18.1416 20 18.9149 20 19.7061C19.9988 20.7666 19.577 21.7833 18.8271 22.5332C18.0772 23.2831 17.0605 23.7049 16 23.7061Z" fill="currentColor"/>
<path d="M27 3.70605H5C4.46957 3.70605 3.96086 3.91677 3.58579 4.29184C3.21071 4.66691 3 5.17562 3 5.70605V27.7061C3 28.2365 3.21071 28.7452 3.58579 29.1203C3.96086 29.4953 4.46957 29.7061 5 29.7061H27C27.5304 29.7061 28.0391 29.4953 28.4142 29.1203C28.7893 28.7452 29 28.2365 29 27.7061V5.70605C29 5.17562 28.7893 4.66691 28.4142 4.29184C28.0391 3.91677 27.5304 3.70605 27 3.70605ZM5 5.70605H27V9.70605H5V5.70605ZM5 27.7061V11.7061H27V27.7061H5Z" fill="currentColor"/>
</g>
<defs>
<clipPath id="clip0_2994_553">
<rect width="32" height="32" fill="white" transform="translate(0 0.706055)"/>
</clipPath>
</defs>
</svg>
