<svg width="16" height="17" viewBox="0 0 16 17" fill="none" xmlns="http://www.w3.org/2000/svg">
<g id="icons">
<g id="Vector">
<path d="M6.5 10.5274H13.085L11.795 11.8224L12.5 12.5274L15 10.0274L12.5 7.52735L11.795 8.23235L13.085 9.52735H6.5V10.5274Z" fill="currentColor"/>
<path d="M11 7.02735V5.02735C11.0004 4.96155 10.9878 4.89632 10.9629 4.8354C10.938 4.77448 10.9013 4.71907 10.855 4.67235L7.355 1.17235C7.30828 1.12601 7.25287 1.08935 7.19195 1.06447C7.13103 1.03958 7.0658 1.02697 7 1.02735H2C1.73478 1.02735 1.48043 1.13271 1.29289 1.32025C1.10536 1.50778 1 1.76214 1 2.02735V14.0274C1 14.2926 1.10536 14.5469 1.29289 14.7345C1.48043 14.922 1.73478 15.0274 2 15.0274H10C10.2652 15.0274 10.5196 14.922 10.7071 14.7345C10.8946 14.5469 11 14.2926 11 14.0274V13.0274H10V14.0274H2V2.02735H6V5.02735C6 5.29257 6.10536 5.54692 6.29289 5.73446C6.48043 5.922 6.73478 6.02735 7 6.02735H10V7.02735H11ZM7 5.02735V2.23235L9.795 5.02735H7Z" fill="currentColor"/>
</g>
</g>
</svg>
