<svg width="24" height="24" viewBox="0 0 24 24" fill="none" xmlns="http://www.w3.org/2000/svg">
<path d="M19.275 6.97502L14.025 1.72502C13.959 1.65173 13.8779 1.59365 13.7872 1.55481C13.6966 1.51596 13.5986 1.49726 13.5 1.50002H6C5.60253 1.50119 5.22168 1.6596 4.94063 1.94065C4.65958 2.2217 4.50117 2.60256 4.5 3.00002V21C4.50117 21.3975 4.65958 21.7783 4.94063 22.0594C5.22168 22.3404 5.60253 22.4989 6 22.5H18C18.3975 22.4989 18.7783 22.3404 19.0594 22.0594C19.3404 21.7783 19.4988 21.3975 19.5 21V7.50002C19.5028 7.40144 19.4841 7.30343 19.4452 7.21279C19.4064 7.12214 19.3483 7.04101 19.275 6.97502ZM13.5 3.30002L17.7 7.50002H13.5V3.30002ZM18 21H6V3.00002H12V7.50002C12.0012 7.89749 12.1596 8.27834 12.4406 8.55939C12.7217 8.84044 13.1025 8.99886 13.5 9.00002H18V21Z" fill="currentColor"/>
</svg>
