<svg width="24" height="24" viewBox="0 0 24 24" fill="none" xmlns="http://www.w3.org/2000/svg">
<g clip-path="url(#clip0_7550_33220)">
<path d="M21 15H19.5V16.5H21V21H3V16.5H4.5V15H3C2.60232 15.0005 2.22107 15.1587 1.93987 15.4399C1.65866 15.7211 1.50048 16.1023 1.5 16.5V21C1.50048 21.3977 1.65866 21.7789 1.93987 22.0601C2.22107 22.3413 2.60232 22.4995 3 22.5H21C21.3977 22.4995 21.7789 22.3413 22.0601 22.0601C22.3413 21.7789 22.4995 21.3977 22.5 21V16.5C22.4995 16.1023 22.3413 15.7211 22.0601 15.4399C21.7789 15.1587 21.3977 15.0005 21 15Z" fill="currentColor"/>
<path d="M5.25 19.5C5.66421 19.5 6 19.1642 6 18.75C6 18.3358 5.66421 18 5.25 18C4.83579 18 4.5 18.3358 4.5 18.75C4.5 19.1642 4.83579 19.5 5.25 19.5Z" fill="currentColor"/>
<path d="M17.0303 5.46975L13.2803 1.71975C13.1396 1.57909 12.9489 1.50004 12.75 1.5H8.25C7.85232 1.50046 7.47105 1.65864 7.18984 1.93984C6.90864 2.22105 6.75046 2.60232 6.75 3V15C6.75046 15.3977 6.90864 15.779 7.18984 16.0602C7.47105 16.3414 7.85232 16.4995 8.25 16.5H15.75C16.1477 16.4995 16.529 16.3414 16.8102 16.0602C17.0914 15.779 17.2495 15.3977 17.25 15V6C17.25 5.8011 17.1709 5.61037 17.0303 5.46975ZM15.4393 6H12.75V3.31058L15.4393 6ZM8.25 15V3H11.25V6C11.2505 6.39768 11.4086 6.77895 11.6898 7.06016C11.9711 7.34136 12.3523 7.49954 12.75 7.5H15.75V15H8.25Z" fill="currentColor"/>
</g>
<defs>
<clipPath id="clip0_7550_33220">
<rect width="24" height="24" fill="white"/>
</clipPath>
</defs>
</svg>
