<svg width="24" height="24" viewBox="0 0 24 24" fill="none" xmlns="http://www.w3.org/2000/svg">
<path d="M5.24987 3.90751C5.12993 3.90598 5.01344 3.86714 4.91658 3.79639C4.81972 3.72564 4.7473 3.62648 4.70936 3.51268C4.67143 3.39889 4.66988 3.2761 4.70491 3.16138C4.73995 3.04666 4.80983 2.9457 4.90487 2.87251C6.97427 1.40847 9.46644 0.662928 11.9999 0.750012C13.9949 0.750012 16.8599 1.08751 19.1249 2.71501C19.2487 2.80388 19.3324 2.93811 19.3577 3.08844C19.383 3.23878 19.3478 3.39301 19.2599 3.51751C19.1685 3.6407 19.0324 3.72308 18.8809 3.74693C18.7294 3.77077 18.5746 3.73417 18.4499 3.64501C16.5265 2.42266 14.2772 1.81327 11.9999 1.89751C9.72623 1.82027 7.48901 2.48354 5.62487 3.78751C5.51873 3.872 5.38533 3.91469 5.24987 3.90751Z" fill="currentColor"/>
<path d="M21.1724 9.19501C21.0796 9.19417 20.9884 9.17128 20.9063 9.12825C20.8241 9.08522 20.7534 9.02327 20.6999 8.94751C19.4024 7.11751 17.0849 4.68001 11.9999 4.68001C10.3092 4.63744 8.63319 5.00389 7.11454 5.7482C5.59589 6.49251 4.2795 7.59265 3.27737 8.95501C3.18737 9.07769 3.0526 9.1599 2.90234 9.18378C2.75207 9.20765 2.59845 9.17126 2.47487 9.08251C2.41004 9.03739 2.35529 8.97929 2.3141 8.91189C2.27291 8.84449 2.24618 8.76927 2.2356 8.69099C2.22503 8.61272 2.23083 8.5331 2.25265 8.45718C2.27448 8.38127 2.31184 8.31072 2.36237 8.25001C3.47338 6.74914 4.92875 5.53719 6.60594 4.71622C8.28313 3.89525 10.133 3.48928 11.9999 3.53251C16.2074 3.53251 19.3574 5.09251 21.6299 8.28751C21.7171 8.41293 21.7511 8.56779 21.7243 8.71819C21.6976 8.8686 21.6124 9.00229 21.4874 9.09001C21.3945 9.15432 21.2852 9.19075 21.1724 9.19501Z" fill="currentColor"/>
<path d="M9.20987 23.25C9.09352 23.2494 8.97999 23.2141 8.8838 23.1486C8.78761 23.0832 8.71313 22.9905 8.66987 22.8825C8.63988 22.8119 8.62467 22.7358 8.62517 22.6591C8.62567 22.5823 8.64188 22.5065 8.67279 22.4362C8.70371 22.3659 8.74867 22.3028 8.80492 22.2505C8.86117 22.1983 8.92751 22.1581 8.99987 22.1325C12.2774 20.8725 14.2499 18.2925 14.2499 15.225C14.2723 14.9238 14.2294 14.6213 14.1243 14.3382C14.0191 14.055 13.8542 13.7979 13.6406 13.5843C13.427 13.3707 13.1699 13.2057 12.8867 13.1006C12.6036 12.9954 12.3011 12.9526 11.9999 12.975C10.6049 12.975 9.92987 13.725 9.74987 15.4875C9.66617 16.3119 9.26623 17.0717 8.63408 17.6073C8.00192 18.143 7.18676 18.4128 6.35987 18.36C5.91519 18.3665 5.47403 18.2802 5.06451 18.1068C4.65499 17.9334 4.28608 17.6766 3.98128 17.3527C3.67648 17.0289 3.44247 16.6451 3.29416 16.2258C3.14585 15.8066 3.08649 15.361 3.11987 14.9175C3.16131 12.5987 4.11827 10.3904 5.78192 8.77449C7.44556 7.15863 9.68081 6.26639 11.9999 6.29251C14.3777 6.29247 16.659 7.23347 18.3453 8.90996C20.0317 10.5865 20.986 12.8622 20.9999 15.24C20.9469 16.9143 20.5938 18.5655 19.9574 20.115C19.8963 20.2532 19.7841 20.3624 19.6443 20.4197C19.5045 20.477 19.3479 20.478 19.2074 20.4225C19.1377 20.3938 19.0743 20.3515 19.0211 20.2982C18.9678 20.2448 18.9257 20.1815 18.8971 20.1117C18.8685 20.0419 18.854 19.9672 18.8545 19.8918C18.8549 19.8164 18.8704 19.7419 18.8999 19.6725C19.4758 18.2626 19.7982 16.7621 19.8524 15.24C19.8424 13.1653 19.0103 11.1791 17.5383 9.71699C16.0663 8.25485 14.0746 7.43602 11.9999 7.44001C10.9959 7.42013 9.99794 7.59848 9.06303 7.96484C8.12812 8.3312 7.27467 8.87838 6.55153 9.57505C5.82839 10.2717 5.24977 11.1042 4.84881 12.0248C4.44785 12.9454 4.23243 13.936 4.21487 14.94C4.18413 15.2318 4.21554 15.5268 4.30705 15.8056C4.39855 16.0844 4.54807 16.3406 4.74575 16.5574C4.94344 16.7742 5.18481 16.9467 5.45397 17.0635C5.72313 17.1803 6.01398 17.2387 6.30737 17.235C6.57746 17.2619 6.8502 17.235 7.10983 17.1558C7.36946 17.0767 7.61084 16.9469 7.82004 16.774C8.02924 16.601 8.20211 16.3884 8.32866 16.1483C8.45521 15.9081 8.53294 15.6453 8.55737 15.375C8.82737 13.0425 9.97487 11.8575 11.9774 11.8575C12.4312 11.8346 12.8847 11.9076 13.3084 12.0717C13.7321 12.2359 14.1164 12.4875 14.4363 12.8103C14.7562 13.133 15.0045 13.5195 15.1649 13.9446C15.3253 14.3698 15.3943 14.8239 15.3674 15.2775C15.3674 18.8325 13.1174 21.8175 9.36737 23.25C9.31504 23.256 9.2622 23.256 9.20987 23.25Z" fill="currentColor"/>
<path d="M14.8274 22.71C14.6837 22.7077 14.5455 22.6546 14.4374 22.56C14.3839 22.507 14.3414 22.4439 14.3124 22.3744C14.2834 22.3049 14.2685 22.2303 14.2685 22.155C14.2685 22.0797 14.2834 22.0051 14.3124 21.9356C14.3414 21.8661 14.3839 21.803 14.4374 21.75C16.1247 20.0009 17.0753 17.6703 17.0924 15.24C17.0924 14.07 16.7324 10.2525 12.0674 10.2525C11.3876 10.2286 10.7099 10.3403 10.0738 10.5811C9.43768 10.8219 8.85589 11.187 8.36237 11.655C7.9208 12.0919 7.57171 12.6132 7.3359 13.1879C7.1001 13.7626 6.98242 14.3789 6.98987 15C6.9879 15.1519 6.92618 15.2968 6.81809 15.4035C6.71 15.5102 6.56424 15.57 6.41237 15.57C6.33689 15.571 6.26196 15.557 6.19193 15.5288C6.12191 15.5006 6.05819 15.4588 6.00446 15.4057C5.95073 15.3527 5.90808 15.2895 5.87896 15.2199C5.84985 15.1502 5.83486 15.0755 5.83487 15C5.82318 14.2317 5.96436 13.4686 6.2502 12.7553C6.53603 12.042 6.96082 11.3927 7.49987 10.845C8.0974 10.2715 8.80287 9.82237 9.57535 9.52368C10.3478 9.22499 11.1719 9.08268 11.9999 9.10501C16.5599 9.10501 18.1799 12.405 18.1799 15.24C18.1701 17.9452 17.1232 20.5436 15.2549 22.5C15.2033 22.5642 15.1383 22.6162 15.0644 22.6525C14.9906 22.6888 14.9096 22.7084 14.8274 22.71Z" fill="currentColor"/>
<path d="M6.49487 20.805C6.10392 20.8041 5.71333 20.7816 5.32487 20.7375C5.25002 20.7291 5.17754 20.7061 5.11159 20.6697C5.04564 20.6333 4.9875 20.5843 4.94049 20.5255C4.89348 20.4666 4.85852 20.3991 4.83761 20.3267C4.8167 20.2544 4.81025 20.1786 4.81862 20.1038C4.82699 20.0289 4.85002 19.9564 4.8864 19.8905C4.92278 19.8245 4.9718 19.7664 5.03065 19.7194C5.0895 19.6724 5.15703 19.6374 5.22939 19.6165C5.30175 19.5956 5.37752 19.5891 5.45237 19.5975C7.31987 19.8075 8.78987 19.4775 9.83237 18.6075C10.3129 18.1778 10.7015 17.6552 10.9748 17.0713C11.248 16.4875 11.4003 15.8543 11.4224 15.21C11.4261 15.1341 11.4452 15.0597 11.4784 14.9913C11.5117 14.9229 11.5585 14.862 11.616 14.8122C11.6735 14.7625 11.7405 14.7249 11.8129 14.7017C11.8853 14.6786 11.9617 14.6703 12.0374 14.6775C12.1886 14.689 12.3294 14.7588 12.4301 14.8722C12.5308 14.9855 12.5836 15.1335 12.5774 15.285C12.5458 16.0872 12.3513 16.8745 12.0057 17.5992C11.6602 18.3238 11.1708 18.9705 10.5674 19.5C9.40969 20.4082 7.96477 20.8712 6.49487 20.805Z" fill="currentColor"/>
</svg>
