<svg width="24" height="24" viewBox="0 0 24 24" fill="none" xmlns="http://www.w3.org/2000/svg">
<g clip-path="url(#clip0_7550_18)">
<path d="M20.25 15.2979V17.5479C19.5 17.5479 18.75 16.4229 18.75 14.5479V12.2979C15.75 16.0479 15 17.5479 15 19.0479C15 19.7839 15.2166 20.5037 15.6228 21.1176C16.029 21.7314 16.6069 22.2122 17.2843 22.5C17.5136 21.481 18.0209 20.5457 18.75 19.7979C19.4791 20.5457 19.9864 21.481 20.2157 22.5C20.8931 22.2122 21.471 21.7314 21.8772 21.1176C22.2834 20.5037 22.5 19.7839 22.5 19.0479C22.5 17.5479 21.6562 16.3693 20.25 15.2979Z" fill="currentColor"/>
<path d="M12.75 21H3V18H12.75V16.5H3C2.60232 16.5005 2.22105 16.6586 1.93984 16.9398C1.65864 17.221 1.50046 17.6023 1.5 18V21C1.50046 21.3977 1.65864 21.779 1.93984 22.0602C2.22105 22.3414 2.60232 22.4995 3 22.5H12.75V21Z" fill="currentColor"/>
<path d="M21 9H5.25C4.85232 9.00046 4.47105 9.15864 4.18984 9.43984C3.90864 9.72105 3.75046 10.1023 3.75 10.5V13.5C3.75046 13.8977 3.90864 14.279 4.18984 14.5602C4.47105 14.8414 4.85232 14.9995 5.25 15H12.75V13.5H5.25V10.5H21L21.0008 12H22.5V10.5C22.4995 10.1023 22.3414 9.72105 22.0602 9.43984C21.7789 9.15864 21.3977 9.00046 21 9Z" fill="currentColor"/>
<path d="M18.75 7.5H3C2.6023 7.49958 2.22101 7.34141 1.9398 7.0602C1.65859 6.77899 1.50042 6.3977 1.5 6V3C1.50042 2.6023 1.65859 2.22101 1.9398 1.9398C2.22101 1.65859 2.6023 1.50042 3 1.5H18.75C19.1477 1.50042 19.529 1.65859 19.8102 1.9398C20.0914 2.22101 20.2496 2.6023 20.25 3V6C20.2496 6.3977 20.0914 6.77899 19.8102 7.0602C19.529 7.34141 19.1477 7.49958 18.75 7.5ZM3 3V6H18.75V3H3Z" fill="currentColor"/>
</g>
<defs>
<clipPath id="clip0_7550_18">
<rect width="24" height="24" fill="white"/>
</clipPath>
</defs>
</svg>
