<svg width="24" height="25" viewBox="0 0 24 25" fill="none" xmlns="http://www.w3.org/2000/svg">
<g clip-path="url(#clip0_2913_18685)">
<path d="M18 6.5C18.4142 6.5 18.75 6.16421 18.75 5.75C18.75 5.33579 18.4142 5 18 5C17.5858 5 17.25 5.33579 17.25 5.75C17.25 6.16421 17.5858 6.5 18 6.5Z" fill="currentColor"/>
<path d="M19.4998 2C16.3184 2.00363 13.2682 3.26908 11.0186 5.51873C8.76892 7.76838 7.50347 10.8185 7.49984 14V15.5H2.24984C2.10153 15.5 1.95655 15.544 1.83325 15.6264C1.70994 15.7089 1.61383 15.826 1.55708 15.963C1.50033 16.1 1.48548 16.2508 1.5144 16.3963C1.54333 16.5417 1.61473 16.6754 1.71959 16.7803L7.71959 22.7803C7.82448 22.8851 7.9581 22.9565 8.10357 22.9854C8.24903 23.0144 8.39981 22.9995 8.53683 22.9428C8.67386 22.886 8.79098 22.7899 8.87339 22.6666C8.95581 22.5433 8.99981 22.3983 8.99984 22.25V17H10.4998C13.6813 16.9964 16.7315 15.7309 18.9811 13.4813C21.2308 11.2316 22.4962 8.18148 22.4998 5V2H19.4998ZM7.49984 20.4393L4.06042 17H7.49984V20.4393ZM8.99984 15.5V14C9.00004 11.2923 10.0508 8.6903 11.9308 6.74172L17.7583 12.5689C15.8097 14.449 13.2076 15.4998 10.4998 15.5H8.99984ZM20.9998 5C20.9998 7.34115 20.2126 9.6143 18.7648 11.4541L13.0457 5.735C14.8855 4.28723 17.1587 3.50006 19.4998 3.5H20.9998V5Z" fill="currentColor"/>
</g>
<defs>
<clipPath id="clip0_2913_18685">
<rect width="24" height="24" fill="white" transform="translate(0 0.5)"/>
</clipPath>
</defs>
</svg>
