<svg width="22" height="22" viewBox="0 0 22 22" fill="none" xmlns="http://www.w3.org/2000/svg">
<path d="M21.5 20.5636L1.5575 0.621118L0.5 1.67862L5.3 6.48612L4.25 10.9486C4.22353 11.0604 4.22311 11.1768 4.24875 11.2888C4.27439 11.4008 4.32541 11.5054 4.39789 11.5945C4.47036 11.6837 4.56234 11.755 4.66674 11.8029C4.77114 11.8509 4.88516 11.8742 5 11.8711H8.6225L7.25 20.7586C7.22522 20.9234 7.25601 21.0917 7.33749 21.237C7.41897 21.3823 7.54652 21.4963 7.7 21.5611C7.79533 21.5998 7.89712 21.6202 8 21.6211C8.11454 21.6208 8.22749 21.5943 8.3302 21.5436C8.4329 21.4929 8.52263 21.4194 8.5925 21.3286L13.6025 14.7811L20.4425 21.6211L21.5 20.5636Z" fill="currentColor"/>
<path d="M15.8975 11.7736L18.3425 8.57862C18.4213 8.47204 18.4704 8.34649 18.4849 8.21475C18.4994 8.083 18.4787 7.94977 18.425 7.82862C18.3686 7.69538 18.2749 7.58129 18.1551 7.50012C18.0353 7.41894 17.8947 7.37414 17.75 7.37112H14.1875L15.5 1.53612C15.5248 1.42543 15.5242 1.31055 15.4983 1.20013C15.4723 1.08971 15.4216 0.986616 15.35 0.898618C15.2778 0.809599 15.1862 0.7383 15.0822 0.690196C14.9782 0.642091 14.8646 0.618461 14.75 0.621118H7.25C7.07766 0.61651 6.90899 0.67142 6.77239 0.776603C6.63578 0.881786 6.53959 1.03082 6.5 1.19862L6.275 2.17362L15.8975 11.7736Z" fill="currentColor"/>
</svg>
