<svg width="16" height="22" viewBox="0 0 16 22" fill="none" xmlns="http://www.w3.org/2000/svg">
<path d="M4.33253 21.5611C4.17905 21.4963 4.0515 21.3823 3.97002 21.237C3.88854 21.0917 3.85775 20.9234 3.88253 20.7586L5.24753 11.8711H1.62503C1.51019 11.8742 1.39617 11.8509 1.29177 11.8029C1.18737 11.755 1.09539 11.6837 1.02292 11.5945C0.950445 11.5054 0.899419 11.4008 0.873777 11.2888C0.848136 11.1768 0.848564 11.0604 0.87503 10.9486L3.12503 1.19862C3.16462 1.03082 3.26081 0.881786 3.39742 0.776603C3.53402 0.67142 3.70269 0.61651 3.87503 0.621118H11.375C11.4871 0.620737 11.5978 0.645465 11.699 0.693487C11.8003 0.741508 11.8894 0.811602 11.96 0.898618C12.0316 0.986616 12.0823 1.08971 12.1083 1.20013C12.1343 1.31055 12.1349 1.42543 12.11 1.53612L10.8125 7.37112H14.375C14.5156 7.37084 14.6534 7.41006 14.7728 7.48432C14.8921 7.55859 14.9882 7.66489 15.05 7.79112C15.1038 7.91227 15.1245 8.0455 15.11 8.17725C15.0955 8.30899 15.0463 8.43454 14.9675 8.54112L5.21753 21.2911C5.15163 21.3888 5.06365 21.4696 4.96071 21.5269C4.85777 21.5842 4.74277 21.6165 4.62503 21.6211C4.52467 21.6192 4.42552 21.5989 4.33253 21.5611Z" fill="currentColor"/>
</svg>
