<svg width="21" height="22" viewBox="0 0 21 22" fill="none" xmlns="http://www.w3.org/2000/svg">
<path d="M6.8475 4.28862L7.35 2.12112H13.35L11.85 8.87112H15.75L13.8825 11.3086L14.955 12.3811L17.8575 8.57862C17.9363 8.47204 17.9854 8.34649 17.9999 8.21475C18.0144 8.083 17.9937 7.94977 17.94 7.82862C17.8826 7.69306 17.7865 7.57739 17.6638 7.49604C17.5411 7.41468 17.3972 7.37124 17.25 7.37112H13.6875L15 1.53612C15.0248 1.42543 15.0242 1.31055 14.9983 1.20013C14.9723 1.08971 14.9216 0.986616 14.85 0.898618C14.7778 0.809599 14.6862 0.7383 14.5822 0.690196C14.4782 0.642091 14.3646 0.618461 14.25 0.621118H6.75C6.57766 0.61651 6.40899 0.67142 6.27239 0.776603C6.13578 0.881786 6.03959 1.03082 6 1.19862L5.595 3.03612L6.8475 4.28862Z" fill="currentColor"/>
<path d="M21 20.5636L14.0175 13.5811L12.9525 12.5086L1.0575 0.621118L0 1.67862L4.8 6.48612L3.75 10.9486C3.72353 11.0604 3.72311 11.1768 3.74875 11.2888C3.77439 11.4008 3.82541 11.5054 3.89789 11.5945C3.97036 11.6837 4.06234 11.755 4.16674 11.8029C4.27114 11.8509 4.38516 11.8742 4.5 11.8711H8.1225L6.75 20.7586C6.72522 20.9234 6.75601 21.0917 6.83749 21.237C6.91897 21.3823 7.04652 21.4963 7.2 21.5611C7.29533 21.5998 7.39712 21.6202 7.5 21.6211C7.61454 21.6208 7.72749 21.5943 7.8302 21.5436C7.9329 21.4929 8.02263 21.4194 8.0925 21.3286L13.1025 14.7811L19.9425 21.6211L21 20.5636ZM5.445 10.3711L6.0525 7.73112L8.6925 10.3711H5.445ZM8.685 18.0811L9.75 11.3986L12 13.7086L8.685 18.0811Z" fill="currentColor"/>
</svg>
