<svg width="15" height="22" viewBox="0 0 15 22" fill="none" xmlns="http://www.w3.org/2000/svg">
<path d="M3.70753 21.5611C3.55405 21.4963 3.4265 21.3823 3.34502 21.237C3.26354 21.0917 3.23275 20.9234 3.25753 20.7586L4.62253 11.8711H1.00003C0.885186 11.8742 0.771167 11.8509 0.666771 11.8029C0.562374 11.755 0.470391 11.6837 0.397918 11.5945C0.325445 11.5054 0.274419 11.4008 0.248777 11.2888C0.223136 11.1768 0.223564 11.0604 0.25003 10.9486L2.50003 1.19862C2.53962 1.03082 2.63581 0.881786 2.77242 0.776603C2.90902 0.67142 3.07769 0.61651 3.25003 0.621118H10.75C10.8621 0.620737 10.9728 0.645465 11.074 0.693487C11.1753 0.741508 11.2644 0.811602 11.335 0.898618C11.4066 0.986616 11.4573 1.08971 11.4833 1.20013C11.5093 1.31055 11.5099 1.42543 11.485 1.53612L10.1875 7.37112H13.75C13.8906 7.37084 14.0284 7.41006 14.1478 7.48432C14.2671 7.55859 14.3632 7.66489 14.425 7.79112C14.4788 7.91227 14.4995 8.0455 14.485 8.17725C14.4705 8.30899 14.4213 8.43454 14.3425 8.54112L4.59253 21.2911C4.52663 21.3888 4.43865 21.4696 4.33571 21.5269C4.23277 21.5842 4.11777 21.6165 4.00003 21.6211C3.89967 21.6192 3.80052 21.5989 3.70753 21.5611ZM8.31253 8.87112L9.81253 2.12112H3.85003L1.94503 10.3711H6.37753L5.18503 18.0811L12.25 8.87112H8.31253Z" fill="currentColor"/>
</svg>
