<svg width="24" height="24" viewBox="0 0 24 24" fill="none" xmlns="http://www.w3.org/2000/svg">
<path d="M11 15H21.5V16.5H11V15ZM11 18H21.5V19.5H11V18ZM11 21H16.25V22.5H11V21Z" fill="currentColor"/>
<path d="M9.5 19.5H2V4.5H7.3775L9.9425 7.0575L10.3775 7.5H20V13.5H21.5V7.5C21.5 7.10218 21.342 6.72064 21.0607 6.43934C20.7794 6.15804 20.3978 6 20 6H11L8.4425 3.4425C8.30296 3.30212 8.13701 3.19075 7.95423 3.11481C7.77144 3.03886 7.57543 2.99984 7.3775 3H2C1.60218 3 1.22064 3.15804 0.93934 3.43934C0.658035 3.72064 0.5 4.10218 0.5 4.5V19.5C0.5 19.8978 0.658035 20.2794 0.93934 20.5607C1.22064 20.842 1.60218 21 2 21H9.5V19.5Z" fill="currentColor"/>
</svg>
