<svg width="25" height="25" viewBox="0 0 25 25" fill="none" xmlns="http://www.w3.org/2000/svg">
<g clip-path="url(#clip0_3390_374)">
<path d="M21.25 6.46301H19.3106L22.75 3.02359L21.6894 1.96301L1.75 21.9024L2.81058 22.963L4.31058 21.463H21.25C21.6478 21.463 22.0294 21.305 22.3107 21.0237C22.592 20.7424 22.75 20.3608 22.75 19.963V7.96301C22.75 7.56519 22.592 7.18366 22.3107 6.90235C22.0294 6.62105 21.6478 6.46301 21.25 6.46301ZM21.25 19.963H5.81058L17.8106 7.96301H21.25V19.963Z" fill="currentColor"/>
<path d="M3.25 4.96301H8.6287L11.1893 7.52359L11.6287 7.96301H13.75V6.46301H12.25L9.68943 3.90244C9.40809 3.62113 9.02655 3.46308 8.6287 3.46301H3.25C2.85218 3.46301 2.47064 3.62105 2.18934 3.90235C1.90804 4.18366 1.75 4.56519 1.75 4.96301V18.463H3.25V4.96301Z" fill="currentColor"/>
</g>
<defs>
<clipPath id="clip0_3390_374">
<rect width="24" height="24" fill="white" transform="translate(0.25 0.463013)"/>
</clipPath>
</defs>
</svg>
