<svg width="24" height="25" viewBox="0 0 24 25" fill="none" xmlns="http://www.w3.org/2000/svg">
<path d="M8.3775 4.96301L10.9425 7.52051L11.3775 7.96301H21V19.963H3V4.96301H8.3775ZM8.3775 3.46301H3C2.60218 3.46301 2.22064 3.62105 1.93934 3.90235C1.65804 4.18366 1.5 4.56519 1.5 4.96301V19.963C1.5 20.3608 1.65804 20.7424 1.93934 21.0237C2.22064 21.305 2.60218 21.463 3 21.463H21C21.3978 21.463 21.7794 21.305 22.0607 21.0237C22.342 20.7424 22.5 20.3608 22.5 19.963V7.96301C22.5 7.56519 22.342 7.18366 22.0607 6.90235C21.7794 6.62105 21.3978 6.46301 21 6.46301H12L9.4425 3.90551C9.30296 3.76514 9.13701 3.65377 8.95423 3.57782C8.77144 3.50188 8.57543 3.46286 8.3775 3.46301Z" fill="currentColor"/>
</svg>
