<svg width="24" height="24" viewBox="0 0 24 24" fill="none" xmlns="http://www.w3.org/2000/svg">
<path d="M11.5 2C8.60156 2 6.12695 3.02539 4.07617 5.07617C2.02539 7.12695 1 9.60156 1 12.5C1 15.3984 2.02539 17.873 4.07617 19.9238C6.12695 21.9746 8.60156 23 11.5 23C14.3984 23 16.873 21.9746 18.9238 19.9238C20.9746 17.873 22 15.3984 22 12.5C22 9.60156 20.9746 7.12695 18.9238 5.07617C16.873 3.02539 14.3984 2 11.5 2ZM2.76367 12.5C2.76367 10.0938 3.61816 8.03613 5.32715 6.32715C7.03613 4.61816 9.09375 3.76367 11.5 3.76367C13.6602 3.76367 15.4922 4.43359 16.9961 5.77344L4.77344 17.9961C3.43359 16.4922 2.76367 14.6602 2.76367 12.5ZM11.5 21.2363C9.33984 21.2363 7.50781 20.5664 6.00391 19.2266L18.2266 7.00391C19.5664 8.50781 20.2363 10.3398 20.2363 12.5C20.2363 14.9062 19.3818 16.9639 17.6729 18.6729C15.9639 20.3818 13.9062 21.2363 11.5 21.2363Z" fill="currentColor"/>
</svg>
