<svg width="20" height="20" viewBox="0 0 20 20" fill="none" xmlns="http://www.w3.org/2000/svg">
<g clip-path="url(#clip0_30717_4326)">
<path d="M10 19.1406C15.0051 19.1406 19.0625 15.0832 19.0625 10.0781C19.0625 5.07304 15.0051 1.01562 10 1.01562C4.99492 1.01562 0.9375 5.07304 0.9375 10.0781C0.9375 15.0832 4.99492 19.1406 10 19.1406Z" fill="#455A64"/>
<path d="M10 19.0625C15.0051 19.0625 19.0625 15.0051 19.0625 10C19.0625 4.99492 15.0051 0.9375 10 0.9375C4.99492 0.9375 0.9375 4.99492 0.9375 10C0.9375 15.0051 4.99492 19.0625 10 19.0625Z" fill="#546E7A"/>
<path fill-rule="evenodd" clip-rule="evenodd" d="M9.84375 3.75V1.5625H10.1562V3.75H9.84375ZM9.84375 18.4375V16.25H10.1562V18.4375H9.84375Z" fill="#90A4AE"/>
<path fill-rule="evenodd" clip-rule="evenodd" d="M1.5625 9.84375H3.74999V10.1562H1.5625V9.84375ZM16.25 9.84375H18.4375V10.1562H16.25V9.84375Z" fill="#90A4AE"/>
<path fill-rule="evenodd" clip-rule="evenodd" d="M5.58048 14.4193L4.03369 15.9661ZM15.9661 4.03369L14.4193 5.58049Z" fill="white"/>
<path fill-rule="evenodd" clip-rule="evenodd" d="M14.309 5.47014L15.8558 3.92334L16.0767 4.14431L14.5299 5.69111L14.309 5.47014ZM3.92334 15.8558L5.47013 14.309L5.6911 14.5299L4.14431 16.0767L3.92334 15.8558Z" fill="#90A4AE"/>
<path fill-rule="evenodd" clip-rule="evenodd" d="M14.4193 14.4193L15.9661 15.9661ZM4.03369 4.03369L5.58049 5.58049Z" fill="white"/>
<path fill-rule="evenodd" clip-rule="evenodd" d="M5.47014 5.69111L3.92334 4.14431L4.14431 3.92334L5.69111 5.47014L5.47014 5.69111ZM15.8558 16.0767L14.309 14.5299L14.5299 14.309L16.0767 15.8558L15.8558 16.0767Z" fill="#90A4AE"/>
<path fill-rule="evenodd" clip-rule="evenodd" d="M13.5938 16.2245L14.2187 17.307ZM5.78125 2.69287L6.40625 3.7754Z" fill="white"/>
<path fill-rule="evenodd" clip-rule="evenodd" d="M6.271 3.85353L5.646 2.771L5.91663 2.61475L6.54163 3.69728L6.271 3.85353ZM14.0835 17.3852L13.4585 16.3026L13.7291 16.1464L14.3541 17.2289L14.0835 17.3852Z" fill="#90A4AE"/>
<path fill-rule="evenodd" clip-rule="evenodd" d="M16.2245 13.5938L17.307 14.2187ZM2.69287 5.78125L3.7754 6.40625Z" fill="white"/>
<path fill-rule="evenodd" clip-rule="evenodd" d="M3.69728 6.54163L2.61475 5.91663L2.771 5.646L3.85353 6.271L3.69728 6.54163ZM17.2289 14.3541L16.1464 13.7291L16.3026 13.4585L17.3852 14.0835L17.2289 14.3541Z" fill="#90A4AE"/>
<path fill-rule="evenodd" clip-rule="evenodd" d="M16.2245 6.40625L17.307 5.78125ZM2.69287 14.2187L3.7754 13.5937Z" fill="white"/>
<path fill-rule="evenodd" clip-rule="evenodd" d="M17.3852 5.91663L16.3026 6.54163L16.1464 6.27099L17.2289 5.646L17.3852 5.91663ZM3.85353 13.7291L2.771 14.3541L2.61475 14.0835L3.69728 13.4585L3.85353 13.7291Z" fill="#90A4AE"/>
<path fill-rule="evenodd" clip-rule="evenodd" d="M13.5938 3.7754L14.2187 2.69287ZM5.78125 17.307L6.40625 16.2245Z" fill="white"/>
<path fill-rule="evenodd" clip-rule="evenodd" d="M14.3541 2.771L13.7291 3.85352L13.4585 3.69727L14.0835 2.61475L14.3541 2.771ZM6.54163 16.3026L5.91663 17.3852L5.646 17.2289L6.271 16.1464L6.54163 16.3026Z" fill="#90A4AE"/>
<path fill-rule="evenodd" clip-rule="evenodd" d="M3.0575 8.13968L1.8501 7.81616ZM18.1501 12.1837L16.9427 11.8602Z" fill="white"/>
<path fill-rule="evenodd" clip-rule="evenodd" d="M1.89045 7.66528L3.09786 7.98881L3.01697 8.29066L1.80957 7.96714L1.89045 7.66528ZM16.983 11.7093L18.1904 12.0329L18.1096 12.3347L16.9022 12.0112L16.983 11.7093Z" fill="#90A4AE"/>
<path fill-rule="evenodd" clip-rule="evenodd" d="M8.13993 16.9427L7.81641 18.1501ZM12.184 1.8501L11.8605 3.0575Z" fill="white"/>
<path fill-rule="evenodd" clip-rule="evenodd" d="M11.7096 3.01698L12.0331 1.80957L12.3349 1.89045L12.0114 3.09786L11.7096 3.01698ZM7.66553 18.1096L7.98905 16.9022L8.2909 16.983L7.96738 18.1904L7.66553 18.1096Z" fill="#90A4AE"/>
<path fill-rule="evenodd" clip-rule="evenodd" d="M11.8605 16.9427L12.184 18.1501ZM7.81641 1.8501L8.13993 3.0575Z" fill="white"/>
<path fill-rule="evenodd" clip-rule="evenodd" d="M7.98905 3.09786L7.66553 1.89045L7.96738 1.80957L8.2909 3.01698L7.98905 3.09786ZM12.0331 18.1904L11.7096 16.983L12.0114 16.9022L12.335 18.1096L12.0331 18.1904Z" fill="#90A4AE"/>
<path fill-rule="evenodd" clip-rule="evenodd" d="M16.9427 8.13968L18.1501 7.81616ZM1.8501 12.1837L3.0575 11.8602Z" fill="white"/>
<path fill-rule="evenodd" clip-rule="evenodd" d="M18.1904 7.96714L16.983 8.29066L16.9022 7.98881L18.1096 7.66528L18.1904 7.96714ZM3.09786 12.0112L1.89045 12.3347L1.80957 12.0329L3.01698 11.7093L3.09786 12.0112Z" fill="#90A4AE"/>
<mask id="mask0_30717_4326" style="mask-type:luminance" maskUnits="userSpaceOnUse" x="0" y="0" width="20" height="20">
<path d="M10 19.0625C15.0051 19.0625 19.0625 15.0051 19.0625 10C19.0625 4.99492 15.0051 0.9375 10 0.9375C4.99492 0.9375 0.9375 4.99492 0.9375 10C0.9375 15.0051 4.99492 19.0625 10 19.0625Z" fill="white"/>
</mask>
<g mask="url(#mask0_30717_4326)">
<path opacity="0.5" d="M15 5L13.9775 6.02249L6.02246 13.9775L18.75 26.5625L27.5 17.5L15 5Z" fill="url(#paint0_radial_30717_4326)"/>
</g>
<path opacity="0.2" d="M10 0.9375C7.59648 0.9375 5.29139 1.8923 3.59185 3.59184C1.8923 5.29139 0.9375 7.59648 0.9375 10C0.937996 10.0152 0.93853 10.0305 0.939102 10.0457C0.947681 7.64808 1.90604 5.35156 3.60432 3.65906C5.30259 1.96656 7.60236 1.01603 10 1.01562C12.3953 1.01602 14.6931 1.96473 16.391 3.65436C18.0889 5.34399 19.0488 7.63711 19.0609 10.0324C19.0615 10.0216 19.062 10.0108 19.0625 10C19.0625 7.59648 18.1077 5.29139 16.4082 3.59184C14.7086 1.8923 12.4035 0.9375 10 0.9375Z" fill="white"/>
<g opacity="0.3" filter="url(#filter0_f_30717_4326)">
<path d="M10 4.76562C8.50816 4.76563 7.07742 5.35826 6.02252 6.41315C4.96763 7.46804 4.375 8.89878 4.375 10.3906C4.375 11.8825 4.96763 13.3132 6.02252 14.3681C7.07742 15.423 8.50816 16.0156 10 16.0156C11.4918 16.0156 12.9226 15.423 13.9775 14.3681C15.0324 13.3132 15.625 11.8825 15.625 10.3906C15.6232 9.38796 15.3535 8.40399 14.8438 7.54059V5.54688H12.8354C11.9763 5.03961 10.9977 4.76998 10 4.76562Z" fill="black"/>
</g>
<path d="M15 5H11.875V8.125H15V5Z" fill="#B0BEC5"/>
<path opacity="0.15" fill-rule="evenodd" clip-rule="evenodd" d="M15 5L11.875 8.125V5H15Z" fill="white"/>
<path d="M10 15.625C13.1066 15.625 15.625 13.1066 15.625 10C15.625 6.8934 13.1066 4.375 10 4.375C6.8934 4.375 4.375 6.8934 4.375 10C4.375 13.1066 6.8934 15.625 10 15.625Z" fill="#CFD8DC"/>
<path d="M10 14.375C12.4162 14.375 14.375 12.4162 14.375 10C14.375 7.58375 12.4162 5.625 10 5.625C7.58375 5.625 5.625 7.58375 5.625 10C5.625 12.4162 7.58375 14.375 10 14.375Z" fill="white"/>
<path d="M9.375 6.875V8.75L9.84375 9.21875L9.375 9.6875V13.125H10.625V11.25L10.1562 10.7812L10.625 10.3125V6.875H9.375Z" fill="#4D4D4D"/>
</g>
<defs>
<filter id="filter0_f_30717_4326" x="-10.025" y="-9.63437" width="40.05" height="40.05" filterUnits="userSpaceOnUse" color-interpolation-filters="sRGB">
<feFlood flood-opacity="0" result="BackgroundImageFix"/>
<feBlend mode="normal" in="SourceGraphic" in2="BackgroundImageFix" result="shape"/>
<feGaussianBlur stdDeviation="7.2" result="effect1_foregroundBlur_30717_4326"/>
</filter>
<radialGradient id="paint0_radial_30717_4326" cx="0" cy="0" r="1" gradientUnits="userSpaceOnUse" gradientTransform="rotate(135) scale(20 28.2843)">
<stop/>
<stop offset="1" stop-opacity="0"/>
</radialGradient>
<clipPath id="clip0_30717_4326">
<rect width="20" height="20" fill="white"/>
</clipPath>
</defs>
</svg>
