<svg width="24" height="24" viewBox="0 0 24 24" fill="none" xmlns="http://www.w3.org/2000/svg">
<path d="M18.75 7.5H5.25C4.65346 7.50066 4.08155 7.73792 3.65973 8.15973C3.23792 8.58155 3.00066 9.15347 3 9.75V14.25C3.00046 14.6477 3.15864 15.029 3.43984 15.3102C3.72105 15.5914 4.10232 15.7495 4.5 15.75V21C4.50046 21.3977 4.65864 21.779 4.93984 22.0602C5.22105 22.3414 5.60232 22.4995 6 22.5H9C9.39768 22.4995 9.77895 22.3414 10.0602 22.0602C10.3414 21.779 10.4995 21.3977 10.5 21V12H9V21H6V14.25H4.5V9.75C4.50018 9.55114 4.57925 9.36048 4.71987 9.21987C4.86048 9.07926 5.05114 9.00018 5.25 9H18.75C18.9489 9.00018 19.1395 9.07926 19.2801 9.21987C19.4207 9.36048 19.4998 9.55114 19.5 9.75V14.25H18V21H15V12H13.5V21C13.5005 21.3977 13.6586 21.779 13.9398 22.0602C14.221 22.3414 14.6023 22.4995 15 22.5H18C18.3977 22.4995 18.779 22.3414 19.0602 22.0602C19.3414 21.779 19.4995 21.3977 19.5 21V15.75C19.8977 15.7495 20.2789 15.5914 20.5602 15.3102C20.8414 15.029 20.9995 14.6477 21 14.25V9.75C20.9993 9.15347 20.7621 8.58155 20.3403 8.15973C19.9185 7.73792 19.3465 7.50066 18.75 7.5Z" fill="currentColor"/>
<path d="M7.5 6.75C6.90666 6.75 6.32664 6.57405 5.83329 6.24441C5.33994 5.91477 4.95542 5.44623 4.72836 4.89805C4.5013 4.34987 4.44189 3.74667 4.55764 3.16473C4.6734 2.58279 4.95912 2.04824 5.37868 1.62868C5.79824 1.20912 6.33279 0.923401 6.91473 0.807646C7.49667 0.69189 8.09987 0.7513 8.64805 0.978363C9.19623 1.20543 9.66476 1.58994 9.99441 2.08329C10.3241 2.57664 10.5 3.15666 10.5 3.75C10.4992 4.54539 10.1828 5.30797 9.6204 5.8704C9.05797 6.43283 8.29539 6.74917 7.5 6.75ZM7.5 2.25C7.20333 2.25 6.91332 2.33797 6.66664 2.5028C6.41997 2.66762 6.22771 2.90189 6.11418 3.17598C6.00065 3.45007 5.97094 3.75167 6.02882 4.04264C6.0867 4.33361 6.22956 4.60088 6.43934 4.81066C6.64912 5.02044 6.91639 5.1633 7.20736 5.22118C7.49834 5.27906 7.79994 5.24935 8.07403 5.13582C8.34811 5.02229 8.58238 4.83003 8.7472 4.58336C8.91203 4.33668 9 4.04667 9 3.75C8.99954 3.35232 8.84136 2.97105 8.56016 2.68985C8.27895 2.40864 7.89768 2.25046 7.5 2.25Z" fill="currentColor"/>
<path d="M16.5 6.75C15.9067 6.75 15.3266 6.57405 14.8333 6.24441C14.3399 5.91477 13.9554 5.44623 13.7284 4.89805C13.5013 4.34987 13.4419 3.74667 13.5576 3.16473C13.6734 2.58279 13.9591 2.04824 14.3787 1.62868C14.7982 1.20912 15.3328 0.923401 15.9147 0.807646C16.4967 0.69189 17.0999 0.7513 17.6481 0.978363C18.1962 1.20543 18.6648 1.58994 18.9944 2.08329C19.3241 2.57664 19.5 3.15666 19.5 3.75C19.4992 4.54539 19.1828 5.30797 18.6204 5.8704C18.058 6.43283 17.2954 6.74917 16.5 6.75ZM16.5 2.25C16.2033 2.25 15.9133 2.33797 15.6666 2.5028C15.42 2.66762 15.2277 2.90189 15.1142 3.17598C15.0006 3.45007 14.9709 3.75167 15.0288 4.04264C15.0867 4.33361 15.2296 4.60088 15.4393 4.81066C15.6491 5.02044 15.9164 5.1633 16.2074 5.22118C16.4983 5.27906 16.7999 5.24935 17.074 5.13582C17.3481 5.02229 17.5824 4.83003 17.7472 4.58336C17.912 4.33668 18 4.04667 18 3.75C17.9995 3.35232 17.8414 2.97105 17.5602 2.68985C17.279 2.40864 16.8977 2.25046 16.5 2.25Z" fill="currentColor"/>
</svg>
