<svg width="24" height="25" viewBox="0 0 24 25" fill="none" xmlns="http://www.w3.org/2000/svg">
<g clip-path="url(#clip0_7763_47249)">
<path d="M5.63248 20.1286C5.26775 20.1293 4.90456 20.0813 4.55248 19.9861C3.49566 19.6848 2.59905 18.9812 2.05503 18.0263C1.511 17.0715 1.36289 15.9414 1.64248 14.8786L3.38998 8.24863C3.52607 7.71206 3.76801 7.20809 4.10159 6.76633C4.43517 6.32456 4.85366 5.95391 5.33248 5.67613C5.7987 5.40609 6.31387 5.23125 6.84814 5.16173C7.38242 5.09221 7.92518 5.1294 8.44498 5.27113C8.99753 5.42457 9.51219 5.69114 9.95631 6.05392C10.4004 6.41671 10.7643 6.86781 11.025 7.37863H12.975C13.2345 6.86699 13.598 6.41523 14.0423 6.05231C14.4866 5.68938 15.0018 5.4233 15.555 5.27113C16.0748 5.1294 16.6175 5.09221 17.1518 5.16173C17.6861 5.23125 18.2013 5.40609 18.6675 5.67613C19.144 5.9532 19.5609 6.32182 19.8943 6.76076C20.2277 7.19969 20.4709 7.70027 20.61 8.23363L22.3575 14.8786C22.6412 15.9445 22.4943 17.0793 21.9484 18.0377C21.4025 18.9962 20.5015 19.7014 19.44 20.0011C18.9202 20.1429 18.3774 20.1801 17.8431 20.1105C17.3089 20.041 16.7937 19.8662 16.3275 19.5961C15.8502 19.32 15.4326 18.9517 15.0991 18.5126C14.7656 18.0736 14.5229 17.5725 14.385 17.0386L14.25 16.3786H9.74998L9.57748 17.0236C9.43958 17.5575 9.19681 18.0586 8.86331 18.4976C8.52981 18.9367 8.11226 19.305 7.63498 19.5811C7.02559 19.9326 6.33592 20.1212 5.63248 20.1286ZM7.37248 6.62863C6.91988 6.63017 6.47542 6.74904 6.08248 6.97363C5.46662 7.33497 5.01897 7.92554 4.83748 8.61613L3.08998 15.2461C2.90712 15.9292 2.99952 16.6567 3.34732 17.2724C3.69511 17.888 4.27056 18.3427 4.94998 18.5386C5.27811 18.6281 5.62073 18.6517 5.95801 18.6079C6.2953 18.5641 6.62056 18.4539 6.91498 18.2836C7.22151 18.1067 7.48955 17.8702 7.70336 17.5881C7.91717 17.306 8.07242 16.9841 8.15998 16.6411L8.62498 14.8786H15.375L15.8325 16.6411C15.9216 16.9834 16.0774 17.3047 16.2911 17.5866C16.5048 17.8685 16.772 18.1053 17.0775 18.2836C17.3733 18.4538 17.6999 18.5639 18.0383 18.6076C18.3768 18.6514 18.7206 18.6279 19.05 18.5386C19.7302 18.3445 20.3064 17.8898 20.6532 17.2733C21.0001 16.6568 21.0897 15.9283 20.9025 15.2461L19.155 8.61613C19.0679 8.27398 18.9137 7.95256 18.7012 7.67058C18.4888 7.3886 18.2223 7.15169 17.9175 6.97363C17.6216 6.80351 17.2951 6.69341 16.9566 6.64966C16.6182 6.6059 16.2744 6.62934 15.945 6.71863C15.5376 6.83475 15.1638 7.04639 14.8547 7.33597C14.5455 7.62556 14.3099 7.98472 14.1675 8.38363L13.9875 8.87863H10.0125L9.83248 8.38363C9.68874 7.98418 9.45182 7.62477 9.14139 7.3352C8.83095 7.04564 8.45595 6.83427 8.04748 6.71863C7.82737 6.65928 7.60044 6.62902 7.37248 6.62863Z" fill="currentColor"/>
<path d="M7.5 12.6287C7.20333 12.6287 6.91332 12.5407 6.66665 12.3759C6.41997 12.211 6.22771 11.9768 6.11418 11.7027C6.00065 11.4286 5.97094 11.127 6.02882 10.836C6.0867 10.5451 6.22956 10.2778 6.43934 10.068C6.64912 9.85822 6.91639 9.71536 7.20737 9.65748C7.49834 9.59961 7.79994 9.62931 8.07403 9.74284C8.34811 9.85637 8.58238 10.0486 8.74721 10.2953C8.91203 10.542 9 10.832 9 11.1287C9 11.5265 8.84197 11.908 8.56066 12.1893C8.27936 12.4706 7.89783 12.6287 7.5 12.6287Z" fill="currentColor"/>
<path d="M16.5 10.3787C16.9142 10.3787 17.25 10.0429 17.25 9.62866C17.25 9.21445 16.9142 8.87866 16.5 8.87866C16.0858 8.87866 15.75 9.21445 15.75 9.62866C15.75 10.0429 16.0858 10.3787 16.5 10.3787Z" fill="currentColor"/>
<path d="M16.5 13.3787C16.9142 13.3787 17.25 13.0429 17.25 12.6287C17.25 12.2144 16.9142 11.8787 16.5 11.8787C16.0858 11.8787 15.75 12.2144 15.75 12.6287C15.75 13.0429 16.0858 13.3787 16.5 13.3787Z" fill="currentColor"/>
<path d="M15 11.8787C15.4142 11.8787 15.75 11.5429 15.75 11.1287C15.75 10.7144 15.4142 10.3787 15 10.3787C14.5858 10.3787 14.25 10.7144 14.25 11.1287C14.25 11.5429 14.5858 11.8787 15 11.8787Z" fill="currentColor"/>
<path d="M18 11.8787C18.4142 11.8787 18.75 11.5429 18.75 11.1287C18.75 10.7144 18.4142 10.3787 18 10.3787C17.5858 10.3787 17.25 10.7144 17.25 11.1287C17.25 11.5429 17.5858 11.8787 18 11.8787Z" fill="currentColor"/>
</g>
<defs>
<clipPath id="clip0_7763_47249">
<rect width="24" height="24" fill="white" transform="translate(0 0.628662)"/>
</clipPath>
</defs>
</svg>
