<svg width="32" height="33" viewBox="0 0 32 33" fill="none" xmlns="http://www.w3.org/2000/svg">
<g clip-path="url(#clip0_31570_50816)">
<path d="M15.9999 29.599C19.8971 29.599 23.4045 27.8874 25.7861 25.1793L28.3193 26.7392C25.3747 30.2707 20.958 32.5239 15.9999 32.5239C10.2408 32.5239 5.19613 29.469 2.35986 24.8976L4.84971 23.3593C7.18801 27.1075 11.3017 29.599 15.9999 29.599Z" fill="#FF1435"/>
<path d="M15.9999 3.44871C19.8971 3.44871 23.4045 5.16029 25.7861 7.86848L28.3193 6.30856C25.3747 2.77708 20.958 0.523865 15.9999 0.523865C10.2408 0.523865 5.19613 3.57871 2.35986 8.15014L4.84971 9.68839C7.18801 5.94025 11.3017 3.44871 15.9999 3.44871Z" fill="#FF1435"/>
<path d="M29.0771 16.513C29.0771 19.0262 28.3626 21.3661 27.1501 23.3377L29.64 24.8759C31.1339 22.4494 31.9999 19.5679 31.9999 16.513C31.9999 13.4582 31.1339 10.5767 29.64 8.15015L27.1501 9.6884C28.3842 11.6816 29.0771 14.0215 29.0771 16.513Z" fill="#FF1435"/>
<path d="M25.4182 10.8367L22.9716 12.3316C23.7077 13.5449 24.1191 14.9748 24.1191 16.513C24.1191 18.0513 23.6644 19.5679 22.885 20.8028L25.3316 22.2977C26.3708 20.6078 26.977 18.6363 26.977 16.513C26.9987 14.4332 26.4141 12.5049 25.4182 10.8367Z" fill="#FF1435"/>
<path d="M1.3207 10.1434C0.476319 12.0933 0 14.2598 0 16.513C0 18.7663 0.476319 20.9328 1.3207 22.8827L11.7348 16.513L1.3207 10.1434Z" fill="#FF1435"/>
<path d="M16.0001 10.4684C13.8133 10.4684 11.9081 11.6383 10.8472 13.3715L16.0001 16.513L10.8472 19.6545C11.9081 21.3878 13.8133 22.5361 16.0001 22.5361C19.3343 22.5361 22.0407 19.8279 22.0407 16.4914C22.0407 13.1765 19.3343 10.4684 16.0001 10.4684Z" fill="#FF1435"/>
</g>
<defs>
<clipPath id="clip0_31570_50816">
<rect width="32" height="32" fill="white" transform="translate(0 0.523865)"/>
</clipPath>
</defs>
</svg>
