<svg width="220" height="26" viewBox="0 0 220 26" fill="none" xmlns="http://www.w3.org/2000/svg">
<path d="M11.5 16.1346H16.0625V19.8221C15.7188 20.1346 15.2813 20.3533 14.75 20.5721C14.25 20.7596 13.6875 20.9158 13.0938 21.0096C12.5 21.1033 11.9375 21.1658 11.3438 21.1658C9.90625 21.1658 8.68751 20.8533 7.71876 20.1971C6.75001 19.5721 6 18.6346 5.5 17.4471C5 16.2283 4.75001 14.7908 4.75001 13.0721C4.75001 11.7908 4.90625 10.6346 5.1875 9.63455C5.46875 8.63455 5.90625 7.7908 6.4375 7.1033C6.96875 6.4158 7.65625 5.88455 8.4375 5.5408C9.21875 5.19705 10.0938 5.00955 11.0313 5.00955C11.75 5.00955 12.375 5.1033 12.9063 5.32205C13.4375 5.5408 13.9063 5.82205 14.2813 6.1658C14.6563 6.50955 14.9375 6.88455 15.1563 7.32205C15.375 7.7283 15.5313 8.13455 15.5938 8.5408H20.1563C20.0313 6.7908 19.5313 5.32205 18.6563 4.1658C17.7813 3.00955 16.6875 2.13455 15.375 1.5408C14.0313 0.947052 12.5938 0.665802 11.0625 0.665802C8.87501 0.665802 6.96875 1.1658 5.3125 2.13455C3.65625 3.1033 2.34375 4.5408 1.40625 6.38455C0.46875 8.2283 0 10.4471 0 13.0408C0 15.6346 0.468752 17.9158 1.4375 19.7908C2.40625 21.6658 3.71875 23.1033 5.40625 24.1033C7.09375 25.1033 9.06251 25.6033 11.2813 25.6033C13.0938 25.6033 14.75 25.3221 16.25 24.7283C17.75 24.1346 19.125 23.3533 20.4063 22.3846V12.2596H11.4375L11.5 16.1346ZM41.6563 5.2908H47V25.1658H51.6563V5.2908H57.0938V1.0408H41.6563V5.2908ZM64.7188 14.8533H73.2188V10.6346H64.7188V5.2908H74.25V1.0408H60.125V25.1658H74.4688V20.8846H64.7188V14.8533ZM187.625 14.8533H196.125V10.6346H187.625V5.2908H197.156V1.0408H183.031V25.1658H197.375V20.8846H187.625V14.8533ZM173.844 10.7283H167.563V1.0408H162.906V25.1658H167.563V14.8533H173.844V25.1658H178.5V1.0408H173.844V10.7283ZM34.9375 1.00955L42.25 25.1971H37.4375L36.0313 20.1346H28.5625L27.1563 25.1971H22.5625L29.9063 1.00955H34.9375ZM34.9063 15.9158L32.2813 6.5408L29.7188 15.8846C29.7188 15.9158 34.9063 15.9158 34.9063 15.9158ZM116 1.00955L123.313 25.1971H118.5L117.094 20.1346H109.625L108.219 25.1971H103.656L111 1.00955C110.969 1.00955 116 1.00955 116 1.00955ZM115.969 15.9158L113.375 6.5408L110.813 15.8846C110.781 15.9158 115.969 15.9158 115.969 15.9158ZM122.688 5.2908H128.031V25.1658H132.688V5.2908H138.125V1.0408H122.656L122.688 5.2908ZM149.469 21.2596C146.281 21.2596 144.625 18.4783 144.625 13.0721C144.625 7.6658 146.281 4.9158 149.531 4.9158C152.063 4.9158 153.531 6.69705 154.031 10.2283L159.094 9.25955C158.094 3.5408 154.781 0.603302 149.5 0.603302C143.219 0.603302 139.375 5.32205 139.375 13.0721C139.375 20.8221 142.938 25.5408 149.469 25.5408C154.813 25.5408 158.156 22.6346 159.156 16.7596L154.094 15.7908C153.625 19.4471 152.094 21.2596 149.469 21.2596ZM99.5625 1.0408L96.4375 18.0408L92.9063 1.0408H88.5313L85.0625 17.6971L82 1.0408H77.3125L82.1875 25.2283H87.0313L90.6875 8.2908L94.3438 25.2283H99.1563L104.344 1.0408H99.5625ZM219.156 25.1658H213.625L208.188 15.7908H205.469V25.1658H200.844V1.0408H208.75C210.281 1.0408 211.656 1.2908 212.813 1.7908C213.969 2.2908 214.906 3.07205 215.563 4.1033C216.219 5.13455 216.563 6.44705 216.563 8.0408C216.563 9.19705 216.344 10.2908 215.906 11.3221C215.469 12.3533 214.813 13.2283 213.906 13.9158C213.5 14.2283 213.031 14.4783 212.5 14.6971L219.156 25.1658ZM208.219 12.0096C209.094 12.0096 209.781 11.8533 210.313 11.5721C210.844 11.2908 211.219 10.8533 211.469 10.3221C211.719 9.7908 211.813 9.1658 211.813 8.4158C211.813 7.5408 211.656 6.8533 211.344 6.4158C211.031 5.9783 210.594 5.6658 210.063 5.4783C209.531 5.32205 208.938 5.2283 208.281 5.2283H205.5V12.0096H208.219Z" fill="#FF1435"/>
</svg>
