<svg width="220" height="26" viewBox="0 0 220 26" fill="none" xmlns="http://www.w3.org/2000/svg">
<path d="M11.5 15.7226H16.0625V19.4101C15.7188 19.7226 15.2813 19.9413 14.75 20.1601C14.25 20.3476 13.6875 20.5038 13.0938 20.5976C12.5 20.6913 11.9375 20.7538 11.3438 20.7538C9.90625 20.7538 8.68751 20.4413 7.71876 19.7851C6.75001 19.1601 6 18.2226 5.5 17.0351C5 15.8163 4.75001 14.3788 4.75001 12.6601C4.75001 11.3788 4.90625 10.2226 5.1875 9.22259C5.46875 8.22259 5.90625 7.37884 6.4375 6.69134C6.96875 6.00384 7.65625 5.47259 8.4375 5.12884C9.21875 4.78509 10.0938 4.59759 11.0313 4.59759C11.75 4.59759 12.375 4.69134 12.9063 4.91009C13.4375 5.12884 13.9063 5.41009 14.2813 5.75384C14.6563 6.09759 14.9375 6.47259 15.1563 6.91009C15.375 7.31634 15.5313 7.72259 15.5938 8.12884H20.1563C20.0313 6.37884 19.5313 4.91009 18.6563 3.75384C17.7813 2.59759 16.6875 1.72259 15.375 1.12884C14.0313 0.535087 12.5938 0.253837 11.0625 0.253837C8.87501 0.253837 6.96875 0.753838 5.3125 1.72259C3.65625 2.69134 2.34375 4.12884 1.40625 5.97259C0.46875 7.81634 0 10.0351 0 12.6288C0 15.2226 0.468752 17.5038 1.4375 19.3788C2.40625 21.2538 3.71875 22.6913 5.40625 23.6913C7.09375 24.6913 9.06251 25.1913 11.2813 25.1913C13.0938 25.1913 14.75 24.9101 16.25 24.3163C17.75 23.7226 19.125 22.9413 20.4063 21.9726V11.8476H11.4375L11.5 15.7226ZM41.6563 4.87884H47V24.7538H51.6563V4.87884H57.0938V0.628837H41.6563V4.87884ZM64.7188 14.4413H73.2188V10.2226H64.7188V4.87884H74.25V0.628837H60.125V24.7538H74.4688V20.4726H64.7188V14.4413ZM187.625 14.4413H196.125V10.2226H187.625V4.87884H197.156V0.628837H183.031V24.7538H197.375V20.4726H187.625V14.4413ZM173.844 10.3163H167.563V0.628837H162.906V24.7538H167.563V14.4413H173.844V24.7538H178.5V0.628837H173.844V10.3163ZM34.9375 0.597587L42.25 24.7851H37.4375L36.0313 19.7226H28.5625L27.1563 24.7851H22.5625L29.9063 0.597587H34.9375ZM34.9063 15.5038L32.2813 6.12884L29.7188 15.4726C29.7188 15.5038 34.9063 15.5038 34.9063 15.5038ZM116 0.597587L123.313 24.7851H118.5L117.094 19.7226H109.625L108.219 24.7851H103.656L111 0.597587C110.969 0.597587 116 0.597587 116 0.597587ZM115.969 15.5038L113.375 6.12884L110.813 15.4726C110.781 15.5038 115.969 15.5038 115.969 15.5038ZM122.688 4.87884H128.031V24.7538H132.688V4.87884H138.125V0.628837H122.656L122.688 4.87884ZM149.469 20.8476C146.281 20.8476 144.625 18.0663 144.625 12.6601C144.625 7.25384 146.281 4.50384 149.531 4.50384C152.063 4.50384 153.531 6.28509 154.031 9.81634L159.094 8.84759C158.094 3.12884 154.781 0.191338 149.5 0.191338C143.219 0.191338 139.375 4.91009 139.375 12.6601C139.375 20.4101 142.938 25.1288 149.469 25.1288C154.813 25.1288 158.156 22.2226 159.156 16.3476L154.094 15.3788C153.625 19.0351 152.094 20.8476 149.469 20.8476ZM99.5625 0.628837L96.4375 17.6288L92.9063 0.628837H88.5313L85.0625 17.2851L82 0.628837H77.3125L82.1875 24.8163H87.0313L90.6875 7.87884L94.3438 24.8163H99.1563L104.344 0.628837H99.5625ZM219.156 24.7538H213.625L208.188 15.3788H205.469V24.7538H200.844V0.628837H208.75C210.281 0.628837 211.656 0.878837 212.813 1.37884C213.969 1.87884 214.906 2.66009 215.563 3.69134C216.219 4.72259 216.563 6.03509 216.563 7.62884C216.563 8.78509 216.344 9.87884 215.906 10.9101C215.469 11.9413 214.813 12.8163 213.906 13.5038C213.5 13.8163 213.031 14.0663 212.5 14.2851L219.156 24.7538ZM208.219 11.5976C209.094 11.5976 209.781 11.4413 210.313 11.1601C210.844 10.8788 211.219 10.4413 211.469 9.91009C211.719 9.37884 211.813 8.75384 211.813 8.00384C211.813 7.12884 211.656 6.44134 211.344 6.00384C211.031 5.56634 210.594 5.25384 210.063 5.06634C209.531 4.91009 208.938 4.81634 208.281 4.81634H205.5V11.5976H208.219Z" fill="white"/>
</svg>
