<svg width="33" height="33" viewBox="0 0 33 33" fill="none" xmlns="http://www.w3.org/2000/svg">
<g clip-path="url(#clip0_31570_50852)">
<path d="M16.6527 29.599C20.5499 29.599 24.0573 27.8874 26.4389 25.1793L28.9721 26.7392C26.0276 30.2707 21.6108 32.5239 16.6527 32.5239C10.8936 32.5239 5.84896 29.469 3.0127 24.8976L5.50255 23.3593C7.84084 27.1075 11.9545 29.599 16.6527 29.599Z" fill="white"/>
<path d="M16.6527 3.44871C20.5499 3.44871 24.0573 5.16029 26.4389 7.86848L28.9721 6.30856C26.0276 2.77708 21.6108 0.523865 16.6527 0.523865C10.8936 0.523865 5.84896 3.57871 3.0127 8.15014L5.50255 9.68839C7.84084 5.94025 11.9545 3.44871 16.6527 3.44871Z" fill="white"/>
<path d="M29.7299 16.513C29.7299 19.0262 29.0154 21.3661 27.803 23.3377L30.2928 24.8759C31.7867 22.4494 32.6528 19.5679 32.6528 16.513C32.6528 13.4582 31.7867 10.5767 30.2928 8.15015L27.803 9.6884C29.0371 11.6816 29.7299 14.0215 29.7299 16.513Z" fill="white"/>
<path d="M26.071 10.8367L23.6244 12.3316C24.3606 13.5449 24.7719 14.9748 24.7719 16.513C24.7719 18.0513 24.3173 19.5679 23.5378 20.8028L25.9844 22.2977C27.0236 20.6078 27.6299 18.6363 27.6299 16.513C27.6515 14.4332 27.0669 12.5049 26.071 10.8367Z" fill="white"/>
<path d="M1.97354 10.1434C1.12915 12.0933 0.652832 14.2598 0.652832 16.513C0.652832 18.7663 1.12915 20.9328 1.97354 22.8827L12.3876 16.513L1.97354 10.1434Z" fill="white"/>
<path d="M16.6529 10.4684C14.4662 10.4684 12.5609 11.6383 11.5 13.3715L16.6529 16.513L11.5 19.6545C12.5609 21.3878 14.4662 22.5361 16.6529 22.5361C19.9871 22.5361 22.6935 19.8279 22.6935 16.4914C22.6935 13.1765 19.9871 10.4684 16.6529 10.4684Z" fill="white"/>
</g>
<defs>
<clipPath id="clip0_31570_50852">
<rect width="32" height="32" fill="white" transform="translate(0.652832 0.523865)"/>
</clipPath>
</defs>
</svg>
