<svg width="1389" height="193" viewBox="0 0 1389 193" fill="none" xmlns="http://www.w3.org/2000/svg">
<g clip-path="url(#clip0_31572_50906)">
<path d="M96.5824 175.365C120.151 175.365 141.248 165.146 155.587 148.664L170.75 158.059C153.114 179.32 126.414 193 96.4176 193C61.6413 193 31.1503 174.705 14.1742 147.016L29.1725 137.787C43.1819 160.366 68.0692 175.365 96.5824 175.365ZM96.5824 17.6354C120.151 17.6354 141.248 27.854 155.587 44.3356L170.75 34.9411C153.114 13.5149 126.414 0 96.4176 0C61.6413 0 31.1503 18.2946 14.1742 45.9838L29.1725 55.2135C43.1819 32.6336 68.0692 17.6354 96.5824 17.6354ZM175.365 96.5824C175.365 111.746 171.079 125.755 163.663 137.787L178.661 147.016C187.726 132.348 192.835 115.042 192.835 96.5824C192.835 78.123 187.561 60.8173 178.661 46.1486L163.663 55.3783C171.079 67.2451 175.365 81.4193 175.365 96.5824ZM153.279 62.3006L138.611 71.3655C143.061 78.7822 145.533 87.3527 145.533 96.5824C145.533 105.812 142.896 114.877 138.116 122.459L152.785 131.523C159.048 121.305 162.674 109.438 162.674 96.5824C162.839 84.0564 159.377 72.3544 153.279 62.3006ZM7.91119 58.0154C2.80188 69.7173 0 82.7378 0 96.4176C0 110.097 2.80188 123.118 7.91119 134.82L70.7062 96.4176L7.91119 58.0154ZM96.5824 60.158C83.3971 60.158 71.8599 67.0803 65.5969 77.6285L96.5824 96.5824L65.5969 115.536C72.0248 125.92 83.5619 133.007 96.5824 133.007C116.69 133.007 133.007 116.69 133.007 96.5824C133.007 76.4748 116.69 60.158 96.5824 60.158ZM292.879 112.734H316.942V132.183C315.129 133.831 312.822 134.985 310.02 136.138C307.383 137.127 304.416 137.951 301.284 138.446C298.153 138.94 295.186 139.27 292.055 139.27C284.473 139.27 278.045 137.622 272.936 134.161C267.827 130.864 263.871 125.92 261.234 119.657C258.597 113.229 257.278 105.647 257.278 96.5824C257.278 89.8249 258.102 83.7267 259.586 78.4526C261.069 73.1785 263.377 68.7284 266.178 65.1025C268.98 61.4765 272.606 58.6746 276.727 56.8617C280.847 55.0487 285.462 54.0598 290.407 54.0598C294.197 54.0598 297.494 54.5542 300.295 55.7079C303.097 56.8617 305.57 58.345 307.547 60.158C309.525 61.971 311.009 63.9488 312.162 66.2562C313.316 68.3988 314.14 70.5414 314.47 72.684H338.533C337.874 63.4543 335.237 55.7079 330.622 49.6097C326.007 43.5115 320.238 38.8967 313.316 35.7652C306.229 32.6336 298.647 31.1503 290.571 31.1503C279.034 31.1503 268.98 33.7874 260.245 38.8967C251.51 44.006 244.588 51.5875 239.643 61.3117C234.699 71.0359 232.226 82.7378 232.226 96.4176C232.226 110.097 234.699 122.129 239.808 132.018C244.917 141.907 251.839 149.488 260.74 154.763C269.64 160.037 280.023 162.674 291.725 162.674C301.284 162.674 310.02 161.19 317.931 158.059C325.842 154.927 333.094 150.807 339.851 145.698V92.2972H292.549L292.879 112.734ZM451.927 55.5431H480.11V160.366H504.668V55.5431H533.346V33.1281H451.927V55.5431ZM573.561 105.977H618.391V83.7267H573.561V55.5431H623.83V33.1281H549.333V160.366H624.984V137.787H573.561V105.977ZM1221.78 105.977H1266.61V83.7267H1221.78V55.5431H1272.05V33.1281H1197.56V160.366H1273.21V137.787H1221.78V105.977ZM1149.1 84.2212H1115.97V33.1281H1091.41V160.366H1115.97V105.977H1149.1V160.366H1173.66V33.1281H1149.1V84.2212ZM416.491 32.9633L455.058 160.531H429.676L422.26 133.831H382.868L375.452 160.531H351.224L389.956 32.9633H416.491ZM416.326 111.581L402.482 62.1358L388.967 111.416C388.967 111.581 416.326 111.581 416.326 111.581ZM844.025 32.9633L882.592 160.531H857.21L849.793 133.831H810.402L802.986 160.531H778.922L817.654 32.9633C817.489 32.9633 844.025 32.9633 844.025 32.9633ZM843.86 111.581L830.18 62.1358L816.665 111.416C816.5 111.581 843.86 111.581 843.86 111.581ZM879.295 55.5431H907.479V160.366H932.037V55.5431H960.715V33.1281H879.131L879.295 55.5431ZM1020.54 139.764C1003.73 139.764 994.997 125.096 994.997 96.5824C994.997 68.0692 1003.73 53.5653 1020.87 53.5653C1034.22 53.5653 1041.97 62.9599 1044.61 81.5841L1071.31 76.4748C1066.03 46.3134 1048.56 30.8207 1020.71 30.8207C987.58 30.8207 967.308 55.7079 967.308 96.5824C967.308 137.457 986.097 162.344 1020.54 162.344C1048.73 162.344 1066.36 147.016 1071.64 116.031L1044.94 110.921C1042.46 130.205 1034.39 139.764 1020.54 139.764ZM757.331 33.1281L740.85 122.788L722.225 33.1281H699.151L680.857 120.975L664.705 33.1281H639.982L665.693 160.696H691.24L710.524 71.3655L729.807 160.696H755.189L782.548 33.1281H757.331ZM1388.08 160.366H1358.91L1330.23 110.921H1315.89V160.366H1291.5V33.1281H1333.2C1341.28 33.1281 1348.53 34.4466 1354.63 37.0837C1360.72 39.7208 1365.67 43.8412 1369.13 49.2801C1372.59 54.719 1374.4 61.6413 1374.4 70.047C1374.4 76.1452 1373.25 81.9138 1370.94 87.3527C1368.64 92.7916 1365.17 97.4065 1360.39 101.032C1358.25 102.681 1355.78 103.999 1352.98 105.153L1388.08 160.366ZM1330.4 90.9787C1335.01 90.9787 1338.64 90.1546 1341.44 88.6712C1344.24 87.1879 1346.22 84.8804 1347.54 82.0786C1348.86 79.2767 1349.35 75.9804 1349.35 72.0248C1349.35 67.4099 1348.53 63.7839 1346.88 61.4765C1345.23 59.1691 1342.92 57.5209 1340.12 56.532C1337.32 55.7079 1334.19 55.2135 1330.73 55.2135H1316.06V90.9787H1330.4Z" fill="#FF1435"/>
</g>
<defs>
<clipPath id="clip0_31572_50906">
<rect width="1388.08" height="193" fill="white"/>
</clipPath>
</defs>
</svg>
