<svg width="20" height="20" viewBox="0 0 20 20" fill="none" xmlns="http://www.w3.org/2000/svg">
<path d="M17.1875 9.9999C17.1875 10.6687 16.6453 11.2108 15.9766 11.2108H11.7969L10 7.57763L11.9395 4.21845C12.2739 3.6393 13.0144 3.44085 13.5936 3.7752L13.5938 3.77533C14.173 4.1097 14.3715 4.8503 14.0371 5.4295L12.0977 8.78896H15.9766C16.6453 8.78896 17.1875 9.33112 17.1875 9.9999Z" fill="#1A73E8"/>
<path d="M13.5937 16.2246L13.5934 16.2247C13.0143 16.559 12.2737 16.3606 11.9393 15.7815L9.99984 12.4223L8.06036 15.7814C7.72597 16.3606 6.98542 16.559 6.40625 16.2247L6.40602 16.2246C5.82681 15.8902 5.62833 15.1496 5.96271 14.5704L7.90218 11.2109L9.99984 11.1328L12.0975 11.2109L14.037 14.5704C14.3713 15.1496 14.1729 15.8902 13.5937 16.2246Z" fill="#EA4335"/>
<path d="M9.99984 7.57763L9.45296 9.0624L7.90218 8.78896L5.96271 5.42951C5.62833 4.8503 5.82681 4.1097 6.40602 3.77533L6.40625 3.7752C6.98542 3.44085 7.72597 3.6393 8.06036 4.21845L9.99984 7.57763Z" fill="#FBBC04"/>
<path d="M9.6875 8.78906L8.28125 11.2109H4.02344C3.35465 11.2109 2.8125 10.6688 2.8125 10C2.8125 9.33122 3.35465 8.78906 4.02344 8.78906H9.6875Z" fill="#34A853"/>
<path d="M12.0977 11.2108H7.90234L10 7.57764L12.0977 11.2108Z" fill="#185DB7"/>
</svg>
