<svg width="28" height="29" viewBox="0 0 28 29" fill="none" xmlns="http://www.w3.org/2000/svg">
<rect y="0.5" width="28" height="28" rx="14" fill="currentColor"/>
<g clip-path="url(#clip0_35374_25628)">
<path d="M22.4212 16.4498L18.8003 14.4998L22.4212 12.5498C22.5205 12.4963 22.6035 12.4169 22.6613 12.32C22.7192 12.2231 22.7497 12.1124 22.7497 11.9996C22.7497 11.8868 22.7192 11.776 22.6613 11.6792C22.6035 11.5823 22.5205 11.5029 22.4212 11.4494L14.2962 7.07437C14.2051 7.02524 14.1033 6.99951 13.9999 6.99951C13.8964 6.99951 13.7946 7.02524 13.7035 7.07437L5.57855 11.4494C5.47922 11.5029 5.39623 11.5823 5.33839 11.6792C5.28054 11.776 5.25 11.8868 5.25 11.9996C5.25 12.1124 5.28054 12.2231 5.33839 12.32C5.39623 12.4169 5.47922 12.4963 5.57855 12.5498L9.19942 14.4998L5.57855 16.4498C5.47922 16.5033 5.39623 16.5827 5.33839 16.6796C5.28054 16.7765 5.25 16.8872 5.25 17C5.25 17.1129 5.28054 17.2236 5.33839 17.3204C5.39623 17.4173 5.47922 17.4967 5.57855 17.5502L13.7035 21.9252C13.7946 21.9743 13.8964 22 13.9999 22C14.1033 22 14.2051 21.9743 14.2962 21.9252L22.4212 17.5502C22.5205 17.4967 22.6035 17.4173 22.6613 17.3204C22.7192 17.2236 22.7497 17.1129 22.7497 17C22.7497 16.8872 22.7192 16.7765 22.6613 16.6796C22.6035 16.5827 22.5205 16.5033 22.4212 16.4498ZM13.9999 8.33475L20.8065 11.9998L13.9999 15.665L7.19323 11.9998L13.9999 8.33475ZM13.9999 20.665L7.19323 16.9998L10.5178 15.2097L13.7035 16.9248C13.7946 16.9739 13.8964 16.9996 13.9999 16.9996C14.1033 16.9996 14.2051 16.9739 14.2962 16.9248L17.4819 15.2094L20.8065 16.9998L13.9999 20.665Z" fill="white"/>
</g>
<defs>
<clipPath id="clip0_35374_25628">
<rect width="20" height="20" fill="white" transform="translate(4 4.5)"/>
</clipPath>
</defs>
</svg>
