<svg width="24" height="25" viewBox="0 0 24 25" fill="none" xmlns="http://www.w3.org/2000/svg">
<path d="M22.1055 14.8401L17.7605 12.5001L22.1055 10.1601C22.2247 10.0959 22.3243 10.0006 22.3937 9.88436C22.4631 9.76811 22.4998 9.63524 22.4998 9.49985C22.4998 9.36446 22.4631 9.23159 22.3937 9.11534C22.3243 8.99909 22.2247 8.90381 22.1055 8.83959L12.3555 3.58959C12.2463 3.53063 12.1241 3.49976 12 3.49976C11.8758 3.49976 11.7536 3.53063 11.6444 3.58959L1.89438 8.83959C1.77519 8.90381 1.6756 8.99909 1.60619 9.11534C1.53677 9.23159 1.50012 9.36446 1.50012 9.49985C1.50012 9.63524 1.53677 9.76811 1.60619 9.88436C1.6756 10.0006 1.77519 10.0959 1.89438 10.1601L6.23943 12.5001L1.89438 14.8401C1.77519 14.9043 1.6756 14.9996 1.60619 15.1159C1.53677 15.2321 1.50012 15.365 1.50012 15.5004C1.50012 15.6358 1.53677 15.7686 1.60619 15.8849C1.6756 16.0011 1.77519 16.0964 1.89438 16.1606L11.6444 21.4106C11.7536 21.4695 11.8758 21.5003 12 21.5003C12.1241 21.5003 12.2463 21.4695 12.3555 21.4106L22.1055 16.1606C22.2247 16.0964 22.3243 16.0011 22.3937 15.8849C22.4631 15.7686 22.4998 15.6358 22.4998 15.5004C22.4998 15.365 22.4631 15.2321 22.3937 15.1159C22.3243 14.9996 22.2247 14.9043 22.1055 14.8401ZM12 5.10204L20.1679 9.50011L12 13.8983L3.832 9.50011L12 5.10204ZM12 19.8983L3.832 15.5001L7.82148 13.352L11.6444 15.4101C11.7536 15.469 11.8758 15.4998 12 15.4998C12.1241 15.4998 12.2463 15.469 12.3555 15.4101L16.1784 13.3517L20.1679 15.5001L12 19.8983Z" fill="currentColor"/>
</svg>
