<svg width="145" height="17" viewBox="0 0 145 17" fill="none" xmlns="http://www.w3.org/2000/svg">
<path d="M8.48783 10.5703H11.4794V12.9861C11.2478 13.1828 10.963 13.3426 10.6249 13.4696C10.2889 13.5967 9.92623 13.693 9.54307 13.7585C9.15786 13.8241 8.77675 13.8569 8.39973 13.8569C7.45719 13.8569 6.66218 13.6479 6.01675 13.2319C5.37131 12.816 4.8857 12.2115 4.55786 11.4206C4.23207 10.6297 4.06815 9.67281 4.06815 8.54791C4.06815 7.69962 4.16445 6.94559 4.35706 6.2899C4.54967 5.63422 4.82423 5.07894 5.1828 4.62611C5.54138 4.17328 5.97577 3.8311 6.48392 3.59751C6.99207 3.36597 7.56169 3.24918 8.19073 3.24918C8.662 3.24918 9.07385 3.31885 9.42628 3.45613C9.7787 3.59341 10.0758 3.77782 10.3176 4.00526C10.5594 4.2327 10.754 4.48473 10.8995 4.7552C11.045 5.02772 11.1413 5.29819 11.1925 5.56456H14.184C14.098 4.41097 13.7702 3.45203 13.2046 2.68775C12.6391 1.92347 11.9199 1.3477 11.045 0.962489C10.1701 0.577276 9.22752 0.386719 8.21122 0.386719C6.78307 0.386719 5.52294 0.708413 4.43082 1.3559C3.33871 2.00134 2.48632 2.92954 1.87367 4.1405C1.26102 5.35146 0.953674 6.80625 0.953674 8.50283C0.953674 10.1994 1.26717 11.6931 1.89417 12.9205C2.52116 14.1458 3.38993 15.0863 4.50049 15.7379C5.61104 16.3915 6.89371 16.7173 8.3526 16.7173C9.54921 16.7173 10.6372 16.5226 11.6167 16.1354C12.5961 15.7481 13.5058 15.2379 14.348 14.6068L14.3582 7.97009H8.48374V10.5703H8.48783ZM28.2566 3.46637H31.7644V16.5001H34.8215V3.46842H38.3909V0.683825H28.2545V3.46842L28.2566 3.46637ZM43.372 9.74453H48.9494V6.98042H43.372V3.46637H49.6235V0.681776H40.3682V16.5042H49.7751V13.6971H43.372V9.74658V9.74453ZM123.967 9.74453H129.545V6.98042H123.967V3.46637H130.219V0.681776H120.963V16.5042H130.37V13.6971H123.967V9.74658V9.74453ZM114.923 7.0255H110.807V0.683825H107.76V16.5042H110.807V9.74863H114.923V16.5042H117.97V0.683825H114.923V7.02755V7.0255ZM23.843 0.655138L28.6377 16.5042H25.4925L24.5622 13.1766H19.6631L18.7328 16.5042H15.7351L20.5503 0.655138H23.8451H23.843ZM23.8225 10.4371L22.1116 4.30032L20.4212 10.4371H23.8205H23.8225ZM76.996 0.655138L81.7907 16.5042H78.6455L77.7152 13.1766H72.8161L71.8858 16.5042H68.8882L73.7033 0.655138H76.9981H76.996ZM76.9756 10.4371L75.2646 4.30032L73.5742 10.4371H76.9735H76.9756ZM81.3829 3.47047H84.8867V16.5042H87.9479V3.46842H91.5173V0.683825H81.3809V3.46842L81.3829 3.47047ZM98.9367 13.9347C96.8426 13.9347 95.7505 12.1132 95.7505 8.56225C95.7505 5.01133 96.8426 3.21435 98.9592 3.21435C100.621 3.21435 101.576 4.37408 101.918 6.69561L105.241 6.05837C104.582 2.30254 102.418 0.390817 98.9592 0.390817C94.8387 0.390817 92.3123 3.48687 92.3123 8.56225C92.3123 13.6376 94.6563 16.7337 98.9367 16.7337C102.443 16.7337 104.627 14.822 105.287 10.976L101.963 10.3387C101.668 12.7525 100.666 13.9347 98.9367 13.9347ZM66.2224 0.683825L64.1837 11.8304L61.8724 0.683825H58.9956L56.7294 11.605L54.7132 0.683825H51.6315L54.8259 16.5431H57.9977L60.3992 5.44162L62.8006 16.5431H65.9499L69.3492 0.683825H66.2224ZM144.64 16.5042H141.005L137.448 10.3572H135.675V16.5042H132.651V0.683825H137.818C138.827 0.683825 139.716 0.849794 140.484 1.17968C141.253 1.50957 141.853 2.01158 142.285 2.6857C142.718 3.35983 142.933 4.22041 142.933 5.26335C142.933 6.01739 142.791 6.73454 142.509 7.41276C142.226 8.09098 141.787 8.65856 141.193 9.11548C140.921 9.32448 140.611 9.4925 140.267 9.62774L144.642 16.5021L144.64 16.5042ZM137.458 7.87584C138.032 7.87584 138.493 7.77953 138.839 7.58693C139.187 7.39432 139.437 7.1218 139.589 6.77142C139.742 6.41899 139.818 6.00509 139.818 5.52563C139.818 4.94576 139.714 4.50727 139.503 4.21016C139.292 3.91306 139.015 3.71021 138.671 3.59956C138.327 3.49096 137.935 3.43564 137.501 3.43564L135.673 3.42539V7.87584H137.458Z" fill="#FF1435"/>
</svg>
