<svg width="24" height="24" viewBox="0 0 24 24" fill="none" xmlns="http://www.w3.org/2000/svg">
<g clip-path="url(#clip0_7134_27955)">
<path d="M16.875 21.3L16.2 19.95C19.2 18.375 21.075 15.3 21.075 12C21.075 7.05 17.025 3 12.075 3C11.1 3 10.2 3.15 9.29998 3.45L8.84998 2.025C9.82498 1.65 10.875 1.5 12 1.5C17.775 1.5 22.5 6.225 22.5 12C22.5 15.9 20.325 19.5 16.875 21.3Z" fill="currentColor"/>
<path d="M15.375 17.85L14.625 16.575C16.275 15.675 17.25 13.875 17.25 12C17.25 9.075 14.925 6.75 12 6.75C11.55 6.75 11.1 6.825 10.65 6.9L10.275 5.475C10.875 5.325 11.4 5.25 12 5.25C15.75 5.25 18.75 8.25 18.75 12C18.75 14.4 17.475 16.65 15.375 17.85Z" fill="currentColor"/>
<path d="M7.125 21.2999C3.675 19.4999 1.5 15.8999 1.5 11.9999C1.5 10.8749 1.65 9.8249 2.025 8.7749L3.45 9.2249C3.15 10.1249 3 11.0249 3 11.9999C3 15.3749 4.875 18.4499 7.875 19.9499L7.125 21.2999Z" fill="currentColor"/>
<path d="M8.625 17.8501C6.525 16.6501 5.25 14.4001 5.25 12.0001C5.25 11.4001 5.325 10.8751 5.475 10.3501L6.9 10.7251C6.825 11.1001 6.75 11.5501 6.75 12.0001C6.75 13.8751 7.725 15.6001 9.375 16.5751L8.625 17.8501Z" fill="currentColor"/>
<path d="M15 12C15 10.35 13.65 9 12 9C11.475 9 10.95 9.15 10.5 9.45L6.675 5.625C6.75 5.475 6.75 5.4 6.75 5.25C6.75 4.425 6.075 3.75 5.25 3.75C4.425 3.75 3.75 4.425 3.75 5.25C3.75 6.075 4.425 6.75 5.25 6.75C5.4 6.75 5.475 6.75 5.625 6.675L9.45 10.5C9.15 10.95 9 11.475 9 12C9 13.425 9.975 14.55 11.25 14.925V20.475C10.8 20.7 10.5 21.225 10.5 21.75C10.5 22.575 11.175 23.25 12 23.25C12.825 23.25 13.5 22.575 13.5 21.75C13.5 21.225 13.2 20.7 12.75 20.475V14.925C14.025 14.55 15 13.425 15 12ZM12 13.5C11.175 13.5 10.5 12.825 10.5 12C10.5 11.175 11.175 10.5 12 10.5C12.825 10.5 13.5 11.175 13.5 12C13.5 12.825 12.825 13.5 12 13.5Z" fill="currentColor"/>
</g>
<defs>
<clipPath id="clip0_7134_27955">
<rect width="24" height="24" fill="white"/>
</clipPath>
</defs>
</svg>
