<svg width="32" height="32" viewBox="0 0 32 32" fill="none" xmlns="http://www.w3.org/2000/svg">
<g clip-path="url(#clip0_2994_522)">
<path d="M30 10H28V4H22V2H30V10Z" fill="currentColor"/>
<path d="M4 10H2V2H10V4H4V10Z" fill="currentColor"/>
<path d="M10 30H2V22H4V28H10V30Z" fill="currentColor"/>
<path d="M30 30H22V28H28V22H30V30Z" fill="currentColor"/>
<path d="M19.4422 18.2948H12.5578C11.6448 18.2948 10.7693 18.6575 10.1237 19.303C9.4782 19.9485 9.11554 20.8241 9.11554 21.737V24.0318H11.4104V21.737C11.4104 21.4327 11.5312 21.1409 11.7464 20.9257C11.9616 20.7105 12.2535 20.5896 12.5578 20.5896H19.4422C19.7465 20.5896 20.0384 20.7105 20.2536 20.9257C20.4687 21.1409 20.5896 21.4327 20.5896 21.737V24.0318H22.8845V21.737C22.8845 20.8241 22.5218 19.9485 21.8763 19.303C21.2307 18.6575 20.3552 18.2948 19.4422 18.2948Z" fill="currentColor"/>
<path d="M16 17.1474C16.9077 17.1474 17.7951 16.8782 18.5498 16.3739C19.3046 15.8696 19.8929 15.1528 20.2403 14.3142C20.5876 13.4755 20.6785 12.5527 20.5014 11.6624C20.3243 10.7721 19.8872 9.95429 19.2453 9.31242C18.6035 8.67054 17.7857 8.23342 16.8954 8.05633C16.0051 7.87924 15.0822 7.97013 14.2436 8.31751C13.405 8.66489 12.6881 9.25315 12.1838 10.0079C11.6795 10.7627 11.4103 11.65 11.4103 12.5578C11.4103 13.775 11.8939 14.9424 12.7546 15.8031C13.6153 16.6639 14.7827 17.1474 16 17.1474ZM16 10.263C16.4539 10.263 16.8975 10.3976 17.2749 10.6497C17.6523 10.9019 17.9464 11.2603 18.1201 11.6796C18.2938 12.0989 18.3393 12.5603 18.2507 13.0055C18.1622 13.4506 17.9436 13.8595 17.6227 14.1805C17.3017 14.5014 16.8928 14.72 16.4477 14.8085C16.0025 14.8971 15.5411 14.8516 15.1218 14.6779C14.7025 14.5042 14.3441 14.2101 14.0919 13.8327C13.8397 13.4553 13.7052 13.0117 13.7052 12.5578C13.7052 11.9492 13.9469 11.3655 14.3773 10.9351C14.8077 10.5047 15.3914 10.263 16 10.263Z" fill="currentColor"/>
</g>
<defs>
<clipPath id="clip0_2994_522">
<rect width="32" height="32" fill="white"/>
</clipPath>
</defs>
</svg>
