<svg width="32" height="32" viewBox="0 0 32 32" fill="none" xmlns="http://www.w3.org/2000/svg">
<g clip-path="url(#clip0_2994_518)">
<path d="M14 26H4V6H11.17L14.59 9.41L15.17 10H28V18H30V10C30 9.46957 29.7893 8.96086 29.4142 8.58579C29.0391 8.21071 28.5304 8 28 8H16L12.59 4.59C12.4039 4.40283 12.1827 4.25434 11.939 4.15308C11.6953 4.05182 11.4339 3.99979 11.17 4H4C3.46957 4 2.96086 4.21071 2.58579 4.58579C2.21071 4.96086 2 5.46957 2 6V26C2 26.5304 2.21071 27.0391 2.58579 27.4142C2.96086 27.7893 3.46957 28 4 28H14V26Z" fill="currentColor"/>
<path d="M30.4857 27.972L24.4184 16.8043C24.3584 16.6958 24.2705 16.6055 24.1638 16.5425C24.0571 16.4796 23.9354 16.4464 23.8115 16.4464C23.6876 16.4464 23.566 16.4796 23.4593 16.5425C23.3526 16.6055 23.2647 16.6958 23.2047 16.8043L17.1374 27.972C17.0797 28.0779 17.0505 28.1969 17.0527 28.3174C17.0549 28.4379 17.0884 28.5558 17.1499 28.6594C17.2114 28.7631 17.2988 28.849 17.4035 28.9087C17.5082 28.9684 17.6266 28.9999 17.7472 29H29.8759C29.9964 28.9999 30.1149 28.9684 30.2196 28.9087C30.3243 28.849 30.4117 28.7631 30.4732 28.6594C30.5347 28.5558 30.5681 28.4379 30.5703 28.3174C30.5725 28.1969 30.5434 28.0779 30.4857 27.972ZM23.0873 20.309H24.5358V24.1717H23.0873V20.309ZM23.8115 27.0687C23.6205 27.0687 23.4338 27.012 23.275 26.9059C23.1162 26.7998 22.9925 26.649 22.9194 26.4725C22.8463 26.2961 22.8272 26.1019 22.8644 25.9146C22.9017 25.7273 22.9937 25.5552 23.1287 25.4202C23.2638 25.2851 23.4358 25.1931 23.6231 25.1559C23.8105 25.1186 24.0046 25.1377 24.1811 25.2108C24.3575 25.2839 24.5083 25.4077 24.6145 25.5665C24.7206 25.7253 24.7772 25.912 24.7772 26.103C24.7772 26.3591 24.6755 26.6047 24.4944 26.7858C24.3133 26.9669 24.0676 27.0687 23.8115 27.0687Z" fill="currentColor"/>
</g>
<defs>
<clipPath id="clip0_2994_518">
<rect width="32" height="32" fill="white"/>
</clipPath>
</defs>
</svg>
