<svg width="33" height="32" viewBox="0 0 33 32" fill="none" xmlns="http://www.w3.org/2000/svg">
<g clip-path="url(#clip0_2994_539)">
<path d="M28.5 6H4.5C3.96975 6.00061 3.4614 6.21152 3.08646 6.58646C2.71152 6.9614 2.50061 7.46975 2.5 8V24C2.50061 24.5302 2.71152 25.0386 3.08646 25.4135C3.4614 25.7885 3.96975 25.9994 4.5 26H28.5C29.0302 25.9994 29.5386 25.7885 29.9135 25.4135C30.2885 25.0386 30.4994 24.5302 30.5 24V8C30.4994 7.46975 30.2885 6.9614 29.9135 6.58646C29.5386 6.21152 29.0302 6.00061 28.5 6ZM20.5 24H12.5V22C12.5 21.7348 12.6054 21.4804 12.7929 21.2929C12.9804 21.1054 13.2348 21 13.5 21H19.5C19.7652 21 20.0196 21.1054 20.2071 21.2929C20.3946 21.4804 20.5 21.7348 20.5 22V24ZM28.5 24H22.5V22C22.5 21.2044 22.1839 20.4413 21.6213 19.8787C21.0587 19.3161 20.2956 19 19.5 19H13.5C12.7044 19 11.9413 19.3161 11.3787 19.8787C10.8161 20.4413 10.5 21.2044 10.5 22V24H4.5V8H28.5V24Z" fill="currentColor"/>
<path d="M16.5 18C17.2911 18 18.0645 17.7654 18.7223 17.3259C19.3801 16.8864 19.8928 16.2616 20.1955 15.5307C20.4983 14.7998 20.5775 13.9956 20.4231 13.2196C20.2688 12.4437 19.8878 11.731 19.3284 11.1716C18.769 10.6122 18.0563 10.2312 17.2804 10.0769C16.5044 9.92252 15.7002 10.0017 14.9693 10.3045C14.2384 10.6072 13.6136 11.1199 13.1741 11.7777C12.7346 12.4355 12.5 13.2089 12.5 14C12.5 15.0609 12.9214 16.0783 13.6716 16.8284C14.4217 17.5786 15.4391 18 16.5 18ZM16.5 12C16.8956 12 17.2822 12.1173 17.6111 12.3371C17.94 12.5568 18.1964 12.8692 18.3478 13.2346C18.4991 13.6001 18.5387 14.0022 18.4616 14.3902C18.3844 14.7781 18.1939 15.1345 17.9142 15.4142C17.6345 15.6939 17.2781 15.8844 16.8902 15.9616C16.5022 16.0387 16.1001 15.9991 15.7346 15.8478C15.3692 15.6964 15.0568 15.44 14.8371 15.1111C14.6173 14.7822 14.5 14.3956 14.5 14C14.5 13.4696 14.7107 12.9609 15.0858 12.5858C15.4609 12.2107 15.9696 12 16.5 12Z" fill="currentColor"/>
</g>
<defs>
<clipPath id="clip0_2994_539">
<rect width="32" height="32" fill="white" transform="translate(0.5)"/>
</clipPath>
</defs>
</svg>
