<svg width="17" height="17" viewBox="0 0 17 17" fill="none" xmlns="http://www.w3.org/2000/svg">
<path d="M14.5 3.125V13.125H2.5V3.125H14.5ZM14.5 2.125H2.5C2.23478 2.125 1.98043 2.23036 1.79289 2.41789C1.60536 2.60543 1.5 2.85978 1.5 3.125V13.125C1.5 13.3902 1.60536 13.6446 1.79289 13.8321C1.98043 14.0196 2.23478 14.125 2.5 14.125H14.5C14.7652 14.125 15.0196 14.0196 15.2071 13.8321C15.3946 13.6446 15.5 13.3902 15.5 13.125V3.125C15.5 2.85978 15.3946 2.60543 15.2071 2.41789C15.0196 2.23036 14.7652 2.125 14.5 2.125Z" fill="currentColor"/>
<path d="M7 5.125H3.5V6.125H7V5.125Z" fill="currentColor"/>
<path d="M5.5 7.125H3.5V8.125H5.5V7.125Z" fill="currentColor"/>
<path d="M12 9.125H9C8.60218 9.125 8.22064 9.28304 7.93934 9.56434C7.65804 9.84564 7.5 10.2272 7.5 10.625V11.625H8.5V10.625C8.5 10.4924 8.55268 10.3652 8.64645 10.2714C8.74021 10.1777 8.86739 10.125 9 10.125H12C12.1326 10.125 12.2598 10.1777 12.3536 10.2714C12.4473 10.3652 12.5 10.4924 12.5 10.625V11.625H13.5V10.625C13.5 10.2272 13.342 9.84564 13.0607 9.56434C12.7794 9.28304 12.3978 9.125 12 9.125Z" fill="currentColor"/>
<path d="M10.5 8.625C10.8956 8.625 11.2822 8.5077 11.6111 8.28794C11.94 8.06818 12.1964 7.75582 12.3478 7.39037C12.4991 7.02492 12.5387 6.62278 12.4616 6.23482C12.3844 5.84686 12.1939 5.49049 11.9142 5.21079C11.6345 4.93108 11.2781 4.7406 10.8902 4.66343C10.5022 4.58626 10.1001 4.62587 9.73463 4.77724C9.36918 4.92862 9.05682 5.18496 8.83706 5.51386C8.6173 5.84276 8.5 6.22944 8.5 6.625C8.5 7.15543 8.71071 7.66414 9.08579 8.03921C9.46086 8.41429 9.96957 8.625 10.5 8.625ZM10.5 5.625C10.6978 5.625 10.8911 5.68365 11.0556 5.79353C11.22 5.90341 11.3482 6.05959 11.4239 6.24232C11.4996 6.42504 11.5194 6.62611 11.4808 6.82009C11.4422 7.01407 11.347 7.19225 11.2071 7.33211C11.0673 7.47196 10.8891 7.5672 10.6951 7.60579C10.5011 7.64437 10.3 7.62457 10.1173 7.54888C9.93459 7.47319 9.77841 7.34502 9.66853 7.18057C9.55865 7.01612 9.5 6.82278 9.5 6.625C9.5 6.35978 9.60536 6.10543 9.79289 5.91789C9.98043 5.73036 10.2348 5.625 10.5 5.625Z" fill="currentColor"/>
</svg>
