<svg width="24" height="25" viewBox="0 0 24 25" fill="none" xmlns="http://www.w3.org/2000/svg">
<path d="M14.2498 10.749C14.6948 10.749 15.1298 10.6171 15.4998 10.3698C15.8698 10.1226 16.1582 9.7712 16.3285 9.36006C16.4988 8.94893 16.5433 8.49653 16.4565 8.06007C16.3697 7.62361 16.1554 7.2227 15.8407 6.90803C15.5261 6.59337 15.1252 6.37907 14.6887 6.29226C14.2523 6.20544 13.7999 6.25 13.3887 6.4203C12.9776 6.59059 12.6262 6.87898 12.3789 7.24899C12.1317 7.619 11.9998 8.05402 11.9998 8.49902C11.9998 9.09576 12.2368 9.66806 12.6588 10.09C13.0807 10.512 13.653 10.749 14.2498 10.749ZM14.2498 7.74902C14.3981 7.74902 14.5431 7.79301 14.6664 7.87542C14.7898 7.95783 14.8859 8.07497 14.9427 8.21201C14.9994 8.34906 15.0143 8.49986 14.9853 8.64534C14.9564 8.79083 14.885 8.92447 14.7801 9.02935C14.6752 9.13424 14.5416 9.20567 14.3961 9.23461C14.2506 9.26355 14.0998 9.2487 13.9627 9.19193C13.8257 9.13517 13.7086 9.03904 13.6262 8.9157C13.5437 8.79237 13.4998 8.64736 13.4998 8.49902C13.4998 8.30011 13.5788 8.10935 13.7194 7.96869C13.8601 7.82804 14.0508 7.74902 14.2498 7.74902Z" fill="currentColor"/>
<path d="M19.4998 3.24902H4.49976C4.10193 3.24902 3.7204 3.40706 3.4391 3.68836C3.15779 3.96967 2.99976 4.3512 2.99976 4.74902V19.749C2.99976 20.1468 3.15779 20.5284 3.4391 20.8097C3.7204 21.091 4.10193 21.249 4.49976 21.249H19.4998C19.8976 21.249 20.2791 21.091 20.5604 20.8097C20.8417 20.5284 20.9998 20.1468 20.9998 19.749V4.74902C20.9998 4.3512 20.8417 3.96967 20.5604 3.68836C20.2791 3.40706 19.8976 3.24902 19.4998 3.24902ZM19.4998 19.749H4.49976V15.249L8.24976 11.499L12.4423 15.6915C12.7233 15.9709 13.1035 16.1277 13.4998 16.1277C13.896 16.1277 14.2762 15.9709 14.5573 15.6915L15.7498 14.499L19.4998 18.249V19.749ZM19.4998 16.1265L16.8073 13.434C16.5262 13.1546 16.146 12.9978 15.7498 12.9978C15.3535 12.9978 14.9733 13.1546 14.6923 13.434L13.4998 14.6265L9.30726 10.434C9.02621 10.1546 8.64603 9.99783 8.24976 9.99783C7.85348 9.99783 7.4733 10.1546 7.19226 10.434L4.49976 13.1265V4.74902H19.4998V16.1265Z" fill="currentColor"/>
</svg>
