<svg width="24" height="24" viewBox="0 0 24 24" fill="none" xmlns="http://www.w3.org/2000/svg">
<g clip-path="url(#clip0_6920_27849)">
<path d="M16.5 19.4153C17.3284 19.4153 18 18.7437 18 17.9153C18 17.0869 17.3284 16.4153 16.5 16.4153C15.6716 16.4153 15 17.0869 15 17.9153C15 18.7437 15.6716 19.4153 16.5 19.4153Z" fill="currentColor"/>
<path d="M22.3327 17.6089C21.8692 16.4284 21.0695 15.4098 20.0327 14.6794C18.9959 13.9491 17.7676 13.539 16.5 13.5C15.2324 13.539 14.0041 13.9491 12.9673 14.6794C11.9305 15.4098 11.1308 16.4284 10.6673 17.6089L10.5 18L10.6673 18.3911C11.1308 19.5716 11.9305 20.5902 12.9673 21.3206C14.0041 22.0509 15.2324 22.461 16.5 22.5C17.7676 22.461 18.9959 22.0509 20.0327 21.3206C21.0695 20.5902 21.8692 19.5716 22.3327 18.3911L22.5 18L22.3327 17.6089ZM16.5 21C15.9067 21 15.3266 20.8241 14.8333 20.4944C14.3399 20.1648 13.9554 19.6962 13.7284 19.148C13.5013 18.5999 13.4419 17.9967 13.5576 17.4147C13.6734 16.8328 13.9591 16.2982 14.3787 15.8787C14.7982 15.4591 15.3328 15.1734 15.9147 15.0576C16.4967 14.9419 17.0999 15.0013 17.648 15.2284C18.1962 15.4554 18.6648 15.8399 18.9944 16.3333C19.3241 16.8266 19.5 17.4067 19.5 18C19.4991 18.7954 19.1827 19.5579 18.6203 20.1203C18.0579 20.6827 17.2954 20.9991 16.5 21Z" fill="currentColor"/>
<path d="M18.75 7.5H3C2.6023 7.49958 2.22101 7.34141 1.9398 7.0602C1.65859 6.77899 1.50042 6.3977 1.5 6V3C1.50042 2.6023 1.65859 2.22101 1.9398 1.9398C2.22101 1.65859 2.6023 1.50042 3 1.5H18.75C19.1477 1.50042 19.529 1.65859 19.8102 1.9398C20.0914 2.22101 20.2496 2.6023 20.25 3V6C20.2496 6.3977 20.0914 6.77899 19.8102 7.0602C19.529 7.34141 19.1477 7.49958 18.75 7.5ZM3 3V6H18.75V3H3Z" fill="currentColor"/>
<path d="M9 21H3V18H9V16.5H3C2.60232 16.5005 2.22105 16.6586 1.93984 16.9398C1.65864 17.221 1.50046 17.6023 1.5 18V21C1.50046 21.3977 1.65864 21.779 1.93984 22.0602C2.22105 22.3414 2.60232 22.4995 3 22.5H9V21Z" fill="currentColor"/>
<path d="M21 9H5.25C4.85232 9.00046 4.47105 9.15864 4.18984 9.43984C3.90864 9.72105 3.75046 10.1023 3.75 10.5V13.5C3.75046 13.8977 3.90864 14.279 4.18984 14.5602C4.47105 14.8414 4.85232 14.9995 5.25 15H9V13.5H5.25V10.5H21L21.0005 12H22.5V10.5C22.4995 10.1023 22.3414 9.72105 22.0602 9.43984C21.7789 9.15864 21.3977 9.00046 21 9Z" fill="currentColor"/>
</g>
<defs>
<clipPath id="clip0_6920_27849">
<rect width="24" height="24" fill="white"/>
</clipPath>
</defs>
</svg>
