<svg width="24" height="25" viewBox="0 0 24 25" fill="none" xmlns="http://www.w3.org/2000/svg">
<g clip-path="url(#clip0_7551_33237)">
<path d="M22.5 14.8787H19.5V11.8787H18V18.6287H6V6.62866L12.75 6.62799V5.12866H9.75V2.12866H8.25V5.12866H6C5.6023 5.12906 5.221 5.28722 4.93978 5.56844C4.65856 5.84966 4.5004 6.23096 4.5 6.62866V8.87866H1.5V10.3787H4.5V14.8787H1.5V16.3787H4.5V18.6287C4.50046 19.0263 4.65864 19.4076 4.93984 19.6888C5.22105 19.97 5.60232 20.1282 6 20.1287H8.25V23.1287H9.75V20.1287H14.25V23.1287H15.75V20.1287H18C18.3977 20.1281 18.7789 19.9699 19.0601 19.6887C19.3413 19.4075 19.4995 19.0263 19.5 18.6287V16.3787H22.5V14.8787Z" fill="currentColor"/>
<path d="M19.5 2.12866C18.7046 2.1295 17.942 2.44583 17.3796 3.00826C16.8172 3.57069 16.5008 4.33327 16.5 5.12866C16.5029 5.66252 16.6497 6.18571 16.9251 6.64306L14.6894 8.87866H8.25V16.3787H15.75V9.93924L17.9856 7.70364C18.443 7.979 18.9662 8.12584 19.5 8.12866C20.2956 8.12866 21.0587 7.81259 21.6213 7.24998C22.1839 6.68737 22.5 5.92431 22.5 5.12866C22.5 4.33301 22.1839 3.56995 21.6213 3.00734C21.0587 2.44473 20.2956 2.12866 19.5 2.12866ZM14.25 14.8787H9.75V10.3787H14.25V14.8787ZM19.5 6.62866C19.2033 6.62866 18.9133 6.54069 18.6666 6.37587C18.42 6.21104 18.2277 5.97678 18.1142 5.70269C18.0006 5.4286 17.9709 5.127 18.0288 4.83603C18.0867 4.54506 18.2296 4.27778 18.4393 4.068C18.6491 3.85822 18.9164 3.71536 19.2074 3.65748C19.4983 3.59961 19.7999 3.62931 20.074 3.74284C20.3481 3.85637 20.5824 4.04863 20.7472 4.29531C20.912 4.54198 21 4.83199 21 5.12866C20.9995 5.52635 20.8414 5.90761 20.5602 6.18882C20.279 6.47002 19.8977 6.62821 19.5 6.62866Z" fill="currentColor"/>
</g>
<defs>
<clipPath id="clip0_7551_33237">
<rect width="24" height="24" fill="white" transform="translate(0 0.628662)"/>
</clipPath>
</defs>
</svg>
