<svg width="24" height="24" viewBox="0 0 24 24" fill="none" xmlns="http://www.w3.org/2000/svg">
<g clip-path="url(#clip0_2992_32871)">
<path d="M15 1.5V9H16.5V1.5H15Z" fill="currentColor"/>
<path d="M18 1.5V9H19.5V1.5H18Z" fill="currentColor"/>
<path d="M21 1.5V9H22.5V1.5H21Z" fill="currentColor"/>
<path d="M12 15C11.6036 15.009 11.2094 14.9375 10.8414 14.79C10.4734 14.6424 10.139 14.4217 9.85866 14.1413C9.57827 13.861 9.35763 13.5266 9.21005 13.1586C9.06246 12.7906 8.99101 12.3964 9 12C8.99101 11.6036 9.06246 11.2094 9.21005 10.8414C9.35763 10.4734 9.57827 10.139 9.85866 9.85866C10.139 9.57827 10.4734 9.35763 10.8414 9.21004C11.2094 9.06246 11.6036 8.99101 12 9V7.5C11.11 7.5 10.24 7.76392 9.49994 8.25839C8.75991 8.75285 8.18314 9.45566 7.84254 10.2779C7.50195 11.1002 7.41283 12.005 7.58647 12.8779C7.7601 13.7508 8.18869 14.5526 8.81802 15.182C9.44736 15.8113 10.2492 16.2399 11.1221 16.4135C11.995 16.5872 12.8998 16.4981 13.7221 16.1575C14.5443 15.8169 15.2471 15.2401 15.7416 14.5001C16.2361 13.76 16.5 12.89 16.5 12H15C15.009 12.3964 14.9375 12.7906 14.79 13.1586C14.6424 13.5266 14.4217 13.861 14.1413 14.1413C13.861 14.4217 13.5266 14.6424 13.1586 14.79C12.7906 14.9375 12.3964 15.009 12 15Z" fill="currentColor"/>
<path d="M21.6696 13.8402L19.5734 12L18.585 13.1283L20.6792 14.9671L18.9092 18.0329L16.3387 17.1636C15.7336 17.6703 15.0447 18.0674 14.303 18.3369L13.77 21H10.23L9.69751 18.3369C8.96097 18.0634 8.27722 17.6647 7.67641 17.1584L5.09131 18.0329L3.32131 14.9671L5.36461 13.1708C5.2248 12.3952 5.22302 11.601 5.35936 10.8248L3.32064 9.03292L5.09146 5.96707L7.66149 6.8364C8.26648 6.3297 8.95536 5.93262 9.69706 5.6631L10.23 3H12V1.5H10.23C9.88324 1.50002 9.54719 1.62018 9.27903 1.84004C9.01087 2.0599 8.82717 2.36588 8.75919 2.70592L8.38141 4.59488C8.03692 4.75991 7.70434 4.94874 7.38609 5.16L5.57154 4.54612C5.24309 4.4347 4.88616 4.44068 4.56163 4.56303C4.2371 4.68539 3.96507 4.91655 3.79194 5.21707L2.02149 8.28292C1.84816 8.58328 1.78422 8.9344 1.84054 9.27657C1.89686 9.61874 2.06996 9.93084 2.33041 10.1598L3.77859 11.4324C3.76576 11.621 3.75001 11.8084 3.75001 12C3.75001 12.1933 3.75751 12.3845 3.77086 12.5742L2.33041 13.8402C2.06996 14.0692 1.89686 14.3813 1.84054 14.7234C1.78422 15.0656 1.84816 15.4167 2.02149 15.7171L3.79194 18.7829C3.96507 19.0835 4.2371 19.3146 4.56163 19.437C4.88616 19.5593 5.24309 19.5653 5.57154 19.4539L7.39711 18.8364C7.71161 19.0484 8.0404 19.2385 8.38111 19.4051L8.75889 21.2941C8.82688 21.6342 9.01062 21.9402 9.27885 22.1601C9.54707 22.3799 9.88319 22.5001 10.23 22.5H13.77C14.1168 22.5 14.4528 22.3798 14.721 22.16C14.9892 21.9401 15.1729 21.6341 15.2408 21.2941L15.6186 19.4051C15.963 19.2401 16.2955 19.0513 16.6136 18.8401L18.4282 19.4539C18.7566 19.5653 19.1136 19.5593 19.4381 19.437C19.7626 19.3146 20.0347 19.0835 20.2078 18.7829L21.9782 15.7171C22.1516 15.4168 22.2156 15.0657 22.1593 14.7235C22.1031 14.3813 21.93 14.0692 21.6696 13.8402Z" fill="currentColor"/>
</g>
<defs>
<clipPath id="clip0_2992_32871">
<rect width="24" height="24" fill="currentColor"/>
</clipPath>
</defs>
</svg>
