<svg width="24" height="24" viewBox="0 0 24 24" fill="none" xmlns="http://www.w3.org/2000/svg">
<g clip-path="url(#clip0_7118_27885)">
<path d="M10.5 10.5H6V12H10.5V10.5Z" fill="currentColor"/>
<path d="M15 4.5H6V6H15V4.5Z" fill="currentColor"/>
<path d="M15 7.5H6V9H15V7.5Z" fill="currentColor"/>
<path d="M10.5 18H6V19.5H10.5V18Z" fill="currentColor"/>
<path d="M22.5 18V16.5H20.9242C20.8275 16.0305 20.6411 15.5842 20.3752 15.1853L21.4928 14.0678L20.4323 13.0073L19.3148 14.1248C18.9159 13.859 18.4695 13.6725 18 13.5758V12H16.5V13.5758C16.0305 13.6725 15.5842 13.8589 15.1853 14.1248L14.0678 13.0073L13.0073 14.0677L14.1248 15.1852C13.859 15.5841 13.6725 16.0305 13.5758 16.5H12V18H13.5758C13.6725 18.4695 13.8589 18.9158 14.1248 19.3147L13.0073 20.4322L14.0677 21.4927L15.1852 20.3752C15.5841 20.641 16.0305 20.8275 16.5 20.9242V22.5H18V20.9242C18.4695 20.8275 18.9158 20.6411 19.3147 20.3752L20.4322 21.4928L21.4927 20.4323L20.3752 19.3148C20.641 18.9159 20.8275 18.4695 20.9242 18H22.5ZM17.25 19.5C16.805 19.5 16.37 19.368 16 19.1208C15.63 18.8736 15.3416 18.5222 15.1713 18.111C15.001 17.6999 14.9564 17.2475 15.0432 16.811C15.13 16.3746 15.3443 15.9737 15.659 15.659C15.9737 15.3443 16.3746 15.13 16.811 15.0432C17.2475 14.9564 17.6999 15.001 18.111 15.1713C18.5222 15.3416 18.8736 15.63 19.1208 16C19.368 16.37 19.5 16.805 19.5 17.25C19.4993 17.8465 19.2621 18.4185 18.8403 18.8403C18.4185 19.2621 17.8465 19.4993 17.25 19.5Z" fill="currentColor"/>
<path d="M10.5 22.5H4.5C4.1023 22.4996 3.72101 22.3414 3.4398 22.0602C3.15859 21.779 3.00042 21.3977 3 21V3C3.00042 2.6023 3.15859 2.22101 3.4398 1.9398C3.72101 1.65859 4.1023 1.50042 4.5 1.5H16.5C16.8977 1.50042 17.279 1.65859 17.5602 1.9398C17.8414 2.22101 17.9996 2.6023 18 3V10.5H16.5V3H4.5V21H10.5V22.5Z" fill="currentColor"/>
</g>
<defs>
<clipPath id="clip0_7118_27885">
<rect width="24" height="24" fill="white"/>
</clipPath>
</defs>
</svg>
