<svg width="24" height="24" viewBox="0 0 24 24" fill="none" xmlns="http://www.w3.org/2000/svg">
<path d="M21.9375 5.07001C21.5194 4.65049 21.0227 4.31762 20.4757 4.0905C19.9287 3.86337 19.3423 3.74646 18.75 3.74646C18.1577 3.74646 17.5713 3.86337 17.0243 4.0905C16.4773 4.31762 15.9806 4.65049 15.5625 5.07001L16.6275 6.13501C16.9067 5.85579 17.2382 5.63429 17.603 5.48318C17.9679 5.33206 18.3589 5.25429 18.7538 5.25429C19.1486 5.25429 19.5396 5.33206 19.9045 5.48318C20.2693 5.63429 20.6008 5.85579 20.88 6.13501C21.1592 6.41423 21.3807 6.74572 21.5318 7.11054C21.6829 7.47536 21.7607 7.86638 21.7607 8.26126C21.7607 8.65614 21.6829 9.04715 21.5318 9.41198C21.3807 9.7768 21.1592 10.1083 20.88 10.3875L14.88 16.3875C14.3171 16.9514 13.5532 17.2686 12.7564 17.2693C11.9596 17.27 11.1952 16.9542 10.6313 16.3913C10.0673 15.8283 9.75013 15.0645 9.74943 14.2677C9.74873 13.4709 10.0646 12.7064 10.6275 12.1425L11.685 11.0775L10.6275 10.0125L9.5625 11.0775C9.14298 11.4956 8.81012 11.9923 8.58299 12.5393C8.35587 13.0863 8.23895 13.6727 8.23895 14.265C8.23895 14.8573 8.35587 15.4437 8.58299 15.9907C8.81012 16.5377 9.14298 17.0344 9.5625 17.4525C10.4111 18.2903 11.5576 18.7569 12.75 18.75C13.3445 18.7525 13.9337 18.6371 14.4833 18.4105C15.033 18.1839 15.5324 17.8507 15.9525 17.43L21.9525 11.43C22.7932 10.5843 23.2639 9.43941 23.261 8.2469C23.2582 7.0544 22.7822 5.91177 21.9375 5.07001Z" fill="currentColor"/>
<path d="M3.14248 18.6151C2.86242 18.3364 2.64019 18.005 2.48856 17.6401C2.33692 17.2752 2.25886 16.884 2.25886 16.4889C2.25886 16.0937 2.33692 15.7025 2.48856 15.3376C2.64019 14.9727 2.86242 14.6414 3.14248 14.3626L9.14248 8.36261C9.42123 8.08256 9.75257 7.86033 10.1175 7.70869C10.4823 7.55705 10.8736 7.47899 11.2687 7.47899C11.6639 7.47899 12.0551 7.55705 12.42 7.70869C12.7849 7.86033 13.1162 8.08256 13.395 8.36261C13.6733 8.64356 13.8923 8.97751 14.0392 9.34467C14.1861 9.71184 14.2577 10.1047 14.25 10.5001C14.2523 10.8967 14.1759 11.2898 14.0253 11.6567C13.8746 12.0236 13.6528 12.357 13.3725 12.6376L11.7825 14.2501L12.8475 15.3151L14.4375 13.7251C15.2838 12.8787 15.7593 11.7308 15.7593 10.5339C15.7593 9.33691 15.2838 8.18898 14.4375 7.34261C13.5911 6.49624 12.4432 6.02075 11.2462 6.02075C10.0493 6.02075 8.90135 6.49624 8.05498 7.34261L2.05498 13.3426C1.63433 13.7608 1.30051 14.258 1.07272 14.8057C0.844929 15.3534 0.727661 15.9407 0.727661 16.5339C0.727661 17.127 0.844929 17.7143 1.07272 18.262C1.30051 18.8097 1.63433 19.3069 2.05498 19.7251C2.90909 20.5565 4.05815 21.015 5.24998 21.0001C6.4523 21.0013 7.60627 20.5267 8.45998 19.6801L7.39498 18.6151C7.11622 18.8952 6.78489 19.1174 6.42 19.269C6.05512 19.4207 5.66387 19.4987 5.26873 19.4987C4.87359 19.4987 4.48234 19.4207 4.11745 19.269C3.75257 19.1174 3.42123 18.8952 3.14248 18.6151Z" fill="currentColor"/>
</svg>
