<svg width="24" height="25" viewBox="0 0 24 25" fill="none" xmlns="http://www.w3.org/2000/svg">
<path d="M5.24982 9.24902C6.49246 9.24902 7.49982 8.24166 7.49982 6.99902C7.49982 5.75638 6.49246 4.74902 5.24982 4.74902C4.00718 4.74902 2.99982 5.75638 2.99982 6.99902C2.99982 8.24166 4.00718 9.24902 5.24982 9.24902Z" fill="currentColor"/>
<path d="M5.24982 19.749C6.49246 19.749 7.49982 18.7417 7.49982 17.499C7.49982 16.2564 6.49246 15.249 5.24982 15.249C4.00718 15.249 2.99982 16.2564 2.99982 17.499C2.99982 18.7417 4.00718 19.749 5.24982 19.749Z" fill="currentColor"/>
<path d="M22.4998 16.749H11.9998V18.249H22.4998V16.749Z" fill="currentColor"/>
<path d="M22.4998 6.24902H11.9998V7.74902H22.4998V6.24902Z" fill="currentColor"/>
</svg>
