<svg width="24" height="25" viewBox="0 0 24 25" fill="none" xmlns="http://www.w3.org/2000/svg">
<path d="M22.4998 16.749H11.9998V18.249H22.4998V16.749Z" fill="currentColor"/>
<path d="M22.4998 6.24902H11.9998V7.74902H22.4998V6.24902Z" fill="currentColor"/>
<path d="M5.99982 9.24902V3.24902H4.49982V3.99902H2.99982V5.49902H4.49982V9.24902H2.99982V10.749H4.49982H5.99982H7.49982V9.24902H5.99982Z" fill="currentColor"/>
<path d="M7.49982 21.249H2.99982V18.249C2.99982 17.8512 3.15785 17.4697 3.43916 17.1884C3.72046 16.9071 4.10199 16.749 4.49982 16.749H5.99982V15.249H2.99982V13.749H5.99982C6.39764 13.749 6.77917 13.9071 7.06048 14.1884C7.34178 14.4697 7.49982 14.8512 7.49982 15.249V16.749C7.49982 17.1468 7.34178 17.5284 7.06048 17.8097C6.77917 18.091 6.39764 18.249 5.99982 18.249H4.49982V19.749H7.49982V21.249Z" fill="currentColor"/>
</svg>
