<svg width="23" height="23" viewBox="0 0 23 23" fill="none" xmlns="http://www.w3.org/2000/svg">
<g clip-path="url(#clip0_2721_31368)">
<path d="M21.3862 5.70288H11.406V7.12862H21.3862V5.70288Z" fill="currentColor"/>
<path d="M21.3862 15.6831H11.406V17.1088H21.3862V15.6831Z" fill="currentColor"/>
<path d="M7.12876 9.98028H2.85153C2.47353 9.97984 2.11114 9.82949 1.84385 9.56221C1.57657 9.29492 1.42622 8.93253 1.42578 8.55453V4.27731C1.42622 3.89931 1.57657 3.53692 1.84385 3.26963C2.11114 3.00235 2.47353 2.852 2.85153 2.85156H7.12876C7.50676 2.852 7.86915 3.00235 8.13644 3.26963C8.40372 3.53692 8.55407 3.89931 8.55451 4.27731V8.55453C8.55407 8.93253 8.40372 9.29492 8.13644 9.56221C7.86915 9.82949 7.50676 9.97984 7.12876 9.98028ZM2.85153 4.27731V8.55453H7.12962L7.12876 4.27731H2.85153Z" fill="currentColor"/>
<path d="M7.12876 19.9605H2.85153C2.47353 19.9601 2.11114 19.8097 1.84385 19.5424C1.57657 19.2751 1.42622 18.9128 1.42578 18.5348V14.2575C1.42622 13.8795 1.57657 13.5171 1.84385 13.2499C2.11114 12.9826 2.47353 12.8322 2.85153 12.8318H7.12876C7.50676 12.8322 7.86915 12.9826 8.13644 13.2499C8.40372 13.5171 8.55407 13.8795 8.55451 14.2575V18.5348C8.55407 18.9128 8.40372 19.2751 8.13644 19.5424C7.86915 19.8097 7.50676 19.9601 7.12876 19.9605ZM2.85153 14.2575V18.5348H7.12962L7.12876 14.2575H2.85153Z" fill="currentColor"/>
</g>
<defs>
<clipPath id="clip0_2721_31368">
<rect width="22.8119" height="22.8119" fill="currentColor"/>
</clipPath>
</defs>
</svg>
