<svg width="24" height="25" viewBox="0 0 24 25" fill="none" xmlns="http://www.w3.org/2000/svg">
<path d="M16.749 3.24902H21.249C21.6467 3.24944 22.028 3.40761 22.3092 3.68882C22.5904 3.97004 22.7486 4.35133 22.749 4.74902V19.749C22.7486 20.1467 22.5904 20.528 22.3092 20.8092C22.028 21.0904 21.6467 21.2486 21.249 21.249H16.749C16.3513 21.2486 15.97 21.0904 15.6888 20.8092C15.4076 20.528 15.2494 20.1467 15.249 19.749V4.74902C15.2494 4.35133 15.4076 3.97004 15.6888 3.68882C15.97 3.40761 16.3513 3.24944 16.749 3.24902ZM21.249 19.749V4.74902H16.749V19.749H21.249Z" fill="currentColor"/>
<path d="M2.7511 3.24902H7.2511C7.6488 3.24944 8.03008 3.40761 8.3113 3.68882C8.59251 3.97004 8.75068 4.35133 8.7511 4.74902V19.749C8.75068 20.1467 8.59251 20.528 8.3113 20.8092C8.03008 21.0904 7.6488 21.2486 7.2511 21.249H2.7511C2.3534 21.2486 1.97211 21.0904 1.6909 20.8092C1.40968 20.528 1.25152 20.1467 1.2511 19.749V4.74902C1.25152 4.35133 1.40968 3.97004 1.6909 3.68882C1.97211 3.40761 2.3534 3.24944 2.7511 3.24902ZM7.2511 19.749V4.74902H2.7511V19.749H7.2511Z" fill="currentColor"/>
<path d="M11.2511 21.249H12.749V3.24902H11.2511V21.249Z" fill="currentColor"/>
</svg>
