<svg width="24" height="24" viewBox="0 0 24 24" fill="none" xmlns="http://www.w3.org/2000/svg">
<path d="M17.5 10.7566H16V6.25659C16 5.06312 15.5259 3.91852 14.682 3.07461C13.8381 2.2307 12.6935 1.75659 11.5 1.75659C10.3065 1.75659 9.16193 2.2307 8.31802 3.07461C7.47411 3.91852 7 5.06312 7 6.25659V10.7566H5.5C5.10218 10.7566 4.72064 10.9146 4.43934 11.1959C4.15804 11.4772 4 11.8588 4 12.2566V21.2566C4 21.6544 4.15804 22.0359 4.43934 22.3173C4.72064 22.5986 5.10218 22.7566 5.5 22.7566H17.5C17.8978 22.7566 18.2794 22.5986 18.5607 22.3173C18.842 22.0359 19 21.6544 19 21.2566V12.2566C19 11.8588 18.842 11.4772 18.5607 11.1959C18.2794 10.9146 17.8978 10.7566 17.5 10.7566ZM8.5 6.25659C8.5 5.46094 8.81607 4.69788 9.37868 4.13527C9.94129 3.57266 10.7044 3.25659 11.5 3.25659C12.2956 3.25659 13.0587 3.57266 13.6213 4.13527C14.1839 4.69788 14.5 5.46094 14.5 6.25659V10.7566H8.5V6.25659ZM17.5 21.2566H5.5V12.2566H17.5V21.2566Z" fill="currentColor"/>
</svg>
