<svg width="24" height="24" viewBox="0 0 24 24" fill="none" xmlns="http://www.w3.org/2000/svg">
<path id="Vector" d="M12 21.8053C14.9242 21.8053 17.5472 20.5246 19.3443 18.4938L21.2398 19.6578C19.039 22.3115 15.7173 24 12 24C7.67831 24 3.89141 21.7152 1.77665 18.2869L3.6496 17.1373C5.37707 19.9365 8.46929 21.8033 12 21.8033M12 2.19467C14.9242 2.19467 17.5472 3.47541 19.3443 5.50615L21.2398 4.34221C19.039 1.69057 15.7173 0 12 0C7.67831 0 3.89141 2.28483 1.77869 5.71311L3.65165 6.8627C5.37912 4.06352 8.47134 2.19672 12.0021 2.19672M21.8075 12.002C21.8075 13.8791 21.2788 15.6352 20.3628 17.125L22.2357 18.2746C23.3566 16.4488 24.0042 14.3012 24.0042 12.002C24.0042 9.70286 23.3566 7.55532 22.2357 5.72951L20.3628 6.8791C21.2788 8.3709 21.8075 10.125 21.8075 12.002ZM19.0595 7.74795L17.2296 8.8709C17.7788 9.78688 18.0943 10.8566 18.0943 12.002C18.0943 13.1475 17.7583 14.2848 17.1763 15.2193L19.0062 16.3422C19.789 15.082 20.2419 13.5943 20.2419 12.002C20.2419 10.4098 19.8095 8.98975 19.0595 7.74795ZM0.991807 7.22336C0.354509 8.68852 0 10.3033 0 12C0 13.6967 0.354509 15.3135 0.991807 16.7766L8.80331 12.0041L0.991807 7.22336ZM12.0021 7.47131C10.3668 7.47131 8.93651 8.34221 8.14142 9.64139L12.0021 12.0041L8.14347 14.3606C8.93856 15.6578 10.3668 16.5266 12.0021 16.5266C14.5021 16.5266 16.5308 14.4979 16.5308 11.9979C16.5308 9.49795 14.5041 7.46926 12.0021 7.46926" fill="#FF1435"/>
</svg>
