<svg width="148" height="148" viewBox="0 0 148 148" fill="none" xmlns="http://www.w3.org/2000/svg">
<g clip-path="url(#clip0_52776_55705)">
<path d="M73.8999 134.2C91.8999 134.2 108.1 126.3 119.1 113.8L130.8 121C117.2 137.3 96.7999 147.7 73.8999 147.7C47.2999 147.7 23.9999 133.6 10.8999 112.5L22.3999 105.4C33.1999 122.7 52.1999 134.2 73.8999 134.2Z" fill="white"/>
<path d="M73.8999 13.5C91.8999 13.5 108.1 21.4 119.1 33.9L130.8 26.7C117.2 10.4 96.7999 0 73.8999 0C47.2999 0 23.9999 14.1 10.8999 35.2L22.3999 42.3C33.1999 25 52.1999 13.5 73.8999 13.5Z" fill="white"/>
<path d="M134.3 73.7992C134.3 85.3992 131 96.1992 125.4 105.299L136.9 112.399C143.8 101.199 147.8 87.8992 147.8 73.7992C147.8 59.6992 143.8 46.3992 136.9 35.1992L125.4 42.2992C131.1 51.4992 134.3 62.2992 134.3 73.7992Z" fill="white"/>
<path d="M117.4 47.5996L106.1 54.4996C109.5 60.0996 111.4 66.6996 111.4 73.7996C111.4 80.8996 109.3 87.8996 105.7 93.5996L117 100.5C121.8 92.6996 124.6 83.5996 124.6 73.7996C124.7 64.1996 122 55.2996 117.4 47.5996Z" fill="white"/>
<path d="M6.1 44.4004C2.2 53.4004 0 63.4004 0 73.8004C0 84.2004 2.2 94.2004 6.1 103.2L54.2 73.8004L6.1 44.4004Z" fill="white"/>
<path d="M73.9001 45.9004C63.8001 45.9004 55.0001 51.3004 50.1001 59.3004L73.9001 73.8004L50.1001 88.3004C55.0001 96.3004 63.8001 101.6 73.9001 101.6C89.3001 101.6 101.8 89.1004 101.8 73.7004C101.8 58.4004 89.3001 45.9004 73.9001 45.9004Z" fill="white"/>
</g>
<defs>
<clipPath id="clip0_52776_55705">
<rect width="147.8" height="147.7" fill="white"/>
</clipPath>
</defs>
</svg>
