<svg width="32" height="32" viewBox="0 0 32 32" fill="none" xmlns="http://www.w3.org/2000/svg">
<g clip-path="url(#clip0_31839_120)">
<path d="M29.4141 24.0001L12 6.58597C11.619 6.22224 11.1126 6.01929 10.5859 6.01929C10.0592 6.01929 9.55278 6.22224 9.17185 6.58597L6.58585 9.17197C6.21139 9.5473 6.0011 10.0558 6.0011 10.586C6.0011 11.1162 6.21139 11.6247 6.58585 12.0001L23.999 29.4142C24.3743 29.7886 24.8828 29.9988 25.413 29.9988C25.9432 29.9988 26.4517 29.7886 26.8271 29.4142L29.4141 26.8277C29.5998 26.642 29.7472 26.4216 29.8477 26.1789C29.9482 25.9363 30 25.6762 30 25.4136C30 25.151 29.9482 24.8909 29.8477 24.6483C29.7472 24.4057 29.5998 24.1857 29.4141 24.0001ZM7.99995 10.586L10.5859 8.00007L15.5859 13.0001L12.9993 15.587L7.99925 10.587L7.99995 10.586ZM25.4131 28.0001L14.4131 17.0011L17 14.4142L28 25.4142L25.4131 28.0001Z" fill="currentColor"/>
<path d="M3.99998 14L2 16L3.99998 18L5.99996 16L3.99998 14Z" fill="currentColor"/>
<path d="M16 2.00002L14 4L16 5.99998L18 4L16 2.00002Z" fill="currentColor"/>
<path d="M3.99998 2.00002L2 4L3.99998 5.99998L5.99996 4L3.99998 2.00002Z" fill="currentColor"/>
</g>
<defs>
<clipPath id="clip0_31839_120">
<rect width="32" height="32" fill="white"/>
</clipPath>
</defs>
</svg>
