<svg width="28" height="29" viewBox="0 0 28 29" fill="none" xmlns="http://www.w3.org/2000/svg">
<rect y="0.5" width="28" height="28" rx="14" fill="currentColor"/>
<g clip-path="url(#clip0_35374_25613)">
<path d="M11.5624 5.75004C10.3638 5.74596 9.19035 6.09365 8.18743 6.75004L12.1874 10.75C12.3206 10.8637 12.4298 11.0029 12.5084 11.1594C12.587 11.3158 12.6335 11.4865 12.6451 11.6612C12.6568 11.8359 12.6333 12.0112 12.5762 12.1767C12.5191 12.3423 12.4294 12.4947 12.3124 12.625C12.1821 12.742 12.0297 12.8317 11.8641 12.8888C11.6986 12.9459 11.5233 12.9694 11.3486 12.9577C11.1739 12.9461 11.0032 12.8996 10.8467 12.821C10.6903 12.7424 10.5511 12.6333 10.4374 12.5L6.31243 8.50004C5.59924 9.5495 5.22811 10.7939 5.24993 12.0625C5.25652 13.7347 5.9237 15.3365 7.10609 16.5189C8.28849 17.7013 9.89028 18.3685 11.5624 18.375C12.1097 18.378 12.6553 18.3151 13.1874 18.1875L17.3749 22.375C17.9634 22.9635 18.7615 23.2941 19.5937 23.2941C20.4259 23.2941 21.224 22.9635 21.8124 22.375C22.4009 21.7866 22.7315 20.9885 22.7315 20.1563C22.7315 19.3241 22.4009 18.526 21.8124 17.9375L17.6249 13.75C17.7525 13.2179 17.8154 12.6723 17.8124 12.125C17.8291 11.2938 17.6797 10.4676 17.373 9.69486C17.0664 8.92209 16.6087 8.21826 16.0266 7.62459C15.4446 7.03092 14.75 6.55934 13.9834 6.23746C13.2169 5.91558 12.3938 5.74987 11.5624 5.75004ZM16.5624 12.0625C16.5615 12.5066 16.4984 12.9484 16.3749 13.375L16.1874 14.0625L16.6874 14.5625L20.8749 18.75C21.0533 18.9189 21.1952 19.1224 21.2919 19.3481C21.3886 19.5738 21.4382 19.817 21.4374 20.0625C21.4445 20.309 21.3978 20.5541 21.3007 20.7807C21.2035 21.0074 21.0583 21.2101 20.8749 21.375C20.7056 21.5528 20.502 21.6943 20.2764 21.791C20.0508 21.8877 19.8079 21.9375 19.5624 21.9375C19.317 21.9375 19.0741 21.8877 18.8485 21.791C18.6228 21.6943 18.4192 21.5528 18.2499 21.375L14.0624 17.1875L13.5624 16.6875L12.8749 16.875C12.4483 16.9985 12.0065 17.0616 11.5624 17.0625C10.2344 17.0588 8.95865 16.5441 7.99993 15.625C7.51509 15.1688 7.13114 14.6161 6.87279 14.0026C6.61445 13.389 6.48744 12.7282 6.49993 12.0625C6.5008 11.5979 6.56386 11.1354 6.68743 10.6875L9.43743 13.4375C9.66981 13.6904 9.95019 13.8945 10.2622 14.0379C10.5743 14.1813 10.9118 14.2611 11.255 14.2728C11.5982 14.2844 11.9403 14.2276 12.2614 14.1056C12.5824 13.9837 12.876 13.7991 13.1249 13.5625C13.3615 13.3136 13.5461 13.02 13.668 12.699C13.79 12.3779 13.8468 12.0358 13.8351 11.6926C13.8235 11.3494 13.7437 11.0119 13.6003 10.6998C13.4569 10.3878 13.2528 10.1074 12.9999 9.87504L10.2499 7.12504C10.6541 6.9972 11.076 6.93392 11.4999 6.93754C12.828 6.94122 14.1037 7.45598 15.0624 8.37504C16.022 9.36296 16.5599 10.6853 16.5624 12.0625Z" fill="white"/>
</g>
<defs>
<clipPath id="clip0_35374_25613">
<rect width="20" height="20" fill="white" transform="translate(4 4.5)"/>
</clipPath>
</defs>
</svg>
