<svg width="24" height="24" viewBox="0 0 24 24" fill="none" xmlns="http://www.w3.org/2000/svg">
<g clip-path="url(#clip0_7139_27993)">
<path d="M12 20.25C9.3 20.25 6.675 18.9 5.1 16.5H9V15H3V21H4.5V18.225C6.375 20.475 9.075 21.75 12 21.75V20.25Z" fill="currentColor"/>
<path d="M15 7.5H18.9C16.425 3.675 11.325 2.625 7.5 5.1C5.175 6.6 3.75 9.225 3.75 12H2.25C2.25 6.6 6.6 2.25 12 2.25C14.925 2.25 17.625 3.525 19.5 5.775V3H21V9H15V7.5Z" fill="currentColor"/>
<path fill-rule="evenodd" clip-rule="evenodd" d="M16.1513 18.75C16.6701 19.6467 17.6396 20.25 18.75 20.25C19.8604 20.25 20.8299 19.6467 21.3487 18.75H23.25V17.25H21.75V15H23.25V13.5L21.6555 13.5C21.3225 12.2061 20.1479 11.25 18.75 11.25C17.3521 11.25 16.1775 12.2061 15.8445 13.5L14.25 13.5V15L15.75 15V17.25H14.25V18.75L16.1513 18.75ZM20.25 17.25V14.25C20.25 13.4216 19.5784 12.75 18.75 12.75C17.9218 12.75 17.2504 13.4212 17.25 14.2493L17.25 17.25C17.25 17.2503 17.25 17.2507 17.25 17.251C17.2506 18.079 17.9219 18.75 18.75 18.75C19.5784 18.75 20.25 18.0784 20.25 17.25Z" fill="currentColor"/>
</g>
<defs>
<clipPath id="clip0_7139_27993">
<rect width="24" height="24" fill="white"/>
</clipPath>
</defs>
</svg>
