<svg width="24" height="25" viewBox="0 0 24 25" fill="none" xmlns="http://www.w3.org/2000/svg">
<path d="M22.5 17.8935H18.75V14.1435H17.25V17.8935H13.5V19.3935H17.25V23.1435H18.75V19.3935H22.5V17.8935Z" fill="currentColor"/>
<path d="M18.0955 9.52308L18.981 9.68328C19.6987 9.80014 20.3755 10.0953 20.9495 10.5417C21.4842 10.9665 21.9034 11.5191 22.1682 12.1486C22.4331 12.7781 22.5351 13.4642 22.4649 14.1435H23.9869C24.0795 12.7632 23.6604 11.3971 22.8095 10.3062C21.9587 9.21534 20.7357 8.47618 19.3744 8.22993C19.0904 6.75658 18.3714 5.40216 17.3101 4.34152C16.2488 3.28087 14.8939 2.56271 13.4203 2.27973C12.4524 2.09275 11.4572 2.09838 10.4915 2.29627C9.52573 2.49417 8.60848 2.88047 7.79214 3.43307C6.9758 3.98568 6.27637 4.69376 5.73385 5.51683C5.19133 6.33991 4.81635 7.26184 4.63034 8.22993C3.21628 8.48537 1.95344 9.27191 1.10058 10.4284C0.247723 11.5849 -0.130579 13.0237 0.0431907 14.4501C0.242256 15.8365 0.939384 17.103 2.00427 18.0127C3.06915 18.9225 4.42891 19.4134 5.82937 19.3935H10.5V17.8935H5.77334C4.79101 17.9089 3.83406 17.5813 3.06716 16.9672C2.30027 16.3532 1.77139 15.491 1.57154 14.5291C1.47149 13.9939 1.47825 13.4442 1.59143 12.9117C1.70461 12.3791 1.92198 11.8742 2.23103 11.426C2.54009 10.9777 2.93472 10.595 3.39224 10.2999C3.84975 10.0047 4.36111 9.80294 4.89689 9.70615L5.90849 9.52308L6.06884 8.69058C6.29413 7.43961 6.90121 6.28909 7.8067 5.39704C8.71219 4.50499 9.87167 3.91518 11.1259 3.70863C11.8787 3.59697 12.6458 3.63006 13.3862 3.80613C14.5281 4.08925 15.564 4.69613 16.3692 5.5538C17.1745 6.41148 17.715 7.48347 17.9257 8.64093L18.0955 9.52308Z" fill="currentColor"/>
</svg>
