<svg width="25" height="25" viewBox="0 0 25 25" fill="none" xmlns="http://www.w3.org/2000/svg">
<path d="M3.5 8H2V3.5C2.00042 3.1023 2.15859 2.72101 2.4398 2.4398C2.72101 2.15859 3.1023 2.00042 3.5 2H8V3.5H3.5V8Z" fill="currentColor"/>
<path d="M8 23H3.5C3.1023 22.9996 2.72101 22.8414 2.4398 22.5602C2.15859 22.279 2.00042 21.8977 2 21.5V17H3.5V21.5H8V23Z" fill="currentColor"/>
<path d="M21.5 23H17V21.5H21.5V17H23V21.5C22.9996 21.8977 22.8414 22.279 22.5602 22.5602C22.279 22.8414 21.8977 22.9996 21.5 23Z" fill="currentColor"/>
<path d="M23 8H21.5V3.5H17V2H21.5C21.8977 2.00042 22.279 2.15859 22.5602 2.4398C22.8414 2.72101 22.9996 3.1023 23 3.5V8Z" fill="currentColor"/>
</svg>
