<svg width="14" height="22" viewBox="0 0 14 22" fill="none" xmlns="http://www.w3.org/2000/svg">
<path d="M12.25 9.5V11.75C12.25 13.1424 11.6969 14.4777 10.7123 15.4623C9.72775 16.4469 8.39239 17 7 17C5.60761 17 4.27226 16.4469 3.28769 15.4623C2.30312 14.4777 1.75 13.1424 1.75 11.75V9.5H0.25V11.75C0.250788 13.4098 0.863091 15.0111 1.96991 16.248C3.07674 17.4849 4.60048 18.2706 6.25 18.455V20H3.25V21.5H10.75V20H7.75V18.455C9.39952 18.2706 10.9233 17.4849 12.0301 16.248C13.1369 15.0111 13.7492 13.4098 13.75 11.75V9.5H12.25Z" fill="currentColor"/>
<path d="M7 15.5C7.99456 15.5 8.94839 15.1049 9.65165 14.4017C10.3549 13.6984 10.75 12.7446 10.75 11.75V4.25C10.75 3.25544 10.3549 2.30161 9.65165 1.59835C8.94839 0.895088 7.99456 0.5 7 0.5C6.00544 0.5 5.05161 0.895088 4.34835 1.59835C3.64509 2.30161 3.25 3.25544 3.25 4.25V11.75C3.25 12.7446 3.64509 13.6984 4.34835 14.4017C5.05161 15.1049 6.00544 15.5 7 15.5ZM4.75 4.25C4.75 3.65326 4.98705 3.08097 5.40901 2.65901C5.83097 2.23705 6.40326 2 7 2C7.59674 2 8.16903 2.23705 8.59099 2.65901C9.01295 3.08097 9.25 3.65326 9.25 4.25V11.75C9.25 12.3467 9.01295 12.919 8.59099 13.341C8.16903 13.7629 7.59674 14 7 14C6.40326 14 5.83097 13.7629 5.40901 13.341C4.98705 12.919 4.75 12.3467 4.75 11.75V4.25Z" fill="currentColor"/>
</svg>
