<svg width="20" height="20" viewBox="0 0 20 20" fill="none" xmlns="http://www.w3.org/2000/svg">
<path d="M9.87574 0.595728C11.3131 0.568285 12.6207 1.10584 13.6736 2.06545C13.6931 2.08323 13.6931 2.08323 13.713 2.10136C14.0473 2.4131 14.3347 2.80584 14.5573 3.20315C14.5681 3.22205 14.5789 3.24095 14.5901 3.26042C14.9849 3.95713 15.3196 4.83708 15.2865 5.65107C15.3075 5.6559 15.3075 5.6559 15.3288 5.66083C16.1042 5.86487 16.7723 6.45907 17.1739 7.13809C17.9827 8.56536 17.5737 10.6341 17.1695 12.1263C16.7462 13.6326 16.0325 15.024 15.0261 16.224C15.0048 16.2498 14.9836 16.2755 14.9617 16.3021C14.6629 16.6626 14.3429 17.0168 13.9873 17.3221C13.9278 17.3738 13.8699 17.4271 13.8119 17.4805C13.6666 17.6114 13.5137 17.731 13.3591 17.8504C13.3045 17.8929 13.2503 17.9359 13.1963 17.9789C12.9493 18.1748 12.6973 18.3578 12.4319 18.5279C12.3893 18.5553 12.3468 18.5827 12.3044 18.6104C11.6173 19.0576 10.903 19.3401 10.0782 19.375C10.0454 19.3766 10.0454 19.3766 10.012 19.3783C8.98563 19.4037 8.11564 18.9843 7.29172 18.4115C7.27402 18.3993 7.25632 18.387 7.23808 18.3744C7.00582 18.2134 6.78292 18.0414 6.56255 17.8646C6.53731 17.8445 6.51206 17.8243 6.48605 17.8036C6.34026 17.6859 6.20017 17.5635 6.06257 17.4363C6.00708 17.3857 5.95099 17.3366 5.89401 17.2877C5.75879 17.1698 5.6328 17.0428 5.50624 16.9157C5.48262 16.8922 5.459 16.8687 5.43467 16.8445C5.3017 16.7113 5.17406 16.5756 5.05213 16.4323C5.03011 16.4072 5.00809 16.3821 4.9854 16.3562C3.53443 14.6727 2.67708 12.5593 2.39588 10.3646C2.39195 10.3343 2.38802 10.304 2.38397 10.2728C2.32802 9.82334 2.30938 9.37682 2.30637 8.92418C2.30605 8.89968 2.30573 8.87518 2.30541 8.84993C2.29544 7.94155 2.60529 7.1294 3.23239 6.46896C3.62002 6.07491 4.10376 5.7804 4.63547 5.62503C4.65265 5.62503 4.66984 5.62503 4.68755 5.62503C4.68668 5.59213 4.68581 5.55923 4.68491 5.52533C4.68507 5.3841 4.70508 5.2495 4.72987 5.1107C4.73451 5.08464 4.73915 5.05858 4.74393 5.03173C4.95166 3.91594 5.4702 2.92849 6.25005 2.1094C6.26603 2.09235 6.28201 2.07529 6.29847 2.05772C7.22563 1.09524 8.56761 0.646407 9.87574 0.595728ZM7.62212 3.86559C7.3162 4.21599 6.87505 4.8209 6.87505 5.31253C7.23444 5.29806 7.59333 5.27845 7.95217 5.25389C8.58644 5.21214 9.22067 5.20307 9.85607 5.20344C9.91958 5.20348 9.98309 5.20347 10.0466 5.20347C10.8897 5.20372 11.7308 5.22493 12.5712 5.29664C12.7389 5.31083 12.9047 5.31511 13.073 5.31253C12.9913 4.59132 12.4421 3.90658 11.9011 3.46357C10.5685 2.44627 8.75542 2.66013 7.62212 3.86559Z" fill="#086BBB"/>
<path d="M13.3332 13.9063C13.3545 13.9247 13.3758 13.9431 13.3977 13.962C14.004 14.4971 14.5126 15.1502 14.7908 15.9166C14.8127 15.9762 14.8365 16.033 14.8632 16.0905C14.9004 16.1835 14.9186 16.2538 14.9218 16.3542C14.8807 16.4152 14.8469 16.456 14.7948 16.5056C14.768 16.5328 14.7413 16.56 14.7146 16.5873C14.6944 16.6073 14.6944 16.6073 14.6738 16.6278C14.619 16.6832 14.5679 16.7416 14.5165 16.8002C14.3498 16.9856 14.1749 17.1619 13.9853 17.3239C13.9263 17.3749 13.8691 17.4277 13.8117 17.4805C13.6665 17.6114 13.5136 17.731 13.3589 17.8504C13.3043 17.8929 13.2502 17.9359 13.1961 17.979C12.9492 18.1749 12.6971 18.3578 12.4318 18.5279C12.3892 18.5553 12.3467 18.5828 12.3043 18.6104C11.6171 19.0576 10.9029 19.3401 10.078 19.375C10.0452 19.3766 10.0452 19.3766 10.0118 19.3783C8.98548 19.4037 8.11548 18.9843 7.29156 18.4115C7.26501 18.3931 7.26501 18.3931 7.23793 18.3744C7.00567 18.2134 6.78276 18.0414 6.56239 17.8646C6.53715 17.8445 6.51191 17.8243 6.4859 17.8036C6.34011 17.686 6.20001 17.5635 6.06241 17.4364C6.00696 17.3858 5.9509 17.3367 5.89396 17.2878C5.75813 17.1693 5.63159 17.0418 5.50445 16.9141C5.48062 16.8904 5.45678 16.8666 5.43223 16.8422C5.38626 16.7961 5.34059 16.7498 5.29528 16.7031C5.25799 16.6649 5.21997 16.6274 5.18079 16.5912C5.07853 16.4904 5.07853 16.4904 5.07715 16.4036C5.0895 16.3408 5.10778 16.284 5.1301 16.224C5.13664 16.2046 5.14319 16.1853 5.14993 16.1653C5.17158 16.1039 5.19517 16.0435 5.21962 15.9831C5.23315 15.9497 5.23315 15.9497 5.24695 15.9155C5.5528 15.1783 6.0167 14.4665 6.64052 13.9584C6.66795 13.9352 6.69539 13.912 6.72282 13.8889C7.39697 13.3272 8.15965 12.983 9.01031 12.7865C9.03169 12.7815 9.05308 12.7766 9.07511 12.7715C10.5457 12.4534 12.2091 12.9309 13.3332 13.9063Z" fill="#31B9F1"/>
<path d="M9.87553 0.595728C11.3129 0.568285 12.6205 1.10584 13.6733 2.06545C13.6929 2.08323 13.6929 2.08323 13.7128 2.10136C14.047 2.4131 14.3345 2.80584 14.5571 3.20315C14.5679 3.22205 14.5787 3.24095 14.5898 3.26042C14.95 3.89594 15.2706 4.68484 15.2619 5.42646C15.2618 5.44563 15.2616 5.46479 15.2615 5.48454C15.2612 5.53137 15.2608 5.5782 15.2603 5.62503C15.1672 5.62676 15.0825 5.62429 14.9917 5.60387C14.683 5.53879 14.3779 5.48469 14.0623 5.46878C14.0623 5.45159 14.0623 5.4344 14.0623 5.41669C14.043 5.4176 14.0236 5.4185 14.0036 5.41944C13.6979 5.42702 13.4007 5.38258 13.0988 5.33857C13.0604 5.23715 13.0226 5.13585 12.9871 5.03339C12.7032 4.2203 12.12 3.53145 11.3475 3.14346C10.6181 2.79316 9.7934 2.7347 9.02002 2.97366C8.14902 3.2842 7.48488 3.89828 7.08453 4.72926C7.02536 4.86408 6.97982 5.00451 6.93688 5.14524C6.9302 5.16631 6.92352 5.18737 6.91665 5.20907C6.91105 5.2278 6.90545 5.24653 6.89968 5.26583C6.86548 5.33011 6.83965 5.34133 6.77067 5.36461C6.70629 5.37305 6.64387 5.3791 6.57922 5.38312C6.54032 5.38596 6.50141 5.38881 6.4625 5.39167C6.44213 5.39309 6.42177 5.3945 6.40079 5.39597C5.88898 5.43209 5.37573 5.48127 4.87797 5.6116C4.81755 5.62503 4.81755 5.62503 4.71338 5.62503C4.71602 4.29463 5.34649 3.0582 6.24984 2.1094C6.26582 2.09235 6.2818 2.07529 6.29826 2.05772C7.22542 1.09524 8.5674 0.646407 9.87553 0.595728Z" fill="#1F5693"/>
<path d="M11.6816 7.36602C12.1607 7.789 12.5307 8.36991 12.5856 9.0193C12.6166 9.58973 12.5522 10.1084 12.2649 10.6073C12.2425 10.6463 12.2214 10.686 12.2005 10.7258C11.9637 11.1436 11.5177 11.5244 11.0679 11.6928C10.9741 11.7184 10.8796 11.74 10.7847 11.7612C10.7353 11.7723 10.686 11.7835 10.6368 11.7947C10.6151 11.7996 10.5935 11.8044 10.5713 11.8093C10.5212 11.8185 10.5212 11.8185 10.495 11.8491C10.3458 11.8726 10.1998 11.8801 10.049 11.88C10.0275 11.88 10.0061 11.8799 9.98397 11.8799C9.74777 11.8776 9.51749 11.8608 9.29704 11.7709C9.25599 11.7624 9.21474 11.7548 9.17334 11.7481C8.98156 11.7115 8.83438 11.6514 8.69808 11.5105C8.65544 11.4935 8.61279 11.4764 8.57001 11.4597C8.45348 11.4009 8.34981 11.3136 8.25537 11.2241C8.25537 11.2069 8.25537 11.1897 8.25537 11.172C8.24107 11.1669 8.22677 11.1618 8.21204 11.1565C8.12546 11.1044 8.07168 11.0298 8.01123 10.9506C7.99221 10.9259 7.99221 10.9259 7.97282 10.9007C7.55824 10.3553 7.37734 9.66195 7.45917 8.98101C7.57243 8.29308 7.92183 7.67889 8.48974 7.26572C8.7804 7.06276 9.08316 6.91093 9.42724 6.82301C9.45027 6.8171 9.4733 6.81119 9.49703 6.80511C10.2662 6.64458 11.082 6.86523 11.6816 7.36602Z" fill="#2AB4EF"/>
<path d="M13.229 5.33865C13.3109 5.3379 13.3928 5.33743 13.4748 5.33702C13.4982 5.3368 13.5215 5.33659 13.5456 5.33636C13.5679 5.33628 13.5901 5.33619 13.613 5.33611C13.6439 5.3359 13.6439 5.3359 13.6754 5.33569C13.7238 5.33865 13.7238 5.33865 13.7498 5.36469C13.8145 5.37019 13.8787 5.37448 13.9435 5.37771C14.1335 5.38724 14.1335 5.38724 14.1925 5.41677C14.2872 5.42503 14.3818 5.4301 14.4767 5.43549C14.5571 5.44282 14.5571 5.44282 14.5832 5.46886C14.6351 5.47805 14.6872 5.48596 14.7394 5.49327C15.1351 5.55204 15.1351 5.55204 15.2082 5.62511C15.132 5.61243 15.0559 5.59974 14.9798 5.58696C14.5233 5.50858 14.5233 5.50858 14.0623 5.46886C14.0623 5.45167 14.0623 5.43448 14.0623 5.41677C14.0415 5.41738 14.0206 5.41798 13.9991 5.41861C13.7387 5.42274 13.4869 5.39745 13.229 5.36469C13.229 5.3561 13.229 5.3475 13.229 5.33865Z" fill="#145DA2"/>
<path d="M6.95296 13.698C6.95296 13.7238 6.95296 13.7496 6.95296 13.7761C6.92718 13.7761 6.9014 13.7761 6.87484 13.7761C6.90062 13.7503 6.9264 13.7246 6.95296 13.698ZM6.82275 13.8022C6.83994 13.8108 6.85713 13.8194 6.87484 13.8282C6.84906 13.854 6.82327 13.8798 6.79671 13.9063C6.77952 13.8977 6.76234 13.8891 6.74463 13.8803C6.77041 13.8545 6.79619 13.8287 6.82275 13.8022ZM6.69255 13.9063C6.70973 13.9149 6.72692 13.9235 6.74463 13.9324C6.68531 14.0164 6.62435 14.0769 6.54118 14.1358C6.44276 14.2067 6.36731 14.2864 6.29002 14.3795C6.25256 14.4239 6.21342 14.4648 6.17171 14.5053C6.15452 14.4967 6.13734 14.4881 6.11963 14.4792C6.13128 14.4679 6.14293 14.4566 6.15493 14.4449C6.2291 14.3718 6.29965 14.2997 6.3654 14.2188C6.43598 14.1362 6.51173 14.0681 6.59438 13.9979C6.64264 13.9576 6.64264 13.9576 6.69255 13.9063Z" fill="#42B9F0"/>
<path d="M9.21875 11.7969C9.35984 11.8149 9.49693 11.8427 9.63542 11.875C9.63542 11.8836 9.63542 11.8922 9.63542 11.901C9.48466 11.9064 9.36382 11.8904 9.21875 11.849C9.21875 11.8318 9.21875 11.8146 9.21875 11.7969Z" fill="#0264AB"/>
<path d="M5.57308 15.1824C5.58167 15.1996 5.59027 15.2167 5.59912 15.2345C5.57318 15.2908 5.57318 15.2908 5.53564 15.3549C5.52332 15.3762 5.511 15.3975 5.49831 15.4194C5.48861 15.4357 5.47891 15.452 5.46891 15.4688C5.45192 15.4229 5.45192 15.4229 5.44287 15.3647C5.46881 15.3146 5.46881 15.3146 5.50635 15.267C5.51867 15.251 5.53099 15.2351 5.54368 15.2186C5.55338 15.2066 5.56308 15.1947 5.57308 15.1824Z" fill="#0D65A4"/>
<path d="M11.6929 11.2761C11.7101 11.2847 11.7272 11.2933 11.745 11.3022C11.6847 11.3673 11.6847 11.3673 11.6147 11.4324C11.589 11.4324 11.5632 11.4324 11.5366 11.4324C11.5887 11.3803 11.6408 11.3282 11.6929 11.2761Z" fill="#0466AE"/>
</svg>
