<svg width="24" height="24" viewBox="0 0 24 24" fill="none" xmlns="http://www.w3.org/2000/svg">
<path d="M12.204 2.95L12.154 2.95L12.154 3L12.154 12L12.154 12.05L12.204 12.05L23.25 12.05L23.3 12.05L23.3 12L23.3 3L23.3 2.95L23.25 2.95L12.204 2.95ZM0.750002 2.95L0.700002 2.95L0.700002 3L0.700001 21L0.700001 21.05L0.75 21.05L23.25 21.05L23.3 21.05L23.3 21L23.3 13.5L23.3 13.45L23.25 13.45L21.75 13.45L21.7 13.45L21.7 13.5L21.7 19.45L2.3 19.45L2.3 4.55L10.5 4.55L10.55 4.55L10.55 4.5L10.55 3L10.55 2.95L10.5 2.95L0.750002 2.95ZM13.754 4.55L21.7 4.55L21.7 10.45L13.754 10.45L13.754 4.55Z" fill="currentColor" stroke="currentColor" stroke-width="0.1"/>
</svg>
