<svg width="24" height="24" viewBox="0 0 24 24" fill="none" xmlns="http://www.w3.org/2000/svg">
<path fill-rule="evenodd" clip-rule="evenodd" d="M13.4925 13.5001H13.5C13.6604 13.5001 13.8165 13.4486 13.9455 13.3534C14.0745 13.2581 14.1695 13.124 14.2167 12.9707L16.5286 5.45723L17.2885 7.73723C17.3383 7.88657 17.4338 8.01646 17.5615 8.10851C17.6892 8.20055 17.8426 8.25008 18 8.25008H22.5V6.75008H18.5405L17.2115 2.76293C17.1638 2.61233 17.0688 2.48112 16.9406 2.38874C16.8125 2.29637 16.658 2.24774 16.5 2.25008C16.3401 2.25177 16.1847 2.30383 16.0561 2.39886C15.9274 2.49389 15.832 2.62706 15.7834 2.77943L13.5268 10.1132L12.7211 7.29398C12.6763 7.13728 12.5817 6.99944 12.4516 6.9013C12.3215 6.80316 12.163 6.75008 12 6.75008H8.25V8.25008H11.4342L12.7792 12.9561C12.8236 13.1115 12.917 13.2485 13.0455 13.3465C13.1741 13.4445 13.3309 13.4984 13.4925 13.5001ZM21 16.5V12H22.5V16.5C22.5 16.8978 22.342 17.2794 22.0607 17.5607C21.7794 17.842 21.3978 18 21 18H15V21H18V22.5H6V21H9V18H3C2.60218 18 2.22064 17.842 1.93934 17.5607C1.65804 17.2794 1.5 16.8978 1.5 16.5V4.5C1.5 4.10218 1.65804 3.72064 1.93934 3.43934C2.22064 3.15804 2.60218 3 3 3H8.25V4.5H3V16.5H21ZM10.5 18V21H13.5V18H10.5Z" fill="currentColor"/>
</svg>
