<svg width="24" height="23" viewBox="0 0 24 23" fill="none" xmlns="http://www.w3.org/2000/svg">
<g clip-path="url(#clip0_2721_31369)">
<path d="M3.47531 4.27734H2.04956V18.5348H3.47531V4.27734Z" fill="currentColor"/>
<path d="M6.32675 2.85156H4.901V19.9605H6.32675V2.85156Z" fill="currentColor"/>
<path d="M19.1585 15.6831H10.604V17.1088H19.1585V15.6831Z" fill="currentColor"/>
<path d="M19.1585 11.406H10.604V12.8317H19.1585V11.406Z" fill="currentColor"/>
<path d="M21.7962 6.62974L16.806 1.63964C16.6635 1.49707 16.5209 1.42578 16.307 1.42578H9.17831C8.39415 1.42578 7.75256 2.06737 7.75256 2.85152V19.9604C7.75256 20.7446 8.39415 21.3862 9.17831 21.3862H20.5843C21.3684 21.3862 22.01 20.7446 22.01 19.9604V7.12875C22.01 6.91489 21.9387 6.77232 21.7962 6.62974ZM16.307 3.13667L20.2991 7.12875H16.307V3.13667ZM20.5843 19.9604H9.17831V2.85152H14.8813V7.12875C14.8813 7.91291 15.5229 8.55449 16.307 8.55449H20.5843V19.9604Z" fill="currentColor"/>
</g>
<defs>
<clipPath id="clip0_2721_31369">
<rect width="22.8119" height="22.8119" fill="currentColor" transform="translate(0.623779)"/>
</clipPath>
</defs>
</svg>
