<svg width="24" height="24" viewBox="0 0 24 24" fill="none" xmlns="http://www.w3.org/2000/svg">
<path d="M19.5 12.4394V9.75C19.4993 8.57607 19.2209 7.41895 18.6875 6.3732L22.5 2.56058L21.4394 1.5L1.5 21.4394L2.56058 22.5L7.06057 18H8.25V18.75C8.25 19.7446 8.64509 20.6984 9.34835 21.4016C10.0516 22.1049 11.0054 22.5 12 22.5C12.9946 22.5 13.9484 22.1049 14.6517 21.4016C15.3549 20.6984 15.75 19.7446 15.75 18.75V18H21C21.1989 18 21.3897 17.921 21.5303 17.7803C21.671 17.6397 21.75 17.4489 21.75 17.25V15C21.75 14.8011 21.6709 14.6104 21.5303 14.4697L19.5 12.4394ZM14.25 18.75C14.25 19.3467 14.0129 19.919 13.591 20.341C13.169 20.7629 12.5967 21 12 21C11.4033 21 10.831 20.7629 10.409 20.341C9.98705 19.919 9.75 19.3467 9.75 18.75V18H14.25V18.75ZM20.25 16.5H8.56057L17.5589 7.5018C17.8499 8.21564 17.9997 8.97913 18 9.75V12.75C18 12.9489 18.0791 13.1396 18.2197 13.2803L20.25 15.3106V16.5Z" fill="currentColor"/>
<path d="M5.78025 13.2803C5.92091 13.1396 5.99996 12.9489 6 12.75V9.75C6.00183 8.15926 6.63455 6.6342 7.75938 5.50938C8.8842 4.38455 10.4093 3.75183 12 3.75C13.3615 3.75072 14.6815 4.21884 15.7393 5.07607L16.8091 4.00635C15.6603 3.03732 14.2454 2.43835 12.75 2.2881V0.75H11.25V2.2881C9.40101 2.47622 7.68744 3.34326 6.44065 4.72154C5.19386 6.09983 4.50241 7.89146 4.5 9.75V12.4394L2.25 14.6894L3.31058 15.75L5.78025 13.2803Z" fill="currentColor"/>
</svg>
