<svg width="24" height="24" viewBox="0 0 24 24" fill="none" xmlns="http://www.w3.org/2000/svg">
<g clip-path="url(#clip0_677_17396)">
<path d="M12 15C11.4067 15 10.8266 14.8241 10.3333 14.4944C9.83994 14.1648 9.45543 13.6962 9.22836 13.1481C9.0013 12.5999 8.94189 11.9967 9.05765 11.4147C9.1734 10.8328 9.45912 10.2982 9.87868 9.87868C10.2982 9.45912 10.8328 9.1734 11.4147 9.05765C11.9967 8.94189 12.5999 9.0013 13.1481 9.22836C13.6962 9.45543 14.1648 9.83994 14.4944 10.3333C14.8241 10.8266 15 11.4067 15 12C14.9991 12.7954 14.6828 13.5579 14.1203 14.1203C13.5579 14.6828 12.7954 14.9991 12 15ZM12 10.5C11.7033 10.5 11.4133 10.588 11.1666 10.7528C10.92 10.9176 10.7277 11.1519 10.6142 11.426C10.5007 11.7001 10.4709 12.0017 10.5288 12.2926C10.5867 12.5836 10.7296 12.8509 10.9393 13.0607C11.1491 13.2704 11.4164 13.4133 11.7074 13.4712C11.9983 13.5291 12.2999 13.4994 12.574 13.3858C12.8481 13.2723 13.0824 13.08 13.2472 12.8334C13.412 12.5867 13.5 12.2967 13.5 12C13.4996 11.6023 13.3414 11.221 13.0602 10.9398C12.779 10.6586 12.3977 10.5004 12 10.5Z" fill="currentColor"/>
<path d="M3.75 15C3.15666 15 2.57664 14.8241 2.08329 14.4944C1.58994 14.1648 1.20543 13.6962 0.978363 13.1481C0.7513 12.5999 0.69189 11.9967 0.807646 11.4147C0.923401 10.8328 1.20912 10.2982 1.62868 9.87868C2.04824 9.45912 2.58279 9.1734 3.16473 9.05765C3.74667 8.94189 4.34987 9.0013 4.89805 9.22836C5.44623 9.45543 5.91477 9.83994 6.24441 10.3333C6.57405 10.8266 6.75 11.4067 6.75 12C6.74911 12.7954 6.43275 13.5579 5.87034 14.1203C5.30792 14.6828 4.54538 14.9991 3.75 15ZM3.75 10.5C3.45333 10.5 3.16332 10.588 2.91665 10.7528C2.66997 10.9176 2.47771 11.1519 2.36418 11.426C2.25065 11.7001 2.22095 12.0017 2.27882 12.2926C2.3367 12.5836 2.47956 12.8509 2.68934 13.0607C2.89912 13.2704 3.16639 13.4133 3.45737 13.4712C3.74834 13.5291 4.04994 13.4994 4.32403 13.3858C4.59812 13.2723 4.83238 13.08 4.99721 12.8334C5.16203 12.5867 5.25 12.2967 5.25 12C5.24955 11.6023 5.09136 11.2211 4.81016 10.9398C4.52895 10.6586 4.14769 10.5005 3.75 10.5Z" fill="currentColor"/>
<path d="M7.5 23.25C6.90666 23.25 6.32664 23.0741 5.83329 22.7444C5.33994 22.4148 4.95543 21.9462 4.72836 21.3981C4.5013 20.8499 4.44189 20.2467 4.55765 19.6647C4.6734 19.0828 4.95912 18.5482 5.37868 18.1287C5.79824 17.7091 6.33279 17.4234 6.91473 17.3076C7.49667 17.1919 8.09987 17.2513 8.64805 17.4784C9.19623 17.7054 9.66477 18.0899 9.99441 18.5833C10.3241 19.0766 10.5 19.6567 10.5 20.25C10.4991 21.0454 10.1828 21.8079 9.62034 22.3703C9.05792 22.9328 8.29538 23.2491 7.5 23.25ZM7.5 18.75C7.20333 18.75 6.91332 18.838 6.66665 19.0028C6.41997 19.1676 6.22771 19.4019 6.11418 19.676C6.00065 19.9501 5.97095 20.2517 6.02882 20.5426C6.0867 20.8336 6.22956 21.1009 6.43934 21.3107C6.64912 21.5204 6.91639 21.6633 7.20737 21.7212C7.49834 21.7791 7.79994 21.7494 8.07403 21.6358C8.34812 21.5223 8.58238 21.33 8.74721 21.0834C8.91203 20.8367 9 20.5467 9 20.25C8.99958 19.8523 8.84142 19.471 8.5602 19.1898C8.27899 18.9086 7.8977 18.7504 7.5 18.75Z" fill="currentColor"/>
<path d="M16.5 23.25C15.9067 23.25 15.3266 23.0741 14.8333 22.7444C14.3399 22.4148 13.9554 21.9462 13.7284 21.3981C13.5013 20.8499 13.4419 20.2467 13.5576 19.6647C13.6734 19.0828 13.9591 18.5482 14.3787 18.1287C14.7982 17.7091 15.3328 17.4234 15.9147 17.3076C16.4967 17.1919 17.0999 17.2513 17.6481 17.4784C18.1962 17.7054 18.6648 18.0899 18.9944 18.5833C19.3241 19.0766 19.5 19.6567 19.5 20.25C19.4991 21.0454 19.1828 21.8079 18.6203 22.3703C18.0579 22.9328 17.2954 23.2491 16.5 23.25ZM16.5 18.75C16.2033 18.75 15.9133 18.838 15.6666 19.0028C15.42 19.1676 15.2277 19.4019 15.1142 19.676C15.0007 19.9501 14.9709 20.2517 15.0288 20.5426C15.0867 20.8336 15.2296 21.1009 15.4393 21.3107C15.6491 21.5204 15.9164 21.6633 16.2074 21.7212C16.4983 21.7791 16.7999 21.7494 17.074 21.6358C17.3481 21.5223 17.5824 21.33 17.7472 21.0834C17.912 20.8367 18 20.5467 18 20.25C17.9996 19.8523 17.8414 19.471 17.5602 19.1898C17.279 18.9086 16.8977 18.7504 16.5 18.75Z" fill="currentColor"/>
<path d="M20.25 15C19.6567 15 19.0766 14.8241 18.5833 14.4944C18.0899 14.1648 17.7054 13.6962 17.4784 13.1481C17.2513 12.5999 17.1919 11.9967 17.3076 11.4147C17.4234 10.8328 17.7091 10.2982 18.1287 9.87868C18.5482 9.45912 19.0828 9.1734 19.6647 9.05765C20.2467 8.94189 20.8499 9.0013 21.3981 9.22836C21.9462 9.45543 22.4148 9.83994 22.7444 10.3333C23.0741 10.8266 23.25 11.4067 23.25 12C23.2491 12.7954 22.9328 13.5579 22.3703 14.1203C21.8079 14.6828 21.0454 14.9991 20.25 15ZM20.25 10.5C19.9533 10.5 19.6633 10.588 19.4166 10.7528C19.17 10.9176 18.9777 11.1519 18.8642 11.426C18.7507 11.7001 18.7209 12.0017 18.7788 12.2926C18.8367 12.5836 18.9796 12.8509 19.1893 13.0607C19.3991 13.2704 19.6664 13.4133 19.9574 13.4712C20.2483 13.5291 20.5499 13.4994 20.824 13.3858C21.0981 13.2723 21.3324 13.08 21.4972 12.8334C21.662 12.5867 21.75 12.2967 21.75 12C21.7496 11.6023 21.5914 11.221 21.3102 10.9398C21.029 10.6586 20.6477 10.5004 20.25 10.5Z" fill="currentColor"/>
<path d="M16.5 6.75C15.9067 6.75 15.3266 6.57405 14.8333 6.24441C14.3399 5.91477 13.9554 5.44623 13.7284 4.89805C13.5013 4.34987 13.4419 3.74667 13.5576 3.16473C13.6734 2.58279 13.9591 2.04824 14.3787 1.62868C14.7982 1.20912 15.3328 0.923401 15.9147 0.807646C16.4967 0.69189 17.0999 0.7513 17.6481 0.978363C18.1962 1.20543 18.6648 1.58994 18.9944 2.08329C19.3241 2.57664 19.5 3.15666 19.5 3.75C19.4991 4.54538 19.1828 5.30792 18.6203 5.87034C18.0579 6.43275 17.2954 6.74911 16.5 6.75ZM16.5 2.25C16.2033 2.25 15.9133 2.33797 15.6666 2.5028C15.42 2.66762 15.2277 2.90189 15.1142 3.17598C15.0007 3.45007 14.9709 3.75167 15.0288 4.04264C15.0867 4.33361 15.2296 4.60088 15.4393 4.81066C15.6491 5.02044 15.9164 5.1633 16.2074 5.22118C16.4983 5.27906 16.7999 5.24935 17.074 5.13582C17.3481 5.02229 17.5824 4.83003 17.7472 4.58336C17.912 4.33668 18 4.04667 18 3.75C17.9996 3.3523 17.8414 2.97102 17.5602 2.6898C17.279 2.40859 16.8977 2.25042 16.5 2.25Z" fill="currentColor"/>
<path d="M7.5 6.75C6.90666 6.75 6.32664 6.57405 5.83329 6.24441C5.33994 5.91477 4.95543 5.44623 4.72836 4.89805C4.5013 4.34987 4.44189 3.74667 4.55765 3.16473C4.6734 2.58279 4.95912 2.04824 5.37868 1.62868C5.79824 1.20912 6.33279 0.923401 6.91473 0.807646C7.49667 0.69189 8.09987 0.7513 8.64805 0.978363C9.19623 1.20543 9.66477 1.58994 9.99441 2.08329C10.3241 2.57664 10.5 3.15666 10.5 3.75C10.4991 4.54538 10.1828 5.30792 9.62034 5.87034C9.05792 6.43275 8.29538 6.74911 7.5 6.75ZM7.5 2.25C7.20333 2.25 6.91332 2.33797 6.66665 2.5028C6.41997 2.66762 6.22771 2.90189 6.11418 3.17598C6.00065 3.45007 5.97095 3.75167 6.02882 4.04264C6.0867 4.33361 6.22956 4.60088 6.43934 4.81066C6.64912 5.02044 6.91639 5.1633 7.20737 5.22118C7.49834 5.27906 7.79994 5.24935 8.07403 5.13582C8.34812 5.02229 8.58238 4.83003 8.74721 4.58336C8.91203 4.33668 9 4.04667 9 3.75C8.99958 3.3523 8.84142 2.97102 8.5602 2.6898C8.27899 2.40859 7.8977 2.25042 7.5 2.25Z" fill="currentColor"/>
</g>
<defs>
<clipPath id="clip0_677_17396">
<rect width="24" height="24" fill="white"/>
</clipPath>
</defs>
</svg>
