<svg width="24" height="24" viewBox="0 0 24 24" fill="none" xmlns="http://www.w3.org/2000/svg">
<path fill-rule="evenodd" clip-rule="evenodd" d="M12 22.5C9.9233 22.5 7.89323 21.8842 6.16652 20.7304C4.4398 19.5767 3.09399 17.9368 2.29927 16.0182C1.50455 14.0996 1.29661 11.9884 1.70176 9.95156C2.1069 7.91476 3.10693 6.04383 4.57538 4.57538C6.04383 3.10693 7.91476 2.1069 9.95156 1.70176C11.9884 1.29661 14.0996 1.50455 16.0182 2.29927C17.9368 3.09399 19.5767 4.4398 20.7304 6.16652C21.8842 7.89323 22.5 9.9233 22.5 12C22.4969 14.7838 21.3896 17.4527 19.4212 19.4212C17.4527 21.3896 14.7838 22.4969 12 22.5ZM12 3C10.22 3 8.47992 3.52785 6.99987 4.51678C5.51983 5.50571 4.36628 6.91132 3.68509 8.55585C3.0039 10.2004 2.82567 12.01 3.17294 13.7558C3.5202 15.5016 4.37737 17.1053 5.63604 18.364C6.89472 19.6226 8.49836 20.4798 10.2442 20.8271C11.99 21.1743 13.7996 20.9961 15.4442 20.3149C17.0887 19.6337 18.4943 18.4802 19.4832 17.0001C20.4722 15.5201 21 13.78 21 12C20.9973 9.61389 20.0482 7.32629 18.361 5.63905C16.6737 3.95181 14.3861 3.00272 12 3ZM12 18C10.8133 18 9.65328 17.6481 8.66659 16.9888C7.67989 16.3295 6.91086 15.3925 6.45673 14.2961C6.00261 13.1997 5.88379 11.9933 6.1153 10.8295C6.34681 9.66558 6.91825 8.59648 7.75737 7.75736C8.59648 6.91825 9.66558 6.3468 10.8295 6.11529C11.9934 5.88378 13.1998 6.0026 14.2961 6.45673C15.3925 6.91085 16.3295 7.67989 16.9888 8.66658C17.6481 9.65328 18 10.8133 18 12C17.9982 13.5907 17.3655 15.1158 16.2406 16.2406C15.1158 17.3654 13.5907 17.9982 12 18ZM12 7.5C11.11 7.5 10.24 7.76392 9.49994 8.25839C8.75992 8.75286 8.18315 9.45566 7.84255 10.2779C7.50196 11.1002 7.41284 12.005 7.58647 12.8779C7.76011 13.7508 8.18869 14.5526 8.81803 15.182C9.44736 15.8113 10.2492 16.2399 11.1221 16.4135C11.995 16.5872 12.8998 16.4981 13.7221 16.1575C14.5444 15.8169 15.2472 15.2401 15.7416 14.5001C16.2361 13.76 16.5 12.89 16.5 12C16.4987 10.8069 16.0241 9.66312 15.1805 8.81949C14.3369 7.97587 13.1931 7.50133 12 7.5ZM13.5 12C13.5 12.8284 12.8284 13.5 12 13.5C11.1716 13.5 10.5 12.8284 10.5 12C10.5 11.1716 11.1716 10.5 12 10.5C12.8284 10.5 13.5 11.1716 13.5 12Z" fill="currentColor"/>
</svg>
