<svg width="18" height="19" viewBox="0 0 18 19" fill="none" xmlns="http://www.w3.org/2000/svg">
  <path d="M17.0187 13.9559L13.375 10.3059V7.59969C13.3754 7.51744 13.3597 7.4359 13.3286 7.35975C13.2975 7.2836 13.2516 7.21434 13.1937 7.15594L6.94371 0.905943C6.88561 0.847363 6.81648 0.800867 6.74032 0.769136C6.66416 0.737406 6.58247 0.721069 6.49996 0.721069C6.41745 0.721069 6.33576 0.737406 6.2596 0.769136C6.18344 0.800867 6.11431 0.847363 6.05621 0.905943L0.431212 6.53094C0.372632 6.58905 0.326135 6.65817 0.294405 6.73433C0.262674 6.81049 0.246338 6.89219 0.246338 6.97469C0.246338 7.0572 0.262674 7.13889 0.294405 7.21505C0.326135 7.29122 0.372632 7.36034 0.431212 7.41844L6.68121 13.6684C6.73961 13.7264 6.80887 13.7722 6.88502 13.8033C6.96117 13.8344 7.04271 13.8502 7.12496 13.8497H9.83746L13.4812 17.4997C13.9503 17.9688 14.5866 18.2323 15.25 18.2323C15.9134 18.2323 16.5496 17.9688 17.0187 17.4997C17.4878 17.0306 17.7514 16.3944 17.7514 15.7309C17.7514 15.0675 17.4878 14.4313 17.0187 13.9622V13.9559ZM2.74996 5.98094L4.18121 7.41844L5.06871 6.53094L3.63121 5.09969L4.62496 4.10594L7.30621 6.79344L8.19371 5.90594L5.50621 3.22469L6.49996 2.23094L10.6187 6.34969L5.87496 11.0934L1.75621 6.97469L2.74996 5.98094ZM16.1312 16.6059C15.897 16.8388 15.5802 16.9694 15.25 16.9694C14.9197 16.9694 14.6029 16.8388 14.3687 16.6059L10.5375 12.7809C10.4043 12.6894 10.2529 12.6275 10.0937 12.5997H7.38121L6.75621 11.9747L11.5 7.23094L12.125 7.85594V10.5684C12.1257 10.7324 12.1907 10.8895 12.3062 11.0059L16.1312 14.8434C16.364 15.0776 16.4947 15.3945 16.4947 15.7247C16.4947 16.0549 16.364 16.3717 16.1312 16.6059Z" fill="currentColor"/>
</svg>
