<svg width="24" height="23" viewBox="0 0 24 23" fill="none" xmlns="http://www.w3.org/2000/svg">
<g clip-path="url(#clip0_2721_31370)">
<path d="M20.7724 8.55449C21.1505 8.55449 21.5131 8.40428 21.7805 8.1369C22.0479 7.86952 22.1981 7.50688 22.1981 7.12875V2.85152C22.1981 2.47339 22.0479 2.11075 21.7805 1.84337C21.5131 1.57599 21.1505 1.42578 20.7724 1.42578H3.66342C3.28528 1.42578 2.92264 1.57599 2.65526 1.84337C2.38788 2.11075 2.23767 2.47339 2.23767 2.85152V7.12875C2.23767 7.50688 2.38788 7.86952 2.65526 8.1369C2.92264 8.40428 3.28528 8.55449 3.66342 8.55449H11.505V11.406H7.22778C6.84965 11.406 6.487 11.5562 6.21962 11.8236C5.95225 12.0909 5.80203 12.4536 5.80203 12.8317V15.6832H3.66342C3.28528 15.6832 2.92264 15.8334 2.65526 16.1008C2.38788 16.3682 2.23767 16.7308 2.23767 17.1089V19.9604C2.23767 20.3386 2.38788 20.7012 2.65526 20.9686C2.92264 21.236 3.28528 21.3862 3.66342 21.3862H9.3664C9.74453 21.3862 10.1072 21.236 10.3745 20.9686C10.6419 20.7012 10.7921 20.3386 10.7921 19.9604V17.1089C10.7921 16.7308 10.6419 16.3682 10.3745 16.1008C10.1072 15.8334 9.74453 15.6832 9.3664 15.6832H7.22778V12.8317H17.208V15.6832H15.0694C14.6912 15.6832 14.3286 15.8334 14.0612 16.1008C13.7938 16.3682 13.6436 16.7308 13.6436 17.1089V19.9604C13.6436 20.3386 13.7938 20.7012 14.0612 20.9686C14.3286 21.236 14.6912 21.3862 15.0694 21.3862H20.7724C21.1505 21.3862 21.5131 21.236 21.7805 20.9686C22.0479 20.7012 22.1981 20.3386 22.1981 19.9604V17.1089C22.1981 16.7308 22.0479 16.3682 21.7805 16.1008C21.5131 15.8334 21.1505 15.6832 20.7724 15.6832H18.6337V12.8317C18.6337 12.4536 18.4835 12.0909 18.2161 11.8236C17.9488 11.5562 17.5861 11.406 17.208 11.406H12.9308V8.55449H20.7724ZM9.3664 19.9604H3.66342V17.1089H9.3664V19.9604ZM20.7724 19.9604H15.0694V17.1089H20.7724V19.9604ZM3.66342 2.85152H20.7724V7.12875H3.66342V2.85152Z" fill="currentColor"/>
</g>
<defs>
<clipPath id="clip0_2721_31370">
<rect width="22.8119" height="22.8119" fill="currentColor" transform="translate(0.81189)"/>
</clipPath>
</defs>
</svg>
