<svg width="24" height="24" viewBox="0 0 24 24" fill="none" xmlns="http://www.w3.org/2000/svg">
<path d="M15 10.5H21C21.3977 10.4996 21.779 10.3414 22.0602 10.0602C22.3414 9.779 22.4996 9.3977 22.5 9V3C22.4996 2.6023 22.3414 2.221 22.0602 1.93978C21.779 1.65856 21.3977 1.5004 21 1.5H15C14.6023 1.5004 14.221 1.65856 13.9398 1.93978C13.6586 2.221 13.5004 2.6023 13.5 3H6.75C6.3523 3.0004 5.971 3.15856 5.68978 3.43978C5.40856 3.721 5.2504 4.1023 5.25 4.5V7.5H3C2.6023 7.5004 2.221 7.65856 1.93978 7.93978C1.65856 8.221 1.5004 8.6023 1.5 9V15C1.5004 15.3977 1.65856 15.779 1.93978 16.0602C2.221 16.3414 2.6023 16.4996 3 16.5H4.5V19.5C4.5004 19.8977 4.65856 20.279 4.93978 20.5602C5.221 20.8414 5.6023 20.9996 6 21H13.5C13.5004 21.3977 13.6586 21.779 13.9398 22.0602C14.221 22.3414 14.6023 22.4996 15 22.5H21C21.3977 22.4996 21.779 22.3414 22.0602 22.0602C22.3414 21.779 22.4996 21.3977 22.5 21V15C22.4996 14.6023 22.3414 14.221 22.0602 13.9398C21.779 13.6586 21.3977 13.5004 21 13.5H15C14.6023 13.5004 14.221 13.6586 13.9398 13.9398C13.6586 14.221 13.5004 14.6023 13.5 15V19.5H6V16.5H9C9.3977 16.4996 9.779 16.3414 10.0602 16.0602C10.3414 15.779 10.4996 15.3977 10.5 15V9C10.4996 8.6023 10.3414 8.221 10.0602 7.93978C9.779 7.65856 9.3977 7.5004 9 7.5H6.75V4.5H13.5V9C13.5004 9.3977 13.6586 9.779 13.9398 10.0602C14.221 10.3414 14.6023 10.4996 15 10.5ZM15 21V18H21V21H15ZM21 15V16.5H15V15H21ZM3 15V12H9V15H3ZM9 10.5H3V9H9V10.5ZM15 9V6H21V9H15ZM21 3V4.5H15V3H21Z" fill="currentColor"/>
</svg>
