<svg width="24" height="24" viewBox="0 0 24 24" fill="none" xmlns="http://www.w3.org/2000/svg">
<path d="M15.2134 3C14.31 2.99979 13.4191 3.21122 12.6121 3.61734C11.8051 4.02346 11.1044 4.61298 10.5663 5.33866C10.0281 6.06434 9.66743 6.906 9.51309 7.79619C9.35875 8.68638 9.41505 9.60035 9.6775 10.4649L3 17.1429V21H6.85686L13.5344 14.322C14.3301 14.5636 15.1685 14.6307 15.9926 14.5189C16.8166 14.4071 17.6069 14.1189 18.3095 13.674C19.0121 13.2291 19.6105 12.638 20.064 11.9409C20.5175 11.2438 20.8154 10.4571 20.9374 9.6345C21.0594 8.81185 21.0026 7.97256 20.771 7.17384C20.5393 6.37512 20.1381 5.63574 19.5949 5.00607C19.0516 4.37641 18.379 3.87128 17.6229 3.52509C16.8668 3.17891 16.045 2.99981 15.2134 3ZM15.2134 13.2857C14.7708 13.2855 14.3307 13.2201 13.9072 13.0916L13.1699 12.8679L10.5806 15.4573L9.69421 14.5714L8.78528 15.4804L9.67172 16.3669L8.65222 17.3865L7.76579 16.5L6.85686 17.409L7.74329 18.2955L6.32461 19.7143H4.28562V17.6751L11.1315 10.8294L10.9078 10.092C10.6331 9.18621 10.6509 8.21684 10.9588 7.32178C11.2668 6.42672 11.849 5.65155 12.6229 5.10653C13.3967 4.56152 14.3227 4.27441 15.2691 4.28605C16.2155 4.2977 17.1341 4.6075 17.8943 5.17139C18.6545 5.73528 19.2176 6.52454 19.5034 7.42691C19.7892 8.32927 19.7832 9.29879 19.4862 10.1975C19.1893 11.0963 18.6165 11.8785 17.8494 12.433C17.0823 12.9874 16.1599 13.2858 15.2134 13.2857Z" fill="currentColor"/>
<path d="M16 9C16.5523 9 17 8.55228 17 8C17 7.44772 16.5523 7 16 7C15.4477 7 15 7.44772 15 8C15 8.55228 15.4477 9 16 9Z" fill="currentColor"/>
</svg>
