<svg width="17" height="17" viewBox="0 0 17 17" fill="none" xmlns="http://www.w3.org/2000/svg">
<g id="password 1" clip-path="url(#clip0_45186_59973)">
<path id="Vector" d="M11.3032 6.83691C11.8555 6.83691 12.3032 6.3892 12.3032 5.83691C12.3032 5.28463 11.8555 4.83691 11.3032 4.83691C10.7509 4.83691 10.3032 5.28463 10.3032 5.83691C10.3032 6.3892 10.7509 6.83691 11.3032 6.83691Z" fill="currentColor"/>
<g id="Union">
<path fill-rule="evenodd" clip-rule="evenodd" d="M9.45239 10.6879L14.6053 15.8371L15.5478 14.894L2.24569 1.60156L1.30322 2.54472L6.45129 7.68903L1.30326 12.8371V15.8371H4.30326L9.45239 10.6879ZM8.74491 9.98097L7.15868 8.3959L2.30326 13.2513V14.8371H3.88906L4.99261 13.7335L4.30326 13.0442L5.01031 12.3371L5.69966 13.0265L6.49261 12.2335L5.80326 11.5442L6.51031 10.8371L7.19961 11.5263L8.74491 9.98097Z" fill="currentColor"/>
<path d="M13.2118 10.1392C12.9479 10.3063 12.6681 10.4449 12.3772 10.5534L11.5748 9.7511C12.0331 9.64757 12.4686 9.45222 12.8537 9.17391C13.4504 8.7427 13.8959 8.13431 14.1269 7.43528C14.3579 6.73624 14.3626 5.98217 14.1403 5.28032C13.918 4.57847 13.4801 3.96459 12.8888 3.526C12.2975 3.08741 11.5829 2.84644 10.8468 2.83738C10.1106 2.82831 9.39033 3.05161 8.7884 3.47551C8.18648 3.89941 7.73355 4.50232 7.49404 5.19848C7.45244 5.31941 7.41765 5.44208 7.38967 5.56593L6.58708 4.76334C6.73416 4.36912 6.93631 3.99617 7.1886 3.656C7.6072 3.09159 8.15219 2.63308 8.77989 2.31722C9.4076 2.00136 10.1006 1.83693 10.8033 1.83711C11.4501 1.83691 12.0894 1.97617 12.6776 2.2454C13.2658 2.51463 13.789 2.9075 14.2116 3.39724C14.6342 3.88698 14.9463 4.46208 15.1265 5.08333C15.3067 5.70458 15.3509 6.35739 15.256 6.99726C15.1611 7.63713 14.9294 8.24902 14.5766 8.79122C14.2238 9.33343 13.7583 9.79321 13.2118 10.1392Z" fill="currentColor"/>
</g>
</g>
<defs>
<clipPath id="clip0_45186_59973">
<rect width="16" height="16" fill="white" transform="translate(0.303223 0.836914)"/>
</clipPath>
</defs>
</svg>
