<svg width="24" height="25" viewBox="0 0 24 25" fill="none" xmlns="http://www.w3.org/2000/svg">
<path d="M20.4802 5.49131L22.5 3.47171L21.4394 2.41113L19.4198 4.43081L18.6 3.61113C18.4646 3.46888 18.3017 3.35563 18.1212 3.27824C17.9407 3.20086 17.7464 3.16095 17.55 3.16095C17.3536 3.16095 17.1593 3.20086 16.9788 3.27824C16.7983 3.35563 16.6354 3.46888 16.5 3.61113L3 17.1111V21.9111H7.8L21.3 8.41113C21.4422 8.27573 21.5555 8.11284 21.6329 7.93234C21.7102 7.75185 21.7501 7.55752 21.7501 7.36113C21.7501 7.16475 21.7102 6.97042 21.6329 6.78992C21.5555 6.60943 21.4422 6.44654 21.3 6.31113L20.4802 5.49131ZM7.2 20.4111H4.5V17.7111L17.55 4.66113L20.25 7.36113L7.2 20.4111Z" fill="currentColor"/>
<path d="M12.4395 3.91114L6.75002 9.60057L7.81057 10.6611L13.5 4.97169L12.4395 3.91114Z" fill="currentColor"/>
</svg>
