<svg width="24" height="24" viewBox="0 0 24 24" fill="none" xmlns="http://www.w3.org/2000/svg">
<path d="M6.8925 13.92C5.04887 11.1264 3.96572 7.90019 3.75 4.56V4.5C3.75 4.30109 3.82902 4.11032 3.96967 3.96967C4.11032 3.82902 4.30109 3.75 4.5 3.75H8.46L9.585 6.5775L7.455 8.73L7.5 9.09C7.68388 10.1873 8.05423 11.2451 8.595 12.2175L9.69 11.1225C9.39103 10.5257 9.17889 9.8893 9.06 9.2325L10.6575 7.62C10.8652 7.412 11.0072 7.14758 11.0658 6.85957C11.1245 6.57156 11.0973 6.27266 10.9875 6L9.8475 3.195C9.73635 2.9159 9.54395 2.67661 9.29523 2.50812C9.0465 2.33963 8.75292 2.24971 8.4525 2.25H4.32C4.02487 2.27274 3.73713 2.35349 3.47326 2.48763C3.20939 2.62177 2.97458 2.80665 2.78229 3.03169C2.59 3.25673 2.444 3.5175 2.35266 3.79906C2.26132 4.08062 2.22643 4.37744 2.25 4.6725C2.51453 8.37184 3.75405 11.9351 5.8425 15L6.8925 13.92Z" fill="currentColor"/>
<path d="M20.8275 14.145L18 13.0125C17.7285 12.8983 17.4294 12.8666 17.14 12.9213C16.8505 12.9759 16.5836 13.1146 16.3725 13.32L14.745 14.9325C13.5874 14.7325 12.5004 14.2393 11.5875 13.5L22.5 2.5575L21.4425 1.5L1.5 21.4425L2.5575 22.5L7.8075 17.25C10.3425 19.635 14.0175 21.465 19.35 21.75H19.5C20.0967 21.75 20.669 21.5129 21.091 21.091C21.5129 20.669 21.75 20.0967 21.75 19.5V15.54C21.7521 15.2422 21.6655 14.9504 21.5012 14.702C21.3369 14.4536 21.1024 14.2597 20.8275 14.145ZM20.25 19.5V19.545C20.2443 19.6436 20.2191 19.74 20.176 19.8288C20.1329 19.9176 20.0727 19.9971 19.9989 20.0626C19.925 20.1281 19.839 20.1783 19.7456 20.2105C19.6523 20.2427 19.5535 20.2561 19.455 20.25C14.5725 19.9725 11.205 18.345 8.8725 16.185L10.5 14.58C11.7409 15.653 13.2791 16.3227 14.91 16.5L15.27 16.545L17.4225 14.4075L20.25 15.54V19.5Z" fill="currentColor"/>
</svg>
