<svg width="24" height="25" viewBox="0 0 24 25" fill="none" xmlns="http://www.w3.org/2000/svg">
<g clip-path="url(#clip0_7764_47264)">
<path d="M13.5 11.1287H12V12.6287H13.5V11.1287Z" fill="currentColor"/>
<path d="M16.5 11.1287H15V12.6287H16.5V11.1287Z" fill="currentColor"/>
<path d="M19.5 11.1287H18V12.6287H19.5V11.1287Z" fill="currentColor"/>
<path d="M13.5 14.1287H12V15.6287H13.5V14.1287Z" fill="currentColor"/>
<path d="M16.5 14.1287H15V15.6287H16.5V14.1287Z" fill="currentColor"/>
<path d="M19.5 14.1287H18V15.6287H19.5V14.1287Z" fill="currentColor"/>
<path d="M13.5 17.1287H12V18.6287H13.5V17.1287Z" fill="currentColor"/>
<path d="M16.5 17.1287H15V18.6287H16.5V17.1287Z" fill="currentColor"/>
<path d="M19.5 17.1287H18V18.6287H19.5V17.1287Z" fill="currentColor"/>
<path d="M19.5 8.12866H12V9.62866H19.5V8.12866Z" fill="currentColor"/>
<path d="M21 5.12866H10.5V4.37866C10.4995 3.98099 10.3413 3.59975 10.0601 3.31855C9.77891 3.03735 9.39767 2.87916 9 2.87866H6C5.60233 2.87916 5.22109 3.03735 4.93989 3.31855C4.65869 3.59975 4.5005 3.98099 4.5 4.37866V5.12866H3C2.60233 5.12916 2.22108 5.28735 1.93989 5.56855C1.65869 5.84975 1.5005 6.23099 1.5 6.62866V20.1287C1.5005 20.5263 1.65869 20.9076 1.93989 21.1888C2.22108 21.47 2.60233 21.6282 3 21.6287H21C21.3977 21.6282 21.7789 21.47 22.0601 21.1888C22.3413 20.9076 22.4995 20.5263 22.5 20.1287V6.62866C22.4995 6.23099 22.3413 5.84975 22.0601 5.56855C21.7789 5.28735 21.3977 5.12916 21 5.12866ZM6 4.37866H9V17.1287H6V4.37866ZM21 20.1287H3V6.62866H4.5V17.1287C4.5005 17.5263 4.65869 17.9076 4.93989 18.1888C5.22109 18.47 5.60233 18.6282 6 18.6287H9C9.39767 18.6282 9.77891 18.47 10.0601 18.1888C10.3413 17.9076 10.4995 17.5263 10.5 17.1287V6.62866H21V20.1287Z" fill="currentColor"/>
</g>
<defs>
<clipPath id="clip0_7764_47264">
<rect width="24" height="24" fill="white" transform="translate(0 0.628662)"/>
</clipPath>
</defs>
</svg>
