<svg width="24" height="24" viewBox="0 0 24 24" fill="none" xmlns="http://www.w3.org/2000/svg">
<g clip-path="url(#clip0_2992_32872)">
<path d="M16.5 6H15.75V1.5H14.25V6H9.75V1.5H8.25V6H7.5C7.10218 6 6.72064 6.15804 6.43934 6.43934C6.15804 6.72064 6 7.10218 6 7.5V12C6.00237 13.4602 6.53669 14.8696 7.50299 15.9644C8.46929 17.0591 9.80137 17.7643 11.25 17.948V22.5H12.75V17.948C14.1986 17.7643 15.5307 17.0591 16.497 15.9644C17.4633 14.8696 17.9976 13.4602 18 12V7.5C18 7.10218 17.842 6.72064 17.5607 6.43934C17.2794 6.15804 16.8978 6 16.5 6ZM16.5 12C16.5 13.1935 16.0259 14.3381 15.182 15.182C14.3381 16.0259 13.1935 16.5 12 16.5C10.8065 16.5 9.66193 16.0259 8.81802 15.182C7.97411 14.3381 7.5 13.1935 7.5 12V7.5H16.5V12Z" fill="currentColor"/>
</g>
<defs>
<clipPath id="clip0_2992_32872">
<rect width="24" height="24" fill="currentColor"/>
</clipPath>
</defs>
</svg>
