<svg width="20" height="21" viewBox="0 0 20 21" fill="none" xmlns="http://www.w3.org/2000/svg">
<g id="prefix-icon">
<g id="Vector">
<path d="M13.75 4.64332L13.1731 5.67314C14.3829 6.39386 15.3285 7.50635 15.8631 8.83807C16.3977 10.1698 16.4915 11.6463 16.1299 13.0386C15.7683 14.431 14.9716 15.6613 13.8633 16.5388C12.755 17.4163 11.397 17.8919 10 17.8919C8.603 17.8919 7.24503 17.4163 6.13671 16.5388C5.02839 15.6613 4.23166 14.431 3.87009 13.0386C3.50852 11.6463 3.60231 10.1698 4.13692 8.83807C4.67153 7.50635 5.61708 6.39386 6.82692 5.67314L6.25 4.64332C4.82019 5.49508 3.70272 6.80984 3.07091 8.38369C2.43909 9.95753 2.32825 11.7025 2.75556 13.348C3.18287 14.9935 4.12446 16.4475 5.43429 17.4845C6.74412 18.5216 8.34899 19.0837 10 19.0837C11.651 19.0837 13.2559 18.5216 14.5657 17.4845C15.8755 16.4475 16.8171 14.9935 17.2444 13.348C17.6718 11.7025 17.5609 9.95753 16.9291 8.38369C16.2973 6.80984 15.1798 5.49508 13.75 4.64332Z" fill="currentColor"/>
<path d="M9.42308 2.41699H10.5769V10.7508H9.42308V2.41699Z" fill="currentColor"/>
</g>
</g>
</svg>
