<svg width="24" height="25" viewBox="0 0 24 25" fill="none" xmlns="http://www.w3.org/2000/svg">
<path d="M12.4989 3.24902H16.9989C17.3966 3.24944 17.7779 3.40761 18.0591 3.68882C18.3403 3.97004 18.4985 4.35133 18.4989 4.74902V19.749C18.4985 20.1467 18.3403 20.528 18.0591 20.8092C17.7779 21.0904 17.3966 21.2486 16.9989 21.249H12.4989C12.1012 21.2486 11.7199 21.0904 11.4387 20.8092C11.1575 20.528 10.9993 20.1467 10.9989 19.749V4.74902C10.9993 4.35133 11.1575 3.97004 11.4387 3.68882C11.7199 3.40761 12.1012 3.24944 12.4989 3.24902ZM16.9989 19.749V4.74902H12.4989V19.749H16.9989Z" fill="currentColor"/>
<path d="M5.50098 21.249H6.9989V3.24902H5.50098V21.249Z" fill="currentColor"/>
</svg>
