<svg width="18" height="18" viewBox="0 0 18 18" fill="none" xmlns="http://www.w3.org/2000/svg">
<g id="lm/etc/quotes">
<g id="Vector">
<path d="M6.8125 8.60492H3.59141C3.69304 7.92808 3.93473 7.27987 4.30103 6.7017C4.66732 6.12354 5.15018 5.62812 5.71875 5.24711L6.69766 4.59086L6.09609 3.68304L5.11719 4.33929C4.2932 4.8884 3.6175 5.63241 3.15004 6.50531C2.68259 7.37822 2.43783 8.35301 2.4375 9.3432V12.9799C2.4375 13.27 2.55273 13.5482 2.75785 13.7533C2.96297 13.9584 3.24117 14.0737 3.53125 14.0737H6.8125C7.10258 14.0737 7.38078 13.9584 7.5859 13.7533C7.79102 13.5482 7.90625 13.27 7.90625 12.9799V9.69867C7.90625 9.40859 7.79102 9.13039 7.5859 8.92527C7.38078 8.72015 7.10258 8.60492 6.8125 8.60492Z" fill="currentColor"/>
<path d="M14.4688 8.60492H11.2477C11.3493 7.92808 11.591 7.27987 11.9573 6.7017C12.3236 6.12354 12.8064 5.62812 13.375 5.24711L14.3539 4.59086L13.7578 3.68304L12.7734 4.33929C11.9494 4.8884 11.2737 5.63241 10.8063 6.50531C10.3388 7.37822 10.0941 8.35301 10.0938 9.3432V12.9799C10.0938 13.27 10.209 13.5482 10.4141 13.7533C10.6192 13.9584 10.8974 14.0737 11.1875 14.0737H14.4688C14.7588 14.0737 15.037 13.9584 15.2421 13.7533C15.4473 13.5482 15.5625 13.27 15.5625 12.9799V9.69867C15.5625 9.40859 15.4473 9.13039 15.2421 8.92527C15.037 8.72015 14.7588 8.60492 14.4688 8.60492Z" fill="currentColor"/>
</g>
</g>
</svg>
