<svg width="24" height="24" viewBox="0 0 24 24" fill="none" xmlns="http://www.w3.org/2000/svg">
<path d="M17.25 15.75H6.75V17.25H17.25V15.75Z" fill="currentColor"/>
<path d="M8.25 10.5001C7.95333 10.5001 7.66332 10.588 7.41665 10.7529C7.16997 10.9177 6.97771 11.152 6.86418 11.426C6.75065 11.7001 6.72094 12.0017 6.77882 12.2927C6.8367 12.5837 6.97956 12.851 7.18934 13.0607C7.39912 13.2705 7.66639 13.4134 7.95737 13.4713C8.24834 13.5291 8.54994 13.4994 8.82403 13.3859C9.09811 13.2724 9.33238 13.0801 9.49721 12.8334C9.66203 12.5868 9.75 12.2967 9.75 12.0001C9.75195 11.8025 9.71447 11.6066 9.63978 11.4238C9.56509 11.2409 9.45467 11.0748 9.31499 10.9351C9.17532 10.7954 9.00918 10.685 8.82632 10.6103C8.64345 10.5356 8.44752 10.4981 8.25 10.5001V10.5001Z" fill="currentColor"/>
<path d="M15.75 10.5001C15.4533 10.5001 15.1633 10.588 14.9166 10.7529C14.67 10.9177 14.4777 11.152 14.3642 11.426C14.2506 11.7001 14.2209 12.0017 14.2788 12.2927C14.3367 12.5837 14.4796 12.851 14.6893 13.0607C14.8991 13.2705 15.1664 13.4134 15.4574 13.4713C15.7483 13.5291 16.0499 13.4994 16.324 13.3859C16.5981 13.2724 16.8324 13.0801 16.9972 12.8334C17.162 12.5868 17.25 12.2967 17.25 12.0001C17.2519 11.8025 17.2145 11.6066 17.1398 11.4238C17.0651 11.2409 16.9547 11.0748 16.815 10.9351C16.6753 10.7954 16.5092 10.685 16.3263 10.6103C16.1435 10.5356 15.9475 10.4981 15.75 10.5001V10.5001Z" fill="currentColor"/>
<path d="M21 6H13.8106L15.3647 4.44578C15.4903 4.48017 15.6198 4.49839 15.75 4.5C16.0467 4.5 16.3367 4.41203 16.5834 4.24721C16.83 4.08238 17.0223 3.84812 17.1358 3.57403C17.2494 3.29994 17.2791 2.99834 17.2212 2.70737C17.1633 2.41639 17.0204 2.14912 16.8107 1.93934C16.6009 1.72956 16.3336 1.5867 16.0426 1.52882C15.7517 1.47094 15.4501 1.50065 15.176 1.61418C14.9019 1.72771 14.6676 1.91997 14.5028 2.16665C14.338 2.41332 14.25 2.70333 14.25 3C14.2516 3.13021 14.2698 3.25968 14.3042 3.38528L11.6894 6H3C2.60233 6.0005 2.22108 6.15869 1.93989 6.43989C1.65869 6.72109 1.5005 7.10233 1.5 7.5V19.5C1.5005 19.8977 1.65869 20.2789 1.93989 20.5601C2.22108 20.8413 2.60233 20.9995 3 21H21C21.3977 20.9995 21.7789 20.8413 22.0601 20.5601C22.3413 20.2789 22.4995 19.8977 22.5 19.5V7.5C22.4995 7.10233 22.3413 6.72109 22.0601 6.43989C21.7789 6.15869 21.3977 6.0005 21 6V6ZM3 19.5V7.5H21V19.5H3Z" fill="currentColor"/>
</svg>
