<svg width="24" height="24" viewBox="0 0 24 24" fill="none" xmlns="http://www.w3.org/2000/svg">
<path fill="currentColor" d="M 20.585938 11.332031 L 4.085938 3.082031 C 3.824219 2.949219 3.507812 2.984375 3.277344 3.171875 C 3.058594 3.355469 2.964844 3.644531 3.03125 3.921875 L 5.25 12 L 3 20.054688 C 2.9375 20.285156 2.988281 20.53125 3.136719 20.714844 C 3.285156 20.902344 3.511719 21.007812 3.75 21 C 3.867188 21 3.984375 20.972656 4.085938 20.917969 L 20.585938 12.667969 C 20.839844 12.539062 20.996094 12.28125 20.996094 12 C 20.996094 11.71875 20.839844 11.460938 20.585938 11.332031 Z M 4.914062 18.832031 L 6.570312 12.75 L 13.5 12.75 L 13.5 11.25 L 6.570312 11.25 L 4.914062 5.167969 L 18.570312 12 Z M 4.914062 18.832031 "/>
</svg>
