<svg width="19" height="18" viewBox="0 0 19 18" fill="none" xmlns="http://www.w3.org/2000/svg">
<path d="M18.0875 8.33263L1.58754 0.0826268C1.45821 0.0179519 1.31295 -0.00796197 1.16924 0.00800564C1.02554 0.0239732 0.889506 0.0811415 0.777535 0.172627C0.670604 0.262246 0.59079 0.379917 0.547067 0.51241C0.503345 0.644903 0.497446 0.786965 0.530035 0.922627L2.51754 8.25013H11V9.75013H2.51754L0.500035 17.0551C0.469455 17.1684 0.465886 17.2873 0.489614 17.4022C0.513342 17.5171 0.563705 17.6249 0.636655 17.7168C0.709604 17.8087 0.803104 17.8822 0.909635 17.9315C1.01617 17.9807 1.13276 18.0042 1.25004 18.0001C1.36744 17.9994 1.48304 17.9712 1.58754 17.9176L18.0875 9.66763C18.2104 9.60469 18.3135 9.50907 18.3855 9.39129C18.4575 9.27352 18.4956 9.13816 18.4956 9.00013C18.4956 8.86209 18.4575 8.72674 18.3855 8.60896C18.3135 8.49119 18.2104 8.39557 18.0875 8.33263Z" fill="currentColor"/>
</svg>
