<svg width="24" height="24" viewBox="0 0 24 24" fill="none" xmlns="http://www.w3.org/2000/svg">
<g clip-path="url(#clip0_7550_33214)">
<path d="M4.5 22.5H19.5C19.8978 22.5 20.2794 22.342 20.5607 22.0607C20.842 21.7794 21 21.3978 21 21V16.5C21 16.1022 20.842 15.7206 20.5607 15.4393C20.2794 15.158 19.8978 15 19.5 15H4.5C4.10218 15 3.72064 15.158 3.43934 15.4393C3.15804 15.7206 3 16.1022 3 16.5V21C3 21.3978 3.15804 21.7794 3.43934 22.0607C3.72064 22.342 4.10218 22.5 4.5 22.5ZM4.5 16.5H19.5V21H4.5V16.5Z" fill="currentColor"/>
<path d="M6.75 19.5C7.16421 19.5 7.5 19.1642 7.5 18.75C7.5 18.3358 7.16421 18 6.75 18C6.33579 18 6 18.3358 6 18.75C6 19.1642 6.33579 19.5 6.75 19.5Z" fill="currentColor"/>
<path d="M19.5 1.50007L18.4425 2.55757L20.3775 4.50007H16.7362C16.2043 3.35717 15.2781 2.44446 14.1275 1.92945C12.9769 1.41444 11.6791 1.33169 10.4724 1.69639C9.26573 2.06109 8.23105 2.84877 7.5583 3.91485C6.88554 4.98093 6.61985 6.25388 6.81 7.50007H3.6225L5.5575 5.55757L4.5 4.50007L0.75 8.25007L4.5 12.0001L5.5575 10.9426L3.6225 9.00007H7.26375C7.79565 10.143 8.72191 11.0557 9.87252 11.5707C11.0231 12.0857 12.3209 12.1684 13.5276 11.8037C14.7343 11.439 15.7689 10.6514 16.4417 9.58528C17.1145 8.5192 17.3801 7.24625 17.19 6.00007H20.3775L18.4425 7.94257L19.5 9.00007L23.25 5.25007L19.5 1.50007ZM15.75 6.75007C15.7527 7.53608 15.5075 8.30294 15.0492 8.94158C14.591 9.58021 13.9431 10.0581 13.1976 10.3073C12.4521 10.5565 11.6471 10.5643 10.8969 10.3296C10.1467 10.0949 9.48966 9.62969 9.01912 9.00007H12V7.50007H8.32582C8.15264 6.66709 8.26872 5.79995 8.65491 5.04186C9.04109 4.28376 9.67428 3.68004 10.4499 3.3304C11.2255 2.98076 12.0972 2.90611 12.921 3.11876C13.7448 3.33142 14.4714 3.81868 14.9809 4.50007H12V6.00007H15.6742C15.7246 6.24689 15.75 6.49815 15.75 6.75007Z" fill="currentColor"/>
</g>
<defs>
<clipPath id="clip0_7550_33214">
<rect width="24" height="24" fill="white"/>
</clipPath>
</defs>
</svg>
