<svg width="25" height="25" viewBox="0 0 25 25" fill="none" xmlns="http://www.w3.org/2000/svg">
<g clip-path="url(#clip0_2913_18689)">
<path d="M12.5 2C11.3133 2 10.1533 2.35189 9.16658 3.01118C8.17989 3.67047 7.41085 4.60754 6.95673 5.7039C6.5026 6.80026 6.38378 8.00666 6.61529 9.17054C6.8468 10.3344 7.41825 11.4035 8.25736 12.2426C9.09648 13.0818 10.1656 13.6532 11.3295 13.8847C12.4933 14.1162 13.6997 13.9974 14.7961 13.5433C15.8925 13.0892 16.8295 12.3201 17.4888 11.3334C18.1481 10.3467 18.5 9.18669 18.5 8C18.4982 6.40926 17.8654 4.8842 16.7406 3.75938C15.6158 2.63455 14.0907 2.00183 12.5 2ZM16.9325 7.25H15.1043C15.0667 6.1369 14.8667 5.03527 14.5105 3.98C15.1424 4.29691 15.6909 4.75802 16.1116 5.32607C16.5323 5.89412 16.8135 6.55318 16.9325 7.25ZM12.5165 12.4992H12.5108C12.2248 12.4088 11.529 11.1333 11.4016 8.75H13.5985C13.4714 11.1322 12.7783 12.4077 12.5165 12.4992ZM11.4016 7.25C11.5286 4.86777 12.2217 3.59225 12.4835 3.50075H12.4892C12.7752 3.5912 13.471 4.86672 13.5985 7.25H11.4016ZM10.4895 3.98C10.1334 5.03527 9.93332 6.1369 9.8957 7.25H8.0675C8.18646 6.55318 8.46766 5.89412 8.8884 5.32607C9.30913 4.75802 9.8576 4.29691 10.4895 3.98ZM8.0675 8.75H9.89548C9.93309 9.8631 10.1331 10.9647 10.4893 12.02C9.85742 11.7031 9.309 11.2419 8.8883 10.6739C8.4676 10.1058 8.18643 9.44679 8.0675 8.75ZM14.51 12.02C14.8663 10.9648 15.0665 9.86313 15.1043 8.75H16.9325C16.8135 9.44682 16.5323 10.1059 16.1116 10.6739C15.6909 11.242 15.1419 11.7031 14.51 12.02Z" fill="currentColor"/>
<path d="M21.5 23H3.5C3.1023 22.9996 2.72101 22.8414 2.4398 22.5602C2.15859 22.279 2.00042 21.8977 2 21.5V17C2.00042 16.6023 2.15859 16.221 2.4398 15.9398C2.72101 15.6586 3.1023 15.5004 3.5 15.5H21.5C21.8977 15.5004 22.279 15.6586 22.5602 15.9398C22.8414 16.221 22.9996 16.6023 23 17V21.5C22.9996 21.8977 22.8414 22.279 22.5602 22.5602C22.279 22.8414 21.8977 22.9996 21.5 23ZM3.5 17V21.5H21.5V17H3.5Z" fill="currentColor"/>
<path d="M5.75 20C6.16421 20 6.5 19.6642 6.5 19.25C6.5 18.8358 6.16421 18.5 5.75 18.5C5.33579 18.5 5 18.8358 5 19.25C5 19.6642 5.33579 20 5.75 20Z" fill="currentColor"/>
</g>
<defs>
<clipPath id="clip0_2913_18689">
<rect width="24" height="24" fill="white" transform="translate(0.5 0.5)"/>
</clipPath>
</defs>
</svg>
