<svg width="24" height="24" viewBox="0 0 24 24" fill="none" xmlns="http://www.w3.org/2000/svg">
<path d="M20.2501 12.5701C20.2501 12.3826 20.2501 12.1951 20.2501 12.0001C20.2501 11.8051 20.2501 11.6176 20.2501 11.4226L21.6901 10.1626C21.9555 9.9286 22.1297 9.60833 22.1819 9.25836C22.234 8.90839 22.1608 8.55125 21.9751 8.25006L20.2051 5.25006C20.0735 5.02226 19.8844 4.83305 19.6567 4.70141C19.429 4.56977 19.1706 4.50033 18.9076 4.50006C18.7446 4.49881 18.5824 4.52414 18.4276 4.57506L16.6051 5.19006C16.2904 4.98097 15.9622 4.79305 15.6226 4.62756L15.2401 2.73756C15.1715 2.39226 14.9836 2.08209 14.7094 1.86134C14.4352 1.64058 14.092 1.52332 13.7401 1.53006H10.2301C9.87809 1.52332 9.53496 1.64058 9.26073 1.86134C8.9865 2.08209 8.79865 2.39226 8.73007 2.73756L8.34757 4.62756C8.00552 4.79301 7.67479 4.98092 7.35757 5.19006L5.57257 4.54506C5.41604 4.50428 5.25395 4.48908 5.09257 4.50006C4.82952 4.50033 4.57118 4.56977 4.34344 4.70141C4.1157 4.83305 3.92659 5.02226 3.79507 5.25006L2.02507 8.25006C1.85001 8.5508 1.78496 8.90305 1.84105 9.24648C1.89715 9.58991 2.07091 9.90316 2.33257 10.1326L3.75007 11.4301C3.75007 11.6176 3.75007 11.8051 3.75007 12.0001C3.75007 12.1951 3.75007 12.3826 3.75007 12.5776L2.33257 13.8376C2.06352 14.0686 1.88501 14.3874 1.82872 14.7375C1.77242 15.0876 1.84199 15.4464 2.02507 15.7501L3.79507 18.7501C3.92659 18.9779 4.1157 19.1671 4.34344 19.2987C4.57118 19.4304 4.82952 19.4998 5.09257 19.5001C5.25558 19.5013 5.41771 19.476 5.57257 19.4251L7.39507 18.8101C7.70972 19.0192 8.03795 19.2071 8.37757 19.3726L8.76007 21.2626C8.82865 21.6079 9.0165 21.918 9.29073 22.1388C9.56495 22.3595 9.90809 22.4768 10.2601 22.4701H13.8001C14.152 22.4768 14.4952 22.3595 14.7694 22.1388C15.0436 21.918 15.2315 21.6079 15.3001 21.2626L15.6826 19.3726C16.0246 19.2071 16.3553 19.0192 16.6726 18.8101L18.4876 19.4251C18.6424 19.476 18.8046 19.5013 18.9676 19.5001C19.2306 19.4998 19.489 19.4304 19.7167 19.2987C19.9444 19.1671 20.1335 18.9779 20.2651 18.7501L21.9751 15.7501C22.1501 15.4493 22.2152 15.0971 22.1591 14.7536C22.103 14.4102 21.9292 14.097 21.6676 13.8676L20.2501 12.5701ZM18.9076 18.0001L16.3351 17.1301C15.7329 17.6401 15.0446 18.0389 14.3026 18.3076L13.7701 21.0001H10.2301L9.69757 18.3376C8.96138 18.0612 8.27686 17.6632 7.67257 17.1601L5.09257 18.0001L3.32257 15.0001L5.36257 13.2001C5.22389 12.4237 5.22389 11.6289 5.36257 10.8526L3.32257 9.00006L5.09257 6.00006L7.66507 6.87006C8.26727 6.35998 8.95552 5.96125 9.69757 5.69256L10.2301 3.00006H13.7701L14.3026 5.66256C15.0388 5.93888 15.7233 6.33692 16.3276 6.84006L18.9076 6.00006L20.6776 9.00006L18.6376 10.8001C18.7762 11.5764 18.7762 12.3712 18.6376 13.1476L20.6776 15.0001L18.9076 18.0001Z" fill="currentColor"/>
<path d="M12 16.5C11.11 16.5 10.24 16.2361 9.49994 15.7416C8.75991 15.2471 8.18314 14.5443 7.84254 13.7221C7.50195 12.8998 7.41283 11.995 7.58647 11.1221C7.7601 10.2492 8.18868 9.44736 8.81802 8.81802C9.44736 8.18868 10.2492 7.7601 11.1221 7.58647C11.995 7.41283 12.8998 7.50195 13.7221 7.84254C14.5443 8.18314 15.2471 8.75991 15.7416 9.49994C16.2361 10.24 16.5 11.11 16.5 12C16.506 12.5926 16.3937 13.1805 16.1697 13.7292C15.9457 14.2779 15.6145 14.7763 15.1954 15.1954C14.7763 15.6145 14.2779 15.9457 13.7292 16.1697C13.1805 16.3937 12.5926 16.506 12 16.5ZM12 9C11.6035 8.99077 11.2093 9.06205 10.8411 9.20954C10.473 9.35704 10.1386 9.57768 9.85812 9.85812C9.57768 10.1386 9.35704 10.473 9.20954 10.8411C9.06205 11.2093 8.99077 11.6035 9 12C8.99077 12.3965 9.06205 12.7907 9.20954 13.1589C9.35704 13.527 9.57768 13.8615 9.85812 14.1419C10.1386 14.4223 10.473 14.643 10.8411 14.7905C11.2093 14.938 11.6035 15.0092 12 15C12.3965 15.0092 12.7907 14.938 13.1589 14.7905C13.527 14.643 13.8615 14.4223 14.1419 14.1419C14.4223 13.8615 14.643 13.527 14.7905 13.1589C14.938 12.7907 15.0092 12.3965 15 12C15.0092 11.6035 14.938 11.2093 14.7905 10.8411C14.643 10.473 14.4223 10.1386 14.1419 9.85812C13.8615 9.57768 13.527 9.35704 13.1589 9.20954C12.7907 9.06205 12.3965 8.99077 12 9Z" fill="currentColor"/>
</svg>
