<svg width="33" height="33" viewBox="0 0 33 33" fill="none" xmlns="http://www.w3.org/2000/svg">
<path d="M16.5 30.7059L10.3242 27.413C8.56345 26.4764 7.09101 25.078 6.06492 23.3678C5.03883 21.6576 4.49783 19.7003 4.50001 17.7059V4.70593C4.50059 4.17568 4.71149 3.66731 5.08644 3.29236C5.46138 2.91742 5.96975 2.70651 6.50001 2.70593H18.5358V2.71609H21.456C21.8583 2.71609 22.2214 2.95719 22.3776 3.32797C22.5337 3.69875 22.4525 4.12699 22.1714 4.41481L15.7414 10.9984L18.434 15.0285C18.7188 15.4546 18.6352 16.027 18.2407 16.354L13.1479 20.5747L11.8717 19.0348L16.27 15.3896L13.6279 11.4353C13.3654 11.0423 13.4138 10.5191 13.744 10.181L19.0815 4.71609H13.4209V4.70593H6.50001V17.7059C6.49828 19.3377 6.94096 20.9392 7.78055 22.3385C8.62014 23.7377 9.82493 24.8819 11.2656 25.6482L16.5 28.4392L21.7344 25.6482C23.1751 24.8819 24.3799 23.7377 25.2195 22.3385C26.0591 20.9392 26.5017 19.3377 26.5 17.7059V5.68102H28.5L28.5 17.7059C28.5021 19.7003 27.9611 21.6575 26.935 23.3677C25.909 25.0778 24.4365 26.4762 22.6758 27.4128L16.5 30.7059Z" fill="currentColor"/>
</svg>
