<svg width="24" height="25" viewBox="0 0 24 25" fill="none" xmlns="http://www.w3.org/2000/svg">
<g clip-path="url(#clip0_12439_14607)">
<path d="M12 1.875C9.9233 1.875 7.89323 2.49081 6.16652 3.64457C4.4398 4.79832 3.09399 6.4382 2.29927 8.35682C1.50455 10.2754 1.29661 12.3866 1.70176 14.4234C2.1069 16.4602 3.10693 18.3312 4.57538 19.7996C6.04383 21.2681 7.91476 22.2681 9.95156 22.6732C11.9884 23.0784 14.0996 22.8705 16.0182 22.0757C17.9368 21.281 19.5767 19.9352 20.7304 18.2085C21.8842 16.4818 22.5 14.4517 22.5 12.375C22.5 9.59023 21.3938 6.91951 19.4246 4.95038C17.4555 2.98125 14.7848 1.875 12 1.875ZM13.8644 13.0305L7.11435 16.7805C7.00019 16.844 6.87144 16.8765 6.74084 16.8749C6.61024 16.8733 6.48232 16.8376 6.36974 16.7714C6.25716 16.7052 6.16383 16.6107 6.09898 16.4973C6.03413 16.384 6.00001 16.2556 6 16.125V8.625C6.00001 8.49439 6.03413 8.36605 6.09898 8.25267C6.16383 8.1393 6.25716 8.04482 6.36974 7.9786C6.48232 7.91238 6.61024 7.87671 6.74084 7.87511C6.87144 7.87351 7.00019 7.90605 7.11435 7.9695L13.8644 11.7195C13.9812 11.7845 14.0786 11.8795 14.1464 11.9948C14.2142 12.11 14.2499 12.2413 14.2499 12.375C14.2499 12.5087 14.2142 12.64 14.1464 12.7552C14.0786 12.8705 13.9812 12.9655 13.8644 13.0305ZM18 16.875H16.5V7.875H18V16.875Z" fill="currentColor"/>
</g>
<defs>
<clipPath id="clip0_12439_14607">
<rect width="24" height="24" fill="white" transform="translate(0 0.375)"/>
</clipPath>
</defs>
</svg>
