<svg width="24" height="24" viewBox="0 0 24 24" fill="none" xmlns="http://www.w3.org/2000/svg">
<g clip-path="url(#clip0_677_17443)">
<path d="M6.9375 9.75H5.25C4.95174 9.74966 4.66579 9.63102 4.45488 9.42012C4.24398 9.20921 4.12534 8.92326 4.125 8.625V6.375C4.12534 6.07674 4.24398 5.79079 4.45488 5.57988C4.66579 5.36898 4.95174 5.25034 5.25 5.25H6.9375V6.375H5.25V8.625H6.9375V9.75Z" fill="currentColor"/>
<path d="M11.4375 8.625H8.0625V9.75H11.4375V8.625Z" fill="currentColor"/>
<path d="M15.9375 8.625H12.5625V9.75H15.9375V8.625Z" fill="currentColor"/>
<path d="M18.75 9.75H17.0625V8.625H18.75V6.375H17.0625V5.25H18.75C19.0483 5.25034 19.3342 5.36898 19.5451 5.57988C19.756 5.79079 19.8747 6.07674 19.875 6.375V8.625C19.8747 8.92326 19.756 9.20921 19.5451 9.42012C19.3342 9.63102 19.0483 9.74966 18.75 9.75Z" fill="currentColor"/>
<path d="M15.9375 5.25H12.5625V6.375H15.9375V5.25Z" fill="currentColor"/>
<path d="M11.4375 5.25H8.0625V6.375H11.4375V5.25Z" fill="currentColor"/>
<path d="M18.75 18.75H5.25C4.95174 18.7497 4.66579 18.631 4.45488 18.4201C4.24398 18.2092 4.12534 17.9233 4.125 17.625V15.375C4.12534 15.0767 4.24398 14.7908 4.45488 14.5799C4.66579 14.369 4.95174 14.2503 5.25 14.25H18.75C19.0483 14.2503 19.3342 14.369 19.5451 14.5799C19.756 14.7908 19.8747 15.0767 19.875 15.375V17.625C19.8747 17.9233 19.756 18.2092 19.5451 18.4201C19.3342 18.631 19.0483 18.7497 18.75 18.75ZM5.25 15.375V17.625H18.75V15.375H5.25Z" fill="currentColor"/>
<path d="M19.875 11.4375H4.125V12.5625H19.875V11.4375Z" fill="currentColor"/>
</g>
<defs>
<clipPath id="clip0_677_17443">
<rect width="18" height="18" fill="white" transform="translate(3 3)"/>
</clipPath>
</defs>
</svg>
