<svg width="21" height="21" viewBox="0 0 21 21" fill="none" xmlns="http://www.w3.org/2000/svg">
<g id="stacked-move 1" clip-path="url(#clip0_38650_17563)">
<path id="Vector" d="M9.7085 17.9272H2.8335C2.50198 17.9272 2.18403 17.7955 1.94961 17.5611C1.71519 17.3267 1.5835 17.0088 1.5835 16.6772V7.30225C1.5835 6.97073 1.71519 6.65278 1.94961 6.41836C2.18403 6.18394 2.50198 6.05225 2.8335 6.05225H9.7085C10.04 6.05225 10.358 6.18394 10.5924 6.41836C10.8268 6.65278 10.9585 6.97073 10.9585 7.30225V16.6772C10.9585 17.0088 10.8268 17.3267 10.5924 17.5611C10.358 17.7955 10.04 17.9272 9.7085 17.9272ZM2.8335 7.30225V16.6772H9.7085V7.30225H2.8335Z" fill="currentColor"/>
<path id="Vector_2" d="M16.5835 4.17725L15.7022 5.0585L17.2085 6.67725H14.0835V4.17725C14.0835 3.84573 13.9518 3.52778 13.7174 3.29336C13.483 3.05894 13.165 2.92725 12.8335 2.92725H6.5835V4.17725H12.8335V12.9272H14.0835V7.92725H17.2085L15.7022 9.546L16.5835 10.4272L19.7085 7.30225L16.5835 4.17725Z" fill="currentColor"/>
</g>
<defs>
<clipPath id="clip0_38650_17563">
<rect width="20" height="20" fill="white" transform="translate(0.333496 0.427246)"/>
</clipPath>
</defs>
</svg>
