<svg width="24" height="25" viewBox="0 0 24 25" fill="none" xmlns="http://www.w3.org/2000/svg">
<g clip-path="url(#clip0_12439_14608)">
<path d="M12 2.125C9.9233 2.125 7.89323 2.74081 6.16652 3.89457C4.4398 5.04832 3.09399 6.6882 2.29927 8.60682C1.50455 10.5254 1.29661 12.6366 1.70176 14.6734C2.1069 16.7102 3.10693 18.5812 4.57538 20.0496C6.04383 21.5181 7.91476 22.5181 9.95156 22.9232C11.9884 23.3284 14.0996 23.1205 16.0182 22.3257C17.9368 21.531 19.5767 20.1852 20.7304 18.4585C21.8842 16.7318 22.5 14.7017 22.5 12.625C22.5 9.84023 21.3938 7.16951 19.4246 5.20038C17.4555 3.23125 14.7848 2.125 12 2.125ZM16.5 15.625C16.5 16.0228 16.342 16.4044 16.0607 16.6857C15.7794 16.967 15.3978 17.125 15 17.125H9C8.60218 17.125 8.22065 16.967 7.93935 16.6857C7.65804 16.4044 7.5 16.0228 7.5 15.625V9.625C7.5 9.22718 7.65804 8.84564 7.93935 8.56434C8.22065 8.28304 8.60218 8.125 9 8.125H15C15.3978 8.125 15.7794 8.28304 16.0607 8.56434C16.342 8.84564 16.5 9.22718 16.5 9.625V15.625Z" fill="currentColor"/>
</g>
<defs>
<clipPath id="clip0_12439_14608">
<rect width="24" height="24" fill="white" transform="translate(0 0.625)"/>
</clipPath>
</defs>
</svg>
