<svg width="24" height="24" viewBox="0 0 20 20" fill="none" xmlns="http://www.w3.org/2000/svg">
  <g fill="currentColor">
    <path d="M10.625 6.875h-1.25V12.5h1.25V6.875ZM11.875 1.25h-3.75V2.5h3.75V1.25Z"/>
    <path
      d="m17.4999 5.62495-.8875-.88125-1.4062 1.40625c-1.1512-1.32936-2.7702-2.16411-4.5208-2.33081A6.83751 6.83751 0 0 0 4.47561 14.6033c1.02292 1.4303 2.55759 2.4116 4.28516 2.7398a6.83773 6.83773 0 0 0 4.99153-.977c1.4762-.9555 2.5277-2.443 2.9358-4.1534a6.83761 6.83761 0 0 0-.7444-5.0315l1.5562-1.55625Zm-7.5 10.62495a5.62558 5.62558 0 0 1-3.12508-.9479 5.6249 5.6249 0 0 1-2.07174-2.5245 5.62487 5.62487 0 0 1 1.21935-6.13003 5.62499 5.62499 0 0 1 9.60247 3.97743 5.62491 5.62491 0 0 1-5.625 5.625Z"/>
  </g>
</svg>
