<svg width="24" height="24" viewBox="0 0 24 24" fill="none" xmlns="http://www.w3.org/2000/svg">
<path d="M3 15.75H1.5V18C1.50117 18.3975 1.65958 18.7783 1.94063 19.0594C2.22168 19.3404 2.60253 19.4988 3 19.5H5.25V18H3V15.75Z" fill="currentColor"/>
<path d="M3 6H5.25V4.5H3C2.60253 4.50117 2.22168 4.65958 1.94063 4.94063C1.65958 5.22168 1.50117 5.60253 1.5 6V8.25H3V6Z" fill="currentColor"/>
<path d="M17.25 4.5H12.75V6H17.25V4.5Z" fill="currentColor"/>
<path d="M11.25 4.5H6.75V6H11.25V4.5Z" fill="currentColor"/>
<path d="M17.25 18H12.75V19.5H17.25V18Z" fill="currentColor"/>
<path d="M21 11.25H3V9.75H1.5V14.25H3V12.75H21V14.25H22.5V9.75H21V11.25Z" fill="currentColor"/>
<path d="M21 18H18.75V19.5H21C21.3975 19.4988 21.7783 19.3404 22.0594 19.0594C22.3404 18.7783 22.4988 18.3975 22.5 18V15.75H21V18Z" fill="currentColor"/>
<path d="M21 4.5H18.75V6H21V8.25H22.5V6C22.4988 5.60253 22.3404 5.22168 22.0594 4.94063C21.7783 4.65958 21.3975 4.50117 21 4.5Z" fill="currentColor"/>
<path d="M11.25 18H6.75V19.5H11.25V18Z" fill="currentColor"/>
<path d="M5.25 9.75C5.66421 9.75 6 9.41421 6 9C6 8.58579 5.66421 8.25 5.25 8.25C4.83579 8.25 4.5 8.58579 4.5 9C4.5 9.41421 4.83579 9.75 5.25 9.75Z" fill="currentColor"/>
<path d="M5.25 15.75C5.66421 15.75 6 15.4142 6 15C6 14.5858 5.66421 14.25 5.25 14.25C4.83579 14.25 4.5 14.5858 4.5 15C4.5 15.4142 4.83579 15.75 5.25 15.75Z" fill="currentColor"/>
</svg>
