<svg width="24" height="24" viewBox="0 0 24 24" fill="none" xmlns="http://www.w3.org/2000/svg">
<g clip-path="url(#clip0_3657_22222)">
<path d="M19.5 9.75H18V14.25H19.5V9.75Z" fill="currentColor"/>
<path d="M22.5 5.25V18.75C22.4995 19.1477 22.3414 19.529 22.0602 19.8102C21.779 20.0914 21.3977 20.2495 21 20.25H3C2.6023 20.2496 2.221 20.0914 1.93978 19.8102C1.65856 19.529 1.5004 19.1477 1.5 18.75V5.25C1.50046 4.85232 1.65864 4.47105 1.93984 4.18984C2.22105 3.90864 2.60232 3.75046 3 3.75H21C21.3977 3.75054 21.7789 3.90874 22.0601 4.18993C22.3413 4.47112 22.4995 4.85234 22.5 5.25V5.25ZM3 18.75H21V5.25H3V18.75Z" fill="currentColor"/>
</g>
<defs>
<clipPath id="clip0_3657_22222">
<rect width="24" height="24" fill="white"/>
</clipPath>
</defs>
</svg>
