<svg width="24" height="25" viewBox="0 0 24 25" fill="none" xmlns="http://www.w3.org/2000/svg">
<path d="M20.2498 2.49902H3.74976C3.35193 2.49902 2.9704 2.65706 2.6891 2.93836C2.40779 3.21967 2.24976 3.6012 2.24976 3.99902V20.499C2.24976 20.8968 2.40779 21.2784 2.6891 21.5597C2.9704 21.841 3.35193 21.999 3.74976 21.999H20.2498C20.6476 21.999 21.0291 21.841 21.3104 21.5597C21.5917 21.2784 21.7498 20.8968 21.7498 20.499V3.99902C21.7498 3.6012 21.5917 3.21967 21.3104 2.93836C21.0291 2.65706 20.6476 2.49902 20.2498 2.49902ZM20.2498 3.99902V6.99902H3.74976V3.99902H20.2498ZM12.7498 8.49902H20.2498V13.749H12.7498V8.49902ZM11.2498 13.749H3.74976V8.49902H11.2498V13.749ZM3.74976 15.249H11.2498V20.499H3.74976V15.249ZM12.7498 20.499V15.249H20.2498V20.499H12.7498Z" fill="currentColor"/>
</svg>
