<svg width="24" height="25" viewBox="0 0 24 25" fill="none" xmlns="http://www.w3.org/2000/svg">
<path d="M23.25 14.4641L18.75 9.96411L17.6895 11.0246L20.379 13.7141H12.75V15.2141H20.379L17.6895 17.9036L18.75 18.9641L23.25 14.4641Z" fill="currentColor"/>
<path d="M7.5 11.4641C6.90666 11.4641 6.32664 11.2882 5.83329 10.9585C5.33994 10.6289 4.95542 10.1603 4.72836 9.61216C4.5013 9.06398 4.44189 8.46078 4.55764 7.87884C4.6734 7.2969 4.95912 6.76235 5.37868 6.34279C5.79824 5.92323 6.33279 5.63751 6.91473 5.52176C7.49667 5.406 8.09987 5.46541 8.64805 5.69247C9.19623 5.91954 9.66476 6.30405 9.99441 6.7974C10.3241 7.29075 10.5 7.87077 10.5 8.46411C10.4991 9.25949 10.1827 10.022 9.62033 10.5844C9.05792 11.1469 8.29538 11.4632 7.5 11.4641ZM7.5 6.96411C7.2034 6.96382 6.91338 7.05145 6.66658 7.21595C6.41978 7.38045 6.22729 7.61442 6.11343 7.88829C5.99957 8.16216 5.96946 8.46363 6.0269 8.75461C6.08434 9.04559 6.22676 9.31301 6.43615 9.52307C6.64554 9.73313 6.9125 9.8764 7.20329 9.93477C7.49409 9.99315 7.79566 9.964 8.06989 9.85102C8.34413 9.73804 8.57871 9.54629 8.744 9.30002C8.90928 9.05375 8.99785 8.76401 8.9985 8.46741C8.99898 8.0694 8.84141 7.68748 8.56042 7.40559C8.27943 7.1237 7.89801 6.96491 7.5 6.96411Z" fill="currentColor"/>
<path d="M15.7945 19.7141L13.5434 21.9641L3 11.4202V3.96411H10.4563L15.7063 9.21411L16.767 8.15361L11.5162 2.90361C11.2351 2.62236 10.8537 2.46428 10.456 2.46411H3C2.60218 2.46411 2.22064 2.62215 1.93934 2.90345C1.65804 3.18476 1.5 3.56629 1.5 3.96411V11.4202C1.50001 11.8179 1.65802 12.1994 1.93928 12.4807L12.4827 23.0251C12.7641 23.3062 13.1456 23.4642 13.5434 23.4642C13.9412 23.4642 14.3227 23.3062 14.6042 23.0251L16.8552 20.7751L15.7945 19.7141Z" fill="currentColor"/>
</svg>
