<svg width="24" height="25" viewBox="0 0 24 25" fill="none" xmlns="http://www.w3.org/2000/svg">
<path d="M22.2803 5.90737L20.0303 3.65737C19.9606 3.5877 19.878 3.53243 19.787 3.49472C19.696 3.45701 19.5985 3.4376 19.5 3.4376C19.4015 3.4376 19.304 3.45701 19.213 3.49472C19.122 3.53243 19.0394 3.5877 18.9697 3.65737L12 10.627V13.9376H15.3106L22.2803 6.96787C22.3499 6.89826 22.4052 6.8156 22.4429 6.72462C22.4806 6.63363 22.5 6.53611 22.5 6.43762C22.5 6.33913 22.4806 6.24161 22.4429 6.15063C22.4052 6.05964 22.3499 5.97698 22.2803 5.90737ZM14.6894 12.4376H13.5V11.2482L17.25 7.4982L18.4394 8.68762L14.6894 12.4376ZM19.5 7.62705L18.3106 6.43762L19.5 5.2482L20.6894 6.43762L19.5 7.62705Z" fill="currentColor"/>
<path d="M7.5 10.9376C6.90666 10.9376 6.32664 10.7617 5.83329 10.432C5.33994 10.1024 4.95542 9.63385 4.72836 9.08567C4.5013 8.53749 4.44189 7.93429 4.55764 7.35235C4.6734 6.77041 4.95912 6.23586 5.37868 5.8163C5.79824 5.39674 6.33279 5.11102 6.91473 4.99527C7.49667 4.87951 8.09987 4.93892 8.64805 5.16598C9.19623 5.39305 9.66476 5.77756 9.99441 6.27091C10.3241 6.76426 10.5 7.34428 10.5 7.93762C10.4991 8.733 10.1827 9.49554 9.62033 10.058C9.05792 10.6204 8.29538 10.9367 7.5 10.9376ZM7.5 6.43762C7.2034 6.43733 6.91338 6.52496 6.66658 6.68946C6.41978 6.85396 6.22729 7.08793 6.11343 7.3618C5.99957 7.63567 5.96946 7.93715 6.0269 8.22813C6.08434 8.51911 6.22676 8.78652 6.43615 8.99658C6.64554 9.20664 6.9125 9.34991 7.20329 9.40829C7.49409 9.46666 7.79566 9.43751 8.06989 9.32453C8.34413 9.21155 8.57871 9.0198 8.744 8.77353C8.90928 8.52726 8.99785 8.23752 8.9985 7.94092C8.99898 7.54291 8.84141 7.16099 8.56042 6.8791C8.27943 6.59721 7.89801 6.43842 7.5 6.43762Z" fill="currentColor"/>
<path d="M20.2544 11.1142L19.1939 12.1747L21 13.9808L13.5434 21.4376L3 10.8937V3.43762H10.4563L13.7613 6.74265L14.8219 5.68177L11.5166 2.37705C11.2354 2.09573 10.8539 1.93767 10.456 1.93762H3C2.60218 1.93762 2.22064 2.09566 1.93934 2.37696C1.65804 2.65827 1.5 3.0398 1.5 3.43762V10.8937C1.50001 11.2915 1.65802 11.673 1.93928 11.9542L12.4827 22.4986C12.7641 22.7797 13.1456 22.9377 13.5434 22.9377C13.9412 22.9377 14.3227 22.7797 14.6042 22.4986L22.061 15.0418C22.3421 14.7604 22.5 14.3788 22.5 13.981C22.5 13.5833 22.3421 13.2017 22.061 12.9203L20.2544 11.1142Z" fill="currentColor"/>
</svg>
