<svg width="24" height="24" viewBox="0 0 24 24" fill="none" xmlns="http://www.w3.org/2000/svg">
<g clip-path="url(#clip0_2954_269)">
<path d="M17.319 7.74135L22.5 2.56057L21.4394 1.5L1.5 21.4394L2.56057 22.5L7.74135 17.3192L12.4827 22.061C12.7641 22.3421 13.1456 22.5 13.5434 22.5C13.9412 22.5 14.3227 22.3421 14.6042 22.061L22.061 14.6042C22.3421 14.3227 22.5 13.9412 22.5 13.5434C22.5 13.1456 22.3421 12.7641 22.061 12.4827L17.319 7.74135ZM13.5434 21L8.80208 16.2583L16.2585 8.80185L21 13.5432L13.5434 21Z" fill="currentColor"/>
<path d="M7.5 10.5C6.90666 10.5 6.32664 10.3241 5.83329 9.99441C5.33994 9.66477 4.95543 9.19623 4.72836 8.64805C4.5013 8.09987 4.44189 7.49667 4.55765 6.91473C4.6734 6.33279 4.95912 5.79824 5.37868 5.37868C5.79824 4.95912 6.33279 4.6734 6.91473 4.55765C7.49667 4.44189 8.09987 4.5013 8.64805 4.72836C9.19623 4.95543 9.66477 5.33994 9.99441 5.83329C10.3241 6.32664 10.5 6.90666 10.5 7.5C10.4991 8.29538 10.1828 9.05792 9.62033 9.62033C9.05792 10.1828 8.29538 10.4991 7.5 10.5ZM7.5 6C7.20341 5.99971 6.91338 6.08734 6.66658 6.25184C6.41978 6.41634 6.22729 6.65031 6.11343 6.92418C5.99957 7.19805 5.96946 7.49953 6.0269 7.7905C6.08435 8.08148 6.22676 8.3489 6.43615 8.55896C6.64554 8.76902 6.9125 8.91229 7.2033 8.97066C7.49409 9.02904 7.79566 8.99989 8.0699 8.88691C8.34413 8.77393 8.57871 8.58218 8.744 8.33591C8.90928 8.08964 8.99785 7.7999 8.9985 7.5033C8.99898 7.10529 8.84141 6.72337 8.56042 6.44148C8.27943 6.15959 7.89802 6.0008 7.5 6Z" fill="currentColor"/>
<path d="M5.61953 15.197L6.68003 14.1365L3 10.456V3H10.4563L14.1365 6.68003L15.197 5.61953L11.5166 1.93943C11.2354 1.65811 10.8539 1.50005 10.456 1.5H3C2.60218 1.5 2.22064 1.65804 1.93934 1.93934C1.65804 2.22064 1.5 2.60218 1.5 3V10.456C1.50001 10.8538 1.65802 11.2353 1.93928 11.5166L5.61953 15.197Z" fill="currentColor"/>
</g>
<defs>
<clipPath id="clip0_2954_269">
<rect width="24" height="24" fill="white"/>
</clipPath>
</defs>
</svg>
