<svg width="24" height="24" viewBox="0 0 24 24" fill="none" xmlns="http://www.w3.org/2000/svg">
<path fill-rule="evenodd" clip-rule="evenodd" d="M20.8645 10.5H22.5V13.5H20.8645C20.5506 15.339 19.6735 17.0352 18.3544 18.3544C17.0352 19.6735 15.339 20.5506 13.5 20.8645V22.5H10.5V20.8645C8.661 20.5506 6.9648 19.6735 5.64563 18.3544C4.32645 17.0352 3.44938 15.339 3.13552 13.5H1.5V10.5H3.13552C3.44938 8.661 4.32645 6.9648 5.64563 5.64563C6.9648 4.32645 8.661 3.44938 10.5 3.13552V1.5H13.5V3.13552C15.339 3.44938 17.0352 4.32645 18.3544 5.64563C19.6735 6.9648 20.5506 8.661 20.8645 10.5ZM7.83322 18.236C9.06659 19.0601 10.5166 19.5 12 19.5C13.9884 19.4977 15.8948 18.7068 17.3008 17.3008C18.7068 15.8948 19.4977 13.9884 19.5 12C19.5 10.5166 19.0601 9.06659 18.236 7.83322C17.4119 6.59985 16.2406 5.63856 14.8701 5.0709C13.4997 4.50325 11.9917 4.35472 10.5368 4.64411C9.08197 4.9335 7.74559 5.64781 6.6967 6.6967C5.64781 7.74559 4.9335 9.08197 4.64411 10.5368C4.35472 11.9917 4.50325 13.4997 5.0709 14.8701C5.63856 16.2406 6.59985 17.4119 7.83322 18.236ZM8.66658 16.9888C9.65327 17.6481 10.8133 18 12 18C13.5907 17.9982 15.1158 17.3654 16.2406 16.2406C17.3654 15.1158 17.9982 13.5907 18 12C18 10.8133 17.6481 9.65328 16.9888 8.66658C16.3295 7.67989 15.3925 6.91085 14.2961 6.45673C13.1997 6.0026 11.9933 5.88378 10.8295 6.11529C9.66557 6.3468 8.59647 6.91825 7.75736 7.75736C6.91824 8.59648 6.3468 9.66558 6.11529 10.8295C5.88378 11.9933 6.0026 13.1997 6.45672 14.2961C6.91085 15.3925 7.67988 16.3295 8.66658 16.9888ZM9.49993 8.25839C10.24 7.76392 11.11 7.5 12 7.5C13.1931 7.50133 14.3369 7.97587 15.1805 8.81949C16.0241 9.66312 16.4987 10.8069 16.5 12C16.5 12.89 16.2361 13.76 15.7416 14.5001C15.2471 15.2401 14.5443 15.8169 13.7221 16.1575C12.8998 16.4981 11.995 16.5872 11.1221 16.4135C10.2492 16.2399 9.44736 15.8113 8.81802 15.182C8.18868 14.5526 7.7601 13.7508 7.58647 12.8779C7.41283 12.005 7.50195 11.1002 7.84254 10.2779C8.18314 9.45566 8.75991 8.75286 9.49993 8.25839Z" fill="currentColor"/>
</svg>
