<svg width="24" height="24" viewBox="0 0 24 24" fill="none" xmlns="http://www.w3.org/2000/svg">
<g clip-path="url(#clip0_7143_28023)">
<path d="M19.5 3.00757H4.5C4.10218 3.00757 3.72064 3.1656 3.43934 3.44691C3.15804 3.72821 3 4.10974 3 4.50757V19.5076C3 19.9054 3.15804 20.2869 3.43934 20.5682C3.72064 20.8495 4.10218 21.0076 4.5 21.0076H19.5C19.8978 21.0076 20.2794 20.8495 20.5607 20.5682C20.842 20.2869 21 19.9054 21 19.5076V4.50757C21 4.10974 20.842 3.72821 20.5607 3.44691C20.2794 3.1656 19.8978 3.00757 19.5 3.00757ZM19.5 4.50757V7.50757H4.5V4.50757H19.5ZM4.5 19.5076V9.00757H19.5V19.5076H4.5Z" fill="currentColor"/>
<path d="M8.06995 12.1349L10.1849 14.2574L8.06995 16.3799L9.12745 17.4374L12.3074 14.2574L9.12745 11.0774L8.06995 12.1349Z" fill="currentColor"/>
</g>
<defs>
<clipPath id="clip0_7143_28023">
<rect width="24" height="24" fill="white"/>
</clipPath>
</defs>
</svg>
