<svg width="24" height="25" viewBox="0 0 24 25" fill="none" xmlns="http://www.w3.org/2000/svg">
<path d="M13.6874 18.999H6.74988V5.49902H13.1249C13.8765 5.49907 14.6124 5.71424 15.2457 6.11911C15.8789 6.52399 16.383 7.10165 16.6985 7.78386C17.014 8.46607 17.1276 9.22432 17.026 9.96904C16.9243 10.7138 16.6116 11.4138 16.1249 11.9865C16.7607 12.495 17.2232 13.188 17.4489 13.9702C17.6745 14.7525 17.6521 15.5854 17.3849 16.3544C17.1176 17.1233 16.6185 17.7906 15.9563 18.2642C15.2942 18.7378 14.5015 18.9945 13.6874 18.999ZM8.99988 16.749H13.6724C13.894 16.749 14.1134 16.7054 14.3182 16.6206C14.5229 16.5358 14.7089 16.4115 14.8656 16.2548C15.0223 16.0981 15.1466 15.912 15.2314 15.7073C15.3162 15.5026 15.3599 15.2831 15.3599 15.0615C15.3599 14.8399 15.3162 14.6205 15.2314 14.4157C15.1466 14.211 15.0223 14.025 14.8656 13.8683C14.7089 13.7116 14.5229 13.5873 14.3182 13.5025C14.1134 13.4177 13.894 13.374 13.6724 13.374H8.99988V16.749ZM8.99988 11.124H13.1249C13.3465 11.124 13.5659 11.0804 13.7707 10.9956C13.9754 10.9108 14.1614 10.7865 14.3181 10.6298C14.4748 10.4731 14.5991 10.287 14.6839 10.0823C14.7687 9.87757 14.8124 9.65813 14.8124 9.43652C14.8124 9.21492 14.7687 8.99548 14.6839 8.79074C14.5991 8.58601 14.4748 8.39998 14.3181 8.24328C14.1614 8.08658 13.9754 7.96228 13.7707 7.87748C13.5659 7.79267 13.3465 7.74902 13.1249 7.74902H8.99988V11.124Z" fill="currentColor"/>
</svg>
