<svg width="24" height="25" viewBox="0 0 24 25" fill="none" xmlns="http://www.w3.org/2000/svg">
<path d="M20.9998 19.749H2.99976V21.249H20.9998V19.749Z" fill="currentColor"/>
<path d="M11.9998 17.499C10.6074 17.499 9.27201 16.9459 8.28745 15.9613C7.30288 14.9768 6.74976 13.6414 6.74976 12.249V3.99902H8.24976V12.249C8.24976 13.2436 8.64484 14.1974 9.34811 14.9007C10.0514 15.6039 11.0052 15.999 11.9998 15.999C12.9943 15.999 13.9481 15.6039 14.6514 14.9007C15.3547 14.1974 15.7498 13.2436 15.7498 12.249V3.99902H17.2498V12.249C17.2498 13.6414 16.6966 14.9768 15.7121 15.9613C14.7275 16.9459 13.3921 17.499 11.9998 17.499Z" fill="currentColor"/>
</svg>
