<svg width="24" height="25" viewBox="0 0 24 25" fill="none" xmlns="http://www.w3.org/2000/svg">
<path d="M20.9998 11.4971H13.467C13.1278 11.4043 12.7892 11.3227 12.4634 11.2456C10.3576 10.7476 9.16641 10.3827 9.16641 8.67832C9.14928 8.38406 9.19281 8.08942 9.2943 7.81268C9.39578 7.53594 9.55305 7.28301 9.75636 7.06957C10.3935 6.54558 11.1917 6.2569 12.0166 6.25207C14.1385 6.19957 15.1177 6.91912 15.9175 8.01457L17.1289 7.13017C16.562 6.31584 15.7891 5.66661 14.8891 5.24882C13.9891 4.83103 12.9943 4.65966 12.0064 4.75222C10.7929 4.75997 9.62229 5.20191 8.70643 5.99805C8.35933 6.35013 8.08801 6.76956 7.90921 7.23051C7.7304 7.69145 7.6479 8.18413 7.66678 8.67817C7.6339 9.21894 7.73551 9.75942 7.96253 10.2513C8.18955 10.7432 8.5349 11.1712 8.96773 11.4971H2.99976V12.9971H13.2387C14.7138 13.4246 15.5961 13.9813 15.6187 15.5155C15.643 15.8433 15.598 16.1726 15.4866 16.4818C15.3751 16.7911 15.1998 17.0734 14.9719 17.3103C14.1783 17.9358 13.1924 18.2669 12.1822 18.247C11.428 18.2252 10.6887 18.0321 10.0202 17.6824C9.35168 17.3327 8.77143 16.8356 8.32333 16.2287L7.17343 17.1918C7.75598 17.9681 8.50761 18.6017 9.37136 19.0444C10.2351 19.4871 11.1883 19.7274 12.1587 19.747C12.1653 19.7461 12.1902 19.747 12.2337 19.747C13.6188 19.763 14.9631 19.2787 16.0198 18.3829C16.3947 18.0048 16.6863 17.5523 16.8755 17.0545C17.0647 16.5568 17.1475 16.0248 17.1184 15.4931C17.1465 14.5836 16.8397 13.6954 16.2562 12.9971H20.9998V11.4971Z" fill="currentColor"/>
</svg>
