<svg width="24" height="24" viewBox="0 0 24 24" fill="none" xmlns="http://www.w3.org/2000/svg">
<path d="M12.75 8.25H11.25V15H12.75V8.25Z" fill="currentColor"/>
<path d="M14.25 1.5H9.74996V3H14.25V1.5Z" fill="currentColor"/>
<path d="M21 6.75L19.935 5.6925L18.2475 7.38C16.8661 5.78477 14.9233 4.78308 12.8226 4.58303C10.7219 4.38299 8.62491 4.99998 6.9673 6.30581C5.30969 7.61164 4.21891 9.50591 3.9216 11.595C3.62429 13.6842 4.1433 15.8075 5.3708 17.524C6.5983 19.2404 8.43992 20.4179 10.513 20.8118C12.5861 21.2058 14.7312 20.7859 16.5028 19.6393C18.2743 18.4928 19.536 16.7078 20.0257 14.6552C20.5155 12.6027 20.1955 10.4403 19.1325 8.6175L21 6.75ZM12 19.5C10.6649 19.5 9.35989 19.1041 8.24986 18.3624C7.13982 17.6207 6.27466 16.5665 5.76377 15.3331C5.25288 14.0997 5.1192 12.7425 5.37965 11.4331C5.6401 10.1238 6.28298 8.92103 7.22698 7.97703C8.17099 7.03302 9.37372 6.39015 10.6831 6.1297C11.9925 5.86925 13.3497 6.00292 14.5831 6.51381C15.8165 7.0247 16.8707 7.88987 17.6124 8.9999C18.3541 10.1099 18.75 11.415 18.75 12.75C18.75 14.5402 18.0388 16.2571 16.7729 17.523C15.5071 18.7888 13.7902 19.5 12 19.5Z" fill="currentColor"/>
</svg>
