<svg width="24" height="24" viewBox="0 0 24 24" fill="none" xmlns="http://www.w3.org/2000/svg">
<path d="M6.68554 18.375L9.87829 15.1824L8.81779 14.1218L5.62497 17.3144L5.03022 16.7198C4.9606 16.6501 4.87794 16.5948 4.78696 16.5571C4.69598 16.5194 4.59845 16.5 4.49997 16.5C4.40148 16.5 4.30395 16.5194 4.21297 16.5571C4.12199 16.5948 4.03933 16.6501 3.96972 16.7198L0.969715 19.7198C0.900042 19.7894 0.84477 19.872 0.80706 19.963C0.769349 20.054 0.749939 20.1515 0.749939 20.25C0.749939 20.3485 0.769349 20.446 0.80706 20.537C0.84477 20.628 0.900042 20.7106 0.969715 20.7803L3.21972 23.0303C3.28933 23.0999 3.37199 23.1552 3.46298 23.1929C3.55396 23.2306 3.65148 23.25 3.74997 23.25C3.84845 23.25 3.94597 23.2306 4.03696 23.1929C4.12794 23.1552 4.2106 23.0999 4.28022 23.0303L7.28022 20.0303C7.34989 19.9606 7.40516 19.878 7.44287 19.787C7.48058 19.696 7.49999 19.5985 7.49999 19.5C7.49999 19.4015 7.48058 19.304 7.44287 19.213C7.40516 19.122 7.34989 19.0394 7.28022 18.9698L6.68554 18.375ZM3.74997 21.4394L2.56054 20.25L4.49997 18.3106L5.68939 19.5L3.74997 21.4394Z" fill="currentColor"/>
<path d="M18 22.5C16.8069 22.4987 15.6631 22.0242 14.8194 21.1806C13.9758 20.3369 13.5013 19.1931 13.5 18C13.5005 17.608 13.5537 17.2178 13.6581 16.8399L7.16014 10.342C6.78221 10.4463 6.39201 10.4995 5.99996 10.5C5.26679 10.503 4.54408 10.3261 3.8952 9.98477C3.24632 9.64344 2.69109 9.14813 2.27819 8.54227C1.86529 7.93641 1.60733 7.23851 1.52694 6.50975C1.44654 5.78099 1.54616 5.04364 1.81706 4.36234L2.23534 3.29592L4.71971 5.78029C4.86249 5.91666 5.05234 5.99274 5.24977 5.99274C5.44721 5.99274 5.63705 5.91666 5.77984 5.78029C5.84956 5.7107 5.90487 5.62804 5.94261 5.53705C5.98035 5.44606 5.99977 5.34852 5.99977 5.25001C5.99977 5.1515 5.98035 5.05395 5.94261 4.96296C5.90487 4.87197 5.84956 4.78931 5.77984 4.71972L3.29516 2.23429L4.36264 1.81647C5.04398 1.54591 5.78127 1.44658 6.50992 1.52717C7.23857 1.60776 7.93633 1.86582 8.54208 2.27874C9.14782 2.69165 9.64306 3.24681 9.9844 3.89559C10.3257 4.54437 10.5028 5.26696 10.5 6.00004C10.4994 6.39211 10.4462 6.78232 10.3418 7.16022L16.8398 13.6578C17.2177 13.5537 17.6079 13.5006 18 13.5C18.7331 13.497 19.4559 13.6739 20.1048 14.0153C20.7536 14.3566 21.3089 14.8519 21.7218 15.4578C22.1347 16.0636 22.3926 16.7616 22.473 17.4903C22.5534 18.2191 22.4537 18.9565 22.1828 19.6377L21.765 20.7042L19.2802 18.2198C19.1374 18.0834 18.9476 18.0073 18.7501 18.0073C18.5527 18.0073 18.3629 18.0834 18.2201 18.2198C18.1503 18.2894 18.095 18.372 18.0572 18.463C18.0195 18.554 18 18.6515 18 18.75C17.9999 18.8485 18.0193 18.9461 18.057 19.0371C18.0947 19.1281 18.15 19.2108 18.2197 19.2804L20.7041 21.765L19.6377 22.1835C19.1165 22.3908 18.5609 22.4982 18 22.5ZM7.54684 8.60727L15.3925 16.4532L15.2131 16.9102C15.0375 17.3493 14.9688 17.8239 15.0128 18.2948C15.0568 18.7657 15.2122 19.2194 15.4662 19.6184C15.7201 20.0173 16.0653 20.3502 16.4733 20.5894C16.8813 20.8286 17.3403 20.9674 17.8125 20.9942L17.1591 20.3409C16.9502 20.132 16.7844 19.884 16.6713 19.611C16.5582 19.338 16.5 19.0454 16.5 18.75C16.5 18.4545 16.5582 18.1619 16.6713 17.8889C16.7844 17.616 16.9502 17.368 17.1591 17.1591C17.5878 16.7499 18.1576 16.5217 18.7502 16.5217C19.3428 16.5218 19.9126 16.7502 20.3412 17.1594L20.9941 17.8125C20.9672 17.3404 20.8284 16.8813 20.5892 16.4734C20.3499 16.0654 20.017 15.7202 19.618 15.4663C19.219 15.2123 18.7653 15.0569 18.2944 15.0129C17.8235 14.9689 17.3489 15.0376 16.9098 15.2132L16.4527 15.3921L8.60771 7.54707L8.78711 7.09002C8.96275 6.6509 9.03141 6.17629 8.98742 5.7054C8.94343 5.2345 8.78806 4.78082 8.53412 4.38183C8.28019 3.98284 7.93499 3.64998 7.52702 3.41073C7.11905 3.17148 6.66002 3.03272 6.18784 3.00589L6.84079 3.65922C7.04976 3.86811 7.21554 4.11612 7.32864 4.38909C7.44174 4.66206 7.49995 4.95464 7.49995 5.25012C7.49995 5.54559 7.44174 5.83817 7.32864 6.11115C7.21554 6.38412 7.04976 6.63213 6.84079 6.84102C6.41211 7.25016 5.84228 7.47841 5.2497 7.47834C4.65711 7.47827 4.08734 7.24989 3.65876 6.84064L3.00581 6.18754C3.03257 6.65974 3.1713 7.11878 3.41052 7.52677C3.64974 7.93476 3.98259 8.27998 4.38159 8.53392C4.78058 8.78786 5.23427 8.94322 5.70517 8.98718C6.17608 9.03114 6.65068 8.96244 7.08979 8.78674L7.54684 8.60727Z" fill="currentColor"/>
<path d="M21.842 2.13747C21.4135 1.72831 20.8437 1.5 20.2512 1.5C19.6587 1.5 19.0889 1.72831 18.6604 2.13747L13.0501 7.74747L14.1107 8.80797L19.7207 3.19797C19.8636 3.06167 20.0535 2.98562 20.2509 2.98562C20.4484 2.98562 20.6383 3.06167 20.7812 3.19797C20.9216 3.33883 21.0004 3.52957 21.0004 3.72841C21.0004 3.92725 20.9216 4.11799 20.7812 4.25885L15.1712 9.86885L16.2317 10.9294L21.8417 5.3198C22.2633 4.89757 22.5 4.32533 22.5001 3.7287C22.5002 3.13207 22.2635 2.55979 21.842 2.13747Z" fill="currentColor"/>
</svg>
