<svg width="24" height="24" viewBox="0 0 24 24" fill="none" xmlns="http://www.w3.org/2000/svg">
<path d="M20.6454 2.03175C20.5047 1.86499 20.3293 1.73099 20.1315 1.63914C19.9336 1.54728 19.718 1.4998 19.4999 1.5H17.4817C17.2727 1.49998 17.0679 1.55817 16.8901 1.66804C16.7124 1.77791 16.5687 1.93512 16.4753 2.12205L16.0362 3H14.9999V2.625C14.9999 2.32663 14.8814 2.04048 14.6704 1.82951C14.4594 1.61853 14.1733 1.5 13.8749 1.5H10.1249C9.82653 1.5 9.54038 1.61853 9.3294 1.82951C9.11842 2.04048 8.9999 2.32663 8.9999 2.625V3H7.96355L7.5248 2.1225C7.43124 1.93543 7.28744 1.77811 7.10951 1.66816C6.93158 1.55822 6.72655 1.49999 6.5174 1.5H4.4999C4.2818 1.50004 4.06634 1.54764 3.86853 1.63948C3.67071 1.73132 3.49531 1.86519 3.35453 2.03177C3.21375 2.19834 3.11099 2.39361 3.05341 2.60396C2.99583 2.81432 2.98481 3.0347 3.02112 3.24975L3.5492 6.375C3.63781 6.89923 3.90919 7.37514 4.31523 7.71836C4.72127 8.06158 5.23573 8.24992 5.7674 8.25H5.9999V17.25C5.40336 17.2507 4.83144 17.4879 4.40963 17.9097C3.98781 18.3315 3.75055 18.9035 3.7499 19.5V22.5H20.2499V19.5C20.2492 18.9035 20.012 18.3315 19.5902 17.9097C19.1683 17.4879 18.5964 17.2507 17.9999 17.25V8.25H18.2324C18.7641 8.24998 19.2786 8.06165 19.6847 7.71843C20.0908 7.37521 20.3622 6.89927 20.4508 6.375L20.9789 3.24975C21.0155 3.03469 21.0046 2.81423 20.947 2.60382C20.8894 2.39341 20.7864 2.19816 20.6454 2.03175ZM18.7499 19.5V21H5.2499V19.5C5.25007 19.3011 5.32915 19.1105 5.46976 18.9699C5.61038 18.8293 5.80104 18.7502 5.9999 18.75H17.9999C18.1988 18.7502 18.3894 18.8293 18.53 18.9699C18.6706 19.1105 18.7497 19.3011 18.7499 19.5ZM16.4999 17.25H7.4999V8.25H16.4999V17.25ZM18.9718 6.12525C18.9426 6.30011 18.8522 6.4589 18.7168 6.57332C18.5813 6.68774 18.4097 6.75035 18.2324 6.75H5.7674C5.59 6.75041 5.41824 6.68777 5.28274 6.57327C5.14725 6.45877 5.05685 6.29985 5.02767 6.12488L4.4999 3H6.28625L7.03625 4.5H10.4999V3H13.4999V4.5H16.9628L17.7135 3H19.4999L18.9718 6.12525Z" fill="currentColor"/>
</svg>
