<svg width="24" height="24" viewBox="0 0 24 24" fill="none" xmlns="http://www.w3.org/2000/svg">
<g clip-path="url(#clip0_7131_27926)">
<path d="M8.25002 17.3849L6.75002 15.8841L5.69177 16.9416L8.25002 19.4999L12.75 14.9999L11.6925 13.9424L8.25002 17.3849Z" />
<path d="M21 22.5H18V21H21V12H18V6C17.9991 5.20462 17.6827 4.44208 17.1203 3.87967C16.5579 3.31725 15.7954 3.00089 15 3V1.5C16.1931 1.50133 17.3369 1.97586 18.1805 2.81949C19.0241 3.66311 19.4987 4.80693 19.5 6V10.5H21C21.3977 10.5004 21.779 10.6586 22.0602 10.9398C22.3414 11.221 22.4996 11.6023 22.5 12V21C22.4996 21.3977 22.3414 21.779 22.0602 22.0602C21.779 22.3414 21.3977 22.4996 21 22.5Z" fill="currentColor"/>
<path d="M15 10.5H13.5V6C13.5 4.80653 13.0259 3.66193 12.182 2.81802C11.3381 1.97411 10.1935 1.5 9 1.5C7.80653 1.5 6.66193 1.97411 5.81802 2.81802C4.97411 3.66193 4.5 4.80653 4.5 6V10.5H3C2.60218 10.5 2.22064 10.658 1.93934 10.9393C1.65804 11.2206 1.5 11.6022 1.5 12V21C1.5 21.3978 1.65804 21.7794 1.93934 22.0607C2.22064 22.342 2.60218 22.5 3 22.5H15C15.3978 22.5 15.7794 22.342 16.0607 22.0607C16.342 21.7794 16.5 21.3978 16.5 21V12C16.5 11.6022 16.342 11.2206 16.0607 10.9393C15.7794 10.658 15.3978 10.5 15 10.5ZM6 6C6 5.20435 6.31607 4.44129 6.87868 3.87868C7.44129 3.31607 8.20435 3 9 3C9.79565 3 10.5587 3.31607 11.1213 3.87868C11.6839 4.44129 12 5.20435 12 6V10.5H6V6ZM15 21H3V12H15V21Z" fill="currentColor"/>
</g>
<defs>
<clipPath id="clip0_7131_27926">
<rect width="24" height="24" fill="white"/>
</clipPath>
</defs>
</svg>
