<svg width="24" height="24" viewBox="0 0 24 24" fill="none" xmlns="http://www.w3.org/2000/svg">
<g clip-path="url(#clip0_677_17440)">
<path d="M3.74837 2.69062L2.6879 3.75146L5.24984 6.31251L6.31031 5.25167L3.74837 2.69062Z" fill="currentColor"/>
<path d="M18.7469 17.6834L17.6861 18.7439L20.2471 21.3058L21.308 20.2454L18.7469 17.6834Z" fill="currentColor"/>
<path d="M9.75 1.5H8.25V4.5H9.75V1.5Z" fill="currentColor"/>
<path d="M4.5 8.25H1.5V9.75H4.5V8.25Z" fill="currentColor"/>
<path d="M22.5 14.25H19.5V15.75H22.5V14.25Z" fill="currentColor"/>
<path d="M15.75 19.5H14.25V22.5H15.75V19.5Z" fill="currentColor"/>
<path d="M12.435 15.8025L9.65251 18.5925C9.37378 18.8712 9.04288 19.0923 8.6787 19.2432C8.31452 19.394 7.92419 19.4717 7.53001 19.4717C7.13582 19.4717 6.7455 19.394 6.38132 19.2432C6.01714 19.0923 5.68624 18.8712 5.40751 18.5925C4.84459 18.0296 4.52834 17.2661 4.52834 16.47C4.52834 15.6739 4.84459 14.9104 5.40751 14.3475L8.19751 11.5575L7.13251 10.5L4.35001 13.29C3.92301 13.7056 3.5828 14.2019 3.34913 14.75C3.11546 15.2982 2.99298 15.8872 2.98879 16.4831C2.9846 17.0789 3.0988 17.6697 3.32474 18.2211C3.55069 18.7724 3.88389 19.2734 4.30501 19.695C4.72549 20.1121 5.22416 20.442 5.77243 20.666C6.3207 20.8899 6.90778 21.0034 7.50001 21C8.10253 21.0006 8.69917 20.8815 9.25535 20.6498C9.81152 20.4181 10.3162 20.0782 10.74 19.65L13.5 16.8675L12.435 15.8025Z" fill="currentColor"/>
<path d="M11.5575 8.19745L14.3475 5.40745C14.6262 5.12872 14.9571 4.90762 15.3213 4.75677C15.6855 4.60593 16.0758 4.52828 16.47 4.52828C16.8642 4.52828 17.2545 4.60593 17.6187 4.75677C17.9829 4.90762 18.3138 5.12872 18.5925 5.40745C18.8712 5.68618 19.0923 6.01709 19.2432 6.38126C19.394 6.74544 19.4717 7.13577 19.4717 7.52995C19.4717 7.92414 19.394 8.31446 19.2432 8.67864C19.0923 9.04282 18.8712 9.37372 18.5925 9.65245L15.8025 12.4425L16.8675 13.5L19.65 10.71C20.077 10.2943 20.4172 9.79807 20.6509 9.24994C20.8846 8.7018 21.007 8.11271 21.0112 7.51686C21.0154 6.92101 20.9012 6.33026 20.6753 5.77889C20.4493 5.22752 20.1161 4.72652 19.695 4.30495C19.2745 3.88789 18.7758 3.55792 18.2276 3.33398C17.6793 3.11004 17.0922 2.99653 16.5 2.99995C15.8975 2.99937 15.3008 3.1184 14.7447 3.35014C14.1885 3.58188 13.6838 3.92172 13.26 4.34995L10.5 7.13245L11.5575 8.19745Z" fill="currentColor"/>
</g>
<defs>
<clipPath id="clip0_677_17440">
<rect width="24" height="24" fill="white"/>
</clipPath>
</defs>
</svg>
