<svg width="18" height="18" viewBox="0 0 18 18" fill="none" xmlns="http://www.w3.org/2000/svg">
  <path fill-rule="evenodd" clip-rule="evenodd" d="M1.11386 0.211639L17.7711 16.9055L16.8862 17.7884L11.3435 12.2335L10.05 13.7625L11.1188 14.8313L10.25 15.7188L6.70003 12.1813L1.13128 17.75L0.250028 16.8625L5.81878 11.3L2.28128 7.75L3.16253 6.88125L4.23753 7.95L5.77318 6.65091L0.229004 1.09455L1.11386 0.211639ZM6.65818 7.53786L10.4583 11.3464L9.16253 12.875L5.12503 8.8375L6.65818 7.53786Z" fill="currentColor"/>
  <path d="M16.125 6.58125L12.9635 10.3185L12.08 9.43331L15.25 5.69375L12.3063 2.75L8.57058 5.91673L7.6873 5.03166L11.4188 1.875L10.6813 1.1375L11.5 0.250002L17.75 6.4375L16.8688 7.31875L16.125 6.58125Z" fill="currentColor"/>
</svg>
