<svg width="24" height="24" viewBox="0 0 24 24" fill="none" xmlns="http://www.w3.org/2000/svg">
<g clip-path="url(#clip0_547_19021)">
<path d="M22.5 14.55L21.45 13.5L18.75 16.2L16.05 13.5L15 14.55L17.7 17.25L15 19.95L16.05 21L18.75 18.3L21.45 21L22.5 19.95L19.8 17.25L22.5 14.55Z" fill="currentColor"/>
<path d="M12 19.5H9V13.5H12V12H9C8.175 12 7.5 12.675 7.5 13.5V19.5H4.5V4.5H7.5V7.5C7.5 8.325 8.175 9 9 9H15C15.825 9 16.5 8.325 16.5 7.5V4.8L19.5 7.8V12H21V7.5C21 7.275 20.925 7.125 20.775 6.975L17.025 3.225C16.875 3.075 16.725 3 16.5 3H4.5C3.675 3 3 3.675 3 4.5V19.5C3 20.325 3.675 21 4.5 21H12V19.5ZM9 4.5H15V7.5H9V4.5Z" fill="currentColor"/>
</g>
<defs>
<clipPath id="clip0_547_19021">
<rect width="24" height="24" fill="currentColor"/>
</clipPath>
</defs>
</svg>
