<svg width="24" height="24" viewBox="0 0 24 24" fill="none" xmlns="http://www.w3.org/2000/svg">
    <path d="M5.3088 6H9V7.5H3V1.5H4.5V4.6758C5.95507 3.1791 7.82382 2.15086 9.86688 1.7228C11.9099 1.29474 14.0343 1.48635 15.9678 2.27309C17.9013 3.05982 19.5559 4.40586 20.7196 6.13878C21.8834 7.87169 22.5033 9.91258 22.5 12H21C21.0024 10.1782 20.4511 8.39867 19.4193 6.89727C18.3874 5.39586 16.9237 4.24345 15.222 3.59278C13.5204 2.94211 11.6612 2.82388 9.89081 3.25378C8.12046 3.68367 6.52253 4.64139 5.3088 6Z" fill="currentColor"/>
    <path d="M12 21C9.61387 20.9973 7.32623 20.0483 5.63898 18.361C3.95173 16.6738 3.00266 14.3861 3 12H1.5C1.50314 14.7838 2.61039 17.4527 4.57884 19.4212C6.5473 21.3896 9.21619 22.4969 12 22.5V21Z" fill="currentColor"/>
    <path d="M18.75 17.6895L20.25 19.1895L19.1895 20.25L17.25 18.3105V15.75H18.75V17.6895Z" fill="currentColor"/>
    <path fill-rule="evenodd" clip-rule="evenodd" d="M15.0833 22.3652C15.9466 22.9421 16.9616 23.25 18 23.25C19.3919 23.2485 20.7264 22.6948 21.7106 21.7106C22.6948 20.7264 23.2484 19.3919 23.25 18C23.25 16.9617 22.9421 15.9466 22.3652 15.0833C21.7883 14.2199 20.9684 13.547 20.0091 13.1496C19.0498 12.7523 17.9942 12.6483 16.9758 12.8509C15.9574 13.0535 15.0219 13.5535 14.2877 14.2877C13.5535 15.0219 13.0534 15.9574 12.8509 16.9758C12.6483 17.9942 12.7523 19.0498 13.1496 20.0091C13.547 20.9684 14.2199 21.7883 15.0833 22.3652ZM15.9166 14.882C16.5333 14.4699 17.2583 14.25 18 14.25C18.9942 14.2511 19.9474 14.6465 20.6504 15.3496C21.3535 16.0526 21.7489 17.0058 21.75 18C21.75 18.7417 21.5301 19.4667 21.118 20.0834C20.706 20.7001 20.1203 21.1807 19.4351 21.4646C18.7498 21.7484 17.9958 21.8226 17.2684 21.6779C16.541 21.5333 15.8728 21.1761 15.3483 20.6517C14.8239 20.1272 14.4667 19.459 14.3221 18.7316C14.1774 18.0042 14.2516 17.2502 14.5354 16.5649C14.8193 15.8797 15.2999 15.294 15.9166 14.882Z" fill="currentColor"/>
</svg>
