<svg width="24" height="24" viewBox="0 0 24 24" fill="none" xmlns="http://www.w3.org/2000/svg">
<path d="M19.5 18V21H4.5V18H3V21L3.0057 20.9963C3.00499 21.1932 3.04309 21.3883 3.11782 21.5704C3.19255 21.7526 3.30244 21.9182 3.44122 22.0579C3.57999 22.1975 3.74493 22.3084 3.92661 22.3843C4.10828 22.4602 4.30312 22.4995 4.5 22.5H19.5C19.8978 22.5 20.2794 22.342 20.5607 22.0607C20.842 21.7794 21 21.3978 21 21V18H19.5Z" fill="currentColor"/>
<path d="M4.5 9L5.55825 10.0538L11.25 4.36875V18H12.75V4.36875L18.4432 10.0538L19.5 9L12 1.5L4.5 9Z" fill="currentColor"/>
</svg>
