<svg width="32" height="32" viewBox="0 0 32 32" fill="none" xmlns="http://www.w3.org/2000/svg">
<g clip-path="url(#clip0_3044_259)">
<path d="M25 23H24.9785C24.7649 22.9951 24.5585 22.922 24.3894 22.7915C24.2203 22.661 24.0973 22.4798 24.0385 22.2744L20.8711 11.19L18.9365 16.3507C18.865 16.5413 18.7371 16.7057 18.5697 16.8217C18.4024 16.9377 18.2036 16.9999 18 17H14V15H17.3066L20.0635 7.64888C20.1375 7.45189 20.2717 7.28325 20.4471 7.16693C20.6224 7.05062 20.83 6.99255 21.0402 7.00099C21.2505 7.00943 21.4527 7.08394 21.6182 7.21394C21.7837 7.34394 21.9039 7.5228 21.9619 7.72508L25.0732 18.6172L27.0518 12.6836C27.118 12.4845 27.2453 12.3113 27.4155 12.1886C27.5857 12.0659 27.7902 11.9999 28 12H32V14H28.7207L25.9482 22.3164C25.882 22.5155 25.7548 22.6887 25.5846 22.8115C25.4144 22.9342 25.2098 23.0001 25 23Z" fill="currentColor"/>
<path d="M15 30H13V23C12.9991 22.2046 12.6828 21.4421 12.1204 20.8796C11.5579 20.3172 10.7954 20.0009 10 20H6C5.20462 20.0009 4.44206 20.3172 3.87964 20.8796C3.31722 21.4421 3.00087 22.2046 3 23V30H1V23C1.00156 21.6744 1.52885 20.4035 2.46619 19.4662C3.40353 18.5288 4.6744 18.0016 6 18H10C11.3256 18.0016 12.5965 18.5288 13.5338 19.4662C14.4712 20.4035 14.9984 21.6744 15 23V30Z" fill="currentColor"/>
<path d="M8 8C8.59335 8 9.17337 8.17595 9.66671 8.50559C10.1601 8.83524 10.5446 9.30377 10.7716 9.85195C10.9987 10.4001 11.0581 11.0033 10.9424 11.5853C10.8266 12.1672 10.5409 12.7018 10.1213 13.1213C9.70177 13.5409 9.16722 13.8266 8.58527 13.9424C8.00333 14.0581 7.40013 13.9987 6.85195 13.7716C6.30377 13.5446 5.83524 13.1601 5.50559 12.6667C5.17595 12.1734 5 11.5933 5 11C5 10.2044 5.31607 9.44129 5.87868 8.87868C6.44129 8.31607 7.20435 8 8 8ZM8 6C7.0111 6 6.0444 6.29324 5.22215 6.84265C4.39991 7.39206 3.75904 8.17295 3.3806 9.08658C3.00217 10.0002 2.90315 11.0055 3.09608 11.9755C3.289 12.9454 3.76521 13.8363 4.46447 14.5355C5.16373 15.2348 6.05465 15.711 7.02455 15.9039C7.99446 16.0969 8.99979 15.9978 9.91342 15.6194C10.827 15.241 11.6079 14.6001 12.1573 13.7779C12.7068 12.9556 13 11.9889 13 11C13 9.67392 12.4732 8.40215 11.5355 7.46447C10.5979 6.52678 9.32609 6 8 6Z" fill="currentColor"/>
</g>
<defs>
<clipPath id="clip0_3044_259">
<rect width="32" height="32" fill="white"/>
</clipPath>
</defs>
</svg>
