<svg width="24" height="24" viewBox="0 0 24 24" fill="none" xmlns="http://www.w3.org/2000/svg">
<g clip-path="url(#clip0_6915_27814)">
<path d="M12 22.5H10.5V18.75C10.4993 18.1535 10.2621 17.5815 9.84027 17.1597C9.41845 16.7379 8.84654 16.5007 8.25 16.5H5.25C4.65346 16.5007 4.08155 16.7379 3.65973 17.1597C3.23792 17.5815 3.00066 18.1535 3 18.75V22.5H1.5V18.75C1.50117 17.7558 1.89664 16.8027 2.59964 16.0996C3.30265 15.3966 4.2558 15.0012 5.25 15H8.25C9.2442 15.0012 10.1973 15.3966 10.9004 16.0996C11.6034 16.8027 11.9988 17.7558 12 18.75V22.5Z" fill="currentColor"/>
<path d="M6.75 7.5C7.19501 7.5 7.63002 7.63196 8.00003 7.87919C8.37005 8.12643 8.65843 8.47783 8.82873 8.88896C8.99903 9.3001 9.04359 9.7525 8.95677 10.189C8.86995 10.6254 8.65566 11.0263 8.34099 11.341C8.02632 11.6557 7.62541 11.87 7.18895 11.9568C6.7525 12.0436 6.3001 11.999 5.88896 11.8287C5.47783 11.6584 5.12643 11.37 4.8792 11C4.63196 10.63 4.5 10.195 4.5 9.75C4.5 9.15326 4.73705 8.58097 5.15901 8.15901C5.58097 7.73705 6.15326 7.5 6.75 7.5ZM6.75 6C6.00832 6 5.2833 6.21993 4.66661 6.63199C4.04993 7.04404 3.56928 7.62971 3.28545 8.31494C3.00162 9.00016 2.92736 9.75416 3.07206 10.4816C3.21675 11.209 3.5739 11.8772 4.09835 12.4017C4.6228 12.9261 5.29098 13.2833 6.01841 13.4279C6.74584 13.5726 7.49984 13.4984 8.18506 13.2145C8.87029 12.9307 9.45596 12.4501 9.86801 11.8334C10.2801 11.2167 10.5 10.4917 10.5 9.75C10.5 9.25754 10.403 8.76991 10.2146 8.31494C10.0261 7.85997 9.74987 7.44657 9.40165 7.09835C9.05343 6.75013 8.64004 6.47391 8.18506 6.28545C7.73009 6.097 7.24246 6 6.75 6Z" fill="currentColor"/>
<path d="M22.5 9.00011C22.3702 9.00191 22.2412 9.02062 22.1162 9.05576L21.3248 8.26436C21.6029 7.80822 21.75 7.28433 21.75 6.75011C21.75 6.2159 21.6029 5.692 21.3248 5.23586L22.1162 4.44446C22.4409 4.53483 22.7864 4.51511 23.0988 4.38838C23.4111 4.26165 23.6726 4.03505 23.8426 3.74396C24.0125 3.45288 24.0813 3.11371 24.0381 2.77943C23.9949 2.44515 23.8422 2.13459 23.6039 1.89625C23.3655 1.65792 23.055 1.50523 22.7207 1.46204C22.3864 1.41885 22.0472 1.48759 21.7561 1.65753C21.4651 1.82746 21.2385 2.08902 21.1117 2.40134C20.985 2.71367 20.9653 3.05917 21.0556 3.38389L20.2642 4.17529C19.8081 3.89722 19.2842 3.75012 18.75 3.75012C18.2158 3.75012 17.6919 3.89722 17.2357 4.17529L16.4443 3.38389C16.5347 3.05917 16.515 2.71367 16.3883 2.40134C16.2615 2.08902 16.0349 1.82746 15.7438 1.65753C15.4528 1.48759 15.1136 1.41885 14.7793 1.46204C14.445 1.50523 14.1345 1.65792 13.8961 1.89625C13.6578 2.13459 13.5051 2.44515 13.4619 2.77943C13.4187 3.11371 13.4875 3.45288 13.6574 3.74396C13.8273 4.03505 14.0889 4.26165 14.4012 4.38838C14.7135 4.51511 15.059 4.53483 15.3838 4.44446L16.1752 5.23586C15.8971 5.692 15.75 6.2159 15.75 6.75011C15.75 7.28433 15.8971 7.80822 16.1752 8.26436L15.3838 9.05576C15.059 8.96539 14.7135 8.98511 14.4012 9.11184C14.0889 9.23857 13.8273 9.46518 13.6574 9.75626C13.4875 10.0473 13.4187 10.3865 13.4619 10.7208C13.5051 11.0551 13.6578 11.3656 13.8961 11.604C14.1345 11.8423 14.445 11.995 14.7793 12.0382C15.1136 12.0814 15.4528 12.0126 15.7438 11.8427C16.0349 11.6728 16.2615 11.4112 16.3883 11.0989C16.515 10.7866 16.5347 10.4411 16.4443 10.1163L17.2357 9.32494C17.6919 9.60301 18.2158 9.75011 18.75 9.75011C19.2842 9.75011 19.8081 9.60301 20.2642 9.32494L21.0556 10.1163C20.9762 10.4186 20.9933 10.7382 21.1047 11.0303C21.2161 11.3224 21.4162 11.5722 21.6768 11.7448C21.9374 11.9174 22.2455 12.0041 22.5578 11.9927C22.8702 11.9813 23.1712 11.8723 23.4185 11.6812C23.6658 11.4901 23.8471 11.2263 23.9369 10.9269C24.0267 10.6275 24.0205 10.3075 23.9192 10.0118C23.8179 9.71608 23.6266 9.45951 23.372 9.27807C23.1175 9.09663 22.8126 8.99944 22.5 9.00011ZM17.25 6.75011C17.25 6.45344 17.338 6.16343 17.5028 5.91676C17.6676 5.67008 17.9019 5.47782 18.176 5.36429C18.4501 5.25076 18.7517 5.22106 19.0426 5.27893C19.3336 5.33681 19.6009 5.47967 19.8107 5.68945C20.0204 5.89923 20.1633 6.16651 20.2212 6.45748C20.279 6.74845 20.2493 7.05005 20.1358 7.32414C20.0223 7.59823 19.83 7.83249 19.5833 7.99732C19.3367 8.16214 19.0467 8.25011 18.75 8.25011C18.3523 8.24962 17.9711 8.09142 17.6899 7.81022C17.4087 7.52903 17.2505 7.14778 17.25 6.75011Z" fill="currentColor"/>
</g>
<defs>
<clipPath id="clip0_6915_27814">
<rect width="24" height="24" fill="white"/>
</clipPath>
</defs>
</svg>
