<svg width="24" height="24" viewBox="0 0 24 24" fill="none" xmlns="http://www.w3.org/2000/svg">
<path fill-rule="evenodd" clip-rule="evenodd" d="M12.3779 0.852178L21.3779 6.10218C21.4911 6.16823 21.5851 6.26281 21.6504 6.37648C21.7157 6.49015 21.75 6.61894 21.75 6.75003V17.25C21.75 17.3811 21.7157 17.5099 21.6504 17.6236C21.5851 17.7372 21.4911 17.8318 21.3779 17.8979L12.3779 23.1479C12.2632 23.2148 12.1328 23.2501 12 23.2501C11.8672 23.2501 11.7368 23.2148 11.6221 23.1479L2.62207 17.8979C2.50885 17.8318 2.41491 17.7372 2.34963 17.6236C2.28435 17.5099 2.25 17.3811 2.25 17.25V6.75003C2.25 6.61894 2.28435 6.49015 2.34963 6.37648C2.41491 6.26281 2.50885 6.16823 2.62207 6.10218L11.6221 0.852178C11.7368 0.785261 11.8672 0.75 12 0.75C12.1328 0.75 12.2632 0.785261 12.3779 0.852178ZM12 21.6318L20.25 16.8194V7.18068L12 2.3683L3.75 7.18068V16.8194L12 21.6318ZM17.8327 11.6089C17.3692 10.4284 16.5695 9.40985 15.5327 8.67947C14.4959 7.94909 13.2676 7.53901 12 7.50003C10.7324 7.53901 9.50405 7.94909 8.46726 8.67947C7.43047 9.40985 6.63079 10.4284 6.16732 11.6089L6 12L6.16732 12.3912C6.63079 13.5717 7.43047 14.5902 8.46726 15.3206C9.50405 16.051 10.7324 16.4611 12 16.5C13.2676 16.4611 14.4959 16.051 15.5327 15.3206C16.5695 14.5902 17.3692 13.5717 17.8327 12.3912L18 12L17.8327 11.6089ZM12 15C11.4067 15 10.8266 14.8241 10.3333 14.4944C9.83994 14.1648 9.45542 13.6963 9.22836 13.1481C9.0013 12.5999 8.94189 11.9967 9.05764 11.4148C9.1734 10.8328 9.45912 10.2983 9.87868 9.87871C10.2982 9.45916 10.8328 9.17343 11.4147 9.05768C11.9967 8.94192 12.5999 9.00133 13.1481 9.2284C13.6962 9.45546 14.1648 9.83998 14.4944 10.3333C14.8241 10.8267 15 11.4067 15 12C14.9991 12.7954 14.6827 13.558 14.1203 14.1204C13.5579 14.6828 12.7954 14.9991 12 15ZM12 13.5C12.8284 13.5 13.5 12.8285 13.5 12C13.5 11.1716 12.8284 10.5 12 10.5C11.1716 10.5 10.5 11.1716 10.5 12C10.5 12.8285 11.1716 13.5 12 13.5Z" fill="currentColor"/>
</svg>
