<svg width="24" height="25" viewBox="0 0 24 25" fill="none" xmlns="http://www.w3.org/2000/svg">
<g clip-path="url(#clip0_7768_47276)">
<path d="M15.75 12.9062H8.25C7.85232 12.9067 7.47105 13.0649 7.18984 13.3461C6.90864 13.6273 6.75046 14.0086 6.75 14.4062V18.9062C6.75046 19.3039 6.90864 19.6852 7.18984 19.9664C7.47105 20.2476 7.85232 20.4058 8.25 20.4062H11.25V21.9062H9V23.4062H15V21.9062H12.75V20.4062H15.75C16.1477 20.4058 16.529 20.2476 16.8102 19.9664C17.0914 19.6852 17.2495 19.3039 17.25 18.9062V14.4062C17.2495 14.0086 17.0914 13.6273 16.8102 13.3461C16.529 13.0649 16.1477 12.9067 15.75 12.9062ZM8.25 18.9062V14.4062H15.75L15.7511 18.9062H8.25Z" fill="currentColor"/>
<path d="M19.3663 8.49928C19.0391 6.78529 18.1244 5.23906 16.7798 4.1269C15.4352 3.01473 13.7449 2.40625 12 2.40625C10.255 2.40625 8.56471 3.01473 7.22012 4.1269C5.87553 5.23906 4.96086 6.78529 4.63362 8.49928C3.28217 8.73996 2.06558 9.46707 1.21353 10.5434C0.361477 11.6196 -0.0670757 12.9706 0.00877178 14.3412C0.0846192 15.7119 0.659619 17.0073 1.62522 17.983C2.59082 18.9587 3.88021 19.5471 5.24997 19.6372V18.1372C4.2175 18.0439 3.25814 17.5648 2.56319 16.7956C1.86823 16.0264 1.48873 15.0234 1.50037 13.9868C1.51201 12.9502 1.91393 11.9561 2.62599 11.2026C3.33804 10.4492 4.30792 9.99178 5.34222 9.92165L5.9696 9.8792L6.0371 9.2537C6.19746 7.78421 6.89477 6.42568 7.99526 5.43875C9.09575 4.45182 10.5219 3.906 12.0001 3.906C13.4783 3.906 14.9045 4.45182 16.005 5.43875C17.1055 6.42568 17.8028 7.78421 17.9631 9.2537L18.0306 9.8792L18.658 9.92165C19.6923 9.99182 20.6622 10.4492 21.3742 11.2027C22.0862 11.9562 22.4881 12.9503 22.4997 13.987C22.5113 15.0236 22.1318 16.0265 21.4368 16.7957C20.7418 17.5649 19.7824 18.0439 18.75 18.1372V19.6372C20.1197 19.5471 21.4091 18.9587 22.3747 17.983C23.3403 17.0073 23.9153 15.7119 23.9912 14.3412C24.067 12.9706 23.6385 11.6196 22.7864 10.5434C21.9344 9.46707 20.7178 8.73996 19.3663 8.49928Z" fill="currentColor"/>
</g>
<defs>
<clipPath id="clip0_7768_47276">
<rect width="24" height="24" fill="white" transform="translate(0 0.90625)"/>
</clipPath>
</defs>
</svg>
