<svg width="24" height="25" viewBox="0 0 24 25" fill="none" xmlns="http://www.w3.org/2000/svg">
<path d="M20.37 6.30908L19.2225 7.27658C20.4014 8.67304 21.0298 10.4519 20.9898 12.279C20.9497 14.106 20.2439 15.8556 19.005 17.1991L20.1075 18.2491C21.5953 16.6369 22.443 14.5369 22.4913 12.3437C22.5396 10.1505 21.7853 8.01521 20.37 6.33908V6.30908Z" fill="currentColor"/>
<path d="M16.185 9.24899C16.8922 10.0875 17.2687 11.1554 17.2438 12.252C17.219 13.3486 16.7945 14.3984 16.05 15.204L17.1525 16.224C18.1447 15.1488 18.7098 13.7481 18.7416 12.2854C18.7734 10.8227 18.2696 9.39878 17.325 8.28149L16.185 9.24899Z" fill="currentColor"/>
<path d="M13.5 22.749C13.4008 22.7485 13.3026 22.7284 13.2112 22.6898C13.1198 22.6512 13.037 22.5948 12.9675 22.524L7.2525 16.749H2.25C2.05109 16.749 1.86032 16.6699 1.71967 16.5293C1.57902 16.3886 1.5 16.1979 1.5 15.999V8.49895C1.5 8.30004 1.57902 8.10928 1.71967 7.96862C1.86032 7.82797 2.05109 7.74895 2.25 7.74895H7.2525L12.9675 1.97395C13.108 1.83427 13.2981 1.75586 13.4963 1.75586C13.6944 1.75586 13.8845 1.83427 14.025 1.97395C14.1663 2.11243 14.2472 2.30113 14.25 2.49895V21.999C14.25 22.1979 14.171 22.3886 14.0303 22.5293C13.8897 22.6699 13.6989 22.749 13.5 22.749Z" fill="currentColor"/>
</svg>
