<svg width="24" height="25" viewBox="0 0 24 25" fill="none" xmlns="http://www.w3.org/2000/svg">
<path d="M23.25 9.55652L22.1925 8.49902L19.5 11.1915L16.8075 8.49902L15.75 9.55652L18.4425 12.249L15.75 14.9415L16.8075 15.999L19.5 13.3065L22.1925 15.999L23.25 14.9415L20.5575 12.249L23.25 9.55652Z" fill="currentColor"/>
<path d="M13.5 22.749C13.4008 22.7485 13.3026 22.7284 13.2112 22.6898C13.1198 22.6512 13.037 22.5948 12.9675 22.524L7.2525 16.749H2.25C2.05109 16.749 1.86032 16.6699 1.71967 16.5293C1.57902 16.3886 1.5 16.1979 1.5 15.999V8.49895C1.5 8.30004 1.57902 8.10928 1.71967 7.96862C1.86032 7.82797 2.05109 7.74895 2.25 7.74895H7.2525L12.9675 1.97395C13.108 1.83427 13.2981 1.75586 13.4963 1.75586C13.6944 1.75586 13.8845 1.83427 14.025 1.97395C14.1663 2.11243 14.2472 2.30113 14.25 2.49895V21.999C14.25 22.1979 14.171 22.3886 14.0303 22.5293C13.8897 22.6699 13.6989 22.749 13.5 22.749Z" fill="currentColor"/>
</svg>
