<svg width="24" height="24" viewBox="0 0 24 24" fill="none" xmlns="http://www.w3.org/2000/svg">
<g clip-path="url(#clip0_19713_20439)">
<path d="M20.37 6.06006L19.2225 7.02756C20.4014 8.42401 21.0298 10.2028 20.9898 12.0299C20.9497 13.857 20.2439 15.6066 19.005 16.9501L20.1075 18.0001C21.5953 16.3879 22.443 14.2879 22.4913 12.0947C22.5396 9.90152 21.7853 7.76619 20.37 6.09006V6.06006Z" fill="currentColor"/>
<path d="M16.185 8.99997C16.8922 9.83849 17.2687 10.9064 17.2438 12.003C17.219 13.0996 16.7945 14.1494 16.05 14.955L17.1525 15.975C18.1447 14.8997 18.7098 13.4991 18.7416 12.0364C18.7734 10.5737 18.2696 9.14976 17.325 8.03247L16.185 8.99997Z" fill="currentColor"/>
<path d="M13.5 22.4999C13.4008 22.4995 13.3026 22.4794 13.2112 22.4408C13.1198 22.4022 13.037 22.3458 12.9675 22.2749L7.2525 16.4999H2.25C2.05109 16.4999 1.86032 16.4209 1.71967 16.2803C1.57902 16.1396 1.5 15.9488 1.5 15.7499V8.24993C1.5 8.05102 1.57902 7.86025 1.71967 7.7196C1.86032 7.57895 2.05109 7.49993 2.25 7.49993H7.2525L12.9675 1.72493C13.108 1.58524 13.2981 1.50684 13.4963 1.50684C13.6944 1.50684 13.8845 1.58524 14.025 1.72493C14.1663 1.8634 14.2472 2.0521 14.25 2.24993V21.7499C14.25 21.9488 14.171 22.1396 14.0303 22.2803C13.8897 22.4209 13.6989 22.4999 13.5 22.4999Z" fill="currentColor"/>
</g>
<defs>
<clipPath id="clip0_19713_20439">
<rect width="24" height="24" fill="currentColor"/>
</clipPath>
</defs>
</svg>
