<svg width="24" height="24" viewBox="0 0 24 24" fill="none" xmlns="http://www.w3.org/2000/svg">
<g clip-path="url(#clip0_7550_33228)">
<path d="M4.5 22.5H19.5C19.8978 22.5 20.2794 22.342 20.5607 22.0607C20.842 21.7794 21 21.3978 21 21V16.5C21 16.1022 20.842 15.7206 20.5607 15.4393C20.2794 15.158 19.8978 15 19.5 15H4.5C4.10218 15 3.72064 15.158 3.43934 15.4393C3.15804 15.7206 3 16.1022 3 16.5V21C3 21.3978 3.15804 21.7794 3.43934 22.0607C3.72064 22.342 4.10218 22.5 4.5 22.5ZM4.5 16.5H19.5V21H4.5V16.5Z" fill="currentColor"/>
<path d="M6.75 19.5C7.16421 19.5 7.5 19.1642 7.5 18.75C7.5 18.3358 7.16421 18 6.75 18C6.33579 18 6 18.3358 6 18.75C6 19.1642 6.33579 19.5 6.75 19.5Z" fill="currentColor"/>
<path d="M12 12C12.6213 12 13.125 11.4963 13.125 10.875C13.125 10.2537 12.6213 9.75 12 9.75C11.3787 9.75 10.875 10.2537 10.875 10.875C10.875 11.4963 11.3787 12 12 12Z" fill="currentColor"/>
<path d="M8.08691 7.74937C8.57939 7.19899 9.18245 6.75869 9.85668 6.45725C10.5309 6.15581 11.2612 6 11.9997 6C12.7383 6 13.4685 6.15581 14.1427 6.45725C14.817 6.75869 15.42 7.19899 15.9125 7.74937L14.795 8.74987C14.4432 8.35659 14.0125 8.04197 13.5308 7.82656C13.0492 7.61115 12.5275 7.49981 11.9999 7.49981C11.4722 7.49981 10.9505 7.61115 10.4689 7.82656C9.98723 8.04197 9.55646 8.35659 9.20471 8.74987L8.08691 7.74937Z" fill="currentColor"/>
<path d="M5.39941 5.54959C6.16804 4.52515 7.16459 3.69369 8.31017 3.12103C9.45575 2.54837 10.7189 2.25024 11.9996 2.25024C13.2804 2.25024 14.5435 2.54837 15.6891 3.12103C16.8347 3.69369 17.8312 4.52515 18.5999 5.54959L17.4 6.45004C16.7712 5.61166 15.9558 4.93121 15.0184 4.46256C14.081 3.99391 13.0474 3.74995 11.9994 3.74998C10.9514 3.75002 9.91779 3.99406 8.98044 4.46277C8.04309 4.93148 7.22774 5.612 6.59896 6.45042L5.39941 5.54959Z" fill="currentColor"/>
</g>
<defs>
<clipPath id="clip0_7550_33228">
<rect width="24" height="24" fill="white"/>
</clipPath>
</defs>
</svg>
