<svg width="25" height="25" viewBox="0 0 25 25" fill="none" xmlns="http://www.w3.org/2000/svg">
<g clip-path="url(#clip0_7766_47271)">
<path d="M12.125 20.8789C12.9534 20.8789 13.625 20.2073 13.625 19.3789C13.625 18.5505 12.9534 17.8789 12.125 17.8789C11.2966 17.8789 10.625 18.5505 10.625 19.3789C10.625 20.2073 11.2966 20.8789 12.125 20.8789Z" fill="currentColor"/>
<path d="M7.97748 15.054L9.03768 16.1138C9.86879 15.3223 10.9722 14.8802 12.1199 14.8789C13.2676 14.8776 14.372 15.3172 15.2049 16.1068L16.265 15.0466C15.1511 13.9753 13.6652 13.3775 12.1197 13.3789C10.5742 13.3803 9.08946 13.9806 7.97748 15.054Z" fill="currentColor"/>
<path d="M4.79673 11.8733L5.85693 12.9335C7.53089 11.297 9.77848 10.3801 12.1194 10.3787C14.4604 10.3773 16.7091 11.2915 18.385 12.926L19.445 11.866C17.4881 9.94994 14.858 8.87751 12.1192 8.87891C9.38047 8.88031 6.75167 9.95529 4.79673 11.8733Z" fill="currentColor"/>
<path d="M22.625 8.68487C19.8267 5.92573 16.0548 4.37891 12.125 4.37891C8.19519 4.37891 4.42331 5.92573 1.625 8.68487V8.70174L2.67822 9.75497C5.19393 7.27279 8.58549 5.88048 12.1196 5.87908C15.6537 5.87768 19.0464 7.26729 21.564 9.74747L22.625 8.68637V8.68487Z" fill="currentColor"/>
</g>
<defs>
<clipPath id="clip0_7766_47271">
<rect width="24" height="24" fill="white" transform="translate(0.125 0.628906)"/>
</clipPath>
</defs>
</svg>
