<svg width="24" height="24" viewBox="0 0 24 24" fill="none" xmlns="http://www.w3.org/2000/svg">
<path d="M13.5 9H6V10.5H13.5V9Z" fill="currentColor"/>
<path d="M16.5859 15C17.8233 13.5306 18.5013 11.671 18.5 9.75C18.5 8.11831 18.0161 6.52325 17.1096 5.16655C16.2031 3.80984 14.9146 2.75242 13.4071 2.128C11.8997 1.50357 10.2409 1.3402 8.64051 1.65853C7.04017 1.97685 5.57016 2.76259 4.41637 3.91637C3.26259 5.07016 2.47685 6.54017 2.15853 8.14051C1.8402 9.74085 2.00357 11.3997 2.628 12.9071C3.25242 14.4146 4.30984 15.7031 5.66655 16.6096C7.02325 17.5161 8.61831 18 10.25 18C12.171 18.0013 14.0306 17.3233 15.5 16.0859L21.1894 21.75L22.25 20.6894L16.5859 15ZM10.25 16.5C8.91498 16.5 7.60994 16.1041 6.4999 15.3624C5.38987 14.6207 4.52471 13.5665 4.01382 12.3331C3.50293 11.0997 3.36925 9.74252 3.6297 8.43314C3.89015 7.12377 4.53303 5.92104 5.47703 4.97703C6.42104 4.03303 7.62377 3.39015 8.93314 3.1297C10.2425 2.86925 11.5997 3.00293 12.8331 3.51382C14.0665 4.02471 15.1207 4.88987 15.8624 5.9999C16.6041 7.10994 17 8.41498 17 9.75C16.998 11.5396 16.2862 13.2553 15.0208 14.5208C13.7553 15.7862 12.0396 16.498 10.25 16.5Z" fill="currentColor"/>
</svg>
