<svg width="24" height="24" viewBox="0 0 24 24" fill="none" xmlns="http://www.w3.org/2000/svg">
<path d="M16.0859 15C17.3233 13.5306 18.0013 11.671 18 9.75C18 8.11831 17.5161 6.52325 16.6096 5.16655C15.7031 3.80984 14.4146 2.75242 12.9071 2.128C11.3997 1.50357 9.74085 1.3402 8.14051 1.65853C6.54017 1.97685 5.07016 2.76259 3.91637 3.91637C2.76259 5.07016 1.97685 6.54017 1.65853 8.14051C1.3402 9.74085 1.50357 11.3997 2.128 12.9071C2.75242 14.4146 3.80984 15.7031 5.16655 16.6096C6.52325 17.5161 8.11831 18 9.75 18C11.671 18.0013 13.5306 17.3233 15 16.0859L20.6894 21.75L21.75 20.6894L16.0859 15ZM9.75 16.5C8.41498 16.5 7.10994 16.1041 5.9999 15.3624C4.88987 14.6207 4.02471 13.5665 3.51382 12.3331C3.00293 11.0997 2.86925 9.74252 3.1297 8.43314C3.39015 7.12377 4.03303 5.92104 4.97703 4.97703C5.92104 4.03303 7.12377 3.39015 8.43314 3.1297C9.74252 2.86925 11.0997 3.00293 12.3331 3.51382C13.5665 4.02471 14.6207 4.88987 15.3624 5.9999C16.1041 7.10994 16.5 8.41498 16.5 9.75C16.498 11.5396 15.7862 13.2553 14.5208 14.5208C13.2553 15.7862 11.5396 16.498 9.75 16.5Z" fill="currentColor"/>
<path d="M7.5 9H6V7.5C6.00046 7.10232 6.15864 6.72105 6.43984 6.43984C6.72105 6.15864 7.10232 6.00046 7.5 6H9V7.5H7.5V9Z" fill="currentColor"/>
<path d="M13.5 9H12V7.5H10.5V6H12C12.3977 6.00046 12.779 6.15864 13.0602 6.43984C13.3414 6.72105 13.4995 7.10232 13.5 7.5V9Z" fill="currentColor"/>
<path d="M9 13.5H7.5C7.10232 13.4995 6.72105 13.3414 6.43984 13.0602C6.15864 12.779 6.00046 12.3977 6 12V10.5H7.5V12H9V13.5Z" fill="currentColor"/>
<path d="M12 13.5H10.5V12H12V10.5H13.5V12C13.4995 12.3977 13.3414 12.779 13.0602 13.0602C12.779 13.3414 12.3977 13.4995 12 13.5Z" fill="currentColor"/>
</svg>
