<svg width="304" height="172" viewBox="0 0 304 172" fill="none" xmlns="http://www.w3.org/2000/svg">
<path d="M151.45 164.742C212.557 164.742 262.094 161.85 262.094 158.283C262.094 154.715 212.557 151.823 151.45 151.823C90.3422 151.823 40.8049 154.715 40.8049 158.283C40.8049 161.85 90.3422 164.742 151.45 164.742Z" fill="#F5F5F5"/>
<path d="M153.099 92.8853L142.199 148.947H170.161L181.061 92.8853H153.099ZM164.694 128.745L163.125 136.814C162.882 137.925 162.278 138.924 161.406 139.654C160.534 140.384 159.445 140.805 158.309 140.849C157.806 140.868 157.306 140.769 156.849 140.56C156.391 140.351 155.988 140.038 155.673 139.646C155.358 139.255 155.138 138.794 155.032 138.303C154.926 137.811 154.936 137.301 155.062 136.814L156.625 128.745C156.869 127.634 157.474 126.634 158.347 125.904C159.22 125.174 160.31 124.754 161.447 124.711C161.95 124.692 162.45 124.791 162.908 125C163.365 125.209 163.768 125.522 164.083 125.913C164.399 126.305 164.618 126.765 164.724 127.257C164.83 127.749 164.82 128.258 164.694 128.745Z" fill="#263238"/>
<path opacity="0.3" d="M153.099 92.8853L142.199 148.947H170.161L181.061 92.8853H153.099ZM164.694 128.745L163.125 136.814C162.882 137.925 162.278 138.924 161.406 139.654C160.534 140.384 159.445 140.805 158.309 140.849C157.806 140.868 157.306 140.769 156.849 140.56C156.391 140.351 155.988 140.038 155.673 139.646C155.358 139.255 155.138 138.794 155.032 138.303C154.926 137.811 154.936 137.301 155.062 136.814L156.625 128.745C156.869 127.634 157.474 126.634 158.347 125.904C159.22 125.174 160.31 124.754 161.447 124.711C161.95 124.692 162.45 124.791 162.908 125C163.365 125.209 163.768 125.522 164.083 125.913C164.399 126.305 164.618 126.765 164.724 127.257C164.83 127.749 164.82 128.258 164.694 128.745Z" fill="white"/>
<path d="M142.262 148.947H139.808L150.702 92.8853H153.156L142.262 148.947Z" fill="#263238"/>
<path opacity="0.6" d="M142.262 148.947H139.808L150.702 92.8853H153.156L142.262 148.947Z" fill="white"/>
<path opacity="0.2" d="M153.093 92.8853H150.702L144.893 122.793H175.246L181.061 92.8853H153.156H153.093Z" fill="black"/>
<path d="M161.447 124.711C161.062 124.712 160.678 124.764 160.306 124.865C161.099 125.106 161.769 125.645 162.175 126.368C162.581 127.091 162.693 127.942 162.486 128.745L160.922 136.814C160.716 137.736 160.263 138.584 159.612 139.267C158.96 139.951 158.135 140.444 157.225 140.695C157.571 140.797 157.931 140.849 158.292 140.849C159.428 140.805 160.517 140.384 161.389 139.654C162.26 138.924 162.865 137.925 163.108 136.814L164.677 128.745C164.803 128.26 164.813 127.752 164.708 127.261C164.603 126.771 164.385 126.312 164.071 125.921C163.758 125.529 163.358 125.216 162.902 125.006C162.447 124.796 161.949 124.695 161.447 124.711Z" fill="#263238"/>
<path opacity="0.6" d="M161.447 124.711C161.062 124.712 160.678 124.764 160.306 124.865C161.099 125.106 161.769 125.645 162.175 126.368C162.581 127.091 162.693 127.942 162.486 128.745L160.922 136.814C160.716 137.736 160.263 138.584 159.612 139.267C158.96 139.951 158.135 140.444 157.225 140.695C157.571 140.797 157.931 140.849 158.292 140.849C159.428 140.805 160.517 140.384 161.389 139.654C162.26 138.924 162.865 137.925 163.108 136.814L164.677 128.745C164.803 128.26 164.813 127.752 164.708 127.261C164.603 126.771 164.385 126.312 164.071 125.921C163.758 125.529 163.358 125.216 162.902 125.006C162.447 124.796 161.949 124.695 161.447 124.711Z" fill="white"/>
<path d="M157.242 148.701H117.113V157.695H157.242V148.701Z" fill="#407BFF"/>
<path d="M157.242 148.701H117.113V157.695H157.242V148.701Z" fill="#A8ADAF"/>
<path d="M210.222 148.701H157.242V157.695H210.222V148.701Z" fill="#407BFF"/>
<path d="M210.222 148.701H157.242V157.695H210.222V148.701Z" fill="#A8ADAF"/>
<path d="M91.4106 119.466H232.403C233.013 119.478 233.62 119.369 234.188 119.145C234.756 118.922 235.274 118.588 235.713 118.164C236.152 117.74 236.503 117.234 236.745 116.674C236.988 116.114 237.118 115.511 237.128 114.901C237.133 114.697 237.123 114.493 237.099 114.291L228.191 12.4226C228.052 11.0248 227.404 9.72694 226.371 8.77501C225.338 7.82308 223.992 7.28332 222.588 7.25812H81.5953C80.9851 7.24679 80.3786 7.35597 79.8107 7.57942C79.2427 7.80286 78.7244 8.13617 78.2855 8.56026C77.8465 8.98435 77.4956 9.49088 77.2528 10.0508C77.0099 10.6108 76.8799 11.2131 76.8703 11.8234C76.8561 12.0267 76.8561 12.2307 76.8703 12.434L85.8239 114.308C85.9584 115.704 86.6023 117.002 87.6328 117.953C88.6633 118.905 90.0082 119.443 91.4106 119.466Z" fill="#263238"/>
<path d="M236.146 103.3L237.105 114.308C237.243 115.53 236.89 116.758 236.124 117.721C235.358 118.684 234.242 119.303 233.019 119.444C232.817 119.468 232.613 119.477 232.409 119.472H91.4107C90.0054 119.452 88.657 118.914 87.6239 117.961C86.5909 117.008 85.9459 115.707 85.8125 114.308L84.8424 103.3H236.146Z" fill="#455A64"/>
<path d="M89.8186 100.178H230.628C230.958 100.185 231.287 100.127 231.594 100.006C231.902 99.8862 232.183 99.7064 232.421 99.4774C232.659 99.2484 232.849 98.9747 232.981 98.6719C233.114 98.3692 233.185 98.0433 233.191 97.7131C233.199 97.6029 233.199 97.4923 233.191 97.3821L225.812 13.1817C225.735 12.4246 225.383 11.7221 224.822 11.2077C224.261 10.6932 223.531 10.4027 222.77 10.3912H81.9664C81.6359 10.3843 81.3073 10.4427 80.9993 10.5629C80.6914 10.6831 80.4101 10.8629 80.1717 11.0918C79.9332 11.3207 79.7422 11.5944 79.6095 11.8972C79.4768 12.1999 79.4051 12.5259 79.3984 12.8564C79.3927 12.9648 79.3927 13.0733 79.3984 13.1817L86.777 97.3993C86.8577 98.1538 87.2114 98.8528 87.7716 99.3647C88.3318 99.8765 89.0599 100.166 89.8186 100.178Z" fill="white"/>
<g opacity="0.5">
<path d="M191.173 100.178H204.024L184.941 10.3911H172.084L191.173 100.178Z" fill="white"/>
<path d="M183.03 100.178H186.322L167.234 10.3911H163.941L183.03 100.178Z" fill="white"/>
<path d="M135.14 100.178H137.292L118.209 10.3911H116.052L135.14 100.178Z" fill="white"/>
<path d="M126.997 100.178H130.284L111.201 10.3911H107.908L126.997 100.178Z" fill="white"/>
</g>
<path d="M78.4796 7.27531H81.5954C80.9851 7.26398 80.3787 7.37315 79.8107 7.59659C79.2427 7.82004 78.7244 8.15335 78.2855 8.57744C77.8466 9.00153 77.4956 9.50806 77.2528 10.068C77.01 10.6279 76.88 11.2303 76.8703 11.8406C76.856 12.0439 76.856 12.2479 76.8703 12.4512L85.8239 114.308C85.9573 115.707 86.6023 117.008 87.6353 117.961C88.6684 118.914 90.0168 119.452 91.4221 119.472H88.3063C86.9018 119.447 85.5555 118.907 84.5226 117.955C83.4896 117.003 82.842 115.705 82.7024 114.308L73.7774 12.4283C73.6411 11.2033 73.9967 9.9743 74.766 9.01129C75.5354 8.04829 76.6555 7.43006 77.8804 7.29243C78.0796 7.27536 78.2797 7.26964 78.4796 7.27531Z" fill="#263238"/>
<path opacity="0.6" d="M78.4796 7.27531H81.5954C80.9851 7.26398 80.3787 7.37315 79.8107 7.59659C79.2427 7.82004 78.7244 8.15335 78.2855 8.57744C77.8466 9.00153 77.4956 9.50806 77.2528 10.068C77.01 10.6279 76.88 11.2303 76.8703 11.8406C76.856 12.0439 76.856 12.2479 76.8703 12.4512L85.8239 114.308C85.9573 115.707 86.6023 117.008 87.6353 117.961C88.6684 118.914 90.0168 119.452 91.4221 119.472H88.3063C86.9018 119.447 85.5555 118.907 84.5226 117.955C83.4896 117.003 82.842 115.705 82.7024 114.308L73.7774 12.4283C73.6411 11.2033 73.9967 9.9743 74.766 9.01129C75.5354 8.04829 76.6555 7.43006 77.8804 7.29243C78.0796 7.27536 78.2797 7.26964 78.4796 7.27531Z" fill="white"/>
<path d="M109.358 38.9923H103.001C102.749 38.9867 102.509 38.8898 102.324 38.7196C102.139 38.5495 102.023 38.3177 101.996 38.0678C101.984 37.9502 101.997 37.8314 102.034 37.7191C102.071 37.6068 102.132 37.5037 102.211 37.4164C102.291 37.3291 102.389 37.2596 102.497 37.2126C102.605 37.1655 102.723 37.1419 102.841 37.1434H109.221C109.472 37.1478 109.712 37.2446 109.897 37.4151C110.081 37.5856 110.196 37.818 110.22 38.0678C110.233 38.1871 110.22 38.3078 110.182 38.4218C110.145 38.5357 110.083 38.6401 110.001 38.7279C109.919 38.8157 109.819 38.8848 109.708 38.9304C109.597 38.976 109.478 38.9971 109.358 38.9923Z" fill="#407BFF"/>
<path d="M125.045 31.6081H120.332C120.08 31.6051 119.839 31.5098 119.654 31.3403C119.469 31.1709 119.352 30.9391 119.327 30.6893C119.313 30.5718 119.325 30.4527 119.361 30.34C119.397 30.2273 119.457 30.1237 119.536 30.0361C119.616 29.9485 119.713 29.8789 119.822 29.8321C119.93 29.7853 120.048 29.7624 120.166 29.7648H124.885C125.137 29.7692 125.378 29.8657 125.563 30.0361C125.748 30.2065 125.865 30.4389 125.89 30.6893C125.902 30.8066 125.889 30.9252 125.852 31.0372C125.815 31.1492 125.754 31.252 125.674 31.3389C125.595 31.4257 125.497 31.4947 125.389 31.5411C125.28 31.5875 125.163 31.6103 125.045 31.6081Z" fill="#407BFF"/>
<path d="M176.81 38.9923H170.452C170.201 38.9878 169.961 38.8911 169.777 38.7206C169.593 38.5501 169.478 38.3177 169.454 38.0678C169.441 37.9505 169.453 37.8318 169.489 37.7195C169.526 37.6073 169.586 37.504 169.665 37.4166C169.744 37.3292 169.841 37.2596 169.949 37.2125C170.058 37.1654 170.175 37.1419 170.293 37.1434H176.65C176.901 37.1489 177.142 37.2459 177.326 37.416C177.511 37.5862 177.628 37.818 177.654 38.0678C177.666 38.1855 177.653 38.3043 177.616 38.4166C177.579 38.5289 177.519 38.632 177.439 38.7193C177.359 38.8066 177.262 38.876 177.153 38.9231C177.045 38.9701 176.928 38.9937 176.81 38.9923Z" fill="#407BFF"/>
<path d="M164.101 38.9923H115.498C115.247 38.988 115.005 38.8914 114.82 38.721C114.635 38.5506 114.519 38.3182 114.494 38.0678C114.481 37.9505 114.493 37.8318 114.529 37.7195C114.566 37.6073 114.626 37.504 114.705 37.4166C114.784 37.3292 114.881 37.2596 114.989 37.2125C115.098 37.1654 115.215 37.1419 115.333 37.1434H163.924C164.176 37.1477 164.417 37.2442 164.602 37.4146C164.787 37.5851 164.903 37.8175 164.928 38.0678C164.941 38.1842 164.929 38.3019 164.894 38.4134C164.858 38.5249 164.799 38.6276 164.721 38.7148C164.643 38.802 164.547 38.8718 164.441 38.9196C164.334 38.9674 164.218 38.9922 164.101 38.9923Z" fill="#E0E0E0"/>
<path d="M109.911 45.3439H103.56C103.309 45.3409 103.068 45.2456 102.882 45.0762C102.697 44.9067 102.581 44.6749 102.556 44.4251C102.542 44.3076 102.553 44.1885 102.589 44.0759C102.625 43.9632 102.685 43.8595 102.765 43.7719C102.844 43.6843 102.941 43.6147 103.05 43.5679C103.159 43.5212 103.276 43.4982 103.395 43.5007H109.752C110.003 43.505 110.244 43.6015 110.43 43.7719C110.615 43.9423 110.731 44.1748 110.756 44.4251C110.769 44.5427 110.757 44.6616 110.72 44.774C110.683 44.8864 110.623 44.9897 110.543 45.0767C110.463 45.1638 110.365 45.2327 110.256 45.2788C110.147 45.3249 110.03 45.3471 109.911 45.3439Z" fill="#407BFF"/>
<path d="M129.194 45.3438H116.069C115.818 45.3396 115.578 45.2439 115.393 45.0746C115.208 44.9054 115.091 44.6743 115.064 44.425C115.052 44.3074 115.065 44.1886 115.102 44.0763C115.139 43.964 115.2 43.8608 115.28 43.7735C115.359 43.6863 115.457 43.6168 115.565 43.5698C115.674 43.5227 115.791 43.4991 115.909 43.5005H129.034C129.286 43.5036 129.528 43.5997 129.713 43.7704C129.899 43.941 130.015 44.1742 130.039 44.425C130.052 44.5425 130.039 44.6615 130.003 44.7739C129.966 44.8863 129.905 44.9895 129.825 45.0766C129.745 45.1637 129.648 45.2326 129.539 45.2787C129.43 45.3247 129.312 45.3469 129.194 45.3438Z" fill="#407BFF"/>
<path d="M152.762 45.3439H133.286C133.035 45.3397 132.794 45.244 132.609 45.0747C132.424 44.9055 132.308 44.6744 132.281 44.4251C132.268 44.3073 132.281 44.1881 132.317 44.0754C132.354 43.9627 132.414 43.8592 132.494 43.7717C132.574 43.6842 132.672 43.6148 132.781 43.568C132.89 43.5213 133.007 43.4983 133.126 43.5007H152.591C152.843 43.505 153.084 43.6015 153.269 43.7719C153.454 43.9423 153.57 44.1748 153.595 44.4251C153.608 44.5417 153.596 44.6597 153.56 44.7712C153.524 44.8828 153.465 44.9855 153.386 45.0723C153.307 45.1592 153.211 45.2283 153.103 45.2752C152.996 45.322 152.879 45.3454 152.762 45.3439Z" fill="#407BFF"/>
<path d="M110.471 51.7008H104.114C103.863 51.6966 103.622 51.6009 103.437 51.4317C103.252 51.2624 103.136 51.0314 103.109 50.782C103.096 50.6642 103.108 50.545 103.145 50.4324C103.182 50.3197 103.242 50.2161 103.322 50.1286C103.402 50.0411 103.5 49.9717 103.609 49.9249C103.718 49.8782 103.835 49.8552 103.954 49.8576H110.311C110.562 49.8621 110.802 49.9588 110.987 50.1293C111.171 50.2998 111.286 50.5322 111.31 50.782C111.323 50.8991 111.31 51.0176 111.274 51.1296C111.238 51.2416 111.178 51.3445 111.098 51.4314C111.019 51.5184 110.922 51.5874 110.814 51.6339C110.705 51.6803 110.588 51.7032 110.471 51.7008Z" fill="#407BFF"/>
<path d="M142.656 51.7008H116.639C116.388 51.6979 116.147 51.6026 115.962 51.4331C115.777 51.2636 115.66 51.0319 115.635 50.7821C115.621 50.6646 115.633 50.5455 115.669 50.4328C115.705 50.3201 115.765 50.2164 115.844 50.1288C115.924 50.0412 116.021 49.9717 116.13 49.9249C116.238 49.8781 116.356 49.8551 116.474 49.8576H142.513C142.765 49.8619 143.006 49.9585 143.191 50.1289C143.376 50.2993 143.492 50.5317 143.517 50.7821C143.531 50.9011 143.518 51.0216 143.48 51.1352C143.443 51.2489 143.381 51.353 143.299 51.4404C143.217 51.5277 143.117 51.5962 143.006 51.6412C142.895 51.6862 142.775 51.7065 142.656 51.7008Z" fill="#E0E0E0"/>
<path d="M111.024 58.058H104.656C104.405 58.0535 104.164 57.9568 103.98 57.7863C103.796 57.6158 103.681 57.3834 103.657 57.1335C103.644 57.0165 103.656 56.898 103.693 56.786C103.729 56.674 103.789 56.5711 103.868 56.4841C103.948 56.3972 104.045 56.3281 104.153 56.2817C104.261 56.2352 104.378 56.2124 104.496 56.2148H110.853C111.104 56.2189 111.344 56.3147 111.529 56.4839C111.714 56.6531 111.831 56.8842 111.857 57.1335C111.87 57.2504 111.858 57.3686 111.822 57.4805C111.786 57.5923 111.727 57.6953 111.648 57.7826C111.569 57.8699 111.473 57.9396 111.366 57.9871C111.258 58.0345 111.142 58.0587 111.024 58.058Z" fill="#407BFF"/>
<path d="M128.144 58.0582H117.176C116.924 58.0539 116.683 57.9574 116.498 57.7869C116.313 57.6165 116.197 57.3841 116.172 57.1338C116.159 57.0164 116.172 56.8978 116.209 56.7858C116.247 56.6738 116.307 56.571 116.387 56.4842C116.467 56.3973 116.564 56.3284 116.673 56.282C116.781 56.2356 116.898 56.2128 117.016 56.215H127.984C128.235 56.2192 128.475 56.3149 128.66 56.4841C128.845 56.6534 128.962 56.8844 128.988 57.1338C129.002 57.2516 128.989 57.3708 128.953 57.4834C128.916 57.5961 128.855 57.6997 128.775 57.7872C128.696 57.8747 128.598 57.9441 128.489 57.9909C128.38 58.0376 128.262 58.0606 128.144 58.0582Z" fill="#E0E0E0"/>
<path d="M153.259 69.7452H142.319C142.067 69.7409 141.826 69.6444 141.641 69.474C141.456 69.3036 141.34 69.0711 141.315 68.8208C141.302 68.7037 141.314 68.5853 141.35 68.4733C141.387 68.3613 141.447 68.2583 141.526 68.1714C141.605 68.0844 141.702 68.0154 141.811 67.9689C141.919 67.9225 142.036 67.8997 142.154 67.902H153.127C153.378 67.9051 153.618 68.0006 153.803 68.1702C153.987 68.3398 154.102 68.5715 154.126 68.8208C154.139 68.9406 154.126 69.0618 154.088 69.1761C154.05 69.2905 153.988 69.3952 153.906 69.4831C153.823 69.571 153.722 69.6399 153.611 69.6852C153.499 69.7304 153.379 69.7509 153.259 69.7452Z" fill="#407BFF"/>
<path d="M210.05 69.7451H158.868C158.617 69.7396 158.376 69.6426 158.191 69.4725C158.007 69.3023 157.89 69.0706 157.864 68.8207C157.851 68.7031 157.863 68.5841 157.9 68.4717C157.936 68.3593 157.997 68.2561 158.077 68.1691C158.157 68.082 158.255 68.0131 158.364 67.967C158.473 67.9209 158.59 67.8987 158.708 67.9019H209.913C210.164 67.905 210.404 68.0005 210.589 68.1701C210.773 68.3396 210.888 68.5714 210.912 68.8207C210.925 68.94 210.913 69.0607 210.875 69.1746C210.837 69.2885 210.775 69.3929 210.693 69.4807C210.612 69.5685 210.512 69.6376 210.401 69.6832C210.29 69.7289 210.17 69.75 210.05 69.7451Z" fill="#E0E0E0"/>
<path d="M191.333 76.1022H138.541C138.29 76.0978 138.048 76.0013 137.863 75.8309C137.678 75.6605 137.562 75.4281 137.537 75.1777C137.524 75.0604 137.536 74.9417 137.573 74.8294C137.609 74.7171 137.669 74.6139 137.748 74.5265C137.827 74.439 137.924 74.3695 138.033 74.3224C138.141 74.2753 138.258 74.2517 138.376 74.2532H191.173C191.424 74.2588 191.665 74.3557 191.85 74.5259C192.035 74.6961 192.151 74.9278 192.177 75.1777C192.189 75.2953 192.177 75.4142 192.139 75.5264C192.102 75.6387 192.042 75.7419 191.962 75.8292C191.882 75.9165 191.785 75.9859 191.677 76.033C191.568 76.08 191.451 76.1036 191.333 76.1022Z" fill="#407BFF"/>
<path d="M210.604 76.1022H197.895C197.644 76.0978 197.403 76.0013 197.217 75.8309C197.032 75.6605 196.916 75.4281 196.891 75.1777C196.878 75.0604 196.89 74.9417 196.927 74.8294C196.963 74.7171 197.023 74.6139 197.102 74.5265C197.181 74.439 197.278 74.3695 197.387 74.3224C197.495 74.2753 197.612 74.2517 197.73 74.2532H210.444C210.695 74.2588 210.936 74.3557 211.121 74.5259C211.306 74.6961 211.422 74.9278 211.448 75.1777C211.461 75.2955 211.449 75.4147 211.412 75.5274C211.376 75.6401 211.315 75.7436 211.235 75.8311C211.156 75.9186 211.058 75.9881 210.949 76.0348C210.84 76.0815 210.722 76.1045 210.604 76.1022Z" fill="#407BFF"/>
<path d="M181.946 82.4535H176.616C176.365 82.4493 176.124 82.3536 175.939 82.1844C175.754 82.0151 175.638 81.7841 175.611 81.5347C175.598 81.4169 175.61 81.2977 175.647 81.185C175.684 81.0724 175.744 80.9688 175.824 80.8813C175.904 80.7938 176.002 80.7244 176.111 80.6776C176.22 80.6309 176.337 80.6079 176.456 80.6103H181.786C182.037 80.6146 182.279 80.7111 182.464 80.8815C182.649 81.0519 182.765 81.2844 182.79 81.5347C182.802 81.6521 182.789 81.7707 182.752 81.8827C182.715 81.9946 182.655 82.0975 182.575 82.1843C182.495 82.2712 182.397 82.3401 182.289 82.3865C182.181 82.4329 182.063 82.4557 181.946 82.4535Z" fill="#407BFF"/>
<path d="M211.163 82.4535H187.686C187.436 82.4493 187.195 82.3536 187.01 82.1844C186.825 82.0151 186.708 81.7841 186.682 81.5347C186.669 81.4169 186.681 81.2977 186.718 81.185C186.755 81.0724 186.815 80.9688 186.895 80.8813C186.975 80.7938 187.073 80.7244 187.181 80.6776C187.29 80.6309 187.408 80.6079 187.526 80.6103H210.998C211.25 80.6134 211.491 80.7095 211.677 80.8801C211.862 81.0508 211.978 81.2839 212.002 81.5347C212.015 81.6518 212.003 81.7703 211.966 81.8822C211.93 81.9942 211.87 82.0972 211.791 82.1841C211.711 82.2711 211.614 82.3401 211.506 82.3866C211.398 82.433 211.281 82.4558 211.163 82.4535Z" fill="#E0E0E0"/>
<path d="M144.602 88.8392H128.988C128.737 88.8348 128.497 88.738 128.313 88.5675C128.129 88.397 128.014 88.1647 127.99 87.9148C127.977 87.7977 127.989 87.6793 128.025 87.5673C128.062 87.4553 128.122 87.3524 128.201 87.2654C128.281 87.1784 128.378 87.1094 128.486 87.0629C128.594 87.0165 128.711 86.9937 128.829 86.996H144.413C144.664 86.9991 144.904 87.0946 145.089 87.2642C145.273 87.4337 145.388 87.6655 145.412 87.9148C145.426 88.0299 145.415 88.1465 145.38 88.2572C145.346 88.3679 145.289 88.4701 145.212 88.5573C145.136 88.6444 145.042 88.7146 144.937 88.7632C144.832 88.8117 144.717 88.8376 144.602 88.8392Z" fill="#E0E0E0"/>
<path d="M211.717 88.8392H165.379C165.128 88.8348 164.888 88.738 164.704 88.5675C164.519 88.397 164.404 88.1647 164.381 87.9148C164.368 87.7977 164.38 87.6793 164.416 87.5673C164.453 87.4553 164.513 87.3524 164.592 87.2654C164.671 87.1784 164.768 87.1094 164.877 87.0629C164.985 87.0165 165.102 86.9937 165.219 86.996H211.557C211.808 87.0002 212.048 87.0959 212.233 87.2651C212.418 87.4344 212.535 87.6654 212.561 87.9148C212.573 88.0324 212.56 88.1512 212.523 88.2635C212.486 88.3758 212.426 88.479 212.346 88.5662C212.266 88.6535 212.169 88.723 212.061 88.77C211.952 88.8171 211.835 88.8407 211.717 88.8392Z" fill="#E0E0E0"/>
<path d="M162.383 58.0581H134.421C134.17 58.0538 133.928 57.9573 133.743 57.7869C133.558 57.6164 133.442 57.384 133.417 57.1337C133.404 57.0161 133.416 56.8971 133.453 56.7847C133.489 56.6723 133.55 56.5691 133.63 56.4821C133.71 56.395 133.808 56.3261 133.917 56.28C134.026 56.2339 134.143 56.2117 134.261 56.2149H162.224C162.474 56.2191 162.715 56.3148 162.9 56.484C163.085 56.6533 163.201 56.8843 163.228 57.1337C163.24 57.2513 163.227 57.3701 163.19 57.4824C163.153 57.5947 163.092 57.6978 163.013 57.7851C162.933 57.8724 162.836 57.9419 162.727 57.9889C162.619 58.036 162.502 58.0595 162.383 58.0581Z" fill="#E0E0E0"/>
<path d="M115.886 64.4152H105.226C104.975 64.4097 104.735 64.3127 104.55 64.1426C104.365 63.9724 104.248 63.7407 104.222 63.4908C104.209 63.373 104.221 63.2538 104.258 63.1411C104.295 63.0284 104.355 62.9249 104.435 62.8374C104.515 62.7499 104.613 62.6804 104.721 62.6337C104.83 62.5869 104.948 62.564 105.067 62.5663H115.726C115.978 62.5719 116.218 62.6688 116.403 62.839C116.588 63.0092 116.704 63.2409 116.731 63.4908C116.743 63.6084 116.73 63.7272 116.693 63.8395C116.656 63.9518 116.595 64.055 116.516 64.1422C116.436 64.2295 116.339 64.299 116.23 64.346C116.122 64.3931 116.004 64.4167 115.886 64.4152Z" fill="#E0E0E0"/>
<path d="M126.169 64.4152H120.503C120.251 64.4108 120.01 64.3143 119.825 64.1439C119.64 63.9735 119.524 63.7411 119.498 63.4907C119.485 63.3734 119.498 63.2547 119.534 63.1424C119.57 63.0301 119.63 62.9268 119.71 62.8394C119.789 62.752 119.886 62.6825 119.994 62.6354C120.102 62.5883 120.219 62.5647 120.337 62.5662H126.01C126.261 62.5718 126.501 62.6687 126.686 62.8389C126.871 63.0091 126.988 63.2408 127.014 63.4907C127.026 63.6083 127.013 63.7271 126.976 63.8394C126.939 63.9517 126.879 64.0549 126.799 64.1422C126.719 64.2294 126.622 64.2989 126.513 64.3459C126.405 64.393 126.288 64.4166 126.169 64.4152Z" fill="#E0E0E0"/>
<path d="M105.962 27.0941L103.149 28.1555L106.145 29.2112C106.258 29.2517 106.357 29.3228 106.432 29.4166C106.506 29.5103 106.553 29.623 106.567 29.7419C106.577 29.8324 106.563 29.9237 106.526 30.0069C106.489 30.0901 106.431 30.1622 106.358 30.2159C106.284 30.2697 106.198 30.3032 106.108 30.3131C106.017 30.3231 105.926 30.3091 105.843 30.2726L102.373 29.0001C102.211 28.9385 102.069 28.8336 101.962 28.6967C101.855 28.5598 101.788 28.3963 101.768 28.224V28.087C101.752 27.9245 101.789 27.7613 101.874 27.6214C101.958 27.4816 102.085 27.3727 102.236 27.3109L105.506 26.0269C105.595 25.9962 105.689 25.9861 105.783 25.9975C105.876 26.0088 105.965 26.0414 106.044 26.0926C106.123 26.1438 106.189 26.2123 106.237 26.2929C106.285 26.3735 106.314 26.4641 106.322 26.5576C106.331 26.6745 106.301 26.7911 106.236 26.8885C106.17 26.9859 106.074 27.0584 105.962 27.0941Z" fill="#263238"/>
<path d="M109.986 23.3164C110.09 23.3175 110.194 23.3419 110.288 23.3878C110.383 23.4337 110.465 23.5001 110.531 23.582C110.597 23.6639 110.643 23.7594 110.667 23.8615C110.691 23.9636 110.692 24.0698 110.67 24.1724L108.57 32.1616C108.539 32.2882 108.465 32.4003 108.362 32.4793C108.258 32.5582 108.13 32.5991 108 32.5953C107.894 32.5934 107.791 32.5683 107.697 32.5217C107.602 32.4751 107.52 32.4083 107.454 32.3259C107.389 32.2436 107.342 32.1478 107.318 32.0454C107.294 31.943 107.293 31.8365 107.315 31.7336L109.415 23.7444C109.447 23.6189 109.521 23.5081 109.625 23.4303C109.729 23.3525 109.856 23.3123 109.986 23.3164Z" fill="#263238"/>
<path d="M116.171 28.0872V28.2241C116.19 28.387 116.154 28.5515 116.07 28.6919C115.985 28.8323 115.856 28.9408 115.704 29.0002L112.439 30.2842C112.351 30.315 112.256 30.325 112.163 30.3137C112.07 30.3023 111.98 30.2698 111.901 30.2185C111.823 30.1673 111.757 30.0988 111.709 30.0182C111.66 29.9376 111.631 29.8471 111.623 29.7535C111.611 29.6415 111.636 29.5285 111.695 29.4325C111.754 29.3364 111.843 29.2626 111.949 29.2228L114.762 28.1671L111.76 27.1056C111.648 27.0638 111.549 26.9915 111.476 26.8967C111.402 26.802 111.356 26.6885 111.344 26.5692C111.334 26.4788 111.348 26.3874 111.385 26.3042C111.422 26.221 111.48 26.1489 111.553 26.0952C111.627 26.0415 111.713 26.0079 111.803 25.998C111.894 25.988 111.985 26.002 112.068 26.0385L115.555 27.3225C115.719 27.3798 115.864 27.4817 115.972 27.6169C116.081 27.752 116.15 27.9149 116.171 28.0872Z" fill="#263238"/>
<path d="M113.29 71.8295C113.029 71.7826 112.666 72.6148 112.472 73.6953C112.357 74.2515 112.334 74.8229 112.405 75.3865C111.881 75.5653 111.387 75.8233 110.942 76.1516C110.049 76.7825 109.445 77.4939 109.599 77.6818C109.754 77.8697 110.599 77.5677 111.492 76.9435C112.059 76.6076 112.523 76.1224 112.834 75.5409C113.126 75.0199 113.318 74.4483 113.398 73.8563C113.606 72.7892 113.552 71.8832 113.29 71.8295Z" fill="#263238"/>
<path d="M116.082 77.4869C115.483 77.2071 114.819 77.098 114.163 77.1714C113.565 77.2316 112.984 77.4047 112.451 77.6815C111.465 78.1379 110.753 78.7083 110.861 78.9499C110.968 79.1915 111.867 79.0103 112.874 78.5472C113.396 78.3216 113.879 78.0134 114.304 77.6345C114.751 77.9586 115.244 78.2142 115.767 78.3929C116.793 78.762 117.699 78.8627 117.78 78.6144C117.861 78.366 117.082 77.8694 116.082 77.4869Z" fill="#263238"/>
<path d="M108.284 70.5813C108.049 70.6886 108.223 71.588 108.687 72.5946C108.912 73.1188 109.222 73.6019 109.606 74.0242C109.279 74.4699 109.024 74.9634 108.848 75.4872C108.472 76.514 108.371 77.4201 108.619 77.5006C108.868 77.5811 109.371 76.8295 109.747 75.8026C110.027 75.2041 110.136 74.5399 110.062 73.8832C110.005 73.2881 109.834 72.7096 109.559 72.1786C109.096 71.1584 108.525 70.4873 108.284 70.5813Z" fill="#263238"/>
<path d="M96.3112 88.8085C96.271 88.5468 97.1032 88.1844 98.177 87.9965C98.7351 87.8782 99.3092 87.8555 99.8749 87.9294C100.053 87.4032 100.311 86.9076 100.64 86.4596C101.271 85.567 101.982 84.963 102.17 85.1173C102.358 85.2717 102.056 86.1173 101.425 87.0099C101.095 87.5794 100.611 88.0445 100.029 88.3522C99.5096 88.6475 98.9375 88.839 98.3448 88.9159C97.271 89.1307 96.3582 89.0703 96.3112 88.8085Z" fill="#263238"/>
<path d="M101.968 91.6002C101.688 91.0017 101.579 90.3374 101.653 89.6808C101.711 89.0857 101.882 88.5071 102.156 87.9761C102.619 86.9828 103.19 86.2715 103.432 86.3855C103.673 86.4996 103.492 87.3922 103.029 88.3989C102.804 88.9231 102.493 89.4062 102.109 89.8284C102.44 90.2742 102.696 90.7706 102.868 91.2982C103.244 92.325 103.344 93.2311 103.096 93.3116C102.848 93.3921 102.317 92.6338 101.968 91.6002Z" fill="#263238"/>
<path d="M95.0562 83.8085C95.1703 83.5669 96.0629 83.7481 97.0696 84.2112C97.5922 84.4325 98.0734 84.7411 98.4924 85.1239C98.9415 84.7988 99.4369 84.5431 99.9622 84.3655C100.989 83.9897 101.895 83.889 101.976 84.1374C102.056 84.3857 101.304 84.8957 100.278 85.2649C99.6781 85.542 99.0153 85.6533 98.3582 85.587C97.7606 85.5268 97.1798 85.3537 96.6468 85.0769C95.6602 84.6139 94.9354 84.0501 95.0562 83.8085Z" fill="#263238"/>
<path d="M101.089 78.1915C101.089 78.4715 101.173 78.7453 101.328 78.9782C101.484 79.2111 101.705 79.3926 101.964 79.4998C102.222 79.6069 102.507 79.635 102.782 79.5803C103.057 79.5257 103.309 79.3908 103.507 79.1928C103.705 78.9948 103.84 78.7424 103.894 78.4677C103.949 78.1931 103.921 77.9083 103.814 77.6496C103.707 77.3908 103.525 77.1696 103.292 77.014C103.059 76.8584 102.786 76.7754 102.506 76.7754V78.1915H101.089Z" fill="#407BFF"/>
<path opacity="0.2" d="M101.089 78.1915C101.089 78.4715 101.173 78.7453 101.328 78.9782C101.484 79.2111 101.705 79.3926 101.964 79.4998C102.222 79.6069 102.507 79.635 102.782 79.5803C103.057 79.5257 103.309 79.3908 103.507 79.1928C103.705 78.9948 103.84 78.7424 103.894 78.4677C103.949 78.1931 103.921 77.9083 103.814 77.6496C103.707 77.3908 103.525 77.1696 103.292 77.014C103.059 76.8584 102.786 76.7754 102.506 76.7754V78.1915H101.089Z" fill="black"/>
<path d="M100.848 86.6343C101.361 87.6814 102.041 88.638 102.861 89.4665C106.452 93.057 111.801 93.4932 114.807 90.5134C117.814 87.5336 117.351 82.1512 113.767 78.5673C112.937 77.7484 111.981 77.0686 110.935 76.554L100.848 86.6343Z" fill="#407BFF"/>
<path opacity="0.3" d="M100.848 86.6343C101.361 87.6814 102.041 88.638 102.861 89.4665C106.452 93.057 111.801 93.4932 114.807 90.5134C117.814 87.5336 117.351 82.1512 113.767 78.5673C112.937 77.7484 111.981 77.0686 110.935 76.554L100.848 86.6343Z" fill="black"/>
<path d="M101.855 85.6276L109.942 77.5405C107.392 76.2855 104.486 76.507 102.653 78.3325C100.821 80.1579 100.6 83.0706 101.855 85.6276Z" fill="#407BFF"/>
<path opacity="0.5" d="M101.855 85.6276L109.942 77.5405C107.392 76.2855 104.486 76.507 102.653 78.3325C100.821 80.1579 100.6 83.0706 101.855 85.6276Z" fill="black"/>
<path d="M94.3113 82.1046C94.6744 81.2307 95.2031 80.4354 95.8684 79.7624C97.62 78.0308 99.7341 78.3798 101.573 79.8026C101.7 79.8966 101.875 79.7221 101.747 79.6281C100.07 78.3328 98.0562 77.7221 96.2375 79.1114C95.2748 79.8848 94.53 80.8956 94.0764 82.0442C94.016 82.1918 94.2509 82.2522 94.3113 82.1046Z" fill="#263238"/>
<path d="M106.344 69.7557C105.195 70.2112 104.184 70.9583 103.412 71.9234C102.029 73.7355 102.633 75.7556 103.935 77.4334C104.029 77.5609 104.203 77.3797 104.103 77.2589C102.687 75.42 102.331 73.2925 104.069 71.5543C104.739 70.8855 105.535 70.3562 106.411 69.9973C106.552 69.9369 106.492 69.6953 106.344 69.7557Z" fill="#263238"/>
<path d="M205.782 39.2936L202.758 39.8267L203.292 42.85L206.315 42.3169L205.782 39.2936Z" fill="black"/>
<path d="M206.114 15.1105C205.898 15.0716 205.598 15.7599 205.437 16.6536C205.342 17.1137 205.323 17.5863 205.382 18.0524C204.948 18.2003 204.54 18.4137 204.171 18.6852C203.433 19.207 202.934 19.7954 203.061 19.9508C203.189 20.1063 203.888 19.8565 204.627 19.3402C205.096 19.0624 205.48 18.6611 205.737 18.1801C205.979 17.7492 206.137 17.2765 206.203 16.7868C206.375 15.9042 206.331 15.1549 206.114 15.1105Z" fill="#263238"/>
<path d="M208.423 19.79C207.928 19.5587 207.379 19.4684 206.836 19.5292C206.342 19.5789 205.861 19.7221 205.42 19.951C204.604 20.3285 204.016 20.8003 204.105 21.0001C204.194 21.2 204.938 21.0501 205.77 20.6671C206.202 20.4804 206.601 20.2255 206.952 19.9122C207.322 20.1802 207.73 20.3916 208.163 20.5394C209.012 20.8447 209.761 20.928 209.828 20.7226C209.894 20.5172 209.251 20.1064 208.423 19.79Z" fill="#263238"/>
<path d="M201.973 14.078C201.779 14.1669 201.923 14.9107 202.306 15.7433C202.493 16.1768 202.75 16.5764 203.067 16.9257C202.797 17.2943 202.585 17.7025 202.44 18.1357C202.129 18.985 202.046 19.7344 202.251 19.801C202.456 19.8676 202.873 19.2459 203.184 18.3966C203.415 17.9016 203.505 17.3522 203.444 16.8091C203.397 16.3169 203.255 15.8384 203.028 15.3992C202.645 14.5554 202.173 14.0003 201.973 14.078Z" fill="#263238"/>
<path d="M192.07 29.1545C192.037 28.938 192.725 28.6382 193.614 28.4828C194.075 28.3849 194.55 28.3662 195.018 28.4273C195.166 27.9921 195.379 27.5821 195.651 27.2116C196.173 26.4734 196.761 25.9738 196.916 26.1015C197.072 26.2291 196.822 26.9285 196.3 27.6668C196.027 28.1378 195.627 28.5225 195.146 28.777C194.716 29.0213 194.243 29.1796 193.752 29.2433C192.864 29.4209 192.109 29.3709 192.07 29.1545Z" fill="#263238"/>
<path d="M196.75 31.4634C196.518 30.9684 196.428 30.4189 196.489 29.8758C196.537 29.3836 196.678 28.9051 196.905 28.4659C197.289 27.6443 197.76 27.056 197.96 27.1503C198.16 27.2447 198.01 27.983 197.627 28.8156C197.441 29.2491 197.184 29.6487 196.867 29.9979C197.14 30.3666 197.352 30.7772 197.494 31.2136C197.805 32.0629 197.888 32.8122 197.683 32.8788C197.477 32.9454 197.039 32.3182 196.75 31.4634Z" fill="#263238"/>
<path d="M191.033 25.0188C191.127 24.8189 191.865 24.9688 192.698 25.3518C193.13 25.5348 193.528 25.7901 193.875 26.1067C194.246 25.8378 194.656 25.6264 195.09 25.4795C195.94 25.1686 196.689 25.0854 196.756 25.2907C196.822 25.4961 196.2 25.918 195.351 26.2233C194.855 26.4525 194.307 26.5445 193.764 26.4897C193.269 26.44 192.789 26.2968 192.348 26.0679C191.532 25.6849 190.933 25.2186 191.033 25.0188Z" fill="#263238"/>
<path d="M196.023 20.3729C196.023 20.6045 196.092 20.831 196.22 21.0236C196.349 21.2162 196.532 21.3663 196.746 21.455C196.96 21.5436 197.195 21.5668 197.423 21.5216C197.65 21.4764 197.859 21.3649 198.022 21.2011C198.186 21.0373 198.298 20.8286 198.343 20.6014C198.388 20.3742 198.365 20.1387 198.276 19.9247C198.188 19.7107 198.037 19.5278 197.845 19.3991C197.652 19.2704 197.426 19.2017 197.194 19.2017V20.3729H196.023Z" fill="#407BFF"/>
<path opacity="0.2" d="M196.023 20.3729C196.023 20.6045 196.092 20.831 196.22 21.0236C196.349 21.2162 196.532 21.3663 196.746 21.455C196.96 21.5436 197.195 21.5668 197.423 21.5216C197.65 21.4764 197.859 21.3649 198.022 21.2011C198.186 21.0373 198.298 20.8286 198.343 20.6014C198.388 20.3742 198.365 20.1387 198.276 19.9247C198.188 19.7107 198.037 19.5278 197.845 19.3991C197.652 19.2704 197.426 19.2017 197.194 19.2017V20.3729H196.023Z" fill="black"/>
<path d="M195.823 27.3558C196.247 28.2218 196.81 29.013 197.488 29.6982C200.458 32.668 204.882 33.0288 207.369 30.5642C209.856 28.0996 209.473 23.6478 206.509 20.6836C205.822 20.0063 205.031 19.444 204.166 19.0183L195.823 27.3558Z" fill="#407BFF"/>
<path opacity="0.3" d="M195.823 27.3558C196.247 28.2218 196.81 29.013 197.488 29.6982C200.458 32.668 204.882 33.0288 207.369 30.5642C209.856 28.0996 209.473 23.6478 206.509 20.6836C205.822 20.0063 205.031 19.444 204.166 19.0183L195.823 27.3558Z" fill="black"/>
<path d="M196.656 26.5233L203.344 19.8345C201.235 18.7965 198.832 18.9797 197.316 20.4895C195.801 21.9994 195.618 24.4085 196.656 26.5233Z" fill="#407BFF"/>
<path opacity="0.5" d="M196.656 26.5233L203.344 19.8345C201.235 18.7965 198.832 18.9797 197.316 20.4895C195.801 21.9994 195.618 24.4085 196.656 26.5233Z" fill="black"/>
<path d="M190.416 23.6089C190.717 22.8862 191.154 22.2283 191.704 21.6717C193.153 20.2395 194.902 20.5282 196.422 21.705C196.528 21.7827 196.672 21.6384 196.567 21.5606C195.179 20.4893 193.514 19.9842 192.01 21.1332C191.213 21.773 190.597 22.609 190.222 23.559C190.172 23.6811 190.366 23.7311 190.416 23.6089Z" fill="#263238"/>
<path d="M200.369 13.3952C199.419 13.7719 198.583 14.3898 197.944 15.1881C196.8 16.6868 197.3 18.3577 198.377 19.7454C198.454 19.8509 198.599 19.701 198.515 19.6011C197.344 18.0801 197.05 16.3205 198.488 14.8828C199.042 14.3296 199.7 13.8918 200.425 13.595C200.541 13.545 200.491 13.3452 200.369 13.3952Z" fill="#263238"/>
<path opacity="0.5" d="M204.623 36.0482L201.791 36.5476L202.29 39.38L205.123 38.8806L204.623 36.0482Z" fill="white"/>
<path d="M203.978 38.1885L203.13 38.3381C202.223 38.4979 201.618 39.3621 201.778 40.2684L204.136 53.6437C204.296 54.55 205.161 55.1552 206.067 54.9954L206.915 54.8458C207.822 54.686 208.427 53.8217 208.267 52.9154L205.909 39.5401C205.749 38.6338 204.885 38.0287 203.978 38.1885Z" fill="black"/>
<path opacity="0.1" d="M206.416 11.5718C206.49 11.8856 206.558 12.1995 206.615 12.5248C206.997 14.6909 206.949 16.9111 206.472 19.0584C205.996 21.2058 205.102 23.2384 203.84 25.0401C202.578 26.8418 200.974 28.3773 199.119 29.559C197.264 30.7406 195.194 31.5453 193.028 31.9271C192.708 31.9842 192.389 32.0298 192.069 32.0641C193.371 33.4381 194.963 34.5052 196.729 35.1883C198.494 35.8713 200.389 36.1532 202.277 36.0134C204.165 35.8736 205.998 35.3157 207.644 34.3801C209.29 33.4445 210.707 32.1546 211.792 30.6038C212.878 29.0531 213.605 27.2802 213.921 25.4138C214.237 23.5473 214.134 21.6339 213.619 19.8121C213.105 17.9904 212.191 16.3059 210.945 14.8807C209.7 13.4555 208.152 12.3252 206.416 11.5718Z" fill="black"/>
<path d="M198.381 8.9618C195.538 9.46383 192.908 10.7975 190.823 12.7943C188.738 14.7911 187.292 17.3612 186.668 20.1798C186.043 22.9984 186.269 25.9388 187.316 28.6293C188.362 31.3198 190.183 33.6395 192.548 35.2951C194.913 36.9507 197.716 37.8679 200.602 37.9308C203.488 37.9936 206.328 37.1992 208.763 35.648C211.198 34.0969 213.118 31.8586 214.281 29.2162C215.444 26.5738 215.797 23.646 215.296 20.8029C214.622 16.9902 212.462 13.6009 209.29 11.3805C206.118 9.15997 202.194 8.28999 198.381 8.9618ZM202.947 34.8811C200.663 35.2839 198.312 35.0005 196.19 34.0669C194.068 33.1333 192.27 31.5914 191.025 29.6361C189.779 27.6808 189.141 25.4 189.192 23.0821C189.242 20.7642 189.979 18.5135 191.309 16.6144C192.639 14.7154 194.502 13.2533 196.663 12.4133C198.824 11.5732 201.185 11.3928 203.449 11.8949C205.712 12.397 207.776 13.5591 209.378 15.2341C210.981 16.9091 212.052 19.0218 212.454 21.3051C212.993 24.3611 212.299 27.5063 210.524 30.0513C208.748 32.5962 206.035 34.3331 202.981 34.8811H202.947Z" fill="#407BFF"/>
<path d="M247.583 40.2361C248.154 41.1092 248.622 41.9481 249.113 42.8097C249.603 43.6714 250.06 44.5217 250.505 45.4234C251.41 47.1978 252.225 49.0167 252.947 50.8731C253.324 51.809 253.644 52.7734 253.952 53.7264L254.009 53.9147L254.089 54.2172C254.136 54.4243 254.173 54.6338 254.197 54.8449C254.242 55.2724 254.232 55.7038 254.169 56.1289C254.048 56.8963 253.766 57.6295 253.341 58.2803C252.649 59.2997 251.736 60.1501 250.67 60.7683C250.207 61.0534 249.722 61.3032 249.221 61.5159C248.723 61.7413 248.21 61.932 247.686 62.0865L246.607 59.8039C247.275 59.2578 247.906 58.6688 248.496 58.0406C249.001 57.5362 249.4 56.9369 249.672 56.2773C249.733 56.1664 249.765 56.0417 249.765 55.9149C249.765 55.7881 249.733 55.6634 249.672 55.5525L249.632 55.4783C249.63 55.4651 249.63 55.4516 249.632 55.4384L249.569 55.2843C249.23 54.4511 248.867 53.618 248.479 52.7848C247.703 51.1128 246.853 49.4579 245.963 47.8144L244.61 45.3549L243.195 42.9353L247.583 40.2361Z" fill="#FFBE9D"/>
<path d="M247.76 59.4844L245.249 58.8281L245.107 62.8912C245.107 62.8912 247.07 63.1822 248.274 61.9781L247.76 59.4844Z" fill="#FFBE9D"/>
<path d="M241.683 58.1436L242.253 61.7045L245.101 62.8857L245.249 58.8226L241.683 58.1436Z" fill="#FFBE9D"/>
<path d="M231.285 23.8583C231.228 24.1323 231.034 24.332 230.851 24.292C230.669 24.2521 230.572 24.001 230.629 23.7214C230.686 23.4418 230.874 23.2477 231.057 23.2877C231.24 23.3276 231.342 23.5787 231.285 23.8583Z" fill="#263238"/>
<path d="M231.063 24.332C230.558 25.116 229.947 25.8265 229.248 26.4435C229.41 26.6178 229.609 26.7546 229.83 26.8443C230.051 26.934 230.288 26.9744 230.526 26.9628L231.063 24.332Z" fill="#ED847E"/>
<path d="M232.615 22.5173C232.656 22.5178 232.697 22.5037 232.729 22.4774C232.76 22.4454 232.778 22.4024 232.778 22.3575C232.778 22.3127 232.76 22.2697 232.729 22.2377C232.556 22.0356 232.338 21.8782 232.091 21.7788C231.845 21.6795 231.578 21.6411 231.314 21.667C231.27 21.6754 231.232 21.7003 231.206 21.7364C231.181 21.7726 231.17 21.8173 231.177 21.8611C231.181 21.8824 231.189 21.9028 231.201 21.9209C231.213 21.9391 231.229 21.9547 231.247 21.9669C231.265 21.9791 231.285 21.9876 231.306 21.992C231.327 21.9963 231.349 21.9965 231.371 21.9923C231.583 21.9726 231.797 22.0032 231.995 22.0815C232.194 22.1598 232.371 22.2837 232.512 22.4431C232.523 22.4621 232.538 22.4785 232.555 22.4913C232.573 22.5041 232.593 22.5129 232.615 22.5173Z" fill="#263238"/>
<path d="M239.2 27.7673C238.698 30.3353 238.19 35.0489 239.993 36.7666C239.993 36.7666 239.286 39.3745 234.509 39.3745C229.254 39.3745 231.998 36.7666 231.998 36.7666C234.852 36.0818 234.795 33.9533 234.281 31.956L239.2 27.7673Z" fill="#FFBE9D"/>
<path d="M241.026 37.2289C241.414 36.5155 241.837 35.6995 240.958 35.4427C240.079 35.1859 233.813 34.6381 231.998 35.1688C232.569 36.1617 231.61 37.3829 231.61 37.3829L241.026 37.2289Z" fill="#263238"/>
<path opacity="0.3" d="M241.026 37.2289C241.414 36.5155 241.837 35.6995 240.958 35.4427C240.079 35.1859 233.813 34.6381 231.998 35.1688C232.569 36.1617 231.61 37.3829 231.61 37.3829L241.026 37.2289Z" fill="black"/>
<path d="M235.571 157.552H232.056L231.702 149.409H235.217L235.571 157.552Z" fill="#FFBE9D"/>
<path d="M261.37 155.925L257.935 156.667L254.488 149.083L257.923 148.341L261.37 155.925Z" fill="#FFBE9D"/>
<path d="M257.604 156.325L261.467 155.486C261.535 155.472 261.606 155.481 261.668 155.512C261.73 155.543 261.78 155.594 261.81 155.657L263.151 158.568C263.182 158.639 263.197 158.716 263.195 158.793C263.193 158.871 263.173 158.947 263.137 159.016C263.102 159.085 263.051 159.145 262.989 159.192C262.927 159.239 262.856 159.271 262.78 159.287C261.427 159.555 260.754 159.618 259.053 159.983C258.009 160.211 255.629 160.787 254.214 161.096C252.799 161.404 252.274 160.023 252.833 159.766C255.356 158.625 256.411 157.603 257.096 156.656C257.218 156.486 257.399 156.368 257.604 156.325Z" fill="#263238"/>
<path d="M232.078 157.147H235.913C235.983 157.146 236.052 157.17 236.107 157.213C236.162 157.257 236.2 157.318 236.216 157.386L236.912 160.491C236.929 160.567 236.929 160.645 236.911 160.721C236.894 160.797 236.859 160.868 236.81 160.928C236.761 160.988 236.7 161.037 236.629 161.07C236.559 161.103 236.482 161.12 236.404 161.118C235.017 161.118 233.02 161.016 231.268 161.016C229.231 161.016 227.473 161.124 225.088 161.124C223.644 161.124 223.239 159.663 223.844 159.532C226.594 158.933 228.843 158.864 231.217 157.404C231.474 157.239 231.773 157.15 232.078 157.147Z" fill="#263238"/>
<path d="M246.288 37.5599C249.581 38.3131 252.297 46.7246 252.297 46.7246L245.683 51.7692C243.969 49.9461 242.759 47.7079 242.173 45.2751C241.038 40.864 242.915 36.7895 246.288 37.5599Z" fill="#263238"/>
<path opacity="0.2" d="M243.463 43.7456C245.255 45.5146 245.837 48.7389 245.974 51.5465L245.683 51.769C243.968 49.9455 242.757 47.7077 242.168 45.275C242.103 45.0049 242.046 44.7424 241.996 44.4875L243.463 43.7456Z" fill="black"/>
<path d="M226.589 37.7423C226.589 37.7423 222.851 41.9652 226.383 68.1298H245.186C245.318 65.2423 243.503 51.1585 246.288 37.5597C244.214 37.1612 242.118 36.8963 240.011 36.7665C237.35 36.6097 234.682 36.6097 232.021 36.7665C230.188 36.9479 228.371 37.2742 226.589 37.7423Z" fill="#263238"/>
<path opacity="0.2" d="M224.945 45.7373L225.019 45.6746L229.294 46.696C229.539 49.5893 226.566 53.0417 225.031 54.6225C224.844 51.6644 224.816 48.6985 224.945 45.7373Z" fill="black"/>
<path opacity="0.2" d="M231.702 149.414L231.884 153.609H235.4L235.223 149.414H231.702Z" fill="black"/>
<path opacity="0.2" d="M257.923 148.341L254.488 149.089L256.269 152.998L259.704 152.25L257.923 148.341Z" fill="black"/>
<path d="M240.673 25.1537C239.771 28.5205 239.411 30.5407 237.334 31.9388C234.201 34.0502 230.309 31.6306 230.184 28.0583C230.075 24.8398 231.571 19.8694 235.188 19.1903C235.985 19.0379 236.808 19.0915 237.579 19.3461C238.349 19.6007 239.042 20.0478 239.591 20.645C240.14 21.2423 240.528 21.9699 240.717 22.7589C240.906 23.5479 240.891 24.3722 240.673 25.1537Z" fill="#FFBE9D"/>
<path d="M233.054 68.1299C233.054 68.1299 237.049 94.9964 239.234 105.057C241.631 116.082 254.494 152.547 254.494 152.547L260.771 151.183C260.771 151.183 251.777 121.469 249.763 106.056C249.101 100.994 248.165 96.1777 247.309 89.0559C246.995 86.4195 247.258 81.0096 246.984 78.6813C246.693 76.2332 245.843 74.0476 245.66 72.3071L245.169 68.1299H233.054Z" fill="#016CDE"/>
<path d="M252.987 150.447C252.959 150.447 254.129 152.73 254.129 152.73L261.211 151.195L260.64 149.078L252.987 150.447Z" fill="#407BFF"/>
<path opacity="0.3" d="M252.987 150.447C252.959 150.447 254.129 152.73 254.129 152.73L261.211 151.195L260.64 149.078L252.987 150.447Z" fill="black"/>
<path opacity="0.3" d="M235.599 77.6999C240.21 78.6072 239.725 95.8068 239.166 104.658C237.836 98.3805 235.89 86.3682 234.561 77.8368C234.881 77.6745 235.248 77.6262 235.599 77.6999Z" fill="black"/>
<path d="M226.383 68.1299C226.383 68.1299 225.898 94.4144 226.281 105.131C226.68 116.282 230.572 152.798 230.572 152.798H236.53C236.53 152.798 236.746 116.938 237.015 106.004C237.3 94.0605 238.727 68.147 238.727 68.147L226.383 68.1299Z" fill="#016CDE"/>
<path d="M229.425 150.424L229.762 152.895H237.009L237.203 150.693L229.425 150.424Z" fill="#407BFF"/>
<path opacity="0.3" d="M229.425 150.424L229.762 152.895H237.009L237.203 150.693L229.425 150.424Z" fill="black"/>
<path d="M224.94 40.9951C224.397 41.8454 223.798 42.787 223.165 43.6658C222.531 44.5446 221.904 45.4234 221.247 46.2737C220.591 47.124 219.918 47.9857 219.21 48.7446C218.873 49.1498 218.502 49.5093 218.149 49.8859C217.795 50.2626 217.418 50.6164 217.042 50.9417L216.471 51.4438L215.9 51.8947L215.666 52.083C215.458 52.0448 215.255 51.9816 215.061 51.8947C214.639 51.7129 214.23 51.4993 213.84 51.2555C212.059 50.0719 210.372 48.7516 208.796 47.3066L206.815 48.9044C208.067 50.9852 209.621 52.8681 211.426 54.4912C211.935 54.9392 212.483 55.3403 213.064 55.6895C213.791 56.1441 214.602 56.4451 215.449 56.574C216.051 56.6543 216.662 56.6017 217.241 56.42C217.56 56.3208 217.865 56.1808 218.149 56.0034L218.554 55.7352C218.822 55.5583 219.124 55.3814 219.364 55.1931L220.117 54.6224C222.005 53.0848 223.726 51.3539 225.253 49.458C225.995 48.5278 226.726 47.5976 227.399 46.6047C228.072 45.6117 228.717 44.6816 229.351 43.5859L224.94 40.9951ZM215.877 52.1001C215.821 52.1087 215.763 52.1087 215.706 52.1001H215.763C215.872 52.0659 215.917 52.0659 215.877 52.1001Z" fill="#FFBE9D"/>
<path d="M231.765 43.0609C232.906 47.7745 224.346 52.3855 224.346 52.3855L218.811 45.8971C220.47 43.4374 222.364 41.1441 224.466 39.0492C228.352 35.3456 230.909 39.4715 231.765 43.0609Z" fill="#263238"/>
<path d="M207.306 49.4637L204.122 46.4392L207.181 44.1052C207.181 44.1052 209.703 45.9142 209.075 48.3909L207.306 49.4637Z" fill="#FFBE9D"/>
<path d="M203.118 45.2523L205.252 42.8499L207.181 44.111L204.122 46.4336L203.118 45.2523Z" fill="#FFBE9D"/>
<path d="M233.488 24.332C233.488 24.332 231.588 22.1407 231.873 20.0692C231.873 20.0692 230.104 17.1018 231.759 16.0746C233.414 15.0474 234.458 17.2559 234.458 17.2559C234.458 17.2559 235.525 14.9333 237.06 15.2186C238.595 15.504 238.202 17.5412 238.202 17.5412C238.202 17.5412 240.256 15.7493 241.54 16.3029C242.824 16.8564 242.071 18.8594 242.071 18.8594C242.071 18.8594 244.171 18.46 244.656 19.7668C244.778 20.1527 244.769 20.5684 244.63 20.9485C244.49 21.3287 244.228 21.6517 243.885 21.8668C243.885 21.8668 245.774 22.5687 245.831 24.332C245.888 26.0954 243.857 25.9127 243.857 25.9127C243.857 25.9127 243.509 28.5378 239.474 30.769C239.348 30.8402 239.208 30.8849 239.064 30.9006C238.92 30.9163 238.774 30.9026 238.635 30.8603C238.118 30.7036 237.568 30.6898 237.043 30.8204C236.834 30.8735 236.613 30.8627 236.41 30.7895C236.206 30.7163 236.029 30.584 235.902 30.4095C235.278 29.626 234.721 28.7919 234.235 27.9157C233.897 26.7416 233.647 25.5436 233.488 24.332Z" fill="#263238"/>
<path opacity="0.3" d="M242.116 26.3862C240.867 28.6289 239.331 24.9881 239.331 24.9881C238.19 27.9099 236.05 23.9609 236.05 23.9609C235.514 26.0267 233.488 24.3319 233.488 24.3319C233.658 25.5444 233.92 26.7423 234.27 27.9156C234.753 28.793 235.31 29.6273 235.936 30.4094C236.064 30.5838 236.241 30.7161 236.444 30.7893C236.647 30.8625 236.868 30.8733 237.077 30.8202C237.602 30.6897 238.152 30.7035 238.669 30.8602C238.808 30.9025 238.954 30.9162 239.098 30.9005C239.242 30.8848 239.382 30.84 239.508 30.7689C243.543 28.5376 243.891 25.9126 243.891 25.9126C243.326 27.693 242.116 26.3862 242.116 26.3862Z" fill="white"/>
<path d="M229.488 25.1936C229.436 25.1992 229.385 25.1992 229.333 25.1936C229.249 25.1687 229.171 25.1256 229.105 25.0675C229.039 25.0093 228.987 24.9375 228.951 24.8569C228.62 24.0979 229.522 22.2376 229.619 22.0036L229.722 21.7925L233.602 24.1436L233.379 24.5145L230.823 22.9623C230.709 23.4474 230.361 24.7599 229.801 25.0966C229.709 25.159 229.599 25.1927 229.488 25.1936ZM229.893 22.3917C229.55 23.1335 229.157 24.252 229.322 24.6458C229.329 24.6697 229.342 24.6914 229.36 24.7085C229.378 24.7256 229.4 24.7375 229.425 24.7428C229.445 24.7543 229.467 24.7604 229.49 24.7604C229.513 24.7604 229.536 24.7543 229.556 24.7428C229.927 24.5202 230.275 23.4017 230.412 22.7398L229.893 22.3917Z" fill="#263238"/>
<path d="M234.937 25.2906C234.709 26.1285 234.209 26.867 233.517 27.3906C232.603 28.0697 231.919 27.3906 231.987 26.3634C232.044 25.4332 232.592 23.9552 233.602 23.6813C234.612 23.4074 235.2 24.2805 234.937 25.2906Z" fill="#FFBE9D"/>
</svg>
