<svg width="304" height="172" viewBox="0 0 304 172" fill="none" xmlns="http://www.w3.org/2000/svg">
<path d="M98.045 87.6108C98.2152 87.6135 98.3846 87.5853 98.5447 87.5275C98.7347 87.4509 98.8972 87.3189 99.0111 87.1486C99.0829 87.0416 99.1325 86.9212 99.1569 86.7946C99.1819 86.6572 99.1943 86.5031 99.2152 86.3449C99.3776 85.054 99.6066 83.2092 99.8939 80.9313L100.123 79.1407C100.16 78.8284 100.202 78.5119 100.244 78.1871L100.306 77.6998C100.334 77.5418 100.347 77.3814 100.344 77.2209C100.327 77.0643 100.273 76.9142 100.184 76.7841C100.095 76.6539 99.9755 76.5479 99.8356 76.4755C99.6856 76.4038 99.5228 76.3628 99.3568 76.3548L98.8237 76.284L96.6208 76.0008L86.8056 74.7224C86.6111 74.6987 86.4142 74.7366 86.2424 74.8308C86.0706 74.9249 85.9326 75.0705 85.8478 75.2471C85.8076 75.3359 85.7796 75.4297 85.7645 75.5261L85.7229 75.8467C85.6937 76.0591 85.6688 76.2632 85.6396 76.4839C85.5286 77.3334 85.4189 78.1662 85.3106 78.9824C85.0899 80.6232 84.8942 82.2056 84.6818 83.7172C84.6318 84.092 84.5819 84.4626 84.5361 84.8291C84.5264 84.9922 84.5598 85.155 84.6329 85.3012C84.706 85.4474 84.8162 85.5718 84.9525 85.6619C85.0897 85.7556 85.2491 85.8116 85.4147 85.8244L85.9353 85.8951L86.9597 86.0326L90.7075 86.5364L96.1211 87.2819L97.5869 87.4942L97.9659 87.5567C98.0102 87.5595 98.0538 87.5693 98.095 87.5858H97.9659L97.5828 87.5484L96.1086 87.3735L90.695 86.6988L86.9472 86.22L85.9228 86.0867L85.4022 86.0201C85.1034 85.9946 84.8268 85.8521 84.6325 85.6235C84.4383 85.395 84.3423 85.099 84.3653 84.7999C84.4111 84.4293 84.457 84.0545 84.5069 83.6756C84.7026 82.1681 84.9233 80.5857 85.1232 78.945C85.2315 78.1121 85.3398 77.2792 85.4522 76.4464C85.4772 76.234 85.5063 76.03 85.5355 75.8092L85.5771 75.4886C85.594 75.3706 85.6276 75.2556 85.6771 75.1471C85.7814 74.928 85.9525 74.7476 86.1656 74.6316C86.3788 74.5157 86.6233 74.4702 86.8639 74.5017L96.675 75.7968L98.8779 76.0924L99.4109 76.1632C99.5971 76.1769 99.7793 76.2249 99.9481 76.3048C100.115 76.3916 100.257 76.5185 100.363 76.6741C100.468 76.8296 100.533 77.009 100.552 77.196C100.558 77.3705 100.544 77.5452 100.51 77.7165C100.51 77.8831 100.469 78.0455 100.444 78.2079C100.402 78.5327 100.36 78.8492 100.315 79.1615C100.231 79.782 100.152 80.3775 100.073 80.948C99.7607 83.2175 99.5067 85.0581 99.3276 86.3615C99.3026 86.5198 99.2901 86.6655 99.261 86.8113C99.2301 86.9458 99.1736 87.0731 99.0944 87.1861C98.9703 87.364 98.7943 87.4992 98.5905 87.5733C98.4685 87.6203 98.3378 87.6402 98.2074 87.6317C98.1526 87.6313 98.0981 87.6243 98.045 87.6108Z" fill="#E0E0E0"/>
<path d="M98.3407 85.941C98.2933 85.893 98.2514 85.8399 98.2158 85.7827L97.8951 85.3038C97.6078 84.8541 97.2205 84.2544 96.75 83.5298L95.9671 82.2806L95.7547 81.9474C95.7244 81.9032 95.6831 81.8677 95.6349 81.8444C95.5867 81.821 95.5333 81.8106 95.4799 81.8142C95.3674 81.8142 95.2925 81.8891 95.1759 81.9891L94.8427 82.2764L94.1556 82.8636C94.092 82.9205 94.0238 82.9721 93.9516 83.0176C93.8636 83.0647 93.7633 83.0836 93.6642 83.0718C93.5638 83.0632 93.4688 83.0223 93.3935 82.9552C93.355 82.9243 93.3213 82.8878 93.2936 82.8469L93.227 82.747C92.873 82.2098 92.5107 81.6518 92.1359 81.0813L91.5821 80.2484L91.3114 79.832C91.2803 79.78 91.2343 79.7387 91.1793 79.7134C91.1243 79.6882 91.0629 79.6801 91.0032 79.6904C90.9447 79.6995 90.8907 79.7272 90.8492 79.7695L90.6826 79.9361L90.3495 80.2651L89.704 80.9022L87.4719 83.1009L85.9478 84.5834L85.5314 84.9749C85.4839 85.0228 85.4308 85.0647 85.3731 85.0998C85.4082 85.0422 85.4502 84.989 85.4981 84.9415L85.9145 84.5251L87.3845 83.0093C88.0175 82.368 88.7629 81.6143 89.5832 80.7773L90.2245 80.136L90.5535 79.8028L90.7242 79.6362C90.7953 79.5643 90.887 79.5163 90.9866 79.4988C91.0873 79.4808 91.1912 79.4934 91.2847 79.535C91.3782 79.5765 91.4571 79.6452 91.5113 79.732L91.782 80.1485L92.3358 80.9813L93.4269 82.647C93.4467 82.7093 93.4841 82.7646 93.5344 82.8063C93.5848 82.848 93.6461 82.8744 93.711 82.8823C93.7759 82.8902 93.8417 82.8792 93.9006 82.8508C93.9595 82.8224 94.009 82.7777 94.0432 82.722L94.7344 82.139L95.0718 81.86C95.1269 81.809 95.1853 81.7617 95.2467 81.7184C95.3198 81.67 95.4047 81.6427 95.4923 81.6393C95.5748 81.6378 95.6562 81.6573 95.729 81.6959C95.8019 81.7345 95.8637 81.791 95.9088 81.86C95.9837 81.9766 96.0545 82.089 96.1212 82.2014L96.8832 83.4507L97.9701 85.2622L98.2574 85.7619C98.3116 85.8743 98.3407 85.9368 98.3407 85.941Z" fill="#E0E0E0"/>
<path d="M95.4257 79.0573C95.4257 79.0573 95.4257 78.9449 95.384 78.7575C95.3362 78.4963 95.2064 78.257 95.0134 78.0746C94.8738 77.9444 94.7043 77.8505 94.5199 77.8011C94.3354 77.7517 94.1417 77.7484 93.9557 77.7914C93.73 77.8434 93.5256 77.9631 93.3698 78.1345C93.214 78.3058 93.1143 78.5207 93.0839 78.7503C93.0536 78.9799 93.0941 79.2133 93.2 79.4192C93.306 79.6252 93.4723 79.7939 93.6767 79.9027C93.8457 79.9935 94.0345 80.041 94.2264 80.041C94.4182 80.041 94.6071 79.9935 94.7761 79.9027C95.0101 79.7782 95.1972 79.5808 95.3091 79.3405C95.3882 79.1656 95.4049 79.0573 95.4257 79.0615C95.4406 79.1661 95.4262 79.2728 95.384 79.3697C95.293 79.649 95.1036 79.8858 94.851 80.0359C94.6635 80.1479 94.451 80.2112 94.2327 80.2199C94.0145 80.2287 93.7976 80.1826 93.6017 80.0859C93.3511 79.9639 93.1453 79.7662 93.0132 79.5207C92.8812 79.2752 92.8298 78.9945 92.8662 78.7181C92.9025 78.4418 93.0249 78.1839 93.216 77.981C93.407 77.778 93.6571 77.6403 93.9307 77.5874C94.1469 77.5413 94.3713 77.5512 94.5826 77.616C94.7939 77.6809 94.9852 77.7986 95.1383 77.958C95.341 78.1743 95.4579 78.4571 95.4673 78.7534C95.4819 78.8566 95.4675 78.9618 95.4257 79.0573Z" fill="#E0E0E0"/>
<path d="M160.422 20.2324H97.1331V168.135H160.422V20.2324Z" fill="#455A64"/>
<path d="M142.551 101.082H133.885C133.312 101.082 132.848 101.546 132.848 102.119V108.274C132.848 108.847 133.312 109.311 133.885 109.311H142.551C143.123 109.311 143.588 108.847 143.588 108.274V102.119C143.588 101.546 143.123 101.082 142.551 101.082Z" fill="white"/>
<path d="M141.406 103.714C140.262 103.859 139.105 103.859 137.962 103.714C139.105 103.57 140.262 103.57 141.406 103.714Z" fill="#263238"/>
<path d="M141.476 105.255C140.332 105.399 139.173 105.399 138.028 105.255C139.173 105.11 140.332 105.11 141.476 105.255Z" fill="#263238"/>
<path d="M141.935 106.796C140.868 106.903 139.795 106.939 138.724 106.904C137.652 106.939 136.58 106.903 135.513 106.796C136.58 106.686 137.652 106.65 138.724 106.687C139.795 106.65 140.868 106.686 141.935 106.796Z" fill="#263238"/>
<g opacity="0.3">
<path d="M114.436 20.2324H97.1331V168.135H114.436V20.2324Z" fill="black"/>
</g>
<path d="M158.148 59.5975C158.148 59.5975 158.148 59.4101 158.148 59.0562C158.148 58.7022 158.148 58.1817 158.148 57.5029C158.148 56.1328 158.148 54.1381 158.148 51.5813C158.148 46.4759 158.119 39.155 158.102 30.256L158.19 30.3434L116.905 30.3642L117.013 30.256C117.013 40.7583 117.013 50.7276 117.013 59.5975L116.918 59.4976L146.68 59.5475L155.167 59.5725H157.419H158.002H158.206H158.015H157.444H155.208L146.746 59.6017L116.918 59.6517H116.818V59.5975C116.818 50.7276 116.818 40.7583 116.818 30.256V30.1477H116.93L158.215 30.1685H158.302V30.256C158.281 39.1759 158.265 46.4967 158.256 51.6396C158.256 54.1839 158.256 56.1745 158.231 57.5362C158.231 58.2066 158.231 58.723 158.231 59.077C158.231 59.4309 158.148 59.5975 158.148 59.5975Z" fill="#263238"/>
<path d="M143.278 35.653H134.612C134.039 35.653 133.575 36.1172 133.575 36.6899V42.8447C133.575 43.4173 134.039 43.8816 134.612 43.8816H143.278C143.85 43.8816 144.314 43.4173 144.314 42.8447V36.6899C144.314 36.1172 143.85 35.653 143.278 35.653Z" fill="white"/>
<path d="M142.132 38.2852C140.989 38.4296 139.832 38.4296 138.689 38.2852C139.832 38.1408 140.989 38.1408 142.132 38.2852Z" fill="#263238"/>
<path d="M142.203 39.8256C141.058 39.9699 139.9 39.9699 138.755 39.8256C139.9 39.6812 141.058 39.6812 142.203 39.8256Z" fill="#263238"/>
<path d="M142.661 41.3664C141.595 41.4736 140.522 41.5098 139.451 41.4747C138.379 41.5098 137.307 41.4736 136.24 41.3664C137.306 41.2567 138.379 41.2206 139.451 41.2581C140.522 41.2206 141.595 41.2567 142.661 41.3664Z" fill="#263238"/>
<g opacity="0.3">
<path d="M146.292 48.3082H129.485V51.1524H146.292V48.3082Z" fill="black"/>
</g>
<g opacity="0.4">
<path d="M152.368 61.8213H116.376V89.7844H152.368V61.8213Z" fill="black"/>
</g>
<path d="M137.485 62.8832H130.626L130.21 62.1961C130.077 61.9705 129.888 61.7834 129.661 61.6534C129.434 61.5234 129.177 61.455 128.915 61.4548H123.88C123.494 61.4544 123.123 61.6024 122.843 61.8683C122.563 62.1342 122.396 62.4976 122.377 62.8832H120.582C120.209 62.8832 119.851 63.0315 119.587 63.2954C119.323 63.5594 119.175 63.9174 119.175 64.2907V67.7804H138.872V64.2907C138.872 63.921 138.726 63.5661 138.467 63.3027C138.207 63.0394 137.855 62.8887 137.485 62.8832Z" fill="#E0E0E0"/>
<path d="M141.075 62.8832H134.237L133.82 62.1961C133.688 61.9702 133.499 61.7829 133.272 61.6529C133.044 61.5228 132.787 61.4545 132.525 61.4548H127.491C127.105 61.4544 126.734 61.6026 126.455 61.8686C126.176 62.1346 126.01 62.498 125.992 62.8832H124.193C123.82 62.8843 123.463 63.0331 123.2 63.2969C122.937 63.5608 122.789 63.9181 122.789 64.2907V67.7804H142.482V64.2907C142.482 63.9174 142.334 63.5594 142.07 63.2954C141.806 63.0315 141.448 62.8832 141.075 62.8832Z" fill="#EBEBEB"/>
<path d="M145.772 62.8832H138.93L138.514 62.1961C138.38 61.9704 138.19 61.7834 137.962 61.6535C137.734 61.5235 137.477 61.4551 137.214 61.4548H132.184C131.798 61.4544 131.427 61.6026 131.148 61.8686C130.869 62.1346 130.703 62.498 130.685 62.8832H128.89C128.517 62.8832 128.159 63.0315 127.895 63.2954C127.631 63.5594 127.482 63.9174 127.482 64.2907V67.7804H147.175V64.2907C147.175 63.9181 147.028 63.5608 146.764 63.2969C146.501 63.0331 146.144 62.8843 145.772 62.8832Z" fill="#F5F5F5"/>
<path d="M129.902 81.077V64.3074C129.919 63.9237 130.088 63.5625 130.372 63.3033C130.655 63.044 131.03 62.9079 131.414 62.9249H132.859C133.139 62.9294 133.416 62.8564 133.657 62.7138C133.899 62.5713 134.097 62.3647 134.229 62.117L134.541 61.5007C134.674 61.254 134.872 61.0486 135.113 60.9069C135.355 60.7651 135.631 60.6925 135.911 60.697H142.77C143.027 60.6931 143.28 60.7535 143.508 60.8728C143.736 60.9921 143.93 61.1664 144.073 61.3799L144.41 61.9004C144.553 62.1131 144.747 62.2869 144.974 62.4061C145.2 62.5253 145.453 62.5862 145.71 62.5834H154.455C154.838 62.5664 155.213 62.7025 155.497 62.9618C155.78 63.221 155.949 63.5822 155.966 63.9659V81.077H129.902Z" fill="#016CDE"/>
<g opacity="0.3">
<path d="M129.902 83.5298V66.7603C129.919 66.3766 130.088 66.0154 130.372 65.7561C130.655 65.4969 131.03 65.3608 131.414 65.3777H132.859C133.139 65.3823 133.416 65.3092 133.657 65.1667C133.899 65.0241 134.097 64.8176 134.229 64.5699L134.541 63.9536C134.674 63.7069 134.872 63.5015 135.113 63.3597C135.355 63.218 135.631 63.1454 135.911 63.1499H142.77C143.027 63.1459 143.28 63.2064 143.508 63.3257C143.736 63.4449 143.93 63.6193 144.073 63.8328L144.41 64.3533C144.553 64.566 144.747 64.7397 144.974 64.859C145.2 64.9782 145.453 65.0391 145.71 65.0363H154.455C154.838 65.0193 155.213 65.1554 155.497 65.4147C155.78 65.6739 155.949 66.0351 155.966 66.4188V83.5298H129.902Z" fill="black"/>
</g>
<path d="M135.378 67.4179V54.1838C135.377 53.9239 135.428 53.6665 135.527 53.4262C135.627 53.186 135.772 52.9677 135.956 52.7839C136.14 52.6002 136.358 52.4545 136.598 52.3553C136.839 52.2561 137.096 52.2053 137.356 52.2058H158.448C158.973 52.2058 159.476 52.4142 159.847 52.7852C160.218 53.1561 160.426 53.6592 160.426 54.1838V67.0515L135.378 67.4179Z" fill="white"/>
<path d="M136.202 71.2824V54.517C136.22 54.1329 136.388 53.7713 136.672 53.5114C136.955 53.2515 137.33 53.1145 137.714 53.1303H139.151C139.431 53.1355 139.708 53.0633 139.951 52.9215C140.193 52.7797 140.392 52.5739 140.525 52.3266L140.833 51.7103C140.966 51.4625 141.164 51.2561 141.407 51.1136C141.649 50.9711 141.926 50.898 142.207 50.9024H149.066C149.322 50.8996 149.575 50.9605 149.802 51.0797C150.029 51.1989 150.222 51.3727 150.365 51.5853L150.702 52.1059C150.845 52.3197 151.039 52.4942 151.267 52.6135C151.495 52.7328 151.749 52.7931 152.006 52.7888H160.751C161.135 52.7719 161.509 52.908 161.793 53.1672C162.076 53.4265 162.245 53.7876 162.262 54.1714V71.2824H136.202Z" fill="#016CDE"/>
<path d="M136.202 71.2826H136.331H136.702H138.13L143.49 71.2576L162.267 71.2076L162.167 71.3076C162.167 68.5009 162.167 65.5234 162.167 62.4127C162.167 60.8594 162.167 59.2728 162.167 57.6612V54.6005C162.18 54.4008 162.18 54.2005 162.167 54.0008C162.132 53.8119 162.056 53.6331 161.943 53.4781C161.829 53.323 161.682 53.1956 161.513 53.1055C161.356 53.0191 161.186 52.9613 161.009 52.9348C160.823 52.922 160.637 52.922 160.451 52.9348H152.06C151.868 52.9386 151.676 52.909 151.494 52.8473C151.125 52.7317 150.811 52.486 150.611 52.1561L150.323 51.7063C150.235 51.5666 150.122 51.4439 149.99 51.344C149.725 51.146 149.401 51.042 149.07 51.0484H142.99C142.669 51.0484 142.328 51.0484 142.037 51.0484C141.737 51.0847 141.457 51.2127 141.233 51.4148C140.791 51.7938 140.746 52.56 140.171 52.9389C139.908 53.1284 139.595 53.2369 139.271 53.2513H138.368C138.079 53.2344 137.79 53.2344 137.502 53.2513C137.23 53.2882 136.974 53.4024 136.765 53.5802C136.56 53.7516 136.414 53.9833 136.348 54.2424C136.31 54.5113 136.298 54.7831 136.311 55.0544C136.311 56.1482 136.311 57.2004 136.311 58.2109C136.311 62.2378 136.281 65.4984 136.269 67.7638C136.269 68.8881 136.269 69.7668 136.269 70.3748C136.269 70.6663 136.269 70.8953 136.269 71.0577C136.269 71.2201 136.269 71.2951 136.269 71.2951C136.269 71.2951 136.269 71.2201 136.269 71.0702C136.269 70.9203 136.269 70.6913 136.269 70.4039C136.269 69.8001 136.269 68.9298 136.269 67.8138C136.269 65.5442 136.244 62.2753 136.227 58.2359C136.227 57.224 136.227 56.1538 136.227 55.0586C136.211 54.7721 136.224 54.4847 136.265 54.2007C136.313 53.9118 136.448 53.6445 136.652 53.4345C136.89 53.2359 137.178 53.1076 137.485 53.0639C137.783 53.0391 138.082 53.0307 138.38 53.0389H139.276C139.564 53.0261 139.842 52.9291 140.075 52.7599C140.583 52.4392 140.604 51.7271 141.116 51.2441C141.369 51.0157 141.686 50.8703 142.024 50.8277C142.366 50.7985 142.674 50.8277 143.003 50.8277H149.082C149.459 50.8175 149.827 50.9349 150.128 51.1608C150.28 51.2744 150.41 51.4157 150.511 51.5772L150.802 52.027C150.978 52.3147 151.251 52.5292 151.573 52.6308C151.734 52.6853 151.903 52.7107 152.072 52.7057H160.459C160.657 52.6964 160.854 52.7033 161.051 52.7266C161.254 52.7564 161.45 52.8227 161.629 52.9223C161.826 53.0292 161.997 53.1791 162.128 53.3607C162.259 53.5423 162.348 53.7512 162.387 53.9717C162.409 54.182 162.416 54.3934 162.408 54.6047V62.3877C162.408 65.4984 162.408 68.4759 162.408 71.2826V71.3825H162.308L143.469 71.3326L138.13 71.3076H136.723H136.361L136.202 71.2826Z" fill="#263238"/>
<path d="M148.121 52.4187C147.202 52.5259 146.276 52.5621 145.351 52.527C144.427 52.5619 143.501 52.5257 142.582 52.4187C143.501 52.3091 144.427 52.2729 145.351 52.3104C146.276 52.2728 147.202 52.309 148.121 52.4187Z" fill="white"/>
<path d="M144.315 78.3372V61.5593C144.315 60.7972 145.081 60.1767 146.026 60.1767H147.658C147.964 60.1876 148.267 60.1194 148.539 59.9785C148.81 59.8377 149.04 59.6291 149.208 59.373L149.562 58.765C149.729 58.5089 149.959 58.3003 150.23 58.1595C150.502 58.0187 150.805 57.9504 151.111 57.9613H158.86C159.142 57.9525 159.422 58.0097 159.678 58.1283C159.934 58.2468 160.159 58.4235 160.335 58.6443L160.713 59.1648C160.889 59.3843 161.113 59.5601 161.368 59.6785C161.623 59.797 161.902 59.8549 162.183 59.8478H172.049C172.994 59.8478 173.756 60.4682 173.756 61.2303V78.3372H144.315Z" fill="#016CDE"/>
<path d="M144.314 78.3371H144.464H144.881H146.505L152.585 78.308L173.768 78.2622L173.668 78.3621C173.668 75.5221 173.668 72.5321 173.668 69.4547C173.668 67.9139 173.668 66.3454 173.668 64.7491V62.3047C173.668 61.9091 173.668 61.4718 173.668 61.1012C173.639 60.9155 173.568 60.739 173.46 60.5847C173.353 60.4304 173.212 60.3023 173.048 60.21C172.708 60.0087 172.314 59.9158 171.919 59.9435H162.342C161.937 59.9673 161.535 59.8763 161.18 59.6812C161 59.5847 160.84 59.4546 160.709 59.298C160.58 59.1356 160.48 58.9899 160.364 58.8316C160.17 58.523 159.876 58.2906 159.531 58.1737C159.185 58.0668 158.821 58.0273 158.461 58.0571H150.994C150.673 58.0723 150.361 58.1714 150.09 58.3444C149.957 58.4296 149.839 58.5365 149.741 58.6609C149.648 58.7942 149.565 58.9333 149.491 59.0773C149.407 59.2231 149.332 59.3605 149.241 59.4938C149.145 59.638 149.025 59.7647 148.887 59.8686C148.616 60.0712 148.298 60.2004 147.962 60.2433C147.3 60.285 146.713 60.2433 146.072 60.2433C145.783 60.2266 145.495 60.2826 145.234 60.4063C144.973 60.53 144.747 60.7174 144.577 60.9513C144.43 61.1889 144.367 61.469 144.398 61.7466V62.6045C144.398 63.1708 144.398 63.7247 144.398 64.2702C144.398 68.5969 144.364 72.0949 144.356 74.5268C144.356 75.7345 144.356 76.6798 144.335 77.3252C144.335 77.6417 144.335 77.8874 144.335 78.0581C144.335 78.2289 144.335 78.3163 144.335 78.3163C144.335 78.3163 144.335 78.2372 144.335 78.0748C144.335 77.9124 144.335 77.6584 144.335 77.3585C144.335 76.7131 144.335 75.7761 144.314 74.5726C144.314 72.1365 144.289 68.626 144.273 64.291C144.273 63.7455 144.273 63.1875 144.273 62.6253V61.7591C144.243 61.4497 144.313 61.1388 144.473 60.8721C144.658 60.6142 144.905 60.4067 145.19 60.2685C145.476 60.1303 145.792 60.0658 146.109 60.0809C146.717 60.0809 147.359 60.0809 147.975 60.0559C148.277 60.016 148.564 59.8983 148.808 59.7145C149.047 59.5085 149.237 59.2507 149.362 58.9607C149.443 58.8172 149.532 58.6781 149.628 58.5443C149.737 58.4043 149.869 58.2845 150.02 58.1903C150.317 57.9963 150.66 57.8842 151.015 57.8655H155.212H158.494C158.879 57.8325 159.267 57.8764 159.635 57.9946C160.014 58.1275 160.336 58.3842 160.551 58.7234C160.663 58.8733 160.776 59.0357 160.884 59.1773C161.002 59.3119 161.143 59.4246 161.301 59.5104C161.626 59.686 161.994 59.7668 162.362 59.7436H171.94C172.377 59.7142 172.812 59.8172 173.19 60.0393C173.382 60.1494 173.546 60.3019 173.67 60.4852C173.794 60.6685 173.875 60.8778 173.906 61.097C173.906 61.5134 173.906 61.9299 173.906 62.3213V69.4381C173.906 72.528 173.906 75.5054 173.906 78.3455V78.4454H173.806L152.568 78.3955L146.463 78.3371H144.86H144.444H144.314Z" fill="#263238"/>
<path d="M158.523 59.6894C157.307 59.7967 156.087 59.8328 154.867 59.7977C153.647 59.8328 152.426 59.7967 151.211 59.6894C152.426 59.5797 153.647 59.5435 154.867 59.5812C156.087 59.5435 157.308 59.5797 158.523 59.6894Z" fill="white"/>
<path d="M142.57 67.4097H116.376V89.9884H142.57V67.4097Z" fill="#455A64"/>
<g opacity="0.3">
<path d="M142.57 67.4097H116.376V89.9884H142.57V67.4097Z" fill="black"/>
</g>
<path d="M183.858 61.4548H142.57V90.7964H183.858V61.4548Z" fill="#455A64"/>
<path d="M183.858 90.7922C183.858 90.7922 183.858 90.609 183.858 90.255C183.858 89.9011 183.858 89.3764 183.858 88.6976C183.858 87.3317 183.858 85.3329 183.838 82.7802C183.838 77.6747 183.809 70.3498 183.792 61.4549L183.879 61.5423L142.595 61.5631L142.703 61.4549C142.703 71.9572 142.703 81.9223 142.703 90.7922L142.603 90.6964L172.365 90.7423L180.852 90.7714H183.105H183.892H183.7H183.13H180.894L172.432 90.7964L142.603 90.8464H142.482V90.7464C142.482 81.8765 142.482 71.9114 142.482 61.4091V61.3008H142.595H183.879H183.967V61.3924C183.946 70.3123 183.929 77.6331 183.921 82.7718C183.921 85.3162 183.921 87.3067 183.896 88.6684C183.896 89.3431 183.896 89.8553 183.896 90.2092C183.896 90.5632 183.858 90.7922 183.858 90.7922Z" fill="#263238"/>
<g opacity="0.3">
<path d="M175.022 80.7812H155.866V83.6255H175.022V80.7812Z" fill="black"/>
</g>
<path d="M169.15 69.775H160.484C159.912 69.775 159.447 70.2393 159.447 70.8119V76.9667C159.447 77.5394 159.912 78.0036 160.484 78.0036H169.15C169.723 78.0036 170.187 77.5394 170.187 76.9667V70.8119C170.187 70.2393 169.723 69.775 169.15 69.775Z" fill="white"/>
<path d="M168.005 72.4071C165.95 72.5516 163.87 72.5516 161.815 72.4071C163.87 72.2627 165.95 72.2627 168.005 72.4071Z" fill="#263238"/>
<path d="M168.076 73.9475C166.931 74.0919 165.773 74.0919 164.628 73.9475C165.773 73.8031 166.931 73.8031 168.076 73.9475Z" fill="#263238"/>
<path d="M168.534 75.4887C167.467 75.5959 166.395 75.6321 165.323 75.597C164.252 75.6321 163.179 75.5959 162.113 75.4887C163.179 75.379 164.252 75.3429 165.323 75.3805C166.395 75.3429 167.467 75.379 168.534 75.4887Z" fill="#263238"/>
<path d="M158.148 123.474C158.148 123.474 158.148 123.286 158.148 122.932C158.148 122.578 158.148 122.054 158.148 121.375C158.148 120.009 158.148 118.01 158.148 115.457C158.148 110.352 158.119 103.027 158.102 94.1321L158.19 94.2196L116.905 94.2404L117.013 94.1321C117.013 104.634 117.013 114.604 117.013 123.474L116.918 123.374L146.68 123.424L155.167 123.449H157.419H158.002H158.206H157.444H155.208L146.746 123.474L116.918 123.524H116.818V123.428C116.818 114.558 116.818 104.589 116.818 94.0863V93.978H116.93L158.215 93.9988H158.302V94.0863C158.281 103.006 158.265 110.348 158.256 115.466C158.256 118.014 158.256 120.005 158.231 121.367C158.231 122.037 158.231 122.553 158.231 122.907C158.231 123.261 158.148 123.474 158.148 123.474Z" fill="#263238"/>
<g opacity="0.3">
<path d="M146.95 112.167H129.485V115.012H146.95V112.167Z" fill="black"/>
</g>
<path d="M158.148 155.405C158.148 155.405 158.148 155.218 158.148 154.864C158.148 154.51 158.148 153.989 158.148 153.311C158.148 151.945 158.148 149.946 158.148 147.389C158.148 142.284 158.119 134.963 158.102 126.064L158.19 126.151L116.905 126.172L117.013 126.064C117.013 136.566 117.013 146.535 117.013 155.405L116.918 155.305L146.68 155.355L155.166 155.38H157.419H158.002H157.432H155.196L146.734 155.405L116.905 155.455H116.805V155.355C116.805 146.485 116.805 136.516 116.805 126.014V125.905H116.918H158.202H158.29V125.993C158.269 134.913 158.252 142.254 158.244 147.376C158.244 149.921 158.244 151.911 158.219 153.273C158.219 153.944 158.219 154.46 158.219 154.814C158.219 155.168 158.148 155.405 158.148 155.405Z" fill="#263238"/>
<g opacity="0.3">
<path d="M146.95 144.099H129.485V146.943H146.95V144.099Z" fill="black"/>
</g>
<path d="M218.293 43.6569C217.672 32.505 212.688 27.3204 211.214 18.6046C210.481 14.2279 210.668 9.74715 207.566 6.57814C206.45 5.43712 204.368 4.26279 202.781 4.07957C201.915 3.97129 200.566 4.00461 199.779 4.37523C198.309 4.15869 197.651 4.08789 196.614 4.37523C195.394 4.72086 193.699 5.66199 192.887 6.64476C190.675 9.34322 190.222 13.0536 190.184 16.5433C190.146 22.1875 190.93 27.8072 192.512 33.2254C192.605 33.7583 192.88 34.2425 193.291 34.5954C193.765 34.9202 194.398 34.8578 194.956 34.7662C197.104 34.4263 199.213 33.8768 201.253 33.1254C201.546 33.0458 201.819 32.9038 202.052 32.709C202.614 32.1343 202.377 31.1849 202.119 30.4228L207.77 25.5881C207.395 28.9528 206.312 32.1968 205.833 35.5449C205.275 39.5565 205.587 43.6414 206.75 47.5214C208.942 47.0621 211.201 47.0113 213.412 47.3714C213.941 47.4547 214.803 51.6482 215.274 51.3858C216.09 50.9236 218.347 44.6064 218.293 43.6569Z" fill="#263238"/>
<path d="M198.238 6.75719L199.841 6.57812L205.962 9.04338C206.392 9.06731 206.796 9.25195 207.096 9.56059C207.395 9.86923 207.567 10.2792 207.578 10.7091L207.524 30.6602C207.591 31.9494 207.21 33.2222 206.446 34.2623L205.584 35.3991C203.622 37.9851 199.591 37.7728 198.038 34.9202C197.944 34.7579 197.871 34.5844 197.821 34.4039C197.781 34.2575 197.75 34.1087 197.73 33.9583C197.56 32.9698 197.496 31.9662 197.538 30.9642C197.43 29.1985 197.392 28.4656 197.392 28.4947C197.392 28.5239 193.645 28.0783 192.628 23.2478C192.125 20.8533 192.045 16.8889 192.087 13.6449C192.125 10.7174 194.631 6.75302 198.238 6.75719Z" fill="#FFBE9D"/>
<path d="M193.249 17.4302C193.258 17.5922 193.328 17.7448 193.446 17.8564C193.564 17.968 193.72 18.0301 193.882 18.0299C193.962 18.0321 194.041 18.0183 194.115 17.9894C194.189 17.9605 194.257 17.917 194.314 17.8614C194.371 17.8059 194.416 17.7395 194.447 17.6662C194.478 17.5928 194.494 17.514 194.494 17.4344C194.488 17.2723 194.418 17.1192 194.301 17.0073C194.184 16.8954 194.027 16.8335 193.865 16.8347C193.786 16.8325 193.706 16.8462 193.632 16.8751C193.557 16.904 193.489 16.9474 193.432 17.0029C193.375 17.0584 193.329 17.1247 193.297 17.1981C193.266 17.2715 193.25 17.3504 193.249 17.4302Z" fill="#263238"/>
<path d="M199.479 17.0386C199.484 17.2017 199.554 17.3561 199.672 17.4683C199.791 17.5806 199.949 17.6416 200.112 17.6382C200.191 17.6405 200.27 17.6268 200.344 17.5982C200.418 17.5695 200.485 17.5264 200.542 17.4713C200.599 17.4162 200.645 17.3503 200.676 17.2774C200.707 17.2046 200.723 17.1262 200.724 17.0469C200.718 16.8845 200.65 16.7308 200.532 16.6187C200.414 16.5065 200.258 16.445 200.095 16.4473C200.015 16.4445 199.936 16.4577 199.862 16.4861C199.787 16.5145 199.719 16.5576 199.662 16.6127C199.605 16.6678 199.559 16.7339 199.527 16.8071C199.496 16.8802 199.479 16.959 199.479 17.0386Z" fill="#263238"/>
<path d="M193.02 15.6396C193.099 15.7187 193.553 15.344 194.223 15.3148C194.894 15.2857 195.402 15.5896 195.473 15.5064C195.543 15.4231 195.423 15.3231 195.202 15.1815C194.902 14.9946 194.551 14.9045 194.198 14.9234C193.85 14.9414 193.517 15.0681 193.245 15.2857C193.041 15.4564 192.978 15.6063 193.02 15.6396Z" fill="#263238"/>
<path d="M199.375 15.2937C199.458 15.3687 199.899 14.9856 200.57 14.9314C201.24 14.8773 201.752 15.1771 201.819 15.0897C201.886 15.0022 201.765 14.9106 201.536 14.7732C201.233 14.5919 200.88 14.5117 200.528 14.5441C200.18 14.5722 199.849 14.7092 199.583 14.9356C199.391 15.1105 199.333 15.2604 199.375 15.2937Z" fill="#263238"/>
<path d="M197.476 20.5157C197.116 20.4247 196.747 20.3772 196.376 20.3741C196.206 20.3741 196.043 20.3408 196.01 20.2242C195.984 20.0485 196.014 19.869 196.097 19.712C196.239 19.2955 196.385 18.85 196.539 18.3836C197.147 16.4971 197.58 14.948 197.501 14.923C197.422 14.898 196.872 16.4097 196.251 18.3003L195.835 19.6328C195.735 19.8449 195.715 20.0856 195.777 20.3116C195.804 20.371 195.845 20.423 195.897 20.4635C195.948 20.5041 196.008 20.5319 196.072 20.5448C196.168 20.5664 196.266 20.5748 196.364 20.5698C196.735 20.6028 197.109 20.5846 197.476 20.5157Z" fill="#263238"/>
<path d="M197.409 28.4652C199.696 28.3853 201.916 27.6732 203.822 26.4081C203.822 26.4081 202.356 29.8478 197.476 29.6354L197.409 28.4652Z" fill="#EB996E"/>
<path d="M197.838 22.1192C197.957 21.9518 198.118 21.8176 198.304 21.7294C198.489 21.6412 198.695 21.602 198.9 21.6154C199.048 21.621 199.194 21.6567 199.327 21.7205C199.461 21.7842 199.581 21.8745 199.679 21.986C199.775 22.0922 199.836 22.2258 199.853 22.3684C199.871 22.5109 199.843 22.6552 199.774 22.7814C199.671 22.9047 199.534 22.9954 199.381 23.0427C199.227 23.09 199.063 23.0918 198.908 23.0479C198.585 22.9521 198.285 22.7921 198.025 22.5773C197.946 22.5295 197.878 22.4656 197.826 22.3899C197.8 22.3531 197.787 22.3096 197.787 22.265C197.787 22.2204 197.8 22.1768 197.826 22.1401" fill="#EB996E"/>
<path d="M199.47 20.8699C199.362 20.8699 199.395 21.5945 198.8 22.1441C198.204 22.6938 197.426 22.648 197.426 22.7521C197.426 22.8562 197.605 22.8854 197.934 22.8771C198.36 22.861 198.766 22.6959 199.083 22.4107C199.386 22.1351 199.569 21.7529 199.595 21.3446C199.608 21.0531 199.533 20.8699 199.47 20.8699Z" fill="#263238"/>
<path d="M199.375 12.8662C199.475 13.0286 200.033 12.8037 200.732 12.7287C201.432 12.6538 202.036 12.7287 202.086 12.5455C202.106 12.4622 201.973 12.3165 201.707 12.1999C201.369 12.058 201 12.0077 200.636 12.0541C200.276 12.092 199.932 12.2257 199.641 12.4414C199.421 12.6163 199.329 12.787 199.375 12.8662Z" fill="#263238"/>
<path d="M192.87 13.0993C192.995 13.2492 193.449 13.066 194.003 13.0326C194.557 12.9993 195.031 13.0826 195.135 12.916C195.177 12.8369 195.094 12.6912 194.881 12.5537C194.599 12.3907 194.273 12.3207 193.949 12.3539C193.622 12.3746 193.311 12.4969 193.057 12.7037C192.87 12.8702 192.82 13.0285 192.87 13.0993Z" fill="#263238"/>
<path d="M206.612 18.8796C206.612 18.5215 206.97 17.6303 207.324 17.572C208.27 17.3763 209.994 17.368 210.131 19.7874C210.318 23.0939 206.958 22.5983 206.945 22.5067C206.933 22.4151 206.687 20.1289 206.612 18.8796Z" fill="#FFBE9D"/>
<path d="M207.903 21.1947C207.903 21.1947 207.961 21.2322 208.061 21.2696C208.195 21.3234 208.344 21.3234 208.478 21.2696C208.819 21.1197 209.082 20.5492 209.065 19.9496C209.061 19.6596 208.99 19.3745 208.857 19.1167C208.819 19.0158 208.758 18.9253 208.678 18.8528C208.598 18.7804 208.503 18.7281 208.399 18.7003C208.331 18.6873 208.261 18.698 208.2 18.7307C208.14 18.7633 208.092 18.8158 208.065 18.8793C208.028 18.9751 208.065 19.0376 208.036 19.0459C208.007 19.0542 207.961 18.9918 207.978 18.8544C207.993 18.7721 208.036 18.6973 208.099 18.642C208.141 18.6043 208.19 18.5756 208.244 18.5577C208.298 18.5398 208.355 18.5331 208.411 18.5379C208.548 18.5587 208.678 18.6134 208.788 18.6971C208.899 18.7807 208.987 18.8906 209.044 19.0168C209.201 19.2958 209.286 19.6089 209.294 19.9287C209.294 20.595 209.007 21.2405 208.536 21.4029C208.449 21.4346 208.355 21.4458 208.263 21.4357C208.17 21.4256 208.081 21.3944 208.003 21.3446C207.911 21.2863 207.891 21.203 207.903 21.1947Z" fill="#EB996E"/>
<path d="M208.39 13.9237C208.623 12.6036 208.128 10.7547 207.786 9.46794C207.448 8.39656 206.747 7.47637 205.804 6.86526C204.352 5.82283 202.594 5.29256 200.807 5.35779L200.145 5.57433C199.166 5.49521 198.121 5.70343 197.584 6.49464V5.60765C195.802 5.82835 194.253 7.00685 193.216 8.47267C192.179 9.9385 191.608 11.6708 191.133 13.4032C193.32 11.446 195.689 9.28471 197.513 6.97769C199.425 9.47626 202.256 11.0837 204.838 12.9534C205.281 14.1682 205.475 15.4599 205.409 16.7513C205.409 19.9994 206.096 22.9352 206.35 26.1792C206.496 28.049 206.483 29.6481 208.394 29.4856C208.64 23.4974 207.362 19.8078 208.39 13.9237Z" fill="#263238"/>
<path d="M210.564 13.6696C210.267 13.7712 209.957 13.8274 209.644 13.8361C208.893 13.9021 208.138 13.8727 207.395 13.7487C206.654 13.6176 205.93 13.4082 205.234 13.1241C204.938 13.0249 204.658 12.8847 204.401 12.7076C204.43 12.6368 205.725 13.2407 207.432 13.5405C209.14 13.8403 210.556 13.5946 210.564 13.6696Z" fill="#455A64"/>
<path d="M210.06 11.8958C209.883 11.9008 209.706 11.8896 209.531 11.8625C209.19 11.8292 208.698 11.7584 208.103 11.6459C204.971 11.0443 201.987 9.8347 199.321 8.08548C198.817 7.74817 198.413 7.45667 198.146 7.25262C197.994 7.15436 197.854 7.03833 197.73 6.90698C197.889 6.98486 198.039 7.07832 198.18 7.18599C198.463 7.37755 198.875 7.64406 199.387 7.96471C200.731 8.79285 202.14 9.50876 203.601 10.1052C205.065 10.6942 206.575 11.1622 208.115 11.5044C208.707 11.6334 209.19 11.7292 209.527 11.7875C209.709 11.8017 209.888 11.838 210.06 11.8958Z" fill="#455A64"/>
<path d="M192.066 12.2789C191.868 12.6185 191.61 12.9191 191.304 13.1659C191.047 13.4644 190.738 13.7141 190.392 13.903C190.351 13.8572 190.692 13.4616 191.154 13.0118C191.411 12.7138 191.72 12.4654 192.066 12.2789Z" fill="#455A64"/>
<path d="M197.451 34.2412C197.821 33.5957 197.542 30.9556 197.542 30.9556L196.685 32.5005C194.873 33.2043 192.383 34.2079 191.687 34.6993C190.642 35.4322 189.226 38.5221 189.226 38.5221L180.481 49.5907L164.137 46.7257L162.6 54.9335L168.122 56.0787L177.833 57.328C180.56 57.9151 183.213 58.1317 185.329 56.341L185.474 56.0579C184.704 67.0932 185.766 79.2612 186.128 90.3133C186.097 91.1808 186.254 92.0447 186.59 92.8451C187.148 93.9362 189.214 94.5108 190.426 94.3484C191.637 94.186 191.258 93.4115 191.512 92.2163C191.654 91.5625 191.042 90.6547 190.963 89.9926C189.772 80.387 188.582 70.7828 187.394 61.1799C187.357 60.5886 187.315 60.0389 187.273 59.5517C186.857 54.4754 186.794 53.1054 187.019 50.7817C187.369 47.1963 194.952 38.6012 197.451 34.2412Z" fill="#455A64"/>
<path d="M188.289 41.4125C188.225 41.5877 188.141 41.7553 188.039 41.9122C187.865 42.2203 187.623 42.6784 187.352 43.2531C185.903 46.2534 185.134 49.5366 185.099 52.8684C185.099 53.5056 185.099 54.0219 185.12 54.3759C185.142 54.5613 185.142 54.7485 185.12 54.9339C185.077 54.7535 185.049 54.5695 185.037 54.3842C184.981 53.8808 184.95 53.3749 184.945 52.8684C184.919 51.187 185.1 49.5087 185.483 47.8713C185.868 46.2399 186.45 44.6612 187.215 43.1698C187.443 42.7172 187.695 42.2766 187.969 41.8497C188.061 41.694 188.169 41.5476 188.289 41.4125Z" fill="#263238"/>
<g opacity="0.3">
<path d="M187.148 43.3237C185.874 45.1685 184.695 47.1507 184.133 49.3328C183.571 51.5149 183.925 52.7517 183.875 55.042L185.187 55.3377C184.895 51.2317 185.033 48.5208 187.148 43.3237Z" fill="black"/>
</g>
<path d="M186.669 49.3328C186.66 49.2609 186.66 49.1881 186.669 49.1162C186.694 48.9788 186.707 48.7664 186.769 48.5041C186.945 47.7643 187.169 47.0368 187.44 46.3261C188.341 43.9908 189.378 41.7104 190.546 39.4967C190.929 38.7555 191.308 38.0392 191.683 37.3563L191.712 37.3021H191.775L193.153 37.2771L193.061 37.4187C192.947 37.1683 192.76 36.958 192.524 36.8149L192.429 36.7525L192.503 36.6692C193.417 35.5678 194.405 34.5299 195.46 33.5626C195.843 33.2128 196.156 32.9463 196.372 32.7672C196.478 32.668 196.594 32.5801 196.718 32.5049C196.627 32.6177 196.525 32.7209 196.414 32.813L195.539 33.6459C194.519 34.6372 193.555 35.6855 192.653 36.7858L192.628 36.6442C192.899 36.8053 193.114 37.0449 193.245 37.3313L193.311 37.4687H193.157L191.779 37.5062L191.866 37.4521C191.5 38.1308 191.121 38.8471 190.738 39.5883C189.401 42.191 188.273 44.5855 187.581 46.3719C187.299 47.0728 187.056 47.7888 186.853 48.5165C186.74 49.0412 186.69 49.3328 186.669 49.3328Z" fill="#263238"/>
<path d="M203.281 148.472L208.648 157.113C208.648 157.113 201.669 165.475 202.506 167.165L219.638 157.358L211.805 143.55L203.281 148.472Z" fill="#263238"/>
<path d="M213.504 153.34C213.698 153.295 213.901 153.323 214.075 153.419C214.248 153.515 214.38 153.673 214.445 153.86C214.497 154.052 214.472 154.256 214.378 154.43C214.283 154.604 214.126 154.736 213.937 154.797C213.732 154.847 213.516 154.817 213.332 154.714C213.148 154.61 213.01 154.441 212.946 154.239C212.912 154.034 212.959 153.823 213.078 153.652C213.197 153.48 213.379 153.363 213.583 153.323" fill="#E0E0E0"/>
<g opacity="0.6">
<path d="M219.621 157.359L218.788 155.997L202.669 165.912C202.669 165.912 202.094 166.678 202.49 167.161L219.621 157.359Z" fill="white"/>
</g>
<path d="M208.307 157.183C208.357 157.267 208.798 157.067 209.361 157.1C209.923 157.133 210.348 157.358 210.406 157.279C210.464 157.2 210.064 156.792 209.377 156.763C208.69 156.734 208.245 157.117 208.307 157.183Z" fill="#263238"/>
<path d="M206.933 158.957C206.962 159.049 207.403 158.982 207.891 159.174C208.378 159.365 208.674 159.694 208.757 159.64C208.84 159.586 208.619 159.086 208.011 158.862C207.403 158.637 206.891 158.874 206.933 158.957Z" fill="#263238"/>
<path d="M207.145 161.693C207.233 161.664 207.108 161.181 206.633 160.86C206.158 160.54 205.659 160.565 205.663 160.656C205.667 160.748 206.05 160.852 206.437 161.131C206.825 161.41 207.058 161.731 207.145 161.693Z" fill="#263238"/>
<path d="M207.299 155.08C207.378 155.134 207.716 154.801 208.186 154.564C208.657 154.326 209.132 154.26 209.136 154.147C209.14 154.035 208.615 153.956 208.041 154.243C207.466 154.53 207.22 155.038 207.299 155.08Z" fill="#263238"/>
<path d="M204.01 152.02L204.588 162.181C204.588 162.181 194.457 166.179 194.382 168.065L214.116 167.649L213.866 151.783L204.01 152.02Z" fill="#263238"/>
<path d="M210.672 161.206C210.861 161.265 211.024 161.389 211.13 161.556C211.236 161.723 211.279 161.922 211.251 162.118C211.203 162.311 211.084 162.477 210.918 162.585C210.752 162.692 210.551 162.733 210.356 162.697C210.154 162.639 209.98 162.508 209.868 162.33C209.756 162.152 209.713 161.939 209.748 161.731C209.818 161.535 209.961 161.374 210.147 161.28C210.333 161.187 210.548 161.17 210.747 161.231" fill="#E0E0E0"/>
<g opacity="0.6">
<path d="M214.108 167.653L214.02 166.054L195.139 167.036C195.139 167.036 194.269 167.453 194.382 168.052L214.108 167.653Z" fill="white"/>
</g>
<path d="M204.268 162.085C204.268 162.181 204.755 162.214 205.234 162.501C205.713 162.789 205.975 163.201 206.067 163.163C206.158 163.126 206 162.568 205.413 162.214C204.826 161.86 204.243 161.997 204.268 162.085Z" fill="#263238"/>
<path d="M202.215 162.984C202.194 163.08 202.631 163.234 202.952 163.634C203.272 164.034 203.389 164.467 203.485 164.467C203.581 164.467 203.63 163.913 203.206 163.426C202.781 162.939 202.215 162.893 202.215 162.984Z" fill="#263238"/>
<path d="M201.09 165.487C201.178 165.508 201.303 165.021 201.045 164.5C200.786 163.98 200.328 163.776 200.291 163.859C200.253 163.942 200.537 164.213 200.741 164.646C200.945 165.079 200.995 165.479 201.09 165.487Z" fill="#263238"/>
<path d="M204.393 159.757C204.434 159.844 204.871 159.699 205.417 159.728C205.963 159.757 206.391 159.915 206.441 159.832C206.491 159.749 206.075 159.416 205.429 159.391C204.784 159.366 204.343 159.682 204.393 159.757Z" fill="#263238"/>
<path d="M189.293 76.134C189.293 76.134 188.385 119.363 189.201 122.358C190.018 125.352 206.725 155.947 206.725 155.947L216.806 150.995L203.439 118.689L206.387 77.1501L189.293 76.134Z" fill="#016CDE"/>
<path d="M211.401 73.7189C211.401 73.7189 217.198 83.1843 216.173 88.8602C215.757 91.188 212.58 96.3559 212.58 96.3559V124.061L215.028 161.056H203.281L198.229 128.433C198.229 128.433 196.46 125.439 195.781 122.857C195.102 120.276 192.891 89.7264 192.891 89.7264L189.376 77.3043L211.401 73.7189Z" fill="#016CDE"/>
<path d="M213.875 141.517C213.855 141.777 213.855 142.037 213.875 142.296C213.875 142.796 213.925 143.52 213.975 144.416C214.075 146.202 214.254 148.668 214.462 151.391C214.67 154.114 214.845 156.58 214.961 158.366C215.016 159.228 215.066 159.94 215.099 160.482C215.106 160.741 215.132 161 215.178 161.256C215.201 160.997 215.201 160.736 215.178 160.477C215.178 159.978 215.153 159.253 215.116 158.358C215.045 156.567 214.895 154.098 214.699 151.374C214.503 148.651 214.283 146.227 214.145 144.403C214.07 143.541 214.012 142.829 213.962 142.288C213.954 142.029 213.924 141.771 213.875 141.517Z" fill="#455A64"/>
<path d="M210.148 78.5579C210.06 78.6922 209.954 78.8129 209.831 78.916C209.522 79.2243 209.184 79.5031 208.823 79.7488C207.627 80.5577 206.235 81.0295 204.794 81.1145C203.353 81.1995 201.915 80.8946 200.632 80.2319C200.245 80.0343 199.877 79.8015 199.533 79.5365C199.401 79.4475 199.282 79.341 199.179 79.22C199.204 79.1867 199.724 79.6364 200.699 80.0903C201.971 80.6977 203.378 80.9702 204.785 80.882C206.192 80.7938 207.553 80.3479 208.74 79.5864C209.656 79.0284 210.118 78.5287 210.148 78.5579Z" fill="#455A64"/>
<path d="M192.991 87.257C192.997 87.3081 192.997 87.3598 192.991 87.411C192.991 87.5235 193.012 87.6692 193.028 87.8566C193.057 88.273 193.103 88.8435 193.157 89.5848C193.257 91.0964 193.407 93.2618 193.574 95.9312C193.949 101.286 194.407 108.695 195.135 116.853C195.235 117.964 195.348 119.064 195.473 120.134C195.543 120.671 195.602 121.208 195.718 121.712C195.851 122.219 196.015 122.717 196.21 123.203C196.934 125.156 197.709 127.001 198.45 128.725V128.75C199.233 133.772 199.895 138.024 200.366 141.03L200.932 144.516C201.003 144.911 201.057 145.215 201.099 145.436C201.14 145.657 201.169 145.748 201.165 145.753C201.124 145.653 201.091 145.55 201.065 145.444C201.02 145.236 200.949 144.932 200.87 144.528C200.711 143.725 200.503 142.546 200.245 141.051C199.733 138.061 199.046 133.814 198.254 128.779V128.804C197.505 127.08 196.726 125.235 195.993 123.278C195.796 122.786 195.631 122.283 195.498 121.771C195.373 121.233 195.314 120.7 195.244 120.163C195.115 119.085 195.002 117.985 194.906 116.873C194.19 108.707 193.745 101.299 193.407 95.9395L193.091 89.5806C193.053 88.8394 193.024 88.2605 193.007 87.8524C193.007 87.6651 193.007 87.5151 193.007 87.4027C192.997 87.3548 192.991 87.306 192.991 87.257Z" fill="#455A64"/>
<path d="M197.58 32.8091C197.58 32.8091 197.455 34.7038 198.996 34.7038C201.161 34.7038 205.7 30.5396 205.7 30.5396L196.955 51.4109V76.6715L189.539 77.4294C189.539 77.4294 188.668 77.3044 188.493 76.0551C188.148 73.6107 188.198 69.1549 187.915 67.3102C187.032 61.6051 185.299 58.4985 185.545 53.9845C185.907 47.2675 195.36 35.6616 195.36 35.6616L197.58 32.8091Z" fill="white"/>
<path d="M206.716 27.9116C205.619 29.9565 204.398 31.9326 203.06 33.8291C201.169 36.4567 189.193 54.8046 189.193 54.8046L193.978 92.0249L194.511 95.1773C194.546 95.3874 194.622 95.5882 194.737 95.7677C194.852 95.9471 195.001 96.1015 195.177 96.2214C195.353 96.3413 195.552 96.4243 195.761 96.4653C195.97 96.5062 196.185 96.5044 196.393 96.4599L217.548 92.7412C217.815 92.6941 218.07 92.5906 218.295 92.4376C218.52 92.2846 218.71 92.0855 218.852 91.8536C218.994 91.6217 219.085 91.3622 219.12 91.0924C219.154 90.8225 219.131 90.5485 219.051 90.2884L209.606 63.7619L215.707 40.2046C215.707 40.2046 215.482 36.7732 211.768 33.2919C211.06 32.6298 208.14 30.2103 207.657 29.544L206.716 27.9116Z" fill="#455A64"/>
<g opacity="0.3">
<path d="M190.696 66.5017C190.696 66.5017 200.436 74.2265 205.175 74.2973C209.914 74.3681 212.38 70.3537 212.38 70.3537L202.848 70.6161L190.355 63.7491L190.696 66.5017Z" fill="black"/>
</g>
<path d="M183.467 59.1811C183.467 59.1811 192.254 64.9861 193.878 66.0897C195.502 67.1932 203.168 71.6407 204.168 71.9613C205.167 72.282 211.368 72.3236 212.496 70.2165C213.625 68.1094 214.403 63.6119 214.403 63.6119L215.898 42.5615C216.045 40.6063 215.51 38.6608 214.383 37.0563C213.475 35.7737 212.276 34.616 210.976 34.8118C208.207 35.2282 202.252 41.9202 202.539 45.3599C202.827 48.7996 202.835 58.3774 202.835 58.3774L187.148 53.1846L183.467 59.1811Z" fill="#455A64"/>
<path d="M214.395 37.0564C214.499 37.1898 214.595 37.3289 214.683 37.4728C214.945 37.8769 215.168 38.305 215.349 38.7513C215.644 39.4703 215.838 40.2273 215.924 41C215.995 42.0452 215.972 43.0948 215.853 44.1357C215.528 48.8247 215.062 55.5 214.508 63.4871C214.349 64.3866 214.158 65.2958 213.933 66.2147C213.712 67.1539 213.434 68.0787 213.1 68.9839C212.938 69.461 212.714 69.9147 212.434 70.3332C212.115 70.7408 211.704 71.0675 211.235 71.2868C210.301 71.7442 209.297 72.0426 208.265 72.1696C207.214 72.3288 206.147 72.3568 205.088 72.2529C204.54 72.2154 204.005 72.0741 203.51 71.8365C203.023 71.595 202.548 71.3284 202.073 71.0661C200.166 70 198.242 68.8896 196.301 67.7347C193.974 66.3854 191.812 64.8613 189.664 63.458L183.417 59.2937L183.334 59.2395L183.388 59.1562L187.082 53.0597L187.123 52.9931L187.198 53.0181L202.864 58.3234L202.773 58.3859C203.093 54.4756 203.347 51.3607 203.522 49.2244C203.614 48.1625 203.685 47.3422 203.735 46.78C203.76 46.5093 203.776 46.2969 203.793 46.1512C203.81 46.0054 203.818 45.9346 203.818 45.9346C203.818 45.9346 203.818 46.0096 203.818 46.1512C203.818 46.2928 203.793 46.5093 203.776 46.7842C203.735 47.3463 203.676 48.1709 203.601 49.2328C203.443 51.3774 203.21 54.4881 202.914 58.3942V58.4858L202.827 58.4566L187.132 53.1888L187.248 53.1472L183.559 59.2479L183.53 59.1104L189.776 63.2539C191.933 64.6614 194.082 66.1689 196.401 67.5223C198.345 68.68 200.267 69.7904 202.169 70.8537C202.644 71.1161 203.118 71.3784 203.597 71.6199C204.069 71.8527 204.58 71.994 205.105 72.0364C206.145 72.1394 207.194 72.1129 208.228 71.9572C209.24 71.8359 210.225 71.5474 211.143 71.1036C211.584 70.896 211.972 70.5897 212.276 70.2082C212.546 69.8055 212.762 69.3686 212.917 68.909C213.251 68.0108 213.529 67.0929 213.75 66.1606C213.979 65.2486 214.166 64.3408 214.329 63.4538C214.916 55.4709 215.403 48.7955 215.749 44.1065C215.875 43.0719 215.907 42.0279 215.844 40.9875C215.769 40.2205 215.587 39.4677 215.303 38.7513C215.127 38.3064 214.914 37.8773 214.666 37.4687C214.583 37.3271 214.512 37.2271 214.47 37.1563L214.395 37.0564Z" fill="#263238"/>
<path d="M191.862 50.6775C191.919 50.5982 191.983 50.5243 192.054 50.4568C192.195 50.2986 192.387 50.0946 192.62 49.8405L194.702 47.5793L197.83 44.2479C199.025 42.9986 200.303 41.6077 201.815 40.2835V40.4417L201.69 40.3002L200.632 39.13L200.457 38.9343H200.72L202.677 39.0342L202.581 39.0884L206.521 32.2298L207.687 30.2393L208.007 29.7104C208.082 29.5896 208.124 29.5272 208.132 29.5313C208.107 29.599 208.076 29.6644 208.041 29.727C207.966 29.8686 207.87 30.0519 207.749 30.2726L206.637 32.2964L202.76 39.1925L202.727 39.2466H202.66L200.703 39.1466L200.791 38.9676L201.844 40.1378L201.973 40.2793L202.044 40.3585L201.961 40.4334C200.474 41.7368 199.183 43.136 197.98 44.3687L194.823 47.6751C193.924 48.6162 193.191 49.3741 192.679 49.8905C192.425 50.1487 192.225 50.3486 192.083 50.4777C192.018 50.5529 191.944 50.62 191.862 50.6775Z" fill="#263238"/>
<g opacity="0.3">
<path d="M191.159 51.8434L203.073 40.6123L202.056 39.5005H203.073L203.339 37.968L202.669 39.1507L200.707 39.0507L201.865 40.1085L191.966 50.5733L191.159 51.8434Z" fill="black"/>
</g>
<path d="M198.7 81.1101L198.9 81.0601L199.508 80.931L201.807 80.448L209.835 78.8156H209.906L209.944 78.878L212.155 82.4801L212.238 82.6134L212.084 82.6425L211.822 82.6925L200.112 84.8912H200.053L200.033 84.8329L199.033 82.0803C198.929 81.7805 198.842 81.5432 198.779 81.3599C198.747 81.2801 198.72 81.198 198.7 81.1142C198.744 81.1993 198.783 81.2869 198.817 81.3766C198.887 81.5598 198.987 81.793 199.108 82.1053L200.166 84.783L200.087 84.7372L211.78 82.4676L212.042 82.4177L211.972 82.5801L209.764 78.9738L209.873 79.0238L201.902 80.5396L199.566 80.956L198.933 81.0643C198.857 81.0854 198.779 81.1007 198.7 81.1101Z" fill="#263238"/>
<g opacity="0.3">
<path d="M198.812 81.4646L199.658 85.8329L211.784 83.6467L211.447 82.6348L200.078 84.8043L198.812 81.4646Z" fill="black"/>
</g>
<path d="M205.908 62.063C205.846 62.0922 205.342 61.0927 204.438 60.0725C203.535 59.0522 202.61 58.4068 202.648 58.361C204.13 59.1806 205.282 60.4889 205.908 62.063Z" fill="#263238"/>
<path d="M162.246 48.5123C162.246 48.5123 159.206 46.6925 157.99 45.5265C157.99 45.5265 156.22 44.9685 155.408 46.0845C155.408 46.0845 153.534 46.6009 153.284 46.9507C153.034 47.3005 151.46 49.7282 151.46 49.7282C151.46 49.7282 152.293 52.6224 152.372 52.7682C152.522 53.0846 152.864 53.4178 153.151 53.068C153.246 52.9505 153.293 52.8021 153.284 52.6516V52.46L153.738 52.1393C153.738 52.1393 153.942 53.2637 154.55 53.0888C155.25 52.7663 155.911 52.3683 156.524 51.902C156.524 51.902 158.448 52.9972 159.46 53.1096C160.583 53.2982 161.695 53.547 162.791 53.855L163.816 48.354L162.246 48.5123Z" fill="#FFBE9D"/>
<path d="M153.197 52.7058C153.197 52.7058 153.126 52.7849 152.96 52.7516C152.851 52.715 152.754 52.6489 152.681 52.5607C152.607 52.4725 152.56 52.3656 152.543 52.2519C152.46 51.5492 152.46 50.8391 152.543 50.1364C152.616 49.4368 152.727 48.7418 152.876 48.0543C152.917 47.7686 152.993 47.489 153.101 47.2214C153.176 47.2214 152.939 48.5415 152.76 50.1364C152.676 50.8271 152.651 51.5237 152.685 52.2186C152.691 52.3139 152.723 52.4057 152.777 52.4842C152.831 52.5627 152.906 52.6249 152.993 52.6642C153.109 52.7225 153.193 52.6891 153.197 52.7058Z" fill="#EB996E"/>
<path d="M156.762 47.9587C156.37 48.3349 155.865 48.5694 155.325 48.625L155.412 48.5459L155.387 48.6542C155.288 49.2085 155.12 49.7484 154.888 50.2616C154.912 49.6964 155.008 49.1366 155.175 48.5959L155.204 48.4918V48.421H155.275C155.781 48.3033 156.278 48.1488 156.762 47.9587Z" fill="#EB996E"/>
<path d="M159.227 48.354C159.017 48.1346 158.745 47.9844 158.447 47.9234C158.15 47.8624 157.84 47.8935 157.561 48.0125L157.245 48.429L154.846 50.4278C154.402 50.7471 154.035 51.161 153.772 51.6396C153.645 51.8813 153.6 52.1579 153.645 52.4271C153.691 52.6963 153.823 52.9434 154.021 53.1304C154.513 53.5052 155.242 53.2929 155.72 52.9056C156.199 52.5183 156.553 51.9769 157.045 51.6146C157.819 51.0441 158.944 50.8901 159.418 50.0572C159.565 49.7879 159.625 49.4801 159.591 49.1754C159.557 48.8708 159.429 48.584 159.227 48.354Z" fill="#FFBE9D"/>
<path d="M157.378 47.5837C157.41 47.8897 157.335 48.1973 157.165 48.4541C157.005 48.743 156.801 49.0056 156.562 49.2328C156.268 49.4987 155.955 49.7423 155.625 49.9615C155.018 50.3161 154.481 50.7775 154.038 51.3233C153.878 51.5665 153.739 51.8228 153.622 52.0895C153.619 51.7821 153.717 51.4821 153.901 51.2358C154.08 50.9606 154.295 50.7112 154.542 50.4946C154.844 50.2387 155.161 50.001 155.491 49.7825C155.815 49.571 156.124 49.3372 156.416 49.0829C156.65 48.8776 156.855 48.6408 157.024 48.3791C157.168 48.1266 157.287 47.8601 157.378 47.5837Z" fill="#EB996E"/>
<path d="M169.442 57.203C169.442 57.203 169.529 54.2214 170.275 53.3344C171.02 52.4474 175.447 51.3188 175.447 51.3188L186.54 53.8924L183.963 58.0567L183.184 57.3237C183.184 57.3237 179.694 58.3731 177.97 57.9942C176.946 57.7766 175.94 57.4772 174.964 57.0989L173.156 57.2238C173.156 57.2238 171.853 58.573 171.432 58.573C171.012 58.573 170.549 58.1941 170.758 57.7735L170.383 57.1405C170.383 57.1405 169.612 57.5819 169.442 57.203Z" fill="#FFBE9D"/>
<path d="M175.268 55.1253C175.028 55.2741 174.757 55.3667 174.476 55.396C173.823 55.4753 173.175 55.6019 172.54 55.775C171.938 56.0189 171.445 56.4712 171.149 57.0492C171.032 57.2985 170.892 57.5368 170.733 57.7613C170.779 57.4854 170.875 57.2201 171.016 56.9785C171.147 56.6996 171.317 56.4403 171.52 56.2081C171.777 55.9202 172.102 55.7012 172.465 55.5709C173.113 55.3893 173.779 55.279 174.451 55.2419C174.964 55.1878 175.255 55.0962 175.268 55.1253Z" fill="#EB996E"/>
<path d="M174.389 52.9348C174.389 52.9639 174.035 53.0222 173.485 53.2179C173.165 53.3266 172.85 53.4531 172.544 53.5969C172.168 53.7573 171.815 53.9674 171.495 54.2215C171.354 54.3735 171.234 54.5429 171.137 54.7254C171.032 54.9045 170.937 55.0794 170.853 55.2501C170.702 55.551 170.58 55.8662 170.491 56.1912C170.345 56.7493 170.37 57.1115 170.333 57.1157C170.252 56.8016 170.252 56.472 170.333 56.1579C170.402 55.8142 170.513 55.4801 170.662 55.1627C170.745 54.9836 170.841 54.8004 170.945 54.6171C171.05 54.4134 171.183 54.2255 171.341 54.0591C171.681 53.783 172.059 53.5585 172.465 53.3928C172.785 53.256 173.113 53.1406 173.448 53.0472C173.75 52.9442 174.071 52.9058 174.389 52.9348Z" fill="#EB996E"/>
<path d="M142.551 133.289H133.885C133.312 133.289 132.848 133.754 132.848 134.326V140.481C132.848 141.054 133.312 141.518 133.885 141.518H142.551C143.124 141.518 143.588 141.054 143.588 140.481V134.326C143.588 133.754 143.124 133.289 142.551 133.289Z" fill="white"/>
<path d="M141.406 135.921C140.262 136.066 139.105 136.066 137.962 135.921C139.105 135.777 140.262 135.777 141.406 135.921Z" fill="#263238"/>
<path d="M141.476 137.462C140.332 137.606 139.173 137.606 138.028 137.462C139.173 137.318 140.332 137.318 141.476 137.462Z" fill="#263238"/>
<path d="M141.935 139.003C140.868 139.11 139.795 139.146 138.724 139.111C137.652 139.146 136.58 139.11 135.513 139.003C136.58 138.893 137.652 138.857 138.724 138.894C139.795 138.857 140.868 138.893 141.935 139.003Z" fill="#263238"/>
</svg>
