<svg width="400" height="225" viewBox="0 0 400 225" fill="none" xmlns="http://www.w3.org/2000/svg">
<path d="M339.579 191.29H60.4211V191.43H339.579V191.29Z" fill="#EBEBEB"/>
<path d="M311.607 200.273H293.116V200.413H311.607V200.273Z" fill="#EBEBEB"/>
<path d="M245.347 201.792H240.495V201.932H245.347V201.792Z" fill="#EBEBEB"/>
<path d="M292.558 195.092H281.844V195.231H292.558V195.092Z" fill="#EBEBEB"/>
<path d="M113.824 196.03H89.7103V196.17H113.824V196.03Z" fill="#EBEBEB"/>
<path d="M122.333 196.03H118.799V196.17H122.333V196.03Z" fill="#EBEBEB"/>
<path d="M186.126 198.386H133.823V198.525H186.126V198.386Z" fill="#EBEBEB"/>
<path d="M192.742 166.389H84.9367C84.0922 166.387 83.2827 166.051 82.6861 165.453C82.0894 164.855 81.7543 164.045 81.7543 163.201V11.6571C81.7616 10.8174 82.1 10.0146 82.6959 9.42288C83.2917 8.8312 84.097 8.49851 84.9367 8.49707H192.742C193.587 8.49707 194.398 8.83295 194.996 9.43081C195.594 10.0287 195.93 10.8395 195.93 11.6851V163.201C195.93 164.046 195.594 164.857 194.996 165.455C194.398 166.053 193.587 166.389 192.742 166.389ZM84.9367 8.60873C84.1292 8.61021 83.3552 8.93203 82.7848 9.50356C82.2143 10.0751 81.8939 10.8496 81.8939 11.6571V163.201C81.8939 164.008 82.2143 164.783 82.7848 165.354C83.3552 165.926 84.1292 166.248 84.9367 166.249H192.742C193.55 166.248 194.325 165.926 194.896 165.355C195.467 164.783 195.789 164.009 195.79 163.201V11.6571C195.789 10.8491 195.467 10.0746 194.896 9.50322C194.325 8.93185 193.55 8.61021 192.742 8.60873H84.9367Z" fill="#EBEBEB"/>
<path d="M313.511 166.389H205.7C204.855 166.387 204.045 166.051 203.448 165.454C202.85 164.856 202.514 164.046 202.513 163.201V11.6571C202.521 10.8169 202.861 10.0141 203.458 9.42253C204.054 8.831 204.86 8.49849 205.7 8.49707H313.511C314.35 8.49998 315.154 8.83332 315.749 9.42484C316.343 10.0164 316.681 10.8184 316.688 11.6571V163.201C316.688 164.044 316.354 164.854 315.758 165.451C315.163 166.049 314.355 166.386 313.511 166.389ZM205.7 8.60873C204.892 8.61021 204.118 8.93185 203.547 9.50322C202.975 10.0746 202.654 10.8491 202.652 11.6571V163.201C202.654 164.009 202.975 164.783 203.547 165.355C204.118 165.926 204.892 166.248 205.7 166.249H313.511C314.319 166.248 315.094 165.926 315.665 165.355C316.237 164.783 316.558 164.009 316.56 163.201V11.6571C316.558 10.8491 316.237 10.0746 315.665 9.50322C315.094 8.93185 314.319 8.61021 313.511 8.60873H205.7Z" fill="#EBEBEB"/>
<path d="M209.927 191.29H229.524V118.301H209.927V191.29Z" fill="#E6E6E6"/>
<path d="M213.188 191.29H209.927V184.719H216.61L213.188 191.29Z" fill="#F0F0F0"/>
<path d="M289.688 191.29H309.285V118.301H289.688V191.29Z" fill="#E6E6E6"/>
<path d="M209.927 188.766H292.535V118.301L209.927 118.301V188.766Z" fill="#F0F0F0"/>
<path d="M212.462 140.745H290.006V121.422L212.462 121.422V140.745Z" fill="#E6E6E6"/>
<path d="M247.569 127.418H254.894C258.076 127.418 261.119 125.034 263.307 120.824H239.155C241.343 125.045 244.386 127.418 247.569 127.418Z" fill="#F0F0F0"/>
<path d="M289.275 191.29H292.535V184.719H285.852L289.275 191.29Z" fill="#F0F0F0"/>
<path d="M212.462 163.195H290.006V143.872H212.462V163.195Z" fill="#E6E6E6"/>
<path d="M247.569 149.874H254.894C258.076 149.874 261.119 147.49 263.307 143.28H239.155C241.343 147.518 244.386 149.874 247.569 149.874Z" fill="#F0F0F0"/>
<path d="M212.462 185.646H290.006V166.322H212.462V185.646Z" fill="#E6E6E6"/>
<path d="M247.569 172.324H254.894C258.076 172.324 261.119 169.94 263.307 165.73H239.155C241.343 169.94 244.386 172.324 247.569 172.324Z" fill="#F0F0F0"/>
<path d="M103.964 101.747L178.801 101.747V26.0227L103.964 26.0227L103.964 101.747Z" fill="#E6E6E6"/>
<path d="M98.7662 101.747L177.422 101.747V26.0227L98.7662 26.0227L98.7662 101.747Z" fill="#F0F0F0"/>
<path d="M170.839 95.1585V32.6104L105.366 32.6104V95.1585H170.839Z" fill="white"/>
<path d="M137.647 40.8798L125.632 52.9171C122.729 55.8278 121.098 59.7712 121.098 63.8825C121.098 67.9937 122.729 71.9371 125.632 74.8478L137.647 86.8683C137.706 86.9271 137.776 86.9737 137.852 87.0055C137.929 87.0373 138.011 87.0536 138.094 87.0536C138.177 87.0536 138.259 87.0373 138.336 87.0055C138.412 86.9737 138.482 86.9271 138.541 86.8683L150.561 74.8478C153.465 71.9371 155.095 67.9937 155.095 63.8825C155.095 59.7712 153.465 55.8278 150.561 52.9171L138.546 40.8798C138.426 40.7622 138.265 40.6963 138.097 40.6963C137.929 40.6963 137.767 40.7622 137.647 40.8798ZM126.526 73.9321C123.86 71.2591 122.363 67.638 122.363 63.8629C122.363 60.0878 123.86 56.4667 126.526 53.7937V73.9321ZM149.668 73.9321V53.816C152.334 56.489 153.831 60.1101 153.831 63.8852C153.831 67.6604 152.334 71.2814 149.668 73.9545V73.9321Z" fill="#F0F0F0"/>
<path d="M287.572 92.2441H245.76L243.376 116.933H285.188L287.572 92.2441Z" fill="#E6E6E6"/>
<path d="M285.188 116.934L285.02 118.301H243.203L243.376 116.934H285.188Z" fill="#E6E6E6"/>
<path d="M286.288 92.2441H244.475L242.086 116.933H283.898L286.288 92.2441Z" fill="#F0F0F0"/>
<path d="M283.055 115.325L284.803 93.9196C284.807 93.8484 284.797 93.777 284.773 93.7098C284.749 93.6426 284.712 93.581 284.663 93.5287C284.615 93.4765 284.556 93.4347 284.491 93.4059C284.425 93.3771 284.355 93.3619 284.283 93.3613H245.843C245.712 93.3609 245.584 93.41 245.487 93.4989C245.39 93.5879 245.33 93.7102 245.319 93.8415L243.549 115.242C243.544 115.313 243.554 115.385 243.579 115.453C243.603 115.52 243.641 115.582 243.69 115.635C243.739 115.687 243.799 115.729 243.865 115.757C243.931 115.786 244.002 115.8 244.074 115.8H282.514C282.648 115.806 282.779 115.76 282.88 115.672C282.981 115.583 283.044 115.459 283.055 115.325Z" fill="white"/>
<path d="M273.005 116.934L272.838 118.301H226.794L226.961 116.934H273.005Z" fill="#F0F0F0"/>
<path d="M216.8 79.0459L295.316 79.0459V26.8489L216.8 26.8489V79.0459Z" fill="#E6E6E6"/>
<path d="M215.058 79.0459L293.574 79.0459V26.8489L215.058 26.8489V79.0459Z" fill="#F5F5F5"/>
<path d="M290.442 75.5287V30.3721L218.19 30.3721V75.5287H290.442Z" fill="white"/>
<path d="M219.502 75.5228V30.3662H218.184V75.5228H219.502Z" fill="#E6E6E6"/>
<path d="M216.353 69.5381L292.279 69.5381V64.8147L216.353 64.8147V69.5381Z" fill="#F5F5F5"/>
<path d="M211.641 21.0313H298.738C298.865 21.0327 298.986 21.0838 299.076 21.1735C299.166 21.2632 299.217 21.3845 299.218 21.5114C299.218 21.6387 299.168 21.7609 299.078 21.8509C298.988 21.941 298.866 21.9916 298.738 21.9916H211.641C211.577 21.9923 211.514 21.9804 211.455 21.9566C211.397 21.9328 211.343 21.8976 211.298 21.8529C211.253 21.8083 211.217 21.7551 211.192 21.6964C211.168 21.6378 211.155 21.5749 211.155 21.5114C211.157 21.3835 211.208 21.2614 211.299 21.1715C211.39 21.0817 211.513 21.0312 211.641 21.0313Z" fill="#E6E6E6"/>
<path d="M209.955 21.5116C209.955 21.7499 210.025 21.9829 210.158 22.1811C210.29 22.3792 210.478 22.5338 210.698 22.6253C210.918 22.7167 211.16 22.7409 211.394 22.6948C211.628 22.6487 211.843 22.5344 212.012 22.3663C212.181 22.1982 212.296 21.9839 212.343 21.7503C212.39 21.5167 212.367 21.2744 212.277 21.054C212.186 20.8335 212.033 20.6448 211.835 20.5116C211.637 20.3784 211.405 20.3068 211.166 20.3057C211.008 20.3049 210.85 20.3356 210.703 20.3959C210.556 20.4561 210.423 20.5449 210.31 20.6569C210.198 20.769 210.108 20.9022 210.047 21.0488C209.986 21.1955 209.955 21.3528 209.955 21.5116Z" fill="#E6E6E6"/>
<path d="M294.663 24.2135C294.834 24.2136 294.998 24.1463 295.121 24.0262C295.243 23.9061 295.313 23.7428 295.316 23.5715V22.1757C295.316 22.0024 295.247 21.8363 295.124 21.7138C295.002 21.5913 294.836 21.5225 294.663 21.5225C294.577 21.5225 294.492 21.5394 294.413 21.5723C294.334 21.6052 294.263 21.6534 294.203 21.7141C294.142 21.7749 294.095 21.8469 294.063 21.9261C294.03 22.0054 294.014 22.0902 294.015 22.1757V23.5715C294.018 23.7418 294.087 23.9043 294.208 24.0242C294.329 24.1442 294.492 24.2121 294.663 24.2135Z" fill="#E6E6E6"/>
<path d="M218.91 24.2135C219.077 24.2065 219.235 24.1363 219.352 24.0171C219.47 23.8978 219.537 23.7386 219.541 23.5715V22.1757C219.541 22.0024 219.472 21.8363 219.35 21.7138C219.227 21.5913 219.061 21.5225 218.888 21.5225C218.802 21.5225 218.718 21.5394 218.639 21.5723C218.56 21.6052 218.488 21.6534 218.428 21.7141C218.368 21.7749 218.32 21.8469 218.288 21.9261C218.256 22.0054 218.24 22.0902 218.24 22.1757V23.5715C218.242 23.6577 218.26 23.7429 218.295 23.8219C218.329 23.901 218.379 23.9725 218.441 24.0322C218.504 24.0919 218.577 24.1386 218.658 24.1698C218.738 24.2009 218.824 24.2158 218.91 24.2135Z" fill="#E6E6E6"/>
<path opacity="0.4" d="M211.797 72.2236L292.279 72.2236V21.5118L211.797 21.5118V72.2236Z" fill="#E0E0E0"/>
<path d="M285.707 21.5116C285.707 21.7501 285.778 21.9833 285.91 22.1816C286.043 22.3799 286.231 22.5345 286.452 22.6258C286.672 22.7171 286.914 22.7409 287.148 22.6944C287.382 22.6479 287.597 22.533 287.766 22.3644C287.935 22.1957 288.049 21.9808 288.096 21.7469C288.142 21.513 288.119 21.2705 288.027 21.0501C287.936 20.8298 287.781 20.6414 287.583 20.5089C287.385 20.3764 287.152 20.3057 286.913 20.3057C286.593 20.3057 286.287 20.4327 286.06 20.6589C285.834 20.885 285.707 21.1918 285.707 21.5116Z" fill="#E6E6E6"/>
<path d="M171.805 187.672H178.259V131.69H171.805V187.672Z" fill="#F0F0F0"/>
<path d="M101.792 191.217H175.78V187.672H101.792V191.217Z" fill="#F0F0F0"/>
<path d="M171.805 131.689H99.3133V187.672H171.805V131.689Z" fill="#F5F5F5"/>
<path d="M162.755 138.579H108.364C106.168 138.579 104.388 140.359 104.388 142.554V152.961C104.388 155.157 106.168 156.937 108.364 156.937H162.755C164.95 156.937 166.73 155.157 166.73 152.961V142.554C166.73 140.359 164.95 138.579 162.755 138.579Z" fill="#F0F0F0"/>
<path d="M162.755 162.419H108.364C106.168 162.419 104.388 164.199 104.388 166.394V176.801C104.388 178.997 106.168 180.776 108.364 180.776H162.755C164.95 180.776 166.73 178.997 166.73 176.801V166.394C166.73 164.199 164.95 162.419 162.755 162.419Z" fill="#F0F0F0"/>
<path d="M122.053 149.02H149.065C149.399 149.02 149.719 148.888 149.955 148.652C150.192 148.417 150.325 148.097 150.327 147.764C150.325 147.43 150.192 147.109 149.955 146.873C149.719 146.637 149.399 146.503 149.065 146.502H122.053C121.719 146.503 121.399 146.637 121.163 146.873C120.927 147.109 120.793 147.43 120.792 147.764C120.793 148.097 120.927 148.417 121.163 148.652C121.4 148.888 121.72 149.02 122.053 149.02Z" fill="#F5F5F5"/>
<path d="M122.053 172.86H149.065C149.399 172.86 149.719 172.728 149.955 172.492C150.192 172.257 150.325 171.937 150.327 171.604C150.325 171.269 150.192 170.949 149.955 170.713C149.719 170.477 149.399 170.343 149.065 170.342H122.053C121.719 170.343 121.399 170.477 121.163 170.713C120.927 170.949 120.793 171.269 120.792 171.604C120.793 171.937 120.927 172.257 121.163 172.492C121.4 172.728 121.72 172.86 122.053 172.86Z" fill="#F5F5F5"/>
<path d="M200 216.504C259.786 216.504 308.252 213.674 308.252 210.183C308.252 206.693 259.786 203.863 200 203.863C140.214 203.863 91.7482 206.693 91.7482 210.183C91.7482 213.674 140.214 216.504 200 216.504Z" fill="#F5F5F5"/>
<path d="M223.924 34.4307H120.747L128.765 174.942H231.936L223.924 34.4307Z" fill="#263238"/>
<path d="M225.928 34.4307H122.752L130.769 174.942H233.946L225.928 34.4307Z" fill="#407BFF"/>
<path opacity="0.5" d="M218.821 39.1543H127.469L134.018 166.344H227.743L218.821 39.1543Z" fill="black"/>
<path d="M127.469 39.1543C134.258 81.5528 129.602 123.951 136.402 166.344H230.116C223.327 123.951 227.983 81.5528 221.183 39.1543H127.469Z" fill="white"/>
<g opacity="0.3">
<path d="M146.631 77.2648C148.7 77.2814 150.685 78.0916 152.174 79.5283C153.664 80.965 154.545 82.9187 154.637 84.9863C154.679 85.9809 154.517 86.9736 154.163 87.9039C153.809 88.8343 153.269 89.6828 152.577 90.3978C151.884 91.1129 151.053 91.6795 150.135 92.0632C149.216 92.4469 148.229 92.6396 147.234 92.6296C145.177 92.6126 143.205 91.8046 141.728 90.3733C140.251 88.9419 139.382 86.9969 139.3 84.9416C139.257 83.9499 139.414 82.9598 139.762 82.0302C140.111 81.1007 140.643 80.2509 141.327 79.5315C142.013 78.8187 142.837 78.253 143.749 77.869C144.661 77.4851 145.641 77.2909 146.631 77.2983M146.575 75.6847C145.371 75.6772 144.179 75.9152 143.071 76.3842C141.962 76.8532 140.961 77.5433 140.129 78.4124C139.296 79.2815 138.65 80.3112 138.229 81.4387C137.808 82.5661 137.622 83.7675 137.681 84.9695C137.778 87.451 138.827 89.7997 140.61 91.5284C142.393 93.2572 144.773 94.2333 147.256 94.2543C148.465 94.2643 149.663 94.0289 150.779 93.5621C151.894 93.0954 152.903 92.4072 153.744 91.5391C154.586 90.671 155.242 89.6412 155.674 88.5119C156.106 87.3827 156.304 86.1776 156.256 84.9695C156.136 82.4773 155.066 80.1258 153.265 78.3988C151.464 76.6717 149.07 75.7004 146.575 75.6847Z" fill="#407BFF"/>
</g>
<path d="M198.448 146.915H168.857C168.636 146.912 168.416 146.955 168.213 147.043C168.01 147.131 167.828 147.261 167.679 147.425C167.53 147.588 167.417 147.782 167.349 147.993C167.281 148.203 167.258 148.426 167.283 148.646C167.337 149.117 167.559 149.552 167.909 149.871C168.259 150.19 168.713 150.372 169.187 150.382H198.777C198.999 150.386 199.219 150.343 199.422 150.255C199.625 150.166 199.807 150.036 199.955 149.871C200.103 149.706 200.215 149.512 200.281 149.3C200.348 149.089 200.368 148.866 200.341 148.646C200.288 148.177 200.067 147.744 199.719 147.425C199.371 147.107 198.92 146.926 198.448 146.915Z" fill="#E0E0E0"/>
<path d="M214.276 139.629H168.26C168.037 139.625 167.816 139.668 167.611 139.755C167.406 139.842 167.222 139.972 167.071 140.136C166.919 140.299 166.804 140.493 166.733 140.704C166.662 140.915 166.636 141.138 166.657 141.36C166.698 141.829 166.911 142.267 167.255 142.588C167.6 142.908 168.051 143.09 168.522 143.096H214.516C214.739 143.103 214.961 143.062 215.167 142.976C215.373 142.891 215.559 142.763 215.712 142.6C215.865 142.438 215.982 142.245 216.055 142.034C216.128 141.823 216.155 141.599 216.135 141.377C216.099 140.906 215.889 140.466 215.545 140.143C215.201 139.819 214.748 139.636 214.276 139.629Z" fill="#E0E0E0"/>
<g opacity="0.3">
<path d="M147.574 107.319C149.629 107.334 151.598 108.142 153.07 109.575C154.542 111.008 155.404 112.954 155.474 115.007C155.512 116.001 155.349 116.993 154.995 117.922C154.641 118.852 154.103 119.7 153.414 120.418C152.724 121.132 151.896 121.698 150.981 122.082C150.065 122.466 149.081 122.66 148.088 122.651C146.029 122.637 144.054 121.83 142.573 120.399C141.093 118.967 140.221 117.02 140.137 114.963C140.104 113.967 140.271 112.975 140.63 112.046C140.989 111.117 141.533 110.27 142.227 109.557C142.922 108.843 143.753 108.276 144.672 107.892C145.591 107.508 146.578 107.313 147.574 107.319ZM147.574 105.7C146.364 105.693 145.166 105.93 144.05 106.397C142.934 106.864 141.924 107.552 141.08 108.419C140.237 109.286 139.577 110.315 139.14 111.443C138.704 112.571 138.5 113.776 138.541 114.985C138.64 117.473 139.694 119.828 141.485 121.558C143.276 123.288 145.665 124.262 148.155 124.276C149.361 124.28 150.556 124.041 151.667 123.571C152.778 123.102 153.782 122.412 154.619 121.544C155.457 120.676 156.11 119.647 156.539 118.52C156.968 117.393 157.164 116.19 157.116 114.985C157.032 112.505 155.992 110.153 154.214 108.422C152.435 106.692 150.056 105.716 147.574 105.7Z" fill="#407BFF"/>
</g>
<path d="M182.022 83.0267H166.194C165.729 83.0229 165.283 82.8405 164.948 82.5174C164.614 82.1943 164.416 81.755 164.396 81.2904C164.389 81.0657 164.427 80.8419 164.507 80.6322C164.588 80.4225 164.71 80.2312 164.867 80.0697C165.023 79.9082 165.21 79.7798 165.417 79.6922C165.624 79.6045 165.846 79.5594 166.071 79.5596H181.894C182.359 79.5632 182.805 79.7444 183.142 80.0661C183.478 80.3877 183.679 80.8257 183.703 81.2904C183.711 81.5159 183.674 81.7408 183.593 81.9515C183.512 82.1622 183.389 82.3545 183.233 82.5166C183.076 82.6788 182.887 82.8076 182.679 82.8952C182.471 82.9829 182.248 83.0276 182.022 83.0267Z" fill="#E0E0E0"/>
<path d="M200.29 83.0267H189.571C189.105 83.0229 188.659 82.8408 188.323 82.5178C187.988 82.1948 187.789 81.7555 187.767 81.2904C187.76 81.0657 187.798 80.8419 187.878 80.6322C187.959 80.4225 188.081 80.2312 188.238 80.0697C188.394 79.9082 188.581 79.7798 188.788 79.6922C188.995 79.6045 189.218 79.5594 189.442 79.5596H200.168C200.632 79.5633 201.078 79.7446 201.413 80.0665C201.749 80.3883 201.948 80.8262 201.971 81.2904C201.979 81.5159 201.942 81.7408 201.861 81.9515C201.78 82.1622 201.658 82.3545 201.501 82.5166C201.344 82.6788 201.156 82.8076 200.948 82.8952C200.74 82.9829 200.516 83.0276 200.29 83.0267Z" fill="#E0E0E0"/>
<path d="M208.933 90.3128H166.445C165.98 90.3103 165.534 90.1282 165.2 89.8047C164.866 89.4812 164.67 89.0411 164.653 88.5765C164.646 88.3519 164.683 88.1281 164.764 87.9184C164.845 87.7086 164.967 87.5173 165.124 87.3559C165.28 87.1944 165.467 87.066 165.674 86.9783C165.881 86.8907 166.103 86.8456 166.328 86.8457H208.81C209.274 86.8483 209.718 87.0297 210.051 87.3522C210.384 87.6747 210.58 88.1133 210.597 88.5765C210.605 88.8006 210.568 89.0241 210.489 89.2337C210.409 89.4434 210.288 89.6348 210.133 89.7967C209.977 89.9587 209.791 90.0878 209.585 90.1765C209.379 90.2651 209.157 90.3115 208.933 90.3128Z" fill="#E0E0E0"/>
<g opacity="0.3">
<path d="M148.786 137.334C150.868 137.375 152.863 138.182 154.387 139.602C155.912 141.021 156.86 142.953 157.049 145.028C157.149 145.999 157.046 146.982 156.748 147.912C156.449 148.842 155.96 149.7 155.312 150.432C154.66 151.151 153.86 151.722 152.969 152.107C152.077 152.493 151.114 152.683 150.142 152.665C148.042 152.631 146.026 151.831 144.473 150.416C142.921 149 141.939 147.066 141.712 144.977C141.616 143.998 141.729 143.01 142.043 142.077C142.356 141.145 142.864 140.289 143.532 139.567C144.204 138.85 145.019 138.281 145.923 137.897C146.828 137.512 147.803 137.32 148.786 137.334ZM148.708 135.72C147.512 135.697 146.325 135.927 145.224 136.394C144.123 136.861 143.134 137.556 142.32 138.433C141.507 139.31 140.888 140.348 140.504 141.481C140.12 142.614 139.98 143.815 140.093 145.005C140.523 150.131 145.173 154.29 150.299 154.29C155.424 154.29 159.098 150.131 158.674 145.005C158.452 142.501 157.312 140.167 155.473 138.453C153.634 136.739 151.227 135.766 148.713 135.72H148.708Z" fill="#407BFF"/>
</g>
<path d="M216.191 116.883H167.166C166.941 116.883 166.718 116.928 166.511 117.016C166.304 117.103 166.117 117.232 165.961 117.393C165.805 117.555 165.683 117.746 165.602 117.956C165.521 118.165 165.483 118.389 165.491 118.614C165.511 119.077 165.708 119.515 166.041 119.837C166.375 120.159 166.819 120.341 167.283 120.344H216.331C216.556 120.345 216.778 120.299 216.985 120.212C217.192 120.124 217.379 119.996 217.535 119.834C217.692 119.673 217.814 119.482 217.895 119.272C217.976 119.062 218.013 118.838 218.006 118.614C217.988 118.146 217.789 117.703 217.45 117.38C217.111 117.056 216.66 116.878 216.191 116.883Z" fill="#E0E0E0"/>
<path d="M204.573 109.592H166.953C166.728 109.592 166.505 109.637 166.298 109.725C166.091 109.813 165.903 109.942 165.747 110.104C165.59 110.266 165.468 110.458 165.388 110.668C165.307 110.879 165.27 111.103 165.278 111.328C165.294 111.791 165.489 112.229 165.821 112.552C166.153 112.875 166.597 113.056 167.059 113.059H204.684C204.909 113.059 205.132 113.014 205.339 112.926C205.545 112.839 205.733 112.71 205.889 112.549C206.045 112.387 206.167 112.196 206.248 111.986C206.329 111.777 206.367 111.553 206.359 111.328C206.346 110.863 206.152 110.421 205.819 110.097C205.485 109.773 205.038 109.592 204.573 109.592Z" fill="#E0E0E0"/>
<path d="M147.479 90.413L146.821 89.3299C145.374 86.9682 142.354 84.8633 141.316 84.2436L142.097 82.859C144.148 84.1004 145.975 85.6783 147.502 87.5265C149.875 84.3385 153.342 81.0612 158.037 77.5215L159.048 78.8279C154.023 82.6077 150.461 86.086 148.177 89.3969C147.948 89.7374 147.714 90.078 147.479 90.413Z" fill="#407BFF"/>
<path d="M148.317 120.451C148.099 120.088 147.876 119.725 147.652 119.368C146.201 117.006 143.186 114.901 142.159 114.276L142.951 112.891C144.992 114.136 146.809 115.714 148.328 117.559C150.706 114.376 154.201 111.093 158.969 107.554L159.958 108.86C154.866 112.64 151.281 116.118 149.009 119.429L148.317 120.451Z" fill="#407BFF"/>
<path d="M150.232 150.555L149.495 149.471C147.887 147.11 144.772 145.005 143.7 144.385L144.425 143.001C146.535 144.251 148.436 145.824 150.059 147.663C152.247 144.48 155.575 141.197 160.198 137.663L161.242 138.97C156.306 142.749 152.917 146.228 150.857 149.538L150.232 150.555Z" fill="#407BFF"/>
<path d="M185.54 49.8125C184.557 51.9564 183.55 54.0985 182.519 56.2387C184.645 57.2959 186.462 58.8828 187.796 60.8465C189.13 62.8101 189.935 65.0843 190.135 67.4497H197.555C197.063 59.8622 192.184 53.2573 185.54 49.8125Z" fill="#407BFF"/>
<path d="M157.272 67.4612H164.692C164.51 65.3624 164.893 63.2532 165.8 61.3518C166.707 59.4504 168.105 57.826 169.851 56.6466C168.407 54.5027 166.94 52.3588 165.452 50.2148C160.036 53.7211 156.798 60.1473 157.272 67.4612Z" fill="#263238"/>
<path d="M175.501 47.3222C171.941 47.287 168.448 48.2921 165.452 50.2143C166.94 52.3582 168.407 54.5021 169.851 56.6461C171.785 55.382 174.05 54.7177 176.361 54.7366C178.499 54.749 180.604 55.2675 182.503 56.2497C183.53 54.1057 184.537 51.9637 185.523 49.8234C182.43 48.202 178.994 47.3444 175.501 47.3222Z" fill="#407BFF"/>
<path opacity="0.5" d="M175.501 47.3222C171.941 47.287 168.448 48.2921 165.452 50.2143C166.94 52.3582 168.407 54.5021 169.851 56.6461C171.785 55.382 174.05 54.7177 176.361 54.7366C178.499 54.749 180.604 55.2675 182.503 56.2497C183.53 54.1057 184.537 51.9637 185.523 49.8234C182.43 48.202 178.994 47.3444 175.501 47.3222Z" fill="#263238"/>
<path d="M184.568 62.3799C184.568 62.3799 177.076 65.445 176.283 66.0034C176.094 66.1467 175.935 66.3266 175.816 66.5322C175.697 66.7379 175.621 66.9652 175.591 67.2009C175.561 67.4366 175.579 67.6758 175.643 67.9045C175.707 68.1332 175.817 68.3467 175.965 68.5325C176.244 68.9297 176.668 69.2025 177.145 69.2932C177.622 69.3838 178.116 69.2852 178.522 69.0183C179.342 68.4264 184.579 62.3799 184.568 62.3799ZM176.696 67.963C176.623 67.8716 176.569 67.7665 176.538 67.6539C176.506 67.5414 176.497 67.4236 176.512 67.3076C176.526 67.1916 176.564 67.0796 176.623 66.9784C176.681 66.8771 176.759 66.7886 176.852 66.718C177.053 66.5887 177.296 66.5414 177.531 66.5861C177.766 66.6308 177.975 66.764 178.114 66.9581C178.187 67.0495 178.241 67.1546 178.272 67.2672C178.304 67.3798 178.313 67.4975 178.298 67.6135C178.284 67.7296 178.246 67.8415 178.188 67.9427C178.129 68.044 178.051 68.1325 177.958 68.2031C177.759 68.3348 177.518 68.3856 177.284 68.3451C177.049 68.3046 176.839 68.1759 176.696 67.9854V67.963Z" fill="#263238"/>
<path d="M203.763 39.5172C202.021 35.849 197.957 33.4204 193.574 33.4204H184.641C184.027 33.4475 183.418 33.312 182.874 33.0276C182.329 32.7433 181.87 32.3202 181.542 31.8013C180.297 29.4675 177.327 27.8037 173.955 27.8037C170.582 27.8037 167.813 29.4787 166.83 31.8013C166.423 32.7839 165.256 33.4204 163.916 33.4204H154.983C150.6 33.4204 146.809 35.849 145.492 39.5172C145.443 39.6452 145.424 39.7827 145.436 39.9192C145.45 40.2055 145.574 40.4754 145.782 40.6729C145.99 40.8704 146.266 40.9803 146.552 40.98H202.875C203.047 40.9804 203.217 40.9363 203.367 40.852C203.517 40.7678 203.643 40.6462 203.732 40.4991C203.821 40.3519 203.871 40.1842 203.877 40.0122C203.882 39.8402 203.843 39.6697 203.763 39.5172ZM174.318 34.4309C173.651 34.4172 173.014 34.1546 172.532 33.6948C172.049 33.235 171.756 32.6113 171.71 31.9464C171.688 31.6262 171.732 31.3048 171.84 31.0025C171.948 30.7002 172.118 30.4236 172.338 30.1901C172.558 29.9567 172.825 29.7714 173.12 29.6461C173.416 29.5208 173.734 29.458 174.055 29.4619C174.726 29.4688 175.369 29.7285 175.857 30.1891C176.344 30.6497 176.64 31.2773 176.685 31.9464C176.707 32.2686 176.663 32.5919 176.553 32.8957C176.444 33.1996 176.272 33.4772 176.049 33.711C175.827 33.9448 175.558 34.1296 175.259 34.2536C174.961 34.3775 174.64 34.4379 174.318 34.4309Z" fill="#263238"/>
<path d="M234.217 195.822L235.521 205.308C235.521 205.308 226.321 209.816 226.392 211.59L244.867 209.713L243.459 194.855L234.217 195.822Z" fill="#455A64"/>
<path d="M241.156 203.928C241.338 203.965 241.501 204.067 241.613 204.216C241.724 204.365 241.777 204.55 241.761 204.735C241.732 204.919 241.634 205.085 241.486 205.198C241.339 205.312 241.153 205.364 240.968 205.345C240.774 205.307 240.601 205.198 240.482 205.039C240.363 204.881 240.308 204.684 240.325 204.487C240.376 204.297 240.498 204.135 240.666 204.033C240.834 203.932 241.035 203.899 241.226 203.942" fill="#E0E0E0"/>
<g opacity="0.6">
<path d="M244.867 209.727L244.665 208.235L227.025 210.581C227.025 210.581 226.237 211.022 226.392 211.59L244.867 209.727Z" fill="white"/>
</g>
<path d="M235.212 205.242C235.212 205.332 235.681 205.327 236.15 205.576C236.619 205.824 236.896 206.176 236.976 206.129C237.055 206.082 236.868 205.58 236.291 205.289C235.714 204.998 235.183 205.149 235.212 205.242Z" fill="#263238"/>
<path d="M233.354 206.242C233.354 206.331 233.748 206.444 234.095 206.795C234.442 207.147 234.564 207.541 234.658 207.527C234.752 207.513 234.752 206.997 234.315 206.589C233.879 206.181 233.349 206.153 233.354 206.242Z" fill="#263238"/>
<path d="M232.491 208.671C232.575 208.671 232.655 208.202 232.373 207.733C232.092 207.264 231.646 207.109 231.618 207.189C231.59 207.269 231.876 207.503 232.087 207.893C232.298 208.282 232.397 208.671 232.491 208.671Z" fill="#263238"/>
<path d="M235.155 203.046C235.202 203.126 235.624 202.962 236.094 202.943C236.563 202.924 237.032 203.046 237.06 202.967C237.088 202.887 236.685 202.601 236.08 202.629C235.474 202.657 235.104 202.981 235.155 203.046Z" fill="#263238"/>
<path d="M259.33 131.704C259.33 131.704 262.722 155.781 261.015 159.717C259.696 162.762 257.36 164.085 254.371 164.854C250.06 165.961 243.145 166.754 243.145 166.754L240.799 152.881L246.068 151.732L241.217 134.472L249.816 128.594L259.33 131.704Z" fill="#263238"/>
<path d="M241.235 134.472L245.486 200.983L233.757 201.578L228.536 168.583C228.536 168.583 222.962 141.373 222.582 138.047C222.202 134.721 222.582 127.655 222.582 127.655L241.235 134.472Z" fill="#263238"/>
<path d="M241.568 139.665C241.563 139.709 241.563 139.753 241.568 139.796C241.568 139.895 241.568 140.022 241.568 140.181C241.568 140.533 241.597 141.026 241.62 141.65C241.681 142.926 241.775 144.774 241.911 147.054C242.178 151.614 242.624 157.915 243.084 164.882C243.295 168.363 243.497 171.675 243.68 174.696C243.863 177.717 244.191 180.415 244.416 182.672C244.641 184.928 244.815 186.786 244.913 188.057C244.96 188.681 244.998 189.169 245.026 189.526C245.026 189.681 245.026 189.807 245.059 189.906C245.052 189.948 245.052 189.99 245.059 190.032C245.059 190.032 245.059 189.99 245.059 189.906C245.059 189.821 245.059 189.676 245.059 189.521C245.059 189.183 245.026 188.691 244.989 188.053C244.918 186.777 244.782 184.928 244.571 182.653C244.36 180.377 244.102 177.67 243.886 174.677C243.67 171.684 243.548 168.344 243.309 164.867C242.84 157.919 242.371 151.633 242.066 147.04C241.911 144.774 241.784 142.935 241.7 141.64C241.653 141.016 241.62 140.528 241.597 140.172C241.597 140.017 241.597 139.89 241.564 139.792C241.57 139.75 241.571 139.707 241.568 139.665Z" fill="#455A64"/>
<path d="M244.304 145.445C244.304 145.621 244.328 145.796 244.374 145.966C244.44 146.299 244.543 146.782 244.684 147.374C244.96 148.551 245.406 150.188 246.002 151.924C246.598 153.66 247.231 155.232 247.728 156.339C247.977 156.892 248.197 157.338 248.343 157.638C248.409 157.806 248.498 157.963 248.606 158.108C248.564 157.936 248.505 157.769 248.427 157.61C248.282 157.244 248.099 156.803 247.888 156.283C247.419 155.161 246.828 153.604 246.232 151.854C245.636 150.104 245.172 148.504 244.824 147.336L244.444 145.957C244.418 145.781 244.371 145.61 244.304 145.445Z" fill="#455A64"/>
<path d="M248.465 73.0843L251.28 75.3315C251.28 75.3315 260.24 76.9313 261.005 78.3294L258.092 96.307L255.83 111.732C255.83 111.732 259.218 120.829 259.312 124.667C259.405 128.504 259.312 131.704 259.312 131.704H257.632C253.72 131.705 249.96 133.218 247.137 135.926L244.046 133.111L243.44 138.45C243.44 138.45 231.308 139.196 228.221 136.855C225.134 134.514 220.945 129.551 220.945 129.551C220.945 129.551 220.222 117.099 223.915 110.813C227.607 104.526 228.536 103.222 228.536 103.222C228.536 103.222 227.222 92.3756 227.222 92.0003C227.222 91.6249 226.101 76.8281 226.101 76.8281L235.409 74.4824L238.102 72.4229L248.465 73.0843Z" fill="#455A64"/>
<g opacity="0.3">
<path d="M256.159 112.6C255.585 113.129 254.9 113.523 254.154 113.752C253.407 113.981 252.619 114.039 251.847 113.923C250.811 113.782 249.811 113.336 248.76 113.351C247.231 113.374 245.913 114.35 244.58 115.096C241.681 116.705 238.338 117.334 235.052 116.888C231.299 116.367 227.86 114.467 224.67 112.408C224.429 112.271 224.214 112.091 224.037 111.877C223.874 111.623 223.795 111.325 223.81 111.024C223.825 110.723 223.934 110.434 224.121 110.198C224.507 109.729 225.054 109.421 225.655 109.335C226.725 109.133 227.818 109.396 228.888 109.569C231.173 109.945 233.506 109.925 235.784 109.508C238.674 108.983 241.414 107.829 244.341 107.439C247.618 107.002 250.951 107.544 253.921 108.997C254.571 109.278 255.156 109.689 255.643 110.203C256.122 110.903 256.307 111.764 256.159 112.6Z" fill="black"/>
</g>
<path d="M246.035 82.8613C246.028 82.908 246.028 82.9554 246.035 83.0021C246.035 83.11 246.035 83.2507 246.007 83.4243L245.894 85.0475C245.819 86.455 245.706 88.5051 245.57 91.0057C245.322 96.0537 244.974 103.002 244.594 110.672C244.505 112.591 244.416 114.468 244.332 116.279C244.247 118.089 244.158 119.835 244.163 121.505C244.163 122.34 244.163 123.156 244.238 123.944C244.313 124.732 244.388 125.492 244.379 126.229C244.379 127.702 244.257 129.091 244.28 130.348C244.304 131.605 244.092 132.731 243.989 133.726C243.886 134.721 243.778 135.57 243.694 136.273C243.609 136.977 243.558 137.503 243.515 137.887C243.515 138.061 243.487 138.202 243.478 138.31C243.474 138.358 243.474 138.407 243.478 138.455C243.493 138.408 243.504 138.359 243.511 138.31C243.511 138.206 243.544 138.066 243.572 137.892L243.792 136.288L244.13 133.74C244.247 132.745 244.397 131.62 244.458 130.353C244.458 129.086 244.571 127.721 244.585 126.229C244.585 125.483 244.505 124.714 244.458 123.93C244.411 123.147 244.388 122.335 244.393 121.505C244.393 119.844 244.487 118.099 244.576 116.288C244.665 114.477 244.754 112.6 244.843 110.682C245.2 103.011 245.519 96.0631 245.749 91.0151C245.852 88.5098 245.936 86.4784 245.992 85.0522C245.992 84.3626 246.035 83.8184 246.049 83.4337C246.049 83.2554 246.049 83.1194 246.049 83.0115C246.049 82.9036 246.035 82.8613 246.035 82.8613Z" fill="#263238"/>
<path d="M257.538 81.6981L257.81 100.53L256.403 103.814L257.571 112.784L262.314 110.119C263.469 109.482 264.411 108.52 265.023 107.353C265.636 106.185 265.891 104.863 265.758 103.551V103.49C265.321 99.8399 264.599 94.0226 263.994 90.3304C263.055 84.6162 262.399 80.1218 260.996 78.3438L257.538 81.6981Z" fill="#455A64"/>
<path d="M226.087 76.8282C226.087 76.8282 223.37 76.27 221.963 82.8239C220.556 89.3779 219.434 100.802 219.434 100.802C219.292 100.839 219.16 100.909 219.049 101.007C218.939 101.104 218.853 101.227 218.798 101.364C218.744 101.501 218.723 101.649 218.736 101.796C218.75 101.942 218.798 102.084 218.876 102.209C218.876 102.209 219.064 108.378 219.814 109.124L227.635 104.508L228.526 103.208L226.087 76.8282Z" fill="#455A64"/>
<path d="M257.571 112.6L247.067 111.432L246.26 106.323L256.562 105.497L257.571 112.6Z" fill="#9D6054"/>
<path d="M244.229 80.5769C244.33 80.7666 244.448 80.9471 244.58 81.1164C244.853 81.487 245.2 81.9562 245.608 82.5238L247.156 84.6021C247.182 84.6401 247.216 84.6719 247.256 84.6954C247.296 84.7189 247.34 84.7335 247.386 84.7382C247.474 84.7399 247.56 84.7118 247.63 84.6584C247.736 84.5793 247.834 84.4914 247.925 84.3957C248.122 84.2198 248.306 84.0318 248.479 83.8327C248.847 83.4194 249.181 82.9769 249.478 82.5097C250.507 80.8537 251.038 78.9371 251.008 76.9879C251.001 76.4023 250.933 75.819 250.806 75.2474C250.765 75.0372 250.703 74.8314 250.623 74.6328C250.751 75.4084 250.822 76.1925 250.834 76.9785C250.837 79.442 249.935 81.8208 248.301 83.6638C248.132 83.8574 247.954 84.0422 247.766 84.2174C247.683 84.3039 247.596 84.3854 247.503 84.4614C247.409 84.513 247.391 84.5177 247.33 84.4614C246.748 83.6873 246.199 82.9977 245.749 82.4206L244.655 81.0601C244.532 80.8837 244.388 80.7216 244.229 80.5769Z" fill="#263238"/>
<path d="M235.395 74.4873C235.373 74.5491 235.364 74.6143 235.366 74.6796C235.357 74.8609 235.357 75.0426 235.366 75.2239C235.377 75.8989 235.478 76.5695 235.667 77.2177C235.962 78.1686 236.326 79.0969 236.755 79.9951C237.261 81.1038 237.841 82.1774 238.491 83.2087C238.833 83.7623 239.176 84.2924 239.509 84.8038C239.593 84.9305 239.673 85.0571 239.758 85.1791C239.838 85.3169 239.932 85.4458 240.039 85.5638C240.079 85.5985 240.127 85.6244 240.177 85.6397C240.228 85.6551 240.282 85.6596 240.335 85.6529C240.428 85.6369 240.515 85.5927 240.583 85.5263C240.687 85.4208 240.781 85.3062 240.865 85.1838L242.61 82.8052L243.797 81.1914C243.952 80.9994 244.088 80.7937 244.205 80.5768C244.036 80.7497 243.879 80.9347 243.736 81.1304C243.417 81.5385 242.995 82.0687 242.488 82.702L240.658 85.0477C240.494 85.2682 240.297 85.5169 240.189 85.3855C240.1 85.2813 240.02 85.1699 239.95 85.0524L239.706 84.6724C239.373 84.1611 239.035 83.6309 238.697 83.082C238.052 82.0601 237.471 80.9994 236.957 79.9059C236.524 79.0184 236.146 78.1049 235.826 77.1708C235.572 76.2977 235.427 75.3962 235.395 74.4873Z" fill="#263238"/>
<path d="M250.06 81.7865C250.06 81.8288 250.557 81.9132 251.313 82.2557C252.312 82.722 253.174 83.4397 253.813 84.3387L253.884 84.4372L253.987 84.3621C254.247 84.1694 254.521 83.9969 254.808 83.8461C255.978 83.2221 257.309 82.9654 258.627 83.1095C259.169 83.1974 259.706 83.3148 260.236 83.4614C260.115 83.3729 259.98 83.3048 259.837 83.2597C259.454 83.1113 259.056 83.0043 258.65 82.9406C257.286 82.7391 255.894 82.9843 254.681 83.6397C254.386 83.8012 254.104 83.9847 253.837 84.1886H254.01C253.343 83.2604 252.43 82.5372 251.374 82.1009C251.07 81.9758 250.756 81.8784 250.435 81.81C250.313 81.7797 250.186 81.7717 250.06 81.7865Z" fill="#263238"/>
<path d="M226.42 82.9461C226.957 82.6565 227.555 82.4958 228.165 82.4769C228.824 82.465 229.479 82.5879 230.089 82.8382C230.837 83.1579 231.555 83.5458 232.233 83.997L232.458 84.1377L232.552 84.1987L232.617 84.1096C233.509 83.0026 234.803 82.294 236.216 82.1392C236.799 82.0949 237.386 82.1122 237.965 82.1908C237.817 82.1212 237.659 82.0738 237.496 82.05C237.067 81.9632 236.628 81.9364 236.192 81.9703C235.542 82.0213 234.906 82.1898 234.316 82.4675C233.582 82.8138 232.94 83.3262 232.439 83.9641L232.603 83.936L232.378 83.7905C231.688 83.3278 230.952 82.9379 230.182 82.6271C229.542 82.3775 228.856 82.2672 228.17 82.3033C227.707 82.3272 227.255 82.4487 226.842 82.6599C226.682 82.7234 226.538 82.8211 226.42 82.9461Z" fill="#263238"/>
<path d="M228.953 123.808C228.953 123.808 229.014 123.869 229.136 123.962L229.685 124.361L230.089 124.643C230.239 124.741 230.412 124.835 230.591 124.943C230.995 125.196 231.413 125.426 231.843 125.633L232.589 125.994C232.852 126.116 233.133 126.214 233.424 126.336C234.038 126.582 234.665 126.797 235.301 126.979C238.235 127.812 241.315 127.994 244.327 127.514C245.017 127.382 245.674 127.275 246.274 127.096C246.574 127.017 246.865 126.951 247.142 126.857L247.925 126.585C248.376 126.432 248.818 126.254 249.248 126.05C249.441 125.966 249.619 125.891 249.783 125.811L250.215 125.576L250.811 125.248C250.942 125.168 251.012 125.126 251.008 125.117C250.931 125.138 250.857 125.167 250.787 125.206L250.173 125.492L249.732 125.708C249.572 125.778 249.389 125.848 249.192 125.928C248.807 126.078 248.376 126.275 247.869 126.425L247.086 126.679C246.814 126.763 246.523 126.824 246.222 126.899C245.627 127.068 244.975 127.167 244.294 127.293C242.806 127.501 241.301 127.569 239.8 127.495C238.299 127.394 236.811 127.148 235.357 126.759C234.696 126.557 234.062 126.383 233.48 126.144C233.194 126.031 232.913 125.938 232.65 125.82L231.904 125.478C231.435 125.271 231.013 125.009 230.647 124.826C230.464 124.722 230.29 124.638 230.135 124.544L229.727 124.281L229.15 123.92C229.089 123.875 229.023 123.838 228.953 123.808Z" fill="#263238"/>
<path d="M231.82 117.193C231.987 117.387 232.169 117.568 232.364 117.733C232.542 117.902 232.767 118.108 233.044 118.324C233.321 118.54 233.621 118.793 233.982 119.051C234.344 119.309 234.738 119.591 235.188 119.858C235.639 120.126 236.126 120.402 236.628 120.679C238.891 121.852 241.341 122.618 243.867 122.945C244.449 123.006 245.003 123.076 245.523 123.091C246.044 123.105 246.527 123.123 246.968 123.114C247.409 123.105 247.813 123.076 248.16 123.053C248.46 123.038 248.76 123.005 249.056 122.954C249.311 122.929 249.563 122.885 249.811 122.823C249.556 122.812 249.3 122.824 249.047 122.861C248.803 122.861 248.503 122.912 248.155 122.917C247.808 122.922 247.409 122.959 246.968 122.917C246.527 122.875 246.03 122.917 245.533 122.865C245.036 122.814 244.473 122.767 243.896 122.696C241.4 122.352 238.979 121.596 236.732 120.459C236.22 120.187 235.728 119.938 235.291 119.661C234.855 119.384 234.447 119.136 234.081 118.887C233.715 118.638 233.405 118.418 233.143 118.193C232.88 117.967 232.627 117.799 232.439 117.639C232.245 117.474 232.038 117.325 231.82 117.193Z" fill="#263238"/>
<path d="M259.865 83.3486C259.805 83.552 259.765 83.7611 259.748 83.9726C259.687 84.4417 259.612 84.9953 259.518 85.685C259.321 87.1769 259.049 89.1473 258.772 91.3147C258.495 93.4822 258.176 95.4619 257.961 96.9444C257.862 97.6294 257.782 98.2017 257.717 98.6568C257.679 98.8643 257.659 99.0746 257.656 99.2855C257.729 99.0867 257.781 98.8807 257.81 98.6709C257.895 98.2721 258.003 97.6904 258.134 96.9726C258.387 95.537 258.711 93.5478 259.016 91.3429C259.321 89.1379 259.551 87.1206 259.692 85.685C259.762 84.9578 259.814 84.3714 259.842 83.9632C259.866 83.7593 259.874 83.5538 259.865 83.3486Z" fill="#263238"/>
<path d="M226.101 79.5488C226.09 79.6282 226.09 79.7087 226.101 79.7881C226.101 79.9711 226.101 80.1963 226.138 80.4684C226.176 81.0595 226.241 81.918 226.331 82.9736C226.509 85.0847 226.8 87.9981 227.18 91.2118C227.56 94.4254 227.968 97.3106 228.287 99.4218C228.446 100.468 228.583 101.298 228.686 101.899C228.737 102.166 228.78 102.391 228.812 102.57C228.823 102.65 228.842 102.728 228.869 102.804C228.88 102.725 228.88 102.644 228.869 102.565C228.869 102.382 228.822 102.157 228.789 101.885C228.709 101.261 228.601 100.421 228.465 99.3983C228.188 97.2966 227.813 94.3926 227.428 91.1836C227.044 87.9747 226.734 85.0613 226.49 82.9548C226.378 81.9321 226.288 81.0782 226.218 80.4637C226.185 80.1916 226.157 79.9664 226.138 79.7834C226.136 79.7039 226.124 79.625 226.101 79.5488Z" fill="#263238"/>
<path d="M224.431 94.6553L237.853 102.743L241.32 101.768L257.233 98.6993L260.522 109.138L248 110.32L242.479 112.966L239.809 111.812L228.165 103.813L224.431 94.6553Z" fill="#407BFF"/>
<path d="M242.483 112.929C242.308 112.415 242.098 111.913 241.855 111.428C241.442 110.49 240.874 109.246 240.269 107.844C239.664 106.441 239.129 105.155 238.749 104.226C238.562 103.716 238.341 103.22 238.087 102.739C238.103 102.886 238.14 103.03 238.195 103.166C238.28 103.434 238.416 103.818 238.585 104.292C238.927 105.23 239.434 106.53 240.044 107.937C240.654 109.345 241.245 110.602 241.695 111.503C241.92 111.972 242.113 112.31 242.249 112.558C242.31 112.692 242.389 112.816 242.483 112.929Z" fill="#263238"/>
<path d="M242.859 105.286C242.756 104.682 242.571 104.095 242.31 103.541C242.123 102.959 241.861 102.404 241.531 101.89C241.635 102.492 241.819 103.077 242.08 103.63C242.268 104.213 242.53 104.77 242.859 105.286Z" fill="#263238"/>
<path d="M239.706 102.223C239.706 102.223 239.303 100.618 238.087 99.9942C236.872 99.3702 226.795 94.1299 226.795 94.1299L225.599 95.359L237.853 102.743L239.706 102.223Z" fill="#E0E0E0"/>
<path d="M255.849 98.967L253.808 97.9443C253.808 97.9443 248.029 97.3203 244.688 97.9443C241.348 98.5683 239.598 100.435 239.706 102.223L255.849 98.967Z" fill="#E0E0E0"/>
<path d="M232.162 103.279C233.2 103.723 234.028 104.55 234.475 105.587C235.277 107.365 235.807 108.256 236.788 108.871C237.768 109.485 238.299 109.936 239.453 109.401C240.607 108.866 242.483 107.121 243.37 106.98C243.896 106.896 244.078 107.712 244.078 107.712C244.078 107.712 246.387 106.173 247.189 106.455C247.991 106.736 247.278 107.355 246.72 107.979C246.389 108.368 246.093 108.784 245.833 109.223C245.659 109.152 247.438 107.477 248.535 107.815C248.626 107.831 248.712 107.866 248.788 107.918C248.864 107.97 248.928 108.037 248.976 108.116C249.023 108.195 249.053 108.283 249.064 108.374C249.075 108.466 249.066 108.558 249.037 108.646L247.7 109.631C247.7 109.631 248.409 110.902 247.789 111.17C247.17 111.437 242.718 114.547 241.742 114.547C240.766 114.547 236.319 115.35 234.452 114.904C232.584 114.458 230.501 113.82 230.501 113.82C230.501 113.82 223.159 111.437 220.94 108.594L227.607 104.503C227.607 104.503 232.05 110.283 232.298 109.664C232.687 108.614 232.78 107.478 232.566 106.38C232.34 105.057 231.393 102.847 232.162 103.279Z" fill="#9D6054"/>
<path d="M238.322 111.962C238.682 111.933 239.034 111.831 239.354 111.662C240.12 111.268 240.855 110.818 241.554 110.315C242.295 109.86 242.969 109.304 243.558 108.664C243.819 108.409 244 108.082 244.078 107.726C243.879 108.015 243.663 108.292 243.431 108.556C242.818 109.144 242.145 109.666 241.423 110.114C240.569 110.663 239.861 111.221 239.279 111.521C238.697 111.821 238.308 111.925 238.322 111.962Z" fill="#724A44"/>
<path d="M239.837 113.839C240.172 113.695 240.487 113.509 240.775 113.285C241.338 112.915 242.098 112.375 242.915 111.746C243.731 111.118 244.44 110.512 244.942 110.062C245.228 109.833 245.486 109.572 245.711 109.283C245.396 109.467 245.101 109.683 244.829 109.926L242.765 111.554L240.672 113.145C240.371 113.347 240.091 113.58 239.837 113.839Z" fill="#724A44"/>
<path d="M243.548 113.248C243.604 113.295 244.402 112.309 245.575 111.324C246.748 110.339 247.827 109.677 247.789 109.616C246.912 109.976 246.108 110.493 245.415 111.141C244.673 111.727 244.041 112.44 243.548 113.248Z" fill="#724A44"/>
<path d="M242.197 87.1121C242.231 87.0089 242.259 86.9039 242.281 86.7977C242.363 86.529 242.527 86.2927 242.751 86.1221C242.934 85.9896 243.151 85.91 243.376 85.8923C243.602 85.8745 243.828 85.9191 244.03 86.0214C244.232 86.1236 244.402 86.2794 244.522 86.4718C244.641 86.6642 244.705 86.8857 244.707 87.1121C244.705 87.3598 244.628 87.6009 244.486 87.8043C244.345 88.0076 244.146 88.1637 243.914 88.2522C243.722 88.3234 243.514 88.3465 243.311 88.3195C243.107 88.2925 242.913 88.2163 242.746 88.0974C242.523 87.9268 242.359 87.6905 242.277 87.4218C242.256 87.3168 242.227 87.2133 242.192 87.1121C242.192 87.1121 242.15 87.2294 242.192 87.4452C242.248 87.7562 242.415 88.0364 242.662 88.2334C242.848 88.3829 243.069 88.4824 243.305 88.5227C243.541 88.5629 243.783 88.5425 244.008 88.4633C244.288 88.3644 244.53 88.181 244.702 87.9386C244.873 87.6962 244.965 87.4066 244.965 87.1098C244.965 86.8129 244.873 86.5233 244.702 86.2809C244.53 86.0385 244.288 85.8551 244.008 85.7562C243.783 85.677 243.541 85.6566 243.305 85.6968C243.069 85.7371 242.848 85.8366 242.662 85.9861C242.415 86.1839 242.249 86.4637 242.192 86.7743C242.141 86.9901 242.183 87.1121 242.197 87.1121Z" fill="#263238"/>
<path d="M241.723 96.0629C241.723 96.0629 241.751 95.9457 241.812 95.7486C241.896 95.4818 242.06 95.2474 242.282 95.0777C242.422 94.9727 242.583 94.8991 242.754 94.8618C242.925 94.8245 243.103 94.8244 243.274 94.8614C243.445 94.8985 243.606 94.9718 243.747 95.0765C243.887 95.1813 244.004 95.3149 244.088 95.4684C244.172 95.622 244.223 95.7918 244.236 95.9665C244.249 96.1413 244.225 96.3167 244.164 96.4812C244.104 96.6456 244.009 96.7951 243.885 96.9197C243.762 97.0442 243.614 97.1408 243.45 97.203C243.257 97.2755 243.05 97.2992 242.846 97.2722C242.642 97.2452 242.448 97.1682 242.282 97.0482C242.06 96.8785 241.896 96.6441 241.812 96.3773C241.751 96.1802 241.747 96.0629 241.723 96.0629C241.694 96.172 241.694 96.287 241.723 96.3961C241.781 96.7063 241.947 96.9859 242.192 97.1843C242.379 97.3338 242.6 97.4333 242.836 97.4735C243.071 97.5137 243.313 97.4933 243.539 97.4142C243.819 97.3164 244.062 97.1338 244.234 96.8917C244.406 96.6496 244.499 96.3599 244.499 96.0629C244.499 95.766 244.406 95.4763 244.234 95.2342C244.062 94.9921 243.819 94.8095 243.539 94.7117C243.314 94.6319 243.072 94.6107 242.837 94.6501C242.601 94.6895 242.379 94.7882 242.192 94.9369C241.949 95.1367 241.783 95.4156 241.723 95.7251C241.694 95.8358 241.694 95.9523 241.723 96.0629Z" fill="#263238"/>
<path d="M240.846 117.273C240.881 117.172 240.911 117.069 240.935 116.964C241.015 116.694 241.18 116.457 241.404 116.288C241.571 116.169 241.764 116.093 241.967 116.066C242.17 116.039 242.376 116.062 242.568 116.133C242.8 116.22 243.001 116.376 243.143 116.581C243.284 116.785 243.36 117.027 243.36 117.276C243.36 117.524 243.284 117.767 243.143 117.971C243.001 118.175 242.8 118.331 242.568 118.418C242.376 118.489 242.17 118.512 241.967 118.485C241.764 118.459 241.571 118.382 241.404 118.263C241.18 118.093 241.016 117.857 240.935 117.588C240.869 117.395 240.865 117.273 240.846 117.273C240.827 117.273 240.804 117.395 240.846 117.611C240.903 117.922 241.07 118.201 241.315 118.399C241.502 118.549 241.723 118.648 241.959 118.689C242.194 118.729 242.436 118.708 242.662 118.629C242.942 118.53 243.184 118.347 243.355 118.105C243.527 117.862 243.619 117.573 243.619 117.276C243.619 116.979 243.527 116.689 243.355 116.447C243.184 116.204 242.942 116.021 242.662 115.922C242.436 115.843 242.194 115.823 241.959 115.863C241.723 115.903 241.502 116.003 241.315 116.152C241.069 116.35 240.902 116.63 240.846 116.94C240.804 117.156 240.832 117.278 240.846 117.273Z" fill="#263238"/>
<path d="M241.048 125.629C241.048 125.629 241.076 125.507 241.137 125.314C241.22 125.046 241.384 124.81 241.606 124.639C241.773 124.52 241.967 124.444 242.171 124.417C242.374 124.39 242.582 124.413 242.774 124.484C243.007 124.571 243.207 124.727 243.349 124.931C243.491 125.135 243.566 125.378 243.566 125.626C243.566 125.875 243.491 126.117 243.349 126.321C243.207 126.526 243.007 126.682 242.774 126.769C242.582 126.84 242.374 126.863 242.171 126.836C241.967 126.809 241.773 126.733 241.606 126.614C241.383 126.443 241.219 126.207 241.137 125.938C241.076 125.746 241.071 125.624 241.048 125.629C241.018 125.738 241.018 125.853 241.048 125.962C241.106 126.272 241.272 126.551 241.517 126.75C241.703 126.9 241.925 126.999 242.16 127.039C242.396 127.079 242.638 127.059 242.863 126.98C243.143 126.881 243.386 126.698 243.557 126.455C243.728 126.213 243.82 125.923 243.82 125.626C243.82 125.329 243.728 125.04 243.557 124.797C243.386 124.555 243.143 124.372 242.863 124.273C242.638 124.194 242.396 124.173 242.16 124.213C241.925 124.254 241.703 124.353 241.517 124.503C241.273 124.702 241.107 124.981 241.048 125.291C241.018 125.402 241.018 125.518 241.048 125.629Z" fill="#263238"/>
<path d="M252.908 50.1242C252.669 49.2696 252.263 48.4711 251.713 47.7751C251.163 47.0792 250.48 46.4998 249.703 46.0707C247.946 45.1871 245.935 44.9448 244.017 45.3858C242.119 45.8284 240.307 46.5779 238.65 47.6049C237.679 48.1053 236.81 48.7831 236.089 49.6034C234.85 51.161 234.681 53.2862 234.559 55.2707C234.466 56.8798 234.381 58.5547 235.061 60.0231C235.38 60.6919 235.843 61.2809 236.419 61.7468C236.995 62.2128 237.667 62.544 238.388 62.716" fill="#263238"/>
<path d="M235.46 58.1796C234.528 57.1015 233.821 55.8472 233.381 54.491C232.942 53.1347 232.78 51.7041 232.903 50.2839C232.993 49.3456 233.255 48.3229 233.987 47.7083C234.362 47.394 234.827 47.2063 235.212 46.9014C235.906 46.3478 236.248 45.447 236.905 44.8512C237.245 44.5446 237.658 44.3295 238.104 44.226C238.55 44.1226 239.016 44.1343 239.456 44.26C239.896 44.3857 240.298 44.6213 240.622 44.9447C240.946 45.268 241.183 45.6685 241.31 46.1085C241.658 47.3142 241.137 48.5809 240.63 49.7303L238.285 55.0504C238.023 55.7284 237.657 56.3615 237.201 56.927C236.971 57.2106 236.678 57.4373 236.346 57.5895C236.014 57.7417 235.652 57.8152 235.287 57.8043" fill="#263238"/>
<path d="M252.101 48.9232C253.509 50.4488 254.356 52.4083 254.503 54.4794C254.65 56.5505 254.087 58.6099 252.908 60.3187C251.917 55.9574 250.549 51.6908 248.817 47.5674" fill="#263238"/>
<path d="M253.794 54.8626C253.588 51.7006 251.481 47.8254 248.329 48.1632L241.038 50.0398C239.918 50.328 238.92 50.9672 238.19 51.8638C237.46 52.7603 237.036 53.8671 236.98 55.0221C236.98 55.1441 236.98 54.994 236.98 55.0878L237.449 72.9387L244.233 80.5952L248.887 73.436C248.887 71.8972 248.887 70.6681 248.887 70.6775C248.887 70.6868 252.931 69.9784 253.752 64.7053C254.16 62.0827 254.02 58.3765 253.794 54.8626Z" fill="#9D6054"/>
<path d="M246.546 53.2115C247.038 53.389 247.553 53.4948 248.075 53.5258C248.594 53.5994 249.12 53.5994 249.638 53.5258C249.638 53.4883 248.939 53.4883 248.09 53.3991C247.24 53.31 246.555 53.1739 246.546 53.2115Z" fill="#724A44"/>
<path d="M247.724 53.0238C248.343 53.2343 249.007 53.2764 249.647 53.1458C249.336 53.1041 249.023 53.0853 248.709 53.0895C248.383 53.0421 248.053 53.0201 247.724 53.0238Z" fill="#724A44"/>
<path d="M245.528 63.4669C245.566 63.4669 245.613 63.2558 245.824 63.1197C246.035 62.9837 246.246 63.0165 246.255 62.9837C246.265 62.9508 246.213 62.9321 246.115 62.918C245.987 62.9044 245.858 62.9378 245.753 63.0118C245.645 63.0833 245.564 63.189 245.523 63.3121C245.5 63.4012 245.514 63.4669 245.528 63.4669Z" fill="#724A44"/>
<path d="M251.843 58.9584C251.845 59.1344 251.779 59.3045 251.658 59.4324C251.537 59.5604 251.371 59.6361 251.195 59.6434C251.109 59.6504 251.022 59.6401 250.94 59.613C250.858 59.586 250.782 59.5428 250.717 59.4859C250.652 59.4291 250.599 59.3597 250.561 59.282C250.523 59.2043 250.501 59.1198 250.496 59.0334C250.494 58.8579 250.56 58.6883 250.681 58.5611C250.802 58.4339 250.968 58.3593 251.144 58.3531C251.23 58.3455 251.316 58.3552 251.398 58.3817C251.48 58.4082 251.556 58.4509 251.622 58.5074C251.687 58.5639 251.74 58.6329 251.778 58.7104C251.816 58.7879 251.838 58.8722 251.843 58.9584Z" fill="#263238"/>
<path d="M252.866 57.1001C252.781 57.1892 252.27 56.8092 251.542 56.8139C250.815 56.8186 250.28 57.1798 250.201 57.0954C250.121 57.0109 250.248 56.8936 250.477 56.7247C250.793 56.5064 251.168 56.3902 251.552 56.3916C251.931 56.3902 252.3 56.5084 252.608 56.7294C252.828 56.8983 252.908 57.0578 252.866 57.1001Z" fill="#263238"/>
<path d="M245.059 58.9578C245.062 59.1339 244.995 59.3039 244.874 59.4319C244.754 59.5598 244.587 59.6355 244.412 59.6428C244.325 59.6492 244.239 59.6384 244.157 59.6111C244.075 59.5839 244 59.5406 243.935 59.4839C243.87 59.4271 243.816 59.3581 243.778 59.2806C243.74 59.2032 243.718 59.119 243.712 59.0329C243.71 58.8573 243.776 58.6878 243.897 58.5606C244.018 58.4334 244.184 58.3587 244.36 58.3526C244.446 58.3442 244.533 58.3535 244.615 58.3797C244.698 58.406 244.774 58.4487 244.839 58.5053C244.905 58.5619 244.958 58.6312 244.996 58.709C245.033 58.7868 245.055 58.8714 245.059 58.9578Z" fill="#263238"/>
<path d="M245.716 57.2505C245.631 57.3396 245.115 56.9643 244.388 56.9643C243.661 56.9643 243.131 57.3349 243.051 57.2458C242.971 57.1566 243.093 57.0487 243.328 56.8751C243.643 56.6568 244.018 56.5406 244.402 56.542C244.779 56.5425 245.146 56.6606 245.453 56.8798C245.678 57.0534 245.753 57.2129 245.716 57.2505Z" fill="#263238"/>
<path d="M248.366 62.6417C248.749 62.5187 249.147 62.4462 249.549 62.4259C249.732 62.4259 249.91 62.3696 249.938 62.2429C249.955 62.0518 249.912 61.8602 249.816 61.694C249.638 61.2248 249.455 60.7556 249.263 60.2864C248.493 58.2737 247.939 56.6222 248.019 56.5894C248.099 56.5565 248.789 58.1658 249.558 60.1785C249.741 60.6759 249.919 61.1497 250.084 61.5861C250.203 61.8103 250.238 62.0701 250.182 62.318C250.155 62.3834 250.114 62.4419 250.061 62.489C250.008 62.5361 249.945 62.5707 249.877 62.5901C249.774 62.6165 249.669 62.6306 249.563 62.6323C249.166 62.6872 248.764 62.6904 248.366 62.6417Z" fill="#263238"/>
<path d="M241.897 68.7822C241.897 68.7822 243.609 72.4042 248.887 71.8975V70.6589C246.428 70.6941 244.008 70.0443 241.897 68.7822Z" fill="#724A44"/>
<path d="M248.061 64.4047C247.921 64.2328 247.739 64.0995 247.533 64.0174C247.327 63.9353 247.104 63.9071 246.884 63.9355C246.721 63.953 246.564 64.0036 246.422 64.0843C246.28 64.165 246.156 64.2741 246.058 64.4047C245.961 64.5257 245.905 64.6736 245.895 64.8282C245.886 64.9827 245.925 65.1363 246.006 65.268C246.121 65.3966 246.272 65.488 246.439 65.5306C246.606 65.5733 246.782 65.5651 246.945 65.5073C247.291 65.3856 247.609 65.1975 247.883 64.9536C247.965 64.895 248.035 64.8218 248.09 64.7378C248.116 64.6974 248.13 64.6501 248.13 64.6018C248.13 64.5534 248.116 64.5061 248.09 64.4657" fill="#724A44"/>
<path d="M246.227 63.1475C246.344 63.1475 246.349 63.9311 247.024 64.4894C247.7 65.0477 248.54 64.9585 248.549 65.0711C248.559 65.1838 248.362 65.226 248.005 65.2354C247.542 65.2433 247.092 65.0871 246.734 64.7943C246.389 64.5151 246.167 64.113 246.114 63.673C246.081 63.3399 246.171 63.1429 246.227 63.1475Z" fill="#263238"/>
<path d="M245.894 55.1205C245.824 55.3176 245.096 55.2284 244.242 55.3317C243.389 55.4349 242.699 55.6695 242.586 55.4912C242.535 55.4067 242.652 55.2238 242.933 55.022C243.303 54.7846 243.723 54.6354 244.16 54.5857C244.597 54.5361 245.039 54.5875 245.453 54.7358C245.763 54.8719 245.894 55.022 245.894 55.1205Z" fill="#263238"/>
<path d="M252.593 54.9937C252.467 55.1579 251.965 54.9937 251.36 54.9937C250.754 54.9937 250.248 55.1063 250.13 54.9327C250.079 54.8483 250.158 54.6841 250.379 54.5292C250.677 54.339 251.026 54.2426 251.38 54.2527C251.734 54.2627 252.076 54.3787 252.364 54.5855C252.579 54.745 252.65 54.9139 252.593 54.9937Z" fill="#263238"/>
<path d="M252.359 50.0447C252.173 49.6581 251.883 49.3308 251.522 49.0995C251.161 48.8683 250.742 48.7424 250.313 48.7358C249.45 48.7307 248.604 48.9768 247.879 49.4442C244.74 51.2598 242.976 54.8629 239.875 56.7394C239.074 57.135 238.318 57.6147 237.618 58.1703C236.971 58.7802 236.549 59.7607 236.91 60.577C236.465 60.0247 236.102 59.4117 235.831 58.7568C235.698 58.4277 235.638 58.0741 235.653 57.7197C235.668 57.3653 235.759 57.0182 235.92 56.7019C236.187 56.2328 236.661 55.8809 236.793 55.3602C236.924 54.8394 236.727 54.4219 236.746 53.9527C236.793 53.4745 236.954 53.0145 237.215 52.611C238.381 50.4173 240.123 48.5829 242.253 47.3049C243.659 46.4955 245.258 46.0821 246.879 46.1086C248.509 46.1474 250.072 46.7681 251.284 47.8585C251.974 48.506 252.692 49.1721 252.345 50.0494" fill="#263238"/>
<path d="M236.947 60.5904C236.947 60.5904 236.886 60.5201 236.783 60.3746C236.633 60.1667 236.519 59.9352 236.445 59.6897C236.202 58.764 236.305 57.781 236.736 56.9264C236.971 56.3775 237.309 55.8098 237.675 55.1859C238.035 54.5182 238.358 53.8306 238.641 53.1263C238.946 52.352 239.317 51.605 239.748 50.8932C240.223 50.1382 240.812 49.4609 241.493 48.8853C242.805 47.7561 244.408 47.0181 246.119 46.7554C247.512 46.5099 248.946 46.7034 250.224 47.3089C251.077 47.7369 251.769 48.4277 252.199 49.2794C252.31 49.5112 252.398 49.7531 252.462 50.0018C252.476 50.0916 252.5 50.1797 252.532 50.2646C252.535 50.2427 252.535 50.2207 252.532 50.1989C252.525 50.1311 252.514 50.0638 252.5 49.9971C252.443 49.7428 252.358 49.4957 252.246 49.2606C251.825 48.3863 251.13 47.6732 250.266 47.2292C248.975 46.5987 247.517 46.3918 246.1 46.6381C244.366 46.8986 242.739 47.6434 241.409 48.7868C240.717 49.3712 240.12 50.0597 239.64 50.8275C239.206 51.5458 238.835 52.3009 238.533 53.0841C238.258 53.7843 237.945 54.4687 237.595 55.1343C237.257 55.7582 236.924 56.3306 236.689 56.8936C236.256 57.7671 236.165 58.7715 236.436 59.7084C236.516 59.9581 236.64 60.1916 236.802 60.3981C236.846 60.4654 236.895 60.5296 236.947 60.5904Z" fill="#455A64"/>
<path d="M234.517 57.8374C234.523 57.7875 234.523 57.7371 234.517 57.6872C234.517 57.5747 234.517 57.4339 234.517 57.2556C234.517 56.885 234.489 56.3455 234.517 55.6793C234.535 54.9007 234.621 54.1251 234.775 53.3617C234.945 52.4244 235.33 51.5393 235.901 50.7767C236.507 50.0404 237.184 49.3661 237.923 48.7641C238.594 48.1871 239.213 47.6945 239.753 47.3051C240.292 46.9157 240.752 46.6248 241.071 46.4372L241.446 46.2214C241.492 46.1999 241.534 46.1731 241.573 46.1416C241.523 46.1526 241.476 46.1716 241.432 46.1979C241.343 46.2401 241.212 46.3058 241.048 46.3949C240.582 46.6456 240.133 46.9245 239.701 47.23C239.152 47.61 238.519 48.0979 237.848 48.6703C237.097 49.2741 236.41 49.9532 235.798 50.697C235.217 51.4744 234.826 52.3776 234.658 53.3336C234.507 54.1065 234.43 54.8919 234.428 55.6793C234.428 56.3502 234.428 56.8897 234.48 57.265C234.48 57.4527 234.508 57.5934 234.517 57.6919C234.512 57.7403 234.512 57.789 234.517 57.8374Z" fill="#455A64"/>
<path d="M236.83 45.0908C236.754 45.2817 236.705 45.4823 236.685 45.6867C236.609 46.1786 236.586 46.6771 236.614 47.1739C236.644 47.6694 236.727 48.1603 236.863 48.6378C236.907 48.8394 236.98 49.0338 237.079 49.2149C236.922 48.5396 236.811 47.8546 236.746 47.1646C236.726 46.4722 236.754 45.7793 236.83 45.0908Z" fill="#455A64"/>
<path d="M233.124 48.9932C233.149 49.1519 233.21 49.3028 233.302 49.4342C233.495 49.7674 233.755 50.0567 234.067 50.2834C234.378 50.5093 234.733 50.669 235.108 50.7526C235.26 50.7998 235.42 50.8142 235.578 50.7948C235.425 50.7396 235.268 50.6957 235.108 50.6634C234.394 50.4467 233.776 49.9933 233.354 49.3779C233.284 49.2458 233.207 49.1173 233.124 48.9932Z" fill="#455A64"/>
<path d="M232.861 52.5405C233.191 52.6879 233.552 52.7523 233.912 52.7282C234.273 52.7327 234.629 52.6473 234.949 52.4795C234.949 52.4373 234.48 52.5781 233.907 52.6015C233.335 52.625 232.87 52.4983 232.861 52.5405Z" fill="#455A64"/>
<path d="M235.155 61.7545C235.277 61.6888 235.216 61.3417 235.202 60.774C235.182 60.4573 235.219 60.1396 235.31 59.8357C235.337 59.7628 235.37 59.6922 235.409 59.6246C235.426 59.5916 235.447 59.5602 235.47 59.5308L235.554 59.4088C235.687 59.2292 235.832 59.0598 235.99 58.9021C236.121 58.7622 236.281 58.6532 236.46 58.5831C236.516 58.5831 236.53 58.5831 236.506 58.5831L236.689 58.6206L236.886 58.6676C237.147 58.732 237.399 58.8265 237.637 58.949C237.764 59.0147 237.886 59.0851 238.017 59.1648L238.111 59.2305L238.275 59.3244C238.383 59.3841 238.494 59.4374 238.608 59.4839C239.078 59.6761 239.584 59.7611 240.091 59.7325C240.399 59.7151 240.701 59.6403 240.982 59.512L241.095 59.451L241.184 59.3994C241.246 59.3657 241.305 59.3281 241.362 59.2868C241.477 59.2068 241.587 59.119 241.691 59.0241C242.064 58.6706 242.371 58.2527 242.596 57.7902C242.807 57.3727 242.967 56.9646 243.121 56.5939C243.677 55.2426 244.441 53.9871 245.387 52.8736C246.168 51.9556 247.054 51.1335 248.029 50.4247C248.661 49.9299 249.361 49.5285 250.107 49.2331C250.632 49.036 250.975 48.9844 250.998 48.8437C251.022 48.7029 250.684 48.5012 249.994 48.4824C249.053 48.5183 248.134 48.7806 247.316 49.2471C246.105 49.8701 245.005 50.688 244.06 51.6679C242.89 52.8757 241.961 54.2961 241.325 55.8527C241.16 56.2515 241.02 56.6127 240.855 56.9176C240.737 57.1782 240.579 57.4188 240.386 57.6307C240.346 57.6709 240.304 57.7085 240.26 57.7433C240.24 57.7601 240.218 57.7743 240.194 57.7856H240.161C240.094 57.8212 240.021 57.8435 239.945 57.8512C239.711 57.874 239.475 57.8485 239.251 57.7762L239.096 57.7152L239.026 57.6823L238.894 57.612C238.715 57.5156 238.53 57.4295 238.341 57.3539C237.973 57.2072 237.588 57.1049 237.196 57.049L236.924 57.0162H236.793H236.643C236.351 57.0022 236.061 57.0722 235.807 57.2179C235.472 57.4125 235.184 57.6784 234.963 57.9967C234.783 58.2394 234.626 58.4986 234.494 58.7708C234.466 58.8364 234.438 58.8881 234.409 58.9678C234.376 59.0418 234.349 59.1188 234.33 59.1977C234.286 59.3379 234.259 59.4828 234.25 59.6293C234.222 60.0691 234.297 60.5094 234.47 60.9148C234.738 61.5903 235.043 61.8108 235.155 61.7545Z" fill="#263238"/>
<path d="M237.693 58.8226C237.642 58.6724 234.878 57.6778 234.878 60.6007C234.841 63.4439 237.693 62.8856 237.693 62.8012C237.693 62.7167 237.693 58.8226 237.693 58.8226Z" fill="#9D6054"/>
<path d="M236.821 61.7174C236.821 61.7174 236.774 61.7503 236.689 61.7878C236.57 61.8356 236.438 61.8356 236.319 61.7878C236.136 61.6704 235.988 61.5063 235.89 61.3125C235.791 61.1186 235.747 60.9021 235.76 60.6852C235.758 60.4415 235.808 60.2 235.906 59.9768C235.934 59.8889 235.983 59.8091 236.048 59.7438C236.114 59.6785 236.193 59.6297 236.281 59.6014C236.339 59.5864 236.399 59.5923 236.453 59.6181C236.506 59.6439 236.548 59.6879 236.572 59.7422C236.61 59.822 236.572 59.8783 236.61 59.8829C236.647 59.8876 236.671 59.836 236.647 59.7187C236.634 59.6482 236.596 59.5848 236.539 59.5405C236.501 59.5099 236.456 59.4876 236.409 59.4747C236.361 59.4618 236.311 59.4586 236.262 59.4654C236.146 59.487 236.037 59.538 235.946 59.6135C235.855 59.6891 235.784 59.7866 235.742 59.897C235.62 60.1434 235.559 60.4152 235.563 60.6899C235.547 60.943 235.606 61.1952 235.733 61.4148C235.86 61.6343 236.049 61.8115 236.277 61.9239C236.355 61.949 236.438 61.9557 236.519 61.9435C236.601 61.9313 236.678 61.9005 236.746 61.8535C236.816 61.7878 236.83 61.7221 236.821 61.7174Z" fill="#724A44"/>
<path d="M235.507 58.7751C235.541 58.7081 235.581 58.6438 235.624 58.5827C235.755 58.4104 235.932 58.2799 236.136 58.2074C236.458 58.0946 236.803 58.064 237.14 58.1183C237.586 58.2112 238.016 58.3693 238.416 58.5874C238.911 58.8563 239.466 58.9967 240.03 58.9956C240.683 58.92 241.283 58.5998 241.709 58.0995C242.168 57.5485 242.509 56.91 242.713 56.2229C242.953 55.5286 243.182 54.8155 243.45 54.0883C243.944 52.7214 244.704 51.4664 245.688 50.3961C246.501 49.5337 247.542 48.9189 248.69 48.6228C249.13 48.5083 249.582 48.45 250.037 48.4492C250.379 48.4542 250.72 48.4951 251.055 48.5712C251.604 48.7072 251.88 48.862 251.89 48.8433L251.838 48.8151L251.683 48.7447C251.486 48.6507 251.28 48.5768 251.069 48.5242C250.732 48.4343 250.385 48.3855 250.037 48.3788C249.577 48.3704 249.118 48.4224 248.671 48.5336C247.498 48.8203 246.432 49.4373 245.598 50.3117C244.597 51.3973 243.825 52.6738 243.328 54.0648C243.042 54.7826 242.826 55.5145 242.596 56.2041C242.394 56.8709 242.063 57.4911 241.62 58.0291C241.215 58.5091 240.644 58.819 240.02 58.897C239.473 58.9005 238.933 58.7683 238.449 58.5123C238.04 58.3002 237.602 58.15 237.149 58.0666C236.801 58.0141 236.446 58.0529 236.117 58.1792C235.908 58.258 235.729 58.4008 235.606 58.5874C235.572 58.6334 235.545 58.6839 235.526 58.7375C235.507 58.7751 235.502 58.7751 235.507 58.7751Z" fill="#455A64"/>
<path d="M236.568 57.3676C236.627 57.3417 236.683 57.3103 236.736 57.2738C236.844 57.2034 237.013 57.1096 237.206 56.9688C237.764 56.5556 238.277 56.0838 238.735 55.5614C239.404 54.7846 240.031 53.9717 240.612 53.1265C241.311 52.0903 242.096 51.1142 242.957 50.2085C243.417 49.7553 243.925 49.3541 244.473 49.0121C244.984 48.6991 245.533 48.4502 246.105 48.2709C247.075 47.9582 248.096 47.8325 249.112 47.9003C249.799 47.9435 250.477 48.076 251.13 48.2944C251.36 48.3647 251.533 48.4445 251.655 48.4914C251.714 48.5188 251.775 48.5408 251.838 48.5571C251.785 48.5192 251.726 48.4892 251.665 48.4679C251.496 48.3831 251.322 48.3095 251.144 48.2474C250.494 48.0058 249.813 47.8588 249.122 47.8111C248.091 47.7277 247.054 47.8456 246.068 48.1583C245.485 48.3349 244.926 48.5856 244.407 48.9042C243.851 49.2496 243.335 49.6555 242.868 50.1146C242.003 51.0257 241.218 52.0099 240.522 53.0562C239.95 53.9021 239.335 54.718 238.679 55.5004C238.228 56.018 237.726 56.4895 237.182 56.9078C236.99 57.058 236.826 57.1565 236.713 57.2316C236.66 57.2722 236.612 57.3177 236.568 57.3676Z" fill="#455A64"/>
<path d="M236.511 62.2187C236.371 62.1923 236.227 62.2201 236.107 62.2964C235.987 62.3728 235.901 62.492 235.866 62.6297C235.831 62.7674 235.85 62.9133 235.919 63.0376C235.987 63.1619 236.101 63.2554 236.236 63.2988C236.372 63.3423 236.518 63.3326 236.647 63.2716C236.775 63.2107 236.875 63.1031 236.927 62.9707C236.979 62.8384 236.978 62.6913 236.925 62.5594C236.872 62.4276 236.771 62.3208 236.642 62.261" fill="white"/>
<path d="M236.633 62.2609C236.753 62.3604 236.841 62.4924 236.886 62.6409C236.908 62.7183 236.91 62.7998 236.891 62.8779C236.872 62.9559 236.833 63.0278 236.778 63.0867C236.713 63.1583 236.628 63.2105 236.535 63.2378C236.442 63.2651 236.342 63.2663 236.248 63.2415C236.157 63.2072 236.077 63.1491 236.016 63.0731C235.955 62.9972 235.915 62.9063 235.901 62.8098C235.893 62.7303 235.903 62.6499 235.933 62.5755C235.962 62.5011 236.009 62.435 236.07 62.3829C236.193 62.2842 236.344 62.2267 236.502 62.2187C236.46 62.1949 236.413 62.1835 236.366 62.1858C236.238 62.1892 236.114 62.2336 236.014 62.3125C235.935 62.3709 235.872 62.4486 235.832 62.5381C235.792 62.6277 235.775 62.7261 235.784 62.8239C235.792 62.9465 235.837 63.0638 235.913 63.1604C235.988 63.2571 236.092 63.3286 236.209 63.3656C236.326 63.4026 236.451 63.4034 236.569 63.3679C236.687 63.3323 236.791 63.2621 236.868 63.1664C236.931 63.0918 236.974 63.0021 236.993 62.906C237.012 62.8099 237.006 62.7106 236.976 62.6175C236.938 62.4953 236.862 62.3884 236.76 62.3125C236.685 62.2609 236.633 62.2562 236.633 62.2609Z" fill="#263238"/>
</svg>
