<svg width="61" height="34" viewBox="0 0 61 34" fill="none" xmlns="http://www.w3.org/2000/svg">
<path d="M0.365838 25.4258C0.366297 27.3769 1.10422 29.2556 2.43168 30.6854C3.75913 32.1153 5.578 32.9905 7.52362 33.1356H51.2895C53.6242 33.1329 55.8682 32.2317 57.5562 30.619C59.2442 29.0062 60.2468 26.8056 60.3559 24.4735C60.4649 22.1414 59.6722 19.8569 58.1421 18.0936C56.612 16.3302 54.462 15.2235 52.1378 15.0029C52.0238 11.4531 50.6787 8.05354 48.333 5.38678C45.9874 2.72003 42.7872 0.95218 39.2809 0.386241C35.7747 -0.179698 32.1809 0.491515 29.1153 2.28484C26.0497 4.07816 23.7033 6.88192 22.4783 10.2156C21.1365 9.54503 19.6496 9.2171 18.1503 9.26102C16.651 9.30494 15.1858 9.71935 13.8856 10.4673C12.5854 11.2152 11.4906 12.2733 10.6988 13.5473C9.907 14.8213 9.44291 16.2714 9.34793 17.7684C8.93331 17.6983 8.5135 17.6633 8.09299 17.6638C7.07552 17.6646 6.06821 17.8661 5.12878 18.2569C4.18934 18.6477 3.33626 19.22 2.61842 19.9411C1.90058 20.6622 1.3321 21.5178 0.94556 22.459C0.559017 23.4002 0.362016 24.4084 0.365838 25.4258Z" fill="#407BFF"/>
<path fill-rule="evenodd" clip-rule="evenodd" d="M26.4232 19.9297H23.71L30.3739 13.2832L37.0379 19.9297H34.3246V26.7098H26.4232V19.9297Z" fill="white"/>
</svg>
