<svg width="400" height="225" viewBox="0 0 400 225" fill="none" xmlns="http://www.w3.org/2000/svg">
  <path fill="#fff" d="M331.76 150.93h-99.38v63.4h99.38v-63.4Z"/>
  <path fill="#EBEBEB" d="M332.39 214.96H231.75V150.3h100.64v64.66Zm-99.38-1.26h98.17v-62.14h-98.17v62.14Z"/>
  <path fill="#263238" d="M331.76 150.93h-99.38v11.99h99.38v-11.99Z"/>
  <path fill="#EBEBEB" d="M332.39 163.55H231.75V150.3h100.64v13.25Zm-99.38-1.26h98.17v-10.73h-98.17v10.73Z"/>
  <path fill="#A6A6A6"
        d="M243.64 157.01c0 .593-.176 1.173-.505 1.667-.33.493-.799.878-1.347 1.105-.548.227-1.151.286-1.733.17-.582-.115-1.117-.401-1.536-.821-.42-.419-.705-.954-.821-1.536-.116-.582-.057-1.185.17-1.733.228-.548.612-1.017 1.105-1.346.494-.33 1.074-.506 1.667-.506.796 0 1.559.316 2.121.879.563.562.879 1.325.879 2.121Z"/>
  <path fill="#EBEBEB"
        d="M255.96 157.01c0 .593-.176 1.173-.505 1.667-.33.493-.799.878-1.347 1.105-.548.227-1.151.286-1.733.17-.582-.115-1.117-.401-1.536-.821-.42-.419-.705-.954-.821-1.536-.116-.582-.056-1.185.171-1.733s.611-1.017 1.105-1.346c.493-.33 1.073-.506 1.666-.506.796 0 1.559.316 2.122.879.562.562.878 1.325.878 2.121Z"/>
  <path fill="#fff"
        d="M268.28 157.01c0 .593-.176 1.173-.506 1.667-.329.493-.798.878-1.346 1.105-.548.227-1.151.286-1.733.17-.582-.115-1.117-.401-1.536-.821-.42-.419-.706-.954-.821-1.536-.116-.582-.057-1.185.17-1.733s.612-1.017 1.105-1.346c.494-.33 1.074-.506 1.667-.506.796 0 1.559.316 2.121.879.563.562.879 1.325.879 2.121Z"/>
  <path fill="#EBEBEB"
        d="M250.94 186.63c.066-3.205 1.385-6.257 3.675-8.501 2.291-2.243 5.369-3.5 8.575-3.499 2.792-.02 5.51.895 7.72 2.6.377.324.62.778.681 1.271.061.494-.064.993-.351 1.399-.319.383-.769.634-1.263.702-.494.069-.996-.05-1.407-.332-1.52-1.24-3.428-1.906-5.39-1.88-2.232.018-4.375.879-6 2.41-1.551 1.537-2.428 3.627-2.44 5.81 0 1.082.215 2.153.634 3.151.419.998 1.033 1.902 1.806 2.659 1.626 1.529 3.769 2.386 6 2.4 1.953.033 3.857-.618 5.38-1.84.411-.282.913-.401 1.407-.332.494.068.944.319 1.263.702.287.406.412.905.351 1.399-.061.493-.304.947-.681 1.271-2.209 1.708-4.927 2.627-7.72 2.61-3.207.008-6.289-1.246-8.579-3.491-2.291-2.246-3.606-5.302-3.661-8.509Zm32.02 2.1h-4.78c-.252.019-.506-.015-.745-.099-.238-.084-.457-.216-.643-.388-.185-.172-.333-.381-.434-.613-.101-.232-.153-.482-.153-.735s.052-.503.153-.735c.101-.232.249-.441.434-.613.186-.172.405-.305.643-.388.239-.084.493-.118.745-.099h4.74v-4.67c0-.504.2-.987.557-1.344.356-.356.839-.556 1.343-.556s.987.2 1.344.556c.356.357.556.84.556 1.344v4.64h4.75c.463.034.897.242 1.213.583.316.34.492.787.492 1.252 0 .465-.176.912-.492 1.252-.316.341-.75.549-1.213.583h-4.75v4.69c0 .504-.2.987-.556 1.343-.357.357-.84.557-1.344.557-.504 0-.987-.2-1.343-.557-.357-.356-.557-.839-.557-1.343l.04-4.66Zm20.7 0h-4.74c-.252.019-.506-.015-.744-.099-.239-.083-.458-.216-.644-.388-.185-.172-.333-.381-.434-.613-.101-.232-.153-.482-.153-.735s.052-.503.153-.735c.101-.232.249-.441.434-.613.186-.172.405-.304.644-.388.238-.084.492-.118.744-.099h4.74v-4.67c-.004-.251.042-.5.136-.733.094-.233.234-.445.411-.623.177-.178.388-.319.621-.414.232-.095.481-.143.732-.14.507 0 .993.201 1.351.56.358.358.559.844.559 1.35v4.64h4.71c.463.034.897.243 1.213.583.316.34.492.788.492 1.252 0 .465-.176.912-.492 1.252-.316.341-.75.549-1.213.583h-4.74v4.69c0 .251-.049.499-.145.731-.096.232-.237.442-.414.62-.178.177-.388.318-.62.414-.232.096-.48.145-.731.145-.251.003-.5-.045-.732-.14-.233-.095-.444-.236-.621-.414s-.317-.39-.411-.623c-.094-.232-.14-.482-.136-.733l.03-4.66Z"/>
  <path fill="#fff" d="M285.41 29.1201H119.67V165.23h165.74V29.1201Z"/>
  <path fill="#EBEBEB" d="M286.04 165.87h-167V28.5h167v137.37Zm-165.74-1.26h164.48V29.75H120.3v134.86Z"/>
  <path fill="#263238" d="M285.41 29.1201H119.67v11.99h165.74v-11.99Z"/>
  <path fill="#EBEBEB" d="M286.04 41.74h-167V28.5h167v13.24ZM120.3 40.48h164.48V29.75H120.3v10.73Z"/>
  <path fill="#A6A6A6"
        d="M130.92 35.21c0 .5933-.176 1.1733-.505 1.6667-.33.4933-.799.8778-1.347 1.1049-.548.2271-1.151.2865-1.733.1707-.582-.1157-1.117-.4015-1.536-.821-.42-.4196-.705-.9541-.821-1.5361-.116-.5819-.057-1.1851.171-1.7333.227-.5482.611-1.0167 1.104-1.3463.494-.3297 1.074-.5056 1.667-.5056.796 0 1.559.316 2.121.8786.563.5626.879 1.3257.879 2.1214Z"/>
  <path fill="#EBEBEB"
        d="M143.24 35.21c0 .5933-.176 1.1733-.506 1.6667-.329.4933-.798.8778-1.346 1.1049-.548.2271-1.151.2865-1.733.1707-.582-.1157-1.117-.4015-1.536-.821-.42-.4196-.706-.9541-.821-1.5361-.116-.5819-.057-1.1851.17-1.7333s.612-1.0167 1.105-1.3463c.494-.3297 1.074-.5056 1.667-.5056.796 0 1.559.316 2.121.8786.563.5626.879 1.3257.879 2.1214Z"/>
  <path fill="#fff"
        d="M155.57 35.21c0 .5933-.176 1.1733-.506 1.6667-.329.4933-.798.8778-1.346 1.1049-.548.2271-1.151.2865-1.733.1707-.582-.1157-1.117-.4015-1.536-.821-.42-.4196-.706-.9541-.821-1.5361-.116-.5819-.057-1.1851.17-1.7333s.612-1.0167 1.105-1.3463c.494-.3297 1.074-.5056 1.667-.5056.796 0 1.559.316 2.121.8786.563.5626.879 1.3257.879 2.1214Z"/>
  <path fill="#EBEBEB" d="M138.94 64.96h-6.41v2.34h6.41v-2.34Zm78.2 0h-73.53v2.34h73.53v-2.34Z"/>
  <path fill="#CACACA" d="M233.25 64.96h-12.17v2.34h12.17v-2.34Z"/>
  <path fill="#EBEBEB" d="M261.1 96.29h-12.18v2.3401h12.18V96.29Z"/>
  <path fill="#A6A6A6" d="M256.95 64.96H235.9v2.34h21.05v-2.34Z"/>
  <path fill="#EBEBEB" d="M145.35 71.23h-6.41v2.34h6.41v-2.34Z"/>
  <path fill="#A6A6A6"
        d="M198.11 71.23h-48.25v2.34h48.25v-2.34Zm47.92 25.06h-28.25v2.3401h28.25V96.29Zm-56.33-6.26h-46.09v2.34h46.09v-2.34Z"/>
  <path fill="#CACACA" d="M182.19 77.49h-32.33v2.34h32.33v-2.34Z"/>
  <path fill="#A6A6A6" d="M237.41 77.49h-51.63v2.34h51.63v-2.34Z"/>
  <path fill="#CACACA" d="M205.24 96.29h-61.63v2.3401h61.63V96.29Zm62.7-25.06h-33.4v2.34h33.4v-2.34Z"/>
  <path fill="#EBEBEB"
        d="M231.89 71.23h-30.75v2.34h30.75v-2.34Zm28.7 6.26h-20.75v2.34h20.75v-2.34Zm-115.24 0h-6.41v2.34h6.41v-2.34Z"/>
  <path fill="#A6A6A6" d="M138.94 83.76h-6.41v2.34h6.41v-2.34Z"/>
  <path fill="#EBEBEB"
        d="M181.49 83.76h-37.88v2.34h37.88v-2.34Zm6.25 18.8h-37.88v2.34h37.88v-2.34Zm29.45 6.27h-33.07v2.34h33.07v-2.34Z"/>
  <path fill="#A6A6A6" d="M160.83 108.83h-10.97v2.34h10.97v-2.34Z"/>
  <path fill="#EBEBEB" d="M233.25 90.03h-40.94v2.34h40.94v-2.34Z"/>
  <path fill="#CACACA" d="M261.95 90.03H235.9v2.34h26.05v-2.34Z"/>
  <path fill="#EBEBEB" d="M138.94 90.03h-6.41v2.34h6.41v-2.34Zm0 6.26h-6.41v2.3401h6.41V96.29Z"/>
  <path fill="#A6A6A6" d="M145.35 102.56h-6.41v2.34h6.41v-2.34Z"/>
  <path fill="#EBEBEB"
        d="M145.35 108.83h-6.41v2.34h6.41v-2.34Zm-6.41 5.24h-6.41v2.34h6.41v-2.34Zm78.2 0h-73.53v2.34h73.53v-2.34Zm-71.79 6.27h-6.41v2.34h6.41v-2.34Z"/>
  <path fill="#A6A6A6" d="M198.11 120.34h-48.25v2.34h48.25v-2.34Zm-8.41 18.8h-46.09v2.34h46.09v-2.34Z"/>
  <path fill="#CACACA" d="M182.19 126.61h-32.33v2.34h32.33v-2.34Z"/>
  <path fill="#A6A6A6" d="M237.41 126.61h-51.63v2.34h51.63v-2.34Z"/>
  <path fill="#CACACA" d="M205.24 145.4h-61.63v2.34h61.63v-2.34Zm62.7-25.06h-33.4v2.34h33.4v-2.34Z"/>
  <path fill="#EBEBEB"
        d="M231.89 120.34h-30.75v2.34h30.75v-2.34Zm28.7 6.27h-20.75v2.34h20.75v-2.34Zm-115.24 0h-6.41v2.34h6.41v-2.34Z"/>
  <path fill="#A6A6A6" d="M138.94 132.87h-6.41v2.34h6.41v-2.34Z"/>
  <path fill="#EBEBEB" d="M181.49 132.87h-37.88v2.34h37.88v-2.34Zm51.76 6.27h-40.94v2.34h40.94v-2.34Z"/>
  <path fill="#CACACA" d="M226.23 132.87h-40.89v2.34h40.89v-2.34Z"/>
  <path fill="#EBEBEB" d="M138.94 139.14h-6.41v2.34h6.41v-2.34Z"/>
  <path fill="#CACACA"
        d="M136.49 58.8001c.104.105.163.247.163.395 0 .1481-.059.2901-.163.395-.106.1021-.248.1591-.395.1591-.147 0-.289-.057-.395-.1591l-2.47-2.51c-.005-.0162-.005-.0337 0-.05-.004-.0231-.004-.0468 0-.07a.1515.1515 0 0 1 0-.06v-.18c-.004-.0231-.004-.0468 0-.07v-.08c.012-.0266.033-.048.06-.06l2.47-2.51c.106-.102.248-.159.395-.159.147 0 .289.057.395.159.105.105.163.247.163.395 0 .1481-.058.2901-.163.395l-2.08 2.1 2.02 1.91Zm2.24.2799 2.16-5.13c.024-.0584.06-.1115.105-.1562.045-.0447.098-.0801.156-.1043.059-.0241.121-.0365.185-.0364.063.0001.126.0126.184.0369.059.0243.112.0599.156.1047.045.0448.08.098.105.1565.024.0585.036.1211.036.1844 0 .0633-.013.126-.037.1844l-2.16 5.14c-.039.0868-.102.1604-.182.2119-.08.0515-.173.0786-.268.0781-.056.014-.114.014-.17 0-.065-.0211-.126-.0564-.176-.1034-.051-.0469-.09-.1044-.116-.1683-.026-.064-.037-.1328-.033-.2016.004-.0688.022-.136.055-.1967Zm7.3-2.0699c-.014.0248-.035.0454-.06.06l-2.47 2.5101c-.109.1002-.251.1571-.4.16-.146-.0016-.285-.0588-.39-.16-.104-.105-.163-.247-.163-.395 0-.1481.059-.2901.163-.3951l2.08-2.11-2.08-2.0999c-.104-.105-.163-.247-.163-.395 0-.1481.059-.2901.163-.3951.106-.102.248-.159.395-.159.147 0 .289.057.395.159l2.47 2.5101c.027.012.048.0333.06.06.02.0242.037.0512.05.08-.004.0265-.004.0534 0 .08v.1799c-.002.0267-.002.0534 0 .0801l-.05.2299Z"/>
  <path fill="#016CDE" d="M304.31 10.04h-67.7v25.07h67.7V10.04Z"/>
  <path fill="#fff"
        d="M246.38 27.77V16.65c0-.2652.105-.5196.293-.7071s.442-.2929.707-.2929c.136-.0082.273.0116.401.0582.129.0466.246.1189.345.2126.1.0937.179.2067.233.3321.054.1254.081.2606.081.3971v4.52h4.88v-4.52c0-.2652.105-.5196.293-.7071s.442-.2929.707-.2929c.136-.0082.273.0116.401.0582.129.0466.246.1189.345.2126.1.0937.179.2067.233.3321.054.1254.081.2606.081.3971v11.12c0 .1365-.027.2717-.081.3971-.054.1254-.133.2384-.233.3321-.099.0937-.216.166-.345.2126-.128.0466-.265.0664-.401.0582-.265 0-.519-.1054-.707-.2929-.188-.1875-.293-.4419-.293-.7071v-4.52h-4.88v4.52c0 .1365-.027.2717-.081.3971-.054.1254-.133.2384-.233.3321-.099.0937-.216.166-.345.2126-.128.0466-.265.0664-.401.0582-.265 0-.519-.1054-.707-.2929-.188-.1875-.293-.4419-.293-.7071Zm21.42-10.0599h-3v10.06c0 .2759-.11.5404-.305.7354-.195.1951-.459.3046-.735.3046-.276 0-.54-.1095-.735-.3046-.195-.195-.305-.4595-.305-.7354v-10.06h-3c-.136.0003-.272-.0274-.397-.0814-.125-.0539-.238-.133-.332-.2323-.094-.0993-.166-.2168-.213-.3451-.046-.1284-.066-.2649-.058-.4012 0-.2652.105-.5195.293-.7071.187-.1875.442-.2929.707-.2929h8c.265 0 .52.1054.707.2929.188.1876.293.4419.293.7071.002.2585-.09.5089-.259.7041-.17.1952-.405.3218-.661.3559Zm15.49-1.06V27.77c-.018.2698-.137.5229-.333.7084-.197.1855-.457.2897-.727.2916-.265 0-.52-.1053-.707-.2928-.188-.1876-.293-.4419-.293-.7072v-7.93l-2.72 3.7701c-.094.1352-.22.2453-.366.3203-.147.075-.309.1127-.474.1097-.168.0011-.335-.0372-.486-.1118-.151-.0747-.283-.1837-.384-.3182l-2.69-3.7701v7.93c0 .2772-.11.543-.306.739-.196.196-.462.3061-.739.3061-.277 0-.543-.1101-.739-.3061-.196-.196-.306-.4618-.306-.739V16.6501c0-.2653.105-.5196.293-.7072.187-.1875.442-.2928.707-.2928h.06c.163-.0014.324.0371.468.112.145.0749.269.1841.362.318l3.75 5.1999 3.75-5.1999c.095-.1368.222-.2477.371-.3228.148-.075.313-.1119.479-.1072.265.0093.517.1168.708.3016.19.1848.305.4336.322.6984Zm4.56 11.1198v-11.12c0-.2652.106-.5195.293-.7071.188-.1875.442-.2929.707-.2929.136-.0067.271.0141.398.0613s.244.1198.342.2133c.098.0936.176.2061.23.3308.053.1247.08.259.08.3946v10.06h5.11c.279 0 .546.1107.743.3076.197.1969.307.464.307.7424 0 .2785-.11.5456-.307.7425-.197.1969-.464.3075-.743.3075h-6.16c-.135.0001-.268-.027-.392-.0797-.124-.0528-.236-.13-.329-.2272-.094-.0971-.167-.2121-.215-.3381-.047-.126-.069-.2603-.064-.395Z"/>
  <path fill="#016CDE" d="M123.4 105.8H67.6101v25.07H123.4V105.8Z"/>
  <path fill="#fff"
        d="M84.18 119.45h-2.29v4.09c0 .277-.1101.543-.306.739-.196.196-.4618.306-.739.306-.2771 0-.5429-.11-.7389-.306-.196-.196-.3061-.462-.3061-.739v-11.15c0-.265.1054-.519.2929-.707.1876-.188.4419-.293.7071-.293h3.38c1.0689 0 2.0939.425 2.8497 1.18.7558.756 1.1803 1.781 1.1803 2.85 0 1.069-.4245 2.094-1.1803 2.85-.7558.756-1.7808 1.18-2.8497 1.18Zm-2.29-2.06h2.29c.5146 0 1.008-.204 1.3718-.568.3639-.364.5682-.857.5682-1.372 0-.514-.2043-1.008-.5682-1.372-.3638-.363-.8572-.568-1.3718-.568h-2.29v3.88Zm8.89 6.15v-11.15c0-.265.1054-.52.2929-.707.1876-.188.4419-.293.7071-.293.2652 0 .5196.105.7071.293.1876.187.2929.442.2929.707v4.52h4.88v-4.52c0-.265.1054-.52.2929-.707.1876-.188.4419-.293.7071-.293.1363-.008.2728.012.4012.058.1283.047.2457.119.345.213.0994.093.1784.207.2324.332.054.125.0817.26.0814.397v11.12c.0003.137-.0274.272-.0814.397s-.133.238-.2324.332c-.0993.094-.2167.166-.345.213-.1284.046-.2649.066-.4012.058-.2652 0-.5195-.105-.7071-.293-.1875-.187-.2929-.442-.2929-.707v-4.52h-4.79v4.52c0 .265-.1053.52-.2929.707-.1875.188-.4419.293-.7071.293-.1362.012-.2735-.003-.4033-.046-.1299-.043-.2496-.112-.3518-.203-.1022-.091-.1846-.202-.2422-.326-.0576-.124-.0891-.258-.0927-.395Zm17.77-4.09h-2.32v4.09c0 .277-.11.543-.306.739-.196.196-.462.306-.739.306-.277 0-.543-.11-.739-.306-.196-.196-.306-.462-.306-.739v-11.15c0-.265.105-.519.293-.707.188-.188.442-.293.707-.293h3.37c1.069 0 2.094.425 2.85 1.18.756.756 1.18 1.781 1.18 2.85 0 1.069-.424 2.094-1.18 2.85-.756.756-1.781 1.18-2.85 1.18h.04Zm-2.32-2.06h2.32c.515 0 1.008-.204 1.372-.568.364-.364.568-.857.568-1.372 0-.514-.204-1.008-.568-1.372-.364-.363-.857-.568-1.372-.568h-2.32v3.88Z"/>
  <path fill="#263238"
        d="m287.85 104.17 4.23 10.22-4.23 1.75-4.25-10.29-6.99 5.42V82.48l20.16 20.36-8.92 1.33Zm-11.24-24.78c-.177-.4627-.265-.9546-.26-1.45-.011-.4959.077-.9889.26-1.45.18.4617.265.9548.25 1.45.009.4948-.076.9868-.25 1.45Zm-2.5 1.0001c-.448-.2038-.855-.4885-1.2-.84-.36-.3411-.646-.7531-.84-1.21.451.2034.859.492 1.2.85.36.3374.646.7461.84 1.2Zm-1.03 2.4698c-.932.3463-1.958.3463-2.89 0 .935-.3334 1.956-.3334 2.89 0Zm1.03 2.5302c-.194.4539-.48.8626-.84 1.2-.341.358-.749.6467-1.2.85.194-.4569.48-.8688.84-1.21.345-.3514.752-.6362 1.2-.84Zm6.07-2.53c.938-.3333 1.962-.3333 2.9 0-.935.347-1.964.347-2.9 0Zm-1.08-2.47c.201-.45.486-.8573.84-1.2.343-.3604.755-.6493 1.21-.85-.424.8888-1.151 1.5977-2.05 2v.05Z"/>
</svg>
