<svg width="305" height="171" viewBox="0 0 305 171" fill="none" xmlns="http://www.w3.org/2000/svg">
<path d="M126.953 143.098H108.507C106.402 143.098 104.383 142.261 102.895 140.773C101.406 139.284 100.57 137.266 100.57 135.161V125.64H126.953C129.058 125.64 131.076 126.476 132.565 127.965C134.053 129.453 134.89 131.472 134.89 133.577V135.161C134.89 137.266 134.053 139.284 132.565 140.773C131.076 142.261 129.058 143.098 126.953 143.098Z" fill="#F5F5F5"/>
<path d="M122.352 136.149C123.335 136.149 124.132 135.352 124.132 134.369C124.132 133.387 123.335 132.59 122.352 132.59C121.369 132.59 120.573 133.387 120.573 134.369C120.573 135.352 121.369 136.149 122.352 136.149Z" fill="#263238"/>
<path d="M116.907 136.149C117.89 136.149 118.687 135.352 118.687 134.369C118.687 133.387 117.89 132.59 116.907 132.59C115.924 132.59 115.128 133.387 115.128 134.369C115.128 135.352 115.924 136.149 116.907 136.149Z" fill="#263238"/>
<path d="M111.639 136.149C112.622 136.149 113.419 135.352 113.419 134.369C113.419 133.387 112.622 132.59 111.639 132.59C110.657 132.59 109.86 133.387 109.86 134.369C109.86 135.352 110.657 136.149 111.639 136.149Z" fill="#263238"/>
<path d="M68.3414 11.541H64.889C55.3309 11.541 47.5825 19.2894 47.5825 28.8475V32.2999C47.5825 41.858 55.3309 49.6064 64.889 49.6064H68.3414C77.8995 49.6064 85.6479 41.858 85.6479 32.2999V28.8475C85.6479 19.2894 77.8995 11.541 68.3414 11.541Z" fill="#EBEBEB"/>
<path d="M52.975 43.8411C56.9198 42.3383 61.0563 41.3978 65.2631 41.0471C75.6559 40.5133 80.7099 43.3606 80.7099 43.3606C80.7099 43.3606 75.8605 49.8828 65.5389 49.6337C56.7922 49.3845 52.975 43.8411 52.975 43.8411Z" fill="#263238"/>
<path d="M67.8526 48.6982C66.4653 48.67 65.1409 48.1142 64.149 47.1438C63.1572 46.1734 62.5724 44.8615 62.5139 43.4751C62.4249 41.3663 62.3537 39.4355 62.3537 39.4355C62.3537 39.4355 57.9047 38.9639 57.6734 34.5861C57.442 30.2083 57.6734 20.1269 57.6734 20.1269C60.1101 18.9353 62.8207 18.4158 65.5254 18.6223C68.23 18.8288 70.8304 19.7537 73.0579 21.3015L73.7253 21.7731L73.4049 43.3328C73.3945 44.0502 73.2424 44.7585 72.9574 45.4169C72.6724 46.0754 72.26 46.6711 71.7441 47.1697C71.2281 47.6682 70.6187 48.06 69.9509 48.3223C69.2831 48.5846 68.57 48.7124 67.8526 48.6982Z" fill="#FFBE9D"/>
<path d="M62.3267 39.3729C64.3515 39.3107 66.312 38.6479 67.9591 37.4688C67.9591 37.4688 66.7579 40.6898 62.3712 40.503L62.3267 39.3729Z" fill="#EB996E"/>
<path d="M73.3956 26.3389C73.4757 26.3389 76.3586 25.2978 76.412 28.2965C76.4654 31.2951 73.4401 30.7256 73.4401 30.6366C73.4401 30.5476 73.3956 26.3389 73.3956 26.3389Z" fill="#FFBE9D"/>
<path d="M74.3301 29.4873C74.3301 29.4873 74.3835 29.4873 74.4724 29.5585C74.5981 29.609 74.7383 29.609 74.8639 29.5585C75.0557 29.4315 75.2103 29.2558 75.3119 29.0494C75.4135 28.8431 75.4585 28.6134 75.4423 28.384C75.4504 28.1255 75.3954 27.869 75.2822 27.6365C75.2526 27.5435 75.2006 27.4591 75.1308 27.3909C75.0609 27.3226 74.9754 27.2725 74.8817 27.245C74.8215 27.2296 74.7578 27.2364 74.7022 27.2642C74.6467 27.292 74.603 27.3389 74.5792 27.3963C74.5792 27.4764 74.5792 27.5387 74.5792 27.5476C74.5792 27.5565 74.5169 27.4942 74.5792 27.3696C74.5952 27.2959 74.6361 27.23 74.6949 27.1828C74.7784 27.1185 74.8839 27.0897 74.9885 27.1027C75.1113 27.1255 75.2264 27.1791 75.3229 27.2584C75.4193 27.3378 75.4941 27.4403 75.5402 27.5565C75.6714 27.8124 75.7385 28.0964 75.7359 28.384C75.7551 28.6515 75.6943 28.9188 75.5612 29.1517C75.4281 29.3846 75.2288 29.5726 74.9885 29.692C74.9099 29.7182 74.8261 29.7254 74.7442 29.713C74.6622 29.7007 74.5843 29.669 74.5169 29.6208C74.339 29.5585 74.3212 29.4962 74.3301 29.4873Z" fill="#EB996E"/>
<path d="M59.7555 27.3443C59.7553 27.5073 59.8182 27.6641 59.931 27.7818C60.0437 27.8996 60.1976 27.9692 60.3605 27.9761C60.44 27.9821 60.5199 27.9724 60.5957 27.9475C60.6714 27.9226 60.7415 27.8829 60.8019 27.8308C60.8622 27.7787 60.9117 27.7152 60.9474 27.6439C60.9831 27.5727 61.0044 27.495 61.0101 27.4155C61.0102 27.2525 60.9473 27.0957 60.8346 26.9779C60.7218 26.8602 60.5679 26.7906 60.405 26.7837C60.3253 26.7764 60.2449 26.7853 60.1686 26.8097C60.0924 26.8342 60.0218 26.8738 59.9612 26.9261C59.9006 26.9784 59.8511 27.0424 59.8158 27.1143C59.7804 27.1861 59.7599 27.2643 59.7555 27.3443Z" fill="#263238"/>
<path d="M58.9988 26.1155C59.07 26.1956 59.5505 25.8486 60.2179 25.8486C60.8852 25.8486 61.3835 26.1867 61.4636 26.1066C61.5436 26.0265 61.4191 25.9197 61.2055 25.7685C60.9137 25.5638 60.5654 25.4549 60.2089 25.4571C59.8574 25.46 59.5154 25.572 59.2302 25.7774C59.0255 25.9376 58.9543 26.0799 58.9988 26.1155Z" fill="#263238"/>
<path d="M66.2239 27.4227C66.2237 27.5858 66.2866 27.7425 66.3994 27.8603C66.5121 27.978 66.6661 28.0476 66.8289 28.0545C66.9087 28.0605 66.9888 28.0505 67.0646 28.0249C67.1404 27.9993 67.2102 27.9587 67.27 27.9056C67.3298 27.8525 67.3783 27.7879 67.4125 27.7156C67.4468 27.6434 67.4662 27.5649 67.4696 27.485C67.4721 27.3228 67.4111 27.1661 67.2998 27.0481C67.1885 26.9301 67.0355 26.8602 66.8734 26.8533C66.7932 26.8472 66.7126 26.8572 66.6363 26.8827C66.56 26.9082 66.4896 26.9486 66.4291 27.0017C66.3686 27.0547 66.3193 27.1192 66.2841 27.1915C66.2488 27.2638 66.2284 27.3424 66.2239 27.4227Z" fill="#263238"/>
<path d="M65.6188 26.2405C65.69 26.3295 66.1705 25.9736 66.8378 25.9736C67.5052 25.9736 68.0124 26.3117 68.0835 26.2316C68.1547 26.1515 68.039 26.0447 67.8255 25.8935C67.5337 25.6888 67.1854 25.5799 66.8289 25.5821C66.4798 25.5833 66.1402 25.6955 65.8591 25.9024C65.6455 26.0626 65.5743 26.2049 65.6188 26.2405Z" fill="#263238"/>
<path d="M63.1725 31.2416C62.8188 31.1247 62.4503 31.0588 62.0781 31.0458C61.909 31.0458 61.7399 30.9924 61.7132 30.8767C61.7037 30.6974 61.7437 30.5188 61.8289 30.3607L62.3361 29.0527C62.8095 27.9432 63.1934 26.7977 63.4839 25.627C62.9199 26.6946 62.4466 27.8078 62.0692 28.9548C61.8912 29.4175 61.731 29.8446 61.5798 30.2717C61.4684 30.4786 61.4368 30.7192 61.4908 30.9479C61.5153 31.0089 61.5539 31.0632 61.6034 31.1065C61.6529 31.1498 61.7118 31.1808 61.7755 31.1971C61.8684 31.2229 61.9639 31.2379 62.0603 31.2416C62.4296 31.2868 62.8031 31.2868 63.1725 31.2416Z" fill="#263238"/>
<path d="M65.1826 31.7031C65.0669 31.7031 65.0669 32.4328 64.4441 32.9488C63.8212 33.4649 63.0382 33.3848 63.0382 33.4916C63.0382 33.5984 63.2072 33.634 63.5365 33.6429C63.9632 33.6446 64.3777 33.5001 64.711 33.2336C65.0321 32.9726 65.2368 32.5951 65.2804 32.1836C65.2893 31.8811 65.1826 31.7031 65.1826 31.7031Z" fill="#263238"/>
<path d="M65.4413 23.6073C65.5125 23.7853 66.1798 23.7052 66.9718 23.7941C67.7637 23.8831 68.4043 24.1056 68.5022 23.9454C68.6001 23.7853 68.4399 23.6963 68.1819 23.5183C67.8405 23.2941 67.4495 23.1567 67.0429 23.1179C66.6398 23.0692 66.2309 23.118 65.8506 23.2603C65.557 23.3759 65.4146 23.5183 65.4413 23.6073Z" fill="#263238"/>
<path d="M59.239 24.1677C59.3635 24.319 59.8262 24.1677 60.3868 24.1677C60.9474 24.1677 61.4101 24.2656 61.5258 24.1054C61.6414 23.9453 61.5257 23.8741 61.2855 23.7317C61.0083 23.5601 60.6869 23.4736 60.361 23.4831C60.0351 23.4926 59.7192 23.5976 59.4525 23.7851C59.2568 23.9364 59.1945 24.0788 59.239 24.1677Z" fill="#263238"/>
<path d="M55.3952 17.2355C55.3619 16.9629 55.3992 16.6863 55.5036 16.4324C55.608 16.1784 55.776 15.9555 55.9914 15.7851C56.2123 15.6244 56.4833 15.5478 56.7556 15.569C57.028 15.5902 57.2839 15.7078 57.4773 15.9008C57.4361 15.7177 57.4338 15.528 57.4704 15.3439C57.5071 15.1598 57.5819 14.9854 57.69 14.832C57.7982 14.6786 57.9372 14.5496 58.0983 14.4532C58.2594 14.3568 58.4388 14.2952 58.6251 14.2725C59.3459 14.2725 59.9509 14.7708 60.645 14.9576C61.3342 15.1039 62.0523 15.0227 62.6915 14.7263C63.3411 14.4593 63.9461 14.1034 64.6046 13.8365C65.9913 13.3294 67.5223 13.3909 68.8639 14.0075C70.2056 14.6242 71.2492 15.7461 71.7674 17.1287C72.2609 17.002 72.7813 17.0295 73.2586 17.2077C73.7359 17.3859 74.1471 17.7062 74.4368 18.1253C74.9925 18.9734 75.2144 19.9972 75.0597 20.9993C74.9651 21.6709 74.7981 22.3302 74.5614 22.9658V23.1882C74.5169 25.5996 74.241 28.4291 73.2178 28.4469C71.4382 28.4469 71.8564 25.0924 71.8564 25.0924C69.6497 24.2026 70.4683 20.9459 69.9255 20.4476C69.3827 19.9494 68.226 18.7926 63.6169 21.1417C61.9045 21.9131 59.9908 22.1188 58.1536 21.7289H58.0379H57.9756C57.5586 21.6182 57.16 21.4473 56.7922 21.2218C56.3623 20.9755 56.0225 20.5983 55.8223 20.1451C55.7254 19.9159 55.6973 19.6634 55.7416 19.4184C55.7858 19.1735 55.9005 18.9468 56.0714 18.7659C55.6925 18.3384 55.4561 17.8035 55.3952 17.2355Z" fill="#263238"/>
<path d="M100.597 15.9727H190.306C194.554 15.9727 198.628 17.6601 201.631 20.6637C204.635 23.6674 206.322 27.7412 206.322 31.989V35.1833C206.322 39.4311 204.635 43.5049 201.631 46.5086C198.628 49.5122 194.554 51.1996 190.306 51.1996H116.587C112.339 51.1996 108.265 49.5122 105.261 46.5086C102.258 43.5049 100.57 39.4311 100.57 35.1833V15.9727H100.597Z" fill="#F5F5F5"/>
<path d="M187.895 27.6378C187.895 27.7713 171.736 27.8781 151.804 27.8781C131.873 27.8781 115.705 27.7713 115.705 27.6378C115.705 27.5043 131.864 27.3887 151.804 27.3887C171.745 27.3887 187.895 27.4954 187.895 27.6378Z" fill="#263238"/>
<path d="M187.895 33.5195C187.895 33.653 171.736 33.7598 151.804 33.7598C131.873 33.7598 115.705 33.653 115.705 33.5195C115.705 33.3861 131.864 33.2793 151.804 33.2793C171.745 33.2793 187.895 33.3861 187.895 33.5195Z" fill="#263238"/>
<path d="M157.935 38.9922C157.935 39.1257 148.486 39.2324 136.82 39.2324C125.155 39.2324 115.705 39.1257 115.705 38.9922C115.705 38.8587 125.155 38.752 136.82 38.752C148.486 38.752 157.935 38.8587 157.935 38.9922Z" fill="#263238"/>
<path d="M68.3414 121.359H64.889C55.3309 121.359 47.5825 129.108 47.5825 138.666V142.118C47.5825 151.676 55.3309 159.425 64.889 159.425H68.3414C77.8995 159.425 85.6479 151.676 85.6479 142.118V138.666C85.6479 129.108 77.8995 121.359 68.3414 121.359Z" fill="#EBEBEB"/>
<path d="M52.9749 153.659C56.9197 152.157 61.0563 151.216 65.263 150.866C75.6558 150.332 80.7099 153.179 80.7099 153.179C80.7099 153.179 75.8605 159.701 65.5388 159.452C56.7922 159.203 52.9749 153.659 52.9749 153.659Z" fill="#263238"/>
<path d="M67.8526 158.517C66.4653 158.488 65.1408 157.933 64.149 156.962C63.1571 155.992 62.5724 154.68 62.5138 153.293C62.4248 151.185 62.3536 149.254 62.3536 149.254C62.3536 149.254 57.9047 148.782 57.6733 144.404C57.442 140.027 57.6733 129.945 57.6733 129.945C60.11 128.754 62.8207 128.234 65.5253 128.441C68.2299 128.647 70.8303 129.572 73.0579 131.12L73.7252 131.591L73.4049 153.151C73.3945 153.869 73.2424 154.577 72.9574 155.235C72.6723 155.894 72.26 156.489 71.744 156.988C71.2281 157.487 70.6187 157.878 69.9508 158.141C69.283 158.403 68.5699 158.531 67.8526 158.517Z" fill="#FFBE9D"/>
<path d="M62.3267 149.191C64.3514 149.129 66.3119 148.466 67.959 147.287C67.959 147.287 66.7578 150.508 62.3711 150.321L62.3267 149.191Z" fill="#EB996E"/>
<path d="M73.3955 136.157C73.4756 136.157 76.3585 135.116 76.4119 138.115C76.4653 141.113 73.44 140.544 73.44 140.455C73.44 140.366 73.3955 136.157 73.3955 136.157Z" fill="#FFBE9D"/>
<path d="M74.33 139.308C74.33 139.308 74.3834 139.308 74.4724 139.379C74.598 139.429 74.7383 139.429 74.8639 139.379C75.0556 139.252 75.2102 139.076 75.3119 138.87C75.4135 138.663 75.4585 138.434 75.4422 138.204C75.4503 137.946 75.3954 137.689 75.2821 137.457C75.2525 137.364 75.2005 137.279 75.1307 137.211C75.0609 137.143 74.9754 137.093 74.8817 137.065C74.8215 137.05 74.7578 137.057 74.7022 137.085C74.6466 137.112 74.6029 137.159 74.5791 137.217C74.5791 137.297 74.5791 137.359 74.5791 137.368C74.5791 137.377 74.5169 137.314 74.5791 137.19C74.5952 137.116 74.636 137.05 74.6948 137.003C74.7783 136.939 74.8838 136.91 74.9884 136.923C75.1113 136.946 75.2263 136.999 75.3228 137.079C75.4193 137.158 75.4941 137.261 75.5401 137.377C75.6713 137.633 75.7384 137.917 75.7359 138.204C75.755 138.472 75.6942 138.739 75.5611 138.972C75.428 139.205 75.2287 139.393 74.9884 139.512C74.9098 139.539 74.8261 139.546 74.7441 139.533C74.6621 139.521 74.5843 139.489 74.5169 139.441C74.3389 139.379 74.3211 139.317 74.33 139.308Z" fill="#EB996E"/>
<path d="M59.7554 137.163C59.7553 137.326 59.8181 137.482 59.9309 137.6C60.0437 137.718 60.1976 137.788 60.3605 137.794C60.44 137.8 60.5199 137.791 60.5956 137.766C60.6714 137.741 60.7414 137.701 60.8018 137.649C60.8622 137.597 60.9116 137.534 60.9474 137.462C60.9831 137.391 61.0044 137.313 61.01 137.234C61.0102 137.071 60.9473 136.914 60.8345 136.796C60.7218 136.679 60.5679 136.609 60.405 136.602C60.3252 136.595 60.2448 136.604 60.1686 136.628C60.0923 136.653 60.0218 136.692 59.9612 136.744C59.9005 136.797 59.8511 136.861 59.8157 136.933C59.7804 137.004 59.7599 137.083 59.7554 137.163Z" fill="#263238"/>
<path d="M58.9988 135.934C59.0699 136.014 59.5504 135.667 60.2178 135.667C60.8851 135.667 61.3834 136.005 61.4635 135.925C61.5436 135.845 61.419 135.738 61.2055 135.587C60.9136 135.382 60.5653 135.273 60.2089 135.275C59.8574 135.278 59.5154 135.39 59.2301 135.596C59.0255 135.756 58.9543 135.898 58.9988 135.934Z" fill="#263238"/>
<path d="M66.2238 137.241C66.2237 137.404 66.2866 137.561 66.3993 137.679C66.5121 137.796 66.666 137.866 66.8289 137.873C66.9086 137.879 66.9888 137.869 67.0646 137.843C67.1403 137.818 67.2102 137.777 67.27 137.724C67.3297 137.671 67.3782 137.606 67.4125 137.534C67.4468 137.462 67.4662 137.383 67.4695 137.303C67.472 137.141 67.4111 136.984 67.2997 136.866C67.1884 136.748 67.0354 136.679 66.8734 136.672C66.7932 136.666 66.7126 136.676 66.6363 136.701C66.56 136.727 66.4895 136.767 66.4291 136.82C66.3686 136.873 66.3193 136.938 66.284 137.01C66.2488 137.082 66.2283 137.161 66.2238 137.241Z" fill="#263238"/>
<path d="M65.6187 136.059C65.6899 136.148 66.1704 135.792 66.8377 135.792C67.5051 135.792 68.0123 136.13 68.0835 136.05C68.1547 135.97 68.039 135.863 67.8254 135.712C67.5336 135.507 67.1853 135.398 66.8289 135.4C66.4798 135.402 66.1401 135.514 65.859 135.721C65.6454 135.881 65.5742 136.023 65.6187 136.059Z" fill="#263238"/>
<path d="M63.1724 141.06C62.8188 140.943 62.4503 140.877 62.078 140.864C61.9089 140.864 61.7399 140.811 61.7132 140.695C61.7037 140.516 61.7437 140.337 61.8289 140.179L62.336 138.871C62.8095 137.762 63.1933 136.616 63.4839 135.445C62.9198 136.513 62.4466 137.626 62.0691 138.773C61.8911 139.236 61.731 139.663 61.5797 140.09C61.4684 140.297 61.4367 140.538 61.4907 140.766C61.5153 140.827 61.5539 140.882 61.6033 140.925C61.6528 140.968 61.7118 140.999 61.7755 141.015C61.8683 141.041 61.9639 141.056 62.0602 141.06C62.4296 141.105 62.8031 141.105 63.1724 141.06Z" fill="#263238"/>
<path d="M65.1825 141.521C65.0668 141.521 65.0669 142.251 64.444 142.767C63.8211 143.283 63.0381 143.203 63.0381 143.31C63.0381 143.417 63.2072 143.452 63.5364 143.461C63.9632 143.463 64.3777 143.318 64.7109 143.052C65.032 142.791 65.2367 142.413 65.2804 142.002C65.2893 141.699 65.1825 141.521 65.1825 141.521Z" fill="#263238"/>
<path d="M65.4413 133.426C65.5124 133.604 66.1798 133.524 66.9717 133.612C67.7636 133.701 68.4043 133.924 68.5022 133.764C68.6 133.604 68.4399 133.515 68.1818 133.337C67.8404 133.112 67.4495 132.975 67.0429 132.936C66.6398 132.888 66.2309 132.936 65.8506 133.079C65.5569 133.194 65.4146 133.337 65.4413 133.426Z" fill="#263238"/>
<path d="M59.2389 133.986C59.3635 134.137 59.8262 133.986 60.3867 133.986C60.9473 133.986 61.41 134.084 61.5257 133.924C61.6414 133.764 61.5257 133.692 61.2854 133.55C61.0083 133.378 60.6868 133.292 60.3609 133.301C60.0351 133.311 59.7192 133.416 59.4525 133.603C59.2567 133.755 59.1944 133.897 59.2389 133.986Z" fill="#263238"/>
<path d="M55.3951 127.054C55.3618 126.781 55.3992 126.505 55.5036 126.251C55.608 125.997 55.7759 125.774 55.9913 125.603C56.2122 125.443 56.4832 125.366 56.7556 125.387C57.028 125.409 57.2839 125.526 57.4773 125.719C57.4361 125.536 57.4337 125.346 57.4704 125.162C57.507 124.978 57.5818 124.804 57.69 124.65C57.7981 124.497 57.9372 124.368 58.0982 124.272C58.2593 124.175 58.4388 124.114 58.6251 124.091C59.3458 124.091 59.9509 124.589 60.6449 124.776C61.3342 124.922 62.0523 124.841 62.6915 124.545C63.341 124.278 63.9461 123.922 64.6045 123.655C65.9913 123.148 67.5222 123.209 68.8639 123.826C70.2055 124.443 71.2491 125.564 71.7673 126.947C72.2608 126.82 72.7813 126.848 73.2586 127.026C73.7359 127.204 74.1471 127.525 74.4367 127.944C74.9924 128.792 75.2143 129.816 75.0596 130.818C74.9651 131.489 74.798 132.149 74.5613 132.784V133.007C74.5168 135.418 74.241 138.247 73.2177 138.265C71.4381 138.265 71.8563 134.911 71.8563 134.911C69.6496 134.021 70.4682 130.764 69.9255 130.266C69.3827 129.768 68.226 128.611 63.6168 130.96C61.9044 131.731 59.9907 131.937 58.1535 131.547H58.0378H57.9755C57.5586 131.437 57.1599 131.266 56.7921 131.04C56.3623 130.794 56.0224 130.417 55.8222 129.963C55.7253 129.734 55.6973 129.482 55.7415 129.237C55.7858 128.992 55.9004 128.765 56.0714 128.584C55.6925 128.157 55.4561 127.622 55.3951 127.054Z" fill="#263238"/>
<path d="M240.611 54.3203H237.158C227.6 54.3203 219.852 62.0687 219.852 71.6268V75.0792C219.852 84.6373 227.6 92.3857 237.158 92.3857H240.611C250.169 92.3857 257.917 84.6373 257.917 75.0792V71.6268C257.917 62.0687 250.169 54.3203 240.611 54.3203Z" fill="#EBEBEB"/>
<path d="M224.799 86.149C228.66 84.7326 232.72 83.9367 236.829 83.791C242.871 83.791 252.41 86.7451 252.41 86.7451C252.41 86.7451 247.071 92.9737 236.829 92.3775C228.1 91.8525 224.799 86.149 224.799 86.149Z" fill="#455A64"/>
<path d="M229.791 60.666C228.376 61.4935 228.011 63.3354 227.869 64.9904C227.726 66.6454 227.477 68.4784 226.143 69.4394C225.048 70.2313 223.304 70.3292 222.85 71.6105C222.742 71.9096 222.729 72.235 222.814 72.5417C222.898 72.8485 223.075 73.1216 223.321 73.3235C223.567 73.5254 223.869 73.6462 224.186 73.6693C224.504 73.6924 224.82 73.6166 225.093 73.4524C224.801 73.9291 224.667 74.4852 224.709 75.0423C224.75 75.5994 224.965 76.1294 225.324 76.5577C225.514 76.7588 225.747 76.9129 226.007 77.0079C226.266 77.1029 226.544 77.1362 226.819 77.1051C227.093 77.074 227.357 76.9794 227.589 76.8288C227.82 76.6782 228.014 76.4757 228.154 76.2374C228.09 76.4034 228.059 76.5802 228.064 76.7578C228.069 76.9355 228.108 77.1105 228.181 77.2729C228.253 77.4352 228.357 77.5818 228.485 77.7041C228.614 77.8264 228.766 77.9222 228.932 77.9859C229.098 78.0496 229.275 78.0799 229.453 78.0753C229.63 78.0706 229.805 78.031 229.968 77.9587C230.13 77.8864 230.276 77.7828 230.399 77.6539C230.521 77.525 230.617 77.3732 230.681 77.2073" fill="#263238"/>
<path d="M246.724 74.972C246.766 75.1831 246.85 75.3837 246.971 75.5622C247.091 75.7407 247.246 75.8935 247.426 76.0119C247.606 76.1302 247.807 76.2116 248.019 76.2515C248.23 76.2914 248.448 76.2889 248.659 76.2441C248.869 76.1994 249.069 76.1134 249.246 75.991C249.423 75.8686 249.574 75.7122 249.691 75.531C249.807 75.3498 249.886 75.1474 249.924 74.9353C249.961 74.7233 249.956 74.5059 249.909 74.2958C249.74 73.6284 249.162 73.0679 249.224 72.3827C249.287 71.6976 250.23 71.137 251.004 70.9235C251.778 70.7099 252.783 70.4074 252.979 69.6155C253.175 68.8236 252.614 68.1117 252.089 67.48C251.564 66.8482 251.2 65.9317 251.671 65.3C251.92 64.9796 252.347 64.8462 252.65 64.5792C252.963 64.2487 253.137 63.8109 253.137 63.3558C253.137 62.9006 252.963 62.4628 252.65 62.1323C252.326 61.8145 251.94 61.5667 251.516 61.4045C251.092 61.2422 250.639 61.1689 250.185 61.1891C249.291 61.2422 248.4 61.3432 247.516 61.4916C246.028 61.6403 244.526 61.4799 243.104 61.0206C241.681 60.5612 240.369 59.8128 239.25 58.8223" fill="#263238"/>
<path d="M229.8 67.036L230.431 85.5259C230.458 86.2996 230.637 87.0604 230.958 87.7647C231.28 88.4689 231.737 89.1026 232.305 89.6294C232.872 90.1561 233.538 90.5655 234.264 90.834C234.99 91.1025 235.762 91.2248 236.535 91.1939C238.001 91.1333 239.392 90.5262 240.432 89.492C241.473 88.4578 242.089 87.0715 242.159 85.606C242.239 83.9866 242.301 82.643 242.301 82.643C242.301 82.643 246.982 82.1002 247.222 77.4466C247.338 75.1954 247.222 70.5506 247.035 66.3419C246.943 64.1628 246.034 62.0982 244.489 60.5584C242.945 59.0186 240.877 58.1165 238.698 58.0312H238.253C237.102 58.0527 235.967 58.3043 234.915 58.7714C233.863 59.2385 232.915 59.9115 232.127 60.7507C231.339 61.59 230.727 62.5785 230.328 63.6579C229.928 64.7374 229.748 65.886 229.8 67.036Z" fill="#EB996E"/>
<path d="M242.31 82.5728C240.158 82.5296 238.068 81.8482 236.304 80.6152C236.304 80.6152 237.612 84.0142 242.274 83.7829L242.31 82.5728Z" fill="#AA6550"/>
<path d="M245.06 69.4116C245.055 69.5847 244.982 69.7489 244.858 69.8689C244.733 69.9888 244.566 70.0547 244.392 70.0523C244.307 70.0571 244.222 70.0446 244.142 70.0155C244.062 69.9865 243.988 69.9416 243.926 69.8834C243.863 69.8252 243.813 69.7549 243.779 69.6769C243.744 69.5989 243.726 69.5147 243.725 69.4294C243.734 69.2569 243.808 69.0943 243.931 68.9738C244.055 68.8534 244.22 68.7841 244.392 68.7799C244.478 68.7763 244.563 68.7899 244.644 68.8199C244.724 68.85 244.797 68.8958 244.86 68.9547C244.922 69.0136 244.972 69.0844 245.006 69.1629C245.04 69.2413 245.059 69.3259 245.06 69.4116Z" fill="#263238"/>
<path d="M245.95 68.5841C245.861 68.6731 245.38 68.2727 244.66 68.246C243.939 68.2193 243.405 68.5574 243.334 68.4684C243.263 68.3795 243.387 68.2727 243.619 68.1214C243.935 67.9156 244.309 67.8159 244.686 67.8367C245.059 67.8469 245.418 67.9781 245.71 68.2104C245.95 68.3883 245.95 68.5218 245.95 68.5841Z" fill="#263238"/>
<path d="M238.164 69.2163C238.159 69.3894 238.086 69.5536 237.962 69.6735C237.837 69.7934 237.669 69.8593 237.496 69.8569C237.411 69.8618 237.326 69.8493 237.246 69.8202C237.166 69.7912 237.092 69.7462 237.03 69.688C236.967 69.6298 236.917 69.5596 236.883 69.4816C236.848 69.4036 236.83 69.3194 236.829 69.2341C236.838 69.0616 236.912 68.8989 237.035 68.7785C237.159 68.6581 237.324 68.5888 237.496 68.5845C237.582 68.581 237.667 68.5946 237.748 68.6246C237.828 68.6547 237.901 68.7005 237.964 68.7594C238.026 68.8183 238.076 68.8891 238.11 68.9676C238.144 69.046 238.163 69.1306 238.164 69.2163Z" fill="#263238"/>
<path d="M238.902 68.4415C238.813 68.5216 238.324 68.1301 237.612 68.1034C236.9 68.0767 236.357 68.4148 236.286 68.3259C236.215 68.2369 236.34 68.1301 236.571 67.9789C236.888 67.773 237.262 67.6733 237.639 67.6941C238.011 67.7043 238.371 67.8355 238.662 68.0678C238.876 68.2458 238.947 68.4059 238.902 68.4415Z" fill="#263238"/>
<path d="M241.287 73.8603C241.67 73.7567 242.065 73.6999 242.462 73.6912C242.649 73.6912 242.818 73.6912 242.853 73.5311C242.879 73.3443 242.845 73.1543 242.755 72.9883C242.595 72.5345 242.435 72.0985 242.266 71.5735C241.814 70.3724 241.457 69.1378 241.198 67.8809C241.747 69.0289 242.202 70.2191 242.56 71.44C242.72 71.9383 242.88 72.4099 243.022 72.8637C243.129 73.0885 243.154 73.3432 243.093 73.5844C243.064 73.6469 243.021 73.7019 242.967 73.7451C242.913 73.7882 242.85 73.8185 242.782 73.8336C242.679 73.8492 242.574 73.8492 242.471 73.8336C242.079 73.8875 241.681 73.8964 241.287 73.8603Z" fill="#263238"/>
<path d="M239.169 74.2601C239.285 74.2601 239.249 75.0342 239.899 75.6125C240.548 76.1909 241.367 76.1375 241.367 76.2443C241.367 76.3511 241.18 76.3867 240.833 76.3867C240.376 76.3767 239.937 76.2031 239.596 75.8973C239.433 75.755 239.3 75.582 239.203 75.3881C239.107 75.1942 239.05 74.9832 239.036 74.7672C239.018 74.4469 239.116 74.2512 239.169 74.2601Z" fill="#263238"/>
<path d="M239.196 65.6474C239.125 65.8342 238.413 65.7186 237.568 65.7809C236.722 65.8431 236.037 66.0567 235.931 65.8787C235.824 65.7008 236.011 65.6118 236.286 65.4338C236.662 65.2186 237.08 65.0909 237.512 65.06C237.943 65.0292 238.376 65.0962 238.778 65.2559C239.08 65.3982 239.232 65.5495 239.196 65.6474Z" fill="#263238"/>
<path d="M245.763 66.5023C245.629 66.6624 245.14 66.5023 244.553 66.44C243.965 66.3777 243.449 66.5112 243.342 66.3332C243.236 66.1552 243.342 66.093 243.609 65.9417C243.913 65.7728 244.259 65.6962 244.605 65.7215C244.951 65.7468 245.282 65.8729 245.558 66.0841C245.754 66.262 245.816 66.4311 245.763 66.5023Z" fill="#263238"/>
<path d="M235.058 62.1237C234.291 62.677 233.768 63.5063 233.599 64.4371V64.5261C233.368 65.8519 233.35 67.1955 233.101 68.5213C232.927 69.8746 232.299 71.1291 231.321 72.0805C230.903 72.4364 230.182 72.6677 229.871 72.2139C229.765 72.0275 229.715 71.8141 229.728 71.6C229.604 68.3878 228.839 65.5049 228.981 62.1504C228.997 61.7015 229.119 61.2629 229.339 60.8712C229.559 60.4795 229.869 60.1462 230.245 59.8992C230.965 59.4187 231.846 58.9382 232.611 59.3386C233.377 59.739 234.329 61.2339 234.907 61.8745" fill="#263238"/>
<path d="M232.433 59.8115C231.704 58.5124 233.919 56.7684 235.512 56.3324C237.105 55.8964 239.142 56.7506 240.682 57.329C241.615 57.8002 242.624 58.1016 243.662 58.2188C244.359 58.1714 245.045 58.0246 245.7 57.7828C246.356 57.5361 247.056 57.4271 247.756 57.4625C248.104 57.4824 248.439 57.5975 248.727 57.7952C249.014 57.9928 249.241 58.2656 249.384 58.5836C249.444 58.7468 249.468 58.9211 249.454 59.0944C249.441 59.2677 249.39 59.4361 249.306 59.5881C249.221 59.7401 249.105 59.8721 248.965 59.9752C248.825 60.0782 248.664 60.1499 248.494 60.1852C248.721 60.0705 248.972 60.0125 249.225 60.0163C249.479 60.0201 249.729 60.0856 249.951 60.2072C250.174 60.3287 250.364 60.5026 250.505 60.714C250.646 60.9253 250.733 61.1677 250.76 61.4202C250.786 61.6728 250.75 61.9279 250.656 62.1637C250.562 62.3995 250.411 62.6088 250.218 62.7736C250.025 62.9384 249.795 63.0537 249.547 63.1097C249.299 63.1657 249.042 63.1606 248.797 63.0949C249.259 62.7656 249.936 63.3618 249.855 63.9224C249.784 64.1992 249.641 64.4525 249.441 64.657C249.241 64.8615 248.992 65.0101 248.716 65.088C247.322 65.5367 245.81 65.4543 244.472 64.8567C243.12 64.3406 241.874 63.5665 240.53 63.0148C239.187 62.4631 236.971 61.4843 235.556 61.9114C234.533 62.2318 233.777 63.4152 233.225 63.1216C232.963 62.9685 232.74 62.756 232.574 62.5009C232.409 62.2459 232.306 61.9556 232.273 61.6534C232.228 61.0569 232.273 60.4569 232.407 59.8738" fill="#263238"/>
<path d="M246.84 59.6241C246.973 59.5827 247.114 59.5733 247.251 59.5965C247.389 59.6196 247.519 59.6748 247.631 59.7576C247.903 59.943 248.111 60.2069 248.228 60.5139C248.316 60.7145 248.361 60.9311 248.361 61.1501C248.361 61.3691 248.316 61.5858 248.228 61.7863C247.935 62.271 247.504 62.6567 246.99 62.8931C246.476 63.1295 245.903 63.2059 245.345 63.1121C244.012 62.9081 242.755 62.3625 241.696 61.5283C240.671 60.7165 239.565 60.0128 238.395 59.4284C237.884 59.1935 237.336 59.049 236.776 59.0013C236.292 58.9713 235.806 59.0316 235.343 59.1792C234.658 59.3784 234.068 59.8174 233.679 60.4161C233.559 60.6468 233.452 60.8845 233.359 61.1279C233.349 61.06 233.349 60.9911 233.359 60.9232C233.4 60.7246 233.469 60.5329 233.564 60.3538C233.935 59.7003 234.538 59.2109 235.254 58.9835C235.741 58.8071 236.258 58.7285 236.776 58.7521C237.365 58.795 237.942 58.9363 238.484 59.1703C239.676 59.7543 240.803 60.461 241.848 61.2791C242.866 62.0864 244.072 62.6222 245.354 62.8363C245.861 62.9336 246.387 62.8772 246.862 62.6743C247.338 62.4714 247.742 62.1312 248.023 61.6973C248.11 61.5231 248.16 61.3326 248.169 61.138C248.178 60.9434 248.147 60.749 248.076 60.5673C247.983 60.2821 247.802 60.0332 247.56 59.8555C247.349 59.7081 247.097 59.6275 246.84 59.6241Z" fill="#455A64"/>
<path d="M238.244 57.6584C238.244 57.7118 237.817 57.5606 237.15 57.5072C236.275 57.4516 235.401 57.6362 234.623 58.0411C233.872 58.4759 233.256 59.1104 232.843 59.874C232.514 60.4613 232.425 60.8795 232.372 60.8706C232.375 60.4878 232.473 60.1118 232.657 59.7762C233.048 58.9279 233.703 58.2287 234.524 57.783C235.345 57.3372 236.288 57.1687 237.212 57.3025C237.58 57.3375 237.934 57.4595 238.244 57.6584Z" fill="#455A64"/>
<path d="M229.453 65.5686C229.282 65.3042 229.198 64.9932 229.213 64.6788C229.166 63.9297 229.38 63.1876 229.818 62.5779C230.256 61.9683 230.891 61.5286 231.615 61.3332C231.9 61.2259 232.21 61.2072 232.505 61.2798C232.505 61.3243 232.167 61.3421 231.669 61.5289C231.022 61.7697 230.459 62.1932 230.049 62.748C229.655 63.3165 229.436 63.9875 229.417 64.6788C229.408 65.2216 229.498 65.5597 229.453 65.5686Z" fill="#455A64"/>
<path d="M115.15 62.7734H209.851V96.7685C209.851 99.9028 208.043 102.909 204.826 105.125C201.609 107.341 197.245 108.586 192.696 108.586H115.15C110.608 108.578 106.256 107.33 103.048 105.114C99.8404 102.899 98.0391 99.8975 98.0391 96.7685V74.5914C98.0391 71.4624 99.8404 68.4611 103.048 66.2456C106.256 64.0302 110.608 62.7816 115.15 62.7734Z" fill="#016CDE"/>
<path d="M190.782 80.1866C190.782 80.3201 174.623 80.4269 154.683 80.4269C134.743 80.4269 118.584 80.3201 118.584 80.1866C118.584 80.0532 134.743 79.9375 154.683 79.9375C174.623 79.9375 190.782 80.0888 190.782 80.1866Z" fill="white"/>
<path d="M190.782 72.4698C190.782 72.6033 174.623 72.7101 154.683 72.7101C134.743 72.7101 118.584 72.6033 118.584 72.4698C118.584 72.3364 134.743 72.2207 154.683 72.2207C174.623 72.2207 190.782 72.372 190.782 72.4698Z" fill="white"/>
<path d="M190.782 86.0782C190.782 86.2116 174.623 86.3184 154.683 86.3184C134.743 86.3184 118.584 86.2116 118.584 86.0782C118.584 85.9447 134.743 85.8379 154.683 85.8379C174.623 85.8379 190.782 85.9447 190.782 86.0782Z" fill="white"/>
<path d="M171.954 91.5489C171.954 91.6823 160.009 91.7891 145.269 91.7891C130.529 91.7891 118.584 91.6823 118.584 91.5489C118.584 91.4154 130.529 91.3086 145.269 91.3086C160.009 91.3086 171.954 91.4154 171.954 91.5489Z" fill="white"/>
<path d="M157.935 97.502C157.935 97.6354 149.128 97.7422 138.26 97.7422C127.391 97.7422 118.584 97.6354 118.584 97.502C118.584 97.3685 127.391 97.2617 138.26 97.2617C149.128 97.2617 157.935 97.3685 157.935 97.502Z" fill="white"/>
</svg>
