<svg width="400" height="225" viewBox="0 0 400 225" fill="none" xmlns="http://www.w3.org/2000/svg">
<path d="M340.246 191.666H59.7539V191.806H340.246V191.666Z" fill="#EBEBEB"/>
<path d="M300.814 195.486H246.062V195.627H300.814V195.486Z" fill="#EBEBEB"/>
<path d="M248.059 198.729H221.878V198.869H248.059V198.729Z" fill="#EBEBEB"/>
<path d="M312.141 200.692H301.375V200.832H312.141V200.692Z" fill="#EBEBEB"/>
<path d="M182.609 198.796H130.702V198.936H182.609V198.796Z" fill="#EBEBEB"/>
<path d="M125.709 198.796H114.545V198.936H125.709V198.796Z" fill="#EBEBEB"/>
<path d="M110.607 196.429H92.1733V196.569H110.607V196.429Z" fill="#EBEBEB"/>
<path d="M192.707 166.646H84.3868C83.5382 166.645 82.7249 166.307 82.1254 165.706C81.5259 165.105 81.1892 164.291 81.1892 163.443V11.1752C81.1966 10.3315 81.5366 9.52474 82.1353 8.93023C82.734 8.33573 83.5431 8.00145 84.3868 8H192.707C193.557 8 194.371 8.33748 194.972 8.9382C195.573 9.53892 195.91 10.3537 195.91 11.2032V163.443C195.91 164.292 195.573 165.107 194.972 165.708C194.371 166.309 193.557 166.646 192.707 166.646ZM84.3868 8.1122C83.5754 8.11368 82.7978 8.43704 82.2246 9.0113C81.6514 9.58556 81.3295 10.3638 81.3295 11.1752V163.443C81.3295 164.254 81.6514 165.033 82.2246 165.607C82.7978 166.181 83.5754 166.504 84.3868 166.506H192.707C193.519 166.504 194.297 166.181 194.871 165.607C195.445 165.033 195.769 164.255 195.77 163.443V11.1752C195.769 10.3633 195.445 9.58505 194.871 9.01096C194.297 8.43686 193.519 8.11368 192.707 8.1122H84.3868Z" fill="#EBEBEB"/>
<path d="M314.054 166.646H205.728C204.879 166.645 204.065 166.307 203.464 165.706C202.864 165.106 202.526 164.292 202.524 163.443V11.1752C202.533 10.3309 202.874 9.52424 203.474 8.92988C204.074 8.33553 204.883 8.00143 205.728 8H314.054C314.896 8.00292 315.704 8.33785 316.301 8.9322C316.899 9.52655 317.238 10.3324 317.246 11.1752V163.443C317.246 164.291 316.91 165.104 316.311 165.704C315.713 166.304 314.901 166.643 314.054 166.646ZM205.728 8.1122C204.916 8.11368 204.138 8.43686 203.563 9.01096C202.989 9.58505 202.666 10.3633 202.665 11.1752V163.443C202.666 164.255 202.989 165.033 203.563 165.607C204.138 166.181 204.916 166.504 205.728 166.506H314.054C314.865 166.504 315.644 166.181 316.218 165.607C316.792 165.033 317.115 164.255 317.116 163.443V11.1752C317.115 10.3633 316.792 9.58505 316.218 9.01096C315.644 8.43686 314.865 8.11368 314.054 8.1122H205.728Z" fill="#EBEBEB"/>
<path d="M279.138 186.499H109.699L99.5952 71.5649H269.035L279.138 186.499Z" fill="#F0F0F0"/>
<path d="M111.926 182.14L102.63 76.2661C102.608 76.0025 102.64 75.7371 102.725 75.4866C102.811 75.2362 102.947 75.0062 103.126 74.8111C103.305 74.616 103.522 74.4602 103.764 74.3533C104.006 74.2465 104.267 74.191 104.532 74.1904H264.895C265.372 74.1887 265.833 74.3666 266.185 74.6887C266.537 75.0109 266.756 75.4538 266.796 75.9295L276.103 181.804C276.126 182.068 276.095 182.333 276.01 182.584C275.925 182.835 275.788 183.065 275.61 183.261C275.431 183.456 275.213 183.612 274.971 183.718C274.728 183.825 274.466 183.88 274.201 183.88H113.839C113.359 183.884 112.896 183.707 112.541 183.385C112.187 183.063 111.967 182.618 111.926 182.14Z" fill="#FAFAFA"/>
<path d="M133.518 186.499H301.375L299.569 191.666H131.711L133.518 186.499Z" fill="#F5F5F5"/>
<path d="M251.397 64.0198L272.821 32.8796C277.937 36.6843 282.289 41.4218 285.645 46.8425C288.914 52.0794 291.093 57.9216 292.052 64.0198H251.397Z" fill="#EBEBEB"/>
<path d="M251.397 64.0197L245.254 23.3652C250.117 23.3853 254.942 24.2157 259.531 25.8223C264.297 27.4784 268.78 29.8587 272.821 32.8795L251.397 64.0197Z" fill="#E6E6E6"/>
<path d="M251.397 64.0197L236.385 99.227C222.725 91.9791 212.931 78.5267 210.743 64.0197C207.377 41.7206 222.95 23.3652 245.254 23.3652L251.397 64.0197Z" fill="#F0F0F0"/>
<path d="M201.206 136.572H237.272C237.748 139.661 237.808 142.801 237.451 145.906C237.111 148.9 236.34 151.829 235.162 154.602L201.206 136.572Z" fill="#EBEBEB"/>
<path d="M201.206 136.572L169.185 148.913C167.176 145.047 165.812 140.878 165.146 136.572C162.156 116.786 175.979 100.506 195.759 100.506C197.888 100.513 200.012 100.7 202.109 101.067L201.206 136.572Z" fill="#F0F0F0"/>
<path d="M201.206 136.572L235.163 154.602C230.411 165.748 219.522 172.632 206.659 172.632C191.512 172.632 176.506 163.095 169.185 148.908L201.206 136.572Z" fill="white"/>
<path d="M200 217C260.072 217 308.769 214.157 308.769 210.65C308.769 207.142 260.072 204.299 200 204.299C139.929 204.299 91.231 207.142 91.231 210.65C91.231 214.157 139.929 217 200 217Z" fill="#F5F5F5"/>
<path d="M194.721 111.439H144.188C142.605 111.408 141.089 110.798 139.927 109.724C138.765 108.649 138.037 107.186 137.882 105.611L135.352 74.5434C135.279 73.7994 135.363 73.0483 135.6 72.3391C135.836 71.6299 136.22 70.9787 136.726 70.4281C137.232 69.8774 137.848 69.4396 138.534 69.1434C139.221 68.8472 139.962 68.6993 140.71 68.7092H191.237C192.821 68.7402 194.337 69.3515 195.5 70.427C196.662 71.5025 197.389 72.9673 197.543 74.5434L200.073 105.611C200.146 106.354 200.062 107.104 199.826 107.813C199.589 108.521 199.206 109.172 198.701 109.722C198.196 110.272 197.58 110.71 196.894 111.006C196.208 111.301 195.468 111.449 194.721 111.439Z" fill="white"/>
<path d="M194.721 111.681H144.188C142.541 111.652 140.962 111.017 139.754 109.897C138.546 108.777 137.794 107.251 137.641 105.611L135.111 74.538C135.035 73.7599 135.124 72.9746 135.373 72.2334C135.621 71.4923 136.023 70.8119 136.553 70.2368C137.082 69.6618 137.727 69.205 138.446 68.8963C139.164 68.5876 139.939 68.4341 140.721 68.4457H191.249C192.893 68.474 194.469 69.1068 195.677 70.2232C196.884 71.3397 197.638 72.8616 197.795 74.4987L200.314 105.611C200.39 106.389 200.301 107.174 200.052 107.915C199.804 108.657 199.402 109.337 198.872 109.912C198.343 110.487 197.698 110.944 196.979 111.252C196.261 111.561 195.486 111.715 194.704 111.703L194.721 111.681ZM140.71 68.9506C139.995 68.9373 139.286 69.0758 138.629 69.3569C137.972 69.6381 137.383 70.0555 136.899 70.5815C136.415 71.1075 136.049 71.7302 135.824 72.4084C135.599 73.0865 135.52 73.8047 135.593 74.5155L138.123 105.611C138.269 107.127 138.968 108.537 140.086 109.572C141.205 110.606 142.664 111.193 144.188 111.221H194.721C195.439 111.234 196.152 111.094 196.812 110.81C197.471 110.525 198.063 110.104 198.546 109.573C199.03 109.042 199.395 108.414 199.617 107.731C199.838 107.047 199.912 106.325 199.832 105.611L197.302 74.538C197.156 73.0215 196.457 71.6116 195.339 70.577C194.22 69.5425 192.761 68.9556 191.237 68.9281L140.71 68.9506Z" fill="#016CDE"/>
<path d="M179.002 77.7804L177.392 79.5362C174.439 76.7635 170.549 75.2052 166.498 75.1718C164.591 75.1486 162.7 75.5256 160.947 76.2783C159.194 77.031 157.619 78.1428 156.322 79.5418L154.42 77.7804C155.937 76.1527 157.777 74.8591 159.821 73.9821C161.866 73.1051 164.071 72.6639 166.296 72.6866C171.02 72.7322 175.555 74.5501 179.002 77.7804Z" fill="#263238"/>
<path d="M173.578 106.868C167.715 108.466 161.163 106.75 156.423 102.38C149.13 95.6479 148.227 84.5348 154.42 77.7917L156.322 79.5532C155.037 80.9678 154.061 82.635 153.458 84.4481C152.854 86.2612 152.635 88.1804 152.816 90.0829C153.483 98.3125 160.697 104.983 168.927 104.983C170.215 104.985 171.498 104.817 172.742 104.483L173.578 106.868Z" fill="#016CDE"/>
<path d="M125.888 18.4844H121.838V18.9724H125.888V18.4844Z" fill="#016CDE"/>
<path d="M117.906 18.4844H108.683V18.9724H117.906V18.4844Z" fill="#016CDE"/>
<path d="M160.81 63.1386H110.282C108.699 63.109 107.182 62.4989 106.02 61.4243C104.857 60.3498 104.13 58.8856 103.976 57.31L101.446 26.2371C101.373 25.4934 101.457 24.7425 101.694 24.0336C101.931 23.3247 102.315 22.6738 102.82 22.1236C103.326 21.5733 103.942 21.1361 104.629 20.8406C105.315 20.545 106.057 20.3978 106.804 20.4085H157.332C158.914 20.4394 160.43 21.0499 161.592 22.1242C162.755 23.1985 163.482 24.662 163.637 26.2371L166.167 57.31C166.241 58.0537 166.156 58.8046 165.919 59.5135C165.683 60.2224 165.299 60.8733 164.793 61.4235C164.287 61.9738 163.671 62.411 162.985 62.7066C162.298 63.0021 161.557 63.1493 160.81 63.1386Z" fill="white"/>
<path d="M160.81 63.3855H110.282C108.638 63.3572 107.061 62.7244 105.854 61.608C104.646 60.4915 103.892 58.9696 103.735 57.3325L101.205 26.2596C101.129 25.4816 101.219 24.6963 101.467 23.9551C101.715 23.2139 102.118 22.5336 102.647 21.9585C103.177 21.3834 103.822 20.9266 104.54 20.618C105.258 20.3093 106.033 20.1558 106.815 20.1674H157.343C158.987 20.1957 160.563 20.8285 161.771 21.9449C162.978 23.0614 163.733 24.5833 163.889 26.2204L166.42 57.2932C166.495 58.0713 166.406 58.8566 166.158 59.5978C165.909 60.3389 165.507 61.0193 164.978 61.5944C164.448 62.1694 163.803 62.6262 163.085 62.9349C162.367 63.2436 161.591 63.3971 160.81 63.3855ZM106.804 20.6498C106.089 20.6364 105.379 20.7751 104.722 21.0566C104.065 21.338 103.475 21.7559 102.991 22.2826C102.507 22.8092 102.141 23.4326 101.916 24.1115C101.692 24.7903 101.614 25.5091 101.688 26.2204L104.218 57.2932C104.363 58.8097 105.062 60.2196 106.18 61.2542C107.299 62.2887 108.759 62.8756 110.282 62.9031H160.81C161.524 62.9164 162.233 62.7779 162.89 62.4967C163.547 62.2156 164.137 61.7982 164.62 61.2722C165.104 60.7461 165.47 60.1235 165.695 59.4453C165.92 58.7671 165.999 58.0489 165.926 57.3381L163.396 26.2652C163.249 24.7492 162.55 23.3401 161.432 22.3057C160.314 21.2714 158.854 20.6841 157.332 20.6554L106.804 20.6498Z" fill="#016CDE"/>
<path d="M159.57 29.3227H132.794L132.575 26.6804H159.357L159.57 29.3227Z" fill="#016CDE"/>
<path d="M160.131 36.2116H114.214L114.001 33.5637H159.918L160.131 36.2116Z" fill="#016CDE"/>
<path d="M160.692 43.0946H130.971L130.758 40.4524H160.479L160.692 43.0946Z" fill="#016CDE"/>
<path d="M161.253 49.9838H148.378L148.159 47.3416H161.034L161.253 49.9838Z" fill="#016CDE"/>
<path d="M161.814 56.8725H127.072L126.859 54.2246H161.595L161.814 56.8725Z" fill="#016CDE"/>
<path d="M229.889 63.1386H179.361C177.781 63.1049 176.269 62.493 175.11 61.4188C173.951 60.3446 173.226 58.8827 173.073 57.31L170.543 26.2371C170.469 25.4952 170.553 24.7463 170.788 24.039C171.024 23.3317 171.406 22.6819 171.909 22.132C172.412 21.5821 173.026 21.1444 173.71 20.8475C174.393 20.5505 175.132 20.4009 175.878 20.4085H226.411C227.993 20.4393 229.509 21.0498 230.672 22.1242C231.834 23.1985 232.561 24.662 232.716 26.2371L235.246 57.31C235.32 58.0537 235.236 58.8046 234.999 59.5135C234.762 60.2224 234.378 60.8733 233.872 61.4235C233.367 61.9738 232.75 62.411 232.064 62.7065C231.377 63.0021 230.636 63.1493 229.889 63.1386Z" fill="white"/>
<path d="M229.889 63.3855H179.361C177.719 63.35 176.146 62.715 174.939 61.6001C173.732 60.4851 172.974 58.9673 172.809 57.3325L170.268 26.2596C170.192 25.4816 170.281 24.6963 170.53 23.9551C170.778 23.2139 171.18 22.5336 171.71 21.9585C172.239 21.3834 172.884 20.9266 173.603 20.618C174.321 20.3093 175.096 20.1558 175.878 20.1674H226.411C228.055 20.1957 229.632 20.8285 230.839 21.9449C232.047 23.0614 232.801 24.5833 232.958 26.2204L235.488 57.2932C235.564 58.0713 235.475 58.8566 235.226 59.5978C234.978 60.3389 234.575 61.0193 234.046 61.5944C233.516 62.1694 232.871 62.6262 232.153 62.9349C231.435 63.2436 230.66 63.3971 229.878 63.3855H229.889ZM175.878 20.6498C175.163 20.6372 174.454 20.7765 173.798 21.0583C173.141 21.3401 172.552 21.7582 172.069 22.2847C171.585 22.8113 171.22 23.4344 170.995 24.1128C170.771 24.7913 170.693 25.5096 170.767 26.2204L173.297 57.2932C173.443 58.8097 174.142 60.2196 175.26 61.2542C176.378 62.2887 177.838 62.8756 179.361 62.9031H229.889C230.604 62.9164 231.313 62.7779 231.97 62.4967C232.627 62.2156 233.216 61.7982 233.7 61.2722C234.184 60.7461 234.55 60.1235 234.775 59.4453C235 58.7671 235.079 58.0489 235.005 57.3381L232.475 26.2652C232.328 24.7492 231.629 23.3401 230.511 22.3057C229.393 21.2714 227.934 20.6841 226.411 20.6554L175.878 20.6498Z" fill="#016CDE"/>
<path d="M205.907 44.3234H200.28L199.315 32.5315H204.948L205.907 44.3234Z" fill="#016CDE"/>
<path d="M195.046 46.9432H189.414L188.573 36.6042H194.199L195.046 46.9432Z" fill="#016CDE"/>
<path d="M183.277 38.4385H177.651L177.073 31.342H182.699L183.277 38.4385Z" fill="#263238"/>
<path d="M217.525 51.0215H211.898L210.395 32.5315H216.022L217.525 51.0215Z" fill="#263238"/>
<path d="M228.784 53.2375H223.158L221.951 38.4275H227.578L228.784 53.2375Z" fill="#016CDE"/>
<path d="M175.816 159.336H125.283C123.701 159.304 122.185 158.693 121.023 157.619C119.861 156.545 119.133 155.082 118.977 153.507L116.453 122.44C116.379 121.697 116.463 120.946 116.7 120.238C116.936 119.53 117.32 118.879 117.825 118.329C118.33 117.779 118.946 117.341 119.631 117.045C120.317 116.749 121.058 116.602 121.805 116.612H172.338C173.92 116.644 175.435 117.255 176.597 118.329C177.759 119.403 178.487 120.866 178.643 122.44L181.173 153.513C181.245 154.256 181.16 155.006 180.922 155.714C180.685 156.422 180.301 157.072 179.795 157.621C179.29 158.17 178.674 158.607 177.988 158.903C177.303 159.198 176.563 159.346 175.816 159.336Z" fill="white"/>
<path d="M175.816 159.577H125.283C123.639 159.548 122.063 158.915 120.856 157.798C119.649 156.682 118.894 155.161 118.736 153.524L116.206 122.44C116.13 121.662 116.219 120.877 116.468 120.136C116.716 119.395 117.118 118.714 117.648 118.139C118.177 117.564 118.822 117.107 119.541 116.799C120.259 116.49 121.034 116.336 121.816 116.348H172.349C173.997 116.381 175.575 117.021 176.781 118.145C177.987 119.269 178.736 120.799 178.885 122.44L181.415 153.508C181.491 154.286 181.401 155.071 181.153 155.812C180.904 156.553 180.502 157.234 179.973 157.809C179.443 158.384 178.798 158.841 178.08 159.149C177.362 159.458 176.586 159.611 175.805 159.6L175.816 159.577ZM121.805 116.83C121.086 116.817 120.374 116.957 119.714 117.242C119.054 117.526 118.463 117.947 117.979 118.478C117.495 119.009 117.131 119.637 116.909 120.321C116.687 121.004 116.614 121.726 116.694 122.44L119.218 153.485C119.364 155.001 120.062 156.41 121.179 157.444C122.296 158.479 123.755 159.066 125.277 159.095H175.81C176.525 159.108 177.234 158.968 177.891 158.686C178.547 158.405 179.137 157.987 179.62 157.46C180.103 156.933 180.468 156.31 180.693 155.632C180.917 154.953 180.995 154.235 180.921 153.524L178.402 122.44C178.255 120.924 177.556 119.515 176.438 118.481C175.32 117.446 173.861 116.859 172.338 116.83H121.805Z" fill="#016CDE"/>
<path d="M128.643 137.228L139.531 149.811L152.025 130.547L159.744 140.504L161.629 137.598L174.256 152.728L125.765 152.711L128.643 137.228Z" fill="#016CDE"/>
<path d="M273.276 72.6368L273.517 52.4414C273.747 47.4262 271.009 43.1066 265.989 43.0225H265.523C263.268 43.1138 261.13 44.0513 259.535 45.6482C257.941 47.245 257.006 49.3841 256.918 51.6392C256.744 55.9924 256.609 60.8056 256.738 63.1281C256.996 67.947 261.843 68.4967 261.843 68.4967C261.843 68.4967 261.877 71.4251 261.843 72.8387L265.719 78.2186V78.5103L273.276 72.6368Z" fill="#FFBF9D"/>
<path d="M261.843 68.5248C264.059 68.4205 266.199 67.6869 268.014 66.4099C268.014 66.4099 266.65 70.0956 261.843 69.86V68.5248Z" fill="#FF9A6C"/>
<path d="M258.449 55.8242C258.455 56.0033 258.53 56.1731 258.659 56.2977C258.788 56.4223 258.96 56.4919 259.139 56.4918C259.227 56.4956 259.315 56.4816 259.397 56.4506C259.48 56.4197 259.555 56.3724 259.619 56.3117C259.683 56.251 259.734 56.178 259.769 56.0971C259.804 56.0163 259.823 55.9292 259.823 55.8411C259.819 55.6615 259.744 55.4909 259.615 55.366C259.486 55.2411 259.313 55.172 259.133 55.1735C259.045 55.1705 258.958 55.185 258.876 55.2163C258.794 55.2475 258.718 55.2948 258.655 55.3553C258.591 55.4159 258.54 55.4886 258.505 55.5691C258.469 55.6496 258.45 55.7363 258.449 55.8242Z" fill="#263238"/>
<path d="M258.028 53.7542C258.118 53.8384 258.623 53.4344 259.364 53.4064C260.104 53.3784 260.659 53.7262 260.738 53.6308C260.816 53.5354 260.682 53.4288 260.435 53.2662C260.101 53.0542 259.708 52.9522 259.313 52.9744C258.928 52.9885 258.559 53.1262 258.258 53.3671C258.056 53.5523 257.983 53.7149 258.028 53.7542Z" fill="#263238"/>
<path d="M265.074 55.8242C265.079 56.0038 265.153 56.1744 265.283 56.2993C265.412 56.4241 265.585 56.4933 265.764 56.4918C265.852 56.4948 265.94 56.4802 266.022 56.449C266.104 56.4178 266.179 56.3705 266.243 56.3099C266.307 56.2493 266.358 56.1767 266.393 56.0962C266.428 56.0157 266.447 55.9289 266.449 55.841C266.443 55.6619 266.368 55.4921 266.239 55.3676C266.11 55.243 265.938 55.1734 265.759 55.1735C265.671 55.1697 265.583 55.1837 265.5 55.2146C265.418 55.2456 265.342 55.2928 265.278 55.3535C265.214 55.4143 265.163 55.4872 265.128 55.5681C265.093 55.649 265.075 55.7361 265.074 55.8242Z" fill="#263238"/>
<path d="M265.293 53.6252C265.383 53.715 265.888 53.3054 266.628 53.2774C267.369 53.2493 267.924 53.5971 268.003 53.5018C268.081 53.4064 267.946 53.2998 267.7 53.1371C267.364 52.9285 266.973 52.8268 266.578 52.8454C266.193 52.8595 265.823 52.9972 265.523 53.2381C265.321 53.4401 265.248 53.5859 265.293 53.6252Z" fill="#263238"/>
<path d="M262.869 59.4259C262.475 59.3158 262.067 59.2592 261.658 59.2576C261.467 59.2576 261.287 59.2184 261.254 59.0894C261.229 58.8964 261.264 58.7006 261.355 58.5284L261.854 57.0642C262.329 55.8246 262.704 54.5489 262.976 53.2495C262.409 54.4496 261.94 55.6934 261.574 56.9688C261.405 57.4793 261.248 57.9674 261.097 58.4386C260.989 58.6723 260.966 58.9356 261.029 59.1847C261.059 59.2499 261.104 59.3074 261.159 59.3531C261.214 59.3988 261.279 59.4313 261.349 59.4484C261.456 59.4735 261.565 59.483 261.675 59.4764C262.073 59.5074 262.475 59.4905 262.869 59.4259Z" fill="#263238"/>
<path d="M264.957 51.3196C265.063 51.5047 265.776 51.2747 266.639 51.2243C267.503 51.1738 268.244 51.2747 268.322 51.0728C268.356 50.9774 268.199 50.8147 267.885 50.6745C267.469 50.5086 267.022 50.4396 266.575 50.4726C266.129 50.5057 265.696 50.6399 265.31 50.8652C265.035 51.0503 264.906 51.2299 264.957 51.3196Z" fill="#263238"/>
<path d="M257.905 51.5774C258.062 51.7457 258.662 51.5774 259.386 51.5269C260.11 51.4764 260.727 51.6055 260.867 51.4259C260.923 51.3362 260.822 51.1679 260.553 51.0164C260.176 50.8355 259.759 50.7526 259.341 50.7751C258.924 50.7977 258.518 50.925 258.163 51.1455C257.911 51.325 257.832 51.4989 257.905 51.5774Z" fill="#263238"/>
<path d="M273.276 56.0317C273.354 55.9925 276.541 54.9098 276.574 58.214C276.608 61.5182 273.287 60.8618 273.281 60.7664C273.276 60.6711 273.276 56.0317 273.276 56.0317Z" fill="#FFBF9D"/>
<path d="M274.274 59.5099C274.274 59.5099 274.336 59.5492 274.431 59.5941C274.571 59.6461 274.724 59.6461 274.863 59.5941C275.075 59.4559 275.246 59.2643 275.359 59.0387C275.472 58.813 275.524 58.5614 275.508 58.3094C275.513 58.0274 275.456 57.7477 275.34 57.4904C275.308 57.3878 275.251 57.2945 275.175 57.2183C275.099 57.1422 275.005 57.0854 274.903 57.0528C274.836 57.0362 274.766 57.0434 274.705 57.0731C274.643 57.1029 274.594 57.1532 274.566 57.2155C274.521 57.3052 274.566 57.3726 274.527 57.3782C274.488 57.3838 274.454 57.3221 274.482 57.1874C274.497 57.1059 274.541 57.0324 274.605 56.9799C274.65 56.9446 274.701 56.9184 274.756 56.903C274.811 56.8876 274.868 56.8832 274.925 56.8901C275.06 56.917 275.186 56.9772 275.292 57.0654C275.398 57.1536 275.48 57.2669 275.531 57.395C275.674 57.6803 275.745 57.9961 275.739 58.315C275.757 58.6082 275.689 58.9003 275.542 59.1547C275.395 59.4092 275.177 59.6147 274.914 59.7455C274.825 59.7719 274.732 59.778 274.641 59.7634C274.549 59.7489 274.463 59.714 274.387 59.6614C274.286 59.6109 274.263 59.5155 274.274 59.5099Z" fill="#FF9A6C"/>
<path d="M265.197 59.8859C265.08 59.8859 265.08 60.632 264.429 61.1705C263.778 61.7091 262.97 61.6137 262.965 61.7315C262.959 61.8493 263.144 61.883 263.486 61.8886C263.929 61.8991 264.36 61.752 264.704 61.4735C265.036 61.2065 265.249 60.8196 265.298 60.3964C265.332 60.0654 265.248 59.8803 265.197 59.8859Z" fill="#263238"/>
<path d="M250.259 47.3309C250.286 47.234 250.332 47.1434 250.395 47.0644C250.458 46.9855 250.535 46.9197 250.623 46.8709C251.006 46.6908 251.431 46.6172 251.852 46.6577C252.902 46.6259 253.931 46.3534 254.859 45.8611C254.529 45.7088 254.228 45.5021 253.967 45.2497C253.687 44.9972 253.481 44.673 253.372 44.312C253.264 43.951 253.256 43.5672 253.35 43.2021C253.364 43.133 253.395 43.0682 253.439 43.0127C253.482 42.9573 253.538 42.9126 253.602 42.8823C253.815 42.815 254.006 43.0226 254.163 43.1852C254.355 43.4416 254.613 43.6411 254.909 43.7625C255.206 43.884 255.529 43.923 255.846 43.8752C256.286 43.8435 256.714 43.7131 257.097 43.4938L257.136 43.4489L257.636 42.9328C258.58 41.8668 259.723 40.9959 261.002 40.3691C262.906 39.639 264.974 39.445 266.982 39.8081C268.665 40.2289 270.185 41.5696 270.437 43.2918C270.935 42.9249 271.522 42.6971 272.137 42.6321C272.753 42.567 273.374 42.6669 273.938 42.9216H273.966C275.251 43.3591 275.991 44.6999 276.378 46.0014C276.378 46.0687 276.423 46.1416 276.44 46.2145C276.873 46.9091 277.47 47.4869 278.179 47.8975C278.302 47.9704 278.443 48.0546 278.459 48.2004C278.476 48.3463 278.358 48.4585 278.246 48.5426C277.941 48.7629 277.59 48.9124 277.22 48.9802C277.335 49.2905 277.48 49.5892 277.652 49.8722C277.797 50.119 277.971 50.4051 277.848 50.6631C277.789 50.7553 277.705 50.8283 277.605 50.8731C277.505 50.918 277.395 50.9327 277.287 50.9156C277.072 50.8715 276.869 50.7815 276.692 50.6519L277.13 51.6729C276.666 51.7536 276.19 51.7267 275.739 51.5944C275.481 52.8173 275.307 55.0725 274.998 55.9027C274.488 55.8508 273.973 55.8792 273.472 55.9869C272.911 56.1832 273.13 57.1874 272.384 56.9125C272.008 56.7666 271.408 55.3418 271.262 54.9603C270.393 52.4005 270.083 49.6841 270.353 46.9943C269.816 46.4355 269.176 45.9859 268.468 45.6704L268.53 45.7209C267.172 45.2665 265.646 44.8233 264.373 45.4741C263.386 45.9733 262.813 47.0111 262.079 47.8414C261.464 48.5966 260.696 49.2131 259.826 49.6501C258.956 50.0872 258.003 50.3349 257.03 50.377C256.861 51.8356 256.828 54.2142 256.772 55.5774L255.588 52.879C255.493 52.722 255.414 52.5649 255.336 52.4022V52.3517C255.212 52.0993 255.094 51.8412 254.943 51.5832C254.788 51.7235 254.586 51.8015 254.377 51.8022C254.168 51.8029 253.966 51.7262 253.81 51.587C253.654 51.4477 253.555 51.2557 253.533 51.0479C253.51 50.84 253.564 50.6311 253.686 50.4612C253.799 50.2997 253.937 50.1577 254.096 50.0405C253.93 50.2029 253.726 50.3202 253.502 50.3811C253.278 50.442 253.042 50.4444 252.817 50.3883C252.594 50.3239 252.399 50.1878 252.262 50.0011C252.125 49.8144 252.054 49.5876 252.059 49.3561C252.076 49.1997 252.133 49.0503 252.226 48.9233C252.318 48.7962 252.443 48.6958 252.587 48.6324C251.987 48.6848 251.386 48.5579 250.859 48.2677C250.489 48.077 250.147 47.7573 250.259 47.3309Z" fill="#263238"/>
<path d="M268.934 43.9033C269.104 44.04 269.267 44.1861 269.422 44.3409C269.806 44.7989 270.066 45.3472 270.179 45.9341C270.269 46.3376 270.316 46.7493 270.319 47.1626C270.319 47.6058 270.319 48.0826 270.269 48.5819C270.235 49.1106 270.235 49.6409 270.269 50.1695C270.289 50.4487 270.328 50.7261 270.387 50.9998C270.434 51.2946 270.556 51.5726 270.74 51.8076C270.825 51.9009 270.933 51.9703 271.053 52.0087C271.173 52.0471 271.301 52.0532 271.425 52.0264C271.661 51.9803 271.874 51.8557 272.03 51.6729C272.289 51.3116 272.446 50.8872 272.485 50.4444H272.384C272.533 50.806 272.733 51.1442 272.979 51.4485C273.217 51.7325 273.557 51.9117 273.927 51.9478C274.096 51.9671 274.268 51.9358 274.42 51.8581C274.563 51.7819 274.681 51.6647 274.757 51.5215C274.827 51.3886 274.86 51.2394 274.852 51.0895C274.843 50.952 274.787 50.8217 274.695 50.7193L274.645 50.7641C274.934 51.0913 275.29 51.3533 275.688 51.5327C275.794 51.5796 275.902 51.6189 276.013 51.6505L276.126 51.6786L276.019 51.6337L275.705 51.499C275.32 51.3078 274.977 51.0428 274.695 50.7193L274.645 50.7641C274.724 50.8654 274.77 50.9886 274.777 51.117C274.784 51.2454 274.752 51.3729 274.684 51.4822C274.616 51.61 274.51 51.7138 274.381 51.7795C274.242 51.8485 274.086 51.8758 273.932 51.8581C273.59 51.8192 273.276 51.6481 273.057 51.3812C272.824 51.0828 272.635 50.7521 272.496 50.3995L272.423 50.248V50.4107C272.387 50.8349 272.238 51.2417 271.991 51.5888C271.847 51.7574 271.649 51.8704 271.43 51.9086C271.328 51.9249 271.224 51.916 271.126 51.8828C271.028 51.8495 270.94 51.7929 270.869 51.7178C270.703 51.4973 270.593 51.2391 270.549 50.9661C270.488 50.6967 270.449 50.4228 270.432 50.1471C270.401 49.6239 270.401 49.0994 270.432 48.5763C270.432 48.077 270.482 47.6002 270.471 47.1514C270.467 46.7319 270.416 46.3143 270.319 45.906C270.2 45.3092 269.923 44.7553 269.517 44.3016C269.348 44.1358 269.15 44.001 268.934 43.9033Z" fill="#455A64"/>
<path d="M254.056 48.7501L254.096 48.7837L254.213 48.8679C254.28 48.9152 254.349 48.9582 254.421 48.9969C254.505 49.0418 254.601 49.0979 254.718 49.1484C255.369 49.4337 256.08 49.5532 256.788 49.4962C257.843 49.4101 258.851 49.0204 259.689 48.3742C260.701 47.5816 261.541 46.5909 262.157 45.4627C262.499 44.8737 262.78 44.2734 263.088 43.7181C263.371 43.1741 263.73 42.6735 264.154 42.2315C264.536 41.8357 265.01 41.5408 265.534 41.3732C265.771 41.3054 266.017 41.2751 266.263 41.2834C266.492 41.2924 266.718 41.332 266.937 41.4012C267.313 41.5254 267.659 41.7281 267.952 41.9958C268.176 42.1971 268.366 42.434 268.513 42.6971C268.627 42.9273 268.714 43.1702 268.771 43.4207C268.771 43.4207 268.771 43.4207 268.771 43.3703C268.771 43.3198 268.771 43.2805 268.743 43.2188C268.703 43.0245 268.639 42.836 268.552 42.6578C268.407 42.3868 268.218 42.1422 267.991 41.9341C267.695 41.6558 267.343 41.4435 266.959 41.3114C266.735 41.2339 266.5 41.1885 266.263 41.1768C266.006 41.1657 265.748 41.196 265.5 41.2666C264.96 41.436 264.471 41.7366 264.076 42.1417C263.643 42.5882 263.276 43.0945 262.987 43.6451C262.673 44.2061 262.426 44.8064 262.056 45.3898C261.446 46.5045 260.618 47.4851 259.621 48.2732C258.8 48.9111 257.813 49.3004 256.777 49.3952C256.08 49.4583 255.377 49.3525 254.73 49.0867C254.499 48.9866 254.275 48.8742 254.056 48.7501Z" fill="#455A64"/>
<path d="M253.591 46.6353C253.645 46.6799 253.703 46.7193 253.765 46.7531C253.931 46.8493 254.103 46.9337 254.281 47.0055C254.544 47.1146 254.816 47.201 255.094 47.2636C255.437 47.3387 255.787 47.38 256.138 47.387C256.487 47.3907 256.836 47.3644 257.181 47.3085C257.461 47.255 257.737 47.18 258.006 47.0841C258.185 47.0189 258.36 46.9401 258.527 46.8484C258.651 46.7867 258.713 46.7475 258.707 46.7363C258.701 46.725 258.432 46.8597 257.978 47.0055C257.713 47.0938 257.44 47.1595 257.164 47.2019C256.825 47.2559 256.481 47.2803 256.138 47.2748C255.795 47.2683 255.453 47.2307 255.117 47.1626C254.842 47.105 254.572 47.0281 254.309 46.9326C253.854 46.7643 253.602 46.6128 253.591 46.6353Z" fill="#455A64"/>
<path d="M266.864 194.544L267.324 205.006C267.324 205.006 256.845 208.984 256.744 210.925L277.051 210.762L277.006 194.438L266.864 194.544Z" fill="#455A64"/>
<g opacity="0.6">
<path d="M277.051 210.762L276.984 209.118L257.534 209.887C257.534 209.887 256.637 210.285 256.743 210.925L277.051 210.762Z" fill="white"/>
</g>
<path d="M266.993 204.906C266.993 205.001 267.492 205.046 267.986 205.36C268.479 205.674 268.737 206.089 268.827 206.05C268.917 206.011 268.766 205.439 268.165 205.068C267.565 204.698 266.97 204.816 266.993 204.906Z" fill="#263238"/>
<path d="M264.872 205.803C264.872 205.898 265.276 206.061 265.618 206.482C265.961 206.902 266.062 207.34 266.179 207.334C266.297 207.329 266.336 206.773 265.905 206.257C265.473 205.741 264.872 205.707 264.872 205.803Z" fill="#263238"/>
<path d="M263.677 208.361C263.767 208.361 263.902 207.884 263.644 207.346C263.386 206.807 262.92 206.588 262.881 206.673C262.842 206.757 263.128 207.043 263.335 207.492C263.543 207.94 263.582 208.35 263.677 208.361Z" fill="#263238"/>
<path d="M267.155 202.51C267.195 202.6 267.649 202.46 268.21 202.51C268.771 202.561 269.209 202.718 269.259 202.628C269.31 202.538 268.889 202.196 268.227 202.162C267.565 202.129 267.105 202.432 267.155 202.51Z" fill="#263238"/>
<path d="M266.892 202.392C266.831 203.231 266.831 204.073 266.892 204.911L266.976 204.782C265.786 205.237 264.21 205.842 262.533 206.633C260.947 207.332 259.443 208.201 258.045 209.225C257.611 209.534 257.232 209.913 256.923 210.347C256.71 210.672 256.738 210.908 256.771 210.908C256.823 210.729 256.911 210.563 257.03 210.42C257.356 210.031 257.733 209.687 258.151 209.399C259.573 208.446 261.075 207.619 262.639 206.925C264.322 206.14 265.865 205.506 267.026 205.007L267.116 204.967V204.906C267.103 204.063 267.028 203.223 266.892 202.392Z" fill="#263238"/>
<path d="M280.002 121.616V131.097L276.26 161.362C276.26 161.362 277.444 175.56 278.173 183.571C278.807 190.527 277.775 202.645 277.775 202.645H266.69L262.724 162.226L260.261 137.026L255.773 122.099L280.002 121.616Z" fill="#263238"/>
<path d="M260.345 192.732L263.251 202.791C263.251 202.791 254 209.119 254.359 211.032L274.05 206.1L270.168 190.241L260.345 192.732Z" fill="#455A64"/>
<g opacity="0.6">
<path d="M274.05 206.1L273.595 204.518L254.875 209.836C254.875 209.836 254.096 210.437 254.348 211.031L274.05 206.1Z" fill="white"/>
</g>
<path d="M262.909 202.768C262.909 202.864 263.425 202.768 263.975 202.976C264.524 203.183 264.883 203.509 264.962 203.453C265.041 203.397 264.754 202.892 264.087 202.65C263.419 202.409 262.864 202.662 262.909 202.768Z" fill="#263238"/>
<path d="M261.052 204.143C261.052 204.238 261.512 204.3 261.944 204.625C262.376 204.95 262.572 205.354 262.668 205.326C262.763 205.298 262.668 204.737 262.146 204.345C261.624 203.952 261.035 204.047 261.052 204.143Z" fill="#263238"/>
<path d="M260.497 206.908C260.592 206.908 260.603 206.392 260.227 205.926C259.852 205.461 259.347 205.365 259.324 205.455C259.302 205.545 259.655 205.758 259.958 206.145C260.261 206.532 260.401 206.919 260.497 206.908Z" fill="#263238"/>
<path d="M262.499 200.418C262.561 200.496 262.97 200.255 263.52 200.154C264.07 200.053 264.541 200.12 264.569 200.025C264.597 199.93 264.109 199.688 263.447 199.817C262.785 199.946 262.432 200.339 262.499 200.418Z" fill="#263238"/>
<path d="M251.515 122.267L251.005 127.423L251.616 164.851L260.39 194.92L262.516 202.213L273.842 200.081L265.113 122.273L251.515 122.267Z" fill="#263238"/>
<path d="M251.857 165.637C251.857 165.637 251.857 165.699 251.897 165.816L252.043 166.332C252.172 166.798 252.362 167.454 252.604 168.346C253.114 170.113 253.849 172.677 254.78 175.908C256.659 182.382 259.307 191.526 262.415 202.241L262.443 202.331H262.533L273.854 200.205H273.96V200.104C273.399 197.052 272.782 193.86 272.165 190.612C270.336 180.985 268.608 171.903 267.116 163.965V163.954C268.99 152.173 270.482 142.794 271.346 137.403L273.236 133.958L273.719 133.072C273.826 132.87 273.876 132.763 273.876 132.763C273.876 132.763 273.809 132.864 273.697 133.061L273.197 133.936L271.267 137.358C270.387 142.743 268.855 152.123 266.937 163.887V163.954C268.44 171.892 270.157 180.974 271.986 190.606C272.603 193.86 273.208 197.046 273.786 200.098L273.87 199.975L262.499 202.101L262.611 202.168L254.904 175.858C253.95 172.632 253.221 170.074 252.66 168.313L252.054 166.31C251.986 166.086 251.936 165.917 251.897 165.794C251.857 165.67 251.857 165.637 251.857 165.637Z" fill="#455A64"/>
<path d="M253.546 125.336C253.705 125.667 253.913 125.971 254.163 126.239C255.328 127.603 256.902 128.555 258.651 128.954C259.004 129.057 259.372 129.102 259.739 129.089C257.293 128.634 255.098 127.299 253.569 125.336H253.546Z" fill="#455A64"/>
<path d="M246.444 86.9139L240.52 93.2979L232.588 86.0051L226.08 86.1454C226.08 86.1454 236.116 103.059 238.422 104.411C240.727 105.763 242.489 105.146 245.086 103.564C247.684 101.982 256.306 91.0315 256.306 91.0315L246.444 86.9139Z" fill="#FFBF9D"/>
<path d="M240.857 98.3188C240.924 98.3188 240.61 97.1968 240.531 95.7719C240.453 94.347 240.61 93.2139 240.531 93.2026C240.119 94.9004 240.227 96.6829 240.84 98.3188H240.857Z" fill="#FF9A6C"/>
<path d="M223.982 73.9891C223.982 73.9891 224.24 72.5024 225.502 73.602C226.765 74.7015 231.146 80.6984 232.234 83.6267L232.952 86.4317L227.432 88.4007L223 84.2214C222.49 83.7445 221.878 81.5399 223.78 82.1794C223.78 82.1794 223.326 80.0196 225.261 80.4123C225.261 80.4123 224.969 78.7967 226.894 78.7911L223.982 73.9891Z" fill="#FFBF9D"/>
<path d="M285.668 95.6094C285.668 95.6094 286.986 104.086 286.105 107.441C285.225 110.795 278.044 119.272 278.044 119.272L268.244 113.134L274.695 97.1016L285.668 95.6094Z" fill="#FFBF9D"/>
<path d="M276.602 74.5721C276.602 74.5721 270.992 74.6507 270.897 81.663C270.802 88.6753 272.328 98.0549 272.328 98.0549L286.689 95.5249C286.689 95.5249 284.905 82.4708 283.385 78.6954C281.864 74.92 278.93 73.9326 276.602 74.5721Z" fill="#016CDE"/>
<path d="M273.932 69.5234L274.112 70.6454C274.112 70.6454 281.786 75.6943 282.218 77.0238C282.891 79.0545 281.427 96.1926 280.776 101.051C280.125 105.909 280.002 116.612 280.002 116.612C280.596 117.935 280.995 119.337 281.186 120.775C281.36 122.52 280.002 124.107 280.002 124.107C271.767 126.794 261.708 124.735 250.831 122.25L250.937 119.17L254.494 85.6573C254.494 85.6573 253.456 76.9509 257.703 74.4376C258.168 74.1628 261.877 72.0591 261.877 72.0591L273.932 69.5234Z" fill="#016CDE"/>
<g opacity="0.3">
<path d="M261.596 84.053C261.476 87.6371 260.615 91.1575 259.066 94.3919C257.478 97.7518 255.29 100.794 252.609 103.368L253.765 93.3429L261.596 84.053Z" fill="black"/>
</g>
<path d="M255.15 75.5876C256.497 74.4993 258.999 73.9047 260.424 74.8864C261.218 75.3823 261.827 76.1254 262.157 77.0013C263.375 80.5636 262.645 84.3951 261.675 87.2337C260.704 90.0722 255.986 95.5587 255.986 95.5587L244.346 88.4903L252.946 78.0672C253.615 77.1847 254.352 76.3557 255.15 75.5876Z" fill="#016CDE"/>
<path d="M255.15 75.5876C255.064 75.6502 254.982 75.7177 254.904 75.7896C254.678 75.9941 254.465 76.2114 254.264 76.4403C253.703 77.035 253.013 77.9606 252.054 79.0882L244.267 88.451L244.2 88.5351L244.295 88.5969L255.291 95.2838L255.93 95.6709L256.009 95.7157L256.065 95.6484C257.366 94.1113 258.578 92.563 259.666 91.0035C260.204 90.2448 260.699 89.4563 261.147 88.6417C261.364 88.2424 261.551 87.828 261.708 87.402C261.865 86.9812 261.989 86.5605 262.112 86.1397C263.088 82.7738 263.111 79.5201 262.224 77.0238C262.017 76.4607 261.695 75.9471 261.278 75.5162C260.86 75.0853 260.357 74.7465 259.801 74.5218C259.333 74.3751 258.842 74.318 258.354 74.3535C257.945 74.3745 257.54 74.4423 257.147 74.5554C256.604 74.705 256.085 74.9357 255.61 75.2398C255.44 75.3373 255.282 75.454 255.139 75.5876C255.139 75.5876 255.302 75.4642 255.633 75.2735C256.113 74.9896 256.63 74.7743 257.17 74.634C257.559 74.5298 257.957 74.4677 258.359 74.4489C259.178 74.4345 259.981 74.6811 260.65 75.1531C261.32 75.6251 261.822 76.2979 262.084 77.0743C262.942 79.537 262.903 82.7738 261.927 86.0893C261.804 86.5044 261.68 86.9251 261.523 87.3346C261.365 87.7495 261.177 88.1525 260.962 88.5408C260.512 89.3491 260.018 90.1319 259.481 90.8857C258.398 92.434 257.187 93.9767 255.896 95.5082H256.031L255.392 95.1211L244.385 88.451V88.5969L252.104 79.1836C253.052 78.0616 253.754 77.1023 254.275 76.5021C254.533 76.1991 254.746 75.9747 254.892 75.8345C254.985 75.7594 255.071 75.6768 255.15 75.5876Z" fill="#263238"/>
<path d="M282.369 80.9282C282.351 80.9941 282.34 81.0619 282.336 81.1302C282.336 81.2873 282.336 81.4836 282.285 81.6912C282.246 82.2521 282.19 82.959 282.128 83.8453C282.01 85.691 281.853 88.1873 281.679 90.9474C281.505 93.7074 281.303 96.2319 281.118 98.0438C281.034 98.9302 280.967 99.6538 280.916 100.192C280.916 100.428 280.883 100.619 280.866 100.753C280.849 100.888 280.866 100.961 280.866 100.961C280.889 100.896 280.904 100.828 280.911 100.759C280.911 100.602 280.967 100.411 281.001 100.198C281.073 99.6931 281.169 98.9638 281.27 98.055C281.472 96.2431 281.685 93.7355 281.87 90.9586C282.055 88.1817 282.173 85.6685 282.257 83.8453C282.291 82.9646 282.324 82.2353 282.347 81.6912V81.1302C282.381 81.0012 282.381 80.9282 282.369 80.9282Z" fill="#263238"/>
<path d="M256.626 121.616C256.694 121.652 256.768 121.675 256.845 121.684L257.473 121.841C257.742 121.908 258.079 121.975 258.471 122.048C258.864 122.121 259.313 122.211 259.806 122.284C260.794 122.458 261.983 122.598 263.307 122.721C264.631 122.845 266.112 122.918 267.621 122.935C269.13 122.951 270.617 122.895 271.941 122.805C273.264 122.716 274.454 122.581 275.447 122.418C275.946 122.351 276.389 122.267 276.782 122.194C277.175 122.121 277.511 122.054 277.786 121.986L278.414 121.835L278.627 121.768C278.552 121.767 278.476 121.776 278.403 121.796L277.769 121.902C277.494 121.958 277.158 122.015 276.759 122.076C276.361 122.138 275.924 122.211 275.424 122.267C274.431 122.413 273.248 122.514 271.924 122.609C270.6 122.705 269.152 122.733 267.621 122.721C266.09 122.71 264.642 122.626 263.324 122.531C262.006 122.435 260.816 122.289 259.829 122.138C259.335 122.071 258.887 121.998 258.494 121.93C258.101 121.863 257.765 121.813 257.49 121.756L256.856 121.644C256.78 121.628 256.703 121.619 256.626 121.616Z" fill="#263238"/>
</svg>
