<svg width="304" height="171" viewBox="0 0 304 171" fill="none" xmlns="http://www.w3.org/2000/svg">
<path d="M122.135 130.4C122.664 130.074 123.236 129.822 123.833 129.649L124.173 127.95L127.031 127.878L127.456 129.555C128.062 129.698 128.646 129.923 129.192 130.222L130.632 129.267L132.7 131.237L131.813 132.723C132.138 133.253 132.391 133.825 132.564 134.422L134.263 134.762L134.331 137.616L132.658 138.04C132.514 138.646 132.29 139.23 131.991 139.777L132.947 141.212L130.963 143.285L129.494 142.406C128.964 142.733 128.393 142.987 127.795 143.162L127.456 144.86L124.602 144.933L124.169 143.255C123.563 143.109 122.979 142.883 122.432 142.584L120.996 143.54L118.933 141.556L119.816 140.074C119.49 139.544 119.236 138.973 119.06 138.376L117.361 138.036L117.289 135.178L118.962 134.753C119.109 134.147 119.334 133.563 119.633 133.016L118.678 131.577L120.644 129.509L122.126 130.392L122.135 130.4ZM123.685 134.197C123.268 134.636 122.991 135.189 122.888 135.786C122.785 136.382 122.862 136.996 123.108 137.549C123.354 138.102 123.758 138.57 124.27 138.893C124.782 139.217 125.378 139.381 125.983 139.365C126.589 139.35 127.176 139.156 127.67 138.807C128.165 138.458 128.545 137.97 128.763 137.405C128.98 136.84 129.026 136.223 128.893 135.632C128.76 135.042 128.455 134.504 128.016 134.087C127.426 133.528 126.639 133.227 125.828 133.247C125.016 133.268 124.245 133.609 123.685 134.197Z" fill="#E0E0E0"/>
<path d="M123.685 134.196C123.845 133.998 124.038 133.827 124.254 133.691C124.842 133.301 125.548 133.128 126.25 133.202C126.771 133.254 127.27 133.438 127.702 133.735C128.133 134.032 128.482 134.433 128.717 134.901C128.995 135.458 129.103 136.084 129.027 136.702C128.947 137.368 128.653 137.991 128.19 138.477C127.727 138.963 127.119 139.286 126.458 139.398C126.147 139.458 125.829 139.466 125.515 139.424C125.221 139.386 124.935 139.304 124.666 139.182C124.156 138.953 123.716 138.592 123.392 138.137C123.047 137.652 122.849 137.077 122.822 136.482C122.794 135.887 122.939 135.297 123.239 134.782C123.363 134.56 123.524 134.361 123.714 134.192C123.562 134.392 123.42 134.601 123.29 134.816C122.966 135.416 122.852 136.107 122.967 136.778C123.041 137.24 123.224 137.676 123.502 138.052C123.815 138.485 124.239 138.825 124.729 139.037C125.264 139.269 125.854 139.338 126.428 139.237C127.052 139.126 127.623 138.82 128.06 138.361C128.497 137.903 128.776 137.317 128.857 136.689C128.906 136.394 128.906 136.092 128.857 135.797C128.812 135.513 128.723 135.238 128.594 134.982C128.374 134.532 128.045 134.144 127.636 133.855C127.227 133.567 126.752 133.386 126.254 133.33C125.576 133.251 124.892 133.4 124.309 133.755C123.88 134.001 123.702 134.209 123.685 134.196Z" fill="#E0E0E0"/>
<path d="M122.134 130.401L122.041 130.354L121.756 130.192L120.639 129.543H120.673L118.715 131.619V131.564L119.679 132.999V133.025V133.05C119.383 133.595 119.16 134.176 119.017 134.779V134.813H118.983L117.31 135.237L117.373 135.187C117.399 136.087 117.424 137.038 117.45 138.04L117.395 137.977L119.093 138.312H119.136V138.355C119.308 138.952 119.559 139.523 119.883 140.053L119.909 140.091L119.883 140.134L119.004 141.616V141.518L121.077 143.485H120.975L122.41 142.529L122.453 142.499L122.499 142.525C123.034 142.818 123.605 143.04 124.198 143.183H124.249V143.234C124.38 143.756 124.525 144.33 124.674 144.907L124.584 144.843L127.442 144.771L127.357 144.839C127.464 144.304 127.582 143.727 127.697 143.141V143.085H127.748C128.345 142.914 128.916 142.664 129.447 142.342L129.493 142.317L129.54 142.342C130.037 142.639 130.53 142.937 131.022 143.225H130.912L132.882 141.157V141.264L131.927 139.828L131.897 139.786L131.923 139.739C132.217 139.204 132.439 138.633 132.585 138.04V137.989H132.632L134.309 137.565L134.245 137.645C134.22 136.671 134.197 135.72 134.178 134.792L134.241 134.868L132.543 134.528H132.496V134.482C132.323 133.885 132.072 133.314 131.748 132.783V132.745V132.702L132.636 131.224V131.314L130.572 129.339H130.653L129.217 130.29L129.183 130.311H129.149C128.615 130.015 128.044 129.79 127.451 129.645H127.417V129.611C127.264 129.003 127.128 128.451 126.992 127.933L127.043 127.976L124.185 128.031L124.223 128.001C124.083 128.676 123.969 129.228 123.875 129.7C123.426 129.829 122.989 130 122.571 130.209L122.266 130.375L122.164 130.426L122.261 130.362C122.325 130.32 122.423 130.26 122.559 130.184C122.973 129.961 123.408 129.78 123.858 129.645V129.666L124.185 127.967V127.937H124.168L127.022 127.853H127.064V127.891C127.196 128.409 127.336 128.957 127.489 129.564L127.447 129.521C128.06 129.667 128.651 129.892 129.205 130.192H129.137L130.572 129.233L130.615 129.203L130.657 129.241L132.729 131.203L132.772 131.246L132.742 131.297C132.453 131.776 132.16 132.269 131.859 132.779V132.698C132.186 133.229 132.443 133.8 132.623 134.397L132.564 134.341L134.262 134.681H134.326V134.762C134.352 135.692 134.373 136.643 134.398 137.616V137.684H134.33L132.657 138.108L132.721 138.045C132.576 138.658 132.349 139.25 132.046 139.803V139.713L133.001 141.153L133.039 141.208L132.993 141.259L131.022 143.327L130.976 143.378L130.916 143.344L129.434 142.461H129.523C128.985 142.791 128.405 143.047 127.799 143.221L127.863 143.158C127.744 143.739 127.629 144.313 127.523 144.856V144.924H127.455L124.597 144.992H124.529V144.928L124.104 143.255L124.168 143.315C123.555 143.166 122.964 142.938 122.41 142.635H122.495L121.06 143.591L121.004 143.629L120.958 143.582L118.89 141.612L118.843 141.569L118.877 141.514L119.764 140.032V140.113C119.435 139.575 119.179 138.995 119.004 138.389L119.059 138.439L117.361 138.1H117.31V138.045C117.31 137.042 117.267 136.087 117.246 135.191V135.14H117.293L118.97 134.715L118.928 134.758C119.076 134.148 119.304 133.561 119.607 133.012V133.063L118.647 131.611L118.626 131.581L118.652 131.556L120.635 129.496L121.726 130.167L122.007 130.341L122.134 130.401Z" fill="#E0E0E0"/>
<path d="M108.677 112.147C109.241 111.8 109.849 111.53 110.486 111.345L110.851 109.544L113.887 109.468L114.337 111.251C114.983 111.406 115.606 111.646 116.189 111.965L117.718 110.946L119.918 113.039L118.979 114.619C119.326 115.185 119.596 115.795 119.782 116.432L121.582 116.793L121.659 119.83L119.875 120.28C119.721 120.926 119.481 121.549 119.162 122.131L120.181 123.66L118.087 125.843L116.524 124.921C115.959 125.27 115.349 125.54 114.711 125.724L114.35 127.525L111.314 127.601L110.864 125.817C110.217 125.663 109.595 125.423 109.012 125.104L107.483 126.123L105.284 124.03L106.205 122.446C105.857 121.88 105.587 121.27 105.402 120.632L103.602 120.271L103.525 117.235L105.309 116.785C105.464 116.139 105.702 115.517 106.018 114.933L105.003 113.404L107.097 111.205L108.677 112.143V112.147ZM110.324 116.186C109.88 116.653 109.584 117.242 109.474 117.878C109.364 118.513 109.445 119.167 109.706 119.757C109.968 120.346 110.399 120.845 110.944 121.19C111.489 121.535 112.124 121.71 112.769 121.694C113.413 121.678 114.039 121.471 114.566 121.1C115.093 120.728 115.499 120.209 115.731 119.607C115.963 119.005 116.011 118.348 115.87 117.719C115.728 117.089 115.403 116.516 114.936 116.071C114.309 115.476 113.471 115.153 112.607 115.175C111.742 115.196 110.921 115.56 110.324 116.186Z" fill="#F5F5F5"/>
<path d="M110.324 116.186C110.495 115.975 110.698 115.793 110.927 115.647C111.555 115.236 112.304 115.053 113.051 115.129C113.769 115.205 114.443 115.511 114.972 116.003C115.501 116.495 115.857 117.145 115.985 117.855C116.047 118.187 116.055 118.527 116.011 118.862C115.923 119.57 115.609 120.232 115.117 120.749C114.625 121.266 113.979 121.611 113.276 121.733C112.945 121.795 112.606 121.802 112.273 121.754C111.952 121.718 111.638 121.632 111.343 121.499C110.799 121.254 110.329 120.871 109.98 120.386C109.68 119.964 109.484 119.476 109.407 118.964C109.296 118.22 109.446 117.46 109.832 116.815C109.963 116.578 110.134 116.366 110.337 116.186C110.184 116.401 110.042 116.624 109.912 116.853C109.568 117.492 109.445 118.227 109.564 118.942C109.646 119.431 109.841 119.893 110.133 120.293C110.466 120.75 110.913 121.111 111.428 121.342C111.698 121.466 111.984 121.552 112.278 121.597C112.594 121.638 112.916 121.628 113.229 121.567C113.893 121.45 114.502 121.124 114.967 120.635C115.432 120.147 115.728 119.522 115.811 118.853C115.855 118.539 115.848 118.219 115.79 117.906C115.74 117.611 115.645 117.324 115.509 117.057C115.261 116.541 114.878 116.1 114.401 115.783C113.89 115.447 113.294 115.264 112.683 115.254C112.071 115.244 111.47 115.409 110.949 115.728C110.528 115.983 110.341 116.203 110.324 116.186Z" fill="#F5F5F5"/>
<path d="M108.677 112.148C108.641 112.136 108.607 112.119 108.575 112.097L108.274 111.923L107.085 111.235H107.118C106.588 111.804 105.887 112.552 105.038 113.452V113.392L106.061 114.917V114.942V114.972C105.745 115.551 105.51 116.169 105.36 116.811V116.845H105.322L103.543 117.299L103.594 117.231C103.619 118.191 103.646 119.205 103.674 120.272L103.615 120.2L105.42 120.561H105.462V120.603C105.645 121.234 105.912 121.836 106.256 122.395L106.282 122.438L106.256 122.48L105.318 124.06V123.954L107.522 126.047H107.416L108.945 125.028L108.987 124.998L109.034 125.024C109.609 125.34 110.225 125.576 110.864 125.725H110.915V125.78C111.059 126.336 111.212 126.948 111.369 127.559L111.276 127.491L114.317 127.415L114.227 127.491C114.342 126.922 114.465 126.306 114.588 125.686V125.631H114.644C115.272 125.447 115.873 125.18 116.431 124.837L116.478 124.807L116.525 124.837L118.105 125.776H117.99L120.084 123.576V123.69L119.064 122.162L119.035 122.115L119.06 122.064C119.376 121.49 119.614 120.876 119.765 120.238V120.187H119.82L121.6 119.737L121.536 119.826C121.51 118.786 121.485 117.775 121.464 116.785L121.532 116.87L119.731 116.505H119.68V116.458C119.497 115.828 119.23 115.225 118.886 114.666L118.861 114.624L118.886 114.581C119.213 114.042 119.523 113.515 119.833 113.006V113.104L117.667 110.98H117.756L116.223 111.995L116.189 112.016L116.155 111.995C115.579 111.68 114.964 111.441 114.325 111.286H114.287V111.248C114.125 110.602 113.981 110.016 113.862 109.464L113.917 109.507L110.877 109.57L110.915 109.536L110.541 111.337C110.064 111.474 109.6 111.656 109.157 111.881L108.83 112.055C108.797 112.078 108.762 112.097 108.724 112.11L108.826 112.042C108.894 111.999 108.996 111.931 109.144 111.855C109.583 111.615 110.046 111.422 110.524 111.278V111.303C110.618 110.81 110.732 110.22 110.873 109.498V109.464H110.907L113.947 109.375H113.99V109.417L114.402 111.235L114.359 111.193C115.01 111.344 115.637 111.584 116.223 111.906H116.155L117.68 110.887L117.731 110.853L117.769 110.895C118.47 111.554 119.2 112.25 119.977 112.985L120.02 113.027L119.99 113.082C119.684 113.592 119.374 114.119 119.052 114.662V114.577C119.403 115.149 119.677 115.764 119.867 116.407L119.803 116.348L121.604 116.709H121.672V116.777C121.697 117.766 121.723 118.777 121.752 119.818V119.898L121.685 119.919L119.901 120.37L119.969 120.302C119.814 120.956 119.571 121.586 119.247 122.174V122.081C119.587 122.586 119.922 123.096 120.266 123.61L120.309 123.669L120.258 123.724L118.16 125.924L118.109 125.979L118.045 125.941L116.461 124.994H116.555C115.983 125.344 115.368 125.617 114.724 125.805L114.788 125.733C114.665 126.353 114.542 126.965 114.427 127.534V127.606H114.355L111.314 127.678H111.242V127.606C111.085 126.99 110.932 126.383 110.792 125.822L110.86 125.89C110.207 125.733 109.577 125.49 108.987 125.168H109.08L107.547 126.183L107.492 126.222L107.441 126.175L105.241 124.077L105.195 124.03L105.229 123.975L106.171 122.395V122.48C105.823 121.909 105.551 121.293 105.365 120.65L105.424 120.701L103.619 120.336H103.564V120.276C103.539 119.21 103.517 118.191 103.496 117.236V117.185H103.547L105.331 116.76L105.288 116.802C105.445 116.153 105.688 115.528 106.01 114.942V114.998L104.995 113.465V113.435L105.021 113.405L107.144 111.218H107.165L108.329 111.927L108.626 112.114L108.677 112.148Z" fill="#F5F5F5"/>
<path d="M137.023 128.391L136.331 125.644C135.336 125.408 134.377 125.04 133.481 124.548L131.12 126.119L127.723 122.879L129.171 120.45C128.637 119.579 128.222 118.641 127.935 117.66L125.153 117.104L125.018 112.394L127.761 111.698C127.999 110.704 128.369 109.747 128.861 108.853L127.29 106.491L130.526 103.094L132.955 104.542C133.825 104.008 134.764 103.592 135.745 103.306L136.301 100.525L140.998 100.41L141.69 103.154C142.685 103.39 143.643 103.76 144.539 104.253L146.901 102.678L150.298 105.918L148.85 108.347C149.385 109.218 149.801 110.156 150.086 111.137L152.867 111.694L152.982 116.39L150.239 117.083C150.001 118.077 149.631 119.036 149.139 119.932L150.71 122.293L147.474 125.691L145.045 124.242C144.173 124.776 143.235 125.191 142.255 125.478L141.698 128.26L137.023 128.391ZM133.481 124.523C134.379 125.016 135.339 125.386 136.335 125.623L137.031 128.366L141.703 128.251L142.263 125.474C143.246 125.19 144.186 124.774 145.058 124.238L147.487 125.686L150.71 122.289L149.143 119.932C149.636 119.034 150.006 118.075 150.243 117.078L152.986 116.382L152.871 111.711L150.094 111.154C149.81 110.171 149.394 109.231 148.858 108.36L150.306 105.931L146.909 102.708L144.552 104.275C143.655 103.782 142.695 103.412 141.698 103.175L141.002 100.431L136.331 100.546L135.791 103.336C134.808 103.62 133.869 104.036 132.997 104.572L130.538 103.107L127.315 106.504L128.882 108.861C128.389 109.759 128.019 110.719 127.782 111.715L125.039 112.407L125.153 117.078L127.931 117.639C128.216 118.621 128.631 119.561 129.167 120.433L127.735 122.871L131.133 126.094L133.481 124.523ZM139.176 119.282C137.771 119.266 136.431 118.694 135.446 117.692C134.462 116.689 133.915 115.339 133.923 113.934C133.931 112.529 134.495 111.185 135.491 110.195C136.488 109.205 137.835 108.649 139.24 108.649C140.644 108.649 141.992 109.205 142.988 110.195C143.984 111.185 144.548 112.529 144.556 113.934C144.565 115.339 144.017 116.689 143.033 117.692C142.049 118.694 140.708 119.266 139.303 119.282H139.176ZM135.532 110.789C134.851 111.5 134.393 112.395 134.217 113.364C134.041 114.333 134.154 115.333 134.541 116.238C134.929 117.143 135.574 117.915 136.396 118.456C137.219 118.997 138.183 119.285 139.167 119.282H139.295C140.603 119.232 141.84 118.672 142.742 117.723C143.645 116.774 144.14 115.51 144.124 114.201C144.108 112.891 143.582 111.64 142.656 110.713C141.731 109.786 140.481 109.257 139.172 109.239H139.044C138.385 109.254 137.735 109.399 137.132 109.667C136.53 109.934 135.986 110.319 135.532 110.798V110.789Z" fill="#E0E0E0"/>
<path d="M135.532 110.781C135.795 110.448 136.111 110.161 136.466 109.931C137.432 109.294 138.59 109.012 139.74 109.133C140.598 109.218 141.42 109.52 142.129 110.009C142.838 110.499 143.412 111.16 143.796 111.931C144.024 112.375 144.183 112.85 144.267 113.341C144.363 113.851 144.376 114.373 144.306 114.887C144.172 115.981 143.689 117.002 142.93 117.801C142.17 118.599 141.174 119.132 140.089 119.321C139.084 119.492 138.051 119.367 137.116 118.96C136.266 118.588 135.533 117.994 134.993 117.24C134.424 116.441 134.099 115.495 134.054 114.516C134.01 113.537 134.249 112.566 134.742 111.719C134.948 111.356 135.212 111.029 135.524 110.751C135.553 110.772 135.222 111.082 134.84 111.774C134.308 112.761 134.122 113.897 134.309 115.002C134.443 115.811 134.779 116.575 135.285 117.221C135.791 117.867 136.451 118.376 137.205 118.701C138.093 119.086 139.076 119.2 140.029 119.028C141.054 118.847 141.994 118.343 142.712 117.59C143.429 116.836 143.887 115.873 144.017 114.84C144.084 114.353 144.074 113.859 143.987 113.375C143.916 112.91 143.772 112.459 143.562 112.038C143.202 111.302 142.664 110.669 141.997 110.195C141.329 109.721 140.553 109.421 139.74 109.324C138.628 109.191 137.504 109.434 136.547 110.016C135.851 110.462 135.557 110.806 135.532 110.781Z" fill="#EBEBEB"/>
<path d="M132.99 104.547C132.935 104.525 132.882 104.498 132.833 104.466L132.366 104.203L130.54 103.137H130.599L127.384 106.534V106.445C127.86 107.158 128.395 107.953 128.964 108.798L128.99 108.84V108.887C128.503 109.778 128.138 110.731 127.907 111.719V111.775H127.851L125.104 112.475L125.18 112.373C125.218 113.851 125.261 115.418 125.308 117.045L125.214 116.938L127.996 117.491H128.068L128.089 117.563C128.375 118.534 128.787 119.464 129.316 120.327L129.359 120.391L129.321 120.455C128.871 121.211 128.374 122.043 127.873 122.892L127.847 122.731L131.244 125.963H131.079L133.436 124.391L133.508 124.345L133.58 124.387C134.468 124.871 135.416 125.235 136.4 125.47H136.481L136.502 125.555C136.723 126.404 136.96 127.356 137.198 128.303L137.058 128.196L141.729 128.077L141.594 128.192C141.772 127.313 141.959 126.366 142.15 125.415V125.326L142.235 125.304C143.205 125.021 144.133 124.61 144.995 124.081L145.072 124.035L145.148 124.077L147.581 125.529L147.403 125.555L150.635 122.158V122.336L149.063 119.975L149.017 119.903L149.059 119.83C149.545 118.943 149.91 117.995 150.146 117.011L150.168 116.93L150.248 116.909L152.996 116.217L152.894 116.352C152.854 114.753 152.818 113.196 152.784 111.681L152.89 111.804L150.108 111.244H150.032L150.01 111.172C149.728 110.21 149.321 109.289 148.8 108.432L148.758 108.369L148.796 108.305L150.253 105.872L150.274 106.02L146.876 102.78H147.017L144.651 104.343L144.6 104.377L144.545 104.347C143.657 103.858 142.707 103.489 141.721 103.251H141.662V103.196C141.411 102.194 141.19 101.294 140.978 100.444L141.063 100.508L136.37 100.602L136.434 100.551C136.205 101.659 136.009 102.568 135.856 103.328V103.336H135.827C135.093 103.551 134.382 103.836 133.703 104.186L133.198 104.453C133.146 104.488 133.09 104.516 133.032 104.538C133.032 104.538 133.088 104.5 133.189 104.432C133.291 104.364 133.457 104.266 133.682 104.143C134.357 103.775 135.069 103.477 135.805 103.256L135.776 103.29C135.92 102.534 136.098 101.621 136.315 100.508V100.457H136.366L141.059 100.321H141.126V100.389L141.827 103.137L141.759 103.065C142.764 103.304 143.732 103.675 144.638 104.169H144.532L146.889 102.589L146.961 102.542L147.025 102.602L150.422 105.829L150.49 105.897L150.444 105.978L148.996 108.432V108.301C149.544 109.182 149.973 110.134 150.27 111.129L150.168 111.036L152.949 111.592L153.055 111.613V111.719C153.092 113.242 153.133 114.8 153.178 116.391V116.501L153.072 116.527L150.325 117.227L150.427 117.121C150.186 118.13 149.812 119.103 149.314 120.013V119.864L150.885 122.226L150.949 122.319L150.868 122.4L147.637 125.797L147.556 125.878L147.458 125.823L145.025 124.37H145.169C144.286 124.911 143.335 125.332 142.341 125.623L142.443 125.512C142.252 126.468 142.061 127.415 141.882 128.294V128.404H141.768L137.096 128.515H136.91L136.884 128.404C136.642 127.457 136.408 126.519 136.188 125.657L136.294 125.759C135.286 125.515 134.315 125.14 133.406 124.642H133.546L131.185 126.209L131.096 126.268L131.019 126.196L127.622 122.956L127.546 122.884L127.601 122.799L129.053 120.366V120.493C128.513 119.61 128.095 118.659 127.809 117.665L127.898 117.75L125.121 117.185H125.032V117.096C124.998 115.448 124.959 113.881 124.93 112.424V112.344L125.01 112.322L127.762 111.639L127.69 111.707C127.941 110.695 128.328 109.722 128.841 108.815V108.9L127.282 106.534L127.248 106.487L127.291 106.445L130.544 103.048L130.569 103.022H130.599L132.395 104.122L132.854 104.411C132.903 104.452 132.948 104.498 132.99 104.547Z" fill="#EBEBEB"/>
<path d="M232.241 81.453C231.76 81.7475 231.242 81.9761 230.7 82.1325L230.394 83.6655L227.812 83.7292L227.43 82.2174C226.882 82.0851 226.353 81.8809 225.859 81.6101L224.559 82.4595L222.691 80.6759L223.489 79.3382C223.195 78.8571 222.966 78.3386 222.81 77.7966L221.277 77.4909L221.213 74.9089L222.729 74.5267C222.86 73.9786 223.062 73.4502 223.332 72.9554L222.483 71.6559L224.266 69.7874L225.604 70.5858C226.085 70.2912 226.604 70.0627 227.145 69.9063L227.451 68.3733L230.033 68.3096L230.415 69.8256C230.964 69.9557 231.492 70.1585 231.987 70.4287L233.286 69.5793L235.155 71.3629L234.356 72.7006C234.651 73.1817 234.879 73.7002 235.036 74.2422L236.569 74.5479L236.633 77.1299L235.116 77.5121C234.986 78.0604 234.784 78.5888 234.513 79.0834L235.363 80.3828L233.579 82.2514L232.241 81.453ZM230.84 78.0217C231.217 77.6249 231.469 77.1251 231.562 76.5855C231.655 76.046 231.586 75.4909 231.364 74.9904C231.142 74.4899 230.777 74.0666 230.314 73.7738C229.851 73.4811 229.312 73.3321 228.765 73.3458C228.217 73.3594 227.686 73.5351 227.238 73.8505C226.791 74.166 226.447 74.607 226.25 75.118C226.053 75.6289 226.012 76.1868 226.132 76.721C226.252 77.2552 226.528 77.7419 226.925 78.1194C227.188 78.3701 227.498 78.5665 227.838 78.6973C228.177 78.8281 228.539 78.8908 228.903 78.8817C229.266 78.8726 229.624 78.792 229.957 78.6445C230.289 78.4969 230.589 78.2853 230.84 78.0217Z" fill="#E0E0E0"/>
<path d="M230.84 78.0222C230.696 78.2027 230.522 78.3577 230.326 78.4809C229.873 78.771 229.346 78.9252 228.808 78.9252C228.27 78.9252 227.743 78.771 227.29 78.4809C226.865 78.2049 226.52 77.821 226.292 77.3682C226.166 77.1241 226.079 76.862 226.033 76.5911C225.982 76.3108 225.974 76.0243 226.012 75.7418C226.085 75.1397 226.351 74.5773 226.769 74.1382C227.188 73.6991 227.737 73.4066 228.335 73.3042C228.615 73.2506 228.902 73.2434 229.184 73.2829C229.457 73.3157 229.723 73.3902 229.974 73.5038C230.437 73.7093 230.837 74.0347 231.133 74.4465C231.389 74.8062 231.556 75.2207 231.622 75.6568C231.72 76.2866 231.595 76.9309 231.269 77.4786C231.159 77.6799 231.015 77.8608 230.844 78.0137C230.844 78.0137 231.01 77.8311 231.222 77.4489C231.514 76.906 231.617 76.2816 231.515 75.6738C231.439 75.2282 231.254 74.8085 230.975 74.4526C230.696 74.0967 230.333 73.8159 229.919 73.6354C229.429 73.4273 228.889 73.3654 228.364 73.4571C227.8 73.5568 227.283 73.8344 226.888 74.2493C226.493 74.6642 226.241 75.1946 226.169 75.763C226.126 76.0303 226.126 76.3026 226.169 76.5699C226.212 76.8257 226.293 77.0734 226.411 77.3045C226.579 77.6439 226.816 77.9444 227.107 78.187C227.398 78.4296 227.736 78.609 228.1 78.7137C228.464 78.8184 228.846 78.8461 229.221 78.795C229.596 78.744 229.957 78.6153 230.28 78.4172C230.474 78.2959 230.661 78.1641 230.84 78.0222Z" fill="#E0E0E0"/>
<path d="M232.242 81.4532C232.272 81.4638 232.3 81.4781 232.327 81.4956L232.586 81.6443L233.592 82.2303H233.562L235.333 80.349V80.4042L234.458 79.1302V79.1048V79.0835C234.726 78.5911 234.927 78.0657 235.057 77.5208V77.491H235.087L236.603 77.1046L236.561 77.1598C236.535 76.3487 236.514 75.4866 236.488 74.5778L236.539 74.6373L235.006 74.3358H234.968V74.2975C234.809 73.7632 234.581 73.2521 234.289 72.7772L234.267 72.739L234.289 72.705L235.087 71.3631V71.4523L233.214 69.6729H233.303L232.008 70.5223L231.97 70.5477H231.927C231.439 70.2813 230.918 70.08 230.377 69.949H230.331V69.9023C230.212 69.4266 230.08 68.9128 229.949 68.3904L230.025 68.4499L227.443 68.5136L227.519 68.4499C227.422 68.934 227.32 69.4563 227.214 69.9787V70.0254H227.167C226.632 70.1783 226.12 70.4041 225.647 70.6964L225.604 70.7219L225.566 70.6964L224.224 69.898H224.322L222.542 71.7665V71.6689L223.392 72.9683L223.417 73.0066L223.396 73.049C223.128 73.5366 222.927 74.0579 222.797 74.5991V74.6458H222.75L221.239 75.0237L221.294 74.9515C221.314 75.8292 221.333 76.6898 221.353 77.5335L221.298 77.4613L222.827 77.7713H222.869V77.8138C223.024 78.3484 223.249 78.8597 223.54 79.3341L223.562 79.3723L223.54 79.4063C223.264 79.8649 223.001 80.3108 222.738 80.744V80.6633L224.602 82.4469H224.526L225.829 81.5976L225.859 81.5763H225.889C226.378 81.8458 226.901 82.05 227.443 82.1836H227.473V82.2176C227.609 82.7654 227.732 83.2622 227.851 83.7294L227.804 83.6954L230.386 83.6402L230.352 83.6699C230.479 83.0584 230.581 82.5616 230.666 82.1411C231.072 82.0234 231.466 81.8685 231.843 81.6782L232.119 81.5296C232.148 81.5105 232.179 81.4949 232.212 81.4829L232.127 81.5424L231.855 81.6995C231.482 81.9037 231.087 82.0675 230.679 82.1879L230.382 83.7166V83.7464H230.352L227.77 83.8228H227.787V83.7888C227.668 83.3175 227.541 82.8248 227.401 82.277L227.439 82.311C226.877 82.1756 226.337 81.9626 225.834 81.6782H225.893L224.594 82.5276L224.555 82.5531L224.521 82.5191L222.644 80.744L222.606 80.7058L222.636 80.6591L223.43 79.3214V79.3893C223.132 78.9044 222.9 78.3816 222.742 77.835L222.793 77.886L221.264 77.5802H221.205V77.5208C221.183 76.6714 221.162 75.8221 221.137 74.943V74.8836H221.196L222.691 74.4589L222.636 74.5141C222.769 73.9589 222.975 73.4236 223.247 72.9216V73.0023L222.398 71.7283L222.364 71.6731L222.406 71.6306L224.186 69.7579L224.228 69.7112L224.283 69.7451L225.625 70.5435H225.545C226.03 70.2458 226.553 70.0144 227.099 69.8555L227.044 69.915L227.354 68.3862V68.3225H227.418L229.995 68.2588H230.059V68.3182C230.191 68.8406 230.318 69.3587 230.437 69.8301L230.382 69.7749C230.937 69.907 231.471 70.1141 231.97 70.3906H231.894L233.193 69.5413L233.244 69.5073L233.286 69.5498L235.155 71.3334L235.193 71.3716L235.163 71.4183C234.887 71.8854 234.611 72.3441 234.365 72.756V72.6881C234.661 73.1733 234.891 73.6961 235.049 74.2423L234.998 74.1999L236.531 74.5099H236.578V74.5608C236.578 75.4654 236.616 76.3275 236.633 77.1428V77.1853H236.59L235.074 77.5632L235.112 77.525C234.979 78.0761 234.773 78.6073 234.501 79.1048V79.0581L235.35 80.3575V80.3873L235.325 80.4085C234.599 81.1687 233.996 81.7929 233.537 82.2685L232.581 81.6782L232.327 81.5211L232.242 81.4532Z" fill="#E0E0E0"/>
<path d="M210.376 74.9297L210.992 77.3588C211.871 77.5711 212.719 77.8981 213.514 78.3313L215.603 76.9384L218.619 79.8091L217.345 81.9622C217.817 82.7328 218.185 83.5624 218.44 84.4295L220.903 84.9263L221.005 89.0881L218.568 89.7463C218.356 90.6263 218.029 91.4745 217.595 92.2688L218.988 94.3624L216.117 97.3775L213.964 96.1035C213.193 96.5783 212.362 96.9468 211.493 97.1992L211 99.6665L206.838 99.7684L206.223 97.3393C205.344 97.1276 204.497 96.8006 203.704 96.3668L201.611 97.7597L198.596 94.889L199.87 92.7359C199.396 91.965 199.029 91.1336 198.778 90.2644L196.311 89.7718L196.209 85.6143L198.642 85.0028C198.85 84.1221 199.176 83.2736 199.611 82.4803L198.222 80.3866L201.088 77.3715L203.237 78.6455C204.009 78.1746 204.841 77.8077 205.709 77.5541L206.206 75.0868L210.376 74.9297ZM213.514 78.3567C212.719 77.9197 211.869 77.5912 210.987 77.38L210.376 74.9467L206.235 75.0486L205.738 77.5117C204.869 77.7667 204.036 78.135 203.263 78.6073L201.11 77.3333L198.252 80.3357L199.645 82.4251C199.211 83.2209 198.884 84.0705 198.672 84.9518L196.243 85.5676L196.345 89.7081L198.804 90.2007C199.055 91.0717 199.424 91.9046 199.899 92.6765L198.625 94.8295L201.628 97.6833L203.713 96.2947C204.507 96.7321 205.357 97.0593 206.24 97.2671L206.851 99.6962L210.996 99.5943L211.488 97.1312C212.358 96.8763 213.191 96.5079 213.964 96.0356L216.113 97.3096L218.971 94.3072L217.595 92.2476C218.031 91.4526 218.358 90.6028 218.568 89.7208L220.997 89.105L220.895 84.9645L218.432 84.4719C218.178 83.601 217.808 82.7683 217.332 81.9961L218.606 79.8431L215.603 76.9893L213.514 78.3567ZM208.469 83.0026C209.614 83.0172 210.707 83.4842 211.509 84.3016C212.311 85.119 212.757 86.2206 212.75 87.3657C212.742 88.5108 212.282 89.6066 211.47 90.4137C210.658 91.2209 209.559 91.6739 208.414 91.6739C207.269 91.6739 206.17 91.2209 205.358 90.4137C204.545 89.6066 204.085 88.5108 204.078 87.3657C204.071 86.2206 204.517 85.119 205.319 84.3016C206.121 83.4842 207.214 83.0172 208.359 83.0026H208.469ZM211.697 90.5404C212.296 89.9095 212.698 89.1167 212.851 88.26C213.005 87.4033 212.904 86.5203 212.561 85.7203C212.218 84.9204 211.648 84.2386 210.921 83.7593C210.195 83.2801 209.344 83.0243 208.473 83.0238H208.363C207.777 83.0308 207.199 83.153 206.661 83.3836C206.122 83.6141 205.635 83.9484 205.225 84.3674C204.399 85.2136 203.943 86.3533 203.957 87.5359C203.971 88.7185 204.454 89.8471 205.301 90.6733C206.147 91.4996 207.286 91.9559 208.469 91.9418H208.579C209.165 91.9293 209.741 91.8008 210.276 91.5639C210.811 91.327 211.294 90.9864 211.697 90.5617V90.5404Z" fill="#E0E0E0"/>
<path d="M211.701 90.5413C211.47 90.8305 211.191 91.0788 210.878 91.276C210.02 91.8406 208.994 92.0912 207.973 91.9852C207.214 91.9094 206.486 91.6426 205.858 91.2097C205.23 90.7767 204.721 90.1918 204.38 89.5094C204.175 89.1176 204.032 88.6965 203.955 88.2609C203.872 87.8083 203.86 87.3453 203.921 86.8892C204.04 85.92 204.468 85.0148 205.141 84.3074C205.814 83.6 206.697 83.1279 207.659 82.961C208.111 82.8777 208.574 82.8663 209.03 82.927C209.47 82.9787 209.9 83.0976 210.304 83.2795C211.053 83.6101 211.699 84.1369 212.173 84.8041C212.676 85.5097 212.964 86.3456 213.003 87.2112C213.043 88.0768 212.831 88.9353 212.394 89.6835C212.211 90.0026 211.977 90.2895 211.701 90.5328C211.919 90.2406 212.122 89.9372 212.309 89.624C212.781 88.7523 212.947 87.7475 212.78 86.7703C212.661 86.0519 212.363 85.3749 211.914 84.8014C211.465 84.2279 210.879 83.7762 210.211 83.4876C209.423 83.1512 208.554 83.0508 207.71 83.1988C206.803 83.3607 205.971 83.8081 205.336 84.4758C204.701 85.1435 204.297 85.9965 204.181 86.9104C204.119 87.3421 204.127 87.781 204.206 88.2099C204.272 88.6227 204.402 89.0226 204.592 89.3947C204.914 90.0465 205.393 90.6077 205.986 91.0274C206.58 91.4471 207.268 91.7121 207.99 91.7983C208.974 91.9155 209.97 91.7003 210.818 91.1868C211.124 90.9881 211.419 90.7726 211.701 90.5413Z" fill="#EBEBEB"/>
<path d="M213.956 96.0615L214.096 96.1337L214.521 96.3715L216.147 97.3143H216.096C216.822 96.5371 217.795 95.5179 218.941 94.2864V94.3671L217.54 92.282L217.514 92.2437L217.536 92.2055C217.964 91.4132 218.287 90.5679 218.495 89.6915V89.6448H218.542L220.975 89.0205L220.908 89.1097C220.874 87.8017 220.835 86.4131 220.797 84.9565L220.878 85.0541L218.415 84.5615H218.351V84.5021C218.095 83.6414 217.728 82.8177 217.26 82.0517L217.226 81.9965L217.26 81.9371L218.534 79.7798V79.9199L215.523 77.0619H215.671L213.582 78.4548L213.518 78.493L213.455 78.4591C212.669 78.0288 211.829 77.706 210.958 77.4993H210.885V77.4271C210.694 76.6627 210.461 75.8304 210.27 74.9895L210.393 75.0872L206.24 75.1891L206.363 75.0872L205.866 77.5503V77.6267H205.789C204.931 77.8786 204.11 78.2427 203.348 78.7096L203.284 78.7521L203.216 78.7096L201.033 77.4314L201.19 77.4101L198.319 80.404V80.2469L199.708 82.3363L199.751 82.4L199.717 82.4679C199.284 83.2528 198.959 84.0928 198.753 84.965V85.0372H198.676L196.243 85.6529L196.336 85.5298C196.366 86.9482 196.4 88.3368 196.434 89.6872L196.336 89.5726L198.799 90.0695H198.867L198.889 90.1331C199.138 90.996 199.502 91.8216 199.971 92.5877L200.005 92.6429L199.971 92.7024L198.697 94.8554V94.7238L201.7 97.5945H201.581L203.675 96.2101L203.721 96.1804L203.768 96.2059C204.555 96.6395 205.396 96.9665 206.269 97.1784H206.32V97.2251L206.927 99.6627L206.851 99.6075L211.009 99.5225L210.953 99.5692C211.157 98.5883 211.323 97.7814 211.463 97.1104V97.0849H211.488C212.142 96.8991 212.777 96.6502 213.382 96.3418L213.828 96.104L213.977 96.0275C213.933 96.0643 213.886 96.097 213.837 96.1252C213.743 96.1846 213.602 96.2696 213.412 96.38C212.809 96.7052 212.174 96.9684 211.518 97.1656L211.548 97.1359C211.416 97.8069 211.259 98.6137 211.068 99.599V99.6457H211.026L206.868 99.7688H206.809V99.7094C206.613 98.9577 206.409 98.1593 206.184 97.276L206.244 97.3397C205.355 97.1285 204.498 96.8 203.696 96.363H203.793L201.704 97.7602L201.64 97.8026L201.581 97.7474L198.566 94.8894L198.506 94.83L198.549 94.7578L199.823 92.6005V92.7151C199.343 91.9326 198.969 91.0901 198.71 90.2096L198.799 90.2903L196.336 89.8019L196.243 89.7807V89.6872C196.209 88.3368 196.174 86.9524 196.137 85.534V85.4363L196.23 85.4109L198.663 84.7951L198.574 84.8843C198.787 83.9946 199.118 83.1375 199.56 82.3363V82.4637L198.12 80.404L198.065 80.3191L198.133 80.2469L200.999 77.236L201.067 77.1638L201.156 77.2148L203.314 78.4888H203.182C203.964 78.0086 204.807 77.6344 205.687 77.3762L205.598 77.4738L206.095 75.0108L206.116 74.9131H206.214L210.372 74.8154H210.469L210.495 74.9131C210.707 75.7624 210.919 76.5863 211.11 77.3464L211.017 77.2573C211.906 77.4731 212.763 77.8058 213.565 78.2467H213.438L215.531 76.8581L215.608 76.8071L215.676 76.8708C216.72 77.8645 217.739 78.837 218.682 79.7416L218.75 79.801L218.703 79.8817L217.429 82.0348V81.9201C217.908 82.7021 218.279 83.5448 218.534 84.4256L218.453 84.3534L220.916 84.8503H220.997V84.931C221.031 86.3876 221.06 87.7763 221.09 89.0842V89.1564L221.022 89.1776L218.585 89.7849L218.644 89.7212C218.431 90.6114 218.098 91.4686 217.655 92.2692V92.1885L219.039 94.2864L219.069 94.3289L219.03 94.3671C217.858 95.5859 216.886 96.5923 216.151 97.361H216.126H216.1L214.512 96.3885L214.087 96.1337L213.956 96.0615Z" fill="#EBEBEB"/>
<path d="M189.398 151.748L191.717 167.002H205.205L208.334 151.969L189.398 151.748Z" fill="#EBEBEB"/>
<path d="M206.448 161.515C206.448 161.562 202.996 161.596 198.732 161.596C194.468 161.596 191.012 161.562 191.012 161.515C191.012 161.468 194.468 161.438 198.732 161.438C202.996 161.438 206.448 161.481 206.448 161.515Z" fill="#FAFAFA"/>
<path d="M206.504 160.776C206.504 160.818 203.021 160.852 198.732 160.852C194.443 160.852 190.961 160.818 190.961 160.776C190.961 160.734 194.439 160.695 198.732 160.695C203.026 160.695 206.504 160.729 206.504 160.776Z" fill="#FAFAFA"/>
<path d="M206.474 159.927C206.474 159.97 202.996 160.008 198.707 160.008C194.418 160.008 190.936 159.97 190.936 159.927C190.936 159.885 194.414 159.847 198.707 159.847C203 159.847 206.474 159.885 206.474 159.927Z" fill="#FAFAFA"/>
<path d="M193.266 166.131C193.072 165.504 192.93 164.862 192.841 164.212C192.702 163.57 192.616 162.918 192.582 162.263C192.907 163.533 193.131 164.826 193.253 166.131H193.266Z" fill="#FAFAFA"/>
<path d="M194.184 165.97C194.089 165.35 194.034 164.724 194.019 164.097C193.949 163.472 193.92 162.844 193.93 162.216C194.075 162.829 194.158 163.455 194.176 164.084C194.245 164.711 194.248 165.343 194.184 165.97Z" fill="#FAFAFA"/>
<path d="M195.857 165.97C195.678 165.347 195.563 164.708 195.513 164.063C195.411 163.417 195.377 162.762 195.412 162.109C195.537 162.748 195.624 163.393 195.671 164.042C195.77 164.68 195.832 165.324 195.857 165.97Z" fill="#FAFAFA"/>
<path d="M197.029 166.051C196.9 165.408 196.838 164.753 196.843 164.097C196.796 163.444 196.816 162.789 196.902 162.14C196.975 162.788 197.009 163.441 197.004 164.093C197.053 164.745 197.061 165.398 197.029 166.051Z" fill="#FAFAFA"/>
<path d="M199.109 165.97C199.005 165.359 198.957 164.739 198.964 164.119C198.913 163.5 198.913 162.878 198.964 162.259C199.063 162.872 199.111 163.493 199.109 164.115C199.161 164.732 199.161 165.353 199.109 165.97Z" fill="#FAFAFA"/>
<path d="M200.609 166.051C200.515 164.778 200.525 163.5 200.639 162.229C200.714 162.864 200.736 163.505 200.702 164.144C200.722 164.781 200.691 165.418 200.609 166.051Z" fill="#FAFAFA"/>
<path d="M202.048 165.847C202.034 165.177 202.072 164.507 202.162 163.843C202.201 163.174 202.292 162.51 202.434 161.855C202.452 162.526 202.414 163.196 202.319 163.86C202.281 164.528 202.19 165.193 202.048 165.847Z" fill="#FAFAFA"/>
<path d="M203.883 165.647C203.887 165.073 203.964 164.502 204.112 163.948C204.207 163.381 204.375 162.828 204.613 162.305C204.528 162.87 204.412 163.43 204.265 163.982C204.172 164.544 204.044 165.1 203.883 165.647Z" fill="#FAFAFA"/>
<path d="M202.582 121.644C202.582 121.644 202.582 121.669 202.582 121.72L202.519 121.932L202.26 122.756C202.145 123.113 202.009 123.55 201.865 124.064C201.72 124.578 201.538 125.151 201.381 125.801C201.223 126.451 201.024 127.156 200.854 127.924C200.684 128.693 200.51 129.517 200.332 130.383C200.009 132.124 199.716 134.044 199.508 136.078C199.3 138.112 199.219 140.053 199.194 141.824C199.194 142.707 199.194 143.548 199.215 144.333C199.236 145.119 199.27 145.854 199.312 146.521C199.355 147.187 199.402 147.795 199.444 148.321C199.487 148.848 199.533 149.306 199.576 149.68C199.618 150.054 199.644 150.33 199.665 150.529C199.665 150.619 199.665 150.691 199.665 150.75C199.665 150.81 199.665 150.831 199.665 150.831C199.663 150.805 199.663 150.78 199.665 150.754C199.665 150.695 199.644 150.623 199.631 150.534C199.601 150.326 199.563 150.041 199.512 149.684C199.461 149.328 199.402 148.856 199.355 148.325C199.308 147.795 199.236 147.191 199.198 146.525C199.16 145.858 199.104 145.123 199.083 144.333C199.062 143.544 199.049 142.703 199.045 141.815C199.045 140.044 199.151 138.095 199.351 136.057C199.55 134.018 199.856 132.095 200.2 130.353C200.378 129.483 200.54 128.655 200.735 127.89C200.93 127.126 201.1 126.413 201.279 125.767C201.457 125.122 201.635 124.544 201.788 124.034C201.941 123.525 202.086 123.087 202.213 122.735C202.34 122.382 202.425 122.119 202.497 121.92L202.574 121.707C202.575 121.686 202.578 121.665 202.582 121.644Z" fill="#EBEBEB"/>
<path d="M200.15 131.088C200.523 129.991 201.264 129.056 202.248 128.443C202.402 128.32 202.583 128.237 202.777 128.201C202.97 128.166 203.169 128.179 203.356 128.239C203.828 128.464 203.866 129.127 203.726 129.632C203.483 130.487 202.94 131.225 202.197 131.713C201.54 132.199 200.717 132.407 199.908 132.29" fill="#EBEBEB"/>
<path d="M199.335 137.467C199.683 136.15 200.737 134.282 201.828 133.466C201.993 133.328 202.186 133.225 202.393 133.165C202.496 133.134 202.606 133.13 202.711 133.153C202.817 133.176 202.914 133.226 202.996 133.297C203.09 133.418 203.152 133.562 203.176 133.714C203.2 133.867 203.185 134.022 203.132 134.167C202.909 135.128 202.423 136.008 201.729 136.707C201.034 137.407 200.158 137.9 199.199 138.129" fill="#EBEBEB"/>
<path d="M199.105 143.085C199.645 141.825 200.513 140.734 201.619 139.925C201.737 139.818 201.875 139.734 202.025 139.68C202.176 139.626 202.335 139.603 202.494 139.611C202.97 139.7 203.187 140.282 203.144 140.762C203.059 141.755 202.295 142.554 201.518 143.17C200.799 143.667 200.018 144.068 199.195 144.363" fill="#EBEBEB"/>
<path d="M199.232 147.119C199.754 146.163 200.479 145.332 201.356 144.686C201.545 144.543 201.764 144.445 201.997 144.401C202.113 144.38 202.234 144.391 202.344 144.433C202.455 144.475 202.552 144.546 202.626 144.639C202.842 144.953 202.625 145.378 202.409 145.684C201.654 146.733 200.587 147.516 199.36 147.922" fill="#EBEBEB"/>
<path d="M199.127 145.48C198.205 144.351 197.182 143.309 196.069 142.368C195.899 142.223 195.679 142.066 195.462 142.138C195.379 142.173 195.307 142.233 195.257 142.308C195.208 142.384 195.181 142.472 195.182 142.563C195.182 142.739 195.221 142.913 195.296 143.073C195.663 143.883 196.207 144.602 196.888 145.174C197.57 145.747 198.371 146.159 199.233 146.381" fill="#EBEBEB"/>
<path d="M199.224 140.227L196.824 137.31C196.613 137.017 196.348 136.766 196.043 136.571C195.889 136.477 195.712 136.428 195.531 136.428C195.351 136.428 195.174 136.477 195.02 136.571C194.881 136.687 194.777 136.838 194.719 137.009C194.662 137.18 194.652 137.363 194.693 137.539C194.779 137.889 194.938 138.216 195.16 138.499C195.626 139.22 196.218 139.85 196.909 140.359C197.614 140.843 198.256 141.157 199.101 141.034" fill="#EBEBEB"/>
<path d="M199.559 134.337C199.089 132.936 198.255 131.685 197.143 130.71C196.97 130.534 196.753 130.407 196.515 130.341C196.27 130.322 196.026 130.389 195.824 130.53C195.623 130.671 195.477 130.877 195.411 131.114C195.334 131.379 195.315 131.658 195.353 131.931C195.391 132.205 195.486 132.467 195.631 132.702C195.923 133.172 196.308 133.578 196.761 133.895C197.568 134.515 198.468 135.002 199.428 135.339" fill="#EBEBEB"/>
<path d="M200.52 129.041C200.286 127.342 199.403 125.932 198.396 124.561C198.18 124.268 197.878 123.962 197.521 124.017C197.409 124.041 197.304 124.092 197.217 124.166C197.129 124.24 197.062 124.335 197.02 124.442C196.94 124.659 196.909 124.891 196.927 125.121C196.973 126.147 197.319 127.137 197.923 127.968C198.527 128.798 199.362 129.433 200.324 129.793" fill="#EBEBEB"/>
<path d="M201.191 126.349C201.078 125.479 201.049 124.6 201.102 123.724C201.149 122.847 201.444 122 201.951 121.282C202.17 120.973 202.472 120.732 202.822 120.586C202.997 120.517 203.188 120.494 203.375 120.518C203.562 120.543 203.74 120.614 203.892 120.726C204.02 120.846 204.119 120.992 204.182 121.156C204.246 121.319 204.271 121.494 204.257 121.669C204.227 122.017 204.137 122.358 203.989 122.675C203.348 124.213 202.291 125.916 201.17 126.349" fill="#EBEBEB"/>
<path d="M190.732 128.392C190.737 128.464 190.737 128.536 190.732 128.608C190.732 128.765 190.732 128.969 190.732 129.224C190.732 129.479 190.732 129.818 190.732 130.196C190.732 130.574 190.732 131.008 190.778 131.47C190.821 132.426 190.914 133.56 191.059 134.813C191.203 136.065 191.428 137.441 191.721 138.868C192.014 140.295 192.379 141.633 192.74 142.843C193.101 144.053 193.484 145.128 193.832 146.02C193.993 146.465 194.163 146.869 194.303 147.217C194.443 147.565 194.575 147.871 194.681 148.113C194.787 148.355 194.864 148.538 194.923 148.682C194.955 148.746 194.98 148.813 195 148.882C195 148.882 194.957 148.822 194.893 148.695L194.626 148.139C194.511 147.897 194.371 147.604 194.222 147.251C194.074 146.899 193.895 146.508 193.726 146.058C193.365 145.17 192.982 144.096 192.604 142.885C192.227 141.675 191.87 140.337 191.568 138.898C191.267 137.458 191.063 136.091 190.914 134.83C190.766 133.568 190.693 132.434 190.668 131.475C190.643 130.999 190.647 130.566 190.643 130.201C190.638 129.835 190.643 129.496 190.643 129.228L190.668 128.608C190.681 128.534 190.703 128.461 190.732 128.392Z" fill="#E0E0E0"/>
<path d="M191.105 135.326C191.121 134.499 191.421 133.703 191.955 133.071C192.035 132.956 192.141 132.861 192.265 132.795C192.39 132.729 192.528 132.694 192.668 132.693C193.038 132.749 193.208 133.19 193.22 133.564C193.239 134.198 193.028 134.818 192.626 135.309C192.283 135.782 191.767 136.099 191.19 136.193" fill="#E0E0E0"/>
<path d="M191.92 139.858C191.889 138.712 192.183 137.581 192.77 136.596C192.853 136.467 192.961 136.356 193.088 136.269C193.15 136.229 193.221 136.204 193.295 136.197C193.369 136.189 193.444 136.2 193.513 136.227C193.603 136.291 193.675 136.377 193.724 136.476C193.773 136.576 193.797 136.685 193.793 136.796C193.847 137.497 193.704 138.2 193.382 138.826C193.06 139.451 192.57 139.974 191.967 140.338" fill="#E0E0E0"/>
<path d="M192.965 143.718C193.063 142.745 193.418 141.816 193.993 141.025C194.05 140.927 194.126 140.84 194.217 140.772C194.309 140.703 194.413 140.654 194.523 140.626C194.867 140.58 195.139 140.932 195.216 141.268C195.368 141.964 195.024 142.669 194.625 143.259C194.242 143.751 193.796 144.192 193.3 144.571" fill="#E0E0E0"/>
<path d="M193.934 146.439C194.084 145.672 194.401 144.947 194.864 144.316C194.962 144.179 195.089 144.066 195.237 143.985C195.312 143.945 195.396 143.926 195.481 143.93C195.565 143.935 195.647 143.962 195.717 144.01C195.934 144.18 195.883 144.511 195.794 144.77C195.506 145.647 194.949 146.409 194.201 146.949" fill="#E0E0E0"/>
<path d="M193.508 145.344C192.638 144.774 191.716 144.285 190.756 143.883C190.687 143.841 190.609 143.817 190.528 143.812C190.447 143.808 190.366 143.824 190.293 143.858C190.245 143.898 190.209 143.952 190.191 144.013C190.173 144.073 190.173 144.137 190.191 144.198C190.228 144.318 190.292 144.429 190.378 144.52C190.803 144.994 191.329 145.367 191.917 145.61C192.505 145.853 193.14 145.961 193.775 145.926" fill="#E0E0E0"/>
<path d="M192.443 141.747L190.18 140.282C189.972 140.13 189.739 140.016 189.492 139.946C189.367 139.914 189.235 139.917 189.112 139.954C188.988 139.992 188.877 140.062 188.791 140.158C188.723 140.268 188.688 140.395 188.688 140.524C188.688 140.653 188.723 140.779 188.791 140.889C188.925 141.108 189.105 141.296 189.318 141.441C189.79 141.832 190.33 142.134 190.91 142.333C191.168 142.443 191.447 142.5 191.727 142.5C192.008 142.5 192.287 142.443 192.545 142.333" fill="#E0E0E0"/>
<path d="M191.398 137.649C190.776 136.796 189.939 136.124 188.973 135.7C188.817 135.616 188.641 135.577 188.463 135.585C188.292 135.624 188.14 135.722 188.034 135.861C187.927 136.001 187.873 136.174 187.882 136.349C187.886 136.547 187.932 136.74 188.017 136.918C188.102 137.096 188.224 137.254 188.374 137.381C188.674 137.638 189.022 137.832 189.398 137.95C190.078 138.205 190.795 138.349 191.521 138.375" fill="#E0E0E0"/>
<path d="M190.915 133.852C190.345 132.795 189.511 131.902 188.494 131.262C188.403 131.171 188.289 131.107 188.164 131.075C188.04 131.043 187.909 131.044 187.785 131.079C187.713 131.12 187.652 131.179 187.608 131.249C187.564 131.32 187.539 131.4 187.534 131.483C187.527 131.647 187.555 131.81 187.615 131.963C187.866 132.653 188.316 133.255 188.907 133.691C189.499 134.128 190.206 134.38 190.94 134.417" fill="#E0E0E0"/>
<path d="M190.795 131.874C190.531 131.306 190.322 130.715 190.171 130.107C190.018 129.496 190.04 128.854 190.235 128.255C190.32 127.998 190.474 127.769 190.681 127.593C190.786 127.508 190.911 127.452 191.044 127.429C191.177 127.406 191.313 127.417 191.441 127.461C191.552 127.516 191.65 127.595 191.728 127.692C191.806 127.788 191.862 127.901 191.891 128.022C191.945 128.266 191.956 128.517 191.925 128.765C191.819 129.95 191.458 131.343 190.795 131.874Z" fill="#E0E0E0"/>
<path d="M207.785 128.222C207.79 128.294 207.79 128.366 207.785 128.438L207.806 129.054C207.806 129.322 207.806 129.649 207.806 130.027C207.806 130.404 207.806 130.842 207.806 131.301C207.776 132.256 207.696 133.394 207.56 134.655C207.424 135.917 207.199 137.288 206.906 138.719C206.613 140.151 206.239 141.497 205.87 142.711C205.5 143.926 205.105 144.992 204.744 145.879C204.574 146.329 204.396 146.729 204.248 147.073C204.099 147.417 203.963 147.722 203.844 147.96L203.577 148.516C203.549 148.582 203.515 148.645 203.475 148.703C203.494 148.635 203.518 148.569 203.547 148.504C203.611 148.359 203.691 148.173 203.789 147.935C203.887 147.697 204.027 147.391 204.167 147.039C204.307 146.686 204.481 146.291 204.642 145.841C204.986 144.949 205.36 143.875 205.73 142.669C206.099 141.463 206.447 140.121 206.749 138.69C207.05 137.259 207.258 135.891 207.416 134.638C207.573 133.386 207.649 132.248 207.692 131.296C207.726 130.816 207.726 130.383 207.738 130.022C207.751 129.661 207.738 129.317 207.738 129.05C207.738 128.782 207.738 128.591 207.738 128.434C207.744 128.361 207.76 128.29 207.785 128.222Z" fill="#EBEBEB"/>
<path d="M207.403 135.186C207.389 134.359 207.088 133.562 206.554 132.931C206.476 132.814 206.37 132.718 206.247 132.653C206.123 132.587 205.985 132.552 205.844 132.553C205.475 132.608 205.305 133.05 205.292 133.423C205.272 134.057 205.482 134.677 205.883 135.169C206.227 135.641 206.742 135.959 207.318 136.056" fill="#EBEBEB"/>
<path d="M206.592 139.696C206.623 138.55 206.329 137.419 205.743 136.435C205.657 136.306 205.548 136.195 205.42 136.108C205.358 136.067 205.287 136.042 205.213 136.035C205.139 136.027 205.064 136.038 204.995 136.065C204.904 136.128 204.831 136.214 204.781 136.313C204.732 136.413 204.71 136.523 204.715 136.634C204.659 137.336 204.801 138.039 205.123 138.665C205.446 139.291 205.937 139.814 206.541 140.176" fill="#EBEBEB"/>
<path d="M205.539 143.569C205.44 142.596 205.084 141.667 204.507 140.876C204.45 140.778 204.374 140.691 204.283 140.623C204.191 140.554 204.087 140.505 203.977 140.477C203.637 140.435 203.361 140.783 203.289 141.118C203.131 141.815 203.48 142.52 203.879 143.11C204.261 143.603 204.707 144.045 205.204 144.422" fill="#EBEBEB"/>
<path d="M204.584 146.29C204.434 145.522 204.115 144.797 203.65 144.167C203.553 144.029 203.425 143.915 203.276 143.836C203.201 143.797 203.117 143.778 203.033 143.783C202.948 143.787 202.866 143.814 202.796 143.861C202.584 144.031 202.63 144.362 202.72 144.622C203.009 145.498 203.568 146.261 204.316 146.8" fill="#EBEBEB"/>
<path d="M205.008 145.195C205.878 144.626 206.798 144.137 207.756 143.734C207.825 143.692 207.905 143.667 207.986 143.663C208.068 143.658 208.149 143.674 208.223 143.709C208.271 143.749 208.307 143.803 208.325 143.863C208.343 143.924 208.343 143.988 208.325 144.048C208.286 144.169 208.221 144.279 208.134 144.371C207.71 144.846 207.184 145.22 206.596 145.463C206.008 145.707 205.372 145.814 204.736 145.777" fill="#EBEBEB"/>
<path d="M206.069 141.598L208.337 140.125C208.542 139.969 208.776 139.855 209.025 139.789C209.149 139.746 209.283 139.744 209.408 139.781C209.533 139.819 209.643 139.896 209.722 140C209.801 140.104 209.846 140.23 209.848 140.361C209.851 140.492 209.813 140.62 209.738 140.728C209.606 140.948 209.428 141.138 209.216 141.284C208.742 141.672 208.203 141.973 207.624 142.172C207.364 142.282 207.086 142.339 206.804 142.339C206.522 142.339 206.243 142.282 205.984 142.172" fill="#EBEBEB"/>
<path d="M207.119 137.5C207.74 136.647 208.577 135.974 209.544 135.551C209.699 135.468 209.874 135.428 210.049 135.437C210.22 135.477 210.372 135.575 210.479 135.714C210.586 135.853 210.641 136.026 210.635 136.201C210.629 136.398 210.582 136.592 210.497 136.77C210.412 136.949 210.292 137.108 210.143 137.237C209.841 137.491 209.494 137.684 209.119 137.806C208.437 138.052 207.721 138.188 206.996 138.21" fill="#EBEBEB"/>
<path d="M207.6 133.704C208.122 132.6 209.031 131.827 210.02 131.114C210.113 131.024 210.227 130.959 210.353 130.927C210.478 130.895 210.609 130.897 210.734 130.931C210.805 130.972 210.865 131.031 210.908 131.102C210.951 131.172 210.976 131.252 210.98 131.335C210.989 131.499 210.962 131.663 210.899 131.815C210.648 132.506 210.198 133.107 209.607 133.544C209.016 133.982 208.309 134.235 207.574 134.273" fill="#EBEBEB"/>
<path d="M207.721 131.725C207.986 131.158 208.195 130.566 208.345 129.959C208.498 129.348 208.474 128.706 208.278 128.107C208.2 127.853 208.053 127.625 207.853 127.449C207.748 127.363 207.624 127.306 207.491 127.282C207.357 127.258 207.22 127.269 207.093 127.313C206.98 127.368 206.881 127.447 206.802 127.545C206.724 127.642 206.668 127.756 206.638 127.878C206.586 128.121 206.576 128.371 206.609 128.617C206.711 129.806 207.072 131.195 207.738 131.725" fill="#EBEBEB"/>
<path d="M187.869 148.725V151.583C187.87 151.88 187.989 152.166 188.2 152.376C188.411 152.586 188.697 152.704 188.995 152.704H208.529C208.827 152.704 209.112 152.586 209.323 152.376C209.534 152.166 209.653 151.88 209.655 151.583V148.725H187.869Z" fill="#EBEBEB"/>
<path d="M189.541 152.704L189.702 153.613L207.725 154.9L208.18 152.704H189.541Z" fill="#E0E0E0"/>
<path d="M218.771 52.2232H193.291V25.6221H218.771V52.2232ZM193.291 52.2232H218.771V25.656H193.291V52.2232Z" fill="#E0E0E0"/>
<path d="M215.994 92.7754H77.0349C71.7484 92.7754 67.4629 97.0609 67.4629 102.347V103.804C67.4629 109.09 71.7484 113.376 77.0349 113.376H215.994C221.281 113.376 225.566 109.09 225.566 103.804V102.347C225.566 97.0609 221.281 92.7754 215.994 92.7754Z" fill="#FAFAFA"/>
<path d="M189.078 92.7754H216.342C218.787 92.7754 221.132 93.7467 222.861 95.4757C224.59 97.2047 225.561 99.5497 225.561 101.995V104.152C225.561 106.597 224.59 108.942 222.861 110.671C221.132 112.4 218.787 113.372 216.342 113.372H189.078V92.7754Z" fill="#407BFF"/>
<path d="M84.9201 103.514V106.236H83.8244V103.654C83.8244 102.805 83.3998 102.402 82.6948 102.402C81.9049 102.402 81.3698 102.882 81.3698 103.833V106.236H80.2402V99.6328H81.3529V102.036C81.5613 101.833 81.8096 101.674 82.0821 101.57C82.3546 101.466 82.6456 101.42 82.9369 101.433C84.075 101.433 84.9201 102.083 84.9201 103.514Z" fill="#263238"/>
<path d="M89.1935 105.978C88.8827 106.199 88.5086 106.312 88.1276 106.301C87.0872 106.301 86.4884 105.749 86.4884 104.696V102.411H85.707V101.524H86.4884V100.437H87.601V101.524H88.875V102.411H87.601V104.67C87.601 105.133 87.8346 105.384 88.2593 105.384C88.4833 105.39 88.7029 105.321 88.8835 105.189L89.1935 105.978Z" fill="#263238"/>
<path d="M92.8492 105.978C92.5387 106.2 92.1643 106.313 91.7833 106.301C90.7429 106.301 90.1483 105.749 90.1483 104.696V102.411H89.3457V101.524H90.1313V100.437H91.2397V101.524H92.5137V102.411H91.2397V104.67C91.2397 105.133 91.4733 105.384 91.8979 105.384C92.1219 105.39 92.3415 105.321 92.5222 105.189L92.8492 105.978Z" fill="#263238"/>
<path d="M98.8107 103.863C98.8281 104.185 98.778 104.507 98.6636 104.809C98.5491 105.111 98.3729 105.385 98.1462 105.615C97.9194 105.844 97.6472 106.024 97.347 106.142C97.0468 106.26 96.7251 106.314 96.4028 106.301C96.1174 106.311 95.8331 106.259 95.5698 106.148C95.3065 106.037 95.0705 105.871 94.8782 105.659V107.961H93.7656V101.485H94.8273V102.109C95.0215 101.884 95.2643 101.707 95.5372 101.59C95.8102 101.473 96.1062 101.42 96.4028 101.434C96.7246 101.42 97.0457 101.473 97.3456 101.591C97.6456 101.708 97.9176 101.887 98.1444 102.116C98.3711 102.344 98.5475 102.618 98.6622 102.919C98.777 103.22 98.8275 103.541 98.8107 103.863ZM97.681 103.863C97.6669 103.587 97.5723 103.322 97.4088 103.1C97.2454 102.878 97.0203 102.708 96.7616 102.613C96.5028 102.517 96.2216 102.499 95.9529 102.562C95.6843 102.625 95.4399 102.765 95.25 102.965C95.0602 103.165 94.9332 103.417 94.8849 103.688C94.8366 103.96 94.869 104.24 94.9782 104.493C95.0873 104.746 95.2684 104.962 95.499 105.114C95.7296 105.265 95.9995 105.346 96.2754 105.345C96.4677 105.349 96.6587 105.313 96.8362 105.239C97.0137 105.165 97.1737 105.055 97.3061 104.915C97.4384 104.775 97.5401 104.61 97.6047 104.429C97.6693 104.247 97.6953 104.055 97.681 103.863Z" fill="#263238"/>
<path d="M99.5002 102.169C99.4925 102.069 99.5056 101.968 99.5388 101.873C99.5719 101.778 99.6243 101.691 99.6927 101.617C99.761 101.543 99.8439 101.484 99.9361 101.444C100.028 101.404 100.128 101.383 100.228 101.383C100.329 101.383 100.429 101.404 100.521 101.444C100.613 101.484 100.696 101.543 100.764 101.617C100.833 101.691 100.885 101.778 100.918 101.873C100.951 101.968 100.964 102.069 100.957 102.169C100.964 102.269 100.951 102.37 100.918 102.465C100.885 102.56 100.833 102.647 100.764 102.721C100.696 102.795 100.613 102.854 100.521 102.894C100.429 102.934 100.329 102.955 100.228 102.955C100.128 102.955 100.028 102.934 99.9361 102.894C99.8439 102.854 99.761 102.795 99.6927 102.721C99.6243 102.647 99.5719 102.56 99.5388 102.465C99.5056 102.37 99.4925 102.269 99.5002 102.169ZM99.5002 105.566C99.4925 105.466 99.5056 105.365 99.5388 105.27C99.5719 105.175 99.6243 105.088 99.6927 105.014C99.761 104.94 99.8439 104.881 99.9361 104.841C100.028 104.801 100.128 104.78 100.228 104.78C100.329 104.78 100.429 104.801 100.521 104.841C100.613 104.881 100.696 104.94 100.764 105.014C100.833 105.088 100.885 105.175 100.918 105.27C100.951 105.365 100.964 105.466 100.957 105.566C100.964 105.667 100.951 105.767 100.918 105.862C100.885 105.957 100.833 106.044 100.764 106.118C100.696 106.192 100.613 106.251 100.521 106.291C100.429 106.332 100.329 106.352 100.228 106.352C100.128 106.352 100.028 106.332 99.9361 106.291C99.8439 106.251 99.761 106.192 99.6927 106.118C99.6243 106.044 99.5719 105.957 99.5388 105.862C99.5056 105.767 99.4925 105.667 99.5002 105.566Z" fill="#263238"/>
<path d="M104.429 98.7461H105.423L102.509 107.125H101.49L104.429 98.7461Z" fill="#263238"/>
<path d="M107.104 98.7461H108.102L105.168 107.125H104.17L107.104 98.7461Z" fill="#263238"/>
<path d="M115.61 101.485L113.861 106.237H112.791L111.563 102.963L110.319 106.237H109.249L107.508 101.485H108.557L109.81 104.993L111.117 101.485H112.052L113.326 105.01L114.6 101.485H115.61Z" fill="#263238"/>
<path d="M123.701 101.485L121.947 106.237H120.881L119.654 102.963L118.405 106.237H117.339L115.594 101.485H116.647L117.921 104.993L119.229 101.485H120.163L121.437 105.01L122.711 101.485H123.701Z" fill="#263238"/>
<path d="M131.813 101.485L130.059 106.237H128.993L127.766 102.963L126.517 106.237H125.443L123.697 101.485H124.746L126.02 104.993L127.328 101.485H128.262L129.536 105.01L130.81 101.485H131.813Z" fill="#263238"/>
<path d="M131.889 105.561C131.889 105.368 131.966 105.182 132.103 105.045C132.24 104.908 132.425 104.831 132.619 104.831C132.813 104.831 132.999 104.908 133.136 105.045C133.273 105.182 133.35 105.368 133.35 105.561C133.35 105.755 133.273 105.941 133.136 106.078C132.999 106.215 132.813 106.292 132.619 106.292C132.425 106.292 132.24 106.215 132.103 106.078C131.966 105.941 131.889 105.755 131.889 105.561Z" fill="#263238"/>
<path d="M215.99 113.371L216.869 113.32C217.157 113.291 217.514 113.227 217.939 113.159C218.425 113.052 218.904 112.91 219.37 112.734C220.68 112.237 221.865 111.457 222.839 110.45C223.455 109.804 223.983 109.08 224.411 108.297C224.883 107.398 225.209 106.431 225.379 105.43C225.536 104.305 225.579 103.167 225.506 102.033C225.47 100.78 225.181 99.5483 224.657 98.4104C224.086 97.1692 223.258 96.0633 222.228 95.1659C221.115 94.194 219.788 93.4998 218.355 93.1403C217.604 92.949 216.833 92.8478 216.058 92.8388H208.583H197.58L77.0303 92.8642C74.8446 92.8695 72.7272 93.6266 71.0337 95.0084C69.3402 96.3903 68.1737 98.3128 67.7301 100.453C67.6834 100.81 67.6112 101.158 67.5815 101.515C67.5517 101.871 67.5348 102.224 67.539 102.585V103.664C67.539 104.02 67.573 104.373 67.5857 104.729C67.7931 106.844 68.7059 108.827 70.1771 110.36C71.6484 111.893 73.5926 112.886 75.6968 113.18C76.0384 113.233 76.3832 113.263 76.7288 113.269C77.0728 113.295 77.4252 113.269 77.7735 113.269H111.861L166.049 113.291L202.57 113.32H212.503H215.085H215.964C215.964 113.32 215.667 113.32 215.085 113.32H212.503H202.57L166.049 113.35H111.861H77.7862C77.4337 113.35 77.0898 113.35 76.7373 113.35C76.3846 113.344 76.0328 113.314 75.6841 113.261C73.5399 112.961 71.5588 111.949 70.0597 110.387C68.5607 108.825 67.6309 106.804 67.4201 104.649C67.4201 104.288 67.3734 103.923 67.3691 103.566V102.487C67.3691 102.13 67.3989 101.761 67.4159 101.4C67.4328 101.039 67.5135 100.682 67.5645 100.321C68.035 98.1597 69.2301 96.2236 70.9517 94.8342C72.6733 93.4447 74.818 92.6852 77.0303 92.6816L197.568 92.7071H208.571H216.045C216.829 92.7169 217.609 92.8209 218.368 93.0171C219.815 93.3806 221.154 94.0838 222.275 95.0683C223.314 95.9758 224.149 97.0931 224.725 98.3467C225.249 99.4968 225.537 100.74 225.574 102.003C225.641 103.137 225.595 104.275 225.438 105.4C225.261 106.407 224.929 107.38 224.453 108.284C224.021 109.071 223.487 109.798 222.865 110.445C221.883 111.454 220.689 112.233 219.37 112.726C218.901 112.902 218.42 113.044 217.93 113.151C217.506 113.214 217.149 113.282 216.856 113.303L215.99 113.371Z" fill="#263238"/>
<path d="M204.575 105.884C203.692 105.884 202.829 105.623 202.094 105.132C201.36 104.641 200.788 103.944 200.451 103.128C200.113 102.312 200.025 101.415 200.197 100.549C200.37 99.6831 200.795 98.8878 201.42 98.2638C202.045 97.6397 202.84 97.215 203.706 97.0433C204.573 96.8715 205.47 96.9605 206.286 97.299C207.101 97.6374 207.798 98.2102 208.288 98.9447C208.778 99.6792 209.039 100.543 209.038 101.426C209.037 102.608 208.566 103.743 207.729 104.579C206.892 105.415 205.758 105.884 204.575 105.884ZM204.575 97.3147C203.761 97.3131 202.966 97.5527 202.288 98.0034C201.611 98.4541 201.083 99.0955 200.771 99.8465C200.458 100.597 200.376 101.424 200.533 102.222C200.691 103.02 201.082 103.753 201.656 104.329C202.231 104.905 202.963 105.297 203.761 105.457C204.559 105.616 205.386 105.535 206.137 105.224C206.889 104.913 207.531 104.386 207.983 103.71C208.436 103.034 208.677 102.239 208.677 101.426C208.676 100.337 208.243 99.2934 207.475 98.523C206.706 97.7526 205.663 97.3181 204.575 97.3147Z" fill="white"/>
<path d="M211.581 109.235C211.533 109.234 211.487 109.214 211.454 109.18L207.403 104.802C207.376 104.766 207.364 104.723 207.368 104.679C207.372 104.635 207.392 104.595 207.424 104.565C207.456 104.535 207.498 104.518 207.542 104.517C207.586 104.516 207.628 104.531 207.662 104.56L211.734 108.938C211.766 108.972 211.784 109.017 211.784 109.063C211.784 109.11 211.766 109.155 211.734 109.188C211.713 109.207 211.689 109.22 211.663 109.228C211.636 109.236 211.609 109.239 211.581 109.235Z" fill="white"/>
<path d="M134.959 107.783C134.908 107.783 134.865 104.842 134.865 101.235C134.865 97.6273 134.908 94.6865 134.959 94.6865C135.01 94.6865 135.048 97.6273 135.048 101.235C135.048 104.842 135.01 107.783 134.959 107.783Z" fill="#263238"/>
<path d="M145.908 21.7617C145.229 27.262 145.237 32.8252 145.929 38.3237C146.103 39.7166 146.4 41.2369 147.496 42.1075C148.804 43.1437 150.855 42.7827 152.044 41.6149C153.233 40.447 153.675 38.6932 153.654 37.0242C153.633 35.3553 153.204 33.7288 152.902 32.0896C152.503 29.928 152.303 27.6858 151.335 25.7196C150.367 23.7534 148.362 22.0675 146.188 22.2883" fill="#263238"/>
<path d="M149.127 5.58646C151.62 3.13188 156.966 3.75615 159.744 5.86674C162.521 7.97733 163.99 11.4553 164.576 14.9079C165.162 18.3604 165.026 21.8936 165.311 25.3802C165.596 28.8667 166.381 32.4636 168.534 35.2239C169.456 36.4002 170.607 37.3982 171.426 38.6467C172.205 39.8367 172.646 41.2155 172.703 42.6364C172.76 44.0573 172.43 45.4671 171.749 46.7154C171.024 47.9397 169.949 48.9182 168.662 49.524C167.374 50.1297 165.935 50.3348 164.53 50.1127C161.633 49.5649 159.408 47.0976 158.3 44.367C157.191 41.6364 157.026 38.6297 156.784 35.6911C156.079 26.5429 154.848 17.4428 153.098 8.43597" fill="#263238"/>
<path d="M146.077 32.5614L148.671 31.8564H160.107L166.308 35.5171C166.308 35.5171 155.466 40.3965 151.444 38.4388C149.056 37.2783 147.154 35.3129 146.072 32.8884" fill="#C69481"/>
<path d="M160.198 11.8593L160.266 10.3347L151.135 8.30483C148.311 7.91413 145.16 10.6617 144.893 13.4985C144.595 16.6495 144.358 20.5097 144.659 22.8751C145.262 27.6399 148.876 28.3533 148.876 28.3533L149.262 38.7619L159.743 39.212L160.198 11.8593Z" fill="#C69481"/>
<path d="M146.251 16.8233C146.244 16.9816 146.299 17.1364 146.404 17.2546C146.51 17.3728 146.657 17.4451 146.815 17.4561C146.893 17.4643 146.971 17.457 147.045 17.4346C147.12 17.4123 147.189 17.3753 147.249 17.3259C147.309 17.2765 147.359 17.2156 147.395 17.1468C147.432 17.078 147.454 17.0027 147.461 16.9252C147.467 16.7676 147.411 16.6139 147.306 16.4966C147.2 16.3793 147.053 16.3076 146.896 16.2967C146.819 16.2879 146.741 16.2946 146.666 16.3165C146.592 16.3383 146.522 16.3749 146.462 16.424C146.402 16.473 146.352 16.5336 146.316 16.6022C146.28 16.6708 146.257 16.746 146.251 16.8233Z" fill="#263238"/>
<path d="M145.826 15.1798C145.898 15.2605 146.37 14.9335 147.024 14.959C147.678 14.9845 148.149 15.3199 148.221 15.2435C148.293 15.1671 148.183 15.0651 147.979 14.9038C147.702 14.7012 147.371 14.5872 147.028 14.5768C146.687 14.5676 146.352 14.664 146.068 14.8528C145.877 15.0057 145.826 15.1416 145.826 15.1798Z" fill="#263238"/>
<path d="M152.647 17.129C152.64 17.2873 152.695 17.4421 152.801 17.5603C152.906 17.6785 153.054 17.7508 153.212 17.7617C153.289 17.7699 153.367 17.7626 153.442 17.7403C153.516 17.7179 153.586 17.681 153.646 17.6316C153.706 17.5822 153.756 17.5213 153.792 17.4525C153.828 17.3837 153.85 17.3084 153.857 17.2309C153.863 17.0726 153.807 16.9183 153.701 16.8009C153.594 16.6835 153.446 16.6122 153.288 16.6024C153.211 16.5936 153.134 16.6003 153.059 16.6222C152.985 16.6441 152.916 16.6807 152.856 16.7298C152.796 16.779 152.747 16.8396 152.711 16.9082C152.675 16.9767 152.653 17.0518 152.647 17.129Z" fill="#263238"/>
<path d="M152.266 15.5199C152.338 15.6006 152.809 15.2736 153.463 15.2948C154.117 15.3161 154.585 15.6601 154.661 15.5836C154.737 15.5072 154.623 15.401 154.419 15.2439C154.141 15.0405 153.808 14.9265 153.463 14.9169C153.124 14.9057 152.789 15.0023 152.508 15.1929C152.304 15.3416 152.232 15.4817 152.266 15.5199Z" fill="#263238"/>
<path d="M149.742 20.6322C149.4 20.5139 149.045 20.4383 148.685 20.4071C148.519 20.4071 148.362 20.3477 148.337 20.233C148.328 20.0597 148.372 19.8878 148.464 19.7404C148.634 19.3412 148.812 18.9251 148.995 18.4664C149.738 16.6786 150.269 15.205 150.209 15.1753C150.15 15.1455 149.475 16.5724 148.736 18.3645L148.222 19.6385C148.112 19.8378 148.075 20.0688 148.116 20.2925C148.138 20.3524 148.174 20.4064 148.22 20.4505C148.267 20.4946 148.322 20.5277 148.383 20.5473C148.475 20.5733 148.569 20.5889 148.663 20.594C149.02 20.6526 149.382 20.6654 149.742 20.6322Z" fill="#263238"/>
<path d="M148.889 28.3614C151.17 28.4687 153.437 27.9503 155.446 26.8623C155.446 26.8623 153.84 30.1407 148.948 29.5547L148.889 28.3614Z" fill="#936457"/>
<path d="M149.968 22.2254C150.096 22.0697 150.261 21.9491 150.448 21.8749C150.635 21.8006 150.838 21.7751 151.038 21.8007C151.182 21.8187 151.321 21.8656 151.447 21.9385C151.572 22.0115 151.682 22.1091 151.768 22.2254C151.852 22.3372 151.9 22.4718 151.905 22.6114C151.91 22.751 151.873 22.8889 151.798 23.0067C151.69 23.1174 151.553 23.1943 151.402 23.2282C151.251 23.2622 151.094 23.2516 150.949 23.1978C150.644 23.0781 150.365 22.8992 150.129 22.6713C150.057 22.6175 149.996 22.5496 149.951 22.4717C149.926 22.4364 149.912 22.394 149.912 22.3506C149.912 22.3072 149.926 22.2649 149.951 22.2296" fill="#936457"/>
<path d="M151.652 21.1466C151.546 21.1466 151.521 21.8473 150.896 22.3314C150.272 22.8155 149.521 22.7136 149.512 22.8113C149.504 22.9089 149.678 22.9556 149.996 22.9726C150.412 22.9928 150.821 22.8649 151.151 22.6117C151.467 22.3679 151.677 22.0121 151.737 21.6179C151.771 21.3207 151.699 21.1423 151.652 21.1466Z" fill="#263238"/>
<path d="M152.196 13.5452C152.256 13.7236 152.91 13.6599 153.674 13.7746C154.438 13.8892 155.054 14.1228 155.16 13.9657C155.207 13.8892 155.105 13.7194 154.859 13.541C154.535 13.3124 154.16 13.1666 153.767 13.1163C153.377 13.0557 152.978 13.0891 152.604 13.214C152.294 13.3074 152.149 13.4603 152.196 13.5452Z" fill="#263238"/>
<path d="M145.928 12.9371C146.039 13.09 146.497 12.9371 147.037 12.9583C147.576 12.9795 148.035 13.09 148.145 12.9371C148.192 12.8606 148.145 12.712 147.928 12.5634C147.665 12.3865 147.354 12.292 147.037 12.292C146.719 12.292 146.409 12.3865 146.145 12.5634C145.949 12.712 145.882 12.8819 145.928 12.9371Z" fill="#263238"/>
<path d="M160.058 19.3122C160.886 18.7644 161.247 14.0378 161.213 12.0928C161.179 10.1479 160.139 8.42373 158.771 7.04781C157.293 5.56148 155.561 5.03914 153.471 4.81407C152.299 4.68667 151.042 4.53379 149.908 4.85653C148.774 5.17928 148.142 5.57847 147.59 6.6189C147.284 7.19645 147.203 8.0203 147.734 8.39825C148.265 8.77621 148.932 8.47044 149.53 8.30058C151.119 7.84619 152.86 8.36003 154.231 9.27731C155.603 10.1946 156.682 11.4898 157.739 12.7638C159.111 14.4243 159.761 17.1846 160.066 19.3122" fill="#407BFF"/>
<path d="M144.066 8.26211C144.673 6.33412 148.427 3.9475 152.402 5.71411C154.228 5.77781 156.003 6.07932 157.948 7.83744C161.46 11.0437 160.114 18.8788 160.114 18.8788C157.958 17.7685 156.052 16.2295 154.512 14.3561C152.257 11.6382 151.022 9.51062 150.58 8.21964C146.911 9.10294 145.526 12.3092 144.881 13.6978C144.053 12.789 142.991 11.6637 144.066 8.26211Z" fill="#263238"/>
<path d="M159.336 18.4281C159.412 18.3898 162.461 17.3621 162.491 20.5174C162.521 23.6727 159.349 23.0654 159.344 22.9592C159.34 22.8531 159.336 18.4281 159.336 18.4281Z" fill="#C69481"/>
<path d="M160.295 21.7539C160.295 21.7539 160.351 21.7921 160.444 21.8346C160.511 21.8633 160.583 21.8781 160.656 21.8781C160.729 21.8781 160.802 21.8633 160.869 21.8346C161.071 21.7031 161.235 21.5201 161.343 21.3044C161.451 21.0887 161.5 20.8481 161.485 20.6073C161.488 20.3382 161.433 20.0715 161.323 19.8259C161.293 19.7257 161.238 19.6345 161.164 19.5604C161.09 19.4863 160.999 19.4316 160.898 19.4012C160.835 19.3843 160.768 19.3904 160.709 19.4184C160.65 19.4464 160.603 19.4945 160.576 19.5541C160.533 19.6433 160.555 19.707 160.538 19.7112C160.521 19.7155 160.47 19.6603 160.495 19.5286C160.511 19.4507 160.553 19.3804 160.614 19.329C160.702 19.2638 160.811 19.2349 160.92 19.2484C161.05 19.2723 161.171 19.3294 161.272 19.4143C161.374 19.4991 161.451 19.6088 161.497 19.7325C161.634 20.0036 161.702 20.3038 161.697 20.6073C161.697 21.2443 161.361 21.8431 160.907 21.979C160.823 22.0049 160.734 22.0111 160.647 21.9971C160.56 21.9831 160.478 21.9493 160.406 21.8983C160.3 21.8303 160.266 21.7624 160.295 21.7539Z" fill="#936457"/>
<path d="M125.379 88.8213L119.009 89.5262L115.132 91.9596C115.132 91.9596 115.056 92.7494 116.16 92.622L118.347 91.7005L116.614 93.5945C116.614 93.5945 117.039 94.3547 117.986 93.8239C118.578 93.4813 119.1 93.0287 119.523 92.4904L123.345 92.2229C123.345 92.2229 120.457 95.0002 120.988 95.7221C121.519 96.444 121.863 96.2912 122.262 96.0279C122.661 95.7646 122.912 94.8473 123.859 94.5458C124.806 94.2443 126.381 93.3525 128.08 92.5456C129.545 91.8534 131.027 86.8976 131.027 86.8976L126.148 85.9463L125.379 88.8213Z" fill="#C69481"/>
<path d="M122.849 90.4429C122.849 90.5236 121.243 90.8336 119.235 91.1351H119.184L119.265 91.0927C117.863 92.528 116.687 93.6406 116.627 93.5854C116.568 93.5302 117.655 92.3114 119.056 90.8888L119.09 90.8506H119.137H119.192C121.197 90.5448 122.836 90.3622 122.849 90.4429Z" fill="#936457"/>
<path d="M163.518 128.82L162.334 118.552L152.812 121.219L155.216 131.067L163.518 128.82Z" fill="#C69481"/>
<path d="M163.625 128.816L165.234 140.783L169.239 149.884C169.307 150.039 169.343 150.207 169.343 150.376C169.344 150.546 169.31 150.714 169.243 150.869C169.176 151.025 169.078 151.165 168.954 151.282C168.831 151.398 168.685 151.487 168.525 151.545C168.34 151.612 168.141 151.634 167.945 151.609C167.749 151.584 167.562 151.512 167.4 151.4C165.306 149.939 157.633 144.538 157.552 143.654C157.471 142.631 155.004 131.144 155.004 131.144L163.625 128.816Z" fill="#407BFF"/>
<g opacity="0.6">
<path d="M168.525 151.523L157.424 142.83L157.505 143.335C157.572 143.772 157.794 144.169 158.129 144.457C159.029 145.229 161.552 147.302 167.365 151.383C167.532 151.501 167.725 151.575 167.927 151.6C168.13 151.624 168.335 151.598 168.525 151.523Z" fill="white"/>
</g>
<g opacity="0.6">
<path d="M159.268 138.583C159.432 138.668 159.558 138.811 159.623 138.983C159.688 139.156 159.687 139.346 159.62 139.518C159.543 139.685 159.403 139.815 159.232 139.882C159.06 139.95 158.869 139.948 158.699 139.879C158.525 139.789 158.391 139.638 158.323 139.455C158.255 139.272 158.257 139.071 158.329 138.889C158.429 138.724 158.588 138.604 158.774 138.554C158.961 138.504 159.159 138.528 159.327 138.622" fill="white"/>
</g>
<path d="M164.975 146.741C165.202 146.323 165.508 145.953 165.875 145.65C166.516 145.183 167.204 145.247 167.209 145.17C167.213 145.094 167.047 145.068 166.763 145.077C166.388 145.089 166.026 145.213 165.722 145.433C165.415 145.644 165.176 145.939 165.034 146.283C164.937 146.559 164.937 146.737 164.975 146.741Z" fill="#263238"/>
<path d="M166.08 148.207C166.144 148.249 166.466 147.782 167.052 147.527C167.426 147.392 167.808 147.28 168.195 147.192C168.22 147.124 167.604 146.962 166.921 147.285C166.237 147.608 166.012 148.185 166.08 148.207Z" fill="#263238"/>
<path d="M163.073 144.953C163.136 145 163.629 144.308 164.504 143.802C165.379 143.297 166.202 143.191 166.202 143.11C166.202 143.029 165.298 143.017 164.364 143.573C163.429 144.129 163.009 144.919 163.073 144.953Z" fill="#263238"/>
<path d="M162.278 141.348C162.32 141.412 162.936 141.034 163.79 140.868C164.643 140.703 165.353 140.8 165.365 140.724C165.378 140.648 164.652 140.418 163.735 140.609C162.817 140.8 162.231 141.297 162.278 141.348Z" fill="#263238"/>
<path d="M161.713 137.844C161.764 137.908 162.363 137.42 163.276 137.305C164.189 137.19 164.89 137.526 164.92 137.454C164.949 137.381 164.779 137.297 164.495 137.178C164.098 137.035 163.673 136.989 163.255 137.042C162.837 137.088 162.437 137.234 162.087 137.466C161.811 137.658 161.692 137.823 161.713 137.844Z" fill="#263238"/>
<path d="M163.15 136.643C163.166 136.489 163.148 136.333 163.095 136.188C162.99 135.781 162.805 135.398 162.551 135.063C162.386 134.802 162.14 134.602 161.85 134.494C161.751 134.467 161.646 134.472 161.55 134.507C161.453 134.542 161.37 134.605 161.311 134.689C161.209 134.86 161.173 135.062 161.209 135.258C161.299 135.655 161.525 136.008 161.847 136.256C162.17 136.505 162.569 136.632 162.976 136.617C163.377 136.595 163.762 136.454 164.083 136.212C164.404 135.97 164.645 135.638 164.776 135.258C164.81 135.163 164.823 135.062 164.813 134.961C164.803 134.861 164.772 134.764 164.721 134.676C164.66 134.593 164.574 134.531 164.476 134.499C164.378 134.467 164.272 134.467 164.173 134.498C163.89 134.609 163.643 134.794 163.456 135.033C163.171 135.342 162.944 135.698 162.785 136.086C162.717 136.218 162.678 136.363 162.67 136.511C162.908 136.012 163.219 135.552 163.591 135.144C163.764 134.945 163.982 134.791 164.228 134.698C164.281 134.678 164.339 134.677 164.393 134.694C164.447 134.711 164.493 134.745 164.526 134.791C164.553 134.851 164.567 134.916 164.567 134.982C164.567 135.048 164.553 135.113 164.526 135.173C164.402 135.498 164.188 135.78 163.909 135.986C163.629 136.192 163.297 136.314 162.95 136.337C162.606 136.348 162.269 136.242 161.993 136.036C161.718 135.83 161.521 135.536 161.434 135.203C161.405 135.068 161.424 134.926 161.489 134.804C161.52 134.757 161.565 134.72 161.618 134.7C161.67 134.679 161.728 134.676 161.782 134.689C162.031 134.789 162.243 134.962 162.39 135.186C162.727 135.623 162.984 136.116 163.15 136.643Z" fill="#263238"/>
<path d="M141.496 70.0086L141.322 72.5991C141.322 72.5991 139.135 76.7396 138.935 80.4512C138.816 82.6042 138.77 85.7807 138.748 88.0655C138.731 89.9042 139.241 91.7095 140.218 93.2676L144.6 100.296L143.997 108.233L151.943 124.145L163.702 121.172L162.309 91.8068L157.578 76.2979L156.678 68.9385L141.496 70.0086Z" fill="#263238"/>
<path d="M165.183 68.395L165.391 71.7711C165.391 71.7711 174.836 51.6589 187.72 49.1788C196.09 47.5651 199.39 56.6912 196.451 63.936C194.684 68.2973 187.346 76.6462 187.338 76.8373C187.104 81.3176 182.543 80.6593 182.543 80.6593C182.543 80.6593 176.827 89.6835 175.129 91.4459C173.965 92.6562 161.688 92.223 161.688 92.223L157.828 84.2435L156.273 68.9555L165.183 68.395Z" fill="#263238"/>
<path d="M148.854 89.4795C148.805 89.7284 148.731 89.9717 148.633 90.2057C148.459 90.7153 148.239 91.3693 147.967 92.1506C147.41 93.7941 146.693 96.0788 145.979 98.6353C145.266 101.192 144.756 103.532 144.404 105.23C144.238 106.041 144.102 106.721 143.979 107.248C143.947 107.498 143.887 107.745 143.801 107.982C143.803 107.728 143.828 107.475 143.877 107.226C143.937 106.746 144.047 106.05 144.2 105.192C144.506 103.493 145.007 101.128 145.703 98.5631C146.4 95.9981 147.164 93.7177 147.771 92.0869C148.073 91.2716 148.332 90.6133 148.523 90.1674C148.611 89.9282 148.722 89.6978 148.854 89.4795Z" fill="#455A64"/>
<path d="M145.926 86.3115C145.901 86.9516 145.838 87.5897 145.739 88.2225C145.603 89.4031 145.446 91.0296 145.356 92.8344C145.267 94.6392 145.267 96.2784 145.289 97.4633C145.326 98.1025 145.326 98.7435 145.289 99.3828C145.238 99.2173 145.21 99.046 145.204 98.8731C145.165 98.5419 145.127 98.062 145.093 97.4675C145.013 95.9199 145.013 94.3692 145.093 92.8217C145.168 91.2733 145.321 89.7298 145.552 88.197C145.645 87.611 145.73 87.1354 145.802 86.8126C145.821 86.6409 145.863 86.4725 145.926 86.3115Z" fill="#455A64"/>
<path d="M163.7 120.548C163.697 120.5 163.697 120.452 163.7 120.404C163.7 120.293 163.7 120.157 163.666 119.979C163.666 119.593 163.607 119.053 163.565 118.365C163.484 116.943 163.373 114.921 163.233 112.42C162.979 107.388 162.626 100.466 162.244 92.8215C162.121 90.9105 162.163 89.025 161.76 87.3009C161.376 85.6116 160.713 83.9983 159.798 82.5276C158.259 80.0227 156.004 78.0362 153.326 76.8244C151.528 76.0006 149.589 75.525 147.614 75.423C146.918 75.3932 146.374 75.423 146.005 75.423L145.58 75.4442H145.436C146.156 75.3317 146.886 75.289 147.614 75.3168C149.612 75.3757 151.579 75.8274 153.402 76.646C154.664 77.2063 155.843 77.938 156.906 78.8203C158.12 79.8433 159.168 81.0497 160.01 82.396C160.939 83.8857 161.61 85.5208 161.998 87.2329C162.422 89.0208 162.367 90.9148 162.49 92.8173C162.847 100.461 163.17 107.383 163.403 112.42C163.505 114.913 163.586 116.938 163.645 118.365C163.645 119.053 163.688 119.593 163.7 119.983C163.7 120.153 163.7 120.293 163.7 120.408C163.7 120.523 163.709 120.548 163.7 120.548Z" fill="#455A64"/>
<path d="M158.32 78.7604C158.265 78.7094 159.39 77.2528 160.834 75.5032C162.278 73.7536 163.501 72.3734 163.561 72.4201C163.62 72.4668 162.495 73.9277 161.047 75.6773C159.599 77.4269 158.38 78.8071 158.32 78.7604Z" fill="#455A64"/>
<path d="M177.132 66.8445C178.245 65.0291 179.468 63.2834 180.793 61.6169C181.31 60.9076 181.896 60.2518 182.543 59.6592C182.075 60.4045 181.566 61.1233 181.018 61.8122C180.063 63.1245 178.772 64.9633 177.472 67.0824C176.173 69.2014 174.95 71.1422 174.725 72.7644C174.594 73.6378 174.678 74.5301 174.971 75.3633C174.803 75.1826 174.685 74.9618 174.627 74.7221C174.417 74.0775 174.354 73.3939 174.444 72.7219C174.585 71.7392 174.902 70.7898 175.379 69.9191" fill="#455A64"/>
<path d="M183.691 57.0473C183.75 57.1025 183.291 57.6758 183.007 58.5124C182.722 59.349 182.714 60.0794 182.629 60.0837C182.544 60.0879 182.429 59.315 182.748 58.4232C183.066 57.5314 183.644 57.0048 183.691 57.0473Z" fill="#455A64"/>
<path d="M157.076 99.6165C157.008 99.5826 157.598 98.2024 158.396 96.5335C159.195 94.8645 159.9 93.5396 159.968 93.5608C160.036 93.582 159.445 94.9707 158.647 96.6396C157.849 98.3086 157.144 99.6463 157.076 99.6165Z" fill="#455A64"/>
<path d="M150.421 95.0505C150.493 95.0251 150.795 95.6663 151.096 96.4859C151.398 97.3055 151.58 97.9892 151.521 98.0147C151.461 98.0402 151.147 97.3989 150.85 96.5793C150.552 95.7597 150.349 95.0803 150.421 95.0505Z" fill="#455A64"/>
<path d="M135.146 41.394C135.825 35.5167 139.596 34.2002 139.596 34.2002L140.148 68.9252L135.817 86.8588C135.689 87.3933 135.452 87.8958 135.122 88.3352C134.792 88.7746 134.375 89.1416 133.897 89.4135C133.42 89.6854 132.891 89.8563 132.345 89.9158C131.799 89.9753 131.246 89.922 130.721 89.7593L121.947 87.0924C121.947 87.0924 134.471 47.2799 135.146 41.394Z" fill="#407BFF"/>
<path d="M171.762 38.3623C171.762 38.3623 173.932 43.3012 173.932 45.9001C173.932 48.4991 176.531 65.3371 173.932 68.9043C171.333 72.4715 166.212 72.3356 164.772 72.2294C162.789 72.0638 153.54 54.9583 153.918 54.7374L159.12 53.6078C159.12 53.6078 162.763 53.8329 164.5 55.3065C166.237 56.7801 167.936 55.0814 167.936 55.0814L171.609 39.2966" fill="#407BFF"/>
<path d="M164.512 34.2001C164.512 34.2001 170.457 36.2385 171.761 38.3618C173.065 40.4852 165.565 68.2668 165.565 68.2668L141.495 69.991C141.495 69.991 139.597 69.647 139.079 67.9229C138.561 66.1987 139.597 34.1831 139.597 34.1831L146.294 31.8135C146.294 31.8135 149.173 34.7861 151.245 35.3934C153.318 36.0007 164.512 34.2001 164.512 34.2001Z" fill="#407BFF"/>
<path d="M141.104 41.8232C141.123 41.9168 141.132 42.0123 141.129 42.1078C141.129 42.3286 141.129 42.6004 141.155 42.9274C141.155 43.6408 141.155 44.6728 141.155 45.9468C141.075 49.2652 140.828 52.5775 140.416 55.8712C140.174 57.7992 139.885 59.6338 139.588 61.2899C139.291 62.9461 138.968 64.4282 139.002 65.6937C138.995 66.6909 139.231 67.6748 139.69 68.5602C139.876 68.8751 140.083 69.1773 140.31 69.4648C140.31 69.4648 140.225 69.4096 140.093 69.2737C139.905 69.071 139.738 68.8489 139.596 68.6112C139.09 67.723 138.818 66.7204 138.806 65.698C138.747 64.424 139.048 62.8952 139.337 61.2475C139.626 59.5998 139.902 57.761 140.14 55.8372C140.624 51.9898 140.858 48.482 140.964 45.9383C141.006 44.6982 141.04 43.679 141.066 42.9274C141.066 42.6004 141.066 42.3286 141.091 42.1078C141.08 42.0129 141.084 41.9168 141.104 41.8232Z" fill="#263238"/>
<path d="M164.512 56.6904C164.25 56.3362 163.967 55.9987 163.663 55.6797C163.328 55.3559 162.942 55.0891 162.52 54.8898C161.995 54.6636 161.438 54.5203 160.868 54.4652C159.837 54.283 158.777 54.3441 157.773 54.6435C157.477 54.7474 157.203 54.9027 156.962 55.1022C156.804 55.2636 156.711 55.3485 156.694 55.34C156.677 55.3315 156.745 55.2168 156.885 55.03C157.113 54.7837 157.391 54.5895 157.7 54.4609C158.728 54.0935 159.833 54.0013 160.907 54.1934C161.504 54.2575 162.086 54.4196 162.631 54.6733C163.072 54.8942 163.469 55.1935 163.803 55.5566C164.028 55.7975 164.218 56.0691 164.368 56.3634C164.482 56.5588 164.512 56.6819 164.512 56.6904Z" fill="#263238"/>
<path d="M158.244 61.9951C158.287 61.9951 158.478 62.6449 158.919 63.6641C159.508 64.9835 160.188 66.2605 160.954 67.4861C161.708 68.7206 162.55 69.8999 163.472 71.015C163.749 71.3516 164.053 71.6654 164.381 71.9535C164.502 72.0543 164.633 72.1439 164.771 72.2211C164.771 72.2211 164.576 72.2211 164.313 72.0385C163.953 71.7756 163.623 71.4753 163.327 71.1424C161.39 68.9482 159.839 66.4411 158.741 63.7278C158.578 63.3107 158.436 62.8855 158.316 62.4538C158.272 62.3048 158.248 62.1505 158.244 61.9951Z" fill="#263238"/>
<path d="M167.417 41.1356C167.357 41.0974 167.905 40.2311 168.809 39.352C169.714 38.473 170.589 37.9421 170.627 38.0016C170.665 38.061 169.88 38.6853 169.001 39.5474C168.121 40.4095 167.484 41.1866 167.417 41.1356Z" fill="#263238"/>
<path d="M138.769 35.1056C138.808 35.0462 139.78 35.6449 140.655 36.7278C141.53 37.8107 141.929 38.8766 141.861 38.9021C141.793 38.9276 141.296 37.9424 140.438 36.9019C139.581 35.8615 138.723 35.1693 138.769 35.1056Z" fill="#263238"/>
<path d="M161.078 65.6339C160.741 65.215 160.456 64.7573 160.228 64.2708C159.04 61.975 158.318 59.4664 158.105 56.8901C158.038 56.3585 158.038 55.8206 158.105 55.2891C158.201 55.8117 158.269 56.339 158.309 56.8688C158.467 58.1333 158.721 59.384 159.069 60.6101C159.424 61.8335 159.87 63.0287 160.402 64.1858C160.655 64.6554 160.88 65.1389 161.078 65.6339Z" fill="#263238"/>
<path d="M170.033 58.4275C169.716 58.166 169.418 57.8821 169.141 57.5782C168.434 56.8791 167.679 56.2306 166.882 55.6375C166.456 55.3078 165.998 55.0231 165.514 54.7881C165.132 54.5971 164.693 54.5504 164.278 54.6565C164.002 54.7374 163.758 54.9039 163.582 55.1321C163.467 55.302 163.442 55.4209 163.421 55.4166C163.399 55.4124 163.395 55.285 163.493 55.0812C163.647 54.7938 163.905 54.5765 164.215 54.4739C164.674 54.3223 165.173 54.3511 165.612 54.5546C166.122 54.7888 166.602 55.0824 167.043 55.4294C167.857 56.0273 168.607 56.7075 169.281 57.4593C169.578 57.7429 169.832 58.0692 170.033 58.4275Z" fill="#263238"/>
<g opacity="0.3">
<path d="M158.8 63.9311C157.556 64.2454 156.295 63.5064 155.012 63.4555C153.849 63.396 152.736 63.8802 151.615 64.1817C149.165 64.8396 146.567 64.6831 144.213 63.7358C143.933 63.6388 143.677 63.4807 143.466 63.2729C143.362 63.1432 143.295 62.9886 143.27 62.8246C143.246 62.6605 143.265 62.4929 143.326 62.3386C145.487 62.3174 147.644 62.4108 149.81 62.3896C150.25 62.4209 150.689 62.3344 151.084 62.139C151.183 62.0852 151.263 62.0022 151.314 61.9012C151.314 61.9012 152.609 61.8587 153.072 61.8545C154.112 61.8545 155.314 61.9352 156.354 61.9309C156.809 61.9309 158.27 61.9946 158.236 61.9946" fill="black"/>
</g>
<g opacity="0.3">
<path d="M165.926 54.6646C167.773 54.9981 169.49 55.8425 170.882 57.1022C171.043 57.2341 171.177 57.3956 171.277 57.5779C171.328 57.6677 171.355 57.7695 171.355 57.873C171.355 57.9765 171.328 58.0783 171.277 58.1681C171.197 58.2674 171.089 58.3395 170.966 58.3745C170.844 58.4095 170.713 58.4056 170.593 58.3635C170.354 58.2754 170.135 58.138 169.952 57.9601L165.824 54.499" fill="black"/>
</g>
<path d="M167.081 42.7578C167.146 43.3429 167.159 43.9328 167.119 44.5202C167.098 45.6031 167.021 47.1064 166.864 48.7668C166.707 50.4273 166.499 51.9094 166.316 52.9795C166.249 53.563 166.127 54.1389 165.951 54.6994C165.969 54.113 166.028 53.5284 166.125 52.9498C166.257 51.8754 166.435 50.4018 166.592 48.7414C166.75 47.0809 166.851 45.6031 166.924 44.5244C166.936 43.9327 166.988 43.3424 167.081 42.7578Z" fill="#263238"/>
<path d="M148.329 54.6564L145.81 49.2291L137.151 48.6855L136.846 49.1909L143.411 61.8375L151.323 61.9012L148.329 54.6564Z" fill="#455A64"/>
<path d="M148.023 55.1616L145.505 49.7301L136.846 49.1865L143.105 62.3512L150.125 62.4021C150.543 62.4075 150.947 62.256 151.259 61.9775L151.323 61.918L148.023 55.1616Z" fill="#455A64"/>
<path d="M141.452 51.7437C141.515 51.7982 141.592 51.8333 141.674 51.8445C141.756 51.8557 141.84 51.8425 141.915 51.8066C141.99 51.7707 142.053 51.7136 142.095 51.6424C142.138 51.5712 142.159 51.4891 142.156 51.4061C142.152 51.3232 142.124 51.243 142.076 51.1756C142.027 51.1082 141.96 51.0565 141.883 51.0269C141.805 50.9973 141.721 50.9911 141.64 51.0091C141.558 51.027 141.484 51.0683 141.427 51.1279C141.386 51.1693 141.355 51.2184 141.335 51.2723C141.314 51.3261 141.305 51.3836 141.307 51.4412C141.309 51.4989 141.323 51.5554 141.348 51.6074C141.373 51.6594 141.409 51.7057 141.452 51.7437Z" fill="#EBEBEB"/>
<path d="M158.168 55.4379L154.822 55.6333C154.412 55.0522 153.876 54.5708 153.255 54.2245C152.634 53.8783 151.943 53.6762 151.233 53.6331L150.04 53.5566L149.165 54.406C149.165 54.406 143.292 54.2956 143.033 55.0048V55.2383V55.3742L148.023 56.024C148.023 56.024 143.776 55.7437 143.504 55.7352C143.232 55.7267 142.319 55.5908 142.307 56.0919C142.307 56.5166 142.765 56.8605 143.496 57.0134C143.793 57.0771 147.466 57.6292 147.466 57.6292L143.402 57.3362C142.948 57.3022 142.978 58.0369 143.224 58.1473C143.47 58.2577 148.545 60.0753 148.545 60.0753C148.053 60.3612 147.492 60.5079 146.923 60.4999C146.209 60.4065 145.041 59.4085 144.761 59.829C144.481 60.2494 144.515 60.5042 144.659 60.6146C145.404 61.0933 146.182 61.519 146.986 61.8886C147.539 62.0754 153.212 61.7909 153.212 61.7909L159.136 61.9948L158.168 55.4379Z" fill="#C69481"/>
<path d="M147.164 54.3675C147.851 54.3453 148.539 54.3637 149.224 54.4227C149.912 54.4408 150.598 54.5018 151.279 54.6053C150.592 54.63 149.904 54.6116 149.219 54.5501C148.531 54.5345 147.844 54.4735 147.164 54.3675Z" fill="#936457"/>
<path d="M147.526 54.13C147.526 54.13 147.467 54.0153 147.369 53.8072C147.271 53.5991 147.118 53.2637 146.944 52.9027C146.579 52.0873 146.095 51.0087 145.534 49.7687H145.568L143.585 49.6413L138.799 49.3228L137.351 49.2166L136.956 49.1826H137.351L138.804 49.2633L143.589 49.5563L145.573 49.688H145.598V49.7092L146.983 52.856L147.378 53.769C147.501 54.0111 147.526 54.13 147.526 54.13Z" fill="#263238"/>
<path d="M180.994 83.1304L175.227 90.3837C175.227 90.3837 181.053 98.1297 180.119 99.5735L165.256 89.4452L173.779 77.7754L180.994 83.1304Z" fill="#407BFF"/>
<g opacity="0.6">
<path d="M171.214 86.4561C171.044 86.3951 170.858 86.3991 170.691 86.4673C170.524 86.5355 170.388 86.6631 170.31 86.8256C170.243 86.9939 170.243 87.1814 170.31 87.3496C170.377 87.5178 170.506 87.6539 170.671 87.7301C170.852 87.7935 171.051 87.7874 171.228 87.7128C171.405 87.6383 171.549 87.5007 171.63 87.3267C171.681 87.1442 171.66 86.9492 171.57 86.7823C171.481 86.6153 171.331 86.4893 171.15 86.4306" fill="white"/>
</g>
<g opacity="0.6">
<path d="M165.26 89.4449L166.109 88.2686L180.123 98.5497C180.222 98.7315 180.274 98.9352 180.274 99.1421C180.274 99.3491 180.222 99.5527 180.123 99.7345L165.26 89.4449Z" fill="white"/>
</g>
<path d="M175.516 90.4818C175.46 90.5498 175.091 90.3204 174.569 90.2907C174.046 90.261 173.647 90.4224 173.605 90.3459C173.562 90.2695 173.966 89.9213 174.59 89.9892C175.214 90.0572 175.579 90.4266 175.516 90.4818Z" fill="#263238"/>
<path d="M176.569 92.2275C176.535 92.3081 176.144 92.202 175.681 92.3251C175.218 92.4483 174.917 92.7116 174.832 92.6564C174.747 92.6012 175.014 92.168 175.588 92.0279C176.161 91.8877 176.615 92.1595 176.569 92.2275Z" fill="#263238"/>
<path d="M176.089 94.6814C176.017 94.6474 176.178 94.2228 176.645 93.968C177.112 93.7132 177.554 93.8066 177.541 93.8873C177.528 93.968 177.172 94.0232 176.789 94.2397C176.407 94.4563 176.165 94.7239 176.089 94.6814Z" fill="#263238"/>
<path d="M176.645 88.6806C176.568 88.7231 176.318 88.3876 175.898 88.12C175.477 87.8525 175.074 87.7506 175.082 87.6614C175.091 87.5722 175.575 87.5425 176.063 87.8652C176.552 88.188 176.721 88.6509 176.645 88.6806Z" fill="#263238"/>
<path d="M177.783 87.1987C177.762 87.2284 177.448 87.0671 177.061 86.6594C176.833 86.4206 176.636 86.1538 176.475 85.8652C176.378 85.6961 176.292 85.5201 176.22 85.3387C176.173 85.2334 176.142 85.1218 176.127 85.0074C176.119 84.9231 176.138 84.8383 176.183 84.7662C176.227 84.6941 176.294 84.6385 176.373 84.6082C176.444 84.5857 176.52 84.5802 176.594 84.592C176.667 84.6038 176.737 84.6326 176.798 84.6762C176.892 84.741 176.973 84.8214 177.04 84.914C177.167 85.0644 177.279 85.2265 177.375 85.3981C177.54 85.689 177.658 86.0044 177.724 86.3324C177.816 86.6253 177.816 86.9397 177.724 87.2327C177.673 87.2327 177.673 86.8929 177.52 86.3833C177.432 86.0846 177.305 85.799 177.142 85.534C177.047 85.384 176.941 85.242 176.823 85.1093C176.7 84.9565 176.569 84.8588 176.479 84.9012C176.39 84.9437 176.437 84.9225 176.437 84.9947C176.447 85.0783 176.47 85.1599 176.505 85.2367C176.567 85.4085 176.641 85.5759 176.726 85.7378C176.87 86.0134 177.038 86.2763 177.227 86.5235C177.554 86.9397 177.813 87.1605 177.783 87.1987Z" fill="#263238"/>
<path d="M177.613 87.2329C177.631 86.9226 177.745 86.6256 177.94 86.3836C178.125 86.1055 178.356 85.8613 178.624 85.6617C178.783 85.5445 178.954 85.4435 179.134 85.3602C179.243 85.2934 179.367 85.2559 179.495 85.2514C179.623 85.247 179.75 85.2756 179.864 85.3347C179.928 85.3834 179.976 85.4492 180.004 85.5243C180.032 85.5995 180.038 85.6809 180.021 85.7593C179.994 85.8704 179.953 85.9775 179.898 86.0778C179.804 86.2585 179.682 86.4233 179.537 86.5662C179.301 86.8071 179.009 86.9865 178.688 87.0886C178.545 87.1494 178.391 87.1808 178.235 87.1808C178.08 87.1808 177.926 87.1494 177.783 87.0886C178.07 87.0346 178.353 86.9651 178.632 86.8805C178.911 86.7657 179.161 86.5901 179.363 86.3666C179.482 86.2401 179.582 86.0971 179.66 85.942C179.749 85.7679 179.783 85.6022 179.715 85.5767C179.645 85.5537 179.571 85.5463 179.497 85.5551C179.424 85.5639 179.353 85.5887 179.291 85.6277C179.127 85.6978 178.97 85.7846 178.824 85.8868C178.553 86.0606 178.309 86.2738 178.102 86.5195C177.779 86.9272 177.677 87.2499 177.613 87.2329Z" fill="#263238"/>
<path d="M182.544 80.6543L180.727 82.9305L173.949 77.9025L175.185 76.0127L182.544 80.6543Z" fill="#C69481"/>
</svg>
