<svg width="400" height="225" viewBox="0 0 400 225" fill="none" xmlns="http://www.w3.org/2000/svg">
<path d="M270.628 142.394C265.633 153.606 257.904 163.458 248.113 171.096C238.322 178.733 226.765 183.924 214.447 186.218C202.129 188.511 189.423 187.837 177.433 184.255C165.444 180.673 154.533 174.291 145.65 165.663C136.766 157.035 130.179 146.424 126.462 134.75C122.744 123.076 122.007 110.695 124.317 98.6805C126.626 86.6664 131.911 75.3839 139.712 65.8137C147.513 56.2435 157.594 48.6752 169.079 43.7667L181.219 70.7517C174.243 73.7331 168.119 78.33 163.381 84.1429C158.643 89.9559 155.433 96.8088 154.03 104.106C152.628 111.403 153.075 118.924 155.333 126.015C157.591 133.105 161.592 139.551 166.988 144.791C172.383 150.032 179.011 153.908 186.293 156.084C193.576 158.26 201.293 158.669 208.775 157.276C216.257 155.883 223.277 152.73 229.224 148.091C235.171 143.452 239.865 137.468 242.899 130.658L270.628 142.394Z" fill="#F5F5F5"/>
<path d="M169.537 43.5728C183.732 37.6125 199.44 35.9543 214.616 38.814C229.792 41.6736 243.733 48.9188 254.627 59.6068C265.52 70.2948 272.861 83.931 275.695 98.7411C278.529 113.551 276.724 128.85 270.515 142.647L243.49 131.093C247.319 122.584 248.433 113.148 246.685 104.014C244.937 94.88 240.41 86.4699 233.691 79.8781C226.973 73.2862 218.374 68.8177 209.014 67.054C199.655 65.2903 189.967 66.313 181.212 69.989L169.537 43.5728Z" fill="#E1E1E1"/>
</svg>
