<svg width="400" height="225" viewBox="0 0 400 225" fill="none" xmlns="http://www.w3.org/2000/svg">
<path d="M200 215.52C283.013 215.52 350.309 211.591 350.309 206.745C350.309 201.898 283.013 197.969 200 197.969C116.987 197.969 49.6912 201.898 49.6912 206.745C49.6912 211.591 116.987 215.52 200 215.52Z" fill="#F5F5F5"/>
<path d="M188.36 178.817H71.4919C70.5764 178.816 69.6989 178.451 69.0521 177.803C68.4053 177.155 68.042 176.277 68.042 175.361V11.0781C68.05 10.1678 68.4168 9.2974 69.0627 8.65598C69.7087 8.01456 70.5816 7.6539 71.4919 7.65234H188.36C189.276 7.65234 190.155 8.01646 190.804 8.66458C191.452 9.3127 191.816 10.1917 191.816 11.1083V175.361C191.816 176.278 191.452 177.157 190.804 177.805C190.155 178.453 189.276 178.817 188.36 178.817ZM71.4919 7.77339C70.6165 7.775 69.7775 8.12387 69.1591 8.74345C68.5406 9.36302 68.1933 10.2027 68.1933 11.0781V175.361C68.1933 176.237 68.5406 177.076 69.1591 177.696C69.7775 178.315 70.6165 178.664 71.4919 178.666H188.36C189.236 178.664 190.075 178.316 190.695 177.696C191.314 177.077 191.663 176.237 191.664 175.361V11.0781C191.663 10.2021 191.314 9.36247 190.695 8.74308C190.075 8.12368 189.236 7.77499 188.36 7.77339H71.4919Z" fill="#EBEBEB"/>
<path d="M319.282 178.817H202.408C201.492 178.816 200.614 178.451 199.966 177.803C199.318 177.155 198.954 176.277 198.952 175.361V11.0781C198.961 10.1672 199.33 9.29686 199.977 8.6556C200.623 8.01435 201.497 7.65389 202.408 7.65234H319.282C320.191 7.65549 321.062 8.01686 321.707 8.65811C322.352 9.29936 322.718 10.1688 322.726 11.0781V175.361C322.726 176.276 322.363 177.153 321.718 177.801C321.072 178.449 320.196 178.814 319.282 178.817ZM202.408 7.77339C201.532 7.77499 200.692 8.12368 200.073 8.74308C199.453 9.36247 199.105 10.2021 199.103 11.0781V175.361C199.105 176.237 199.453 177.077 200.073 177.696C200.692 178.316 201.532 178.664 202.408 178.666H319.282C320.158 178.664 320.997 178.316 321.617 177.696C322.236 177.077 322.585 176.237 322.586 175.361V11.0781C322.585 10.2021 322.236 9.36247 321.617 8.74308C320.997 8.12368 320.158 7.77499 319.282 7.77339H202.408Z" fill="#EBEBEB"/>
<path d="M287.954 102.211H300.973C301.256 102.208 301.533 102.132 301.777 101.99C302.022 101.848 302.225 101.646 302.368 101.402C302.511 101.158 302.588 100.881 302.592 100.599C302.595 100.316 302.526 100.037 302.39 99.7896L295.877 88.5138C295.735 88.2648 295.529 88.0578 295.281 87.9139C295.033 87.7699 294.751 87.6941 294.464 87.6941C294.177 87.6941 293.895 87.7699 293.647 87.9139C293.399 88.0578 293.193 88.2648 293.051 88.5138L286.544 99.7896C286.408 100.037 286.339 100.315 286.342 100.597C286.346 100.879 286.422 101.155 286.564 101.399C286.706 101.643 286.909 101.846 287.153 101.988C287.396 102.13 287.672 102.207 287.954 102.211ZM295.339 91.5582L295.054 97.175H293.844L293.547 91.5582H295.339ZM293.523 99.1057C293.522 98.9821 293.546 98.8595 293.594 98.7455C293.642 98.6315 293.712 98.5283 293.801 98.4423C293.89 98.3563 293.995 98.2892 294.111 98.2451C294.226 98.201 294.349 98.1808 294.473 98.1857C294.598 98.18 294.722 98.1996 294.839 98.2432C294.956 98.2867 295.063 98.3535 295.153 98.4394C295.244 98.5253 295.316 98.6287 295.365 98.7431C295.415 98.8576 295.441 98.981 295.441 99.1057C295.442 99.2318 295.418 99.3567 295.369 99.4729C295.32 99.5891 295.248 99.6942 295.158 99.7819C295.067 99.8696 294.96 99.9381 294.842 99.9831C294.725 100.028 294.599 100.049 294.473 100.044C294.347 100.05 294.221 100.03 294.103 99.9849C293.985 99.9402 293.877 99.8718 293.786 99.7839C293.696 99.696 293.624 99.5905 293.575 99.4739C293.527 99.3573 293.503 99.232 293.505 99.1057H293.523Z" fill="#F0F0F0"/>
<path d="M97.5724 51.3697H110.585C110.868 51.367 111.145 51.291 111.389 51.1492C111.634 51.0074 111.837 50.8047 111.98 50.5608C112.123 50.3169 112.2 50.0402 112.203 49.7576C112.207 49.4751 112.138 49.1964 112.002 48.9487L105.441 37.6426C105.297 37.3937 105.091 37.187 104.842 37.0432C104.594 36.8994 104.312 36.8237 104.024 36.8237C103.737 36.8237 103.455 36.8994 103.206 37.0432C102.958 37.187 102.751 37.3937 102.608 37.6426L96.1259 48.9185C95.981 49.1692 95.9054 49.4539 95.9068 49.7435C95.9081 50.033 95.9864 50.317 96.1335 50.5664C96.2807 50.8158 96.4915 51.0216 96.7443 51.1627C96.9971 51.3039 97.2829 51.3753 97.5724 51.3697ZM104.956 40.7234L104.666 46.334H103.455L103.153 40.7234H104.956ZM103.141 48.2708C103.139 48.1472 103.162 48.0245 103.209 47.9102C103.257 47.7959 103.326 47.6923 103.415 47.6057C103.503 47.5192 103.608 47.4514 103.723 47.4066C103.838 47.3617 103.961 47.3407 104.085 47.3448C104.213 47.3344 104.342 47.3508 104.464 47.3928C104.586 47.4347 104.697 47.5015 104.792 47.5888C104.887 47.676 104.962 47.782 105.014 47.8999C105.065 48.0178 105.092 48.1451 105.092 48.2739C105.092 48.4026 105.065 48.5299 105.014 48.6478C104.962 48.7657 104.887 48.8717 104.792 48.959C104.697 49.0463 104.586 49.113 104.464 49.155C104.342 49.197 104.213 49.2133 104.085 49.2029C103.957 49.2131 103.829 49.1964 103.708 49.1539C103.587 49.1115 103.476 49.0442 103.382 48.9565C103.289 48.8687 103.215 48.7624 103.165 48.6443C103.115 48.5262 103.09 48.399 103.092 48.2708H103.141Z" fill="#F0F0F0"/>
<path d="M132.465 190.069H145.478C145.765 190.069 146.047 189.994 146.295 189.85C146.544 189.707 146.75 189.501 146.894 189.252C147.038 189.004 147.113 188.722 147.113 188.435C147.113 188.148 147.038 187.866 146.894 187.618L140.388 176.342C140.245 176.093 140.038 175.886 139.789 175.742C139.541 175.599 139.259 175.523 138.971 175.523C138.684 175.523 138.402 175.599 138.154 175.742C137.905 175.886 137.699 176.093 137.555 176.342L131.049 187.618C130.905 187.866 130.83 188.148 130.83 188.435C130.83 188.722 130.905 189.004 131.049 189.252C131.193 189.501 131.399 189.707 131.648 189.85C131.896 189.994 132.178 190.069 132.465 190.069ZM139.849 179.417L139.559 185.033H138.348L138.045 179.417H139.849ZM138.033 186.964C138.032 186.84 138.057 186.718 138.104 186.604C138.152 186.49 138.223 186.387 138.312 186.301C138.4 186.215 138.506 186.148 138.621 186.103C138.737 186.059 138.86 186.039 138.984 186.044C139.109 186.038 139.233 186.058 139.351 186.101C139.468 186.145 139.575 186.212 139.666 186.297C139.757 186.383 139.83 186.486 139.88 186.601C139.93 186.716 139.957 186.839 139.958 186.964C139.958 187.09 139.933 187.215 139.883 187.332C139.834 187.448 139.762 187.553 139.671 187.641C139.58 187.728 139.472 187.796 139.354 187.841C139.236 187.886 139.11 187.907 138.984 187.902C138.857 187.909 138.73 187.889 138.611 187.845C138.493 187.801 138.384 187.732 138.293 187.644C138.201 187.557 138.129 187.451 138.08 187.334C138.032 187.217 138.007 187.091 138.009 186.964H138.033Z" fill="#F0F0F0"/>
<path d="M254.333 173.757H267.351C267.638 173.756 267.919 173.68 268.167 173.536C268.415 173.393 268.62 173.186 268.763 172.938C268.906 172.69 268.981 172.408 268.981 172.122C268.98 171.835 268.905 171.554 268.762 171.306L262.261 160.03C262.118 159.781 261.912 159.574 261.663 159.431C261.414 159.287 261.132 159.211 260.845 159.211C260.558 159.211 260.276 159.287 260.027 159.431C259.778 159.574 259.572 159.781 259.429 160.03L252.922 171.306C252.779 171.554 252.704 171.835 252.703 172.122C252.703 172.408 252.778 172.69 252.921 172.938C253.064 173.186 253.269 173.393 253.517 173.536C253.765 173.68 254.046 173.756 254.333 173.757ZM261.717 163.105L261.426 168.721H260.216L259.913 163.105H261.717ZM259.901 170.652C259.899 170.529 259.923 170.406 259.97 170.292C260.017 170.178 260.087 170.075 260.175 169.989C260.263 169.903 260.368 169.836 260.484 169.792C260.599 169.748 260.722 169.727 260.845 169.732C260.97 169.727 261.095 169.746 261.212 169.79C261.329 169.833 261.436 169.9 261.527 169.986C261.618 170.071 261.691 170.175 261.741 170.289C261.791 170.404 261.818 170.527 261.819 170.652C261.82 170.779 261.794 170.904 261.745 171.02C261.695 171.136 261.623 171.241 261.532 171.329C261.441 171.416 261.333 171.485 261.215 171.53C261.097 171.575 260.971 171.595 260.845 171.59C260.72 171.595 260.595 171.575 260.478 171.529C260.36 171.484 260.254 171.416 260.164 171.328C260.075 171.24 260.004 171.135 259.957 171.019C259.909 170.902 259.886 170.778 259.889 170.652H259.901Z" fill="#F0F0F0"/>
<path d="M258.363 36.4221H270.309C270.572 36.4213 270.83 36.3517 271.057 36.2202C271.285 36.0887 271.474 35.9 271.606 35.6728C271.738 35.4455 271.808 35.1877 271.809 34.925C271.81 34.6623 271.743 34.4038 271.613 34.1753L265.595 23.8337C265.464 23.6043 265.275 23.4136 265.047 23.2809C264.819 23.1483 264.56 23.0784 264.296 23.0784C264.032 23.0784 263.773 23.1483 263.545 23.2809C263.316 23.4136 263.127 23.6043 262.997 23.8337L257.029 34.1753C256.894 34.4055 256.824 34.6675 256.825 34.934C256.826 35.2006 256.899 35.462 257.035 35.6912C257.171 35.9204 257.366 36.109 257.599 36.2375C257.833 36.3661 258.096 36.4298 258.363 36.4221ZM265.143 26.6523L264.913 31.808H263.819L263.539 26.6523H265.143ZM263.458 33.6236C263.457 33.5095 263.479 33.3963 263.522 33.2909C263.566 33.1855 263.63 33.0901 263.712 33.0103C263.794 32.9306 263.891 32.8683 263.997 32.8272C264.103 32.786 264.217 32.7669 264.331 32.771C264.557 32.771 264.774 32.8608 264.934 33.0207C265.094 33.1806 265.184 33.3975 265.184 33.6236C265.184 33.8497 265.094 34.0666 264.934 34.2265C264.774 34.3864 264.557 34.4762 264.331 34.4762C264.217 34.4803 264.103 34.4611 263.997 34.42C263.891 34.3789 263.794 34.3165 263.712 34.2368C263.63 34.1571 263.566 34.0616 263.522 33.9562C263.479 33.8508 263.457 33.7376 263.458 33.6236Z" fill="#F0F0F0"/>
<path d="M83.9184 126.584H91.127C91.2862 126.585 91.443 126.545 91.5813 126.466C91.7196 126.387 91.8346 126.273 91.9145 126.135C91.9945 125.997 92.0365 125.841 92.0364 125.682C92.0363 125.522 91.994 125.366 91.9138 125.228L88.2823 118.988C88.2044 118.85 88.091 118.734 87.9538 118.654C87.8166 118.574 87.6605 118.531 87.5015 118.531C87.3426 118.531 87.1865 118.574 87.0492 118.654C86.912 118.734 86.7987 118.85 86.7207 118.988L83.0892 125.228C83.0069 125.369 82.9643 125.529 82.9659 125.693C82.9675 125.856 83.0132 126.015 83.0983 126.154C83.1834 126.293 83.3046 126.407 83.449 126.482C83.5934 126.558 83.7556 126.593 83.9184 126.584ZM88.0099 120.689L87.8526 123.8H87.1928L87.0294 120.689H88.0099ZM86.9931 124.871C86.9922 124.802 87.0054 124.734 87.0317 124.67C87.058 124.607 87.0969 124.549 87.1462 124.501C87.1954 124.453 87.2539 124.415 87.3181 124.391C87.3823 124.366 87.4509 124.354 87.5197 124.357C87.6561 124.357 87.787 124.411 87.8834 124.507C87.9799 124.604 88.0341 124.735 88.0341 124.871C88.0341 125.008 87.9799 125.139 87.8834 125.235C87.787 125.331 87.6561 125.386 87.5197 125.386C87.4509 125.388 87.3823 125.377 87.3181 125.352C87.2539 125.327 87.1954 125.289 87.1462 125.241C87.0969 125.193 87.058 125.136 87.0317 125.072C87.0054 125.008 86.9922 124.94 86.9931 124.871Z" fill="#F0F0F0"/>
<path d="M210.29 80.4575H227.852C228.239 80.4552 228.619 80.3513 228.953 80.1562C229.287 79.9611 229.565 79.6817 229.757 79.3459C229.95 79.01 230.051 78.6295 230.05 78.2424C230.05 77.8552 229.947 77.475 229.754 77.1398L220.98 61.9371C220.788 61.5999 220.511 61.3195 220.175 61.1245C219.84 60.9294 219.459 60.8267 219.071 60.8267C218.683 60.8267 218.302 60.9294 217.966 61.1245C217.631 61.3195 217.353 61.5999 217.161 61.9371L208.314 77.1398C208.117 77.4805 208.015 77.8675 208.017 78.261C208.02 78.6545 208.127 79.0402 208.329 79.3783C208.53 79.7164 208.818 79.9946 209.163 80.1843C209.507 80.3741 209.896 80.4683 210.29 80.4575ZM220.243 66.0806L219.86 73.6598H218.252L217.854 66.0806H220.243ZM217.781 76.2698C217.779 76.1034 217.81 75.9383 217.873 75.7843C217.936 75.6304 218.03 75.4907 218.148 75.3737C218.267 75.2568 218.407 75.1648 218.562 75.1034C218.717 75.042 218.882 75.0125 219.049 75.0164C219.3 75.0164 219.546 75.0912 219.755 75.2312C219.964 75.3712 220.126 75.5701 220.222 75.8027C220.317 76.0353 220.341 76.291 220.291 76.5374C220.241 76.7838 220.119 77.0097 219.94 77.1865C219.761 77.3632 219.534 77.4828 219.287 77.5301C219.04 77.5773 218.784 77.5501 218.553 77.4518C218.322 77.3536 218.125 77.1888 217.987 76.9783C217.849 76.7678 217.778 76.5212 217.781 76.2698Z" fill="#F0F0F0"/>
<path d="M162.97 27.8254H144.243V40.2028H162.97V27.8254Z" fill="#E0E0E0"/>
<path d="M163.006 27.8254H144.243V29.8591H163.006V27.8254Z" fill="#F0F0F0"/>
<path d="M122.049 73.7217H103.323V86.0991H122.049V73.7217Z" fill="#E0E0E0"/>
<path d="M122.085 73.7217H103.323V75.7553H122.085V73.7217Z" fill="#F0F0F0"/>
<path d="M119.459 161.822H100.732V174.199H119.459V161.822Z" fill="#E0E0E0"/>
<path d="M119.495 161.822H100.732V163.855H119.495V161.822Z" fill="#F0F0F0"/>
<path d="M263.641 129.925H244.915V142.302H263.641V129.925Z" fill="#E0E0E0"/>
<path d="M263.678 129.925H244.915V131.959H263.678V129.925Z" fill="#F0F0F0"/>
<path d="M304.683 145.982H285.957V158.36H304.683V145.982Z" fill="#E0E0E0"/>
<path d="M304.72 145.982H285.957V148.016H304.72V145.982Z" fill="#F0F0F0"/>
<path d="M297.788 52.2734H275.331V67.1166H297.788V52.2734Z" fill="#E0E0E0"/>
<path d="M297.832 52.2734H275.331V54.7122H297.832V52.2734Z" fill="#F0F0F0"/>
<path d="M130.546 201.259L135.941 201.166L137.282 188.701L131.887 188.794L130.546 201.259Z" fill="#B78876"/>
<path opacity="0.2" d="M137.283 188.708L136.593 195.127L131.197 195.22L131.887 188.794L137.283 188.708Z" fill="black"/>
<path d="M143.198 143.714C143.198 160.769 138.399 193.244 138.399 193.244L129.375 194.647C129.375 194.647 128.499 164.366 128.158 147.606C128.104 145.141 121.228 133.218 114.142 121.574C110.491 115.574 106.785 109.635 103.917 105.1C100.855 100.247 98.7615 96.9914 98.7615 96.9914L120.181 88.9756C120.181 88.9756 143.182 127.295 143.198 143.714Z" fill="#263238"/>
<path d="M139.662 193.771L128.794 194.461L128.608 190.964L140.538 190.026L139.662 193.771Z" fill="#263238"/>
<path d="M136.205 200.414C136.204 200.387 136.21 200.36 136.224 200.337C136.238 200.313 136.258 200.295 136.283 200.283C136.531 200.166 138.74 199.135 139.383 199.507C139.444 199.542 139.495 199.593 139.529 199.655C139.563 199.716 139.58 199.786 139.577 199.856C139.586 199.972 139.566 200.088 139.52 200.195C139.475 200.301 139.404 200.395 139.314 200.469C138.701 200.965 137.166 200.709 136.306 200.507C136.282 200.503 136.259 200.493 136.241 200.476C136.223 200.46 136.211 200.438 136.205 200.414ZM136.74 200.352C137.918 200.593 138.81 200.569 139.151 200.283C139.212 200.236 139.26 200.174 139.29 200.104C139.319 200.033 139.33 199.956 139.321 199.879C139.323 199.853 139.318 199.827 139.306 199.803C139.293 199.78 139.275 199.761 139.252 199.748H139.205C138.841 199.569 137.608 199.98 136.74 200.352Z" fill="#263238"/>
<path d="M136.251 200.5C136.235 200.486 136.222 200.468 136.214 200.447C136.205 200.427 136.202 200.405 136.205 200.383C136.292 199.624 136.615 198.911 137.127 198.345C137.228 198.264 137.343 198.204 137.467 198.169C137.591 198.135 137.721 198.126 137.848 198.143C138.197 198.197 138.29 198.376 138.306 198.515C138.383 199.128 137.042 200.244 136.383 200.515C136.369 200.523 136.353 200.527 136.337 200.527C136.321 200.527 136.305 200.523 136.29 200.515L136.251 200.5ZM137.802 198.399C137.709 198.386 137.614 198.393 137.523 198.418C137.432 198.443 137.348 198.487 137.275 198.546C136.854 198.995 136.583 199.564 136.5 200.174C137.174 199.802 138.05 198.918 138.05 198.546C138.042 198.519 138.027 198.493 138.007 198.473C137.986 198.453 137.961 198.438 137.934 198.43C137.894 198.414 137.852 198.404 137.81 198.399H137.802Z" fill="#263238"/>
<path d="M135.786 199.756L129.894 199.569C129.788 199.567 129.684 199.6 129.599 199.663C129.513 199.726 129.451 199.816 129.422 199.918L128.158 204.655C128.126 204.769 128.121 204.89 128.142 205.006C128.164 205.123 128.212 205.234 128.284 205.329C128.355 205.424 128.447 205.501 128.553 205.555C128.659 205.609 128.776 205.638 128.894 205.639C131.026 205.639 134.096 205.639 136.771 205.732C139.872 205.833 141.879 205.686 145.539 205.81C147.748 205.88 148.461 203.67 147.539 203.438C143.36 202.384 140.624 202.577 137.065 200.221C136.691 199.949 136.248 199.788 135.786 199.756Z" fill="#263238"/>
<path opacity="0.2" d="M114.142 121.574C110.491 115.573 106.785 109.635 103.917 105.1C105.06 103.644 106.386 102.341 107.863 101.224C107.863 101.224 114.119 112.108 114.142 121.574Z" fill="black"/>
<path d="M69.6904 200.608L74.9 202.019L79.6599 190.422L74.4503 189.011L69.6904 200.608Z" fill="#B78876"/>
<path opacity="0.2" d="M79.6522 190.429L77.2024 196.406L71.9929 194.988L74.4426 189.011L79.6522 190.429Z" fill="black"/>
<path d="M120.724 84.3472L120.29 91.8437L107.297 102.208C107.297 102.208 106.405 137.094 102.708 144.737C99.0097 152.381 81.226 192.414 81.226 192.414L71.5046 189.414C71.5046 189.414 86.9549 142.357 88.5131 139.574C90.0713 136.791 81.8849 96.2159 92.8466 77.0291L120.724 84.3472Z" fill="#263238"/>
<path d="M136.748 50.8962C137.298 54.3925 137.756 57.8733 138.159 61.3851C138.562 64.8968 138.934 68.4086 139.151 71.9979L139.29 74.3236C139.355 74.8947 139.493 75.4549 139.701 75.9903C140.221 77.2734 140.952 78.4604 141.864 79.5021C142.883 80.6976 144.007 81.8002 145.221 82.7968C145.849 83.3085 146.492 83.8356 147.159 84.3473C147.826 84.8589 148.539 85.3163 149.151 85.735L147.601 89.4483C146.679 89.1746 145.773 88.8485 144.888 88.4715C144.027 88.0994 143.159 87.6963 142.322 87.2621C140.586 86.3494 138.958 85.2442 137.469 83.9674C135.826 82.5829 134.454 80.906 133.422 79.0215C132.854 77.9789 132.434 76.8621 132.174 75.7035C132.096 75.4167 132.058 75.1066 132.003 74.8042L131.895 74.029L131.716 72.7654L130.166 62.4394C129.647 58.9819 129.158 55.5088 128.724 52.0436L136.748 50.8962Z" fill="#B78876"/>
<path d="M125.468 41.3457C122.452 45.5319 127.631 61.5016 127.631 61.5016L139.616 58.61C139.208 53.9492 138.299 49.3461 136.903 44.8807C134.67 38.4386 128.763 36.7408 125.468 41.3457Z" fill="#407BFF"/>
<path opacity="0.7" d="M125.468 41.3457C122.452 45.5319 127.631 61.5016 127.631 61.5016L139.616 58.61C139.208 53.9492 138.299 49.3461 136.903 44.8807C134.67 38.4386 128.763 36.7408 125.468 41.3457Z" fill="#1471E8"/>
<path opacity="0.2" d="M129.538 49.8728C131.616 51.8574 132.817 56.9739 132.058 60.4236L127.631 61.5012C126.424 57.6419 125.507 53.698 124.887 49.7023C126.011 48.772 127.15 47.6169 129.538 49.8728Z" fill="black"/>
<path d="M103.49 31.5C103.076 37.4995 102.213 43.4596 100.909 49.3302C100.017 53.4312 98.994 57.2841 97.9862 60.7571C95.6605 68.8892 93.3348 74.9205 92.8464 77.0368L120.755 84.3317C134.538 56.6639 132.654 39.3686 132.654 39.3686C130.65 38.2441 128.579 37.2423 126.453 36.3684C126.003 36.1824 125.538 36.0118 125.065 35.8413C121.177 34.5787 117.22 33.5433 113.212 32.7404C112.436 32.5776 111.661 32.438 110.886 32.3062C107.01 31.6938 103.49 31.5 103.49 31.5Z" fill="#407BFF"/>
<path opacity="0.7" d="M103.49 31.5C103.076 37.4995 102.213 43.4596 100.909 49.3302C100.017 53.4312 98.994 57.2841 97.9862 60.7571C95.6605 68.8892 93.3348 74.9205 92.8464 77.0368L120.755 84.3318C134.538 56.6639 132.654 39.3686 132.654 39.3686C130.65 38.2441 128.579 37.2423 126.453 36.3684C126.003 36.1824 125.538 36.0118 125.065 35.8413C121.177 34.5787 117.22 33.5433 113.212 32.7404C112.436 32.5776 111.661 32.438 110.886 32.3062C107.01 31.6938 103.49 31.5 103.49 31.5Z" fill="#016CDE"/>
<path d="M123.173 37.6863C121.739 35.128 123.329 32.9264 125.243 31.0891L122.259 21.7244C120.817 25.461 117.607 31.9651 113.886 32.7403C114.273 34.545 115.069 36.237 116.212 37.6863H123.173Z" fill="#B78876"/>
<path opacity="0.2" d="M123.476 25.5464L125.243 31.0815C124.705 31.5854 124.212 32.1353 123.77 32.725C122.468 31.6397 121.483 28.8489 122.266 27.2984C122.556 26.644 122.967 26.0497 123.476 25.5464Z" fill="black"/>
<path d="M141.554 22.1896C141.407 22.9028 135.058 21.4144 134.073 20.0034C133.089 18.5925 136.298 17.8638 138.298 18.9026C139.646 19.7028 140.767 20.8343 141.554 22.1896Z" fill="#407BFF"/>
<path opacity="0.3" d="M141.554 22.1896C141.407 22.9028 135.058 21.4144 134.073 20.0034C133.089 18.5925 136.298 17.8638 138.298 18.9026C139.646 19.7028 140.767 20.8343 141.554 22.1896Z" fill="black"/>
<path d="M138.593 18.5924C138.593 20.763 136.91 24.7012 134.585 22.4685C132.259 20.2359 138.631 14.8635 138.593 18.5924Z" fill="#263238"/>
<path d="M135.135 27.7559C134.754 28.4085 134.327 29.0328 133.856 29.6242C130.662 33.6476 124.274 33.446 121.894 28.9264C121.729 28.6248 121.587 28.3113 121.468 27.9884C120.173 24.3991 121.576 21.5928 123.53 16.6313C123.974 15.4696 124.706 14.4397 125.657 13.6379C126.608 12.8361 127.746 12.2888 128.966 12.0471C130.186 11.8054 131.448 11.8773 132.633 12.256C133.817 12.6348 134.886 13.308 135.74 14.2126C139.058 17.7012 137.562 23.6859 135.135 27.7559Z" fill="#B78876"/>
<path d="M131.959 26.5754C131.969 26.5376 132.383 26.5746 133.05 26.6636C133.218 26.6901 133.38 26.6989 133.439 26.5932C133.496 26.4281 133.503 26.2494 133.457 26.0805C133.408 25.643 133.357 25.1862 133.304 24.7055C133.102 22.7545 133.212 22.5263 133.292 22.5174C133.371 22.5086 133.388 22.7298 133.59 24.6808C133.633 25.1615 133.677 25.6189 133.726 26.0564C133.777 26.2815 133.747 26.5174 133.64 26.7221C133.6 26.7772 133.548 26.822 133.487 26.8527C133.427 26.8834 133.36 26.8991 133.292 26.8985C133.195 26.8985 133.098 26.8862 133.004 26.8618C132.35 26.7195 131.95 26.6154 131.959 26.5754Z" fill="#263238"/>
<path d="M127.135 8.01074C126.031 8.35443 125.024 8.95483 124.197 9.76275C121.313 12.414 119.212 16.3832 122.863 20.3911C125.507 19.3988 126.809 15.7398 127.135 14.6932V8.01074Z" fill="#263238"/>
<path d="M119.786 19.7786C119.702 20.4362 119.75 21.1038 119.927 21.7427C120.104 22.3815 120.407 22.9787 120.817 23.4997C121.925 24.8873 123.53 24.1509 124.096 22.5694C124.615 21.143 124.662 18.6933 123.127 17.918C122.789 17.7521 122.417 17.6704 122.041 17.68C121.665 17.6895 121.297 17.7901 120.969 17.973C120.64 18.1559 120.361 18.4157 120.155 18.7302C119.949 19.0447 119.822 19.4044 119.786 19.7786Z" fill="#B78876"/>
<path d="M130.267 21.329C130.081 21.7166 130.143 22.1042 130.406 22.2515C130.67 22.3988 131.019 22.143 131.181 21.7476C131.344 21.3523 131.305 20.9724 131.042 20.8251C130.778 20.6778 130.453 20.9336 130.267 21.329Z" fill="#263238"/>
<path d="M134.74 23.36C134.554 23.7476 134.616 24.1353 134.872 24.2826C135.127 24.4298 135.492 24.174 135.647 23.7864C135.802 23.3988 135.763 23.0112 135.507 22.8561C135.251 22.7011 134.918 22.9647 134.74 23.36Z" fill="#263238"/>
<path d="M128.763 27.0271C128.923 27.127 129.088 27.2176 129.259 27.2985C129.29 27.3102 129.324 27.3103 129.356 27.299C129.387 27.2876 129.413 27.2654 129.429 27.2365C129.437 27.2213 129.442 27.2047 129.443 27.1877C129.444 27.1707 129.441 27.1537 129.435 27.1377C129.43 27.1217 129.421 27.1071 129.409 27.0947C129.397 27.0824 129.383 27.0726 129.367 27.0659C128.871 26.8557 128.432 26.5301 128.087 26.1161C127.742 25.7022 127.5 25.2119 127.383 24.686C127.373 24.6571 127.353 24.6328 127.326 24.6171C127.3 24.6014 127.269 24.5953 127.239 24.5999C127.209 24.6045 127.181 24.6194 127.161 24.6422C127.14 24.665 127.128 24.6942 127.127 24.7247C127.227 25.2003 127.423 25.6502 127.705 26.0464C127.986 26.4425 128.346 26.7764 128.763 27.0271Z" fill="#263238"/>
<path d="M129.538 19.267C129.578 19.2902 129.624 19.3023 129.67 19.3023C129.716 19.3023 129.762 19.2902 129.802 19.267C130.08 19.1073 130.392 19.015 130.712 18.9975C131.033 18.98 131.353 19.0378 131.647 19.1662C131.676 19.1826 131.709 19.1931 131.742 19.1969C131.776 19.2007 131.81 19.1978 131.842 19.1885C131.875 19.1791 131.905 19.1634 131.931 19.1423C131.957 19.1212 131.979 19.0951 131.996 19.0655C132.012 19.0365 132.022 19.0047 132.026 18.9717C132.029 18.9388 132.027 18.9054 132.017 18.8736C132.008 18.8418 131.992 18.8122 131.971 18.7866C131.95 18.761 131.924 18.7398 131.895 18.7244C131.527 18.5548 131.125 18.4749 130.721 18.4911C130.316 18.5072 129.922 18.6191 129.569 18.8174C129.539 18.8321 129.512 18.8528 129.491 18.8781C129.469 18.9035 129.452 18.9329 129.442 18.9648C129.432 18.9967 129.428 19.0302 129.432 19.0635C129.435 19.0968 129.445 19.1291 129.461 19.1585C129.477 19.2004 129.504 19.2376 129.538 19.267Z" fill="#263238"/>
<path d="M137.376 22.7398C137.418 22.7715 137.471 22.7854 137.523 22.7786C137.556 22.7786 137.589 22.7719 137.62 22.759C137.65 22.746 137.678 22.7271 137.701 22.7032C137.724 22.6794 137.742 22.6511 137.754 22.6201C137.766 22.5891 137.772 22.556 137.771 22.5228C137.771 22.1192 137.675 21.7214 137.491 21.3627C137.306 21.0039 137.038 20.6946 136.709 20.4607C136.65 20.4277 136.58 20.4182 136.514 20.434C136.448 20.4497 136.39 20.4897 136.352 20.5459C136.318 20.6036 136.308 20.6726 136.323 20.7378C136.339 20.8031 136.38 20.8595 136.438 20.8948C136.696 21.081 136.906 21.327 137.049 21.6118C137.192 21.8966 137.264 22.2118 137.259 22.5305C137.258 22.5727 137.268 22.6144 137.289 22.6513C137.309 22.6882 137.339 22.7188 137.376 22.7398Z" fill="#263238"/>
<path d="M138.391 20.0034C134.825 17.2358 130.275 15.9799 126.716 15.4063C124.803 15.0832 122.866 14.925 120.925 14.9334C121.08 12.9333 123.639 8.35947 125.243 8.02613C127.939 7.70586 130.668 7.79734 133.337 8.29745C135.213 8.99515 138.942 11.7007 139.221 12.8403C139.802 15.2202 138.391 20.0034 138.391 20.0034Z" fill="#016CDE"/>
<path d="M126.708 15.3986C126.708 15.3986 131.437 14.3443 135.577 15.949C139.717 17.5537 141.554 22.1508 141.554 22.1508C141.554 22.1508 141.19 21.1973 137.771 19.9646C133.98 18.639 130.771 18.6157 126.708 15.3986Z" fill="#407BFF"/>
<path opacity="0.1" d="M133.337 8.29745C133.337 8.29745 129.112 10.1192 128.817 10.4138C128.523 10.7084 126.716 15.4063 126.716 15.4063C124.803 15.0832 122.866 14.925 120.925 14.9334C121.08 12.9333 123.639 8.35947 125.243 8.02613C127.939 7.70586 130.668 7.79734 133.337 8.29745Z" fill="black"/>
<path opacity="0.1" d="M126.708 15.3986C126.708 15.3986 131.437 14.3443 135.577 15.949C139.717 17.5537 141.554 22.1508 141.554 22.1508C141.554 22.1508 141.19 21.1973 137.771 19.9646C133.98 18.639 130.771 18.6157 126.708 15.3986Z" fill="black"/>
<path opacity="0.77" d="M135.135 27.7556C134.754 28.4082 134.327 29.0326 133.856 29.6239C130.662 33.6473 124.274 33.4458 121.894 28.9262C121.75 25.5381 122.63 22.1852 124.421 19.3056L125.243 18.4219C125.243 18.4219 124.22 22.3678 124.522 23.143C124.825 23.9182 127.019 22.926 128.034 23.5694C128.704 24.0602 129.199 24.7531 129.445 25.5462L128.817 25.9416C128.817 25.9416 127.584 23.9725 127.135 23.9182C126.685 23.864 124.538 25.8253 124.732 26.4998C124.925 27.1742 124.6 27.5153 125.243 27.8176C125.887 28.12 127.453 27.0889 127.453 27.0889L128.305 27.8642C128.305 27.8642 126.941 29.3216 127.15 29.6162C127.51 29.8837 127.928 30.0625 128.37 30.138C128.812 30.2134 129.265 30.1834 129.693 30.0503C130.67 29.6549 130.631 27.523 130.817 27.306C131.003 27.0889 129.313 26.3525 129.313 26.3525L129.833 25.5772C129.833 25.5772 131.964 26.9339 132.042 27.337C132.12 27.7401 131.701 28.965 132.042 28.965C133.146 28.7807 134.199 28.3688 135.135 27.7556Z" fill="black"/>
<path d="M137.019 15.1273L136.903 14.6699L137.236 14.3443L138.011 14.5459C137.976 14.3914 137.9 14.2493 137.791 14.1346C137.682 14.0199 137.544 13.937 137.391 13.8947C137.246 13.8536 137.093 13.852 136.947 13.8902C136.801 13.9283 136.668 14.0048 136.562 14.1117C136.529 14.0884 136.492 14.0726 136.453 14.0652L134.406 13.4838H134.298C134.257 13.3345 134.178 13.1987 134.067 13.0906C133.956 12.9824 133.819 12.9058 133.669 12.8687C133.518 12.8315 133.361 12.8352 133.213 12.8793C133.064 12.9234 132.93 13.0063 132.825 13.1194L133.6 13.3288L133.716 13.7784L133.383 14.104L132.608 13.9024C132.644 14.0565 132.72 14.1983 132.829 14.3128C132.938 14.4273 133.076 14.5105 133.228 14.5536C133.373 14.5941 133.525 14.5961 133.671 14.5593C133.816 14.5226 133.95 14.4485 134.058 14.3443H134.166L136.213 14.9257C136.248 14.9332 136.285 14.9332 136.321 14.9257C136.362 15.075 136.442 15.2108 136.552 15.3189C136.663 15.4271 136.8 15.5037 136.951 15.5409C137.101 15.578 137.258 15.5744 137.407 15.5303C137.555 15.4862 137.689 15.4033 137.794 15.2901L137.019 15.1273Z" fill="white"/>
<path d="M148.19 85.2544L153.415 86.9211L149.252 91.3554C149.252 91.3554 144.678 89.5879 145.686 87.27L148.19 85.2544Z" fill="#C09180"/>
<path d="M156.059 92.6888L154.493 95.5184L149.252 91.3554L153.415 86.9211L156.059 92.6888Z" fill="#C09180"/>
<path d="M103.18 42.6634C100.785 45.4077 98.3429 48.2451 96.025 51.0669C94.8467 52.47 93.6993 53.9042 92.6528 55.3151C91.634 56.6326 90.7067 58.0183 89.8774 59.4626C89.738 59.7133 89.6138 59.9722 89.5053 60.2378C89.5053 60.3153 89.4511 60.3774 89.4588 60.3076C89.4666 60.2378 89.4588 60.3076 89.4588 60.2378V59.889C89.421 59.5209 89.3214 59.1619 89.1642 58.8269C89.09 58.6775 89.0072 58.5326 88.9162 58.3928C88.8231 58.261 88.7069 58.1292 88.6448 58.0517C88.5828 57.9742 88.4743 57.8889 88.389 57.8114L88.1875 57.6563C88.0919 57.5906 87.9907 57.5336 87.8851 57.4858L87.7146 57.4082H87.6293C87.5673 57.4082 87.6293 57.4082 87.7456 57.4548C88.0562 57.5285 88.3726 57.5752 88.6913 57.5943C89.4666 57.6563 90.3271 57.6718 91.2031 57.6563C92.0791 57.6408 92.9861 57.6563 93.9009 57.5865C97.5444 57.416 101.297 57.1369 105.025 56.9121L105.801 60.8735C102.138 62.1031 98.3986 63.0897 94.6063 63.8271C92.6078 64.2369 90.5814 64.4961 88.5441 64.6024C87.9208 64.6249 87.2967 64.6068 86.6758 64.5481C86.2481 64.5028 85.8252 64.4198 85.4121 64.3C85.2696 64.2629 85.1298 64.2163 84.9935 64.1605C84.8385 64.0984 84.6989 64.0519 84.4974 63.9512C84.2855 63.8477 84.0832 63.7258 83.8927 63.5868C83.7752 63.5102 83.6638 63.4246 83.5593 63.331C83.4198 63.2147 83.2958 63.0907 83.1717 62.9666C83.033 62.8164 82.906 62.6557 82.7919 62.486C82.6622 62.3034 82.5506 62.1087 82.4585 61.9046C82.2479 61.4637 82.1192 60.9883 82.0787 60.5014C82.071 60.3827 82.071 60.2635 82.0787 60.1448V59.7959C82.0698 59.6565 82.0698 59.5167 82.0787 59.3773C82.1266 58.9341 82.2121 58.4958 82.3345 58.0672C82.519 57.4321 82.7469 56.8105 83.0167 56.2066C83.9137 54.3121 84.9692 52.4968 86.1719 50.78C87.2882 49.0978 88.451 47.5474 89.6294 45.9969C92.0171 42.896 94.4668 40.0354 97.1103 37.1748L103.18 42.6634Z" fill="#B78876"/>
<path d="M101.847 31.562C96.746 32.3372 88.7456 45.5161 88.7456 45.5161L99.8159 52.7102C102.655 49.1579 105.164 45.3538 107.312 41.3454C110.654 34.9265 108.018 30.5852 101.847 31.562Z" fill="#407BFF"/>
<path opacity="0.7" d="M101.847 31.562C96.746 32.3372 88.7456 45.5161 88.7456 45.5161L99.8159 52.7102C102.655 49.1579 105.164 45.3538 107.312 41.3454C110.654 34.9265 108.018 30.5852 101.847 31.562Z" fill="#1471E8"/>
<path d="M113.15 32.7639L115.878 30.7793L120.964 37.5858L122.925 34.1825L125.003 35.8648C125.547 36.8076 125.834 37.877 125.834 38.9657C125.834 40.0543 125.547 41.1238 125.003 42.0666L120.925 38.7254L116.537 41.5395C116.537 41.5395 111.871 36.1051 113.15 32.7639Z" fill="#0156B2"/>
<path d="M106.979 22.6781C108.52 24.6361 109.514 26.9686 109.858 29.4367C110.201 31.9048 109.883 34.4199 108.935 36.7246C107.987 39.0293 106.444 41.0407 104.464 42.553C102.483 44.0654 100.136 45.0243 97.6636 45.3316C95.1906 45.6389 92.6805 45.2836 90.39 44.302C88.0996 43.3204 86.1111 41.7478 84.6281 39.7452C83.1451 37.7426 82.2209 35.3819 81.95 32.9048C81.6792 30.4276 82.0714 27.9229 83.0866 25.6472L90.7691 35.4151L98.2578 34.3375L101.072 27.3139L93.3894 17.5461C95.9073 17.0801 98.5046 17.312 100.9 18.2166C103.296 19.1212 105.398 20.6641 106.979 22.6781Z" fill="#88959C"/>
<path d="M161.322 137.195C159.784 135.237 158.794 132.906 158.452 130.44C158.11 127.974 158.43 125.462 159.378 123.16C160.326 120.858 161.868 118.849 163.847 117.339C165.826 115.828 168.17 114.871 170.641 114.564C173.111 114.257 175.619 114.612 177.907 115.592C180.196 116.572 182.183 118.142 183.665 120.142C185.148 122.142 186.072 124.5 186.345 126.974C186.617 129.449 186.227 131.951 185.215 134.226L177.532 124.458L170.044 125.535L167.23 132.567L174.912 142.327C172.394 142.793 169.797 142.561 167.401 141.656C165.006 140.752 162.904 139.209 161.322 137.195Z" fill="#6A7B83"/>
<g opacity="0.2">
<path d="M161.323 137.224C159.785 135.266 158.794 132.935 158.452 130.469C158.111 128.003 158.43 125.491 159.378 123.189C160.326 120.887 161.868 118.878 163.847 117.368C165.826 115.857 168.17 114.9 170.641 114.593C173.111 114.286 175.619 114.64 177.908 115.62C180.196 116.6 182.183 118.171 183.665 120.171C185.148 122.171 186.072 124.528 186.345 127.003C186.617 129.478 186.227 131.98 185.215 134.254L177.533 124.487L170.044 125.564L167.23 132.595L174.912 142.356C172.394 142.822 169.797 142.59 167.402 141.685C165.006 140.78 162.904 139.238 161.323 137.224Z" fill="white"/>
</g>
<path d="M168.369 123.465C167.603 124.067 166.726 124.513 165.788 124.776C164.85 125.039 163.869 125.115 162.901 124.999C161.934 124.883 160.998 124.578 160.149 124.101C159.299 123.623 158.552 122.983 157.95 122.217L98.6531 46.8339C98.0504 46.0684 97.6043 45.1916 97.3405 44.2536C97.0766 43.3157 97.0001 42.335 97.1153 41.3675C97.2304 40.3999 97.5351 39.4646 98.0118 38.6148C98.4885 37.765 99.1279 37.0175 99.8935 36.4148C100.659 35.8121 101.536 35.3661 102.474 35.1022C103.412 34.8383 104.392 34.7618 105.36 34.877C106.327 34.9922 107.263 35.2968 108.113 35.7735C108.962 36.2502 109.71 36.8896 110.313 37.6552L169.617 113.046C170.22 113.812 170.665 114.689 170.929 115.627C171.192 116.566 171.268 117.547 171.152 118.514C171.036 119.482 170.73 120.417 170.253 121.266C169.776 122.116 169.136 122.863 168.369 123.465Z" fill="#6A7B83"/>
<path opacity="0.2" d="M168.369 123.479C167.603 124.081 166.726 124.526 165.788 124.79C164.85 125.053 163.869 125.129 162.901 125.013C161.934 124.897 160.998 124.592 160.149 124.114C159.299 123.637 158.552 122.997 157.95 122.23L98.6531 46.8473C98.0504 46.0818 97.6043 45.205 97.3405 44.2671C97.0766 43.3291 97.0001 42.3484 97.1153 41.3809C97.2304 40.4134 97.5351 39.478 98.0118 38.6282C98.4885 37.7785 99.1279 37.0309 99.8935 36.4283C100.659 35.8255 101.536 35.3795 102.474 35.1156C103.412 34.8517 104.392 34.7752 105.36 34.8904C106.327 35.0056 107.263 35.3102 108.113 35.7869C108.962 36.2636 109.71 36.903 110.313 37.6686L169.617 113.059C170.22 113.826 170.665 114.703 170.929 115.641C171.192 116.579 171.268 117.56 171.152 118.528C171.036 119.495 170.73 120.43 170.253 121.28C169.776 122.129 169.136 122.876 168.369 123.479Z" fill="white"/>
<path opacity="0.2" d="M164.896 119.046C164.503 119.356 164.053 119.586 163.572 119.721C163.09 119.857 162.587 119.896 162.09 119.837C161.593 119.778 161.113 119.622 160.676 119.377C160.24 119.132 159.856 118.804 159.547 118.411L102.731 46.1828C102.107 45.3874 101.823 44.3771 101.942 43.3731C102.061 42.3691 102.573 41.4532 103.366 40.826C104.164 40.2047 105.174 39.9237 106.177 40.0442C107.181 40.1647 108.096 40.677 108.723 41.4694L165.54 113.697C166.162 114.492 166.445 115.502 166.324 116.505C166.203 117.508 165.69 118.422 164.896 119.046Z" fill="black"/>
<path d="M103.808 57.8657L107.87 54.2144L109.878 60.827C109.878 60.827 105.738 63.1527 104.265 61.0751L103.808 57.8657Z" fill="#C09180"/>
<path d="M112.328 53.9041L113.739 59.4392L109.878 60.8268L107.863 54.2142L112.328 53.9041Z" fill="#C09180"/>
<path d="M80.4352 195.189L70.1711 191.554L71.3727 188.259L82.7143 192.088L80.4352 195.189Z" fill="#263238"/>
<path d="M75.6986 200.414C75.6973 200.387 75.704 200.36 75.7178 200.337C75.7315 200.313 75.7518 200.295 75.7762 200.283C76.0242 200.166 78.2336 199.135 78.8771 199.507C78.938 199.542 78.9882 199.593 79.0223 199.655C79.0565 199.716 79.0733 199.786 79.0709 199.856C79.0795 199.972 79.06 200.088 79.0141 200.195C78.9683 200.301 78.8973 200.395 78.8073 200.469C78.1949 200.965 76.6599 200.709 75.7994 200.507C75.7753 200.503 75.7529 200.493 75.735 200.476C75.7171 200.46 75.7044 200.438 75.6986 200.414ZM76.2336 200.352C77.4119 200.593 78.3034 200.569 78.6445 200.283C78.7055 200.236 78.7533 200.174 78.7832 200.104C78.8131 200.033 78.8241 199.956 78.8151 199.879C78.8171 199.853 78.8116 199.827 78.7993 199.803C78.7869 199.78 78.7682 199.761 78.7453 199.748H78.6988C78.2957 199.569 77.1018 199.98 76.2336 200.352Z" fill="#263238"/>
<path d="M75.7529 200.5C75.7352 200.486 75.721 200.468 75.7116 200.448C75.7021 200.428 75.6977 200.406 75.6986 200.383C75.7856 199.624 76.1082 198.911 76.6211 198.345C76.7213 198.264 76.8368 198.204 76.9608 198.169C77.0848 198.135 77.2145 198.126 77.3421 198.143C77.6909 198.197 77.784 198.376 77.7995 198.515C77.877 199.128 76.5358 200.244 75.8769 200.515C75.8625 200.523 75.8466 200.527 75.8304 200.527C75.8142 200.527 75.7982 200.523 75.7839 200.515L75.7529 200.5ZM77.3033 198.399C77.2101 198.386 77.1152 198.393 77.0245 198.418C76.9339 198.443 76.8493 198.487 76.7762 198.546C76.3552 198.995 76.0843 199.564 76.0009 200.174C76.6754 199.802 77.5514 198.918 77.5514 198.546C77.5434 198.519 77.5285 198.493 77.5082 198.473C77.4879 198.453 77.4627 198.438 77.4351 198.43C77.3929 198.413 77.3485 198.403 77.3033 198.399Z" fill="#263238"/>
<path d="M75.2722 199.756L69.3804 199.569C69.2741 199.567 69.17 199.6 69.0845 199.663C68.9989 199.726 68.9367 199.816 68.9076 199.918L67.6439 204.655C67.6109 204.773 67.6061 204.896 67.6299 205.016C67.6537 205.136 67.7056 205.248 67.7811 205.344C67.8567 205.44 67.9539 205.517 68.0648 205.568C68.1757 205.62 68.2971 205.644 68.4192 205.639C70.551 205.639 73.6209 205.639 76.2955 205.732C79.3964 205.833 81.4042 205.686 85.0633 205.81C87.2727 205.88 87.9859 203.67 87.0634 203.438C82.8849 202.384 80.1483 202.577 76.5901 200.221C76.2046 199.942 75.747 199.781 75.2722 199.756Z" fill="#263238"/>
<path d="M91.9162 77.4321L99.5522 79.4942L98.87 82.2928L90.7766 80.347L91.9162 77.4321Z" fill="#263238"/>
<path d="M100.42 79.7192L118.445 84.5799L118.026 86.9211L99.6453 82.4868L100.42 79.7192Z" fill="#263238"/>
<path d="M120.98 85.2622L120.724 87.5646L118.631 87.0685L119.104 84.7583L120.98 85.2622Z" fill="#263238"/>
<path d="M107.785 81.8898L107.304 84.1535C107.284 84.247 107.3 84.345 107.351 84.4263C107.402 84.5075 107.483 84.5655 107.576 84.5876L111.824 85.5877C111.872 85.5979 111.921 85.5986 111.969 85.5897C112.018 85.5808 112.063 85.5626 112.104 85.5359C112.146 85.5093 112.181 85.4748 112.209 85.4344C112.236 85.3941 112.256 85.3487 112.266 85.3008L112.708 83.169C112.727 83.0777 112.71 82.9826 112.661 82.9032C112.612 82.8239 112.534 82.7664 112.444 82.7426L108.242 81.6108C108.194 81.5981 108.144 81.5953 108.094 81.6026C108.045 81.6099 107.997 81.627 107.954 81.6531C107.912 81.6792 107.875 81.7135 107.846 81.7542C107.817 81.7949 107.796 81.841 107.785 81.8898Z" fill="white"/>
<path d="M128.453 53.6252L128.337 53.1756L128.67 52.8423L129.445 53.0516C129.411 52.9007 129.337 52.7615 129.232 52.6482C129.127 52.535 128.993 52.4516 128.845 52.4067C128.697 52.3619 128.539 52.357 128.389 52.3926C128.238 52.4283 128.1 52.5032 127.988 52.6097L127.887 52.5632L125.84 51.9818H125.732C125.69 51.8368 125.612 51.7049 125.505 51.599C125.398 51.4931 125.265 51.4166 125.119 51.3771C124.967 51.3355 124.806 51.3366 124.654 51.3804C124.502 51.4241 124.366 51.5088 124.259 51.6251L124.995 51.8267L125.119 52.2763L124.786 52.6097L124.011 52.4004C124.041 52.5528 124.113 52.694 124.217 52.8092C124.321 52.9243 124.455 53.0091 124.604 53.0544C124.752 53.0997 124.91 53.1039 125.061 53.0666C125.212 53.0292 125.35 52.9517 125.46 52.8423C125.492 52.8609 125.526 52.8765 125.561 52.8888L127.616 53.4702H127.724C127.765 53.6195 127.844 53.7552 127.955 53.8634C128.066 53.9715 128.203 54.0482 128.353 54.0853C128.504 54.1225 128.661 54.1188 128.809 54.0747C128.958 54.0306 129.092 53.9477 129.197 53.8345L128.453 53.6252Z" fill="#FAFAFA"/>
<path d="M235.062 203.788V205.438C235.062 205.537 235.101 205.632 235.171 205.702C235.241 205.772 235.336 205.812 235.435 205.812H282.251C282.65 205.811 283.043 205.712 283.395 205.525C283.747 205.337 284.048 205.065 284.271 204.735C284.494 204.404 284.632 204.023 284.674 203.626C284.716 203.229 284.66 202.828 284.511 202.458L269.666 165.72L245.695 165.885L246.514 170.652L251.803 201.507C251.84 201.74 251.826 201.979 251.763 202.207C251.7 202.435 251.588 202.646 251.436 202.827C251.284 203.008 251.094 203.154 250.881 203.256C250.667 203.357 250.434 203.411 250.198 203.414H235.435C235.386 203.414 235.337 203.423 235.291 203.441C235.246 203.46 235.204 203.487 235.169 203.522C235.135 203.557 235.107 203.599 235.089 203.644C235.07 203.69 235.061 203.739 235.062 203.788Z" fill="#88959C"/>
<path opacity="0.2" d="M250.344 203.522H280.797C280.971 203.515 281.14 203.467 281.292 203.383C281.443 203.298 281.572 203.179 281.669 203.034C281.765 202.89 281.826 202.725 281.847 202.553C281.867 202.38 281.847 202.205 281.787 202.043L268.779 170.759H246.66L251.949 201.614C251.986 201.847 251.973 202.086 251.909 202.314C251.846 202.542 251.735 202.753 251.582 202.934C251.43 203.115 251.241 203.261 251.027 203.363C250.813 203.464 250.58 203.518 250.344 203.522Z" fill="black"/>
<path opacity="0.1" d="M245.706 165.891L246.525 170.657L248.823 184.072L275.318 179.69L269.677 165.726L245.706 165.891Z" fill="black"/>
<path d="M199.094 97.4246H310.076C310.449 97.4246 310.819 97.4981 311.163 97.641C311.508 97.784 311.821 97.9934 312.084 98.2574C312.348 98.5215 312.557 98.8348 312.699 99.1797C312.841 99.5245 312.914 99.894 312.913 100.267V175.375C312.913 176.128 312.615 176.85 312.083 177.383C311.551 177.916 310.829 178.216 310.076 178.218H199.094C198.34 178.218 197.617 177.918 197.084 177.385C196.551 176.852 196.251 176.129 196.251 175.375V100.245C196.256 99.4945 196.557 98.7763 197.09 98.2477C197.623 97.7191 198.343 97.4231 199.094 97.4246Z" fill="#455A64"/>
<path d="M307.723 178.212H310.076C310.829 178.212 311.55 177.913 312.082 177.381C312.614 176.849 312.913 176.127 312.913 175.375V100.245C312.914 99.8715 312.841 99.502 312.699 99.1572C312.557 98.8124 312.348 98.499 312.084 98.235C311.821 97.971 311.508 97.7615 311.163 97.6186C310.819 97.4757 310.449 97.4021 310.076 97.4021H307.723C308.096 97.4021 308.466 97.4757 308.81 97.6186C309.155 97.7615 309.468 97.971 309.731 98.235C309.995 98.499 310.204 98.8124 310.346 99.1572C310.488 99.502 310.561 99.8715 310.56 100.245V175.375C310.56 176.127 310.261 176.849 309.729 177.381C309.197 177.913 308.476 178.212 307.723 178.212Z" fill="#263238"/>
<path d="M307.998 100.184H198.808V172.631H307.998V100.184Z" fill="#263238"/>
<path d="M307.998 100.184H198.808V105.743H307.998V100.184Z" fill="#016CDE"/>
<path opacity="0.2" d="M305.447 103.164C305.447 103.433 305.367 103.695 305.218 103.918C305.069 104.142 304.857 104.316 304.609 104.419C304.361 104.521 304.087 104.548 303.824 104.496C303.561 104.443 303.319 104.314 303.129 104.124C302.939 103.934 302.809 103.692 302.757 103.429C302.705 103.165 302.732 102.892 302.834 102.644C302.937 102.396 303.111 102.184 303.335 102.035C303.558 101.886 303.82 101.806 304.089 101.806C304.449 101.807 304.793 101.951 305.048 102.205C305.302 102.46 305.446 102.804 305.447 103.164Z" fill="black"/>
<path opacity="0.2" d="M300.961 103.164C300.964 103.434 300.887 103.698 300.74 103.923C300.593 104.149 300.382 104.325 300.134 104.431C299.886 104.536 299.613 104.565 299.348 104.515C299.084 104.464 298.84 104.336 298.649 104.147C298.457 103.958 298.326 103.716 298.272 103.452C298.218 103.188 298.244 102.914 298.347 102.665C298.449 102.416 298.623 102.203 298.847 102.053C299.07 101.903 299.334 101.823 299.603 101.823C299.96 101.823 300.303 101.964 300.557 102.215C300.811 102.466 300.956 102.807 300.961 103.164Z" fill="black"/>
<path opacity="0.2" d="M296.48 103.164C296.483 103.434 296.405 103.7 296.257 103.926C296.109 104.152 295.896 104.328 295.647 104.433C295.397 104.537 295.122 104.565 294.857 104.512C294.592 104.459 294.348 104.329 294.158 104.137C293.967 103.945 293.839 103.7 293.788 103.434C293.737 103.169 293.767 102.894 293.874 102.645C293.98 102.397 294.159 102.186 294.386 102.039C294.613 101.892 294.879 101.817 295.149 101.823C295.501 101.831 295.837 101.975 296.085 102.225C296.333 102.476 296.474 102.812 296.48 103.164Z" fill="black"/>
<path opacity="0.4" d="M307.998 105.77H198.808V124.579H307.998V105.77Z" fill="white"/>
<path d="M201.31 106.606L198.808 111.087V106.606H201.31Z" fill="#263238"/>
<path d="M214.796 106.606L205.213 123.803H198.808V121.698L207.22 106.606H214.796Z" fill="#263238"/>
<path d="M218.661 123.875H211.085L220.712 106.6H228.283L218.661 123.875Z" fill="#263238"/>
<path d="M232.148 123.875H224.572L234.199 106.6H241.775L232.148 123.875Z" fill="#263238"/>
<path d="M245.635 123.875H238.058L247.685 106.6H255.262L245.635 123.875Z" fill="#263238"/>
<path d="M259.121 123.875H251.55L261.172 106.6H268.748L259.121 123.875Z" fill="#263238"/>
<path d="M272.613 123.749H265.037L274.664 106.474H282.235L272.613 123.749Z" fill="#263238"/>
<path d="M286.1 123.749H278.523L288.15 106.474H295.727L286.1 123.749Z" fill="#263238"/>
<path d="M307.998 106.545V108.656L299.586 123.748H292.01L301.599 106.545H307.998Z" fill="#263238"/>
<path d="M307.998 119.394V123.803H305.541L307.998 119.394Z" fill="#263238"/>
<path opacity="0.4" d="M307.998 153.751H198.808V172.56H307.998V153.751Z" fill="white"/>
<path d="M201.31 154.741L198.808 159.183V154.741H201.31Z" fill="#263238"/>
<path d="M214.796 154.741L205.213 171.795H198.808V169.706L207.22 154.741H214.796Z" fill="#263238"/>
<path d="M218.661 171.867H211.085L220.712 154.741H228.283L218.661 171.867Z" fill="#263238"/>
<path d="M232.148 171.867H224.572L234.199 154.741H241.775L232.148 171.867Z" fill="#263238"/>
<path d="M245.635 171.867H238.058L247.685 154.741H255.262L245.635 171.867Z" fill="#263238"/>
<path d="M259.121 171.867H251.55L261.172 154.741H268.748L259.121 171.867Z" fill="#263238"/>
<path d="M272.613 171.741H265.037L274.664 154.614H282.235L272.613 171.741Z" fill="#263238"/>
<path d="M286.1 171.741H278.523L288.15 154.614H295.727L286.1 171.741Z" fill="#263238"/>
<path d="M307.998 154.68V156.769L299.586 171.735H292.01L301.599 154.68H307.998Z" fill="#263238"/>
<path d="M307.998 167.419V171.795H305.541L307.998 167.419Z" fill="#263238"/>
<path d="M235.315 141.958V143.525H227.782V133.48H235.117V135.041H229.652V137.653H234.501V139.209H229.652V141.958H235.315Z" fill="white"/>
<path d="M243.969 143.525L241.918 140.583C241.786 140.583 241.66 140.583 241.528 140.583H239.262V143.514H237.421V133.48H241.555C244.194 133.48 245.833 134.827 245.833 137.054C245.863 137.742 245.671 138.421 245.286 138.992C244.901 139.564 244.343 139.996 243.694 140.226L246.003 143.525H243.969ZM241.44 135.058H239.24V139.06H241.44C243.089 139.06 243.925 138.313 243.925 137.054C243.925 135.795 243.078 135.058 241.44 135.058Z" fill="white"/>
<path d="M254.464 143.525L252.414 140.583C252.282 140.583 252.155 140.583 252.023 140.583H249.758V143.514H247.867V133.48H251.996C254.64 133.48 256.273 134.827 256.273 137.054C256.303 137.742 256.112 138.421 255.727 138.992C255.342 139.564 254.784 139.996 254.134 140.226L256.444 143.525H254.464ZM251.941 135.058H249.742V139.06H251.941C253.59 139.06 254.42 138.313 254.42 137.054C254.42 135.795 253.563 135.058 251.93 135.058H251.941Z" fill="white"/>
<path d="M257.648 138.5C257.648 135.531 259.946 133.337 263.058 133.337C266.17 133.337 268.468 135.536 268.468 138.5C268.468 141.463 266.175 143.668 263.058 143.668C259.94 143.668 257.648 141.474 257.648 138.5ZM266.587 138.5C266.587 137.801 266.38 137.119 265.993 136.539C265.605 135.958 265.053 135.506 264.408 135.238C263.764 134.971 263.054 134.901 262.369 135.038C261.684 135.174 261.055 135.51 260.562 136.004C260.068 136.497 259.732 137.126 259.596 137.811C259.46 138.496 259.53 139.205 259.797 139.85C260.064 140.495 260.516 141.047 261.097 141.434C261.677 141.822 262.36 142.029 263.058 142.029C263.525 142.044 263.991 141.962 264.425 141.79C264.86 141.618 265.255 141.358 265.586 141.028C265.917 140.697 266.176 140.302 266.348 139.867C266.521 139.432 266.602 138.967 266.587 138.5Z" fill="white"/>
<path d="M277.006 143.525L274.955 140.583C274.823 140.583 274.697 140.583 274.571 140.583H272.3V143.514H270.436V133.48H274.571C277.21 133.48 278.842 134.827 278.842 137.054C278.873 137.742 278.681 138.421 278.296 138.992C277.911 139.564 277.353 139.996 276.704 140.226L279.018 143.525H277.006ZM274.483 135.058H272.283V139.06H274.483C276.132 139.06 276.962 138.313 276.962 137.054C276.962 135.795 276.126 135.058 274.494 135.058H274.483Z" fill="white"/>
<path opacity="0.4" d="M287.788 145.108H299.614C299.874 145.108 300.131 145.04 300.356 144.91C300.582 144.779 300.77 144.592 300.9 144.366C301.031 144.141 301.099 143.885 301.099 143.624C301.099 143.363 301.031 143.107 300.9 142.881L294.985 132.639C294.855 132.412 294.668 132.224 294.443 132.094C294.217 131.963 293.961 131.894 293.701 131.894C293.44 131.894 293.184 131.963 292.959 132.094C292.733 132.224 292.546 132.412 292.417 132.639L286.501 142.881C286.371 143.107 286.302 143.363 286.302 143.624C286.302 143.885 286.371 144.141 286.501 144.366C286.632 144.592 286.819 144.779 287.045 144.91C287.271 145.04 287.527 145.108 287.788 145.108ZM294.495 135.432L294.237 140.534H293.137L292.868 135.432H294.495ZM292.846 142.288C292.844 142.176 292.866 142.064 292.908 141.961C292.951 141.857 293.015 141.764 293.095 141.685C293.175 141.607 293.271 141.546 293.375 141.506C293.48 141.466 293.592 141.447 293.703 141.452C293.818 141.444 293.933 141.46 294.041 141.499C294.149 141.538 294.248 141.598 294.332 141.676C294.416 141.754 294.483 141.849 294.529 141.954C294.575 142.059 294.599 142.173 294.6 142.288C294.6 142.402 294.577 142.516 294.532 142.622C294.487 142.727 294.421 142.823 294.339 142.902C294.256 142.982 294.158 143.044 294.051 143.085C293.944 143.126 293.829 143.144 293.715 143.14C293.599 143.147 293.484 143.13 293.376 143.09C293.267 143.05 293.168 142.988 293.085 142.908C293.002 142.828 292.936 142.731 292.892 142.624C292.848 142.518 292.827 142.403 292.829 142.288H292.846Z" fill="white"/>
<path opacity="0.4" d="M207.181 145.108H219.008C219.268 145.107 219.523 145.038 219.748 144.908C219.973 144.777 220.16 144.589 220.29 144.364C220.42 144.138 220.488 143.883 220.488 143.623C220.487 143.362 220.419 143.107 220.289 142.881L214.378 132.639C214.249 132.412 214.062 132.224 213.837 132.094C213.611 131.963 213.355 131.894 213.095 131.894C212.834 131.894 212.578 131.963 212.352 132.094C212.127 132.224 211.94 132.412 211.811 132.639L205.895 142.881C205.765 143.107 205.696 143.363 205.696 143.624C205.696 143.885 205.765 144.141 205.895 144.366C206.026 144.592 206.213 144.779 206.439 144.91C206.665 145.04 206.921 145.108 207.181 145.108ZM213.889 135.432L213.625 140.534H212.526L212.256 135.432H213.889ZM212.24 142.288C212.238 142.176 212.259 142.064 212.302 141.961C212.345 141.857 212.408 141.764 212.489 141.685C212.569 141.607 212.664 141.546 212.769 141.506C212.874 141.466 212.985 141.447 213.097 141.452C213.211 141.446 213.325 141.463 213.431 141.502C213.538 141.542 213.636 141.602 213.719 141.68C213.802 141.758 213.868 141.853 213.913 141.957C213.958 142.061 213.982 142.174 213.982 142.288C213.983 142.402 213.959 142.516 213.915 142.622C213.87 142.727 213.804 142.823 213.721 142.902C213.639 142.982 213.541 143.044 213.434 143.085C213.326 143.126 213.212 143.144 213.097 143.14C212.984 143.143 212.872 143.123 212.767 143.081C212.662 143.04 212.566 142.977 212.486 142.897C212.406 142.818 212.343 142.723 212.3 142.618C212.258 142.513 212.237 142.401 212.24 142.288Z" fill="white"/>
<path opacity="0.1" d="M210.189 100.173C225.286 115.298 264.069 148.957 307.998 146.472V100.173H210.189Z" fill="white"/>
<path opacity="0.1" d="M198.808 127.982V172.637H264.548C262.024 163.614 256.988 151.266 247.212 142.442C229.624 126.563 209.216 126.607 198.808 127.982Z" fill="white"/>
</svg>
