<svg width="400" height="225" viewBox="0 0 400 225" fill="none" xmlns="http://www.w3.org/2000/svg">
<path d="M340.352 192.033H59.6476V192.174H340.352V192.033Z" fill="#EBEBEB"/>
<path d="M192.702 166.897H84.2992C83.4499 166.896 82.636 166.556 82.036 165.952C81.4361 165.349 81.0991 164.531 81.0991 163.679V10.7055C81.1065 9.85789 81.4467 9.04743 82.0459 8.45017C82.6451 7.85291 83.4548 7.51708 84.2992 7.51562H192.702C193.552 7.51563 194.367 7.85467 194.968 8.45817C195.57 9.06168 195.907 9.8802 195.907 10.7337V163.679C195.907 164.532 195.57 165.351 194.968 165.954C194.367 166.558 193.552 166.897 192.702 166.897ZM84.2992 7.62834C83.4872 7.62984 82.7089 7.95469 82.1353 8.53161C81.5617 9.10853 81.2395 9.89037 81.2395 10.7055V163.679C81.2395 164.494 81.5617 165.276 82.1353 165.853C82.7089 166.43 83.4872 166.755 84.2992 166.756H192.702C193.514 166.755 194.293 166.43 194.868 165.853C195.442 165.276 195.766 164.495 195.767 163.679V10.7055C195.766 9.88985 195.442 9.10803 194.868 8.53127C194.293 7.95451 193.514 7.62983 192.702 7.62834H84.2992Z" fill="#EBEBEB"/>
<path d="M172.177 197.398H157.58V197.54H172.177V197.398Z" fill="#EBEBEB"/>
<path d="M119.472 195.871H89.0992V196.012H119.472V195.871Z" fill="#EBEBEB"/>
<path d="M157.018 202.634H142.242V202.775H157.018V202.634Z" fill="#EBEBEB"/>
<path d="M226.42 201.687H204.62V201.829H226.42V201.687Z" fill="#EBEBEB"/>
<path d="M237.418 201.687H231.416V201.829H237.418V201.687Z" fill="#EBEBEB"/>
<path d="M312.231 199.309H281.601V199.45H312.231V199.309Z" fill="#EBEBEB"/>
<path d="M186.133 27.9454H102.831V116.191H186.133V27.9454Z" fill="#E6E6E6"/>
<path d="M195.065 25.088H97.4417C97.2214 25.088 97.01 25.1759 96.8542 25.3323C96.6984 25.4887 96.6108 25.7009 96.6108 25.9221C96.6108 26.0314 96.6324 26.1396 96.6742 26.2405C96.716 26.3413 96.7773 26.4329 96.8545 26.5099C96.9318 26.5869 97.0234 26.6478 97.1242 26.6891C97.225 26.7304 97.3329 26.7513 97.4417 26.7506H195.065C195.284 26.7506 195.494 26.6633 195.649 26.5079C195.804 26.3526 195.891 26.1418 195.891 25.9221C195.891 25.8128 195.87 25.7045 195.829 25.6033C195.788 25.5022 195.728 25.4102 195.651 25.3327C195.574 25.2551 195.483 25.1936 195.382 25.1516C195.282 25.1096 195.174 25.088 195.065 25.088Z" fill="#E6E6E6"/>
<path d="M189.676 27.9454H104.487V116.191H189.676V27.9454Z" fill="#F0F0F0"/>
<path d="M186.133 116.191H102.831V119.488H186.133V116.191Z" fill="#E6E6E6"/>
<path d="M195.559 116.191H110.371V119.488H195.559V116.191Z" fill="#F0F0F0"/>
<path d="M184.724 111.226V32.916L109.433 32.916V111.226H184.724Z" fill="#FAFAFA"/>
<path d="M126.523 111.226L155.57 32.9106H169.28L140.238 111.226H126.523Z" fill="white"/>
<path d="M143.18 111.226L172.227 32.9106H177.572L148.524 111.226H143.18Z" fill="white"/>
<path d="M184.724 111.221V32.9106H184.095V111.221H184.724Z" fill="#E6E6E6"/>
<g opacity="0.6">
<path d="M107.39 103.313H96.9309L102.567 23.6057H113.027L107.39 103.313Z" fill="#F0F0F0"/>
<path d="M111.466 103.313H103.314L108.951 23.6057H117.102L111.466 103.313Z" fill="#E6E6E6"/>
<path d="M117.849 103.313H107.39L113.027 23.6057H123.486L117.849 103.313Z" fill="#F0F0F0"/>
<path d="M121.925 103.313H113.773L119.415 23.6057H127.561L121.925 103.313Z" fill="#E6E6E6"/>
<path d="M128.308 103.313H117.849L123.486 23.6057H133.95L128.308 103.313Z" fill="#F0F0F0"/>
</g>
<g opacity="0.6">
<path d="M187.947 103.313H193.858L190.675 23.6057H184.763L187.947 103.313Z" fill="#F0F0F0"/>
<path d="M185.645 103.313H190.248L187.065 23.6057H182.456L185.645 103.313Z" fill="#E6E6E6"/>
<path d="M182.035 103.313H187.947L184.763 23.6057H178.852L182.035 103.313Z" fill="#F0F0F0"/>
<path d="M179.733 103.313H184.337L181.153 23.6057H176.544L179.733 103.313Z" fill="#E6E6E6"/>
<path d="M176.123 103.313H182.035L178.852 23.6057H172.94L176.123 103.313Z" fill="#F0F0F0"/>
</g>
<path d="M299.179 23.6057H241.572V100.49H299.179V23.6057Z" fill="#E6E6E6"/>
<path d="M303.552 23.6057H243.369V100.49H303.552V23.6057Z" fill="#F5F5F5"/>
<path d="M251.166 26.7447L245.81 93.2899L295.747 97.341L301.104 30.7958L251.166 26.7447Z" fill="white"/>
<path d="M299.869 30.695L294.513 97.2402L295.744 97.3401L301.1 30.7949L299.869 30.695Z" fill="#E6E6E6"/>
<path d="M306.73 129.21H274.555V192.033H306.73V129.21Z" fill="#F5F5F5"/>
<path d="M306.73 129.21H304.074V192.033H306.73V129.21Z" fill="#F0F0F0"/>
<path d="M202.953 157.581H277.037V130.997H202.953V157.581Z" fill="#E6E6E6"/>
<path d="M206.518 133.916H306.724V129.204H206.518V133.916Z" fill="#F0F0F0"/>
<path d="M206.524 129.21H174.349V192.033H206.524V129.21Z" fill="#F5F5F5"/>
<path d="M175.511 149.223H175.657C177.711 149.223 179.68 150.042 181.132 151.499C182.584 152.957 183.399 154.934 183.399 156.995V192.033H167.77V156.995C167.77 154.934 168.585 152.957 170.037 151.499C171.489 150.042 173.458 149.223 175.511 149.223Z" fill="#E6E6E6"/>
<path d="M206.524 129.21H203.868V192.033H206.524V129.21Z" fill="#F0F0F0"/>
<path d="M242.734 129.21H235.795L237.48 115.645H244.424L242.734 129.21Z" fill="#F0F0F0"/>
<path d="M244.273 129.21H237.328L239.018 115.645H245.957L244.273 129.21Z" fill="#F5F5F5"/>
<path d="M245.115 122.424H238.176L239.018 115.645H245.957L245.115 122.424Z" fill="#F0F0F0"/>
<path d="M219.61 120.796H268.711C268.807 120.796 268.902 120.775 268.99 120.735C269.078 120.695 269.156 120.637 269.22 120.565C269.284 120.492 269.331 120.407 269.36 120.315C269.388 120.222 269.397 120.125 269.385 120.029L265.601 89.6407C265.58 89.4759 265.5 89.3242 265.376 89.2142C265.252 89.1042 265.093 89.0434 264.927 89.0433H215.826C215.732 89.0452 215.639 89.0667 215.553 89.1064C215.467 89.1461 215.39 89.2033 215.328 89.2742C215.265 89.3451 215.217 89.4283 215.188 89.5186C215.159 89.6088 215.149 89.7041 215.158 89.7985L218.931 120.232C218.96 120.391 219.044 120.535 219.168 120.638C219.292 120.741 219.449 120.797 219.61 120.796Z" fill="#F0F0F0"/>
<path d="M220.34 120.796H269.441C269.537 120.796 269.632 120.775 269.72 120.735C269.808 120.695 269.886 120.637 269.95 120.565C270.013 120.492 270.061 120.407 270.089 120.315C270.118 120.222 270.126 120.125 270.114 120.029L266.33 89.6407C266.31 89.4759 266.23 89.3242 266.106 89.2142C265.982 89.1042 265.822 89.0434 265.657 89.0433H216.556C216.459 89.0435 216.364 89.0641 216.276 89.1038C216.188 89.1436 216.109 89.2015 216.045 89.2739C215.981 89.3462 215.933 89.4314 215.904 89.5237C215.875 89.6161 215.866 89.7136 215.877 89.8098L219.649 120.232C219.679 120.393 219.764 120.538 219.891 120.642C220.018 120.745 220.177 120.8 220.34 120.796Z" fill="#F5F5F5"/>
<path d="M268.531 119.105L264.989 90.6612C264.982 90.6155 264.959 90.5737 264.924 90.5436C264.889 90.5136 264.844 90.4973 264.798 90.4978H217.64C217.613 90.4976 217.586 90.5032 217.561 90.5142C217.536 90.5252 217.514 90.5414 217.496 90.5617C217.478 90.5819 217.464 90.6058 217.456 90.6317C217.448 90.6576 217.446 90.685 217.449 90.712L220.991 119.156C220.998 119.202 221.021 119.244 221.056 119.274C221.091 119.304 221.136 119.32 221.182 119.319H268.341C268.368 119.32 268.394 119.314 268.419 119.303C268.444 119.292 268.466 119.276 268.484 119.256C268.502 119.235 268.516 119.211 268.524 119.186C268.532 119.16 268.535 119.132 268.531 119.105Z" fill="#E6E6E6"/>
<path d="M263.501 119.342L251.038 90.5144H240.107L252.571 119.342H263.501Z" fill="#EBEBEB"/>
<path d="M250.465 119.342L238.002 90.5144H234.066L246.53 119.342H250.465Z" fill="#EBEBEB"/>
<path d="M250.572 129.21H239.265V129.069C239.265 128.77 239.383 128.484 239.594 128.272C239.804 128.061 240.09 127.942 240.388 127.942H249.449C249.747 127.942 250.032 128.061 250.243 128.272C250.453 128.484 250.572 128.77 250.572 129.069V129.21Z" fill="#F5F5F5"/>
<path d="M240.59 129.21H232.921V129.069C232.921 128.77 233.039 128.484 233.25 128.272C233.461 128.061 233.746 127.942 234.044 127.942H239.462C239.759 127.942 240.045 128.061 240.255 128.272C240.466 128.484 240.584 128.77 240.584 129.069V129.21H240.59Z" fill="#F0F0F0"/>
<path d="M263.08 129.21H228.127L227.183 126.392H258.533L263.08 129.21Z" fill="#F5F5F5"/>
<path d="M231.972 129.21H226.195L225.415 126.392H231.192L231.972 129.21Z" fill="#F0F0F0"/>
<path d="M220.851 129.205H210.903C210.903 128.58 211.15 127.981 211.59 127.539C212.03 127.097 212.627 126.849 213.249 126.849H218.504C219.127 126.849 219.723 127.097 220.163 127.539C220.604 127.981 220.851 128.58 220.851 129.205Z" fill="#F0F0F0"/>
<path d="M109.737 192.033H119.488V146.535H109.737V192.033Z" fill="#E0E0E0"/>
<path d="M153.033 192.033H113.61L108.737 138.267H148.159L153.033 192.033Z" fill="#E6E6E6"/>
<path d="M155.076 192.033H115.654L110.775 138.267H150.203L155.076 192.033Z" fill="#F0F0F0"/>
<path d="M121.043 186.081L117.243 144.218H144.814L148.609 186.081H121.043Z" fill="white"/>
<path d="M200 217.484C260.117 217.484 308.852 214.628 308.852 211.104C308.852 207.581 260.117 204.725 200 204.725C139.883 204.725 91.1483 207.581 91.1483 211.104C91.1483 214.628 139.883 217.484 200 217.484Z" fill="#F5F5F5"/>
<path d="M115.268 76.2701L114.707 76.2885L114.951 83.797L115.512 83.7786L115.268 76.2701Z" fill="#016CDE"/>
<path d="M115.058 69.7898L114.497 69.8082L114.613 73.3795L115.174 73.3611L115.058 69.7898Z" fill="#016CDE"/>
<path d="M122.638 124.104H229.788C230.361 124.107 230.928 123.993 231.456 123.77C231.984 123.546 232.461 123.218 232.859 122.805C233.258 122.391 233.568 121.902 233.773 121.364C233.977 120.827 234.071 120.254 234.049 119.68L231.663 46.2843C231.616 45.1019 231.117 43.9831 230.271 43.1595C229.424 42.336 228.295 41.8708 227.116 41.8602H119.965C119.392 41.8575 118.825 41.9712 118.297 42.1943C117.768 42.4175 117.291 42.7456 116.892 43.1589C116.494 43.5722 116.182 44.0621 115.977 44.5992C115.772 45.1363 115.677 45.7095 115.699 46.2843L118.085 119.668C118.131 120.853 118.629 121.975 119.477 122.801C120.325 123.627 121.456 124.093 122.638 124.104Z" fill="#016CDE"/>
<path d="M122.98 124.104H230.131C230.704 124.107 231.271 123.993 231.799 123.77C232.328 123.547 232.805 123.218 233.204 122.805C233.602 122.392 233.914 121.902 234.119 121.365C234.324 120.828 234.419 120.255 234.397 119.68L232 46.2843C231.951 45.1014 231.451 43.9826 230.604 43.1592C229.757 42.3358 228.627 41.8707 227.447 41.8602H120.308C119.735 41.8574 119.168 41.9711 118.64 42.1944C118.112 42.4176 117.635 42.7458 117.237 43.1592C116.838 43.5725 116.528 44.0625 116.323 44.5996C116.119 45.1367 116.025 45.7097 116.047 46.2843L118.433 119.668C118.477 120.853 118.975 121.974 119.822 122.8C120.668 123.626 121.799 124.093 122.98 124.104Z" fill="#016CDE"/>
<path opacity="0.5" d="M122.98 124.104H230.131C230.704 124.107 231.271 123.993 231.799 123.77C232.328 123.547 232.805 123.218 233.204 122.805C233.602 122.392 233.914 121.902 234.119 121.365C234.324 120.828 234.419 120.255 234.397 119.68L232 46.2843C231.951 45.1014 231.451 43.9826 230.604 43.1592C229.757 42.3358 228.627 41.8707 227.447 41.8602H120.308C119.735 41.8574 119.168 41.9711 118.64 42.1944C118.112 42.4176 117.635 42.7458 117.237 43.1592C116.838 43.5725 116.528 44.0625 116.323 44.5996C116.119 45.1367 116.025 45.7097 116.047 46.2843L118.433 119.668C118.477 120.853 118.975 121.974 119.822 122.8C120.668 123.626 121.799 124.093 122.98 124.104Z" fill="white"/>
<path opacity="0.5" d="M227.189 44.0693H120.033H119.673C116.928 44.2948 117.321 48.4766 120.089 48.4766H227.425C230.187 48.4766 230.31 44.2948 227.548 44.0693C227.43 44.075 227.307 44.0693 227.189 44.0693Z" fill="#016CDE"/>
<path d="M122.739 46.2844C122.743 46.4157 122.721 46.5466 122.674 46.6692C122.627 46.7918 122.556 46.9036 122.465 46.9978C122.373 47.092 122.264 47.1668 122.143 47.2175C122.023 47.2683 121.893 47.294 121.762 47.2932C121.492 47.292 121.233 47.1865 121.039 46.9987C120.844 46.8108 120.729 46.555 120.718 46.2844C120.712 46.1526 120.734 46.0211 120.781 45.8978C120.827 45.7745 120.899 45.6621 120.99 45.5673C121.081 45.4724 121.191 45.3972 121.312 45.3461C121.433 45.295 121.563 45.269 121.695 45.2699C121.966 45.2698 122.226 45.3756 122.421 45.5649C122.616 45.7542 122.73 46.0123 122.739 46.2844Z" fill="#FAFAFA"/>
<path d="M126.175 46.2844C126.18 46.4159 126.159 46.5472 126.112 46.6701C126.065 46.7931 125.994 46.9052 125.902 46.9996C125.811 47.094 125.701 47.1687 125.58 47.2192C125.459 47.2696 125.329 47.2948 125.198 47.2932C124.928 47.2906 124.67 47.1847 124.476 46.9971C124.282 46.8096 124.166 46.5546 124.154 46.2844C124.148 46.1526 124.17 46.0211 124.216 45.8978C124.263 45.7745 124.334 45.6621 124.426 45.5673C124.517 45.4724 124.627 45.3972 124.748 45.3461C124.869 45.295 124.999 45.269 125.13 45.2699C125.402 45.2698 125.662 45.3756 125.857 45.5649C126.052 45.7542 126.166 46.0123 126.175 46.2844Z" fill="#FAFAFA"/>
<path d="M129.338 47.0098C129.722 46.6169 129.706 45.9747 129.302 45.5754C128.897 45.1761 128.257 45.1709 127.872 45.5638C127.488 45.9567 127.504 46.5989 127.908 46.9982C128.313 47.3975 128.953 47.4027 129.338 47.0098Z" fill="#FAFAFA"/>
<path d="M125.057 116.777H227.582C227.79 116.779 227.995 116.738 228.187 116.658C228.378 116.577 228.551 116.459 228.696 116.309C228.84 116.159 228.952 115.982 229.026 115.787C229.1 115.592 229.134 115.385 229.126 115.177L227.161 54.8112C227.138 54.3844 226.956 53.982 226.649 53.685C226.343 53.3881 225.936 53.2186 225.51 53.2106H122.991C122.784 53.2089 122.578 53.2496 122.387 53.33C122.195 53.4105 122.022 53.5292 121.878 53.6789C121.734 53.8285 121.621 54.0061 121.547 54.2007C121.473 54.3953 121.439 54.603 121.448 54.8112L123.407 115.16C123.425 115.59 123.606 115.996 123.913 116.297C124.22 116.597 124.629 116.769 125.057 116.777Z" fill="white"/>
<g opacity="0.3">
<path d="M200.297 109.31H198.422V108.774H199.747L199.702 107.444L200.236 107.427L200.297 109.31Z" fill="#016CDE"/>
<path d="M195.441 109.31H192.46V108.746H195.441V109.31ZM189.479 109.31H186.526V108.746H189.507L189.479 109.31ZM183.517 109.31H180.536V108.746H183.517V109.31ZM177.555 109.31H174.574V108.746H177.544L177.555 109.31ZM171.598 109.31H168.612V108.746H171.598V109.31ZM165.636 109.31H162.655V108.746H165.636V109.31ZM159.674 109.31H156.693V108.746H159.674V109.31Z" fill="#016CDE"/>
<path d="M153.712 109.31H151.854L151.797 107.444L152.325 107.427L152.37 108.774H153.712V109.31Z" fill="#016CDE"/>
<path d="M151.719 104.452L151.623 101.459H152.185L152.28 104.452H151.719ZM151.528 98.4664L151.427 95.4738H151.96L152.055 98.4664H151.528ZM151.331 92.4811L151.236 89.4885H151.764L151.865 92.4811H151.331ZM151.135 86.5015L151.039 83.5089H151.573L151.668 86.5015H151.135ZM150.944 80.5162L150.843 77.5236H151.376L151.472 80.5162H150.944ZM150.747 74.5253L150.652 71.5384H151.18L151.281 74.531L150.747 74.5253ZM150.551 68.5457L150.455 65.5531H150.989L151.084 68.5457H150.551Z" fill="#016CDE"/>
<path d="M150.338 62.5551L150.276 60.6783H152.145V61.2137H150.826L150.865 62.5382L150.338 62.5551Z" fill="#016CDE"/>
<path d="M193.881 61.2137H190.9V60.6783H193.881V61.2137ZM187.919 61.2137H184.937V60.6783H187.919V61.2137ZM181.956 61.2137H178.975V60.6783H181.956V61.2137ZM175.994 61.2137H173.013V60.6783H175.994V61.2137ZM170.032 61.2137H167.051V60.6783H170.032V61.2137ZM164.07 61.2137H161.089V60.6783H164.07V61.2137ZM158.108 61.2137H155.127V60.6783H158.108V61.2137Z" fill="#016CDE"/>
<path d="M198.243 62.5551L198.198 61.2137H196.862V60.6783H198.714L198.776 62.5382L198.243 62.5551Z" fill="#016CDE"/>
<path d="M199.607 104.452L199.512 101.459H200.039L200.141 104.452H199.607ZM199.439 98.4664L199.343 95.4738H199.877L199.972 98.4664H199.439ZM199.248 92.4868L199.147 89.4941H199.68L199.776 92.4868H199.248ZM199.051 86.5015L198.956 83.5089H199.484L199.585 86.5015H199.051ZM198.855 80.5162L198.759 77.5236H199.293L199.388 80.5162H198.855ZM198.664 74.531L198.563 71.5384H199.124L199.22 74.531H198.664ZM198.468 68.5457L198.372 65.5531H198.9L199.001 68.5457H198.468Z" fill="#016CDE"/>
</g>
<path d="M185.864 92.6163H166.265C164.447 92.6018 162.705 91.8854 161.399 90.6156C160.093 89.3459 159.325 87.6203 159.253 85.7969C159.189 84.1587 159.735 82.5552 160.784 81.2987C161.833 80.0423 163.311 79.2229 164.929 79.0001C165.353 77.3719 166.303 75.9311 167.631 74.9039C168.959 73.8767 170.59 73.3213 172.266 73.3248C173.646 73.327 175.002 73.6859 176.204 74.367C177.405 75.0481 178.412 76.0285 179.127 77.2136C179.743 77.0218 180.385 76.9248 181.03 76.9261C182.702 76.9418 184.31 77.5713 185.551 78.6958C186.792 79.8202 187.58 81.3619 187.767 83.0298C188.623 83.4402 189.352 84.0765 189.876 84.8706C190.4 85.6647 190.7 86.5868 190.742 87.5384C190.768 88.1967 190.661 88.8534 190.427 89.469C190.193 90.0846 189.838 90.6463 189.382 91.1202C188.926 91.5941 188.379 91.9705 187.774 92.2267C187.17 92.4828 186.52 92.6135 185.864 92.6107V92.6163ZM172.266 74.638C170.81 74.6291 169.395 75.131 168.268 76.057C167.141 76.9831 166.371 78.2751 166.091 79.7102L165.995 80.2118L165.49 80.2457C164.114 80.33 162.826 80.9518 161.902 81.9779C160.978 83.0039 160.49 84.3525 160.544 85.7349C160.602 87.2184 161.227 88.6224 162.289 89.6552C163.351 90.688 164.769 91.2702 166.248 91.2806H185.847C186.327 91.2848 186.803 91.1911 187.246 91.0049C187.689 90.8188 188.089 90.5443 188.423 90.198C188.757 89.8517 189.017 89.4409 189.188 88.9904C189.359 88.54 189.437 88.0594 189.417 87.5779C189.382 86.8117 189.124 86.0725 188.676 85.4509C188.229 84.8293 187.61 84.3522 186.897 84.078L186.492 83.9202V83.4863C186.421 82.0755 185.816 80.7453 184.801 79.767C183.786 78.7888 182.437 78.2364 181.03 78.2224C180.36 78.2209 179.696 78.3511 179.076 78.6056L178.515 78.8311L178.24 78.3013C177.672 77.202 176.815 76.2801 175.762 75.6362C174.709 74.9922 173.499 74.6508 172.266 74.6493V74.638Z" fill="#016CDE"/>
<path d="M180.216 86.2366L174.809 80.9784L169.745 86.2366H172.71L172.889 91.6696H177.431L177.252 86.2366H180.216Z" fill="#016CDE"/>
<path d="M265.685 64.8881C266.202 65.6376 266.617 66.2688 267.044 66.9677C267.47 67.6665 267.875 68.3428 268.268 69.0473C269.054 70.445 269.783 71.8652 270.451 73.3531C271.139 74.837 271.746 76.3571 272.27 77.9068C272.83 79.4973 273.273 81.1266 273.595 82.7818L273.809 84.0668L273.837 84.2302L273.87 84.4331C273.87 84.6304 273.915 84.7995 273.921 84.9967C273.932 85.2182 273.932 85.4402 273.921 85.6618L273.893 86.0168L273.831 86.4113C273.784 86.6912 273.712 86.9665 273.618 87.2341C273.515 87.5318 273.383 87.8187 273.225 88.0908C272.91 88.6425 272.488 89.1254 271.984 89.511C271.243 90.077 270.372 90.4489 269.452 90.5931C268.847 90.6925 268.233 90.7228 267.622 90.6833C267.123 90.66 266.625 90.6016 266.134 90.5086C265.267 90.3409 264.41 90.1207 263.569 89.8492C262.031 89.3321 260.531 88.7107 259.077 87.9893C257.644 87.2954 256.253 86.5163 254.912 85.6561L256.528 82.0605C259.317 82.8174 262.143 83.4306 264.995 83.8977C265.625 83.9934 266.26 84.048 266.898 84.0612C267.305 84.0963 267.715 84.0503 268.105 83.9259C268.138 83.8977 268.009 83.8583 267.639 84.1063C267.331 84.332 267.097 84.6437 266.965 85.0024C266.93 85.0902 266.902 85.1806 266.881 85.2729L266.847 85.4532C266.849 85.4851 266.849 85.5171 266.847 85.549C266.847 85.549 266.847 85.5772 266.847 85.549V85.4758V85.3574L266.595 84.4106C265.781 81.7653 264.724 79.2013 263.439 76.7515C262.805 75.4778 262.109 74.221 261.402 72.9755C261.048 72.3499 260.683 71.7356 260.318 71.1213C259.953 70.507 259.56 69.8645 259.234 69.3516L265.685 64.8881Z" fill="#FFB573"/>
<path d="M257.146 82.3649L254.71 79.9302L252.29 85.3462C252.29 85.3462 254.58 86.6255 256.618 85.6956L257.146 82.3649Z" fill="#FFB573"/>
<path d="M251.111 77.9861L249.314 82.5624L252.284 85.3465L254.709 79.9305L251.111 77.9861Z" fill="#FFB573"/>
<path d="M259.331 66.7008L212.589 58.4354L204.356 105.358L251.097 113.624L259.331 66.7008Z" fill="#016CDE"/>
<path opacity="0.6" d="M259.331 66.7008L212.589 58.4354L204.356 105.358L251.097 113.624L259.331 66.7008Z" fill="white"/>
<path d="M256.653 68.5791L214.461 61.1184L207.029 103.473L249.221 110.934L256.653 68.5791Z" fill="white"/>
<path d="M241.988 47.8174C241.988 48.195 241.808 48.5049 241.561 48.5106C241.314 48.5162 241.112 48.2119 241.107 47.8399C241.101 47.468 241.292 47.1523 241.533 47.1523C241.775 47.1523 241.982 47.4454 241.988 47.8174Z" fill="#263238"/>
<path d="M241.842 48.4991C241.418 49.6542 240.84 50.7463 240.124 51.7454C240.383 51.9226 240.677 52.0411 240.987 52.0926C241.296 52.1442 241.613 52.1276 241.915 52.0441L241.842 48.4991Z" fill="#FFB573"/>
<path d="M243.307 45.7094C243.249 45.7209 243.188 45.7088 243.139 45.6755C242.919 45.5083 242.662 45.3977 242.39 45.3535C242.118 45.3093 241.839 45.3328 241.578 45.4219C241.524 45.4444 241.463 45.4442 241.409 45.4215C241.354 45.3987 241.311 45.3553 241.289 45.3008C241.267 45.2462 241.267 45.185 241.289 45.1305C241.312 45.0761 241.355 45.0329 241.41 45.0105C241.74 44.9001 242.093 44.8701 242.437 44.923C242.782 44.9759 243.109 45.1102 243.391 45.3149C243.439 45.3479 243.471 45.3984 243.482 45.4554C243.492 45.5124 243.48 45.5713 243.448 45.6192C243.414 45.6662 243.364 45.6985 243.307 45.7094Z" fill="#263238"/>
<path d="M252.812 49.2489C252.576 52.7093 252.846 59.6921 255.479 61.6477C255.479 61.6477 254.833 64.4657 248.585 65.2603C241.719 66.1226 244.874 62.2508 244.874 62.2508C248.512 60.8756 248.068 58.0972 247.086 55.5554L252.812 49.2489Z" fill="#FFB573"/>
<path d="M269.834 198.891H269.795C269.712 198.848 269.644 198.779 269.602 198.695C269.56 198.611 269.545 198.516 269.559 198.423C269.56 198.349 269.578 198.277 269.611 198.21C269.644 198.144 269.692 198.086 269.75 198.04C270.277 197.589 271.816 197.787 271.883 197.792C271.904 197.796 271.923 197.806 271.939 197.819C271.954 197.833 271.966 197.851 271.973 197.871C271.979 197.891 271.979 197.913 271.973 197.933C271.967 197.953 271.955 197.97 271.939 197.984C271.58 198.277 270.39 199.083 269.834 198.891ZM271.591 197.967C271.069 197.928 270.204 197.922 269.907 198.187C269.873 198.214 269.846 198.248 269.826 198.287C269.807 198.326 269.796 198.369 269.795 198.412C269.795 198.621 269.873 198.66 269.901 198.677C270.176 198.818 271.024 198.39 271.591 197.967Z" fill="#016CDE"/>
<path d="M271.091 197.826C270.53 197.64 269.969 197.319 269.884 196.992C269.862 196.912 269.868 196.828 269.9 196.752C269.933 196.676 269.991 196.613 270.064 196.575C270.133 196.528 270.211 196.496 270.293 196.481C270.376 196.467 270.46 196.47 270.541 196.491C271.22 196.631 271.928 197.781 271.962 197.826C271.973 197.843 271.979 197.863 271.979 197.883C271.979 197.903 271.973 197.922 271.962 197.939C271.953 197.957 271.939 197.971 271.922 197.981C271.905 197.991 271.886 197.996 271.866 197.995C271.601 197.975 271.34 197.919 271.091 197.826ZM270.575 196.727H270.496C270.444 196.713 270.389 196.711 270.336 196.721C270.282 196.731 270.232 196.752 270.187 196.784C270.07 196.862 270.086 196.924 270.092 196.953C270.182 197.251 271.058 197.668 271.647 197.776C271.389 197.336 271.019 196.974 270.575 196.727Z" fill="#016CDE"/>
<rect width="28.7893" height="2.19652" transform="matrix(0.984693 0.1743 -0.172998 0.984922 218.798 64.0623)" fill="#99C4F2"/>
<rect width="28.7893" height="2.19652" transform="matrix(0.984693 0.1743 -0.172999 0.984922 217.422 70.9689)" fill="#99C4F2"/>
<rect width="28.7893" height="2.19652" transform="matrix(0.984693 0.1743 -0.172998 0.984922 216.046 77.8756)" fill="#99C4F2"/>
<rect width="32.6991" height="2.19652" transform="matrix(0.984693 0.1743 -0.172998 0.984922 212.196 99.4191)" fill="#99C4F2"/>
<rect width="30.8876" height="6.50872" transform="matrix(0.984693 0.1743 -0.172998 0.984922 213.98 89.4219)" fill="#99C4F2"/>
<path d="M235.745 206.595C235.15 206.595 234.577 206.511 234.381 206.246C234.331 206.175 234.305 206.09 234.305 206.004C234.305 205.917 234.331 205.832 234.381 205.761C234.419 205.698 234.47 205.643 234.53 205.6C234.589 205.556 234.657 205.525 234.729 205.508C235.498 205.294 237.121 206.218 237.188 206.257C237.207 206.27 237.223 206.287 237.232 206.309C237.241 206.33 237.243 206.353 237.238 206.376C237.235 206.398 237.226 206.418 237.211 206.434C237.196 206.45 237.176 206.461 237.154 206.466C236.689 206.548 236.218 206.592 235.745 206.595ZM235.01 205.694C234.939 205.685 234.867 205.685 234.796 205.694C234.752 205.704 234.71 205.723 234.673 205.75C234.637 205.777 234.606 205.812 234.583 205.852C234.504 205.987 234.532 206.054 234.583 206.094C234.796 206.393 235.97 206.398 236.829 206.28C236.267 205.966 235.649 205.767 235.01 205.694Z" fill="#016CDE"/>
<path d="M237.143 206.46H237.098C236.537 206.212 235.414 205.204 235.515 204.679C235.515 204.555 235.622 204.403 235.925 204.369C236.033 204.359 236.143 204.37 236.247 204.403C236.352 204.436 236.448 204.49 236.531 204.561C237.121 205.046 237.25 206.297 237.25 206.353C237.252 206.372 237.249 206.391 237.241 206.408C237.233 206.424 237.22 206.439 237.205 206.449C237.186 206.461 237.164 206.465 237.143 206.46ZM236.02 204.572H235.93C235.734 204.572 235.723 204.674 235.717 204.696C235.667 205.012 236.419 205.824 236.986 206.145C236.936 205.616 236.724 205.116 236.379 204.713C236.277 204.628 236.148 204.58 236.015 204.578L236.02 204.572Z" fill="#016CDE"/>
<path d="M242.235 206.353H237.603L237.143 195.589H241.775L242.235 206.353Z" fill="#FFB573"/>
<path d="M276.868 196.536L272.574 197.719L267.077 187.625L271.372 186.442L276.868 196.536Z" fill="#FFB573"/>
<path d="M271.928 197.251L276.565 194.867C276.648 194.827 276.741 194.816 276.831 194.835C276.92 194.855 277.001 194.904 277.059 194.975L279.749 198.232C279.813 198.312 279.859 198.406 279.882 198.506C279.906 198.607 279.906 198.711 279.884 198.812C279.862 198.912 279.818 199.007 279.754 199.088C279.691 199.169 279.61 199.235 279.518 199.28C277.89 200.081 277.054 200.407 275.027 201.439C273.775 202.081 270.047 204.865 268.167 205.384C266.286 205.902 265.556 204.071 266.28 203.693C268.657 202.467 270.485 200.386 271.4 197.866C271.494 197.602 271.682 197.383 271.928 197.251Z" fill="#263238"/>
<path d="M237.615 205.818H242.667C242.759 205.818 242.847 205.85 242.919 205.907C242.99 205.964 243.04 206.044 243.06 206.134L243.975 210.27C243.999 210.37 243.999 210.474 243.976 210.574C243.953 210.674 243.907 210.767 243.843 210.846C243.778 210.926 243.696 210.989 243.604 211.032C243.511 211.075 243.409 211.096 243.307 211.093C241.483 211.065 238.844 210.958 236.57 210.958C233.887 210.958 231.574 211.104 228.43 211.104C226.527 211.104 225.999 209.171 226.796 208.997C230.417 208.202 233.376 208.117 236.509 206.179C236.837 205.959 237.22 205.834 237.615 205.818Z" fill="#263238"/>
<path d="M257.533 70.2593C258.016 71.5048 258.549 72.7222 259.088 73.8662C260.009 75.8444 260.93 77.569 261.598 78.7582C262.193 79.8346 262.586 80.4489 262.586 80.4489L272.691 75.4105C272.691 75.4105 268.616 63.6485 264.36 62.3353C260.009 61.056 255.349 64.6517 257.533 70.2593Z" fill="#263238"/>
<path opacity="0.2" d="M262.019 71.4198C261.138 72.0679 260.509 73.8207 260.06 75.8777C260.621 77.0049 261.183 77.9912 261.598 78.7577C262.193 79.8341 262.586 80.4484 262.586 80.4484L263.743 79.8848C263.72 76.9777 263.135 74.1027 262.019 71.4198Z" fill="black"/>
<path d="M236.144 77.7607C236.144 79.3387 236.183 81.0802 236.267 83.002C236.497 88.2152 237.064 94.7133 238.148 102.789H262.917C263.091 98.974 260.7 80.3476 264.371 62.358C261.631 61.8309 258.859 61.4808 256.074 61.3097C252.566 61.1067 249.049 61.1067 245.542 61.3097C243.138 61.558 240.756 61.9895 238.417 62.6003C238.417 62.6003 236.138 65.1872 236.144 77.7607Z" fill="#263238"/>
<path d="M242.516 70.3773C242.148 71.1509 241.737 71.9035 241.286 72.6316C240.876 73.2966 240.461 73.9391 240.034 74.5591C239.181 75.7989 238.288 76.9937 237.351 78.1604C235.463 80.5284 233.373 82.7254 231.102 84.7261C229.892 85.7914 228.594 86.7529 227.223 87.6004L226.662 87.9273L226.516 88.0062L226.313 88.1076L225.904 88.3049C225.376 88.5545 224.823 88.7436 224.253 88.8684C223.245 89.0718 222.212 89.125 221.188 89.0262C219.479 88.822 217.818 88.3204 216.281 87.544C215.57 87.1942 214.882 86.7989 214.221 86.3605C213.551 85.9249 212.912 85.4448 212.306 84.9234L214.294 81.5419C216.725 82.1843 219.464 82.7592 221.351 82.4887C221.741 82.4513 222.121 82.3444 222.473 82.1731C222.589 82.1161 222.699 82.0461 222.799 81.9645L222.85 81.9138H222.883L222.962 81.8518L223.304 81.6151C224.265 80.8801 225.177 80.0818 226.033 79.2255C227.866 77.3635 229.57 75.3789 231.136 73.2854C231.939 72.2315 232.714 71.1494 233.46 70.0617C233.825 69.4981 234.19 68.9796 234.527 68.4442C234.864 67.9088 235.201 67.3621 235.375 67.0183L242.516 70.3773Z" fill="#FFB573"/>
<path d="M215.282 82.01L211.009 79.9755L210.622 85.7296C210.622 85.7296 213.945 86.2932 215.703 85.0026L215.282 82.01Z" fill="#FFB573"/>
<path d="M205.625 80.9561L207.27 85.3408L210.622 85.7296L211.009 79.9755L205.625 80.9561Z" fill="#FFB573"/>
<path d="M245.575 67.3286C245.429 71.7753 236.312 82.01 236.312 82.01L226.684 75.7091C226.684 75.7091 229.755 69.9606 233.685 65.807C239.686 59.5512 245.749 61.9971 245.575 67.3286Z" fill="#263238"/>
<path opacity="0.2" d="M237.143 195.589L237.379 201.14H242.016L241.78 195.589H237.143Z" fill="black"/>
<path opacity="0.2" d="M271.372 186.442L267.077 187.631L269.913 192.833L274.207 191.644L271.372 186.442Z" fill="black"/>
<path d="M254.457 46.7631C254.272 51.3732 254.401 54.0897 252.133 56.4962C248.719 60.12 243.015 58.1306 241.825 53.5599C240.753 49.4401 241.236 42.5926 245.688 40.6651C246.667 40.2346 247.74 40.0629 248.805 40.1664C249.869 40.2699 250.889 40.6451 251.768 41.2564C252.647 41.8676 253.356 42.6946 253.827 43.6585C254.297 44.6224 254.514 45.6912 254.457 46.7631Z" fill="#FFB573"/>
<path d="M245.289 48.9613C243.633 47.7778 242.01 45.3374 242.14 43.5227C240.607 43.4607 239.58 40.9246 240.422 39.076C240.949 40.2652 242.774 39.3916 243.487 38.4505C243.105 37.5431 243.167 36.0383 245.789 34.9731C245.57 35.7396 245.682 37.0302 248.315 36.1003C251.51 34.9731 257.124 35.7283 255.479 39.5438C257.724 39.9552 260.649 44.6161 258.168 47.0676C255.686 49.5192 255.176 53.4812 253.053 53.887C250.931 54.2928 245.413 54.4337 245.289 48.9613Z" fill="#263238"/>
<path d="M253.985 39.3916C254.878 39.0186 255.87 38.9587 256.801 39.2215C257.733 39.4843 258.548 40.0545 259.117 40.84C257.501 40.0659 255.766 39.576 253.985 39.3916Z" fill="#263238"/>
<path d="M246.496 48.764C246.45 49.7882 246.069 50.7686 245.413 51.5537C244.537 52.5795 243.577 51.9821 243.38 50.7704C243.206 49.6826 243.453 47.8341 244.542 47.2536C245.632 46.6731 246.535 47.5298 246.496 48.764Z" fill="#FFB573"/>
<path d="M246.934 102.789C246.934 102.789 244.75 137.974 248.893 150.947C255.451 171.496 267.15 192.489 267.15 192.489L275.515 189.964C275.515 189.964 266.314 167.804 263.288 150.513C260.571 134.964 262.917 115.509 262.917 102.806L246.934 102.789Z" fill="#016CDE"/>
<path opacity="0.2" d="M246.597 110.651C248.933 109.969 250.757 110.228 251.229 112.314C252.464 117.764 248.759 132.141 246.912 138.718C246.148 129.249 246.322 117.978 246.597 110.651Z" fill="black"/>
<path d="M264.787 190.082C264.753 190.082 266.971 192.681 266.971 192.681L276.111 189.919L274.948 186.819L264.787 190.082Z" fill="#263238"/>
<path d="M238.176 102.789C238.176 102.789 231.198 132.473 230.704 146.653C230.142 162.557 235.683 200.064 235.683 200.064H243.543C243.543 200.064 244.509 162.264 244.857 147.78C245.238 132 254.468 102.789 254.468 102.789H238.176Z" fill="#016CDE"/>
<path d="M234.145 196.93C234.111 196.93 234.589 200.199 234.589 200.199H244.133L244.391 197.28L234.145 196.93Z" fill="#263238"/>
<path d="M241.612 60.2218C242.678 59.8498 250.768 58.8184 256.641 59.134C260.009 59.3144 261.884 59.6976 263.254 60.3457C264.624 60.9939 262.171 64.3585 261.037 64.7699C261.497 66.0548 258.942 67.6949 257.488 68.4726C256.927 69.6787 251.161 70.7946 247.793 68.2021C245.205 66.207 238.586 61.2757 241.612 60.2218Z" fill="#016CDE"/>
</svg>
