<svg width="400" height="225" viewBox="0 0 400 225" fill="none" xmlns="http://www.w3.org/2000/svg">
<path d="M143.84 99.6409L123.715 202.997L121.099 216.528L255.269 215.88C261.296 215.851 266.64 210.502 268.567 202.554L292.365 104.979C293.838 98.9473 290.609 92.6708 286.038 92.6765L150.207 92.8186C147.251 92.813 144.602 95.6101 143.84 99.6409Z" fill="#016CDE"/>
<g opacity="0.5">
<path d="M143.84 99.6409L123.715 202.997L121.099 216.528L255.269 215.88C261.296 215.851 266.64 210.502 268.567 202.554L292.365 104.979C293.838 98.9473 290.609 92.6708 286.038 92.6765L150.207 92.8186C147.251 92.813 144.602 95.6101 143.84 99.6409Z" fill="black"/>
</g>
<path d="M242.415 195.982L228.202 81.4769C227.634 76.7866 223.887 73.2845 219.47 73.3016L188.315 73.3982C187.158 73.4113 186.015 73.66 184.956 74.1291C183.897 74.5983 182.946 75.2781 182.158 76.1271L167.377 91.858L80.7347 92.3242C75.4418 92.3526 71.3713 97.3669 72.0705 102.995L85.2658 208.825C85.8343 213.509 89.5809 217.006 93.9869 217L245.014 216.699C261.83 217.046 263.439 212.082 263.439 212.082C244.132 216.352 242.415 196.01 242.415 195.982Z" fill="#016CDE"/>
<g opacity="0.5">
<path d="M177.292 173.082L172.198 178.552L132.97 143.258L138.064 137.789L177.292 173.082Z" fill="white"/>
<path d="M170.066 136.578L175.694 141.643L140.202 179.762L134.568 174.697L170.066 136.578Z" fill="white"/>
</g>
<path d="M98.8609 35.8083L35.0728 78.4785L97.9037 172.405L161.692 129.735L98.8609 35.8083Z" fill="#F5F5F5"/>
<path d="M128.729 125.292L128.007 129.772L96.2952 125.201L97.0172 120.721L128.729 125.292Z" fill="#E0E0E0"/>
<path d="M112.759 109.311L117.308 109.965L112.265 141.188L107.711 140.529L112.759 109.311Z" fill="#E0E0E0"/>
<path d="M83.5774 69.6285C83.6229 69.691 77.2327 74.0516 69.3019 79.3501C61.3711 84.6487 54.9071 88.9012 54.8616 88.833C54.8161 88.7648 61.2062 84.4099 69.137 79.1057C77.0679 73.8014 83.5035 69.5603 83.5774 69.6285Z" fill="#E0E0E0"/>
<path d="M107.012 63.7388C107.057 63.807 96.4258 70.9931 83.2703 79.7937C70.1148 88.5944 59.3926 95.6724 59.3585 95.6099C59.3244 95.5473 69.9329 88.3499 83.1055 79.5492C96.278 70.7486 106.966 63.6705 107.012 63.7388Z" fill="#E0E0E0"/>
<path d="M111.713 70.7659C111.759 70.8341 101.127 78.0258 87.972 86.8265C74.8165 95.6271 64.0943 102.705 64.0601 102.637C64.026 102.569 74.6459 95.3827 87.8071 86.5763C100.968 77.77 111.668 70.6976 111.713 70.7659Z" fill="#E0E0E0"/>
<path d="M116.415 77.7983C116.46 77.8666 105.829 85.0583 92.6736 93.8533C79.5181 102.648 68.7959 109.738 68.7959 109.669C68.7959 109.601 79.376 102.409 92.5372 93.6088C105.698 84.8082 116.369 77.7301 116.415 77.7983Z" fill="#E0E0E0"/>
<path d="M121.099 84.8308C121.145 84.899 110.514 92.0851 97.3581 100.886C84.2026 109.686 73.4804 116.764 73.452 116.696C73.4235 116.628 84.0491 109.442 97.2217 100.641C110.394 91.8406 121.099 84.7626 121.099 84.8308Z" fill="#E0E0E0"/>
<path d="M312.161 98.7449L258.589 134.581L311.355 213.462L364.927 177.626L312.161 98.7449Z" fill="#F5F5F5"/>
<path d="M337.25 173.912L336.642 177.675L310.007 173.838L310.621 170.074L337.25 173.912Z" fill="#E0E0E0"/>
<path d="M323.839 160.489L327.659 161.04L323.424 187.26L319.597 186.709L323.839 160.489Z" fill="#E0E0E0"/>
<path d="M299.307 127.191C299.353 127.259 293.991 130.926 287.328 135.378C280.665 139.829 275.23 143.388 275.185 143.337C275.139 143.286 280.506 139.608 287.163 135.15C293.821 130.693 299.262 127.094 299.307 127.191Z" fill="#E0E0E0"/>
<path d="M319.006 122.216C319.052 122.285 310.131 128.334 299.108 135.719C288.084 143.104 279.062 149.05 279.017 148.982C278.971 148.914 287.891 142.865 298.915 135.474C309.938 128.084 318.943 122.148 319.006 122.216Z" fill="#E0E0E0"/>
<path d="M322.957 128.118C323.003 128.186 314.083 134.235 303.059 141.626C292.036 149.016 283.013 154.952 282.968 154.883C282.922 154.815 291.814 148.795 302.866 141.404C313.918 134.013 322.923 128.055 322.957 128.118Z" fill="#E0E0E0"/>
<path d="M326.903 134.013C326.948 134.081 318.023 140.13 307.005 147.521C295.987 154.912 286.959 160.847 286.913 160.779C286.868 160.711 295.788 154.667 306.811 147.271C317.835 139.875 326.863 133.956 326.903 134.013Z" fill="#E0E0E0"/>
<path d="M330.882 139.931C330.928 139.999 322.008 146.043 310.984 153.434C299.961 160.824 290.938 166.76 290.893 166.697C290.847 166.634 299.767 160.58 310.791 153.189C321.814 145.798 330.808 139.863 330.882 139.931Z" fill="#E0E0E0"/>
<path d="M227.407 39.2638L168.954 8L122.919 94.0712L181.372 125.335L227.407 39.2638Z" fill="#F5F5F5"/>
<path d="M171.368 98.4071L167.661 99.6749L158.246 73.6539L161.959 72.3804L171.368 98.4071Z" fill="#E0E0E0"/>
<path d="M177.053 79.7371L178.406 83.4722L152.561 92.324L151.208 88.5889L177.053 79.7371Z" fill="#E0E0E0"/>
<path d="M195.416 41.3448C195.371 41.43 189.447 38.3487 182.175 34.4657C174.904 30.5827 169.054 27.3592 169.099 27.2739C169.145 27.1887 175.075 30.27 182.346 34.153C189.617 38.036 195.462 41.2538 195.416 41.3448Z" fill="#E0E0E0"/>
<path d="M209.447 56.8255C209.402 56.9107 199.589 51.7486 187.531 45.3016C175.473 38.8546 165.74 33.556 165.785 33.4708C165.831 33.3855 175.637 38.5419 187.696 44.9946C199.754 51.4473 209.493 56.7402 209.447 56.8255Z" fill="#E0E0E0"/>
<path d="M206.002 63.2669C205.956 63.3521 196.144 58.1957 184.086 51.743C172.027 45.2903 162.294 39.9975 162.34 39.9122C162.385 39.8269 172.192 44.989 184.25 51.436C196.309 57.883 206.047 63.1816 206.002 63.2669Z" fill="#E0E0E0"/>
<path d="M202.557 69.7082C202.511 69.7934 192.698 64.637 180.64 58.19C168.582 51.743 158.849 46.4615 158.894 46.3592C158.94 46.2568 168.747 51.4303 180.805 57.8773C192.863 64.3243 202.602 69.6229 202.557 69.7082Z" fill="#E0E0E0"/>
<path d="M199.112 76.1494C199.066 76.2347 189.253 71.0782 177.195 64.6312C165.137 58.1842 155.398 52.8856 155.449 52.8004C155.501 52.7151 165.302 57.8715 177.36 64.3185C189.418 70.7655 199.157 76.0641 199.112 76.1494Z" fill="#E0E0E0"/>
</svg>
