<svg width="404" height="226" viewBox="0 0 404 226" fill="none" xmlns="http://www.w3.org/2000/svg">
<path d="M247.615 133.841C246.244 133.012 244.767 132.37 243.225 131.931L242.325 127.591L234.975 127.461L233.925 131.771C232.367 132.154 230.868 132.742 229.465 133.521L225.755 131.091L220.475 136.191L222.775 139.991C221.942 141.361 221.299 142.838 220.865 144.381L216.515 145.281L216.385 152.631L220.695 153.681C221.081 155.239 221.673 156.739 222.455 158.141L220.015 161.851L225.125 167.121L228.915 164.821C230.287 165.651 231.763 166.294 233.305 166.731L234.215 171.081L241.555 171.211L242.615 166.901C244.172 166.51 245.669 165.912 247.065 165.121L250.785 167.561L256.065 162.451L253.765 158.661C254.591 157.288 255.233 155.812 255.675 154.271L260.015 153.361L260.145 146.021L255.835 144.961C255.454 143.406 254.866 141.909 254.085 140.511L256.515 136.791L251.415 131.511L247.615 133.811V133.841ZM243.705 143.621C244.789 144.742 245.515 146.158 245.794 147.692C246.072 149.226 245.889 150.807 245.268 152.237C244.647 153.667 243.617 154.88 242.306 155.724C240.996 156.568 239.464 157.004 237.906 156.977C236.347 156.951 234.832 156.463 233.551 155.575C232.27 154.687 231.281 153.439 230.709 151.989C230.138 150.539 230.009 148.952 230.339 147.428C230.67 145.905 231.444 144.514 232.565 143.431C234.069 141.982 236.086 141.188 238.175 141.224C240.263 141.259 242.252 142.122 243.705 143.621Z" fill="#F5F5F5"/>
<path d="M64.1798 199.565L279.113 199.565V149.359L64.1798 149.359V199.565Z" fill="#37474F"/>
<path d="M323.029 149.336H279.09V199.542H323.029V149.336Z" fill="#263238"/>
<path d="M311.645 160.678L311.645 188.199L315.344 188.199L315.344 160.678L311.645 160.678Z" fill="#455A64"/>
<path d="M303.355 160.678L303.355 188.199L307.054 188.199L307.054 160.678L303.355 160.678Z" fill="#455A64"/>
<path d="M295.066 160.678L295.066 188.199L298.764 188.199L298.764 160.678L295.066 160.678Z" fill="#455A64"/>
<path d="M286.776 160.678L286.776 188.199L290.474 188.199L290.474 160.678L286.776 160.678Z" fill="#455A64"/>
<path fill-rule="evenodd" clip-rule="evenodd" d="M247.769 162.022L260.145 170.558V179.673L247.769 186.902L191.002 186.902H134.234L121.858 179.673V170.558L134.234 162.022L191.001 162.022L247.769 162.022Z" fill="#506570"/>
<path d="M139.739 167.924H154.327V172.94H139.739V167.924Z" fill="#304048"/>
<path d="M139.739 175.984H154.327V181H139.739V175.984Z" fill="#304048"/>
<path d="M157.327 167.924H171.914V172.94H157.327V167.924Z" fill="#304048"/>
<path d="M157.327 175.984H171.914V181H157.327V175.984Z" fill="#304048"/>
<path d="M174.914 167.924H189.501V172.94H174.914V167.924Z" fill="#304048"/>
<path d="M174.914 175.984H189.501V181H174.914V175.984Z" fill="#304048"/>
<path d="M192.501 167.924H207.089V172.94H192.501V167.924Z" fill="#304048"/>
<path d="M192.501 175.984H207.089V181H192.501V175.984Z" fill="#304048"/>
<path d="M210.089 167.924H224.676V172.94H210.089V167.924Z" fill="#304048"/>
<path d="M210.089 175.984H224.676V181H210.089V175.984Z" fill="#304048"/>
<path d="M227.676 167.924H242.264V172.94H227.676V167.924Z" fill="#304048"/>
<path d="M227.676 175.984H242.264V181H227.676V175.984Z" fill="#304048"/>
<path d="M253.486 174.544C253.484 174.782 253.553 175.015 253.684 175.214C253.815 175.413 254.003 175.568 254.222 175.661C254.442 175.753 254.684 175.777 254.918 175.731C255.151 175.685 255.366 175.571 255.535 175.402C255.703 175.234 255.818 175.019 255.864 174.785C255.909 174.552 255.885 174.31 255.793 174.09C255.701 173.87 255.545 173.683 255.347 173.552C255.148 173.421 254.914 173.352 254.676 173.354C254.361 173.356 254.06 173.483 253.838 173.705C253.615 173.928 253.489 174.229 253.486 174.544Z" fill="white"/>
<path d="M126.117 174.544C126.115 174.782 126.184 175.015 126.316 175.214C126.447 175.413 126.634 175.568 126.854 175.661C127.073 175.753 127.315 175.777 127.549 175.731C127.783 175.685 127.998 175.571 128.166 175.402C128.334 175.234 128.449 175.019 128.495 174.785C128.541 174.552 128.516 174.31 128.424 174.09C128.332 173.87 128.177 173.683 127.978 173.552C127.779 173.421 127.546 173.352 127.307 173.354C126.993 173.356 126.692 173.483 126.469 173.705C126.246 173.928 126.12 174.229 126.117 174.544Z" fill="white"/>
<circle cx="83.1945" cy="174.462" r="4.30388" fill="#F15368"/>
<circle cx="100.433" cy="174.462" r="4.30388" fill="#F15368"/>
<path d="M15.532 199.542L63.5912 199.422L111.651 199.377L207.769 199.292L303.888 199.377L351.947 199.417L400 199.542L351.947 199.661L303.888 199.706L207.769 199.791L111.651 199.706L63.5912 199.661L15.532 199.542Z" fill="#263238"/>
<path d="M350.7 138.685C351.055 129.678 350.935 120.659 350.34 111.665C349.033 93.1116 346.247 74.6962 342.01 56.6003C339.69 46.4388 336.83 36.3993 333.85 26.4004C333.76 26.0956 333.28 26.1769 333.36 26.4919C342.58 61.7623 350.14 98.1607 349.62 134.813C349.48 145.076 348.31 155.136 347.35 165.298C347.35 165.572 347.77 165.674 347.83 165.399C349.73 156.731 350.35 147.596 350.7 138.685Z" fill="#EBEBEB"/>
<path d="M333.36 26.502C333.36 26.502 319.43 62.5142 322.53 70.9787C325.63 79.4432 332.1 81.252 332.1 81.252C332.1 81.252 323.56 93.649 329.53 105.274C335.5 116.898 348.76 116.35 349.64 129.529C349.64 129.529 350.43 74.4133 333.36 26.502Z" fill="#EBEBEB"/>
<path d="M336.9 58.6325C334.377 57.0297 331.492 56.1129 328.52 55.9702C328.509 55.975 328.5 55.9828 328.494 55.9927C328.487 56.0026 328.484 56.0142 328.484 56.0261C328.484 56.038 328.487 56.0496 328.494 56.0595C328.5 56.0694 328.509 56.0772 328.52 56.082C331.391 56.6248 334.178 57.5507 336.81 58.8358C336.836 58.8452 336.865 58.8444 336.89 58.8334C336.916 58.8224 336.936 58.802 336.947 58.7764C336.959 58.7507 336.96 58.7217 336.951 58.695C336.943 58.6684 336.924 58.646 336.9 58.6325Z" fill="#263238"/>
<path d="M338.6 96.7074C336.656 95.5784 334.517 94.8368 332.3 94.5227C332.23 94.5227 332.22 94.6243 332.3 94.6446C334.469 95.079 336.567 95.8249 338.53 96.8598C338.61 96.9005 338.68 96.7582 338.6 96.7074Z" fill="#263238"/>
<path d="M387.43 71.5682C381.529 75.7212 376.108 80.5377 371.27 85.9263C366.284 91.629 362.436 98.2621 359.94 105.457C354.629 120.464 351.775 136.254 351.49 152.199C351.311 161.024 352.147 169.839 353.98 178.467C353.992 178.532 354.029 178.589 354.082 178.626C354.135 178.663 354.201 178.677 354.265 178.665C354.329 178.653 354.385 178.616 354.421 178.561C354.458 178.507 354.472 178.44 354.46 178.375C352.186 163.149 352.274 147.655 354.72 132.456C357.12 117.559 360.88 101.351 370.2 89.2491C375.28 82.6543 381.61 77.4618 387.86 72.1067C388.17 71.8425 387.75 71.3243 387.43 71.5682Z" fill="#EBEBEB"/>
<path d="M353.53 141.438C356.889 135.915 360.84 130.786 365.31 126.145C372.31 119.032 378.18 114.003 379.08 109.308C379.98 104.613 372.08 101.179 372.08 101.179C372.08 101.179 381.74 102.947 384.39 98.8213C387.04 94.6957 388.32 70.8264 388.32 70.8264C388.32 70.8264 370.73 83.5791 362.54 101.463C354.35 119.347 353.53 141.438 353.53 141.438Z" fill="#EBEBEB"/>
<path d="M382.04 93.1816C380.882 93.0041 379.707 92.9631 378.54 93.0597C378.508 93.0597 378.478 93.0725 378.455 93.0954C378.433 93.1183 378.42 93.1493 378.42 93.1816C378.42 93.2139 378.433 93.2449 378.455 93.2678C378.478 93.2907 378.508 93.3035 378.54 93.3035C379.7 93.3035 380.86 93.2527 382.02 93.3035C382.032 93.2992 382.042 93.2918 382.05 93.2822C382.058 93.2725 382.063 93.2609 382.065 93.2485C382.067 93.2361 382.066 93.2234 382.061 93.2116C382.057 93.1999 382.05 93.1895 382.04 93.1816Z" fill="#263238"/>
<path d="M369.43 116.36C367.573 116.402 365.738 116.777 364.01 117.468C364.01 117.468 364.01 117.559 364.01 117.549C365.8 117.112 367.61 116.939 369.42 116.634C369.54 116.604 369.54 116.36 369.43 116.36Z" fill="#263238"/>
<path d="M365.59 108.363C364.818 108.354 364.048 108.422 363.29 108.566C363.21 108.566 363.22 108.708 363.29 108.708C364.061 108.747 364.835 108.71 365.6 108.596C365.73 108.576 365.73 108.363 365.59 108.363Z" fill="#263238"/>
<path d="M301.98 96.9111C307.701 98.876 313.183 101.498 318.32 104.725C323.652 108.175 328.277 112.64 331.94 117.874C339.651 128.766 345.559 140.865 349.43 153.693C351.594 160.793 352.937 168.125 353.43 175.541C353.43 175.597 353.408 175.651 353.368 175.691C353.329 175.731 353.276 175.754 353.22 175.754C353.164 175.754 353.111 175.731 353.071 175.691C353.032 175.651 353.01 175.597 353.01 175.541C351.396 162.68 347.802 150.157 342.36 138.431C337.03 126.938 330.3 114.714 320 107.103C314.4 102.957 308.1 100.244 301.81 97.3785C301.43 97.2464 301.65 96.7892 301.98 96.9111Z" fill="#EBEBEB"/>
<path d="M345.29 145.493C341.315 141.816 336.956 138.592 332.29 135.88C325.02 131.815 319.11 129.082 317.29 125.495C315.47 121.908 321.1 117.254 321.1 117.254C321.1 117.254 313.68 120.953 310.6 118.27C307.52 115.587 301.06 96.5347 301.06 96.5347C301.06 96.5347 318.19 102.723 328.89 115.272C339.59 127.822 345.29 145.493 345.29 145.493Z" fill="#EBEBEB"/>
<path d="M316.13 108.099C315.361 108.036 314.587 108.08 313.83 108.231C313.811 108.231 313.793 108.238 313.78 108.252C313.767 108.265 313.76 108.283 313.76 108.302C313.76 108.321 313.767 108.339 313.78 108.352C313.793 108.366 313.811 108.373 313.83 108.373C314.58 108.292 315.32 108.322 316.08 108.292C316.23 108.292 316.25 108.109 316.13 108.099Z" fill="#263238"/>
<path d="M367.39 199.542H328.72L334.23 158.499L335.64 147.972H360.47L361.88 158.499L367.39 199.542Z" fill="#455A64"/>
<path d="M361.88 158.499H334.23L335.64 147.972H360.47L361.88 158.499Z" fill="#263238"/>
<path d="M364.02 144.324H332.09V153.236H364.02V144.324Z" fill="#455A64"/>
<path d="M39.7244 85.8524C38.0198 84.8263 36.1873 84.0295 34.2744 83.4824L33.1544 78.0924L24.0444 77.9324L22.7344 83.2824C20.8026 83.756 18.9428 84.4858 17.2044 85.4524L12.6044 82.4524L6.05444 88.7924L8.90442 93.5024C7.8748 95.2052 7.07773 97.0381 6.53442 98.9524L1.14441 100.072L0.984436 109.182L6.33441 110.492C6.81431 112.419 7.5438 114.275 8.50439 116.012L5.50439 120.622L11.8244 127.172L16.5344 124.322C18.2385 125.347 20.0712 126.141 21.9844 126.682L23.1044 132.072L32.2144 132.232L33.5244 126.882C35.4536 126.41 37.3104 125.681 39.0444 124.712L43.6544 127.712L50.2044 121.382L47.3544 116.672C48.383 114.974 49.1769 113.144 49.7144 111.232L55.1044 110.112L55.2644 101.002L49.9244 99.6924C49.4473 97.7602 48.7142 95.9004 47.7444 94.1624L50.7444 89.5624L44.4144 83.0124L39.7144 85.8624L39.7244 85.8524ZM34.8644 97.9824C36.2061 99.3725 37.1055 101.129 37.4489 103.031C37.7923 104.932 37.5644 106.892 36.7938 108.664C36.0233 110.436 34.7447 111.939 33.1198 112.984C31.4949 114.029 29.5966 114.569 27.6649 114.536C25.7331 114.502 23.8547 113.897 22.2671 112.796C20.6795 111.695 19.4539 110.148 18.7453 108.35C18.0367 106.553 17.877 104.586 18.2862 102.698C18.6954 100.81 19.6553 99.0851 21.0444 97.7424C22.9097 95.9431 25.4128 94.9578 28.0041 95.0028C30.5953 95.0478 33.0628 96.1194 34.8644 97.9824Z" fill="#EBEBEB"/>
<path d="M22.9645 189.472C22.9645 189.98 23.1152 190.477 23.3976 190.9C23.68 191.323 24.0814 191.652 24.551 191.846C25.0206 192.041 25.5374 192.092 26.0359 191.993C26.5344 191.894 26.9923 191.649 27.3517 191.289C27.7112 190.93 27.9559 190.472 28.0551 189.973C28.1543 189.475 28.1034 188.958 27.9089 188.489C27.7143 188.019 27.3849 187.618 26.9623 187.335C26.5396 187.053 26.0428 186.902 25.5345 186.902C24.8529 186.902 24.1992 187.173 23.7172 187.655C23.2352 188.137 22.9645 188.79 22.9645 189.472Z" fill="#263238"/>
<path d="M237.124 121.014C237.124 121.522 237.274 122.019 237.557 122.441C237.839 122.864 238.241 123.193 238.71 123.388C239.18 123.582 239.697 123.633 240.195 123.534C240.694 123.435 241.151 123.19 241.511 122.831C241.87 122.471 242.115 122.014 242.214 121.515C242.313 121.016 242.263 120.5 242.068 120.03C241.874 119.56 241.544 119.159 241.121 118.877C240.699 118.594 240.202 118.444 239.694 118.444C239.012 118.444 238.358 118.714 237.876 119.196C237.394 119.678 237.124 120.332 237.124 121.014Z" fill="#263238"/>
<path d="M240.115 120.313C240.115 120.313 240.115 119.993 240.115 119.313C240.115 118.633 240.115 117.713 240.115 116.473C240.115 115.233 240.115 113.673 240.115 111.853C240.144 110.855 240.01 109.861 239.722 108.933C239.375 107.881 238.818 106.964 238.106 106.273C237.314 105.485 236.354 105.021 235.351 104.943C234.308 104.943 233.233 104.943 232.095 104.943H224.726H206.771L102.841 104.793H45.556H31.164C30.6391 104.768 30.1135 104.808 29.5946 104.913C28.5586 105.156 27.6053 105.796 26.8611 106.746C26.1169 107.696 25.617 108.912 25.4276 110.233C25.3501 110.871 25.3186 111.517 25.3335 112.163V114.043C25.3335 124.043 25.3335 133.293 25.3335 141.783C25.3335 158.783 25.3806 172.442 25.3963 181.942C25.3963 186.673 25.3963 190.353 25.3963 192.863C25.3963 194.103 25.3963 195.053 25.3963 195.703C25.3963 196.353 25.3963 196.703 25.3963 196.703C25.3963 196.703 25.3963 196.373 25.3963 195.703C25.3963 195.033 25.3963 194.103 25.3963 192.863C25.3963 190.353 25.3963 186.673 25.4355 181.942C25.4355 172.442 25.4355 158.733 25.4983 141.783C25.4983 133.293 25.4983 124.013 25.4983 114.043V112.163C25.4791 111.544 25.508 110.924 25.5846 110.313C25.7597 109.068 26.2296 107.922 26.931 107.028C27.6324 106.134 28.5318 105.536 29.5082 105.313C30.0066 105.215 30.5111 105.178 31.0149 105.203H45.5795H102.865L206.858 105.123H224.812H232.181C233.311 105.123 234.402 105.123 235.422 105.123C236.393 105.198 237.325 105.64 238.098 106.393C238.786 107.063 239.326 107.948 239.667 108.963C239.95 109.868 240.083 110.838 240.06 111.813C240.06 113.633 240.06 115.173 240.06 116.433C240.06 117.673 240.06 118.613 240.06 119.273C240.06 119.933 240.115 120.313 240.115 120.313Z" fill="#263238"/>
</svg>
