<svg width="400" height="226" viewBox="0 0 400 226" fill="none" xmlns="http://www.w3.org/2000/svg">
<path d="M321.948 27.6369C324.269 26.2336 326.768 25.1472 329.378 24.4069L330.918 17.0369L343.378 16.8269L345.168 24.1269C347.806 24.7875 350.345 25.7963 352.718 27.1269L358.998 23.0069L367.948 31.6469L364.038 38.0369C365.442 40.3615 366.528 42.8638 367.268 45.4769L374.628 47.0369L374.848 59.4769L367.548 61.2669C366.883 63.9043 365.875 66.4427 364.548 68.8169L368.668 75.0969L360.058 84.0369L353.628 80.1469C351.303 81.5511 348.801 82.6374 346.188 83.3769L344.658 90.7369L332.218 90.9569L330.428 83.6569C327.79 82.9924 325.252 81.9838 322.878 80.6569L316.598 84.7769L307.598 76.1369L311.488 69.7069C310.084 67.3823 308.997 64.8801 308.258 62.2669L300.898 60.7369L300.678 48.2969L307.978 46.5069C308.638 43.8683 309.647 41.3293 310.978 38.9569L306.858 32.6769L315.498 23.7269L321.928 27.6169L321.948 27.6369ZM328.578 44.2069C326.743 46.1059 325.512 48.5065 325.041 51.1051C324.571 53.7036 324.882 56.3833 325.934 58.8052C326.987 61.2272 328.734 63.2825 330.955 64.7112C333.176 66.1399 335.771 66.8779 338.411 66.8317C341.052 66.7855 343.619 65.9573 345.789 64.4518C347.958 62.9463 349.633 60.8311 350.6 58.3739C351.567 55.9166 351.784 53.2277 351.223 50.6472C350.662 48.0667 349.348 45.7106 347.448 43.8769C344.901 41.4195 341.483 40.0739 337.944 40.1358C334.406 40.1977 331.037 41.662 328.578 44.2069Z" fill="#EBEBEB"/>
<path d="M275.086 7.21787C276.408 6.41879 277.831 5.80022 279.317 5.37866L280.194 1.18208L287.289 1.0625L288.308 5.21923C289.81 5.59535 291.256 6.16981 292.607 6.92747L296.183 4.58148L301.279 9.50122L299.053 13.1398C299.852 14.4634 300.471 15.8883 300.892 17.3762L305.083 18.2645L305.208 25.348L301.051 26.3673C300.673 27.869 300.099 29.3145 299.343 30.6664L301.689 34.2423L296.786 39.3328L293.125 37.1178C291.801 37.9174 290.377 38.5359 288.889 38.957L288.017 43.1479L280.934 43.2732L279.915 39.1165C278.413 38.7381 276.967 38.1638 275.616 37.4082L272.04 39.7542L266.915 34.8345L269.13 31.1731C268.33 29.8495 267.712 28.4247 267.291 26.9367L263.1 26.0655L262.975 18.982L267.131 17.9627C267.507 16.4602 268.082 15.0145 268.84 13.6636L266.494 10.0877L271.413 4.99146L275.075 7.20648L275.086 7.21787ZM278.861 16.6531C277.816 17.7344 277.116 19.1013 276.848 20.581C276.58 22.0606 276.757 23.5865 277.356 24.9656C277.955 26.3447 278.95 27.515 280.215 28.3285C281.48 29.1421 282.957 29.5623 284.461 29.536C285.964 29.5097 287.426 29.0381 288.661 28.1808C289.897 27.3236 290.85 26.1192 291.401 24.72C291.952 23.3208 292.075 21.7896 291.756 20.3203C291.436 18.8509 290.688 17.5093 289.606 16.4652C288.156 15.0659 286.21 14.2997 284.195 14.3349C282.18 14.3702 280.262 15.204 278.861 16.6531Z" fill="#EBEBEB"/>
<path d="M55.2568 152.361L296.965 152.361V102.155L55.2568 102.155V152.361Z" fill="#37474F"/>
<path d="M340.881 102.132H296.942V152.337H340.881V102.132Z" fill="#263238"/>
<path d="M329.497 113.474L329.497 140.995L333.195 140.995L333.195 113.474L329.497 113.474Z" fill="#455A64"/>
<path d="M321.207 113.474L321.207 140.995L324.905 140.995L324.905 113.474L321.207 113.474Z" fill="#455A64"/>
<path d="M312.917 113.474L312.917 140.995L316.615 140.995L316.615 113.474L312.917 113.474Z" fill="#455A64"/>
<path d="M304.627 113.474L304.627 140.995L308.325 140.995L308.325 113.474L304.627 113.474Z" fill="#455A64"/>
<path d="M29.5667 206.694L70.7717 206.574L111.977 206.529L194.387 206.445L276.797 206.529L318.002 206.569L359.202 206.694L318.002 206.814L276.797 206.858L194.387 206.943L111.977 206.858L70.7717 206.814L29.5667 206.694Z" fill="#263238"/>
<path d="M55.2568 206.694L296.965 206.694V156.488L55.2568 156.488V206.694Z" fill="#37474F"/>
<path d="M340.881 156.465H296.942V206.671H340.881V156.465Z" fill="#263238"/>
<path d="M329.497 167.807L329.497 195.328L333.195 195.328L333.195 167.807L329.497 167.807Z" fill="#455A64"/>
<path d="M321.207 167.807L321.207 195.328L324.905 195.328L324.905 167.807L321.207 167.807Z" fill="#455A64"/>
<path d="M312.917 167.807L312.917 195.328L316.616 195.328L316.616 167.807L312.917 167.807Z" fill="#455A64"/>
<path d="M304.627 167.807L304.627 195.328L308.326 195.328L308.326 167.807L304.627 167.807Z" fill="#455A64"/>
<path d="M55.2568 98.0276L296.965 98.0276V47.8219L55.2568 47.8219V98.0276Z" fill="#37474F"/>
<circle cx="82.6985" cy="72.9248" r="6.73682" fill="#F15368"/>
<circle cx="82.6985" cy="127.258" r="6.73682" fill="#F15368"/>
<circle cx="82.6985" cy="181.58" r="6.73682" fill="#F15368"/>
<path d="M340.881 47.7988H296.942V98.0045H340.881V47.7988Z" fill="#263238"/>
<path d="M329.497 59.1407L329.497 86.6621L333.195 86.6621L333.195 59.1407L329.497 59.1407Z" fill="#455A64"/>
<path d="M321.207 59.1407L321.207 86.6621L324.905 86.6621L324.905 59.1407L321.207 59.1407Z" fill="#455A64"/>
<path d="M312.917 59.1407L312.917 86.6621L316.616 86.6621L316.616 59.1407L312.917 59.1407Z" fill="#455A64"/>
<path d="M304.627 59.1407L304.627 86.6621L308.326 86.6621L308.326 59.1407L304.627 59.1407Z" fill="#455A64"/>
<path fill-rule="evenodd" clip-rule="evenodd" d="M247.213 60.4851L259.589 69.0207V78.1354L247.213 85.3645L190.446 85.3645H133.678L121.302 78.1354V69.0207L133.678 60.4851L190.446 60.4851L247.213 60.4851Z" fill="#506570"/>
<path d="M139.184 66.3865H153.771V71.4031H139.184V66.3865Z" fill="#304048"/>
<path d="M139.184 74.4463H153.771V79.4629H139.184V74.4463Z" fill="#304048"/>
<path d="M156.771 66.3865H171.358V71.4031H156.771V66.3865Z" fill="#304048"/>
<path d="M156.771 74.4463H171.358V79.4629H156.771V74.4463Z" fill="#304048"/>
<path d="M174.358 66.3865H188.946V71.4031H174.358V66.3865Z" fill="#304048"/>
<path d="M174.358 74.4463H188.946V79.4629H174.358V74.4463Z" fill="#304048"/>
<path d="M191.946 66.3865H206.533V71.4031H191.946V66.3865Z" fill="#304048"/>
<path d="M191.946 74.4463H206.533V79.4629H191.946V74.4463Z" fill="#304048"/>
<path d="M209.533 66.3865H224.121V71.4031H209.533V66.3865Z" fill="#304048"/>
<path d="M209.533 74.4463H224.121V79.4629H209.533V74.4463Z" fill="#304048"/>
<path d="M227.121 66.3865H241.708V71.4031H227.121V66.3865Z" fill="#304048"/>
<path d="M227.121 74.4463H241.708V79.4629H227.121V74.4463Z" fill="#304048"/>
<path d="M252.93 73.0065C252.928 73.2446 252.997 73.478 253.129 73.6769C253.26 73.8757 253.447 74.0311 253.667 74.1231C253.886 74.2152 254.128 74.2398 254.362 74.1938C254.596 74.1478 254.811 74.0333 254.979 73.8649C255.147 73.6965 255.262 73.4818 255.308 73.2481C255.354 73.0144 255.329 72.7723 255.237 72.5526C255.145 72.3329 254.99 72.1456 254.791 72.0145C254.592 71.8834 254.359 71.8145 254.12 71.8164C253.806 71.8191 253.505 71.9453 253.282 72.1679C253.059 72.3905 252.933 72.6917 252.93 73.0065Z" fill="white"/>
<path d="M125.562 73.0065C125.56 73.2446 125.629 73.478 125.76 73.6769C125.891 73.8757 126.078 74.0311 126.298 74.1231C126.518 74.2152 126.76 74.2398 126.993 74.1938C127.227 74.1478 127.442 74.0333 127.61 73.8649C127.779 73.6965 127.893 73.4818 127.939 73.2481C127.985 73.0144 127.961 72.7723 127.869 72.5526C127.776 72.3329 127.621 72.1456 127.422 72.0145C127.223 71.8834 126.99 71.8145 126.752 71.8164C126.437 71.8191 126.136 71.9453 125.913 72.1679C125.691 72.3905 125.564 72.6917 125.562 73.0065Z" fill="white"/>
<path fill-rule="evenodd" clip-rule="evenodd" d="M247.213 114.807L259.589 123.342V132.457L247.213 139.686L190.446 139.686H133.678L121.302 132.457V123.342L133.678 114.807L190.446 114.807L247.213 114.807Z" fill="#506570"/>
<path d="M139.184 120.708H153.771V125.725H139.184V120.708Z" fill="#304048"/>
<path d="M139.184 128.768H153.771V133.784H139.184V128.768Z" fill="#304048"/>
<path d="M156.771 120.708H171.358V125.725H156.771V120.708Z" fill="#304048"/>
<path d="M156.771 128.768H171.358V133.784H156.771V128.768Z" fill="#304048"/>
<path d="M174.358 120.708H188.946V125.725H174.358V120.708Z" fill="#304048"/>
<path d="M174.358 128.768H188.946V133.784H174.358V128.768Z" fill="#304048"/>
<path d="M191.946 120.708H206.533V125.725H191.946V120.708Z" fill="#304048"/>
<path d="M191.946 128.768H206.533V133.784H191.946V128.768Z" fill="#304048"/>
<path d="M209.533 120.708H224.121V125.725H209.533V120.708Z" fill="#304048"/>
<path d="M209.533 128.768H224.121V133.784H209.533V128.768Z" fill="#304048"/>
<path d="M227.121 120.708H241.708V125.725H227.121V120.708Z" fill="#304048"/>
<path d="M227.121 128.768H241.708V133.784H227.121V128.768Z" fill="#304048"/>
<path d="M252.93 127.328C252.928 127.566 252.997 127.8 253.129 127.998C253.26 128.197 253.447 128.353 253.667 128.445C253.886 128.537 254.128 128.561 254.362 128.515C254.596 128.469 254.811 128.355 254.979 128.186C255.147 128.018 255.262 127.803 255.308 127.57C255.354 127.336 255.329 127.094 255.237 126.874C255.145 126.654 254.99 126.467 254.791 126.336C254.592 126.205 254.359 126.136 254.12 126.138C253.806 126.141 253.505 126.267 253.282 126.489C253.059 126.712 252.933 127.013 252.93 127.328Z" fill="white"/>
<path d="M125.562 127.328C125.56 127.566 125.629 127.8 125.76 127.998C125.891 128.197 126.078 128.353 126.298 128.445C126.518 128.537 126.76 128.561 126.993 128.515C127.227 128.469 127.442 128.355 127.61 128.186C127.779 128.018 127.893 127.803 127.939 127.57C127.985 127.336 127.961 127.094 127.869 126.874C127.776 126.654 127.621 126.467 127.422 126.336C127.223 126.205 126.99 126.136 126.752 126.138C126.437 126.141 126.136 126.267 125.913 126.489C125.691 126.712 125.564 127.013 125.562 127.328Z" fill="white"/>
<path fill-rule="evenodd" clip-rule="evenodd" d="M247.213 169.14L259.589 177.676V186.79L247.213 194.019L190.446 194.02H133.678L121.302 186.79V177.676L133.678 169.14L190.446 169.14L247.213 169.14Z" fill="#506570"/>
<path d="M139.184 175.042H153.771V180.058H139.184V175.042Z" fill="#304048"/>
<path d="M139.184 183.101H153.771V188.118H139.184V183.101Z" fill="#304048"/>
<path d="M156.771 175.042H171.358V180.058H156.771V175.042Z" fill="#304048"/>
<path d="M156.771 183.101H171.358V188.118H156.771V183.101Z" fill="#304048"/>
<path d="M174.358 175.042H188.946V180.058H174.358V175.042Z" fill="#304048"/>
<path d="M174.358 183.101H188.946V188.118H174.358V183.101Z" fill="#304048"/>
<path d="M191.946 175.042H206.533V180.058H191.946V175.042Z" fill="#304048"/>
<path d="M191.946 183.101H206.533V188.118H191.946V183.101Z" fill="#304048"/>
<path d="M209.533 175.042H224.121V180.058H209.533V175.042Z" fill="#304048"/>
<path d="M209.533 183.101H224.121V188.118H209.533V183.101Z" fill="#304048"/>
<path d="M227.121 175.042H241.708V180.058H227.121V175.042Z" fill="#304048"/>
<path d="M227.121 183.101H241.708V188.118H227.121V183.101Z" fill="#304048"/>
<path d="M252.93 181.661C252.928 181.9 252.997 182.133 253.129 182.332C253.26 182.531 253.447 182.686 253.667 182.778C253.886 182.87 254.128 182.895 254.362 182.849C254.596 182.803 254.811 182.688 254.979 182.52C255.147 182.352 255.262 182.137 255.308 181.903C255.354 181.669 255.329 181.427 255.237 181.208C255.145 180.988 254.99 180.801 254.791 180.67C254.592 180.538 254.359 180.47 254.12 180.471C253.806 180.474 253.505 180.6 253.282 180.823C253.059 181.046 252.933 181.347 252.93 181.661Z" fill="white"/>
<path d="M125.562 181.661C125.56 181.9 125.629 182.133 125.76 182.332C125.891 182.531 126.078 182.686 126.298 182.778C126.518 182.87 126.76 182.895 126.993 182.849C127.227 182.803 127.442 182.688 127.61 182.52C127.779 182.352 127.893 182.137 127.939 181.903C127.985 181.669 127.961 181.427 127.869 181.208C127.776 180.988 127.621 180.801 127.422 180.67C127.223 180.538 126.99 180.47 126.752 180.471C126.437 180.474 126.136 180.6 125.913 180.823C125.691 181.046 125.564 181.347 125.562 181.661Z" fill="white"/>
</svg>
