<svg width="84" height="10" viewBox="0 0 84 10" fill="none" xmlns="http://www.w3.org/2000/svg">
<path d="M5.25236 6.38426H6.97111V7.77339C6.84162 7.89111 6.67681 7.97352 6.47668 8.05592C6.28832 8.12656 6.07642 8.18542 5.85275 8.22074C5.62907 8.25605 5.41717 8.2796 5.1935 8.2796C4.65197 8.2796 4.19286 8.16187 3.82792 7.91466C3.46298 7.67921 3.18044 7.32604 2.99208 6.8787C2.80373 6.41958 2.70955 5.87806 2.70955 5.23058C2.70955 4.74792 2.76841 4.31234 2.87436 3.93563C2.98031 3.55892 3.14513 3.24107 3.34525 2.98208C3.54538 2.72309 3.80437 2.52296 4.09868 2.39347C4.39298 2.26397 4.72261 2.19334 5.07578 2.19334C5.34654 2.19334 5.58198 2.22865 5.78211 2.31106C5.98224 2.39346 6.15882 2.49942 6.30009 2.62891C6.44136 2.75841 6.54731 2.89967 6.62971 3.06448C6.71212 3.21752 6.77098 3.37056 6.79453 3.5236H8.51328C8.46619 2.86436 8.27783 2.31106 7.94821 1.87549C7.61859 1.43991 7.20656 1.11029 6.71212 0.886615C6.20591 0.662942 5.66439 0.556992 5.08755 0.556992C4.26349 0.556992 3.54538 0.745348 2.92145 1.11029C2.29752 1.47523 1.80309 2.01675 1.44992 2.71132C1.09675 3.40588 0.920166 4.24171 0.920166 5.21881C0.920166 6.19591 1.09675 7.05528 1.46169 7.76162C1.82663 8.46795 2.32107 9.00948 2.95677 9.38619C3.59247 9.7629 4.33412 9.95126 5.16996 9.95126C5.85275 9.95126 6.47668 9.84531 7.04174 9.62164C7.60681 9.39796 8.12479 9.10366 8.60746 8.73872V4.9245H5.22882L5.25236 6.38426ZM16.6126 2.29929H18.6257V9.78645H20.3797V2.29929H22.4281V0.698259H16.6126V2.29929ZM25.3005 5.9016H28.5026V4.31234H25.3005V2.29929H28.8911V0.698259H23.57V9.78645H28.9735V8.17365H25.3005V5.9016ZM71.6008 5.9016H74.8029V4.31234H71.6008V2.29929H75.1914V0.698259H69.8703V9.78645H75.2738V8.17365H71.6008V5.9016ZM66.4093 4.34766H64.043V0.698259H62.289V9.78645H64.043V5.9016H66.4093V9.78645H68.1633V0.698259H66.4093V4.34766ZM14.0816 0.686487L16.8363 9.79822H15.0233L14.4936 7.89111H11.68L11.1503 9.79822H9.41974L12.1862 0.686487H14.0816ZM14.0698 6.30186L13.0809 2.77018L12.1156 6.29008C12.1156 6.30186 14.0698 6.30186 14.0698 6.30186ZM44.6188 0.686487L47.3735 9.79822H45.5606L45.0308 7.89111H42.2173L41.6875 9.79822H39.9688L42.7352 0.686487C42.7235 0.686487 44.6188 0.686487 44.6188 0.686487ZM44.607 6.30186L43.6299 2.77018L42.6646 6.29008C42.6528 6.30186 44.607 6.30186 44.607 6.30186ZM47.1381 2.29929H49.1511V9.78645H50.9052V2.29929H52.9536V0.698259H47.1263L47.1381 2.29929ZM57.2269 8.31492C56.0261 8.31492 55.4022 7.26718 55.4022 5.23058C55.4022 3.19398 56.0261 2.15802 57.2505 2.15802C58.204 2.15802 58.7573 2.82904 58.9457 4.15931L60.8528 3.79436C60.476 1.64004 59.2282 0.533447 57.2387 0.533447C54.8725 0.533447 53.4245 2.31106 53.4245 5.23058C53.4245 8.1501 54.7665 9.92771 57.2269 9.92771C59.24 9.92771 60.4996 8.83289 60.8763 6.61971L58.9692 6.25477C58.7926 7.63212 58.2158 8.31492 57.2269 8.31492ZM38.4266 0.698259L37.2494 7.10237L35.9191 0.698259H34.271L32.9643 6.97288L31.8106 0.698259H30.0447L31.8812 9.80999H33.7059L35.0833 3.42942L36.4606 9.80999H38.2736L40.2278 0.698259H38.4266ZM83.4791 9.78645H81.3954L79.347 6.25477H78.3228V9.78645H76.5805V0.698259H79.5589C80.1357 0.698259 80.6537 0.792437 81.0893 0.980793C81.5249 1.16915 81.878 1.46346 82.1252 1.85194C82.3725 2.24043 82.502 2.73486 82.502 3.33525C82.502 3.77082 82.4195 4.18285 82.2547 4.57133C82.0899 4.95982 81.8427 5.28944 81.5013 5.54843C81.3483 5.66615 81.1717 5.76033 80.9716 5.84274L83.4791 9.78645ZM79.3588 4.83032C79.6884 4.83032 79.9474 4.77146 80.1475 4.66551C80.3476 4.55956 80.4889 4.39475 80.5831 4.19462C80.6773 3.99449 80.7126 3.75905 80.7126 3.47651C80.7126 3.14689 80.6537 2.8879 80.536 2.72309C80.4183 2.55828 80.2534 2.44055 80.0533 2.36992C79.8532 2.31106 79.6295 2.27574 79.3823 2.27574H78.3346V4.83032H79.3588Z" fill="#FF1435"/>
</svg>
