<svg width="400" height="225" viewBox="0 0 400 225" fill="none" xmlns="http://www.w3.org/2000/svg">
<g opacity="0.4">
<path d="M259.26 153.078C262.82 165.867 262.033 186.62 262.033 186.62H172.856C172.856 186.62 172.08 165.878 175.629 153.09C179.178 140.301 211.222 123.508 213.596 117.319C214.76 114.219 214.76 110.802 213.596 107.703C211.211 101.513 179.212 84.7208 175.629 71.9321C172.046 59.1435 172.845 38.4021 172.845 38.4021H262.033C262.033 38.4021 262.809 59.1435 259.249 71.9321C255.688 84.7208 223.667 101.513 221.282 107.703C220.118 110.802 220.118 114.219 221.282 117.319C223.678 123.497 255.722 140.29 259.26 153.078Z" fill="#EBEBEB"/>
<path d="M259.26 153.079C262.033 163.993 262.244 175.395 262.033 186.62C261.966 186.686 172.834 186.675 172.723 186.697C172.546 175.306 172.668 163.604 175.64 152.535C178.846 143.728 192.488 134.578 200.042 128.865C203.103 126.647 206.198 124.429 209.126 121.955C210.845 120.414 212.93 118.95 213.673 116.676C214.73 113.525 214.527 110.087 213.108 107.082C211.967 105.573 210.628 104.226 209.126 103.077C199.875 95.3133 179.655 83.4785 175.618 72.5089C174.599 68.8338 173.894 65.0787 173.511 61.2842C172.727 53.6948 172.453 46.0614 172.69 38.4354V38.269C172.956 38.3689 262.088 38.147 262.155 38.4354C262.344 49.283 262.155 60.2859 259.637 70.8895C257.552 81.2158 238.374 93.1282 230.011 99.6723C228.769 100.604 227.538 101.547 226.329 102.523C224.441 103.885 222.799 105.558 221.471 107.47C220.288 110.364 220.147 113.579 221.072 116.565C221.704 118.85 223.745 120.336 225.442 121.856C227.815 123.852 230.322 125.693 232.818 127.535C240.704 133.591 256.332 143.717 259.26 153.123V153.079ZM259.26 153.079C256.332 143.695 240.659 133.557 232.784 127.568C229.102 124.751 225.12 122.166 222.048 118.694C220.24 116.21 220.129 112.616 220.694 109.699C220.938 108.144 221.677 106.708 222.802 105.606C225.03 103.435 227.418 101.433 229.945 99.6169C234.914 95.8901 239.994 92.3075 244.841 88.4254C247.259 86.4844 249.644 84.4768 251.862 82.3139C254.602 79.6075 257.319 76.7015 258.816 73.1079C260.513 67.9503 261.035 62.471 261.523 57.0915C262.122 50.7693 261.911 44.2031 262.044 38.5796C262.133 38.5796 172.113 38.8458 173.023 38.4798C172.797 46.0881 173.082 53.703 173.877 61.2731C174.269 65.0261 174.974 68.7399 175.984 72.3758C176.631 74.1507 177.56 75.8098 178.735 77.2894C184.658 84.7541 192.666 90.2112 200.23 95.8901C203.292 98.1084 206.386 100.382 209.326 102.822C210.934 104.231 212.742 105.584 213.762 107.547C214.987 110.731 214.987 114.257 213.762 117.441C212.786 119.404 210.978 120.769 209.326 122.166C200.452 129.354 190.625 135.376 182.462 143.407C179.833 146.091 177.182 148.952 175.918 152.602C174.899 156.266 174.194 160.01 173.81 163.793C173.005 171.374 172.716 179 172.945 186.62C172.335 186.531 262.321 186.542 262.022 186.62C262.21 175.417 262.022 164.004 259.26 153.09V153.079Z" fill="#263238"/>
</g>
<g opacity="0.4">
<path d="M179.289 152.59C176.039 164.27 176.749 183.225 176.749 183.225H258.162C258.162 183.225 258.872 164.27 255.622 152.59C252.372 140.911 222.014 125.549 219.885 119.892C218.014 115.141 218.014 109.858 219.885 105.107C222.103 99.4393 252.427 84.0996 255.677 72.409C258.927 60.7184 258.217 41.7739 258.217 41.7739H176.749C176.749 41.7739 176.028 60.7184 179.278 72.409C182.528 84.0996 212.886 99.4393 215.071 105.107C215.984 107.467 216.487 109.965 216.557 112.494C216.498 115.027 215.999 117.531 215.082 119.892C212.897 125.549 182.528 140.9 179.289 152.59Z" fill="#EBEBEB"/>
<path d="M179.289 152.591C176.771 162.573 176.594 172.988 176.76 183.226C176.649 183.226 258.417 183.115 258.106 183.226C258.262 173.243 258.106 163.105 255.744 153.356C255.546 152.473 255.245 151.617 254.845 150.805C253.048 147.635 250.7 144.811 247.913 142.464C239.827 135.077 230.166 129.686 221.859 122.566C221.175 121.95 220.565 121.258 220.04 120.502C219.629 119.679 219.313 118.812 219.097 117.918C217.966 113.908 218.102 109.647 219.485 105.717C219.95 104.411 220.768 103.26 221.848 102.39C223.205 101.187 224.623 100.054 226.096 98.9958C234.226 92.6403 252.572 81.8925 255.511 72.3204C258.018 62.338 258.206 52.0006 258.051 41.8074C258.838 41.9626 176.239 41.9737 176.816 41.8074C176.453 50.8063 177.011 59.8188 178.479 68.7046C178.845 71.6899 179.963 74.5333 181.729 76.9678C185.39 81.7372 190.214 85.464 194.973 89.0799C200.929 93.6385 207.384 97.565 213.019 102.523C214.171 103.482 215.015 104.759 215.448 106.194C216.443 109.04 216.743 112.082 216.324 115.068C216.079 116.743 215.64 118.385 215.015 119.959C214.776 120.471 214.458 120.943 214.073 121.357C211.386 123.979 208.46 126.345 205.332 128.422C200.452 131.916 195.494 135.321 190.813 139.092C188.464 140.949 186.24 142.961 184.158 145.115C181.977 147.195 180.303 149.749 179.267 152.579L179.289 152.591ZM179.289 152.591C180.321 149.757 181.991 147.199 184.169 145.115C186.251 142.958 188.475 140.942 190.824 139.081C195.505 135.31 200.452 131.905 205.332 128.411C207.761 126.647 210.213 124.906 212.464 122.92C213.486 122.101 214.344 121.096 214.993 119.959C216.82 115.588 216.981 110.699 215.448 106.216C215.259 105.494 214.944 104.81 214.516 104.198C213.043 102.492 211.367 100.972 209.525 99.6724C201.117 93.0174 183.227 82.6911 179.467 73.0525C176.638 62.9147 176.572 52.2002 176.694 41.7408C176.694 41.5412 258.117 41.7408 258.295 41.6299V41.7408C258.461 51.9562 258.295 62.3601 255.788 72.3315C252.827 81.9923 234.415 92.7401 226.24 99.1067C224.787 100.216 223.345 101.325 222.014 102.556C220.959 103.408 220.158 104.532 219.696 105.806C218.333 109.685 218.186 113.887 219.274 117.852C219.493 118.726 219.806 119.573 220.206 120.38C220.726 121.12 221.324 121.801 221.992 122.41C230.277 129.531 239.938 134.922 248.013 142.375C250.817 144.732 253.176 147.572 254.978 150.76C255.383 151.582 255.685 152.45 255.877 153.345C258.217 163.128 258.395 173.31 258.217 183.292C258.217 183.292 176.738 183.237 176.727 183.237C176.572 172.999 176.727 162.573 179.289 152.602V152.591Z" fill="#263238"/>
</g>
<path d="M181.718 38.3914H192.543C192.543 38.3914 191.878 56.9809 192.543 65.6435C193.109 72.9529 199.775 87.1391 211.399 96.1233C211.399 96.1233 192.41 84.9651 186.587 75.4707C180.764 65.9763 181.718 38.3914 181.718 38.3914Z" fill="white"/>
<path d="M258.162 183.292H176.75C176.75 183.292 195.006 157.859 207.684 147.089C210.378 144.722 213.842 143.417 217.428 143.417C221.014 143.417 224.478 144.722 227.172 147.089C239.85 157.859 258.162 183.292 258.162 183.292Z" fill="#DCD9D9"/>
<path d="M228.37 97.177C228.37 97.177 220.706 102.723 219.707 104.364C218.709 106.006 217.899 111.552 217.899 111.552H217.001C217.001 111.552 216.202 106.061 215.193 104.364C214.184 102.667 206.542 97.177 206.542 97.177H228.37Z" fill="#DCD9D9"/>
<path d="M217.455 136.763C213.695 136.763 212.531 133.435 212.919 130.352C213.44 126.148 217.455 120.436 217.455 120.436C217.455 120.436 221.471 126.148 221.981 130.352C222.369 133.48 221.204 136.763 217.455 136.763Z" fill="#DCD9D9"/>
<path d="M185.223 147.999C185.223 147.999 187.441 143.418 197.546 136.086C203.724 131.594 212.043 126.27 213.363 123.431C213.363 123.431 210.612 131.006 200.374 137.75C194.252 141.787 187.552 144.915 185.223 147.999Z" fill="white"/>
<path d="M268.965 29.6731L165.946 29.6731V38.3911H268.965V29.6731Z" fill="#016CDE"/>
<path d="M268.965 186.609H165.946V195.327H268.965V186.609Z" fill="#016CDE"/>
<path d="M183.302 140.316C191.812 133.821 193.328 122.371 192.552 112.164C192.421 110.461 192.535 108.652 191.66 107.189C190.785 105.726 188.849 104.785 187.352 105.568C186.11 106.214 185.621 107.712 184.962 108.96C184.083 110.625 182.752 112.008 181.121 112.949C180.058 113.557 178.726 113.962 177.623 113.429C176.118 112.678 175.86 110.651 175.798 108.953L175.471 99.4402C175.41 97.7423 175.343 96.0122 174.745 94.4234C174.147 92.8346 172.921 91.3885 171.291 91.0021C169.661 90.6158 167.698 91.631 167.425 93.3052C167.392 94.0103 167.407 94.7169 167.469 95.4201C167.451 96.1271 167.151 96.9229 166.489 97.1623C165.827 97.4017 165.122 96.936 164.593 96.4572C162.769 94.8166 161.49 92.6626 160.267 90.51C159.044 88.3574 157.892 86.1548 156.222 84.3568C154.552 82.5588 152.302 81.1473 149.86 81.1283C147.418 81.1094 144.902 82.6969 144.394 85.0894C143.886 87.482 145.372 89.8764 146.979 91.7519C149.352 94.5391 152.117 96.9681 155.186 98.9632C155.778 99.2612 156.26 99.7388 156.564 100.327C156.982 101.445 155.955 102.614 154.853 103.032C153.607 103.503 152.229 103.432 150.914 103.643C149.599 103.855 148.19 104.497 147.74 105.746C147.118 107.514 148.644 109.269 150.122 110.399C153.081 112.665 156.408 114.405 159.956 115.543C161.224 115.948 162.557 116.291 163.595 117.141C164.633 117.992 165.308 119.476 164.75 120.693C164.192 121.911 162.647 122.364 161.328 122.178C160.01 121.991 158.814 121.328 157.544 120.912C155.179 120.127 152.171 120.417 150.765 122.495C149.846 123.864 149.805 125.699 150.389 127.268C151.024 128.8 151.96 130.189 153.14 131.354C157.022 135.638 161.971 138.815 167.482 140.561C172.97 142.204 178.005 142.506 183.297 140.315" fill="#EBEBEB"/>
<path d="M182.704 143.282C182.167 139.249 181.981 139.173 180.248 134.083C178.318 128.586 176.074 123.204 173.528 117.963L171.549 113.834C170.896 112.478 170.25 111.134 169.534 109.856C168.159 107.409 166.649 105.04 165.012 102.761C163.464 100.572 161.915 98.556 160.452 96.6776C158.989 94.7992 157.585 93.0809 156.242 91.5644C154.136 89.1621 151.841 86.9313 149.38 84.8932C148.511 84.1749 147.822 83.6378 147.348 83.2668L146.808 82.8607L146.617 82.7324C146.67 82.7889 146.728 82.8403 146.79 82.886L147.312 83.3172C147.771 83.6887 148.45 84.2431 149.308 84.9787C151.732 87.0477 153.997 89.2962 156.083 91.705C157.409 93.2267 158.796 94.9501 160.253 96.8318C161.71 98.7134 163.242 100.735 164.781 102.921C166.407 105.197 167.908 107.559 169.277 109.998C169.986 111.269 170.625 112.6 171.276 113.961L173.249 118.114C175.79 123.341 178.037 128.707 179.978 134.186C181.721 139.258 181.925 139.308 182.488 143.325" fill="#263238"/>
<path d="M169.606 110.561C169.676 110.322 169.722 110.076 169.743 109.828C169.818 109.342 169.888 108.666 169.975 107.816C170.141 106.12 170.297 103.765 170.441 101.162C170.584 98.5581 170.787 96.2166 170.983 94.5247C171.079 93.678 171.161 92.9953 171.227 92.5213C171.272 92.2776 171.294 92.03 171.29 91.782C171.201 92.0134 171.139 92.2545 171.106 92.5003C171.003 92.9786 170.888 93.6515 170.763 94.4945C170.511 96.185 170.289 98.541 170.132 101.14C169.974 103.739 169.844 106.026 169.741 107.797C169.685 108.595 169.634 109.292 169.611 109.794C169.582 110.049 169.58 110.306 169.606 110.561Z" fill="#263238"/>
<path d="M147.621 107.396C147.909 107.444 148.2 107.466 148.492 107.464C149.054 107.49 149.868 107.525 150.874 107.597C152.871 107.727 155.647 108.009 158.685 108.45C161.724 108.892 164.456 109.42 166.408 109.852C167.394 110.061 168.187 110.253 168.734 110.381C169.014 110.465 169.301 110.523 169.592 110.556C169.327 110.429 169.049 110.331 168.764 110.263C168.222 110.1 167.437 109.865 166.459 109.633C164.498 109.143 161.76 108.582 158.714 108.133C156.114 107.744 153.496 107.49 150.87 107.372C149.866 107.326 149.045 107.334 148.479 107.338C148.192 107.33 147.905 107.35 147.621 107.396Z" fill="#263238"/>
<path d="M180.125 134.404C180.183 134.319 180.229 134.227 180.263 134.13C180.358 133.914 180.469 133.647 180.605 133.326C180.897 132.625 181.294 131.604 181.767 130.331C182.713 127.784 183.915 124.231 185.18 120.294C186.446 116.357 187.616 112.789 188.509 110.232C188.949 108.984 189.311 107.963 189.579 107.203C189.68 106.867 189.762 106.592 189.862 106.377C189.907 106.285 189.937 106.185 189.95 106.083C189.892 106.168 189.846 106.26 189.812 106.357C189.745 106.581 189.612 106.837 189.474 107.162C189.184 107.859 188.785 108.884 188.312 110.158C187.363 112.698 186.166 116.253 184.893 120.198C183.62 124.142 182.459 127.698 181.571 130.257C181.132 131.499 180.769 132.525 180.501 133.285C180.4 133.621 180.317 133.897 180.218 134.111C180.176 134.205 180.145 134.303 180.125 134.404Z" fill="#263238"/>
<path d="M150.741 126.276C150.837 126.317 150.937 126.347 151.04 126.365L151.894 126.621L155.037 127.496C157.696 128.237 161.352 129.301 165.395 130.481C169.439 131.662 173.109 132.695 175.779 133.382C177.116 133.727 178.202 133.991 178.951 134.159L179.821 134.349C179.921 134.376 180.024 134.392 180.127 134.395C180.031 134.354 179.931 134.324 179.828 134.305L178.978 134.051L175.831 133.174C173.177 132.435 169.516 131.369 165.477 130.19C161.438 129.011 157.765 127.972 155.094 127.289C153.757 126.945 152.672 126.676 151.917 126.511L151.054 126.319C150.952 126.287 150.847 126.273 150.741 126.276Z" fill="#263238"/>
<path d="M82.2041 195.066L113.545 194.941L144.885 194.894L207.566 194.805L270.247 194.894L301.588 194.936L332.924 195.066L301.588 195.191L270.247 195.238L207.566 195.327L144.885 195.238L113.545 195.191L82.2041 195.066Z" fill="#263238"/>
</svg>
