<svg width="228" height="140" viewBox="0 0 228 140" fill="none" xmlns="http://www.w3.org/2000/svg">
<g id="Group 174">
<g id="freepik--background-complete--inject-103">
<g id="freepik--background-complete--inject-103_2">
<path id="Vector" d="M227.329 118.977H0.137695V119.09H227.329V118.977Z" fill="#EBEBEB"/>
<path id="Vector_2" d="M69.4314 121.719H64.6694V121.832H69.4314V121.719Z" fill="#EBEBEB"/>
<path id="Vector_3" d="M211.962 124.699H203.852V124.813H211.962V124.699Z" fill="#EBEBEB"/>
<path id="Vector_4" d="M173.662 121.773H146.785V121.887H173.662V121.773Z" fill="#EBEBEB"/>
<path id="Vector_5" d="M106.413 124.363H85.8525V124.477H106.413V124.363Z" fill="#EBEBEB"/>
<path id="Vector_6" d="M63.6062 123.645H56.4814V123.758H63.6062V123.645Z" fill="#EBEBEB"/>
<path id="Vector_7" d="M193.859 124.363H183.608V124.477H193.859V124.363Z" fill="#EBEBEB"/>
<path id="Vector_8" d="M53.832 123.59H29.6406V123.703H53.832V123.59Z" fill="#EBEBEB"/>
<path id="Vector_9" d="M195.173 79.8516H178.579V116.638H195.173V79.8516Z" fill="#E6E6E6"/>
<path id="Vector_10" d="M191.987 116.645H110.162V118.976H191.987V116.645Z" fill="#E6E6E6"/>
<path id="Vector_11" d="M178.578 79.8555H106.972V116.642H178.578V79.8555Z" fill="#F5F5F5"/>
<path id="Vector_12" d="M172.058 84.3828H113.498V96.4467H172.058V84.3828Z" fill="#E6E6E6"/>
<path id="Vector_13" d="M172.058 100.051H113.498V112.115H172.058V100.051Z" fill="#E6E6E6"/>
<path id="Vector_14" d="M150.234 89.5898H135.312C134.908 89.5898 134.581 89.9174 134.581 90.3214V90.5122C134.581 90.9163 134.908 91.2438 135.312 91.2438H150.234C150.638 91.2438 150.966 90.9163 150.966 90.5122V90.3214C150.966 89.9174 150.638 89.5898 150.234 89.5898Z" fill="#F5F5F5"/>
<path id="Vector_15" d="M150.234 105.254H135.312C134.908 105.254 134.581 105.581 134.581 105.985V106.176C134.581 106.58 134.908 106.908 135.312 106.908H150.234C150.638 106.908 150.966 106.58 150.966 106.176V105.985C150.966 105.581 150.638 105.254 150.234 105.254Z" fill="#F5F5F5"/>
<path id="Vector_16" d="M158.794 74.5772C160.822 74.5772 162.466 72.9335 162.466 70.9058C162.466 68.8781 160.822 67.2344 158.794 67.2344C156.767 67.2344 155.123 68.8781 155.123 70.9058C155.123 72.9335 156.767 74.5772 158.794 74.5772Z" fill="#F5F5F5"/>
<path id="Vector_17" d="M152.17 73.7452C154.19 73.7452 155.828 72.1076 155.828 70.0875C155.828 68.0673 154.19 66.4297 152.17 66.4297C150.15 66.4297 148.512 68.0673 148.512 70.0875C148.512 72.1076 150.15 73.7452 152.17 73.7452Z" fill="#F5F5F5"/>
<path id="Vector_18" d="M134.485 75.4367C136.506 75.4367 138.143 73.799 138.143 71.7789C138.143 69.7587 136.506 68.1211 134.485 68.1211C132.465 68.1211 130.828 69.7587 130.828 71.7789C130.828 73.799 132.465 75.4367 134.485 75.4367Z" fill="#F5F5F5"/>
<path id="Vector_19" d="M143.914 77.1241C145.934 77.1241 147.571 75.4865 147.571 73.4664C147.571 71.4462 145.934 69.8086 143.914 69.8086C141.894 69.8086 140.256 71.4462 140.256 73.4664C140.256 75.4865 141.894 77.1241 143.914 77.1241Z" fill="#F5F5F5"/>
<path id="Vector_20" d="M168.546 71.4414C168.546 71.4414 167.955 79.8566 145.254 79.8566C122.553 79.8566 121.962 71.4414 121.962 71.4414H168.546Z" fill="#E6E6E6"/>
<path id="Vector_21" d="M91.2414 80.7734H82.958V116.697H91.2414V80.7734Z" fill="#E6E6E6"/>
<path id="Vector_22" d="M89.6467 116.699H35.9204V118.976H89.6467V116.699Z" fill="#E6E6E6"/>
<path id="Vector_23" d="M82.9536 80.7734H34.3301V116.697H82.9536V80.7734Z" fill="#F5F5F5"/>
<path id="Vector_24" d="M79.7001 85.1953H37.5879V96.9775H79.7001V85.1953Z" fill="#E6E6E6"/>
<path id="Vector_25" d="M79.7001 100.496H37.5879V112.278H79.7001V100.496Z" fill="#E6E6E6"/>
<path id="Vector_26" d="M52.2644 86.6359H65.0189C65.4344 86.6335 65.8322 86.4677 66.1264 86.1744C66.4206 85.881 66.5875 85.4837 66.5911 85.0683C66.5899 84.6517 66.4239 84.2525 66.1293 83.9579C65.8347 83.6633 65.4355 83.4973 65.0189 83.4961H52.2644C51.849 83.4997 51.4516 83.6666 51.1583 83.9608C50.8649 84.255 50.6991 84.6528 50.6968 85.0683C50.6992 85.4833 50.8651 85.8806 51.1586 86.1741C51.452 86.4676 51.8494 86.6335 52.2644 86.6359Z" fill="#F5F5F5"/>
<path id="Vector_27" d="M52.2644 101.937H65.0189C65.4355 101.935 65.8347 101.769 66.1293 101.475C66.4239 101.18 66.5899 100.781 66.5911 100.365C66.5875 99.9491 66.4206 99.5517 66.1264 99.2584C65.8322 98.965 65.4344 98.7992 65.0189 98.7969H52.2644C51.8494 98.7993 51.452 98.9652 51.1586 99.2587C50.8651 99.5521 50.6992 99.9495 50.6968 100.365C50.6991 100.78 50.8649 101.178 51.1583 101.472C51.4516 101.766 51.849 101.933 52.2644 101.937Z" fill="#F5F5F5"/>
</g>
</g>
<g id="freepik--Shadow--inject-103">
<g id="freepik--shadow--inject-103">
<path id="Vector_28" d="M113.734 139.494C162.39 139.494 201.834 137.191 201.834 134.351C201.834 131.51 162.39 129.207 113.734 129.207C65.0772 129.207 25.6333 131.51 25.6333 134.351C25.6333 137.191 65.0772 139.494 113.734 139.494Z" fill="#F5F5F5"/>
</g>
</g>
<g id="freepik--Images--inject-103">
<g id="freepik--photo-3--inject-103">
<path id="Vector_29" d="M148.076 2.64062H49.9697V98.7018H148.076V2.64062Z" fill="#407BFF"/>
<path id="Vector_30" opacity="0.7" d="M148.076 2.64062H49.9697V98.7018H148.076V2.64062Z" fill="#455A64"/>
<path id="Vector_31" d="M145.558 5.71484H52.4961V98.7043H145.558V5.71484Z" fill="white"/>
<path id="Vector_32" d="M148.076 97.3467V98.7008H98.6343L109.321 88.0228L124.034 73.3008L148.076 97.3467Z" fill="#407BFF"/>
<path id="Vector_33" opacity="0.7" d="M148.076 97.3467V98.7008H98.6343L109.321 88.0228L124.034 73.3008L148.076 97.3467Z" fill="#455A64"/>
<path id="Vector_34" d="M49.9697 98.7016V89.4685L80.368 59.0703L119.999 98.7016H49.9697Z" fill="#407BFF"/>
<path id="Vector_35" opacity="0.7" d="M49.9697 98.7016V89.4685L80.368 59.0703L119.999 98.7016H49.9697Z" fill="#455A64"/>
<path id="Vector_36" d="M130.031 35.8844C131.36 27.6952 125.799 19.979 117.61 18.6497C109.421 17.3204 101.704 22.8814 100.375 31.0706C99.0459 39.2598 104.607 46.976 112.796 48.3053C120.985 49.6346 128.702 44.0736 130.031 35.8844Z" fill="#407BFF"/>
<path id="Vector_37" opacity="0.7" d="M130.031 35.8844C131.36 27.6952 125.799 19.979 117.61 18.6497C109.421 17.3204 101.704 22.8814 100.375 31.0706C99.0459 39.2598 104.607 46.976 112.796 48.3053C120.985 49.6346 128.702 44.0736 130.031 35.8844Z" fill="#455A64"/>
</g>
<g id="freepik--photo-2--inject-103">
<path id="Vector_38" d="M79.0642 0.749527L69.7236 96.3555L167.365 105.895L176.705 10.2889L79.0642 0.749527Z" fill="#407BFF"/>
<path id="Vector_39" opacity="0.1" d="M79.0647 0.718284L69.7241 96.3242L167.365 105.864L176.706 10.2577L79.0647 0.718284Z" fill="black"/>
<path id="Vector_40" d="M81.2811 4.05269L72.2393 96.6016L164.86 105.651L173.902 13.1016L81.2811 4.05269Z" fill="white"/>
<path id="Vector_41" opacity="0.1" d="M167.492 104.541L167.36 105.891L118.155 101.083L129.828 91.496L145.904 78.2734L167.492 104.541Z" fill="black"/>
<path id="Vector_42" d="M167.492 104.541L167.36 105.891L118.155 101.083L129.828 91.496L145.904 78.2734L167.492 104.541Z" fill="#407BFF"/>
<path id="Vector_43" opacity="0.1" d="M167.492 104.541L167.36 105.891L118.155 101.083L129.828 91.496L145.904 78.2734L167.492 104.541Z" fill="black"/>
<path id="Vector_44" opacity="0.1" d="M140.988 52.7977C149.284 52.7977 156.01 46.0722 156.01 37.7758C156.01 29.4794 149.284 22.7539 140.988 22.7539C132.691 22.7539 125.966 29.4794 125.966 37.7758C125.966 46.0722 132.691 52.7977 140.988 52.7977Z" fill="black"/>
<path id="Vector_45" d="M140.988 52.7977C149.284 52.7977 156.01 46.0722 156.01 37.7758C156.01 29.4794 149.284 22.7539 140.988 22.7539C132.691 22.7539 125.966 29.4794 125.966 37.7758C125.966 46.0722 132.691 52.7977 140.988 52.7977Z" fill="#407BFF"/>
<path id="Vector_46" opacity="0.1" d="M140.988 52.7977C149.284 52.7977 156.01 46.0722 156.01 37.7758C156.01 29.4794 149.284 22.7539 140.988 22.7539C132.691 22.7539 125.966 29.4794 125.966 37.7758C125.966 46.0722 132.691 52.7977 140.988 52.7977Z" fill="black"/>
</g>
<g id="freepik--photo-1--inject-103">
<path id="Vector_47" d="M133.163 13.4366L35.2656 19.8359L41.5316 115.692L139.429 109.293L133.163 13.4366Z" fill="#407BFF"/>
<path id="Vector_48" d="M130.846 16.6679L37.9819 22.7383L44.0475 115.53L136.912 109.459L130.846 16.6679Z" fill="white"/>
<path id="Vector_49" opacity="0.5" d="M133.163 13.4366L35.2656 19.8359L41.5316 115.692L139.429 109.293L133.163 13.4366Z" fill="white"/>
<path id="Vector_50" d="M139.329 107.952L139.415 109.301L90.083 112.523L100.048 101.172L113.77 85.5234L139.329 107.952Z" fill="#407BFF"/>
<path id="Vector_51" opacity="0.5" d="M139.329 107.952L139.415 109.301L90.083 112.523L100.048 101.172L113.77 85.5234L139.329 107.952Z" fill="white"/>
<path id="Vector_52" d="M41.5182 115.694L40.9185 106.484L69.272 74.168L111.398 111.132L41.5182 115.694Z" fill="#407BFF"/>
<path id="Vector_53" opacity="0.5" d="M41.5182 115.694L40.9185 106.484L69.272 74.168L111.398 111.132L41.5182 115.694Z" fill="white"/>
<path id="Vector_54" d="M102.365 61.3797C110.661 61.3797 117.387 54.6542 117.387 46.3578C117.387 38.0615 110.661 31.3359 102.365 31.3359C94.0683 31.3359 87.3428 38.0615 87.3428 46.3578C87.3428 54.6542 94.0683 61.3797 102.365 61.3797Z" fill="#407BFF"/>
<path id="Vector_55" opacity="0.5" d="M102.365 61.3797C110.661 61.3797 117.387 54.6542 117.387 46.3578C117.387 38.0615 110.661 31.3359 102.365 31.3359C94.0683 31.3359 87.3428 38.0615 87.3428 46.3578C87.3428 54.6542 94.0683 61.3797 102.365 61.3797Z" fill="white"/>
</g>
</g>
</g>
</svg>
