<svg width="304" height="172" viewBox="0 0 304 172" fill="none" xmlns="http://www.w3.org/2000/svg">
<path d="M139.522 60.8858C139.237 59.7478 138.564 58.7445 137.62 58.0479C136.676 57.3514 135.519 57.0049 134.347 57.0678L99.4489 61.0797C98.0861 61.3538 96.8864 62.1543 96.1102 63.3074C95.3339 64.4606 95.0439 65.8734 95.3028 67.2391L105.743 157.856C105.797 159.244 106.398 160.555 107.415 161.502C108.432 162.449 109.782 162.956 111.171 162.911L221.862 150.205C223.225 149.931 224.424 149.13 225.2 147.977C225.977 146.824 226.267 145.411 226.008 144.045L217.268 67.9848C217.206 66.5989 216.603 65.2927 215.587 64.3472C214.572 63.4017 213.226 62.8924 211.84 62.929L151.588 69.849C146.383 70.3859 141.327 66.7022 139.522 60.8858Z" fill="#263238"/>
<path d="M156.241 27.852C163.954 61.6033 168.882 95.931 170.976 130.489C143.455 133.75 115.939 136.32 88.4276 138.2C86.3607 100.47 80.3932 63.0552 70.6204 26.5545C90.0581 21.3247 109.421 15.7221 128.71 9.74658C138.016 15.4934 147.193 21.5285 156.241 27.852Z" fill="#F5F5F5"/>
<path d="M151.603 45.1369C130.097 50.5357 108.527 55.507 86.8915 60.0507C86.6672 60.0939 86.4365 60.0922 86.2129 60.0457C85.9892 59.9992 85.7769 59.9089 85.5884 59.7799C85.3998 59.6509 85.2386 59.4859 85.1142 59.2944C84.9897 59.1028 84.9044 58.8885 84.8632 58.6638C84.7692 58.2114 84.8552 57.7403 85.1031 57.3504C85.351 56.9605 85.7411 56.6826 86.1906 56.5758C107.806 51.9525 129.346 46.8768 150.812 41.3488C151.047 41.3018 151.289 41.3038 151.523 41.3544C151.758 41.4051 151.979 41.5035 152.173 41.6434C152.368 41.7833 152.531 41.9618 152.654 42.1677C152.776 42.3736 152.855 42.6025 152.885 42.8402C152.992 43.3138 152.921 43.8103 152.684 44.2342C152.447 44.6582 152.062 44.9796 151.603 45.1369Z" fill="#E0E0E0"/>
<path d="M153.929 57.2616C132.314 62.2329 110.654 66.7667 88.9492 70.863C88.7238 70.9037 88.4926 70.8992 88.269 70.8498C88.0454 70.8004 87.8337 70.7071 87.6465 70.5753C87.4592 70.4435 87.2999 70.2759 87.1779 70.082C87.0559 69.8882 86.9736 69.6721 86.9358 69.4462C86.8474 68.9898 86.9417 68.517 87.1982 68.1293C87.4548 67.7417 87.8533 67.4702 88.3079 67.3732C109.993 63.1476 131.628 58.4796 153.213 53.3691C153.446 53.3267 153.685 53.332 153.915 53.3848C154.146 53.4377 154.363 53.5368 154.555 53.6763C154.746 53.8158 154.906 53.9927 155.027 54.1963C155.148 54.3999 155.226 54.6259 155.256 54.8605C155.383 55.3545 155.316 55.8784 155.07 56.3248C154.823 56.7712 154.415 57.1064 153.929 57.2616Z" fill="#E0E0E0"/>
<path d="M156.017 69.4916C134.312 74.0652 112.568 78.1914 90.7837 81.8702C90.5551 81.9059 90.3217 81.8954 90.0972 81.8393C89.8727 81.7833 89.6617 81.6827 89.4768 81.5437C89.2918 81.4046 89.1367 81.2299 89.0205 81.0298C88.9043 80.8297 88.8294 80.6083 88.8002 80.3788C88.7599 80.1454 88.7667 79.9062 88.8203 79.6755C88.8738 79.4448 88.973 79.2271 89.1119 79.0353C89.2509 78.8434 89.4269 78.6814 89.6295 78.5587C89.8321 78.4359 90.0572 78.355 90.2916 78.3206C112.046 74.5226 133.765 70.2672 155.45 65.5544C155.688 65.5189 155.931 65.5326 156.164 65.5948C156.397 65.657 156.614 65.7662 156.803 65.9158C156.992 66.0654 157.148 66.2521 157.261 66.4645C157.375 66.6768 157.444 66.9102 157.464 67.1502C157.572 67.6518 157.482 68.176 157.212 68.6126C156.943 69.0493 156.514 69.3644 156.017 69.4916Z" fill="#E0E0E0"/>
<path d="M157.867 81.7207C136.083 85.8866 114.259 89.6002 92.395 92.8613C92.1686 92.8928 91.9383 92.8791 91.7172 92.821C91.4962 92.7629 91.2889 92.6616 91.1072 92.5229C90.9256 92.3843 90.7732 92.211 90.6589 92.0131C90.5445 91.8152 90.4706 91.5966 90.4413 91.37C90.3726 90.9036 90.4908 90.429 90.77 90.0493C91.0492 89.6695 91.467 89.4152 91.9326 89.3417C113.806 85.9413 135.605 82.0936 157.33 77.7984C157.569 77.7673 157.813 77.7857 158.045 77.8526C158.277 77.9196 158.492 78.0335 158.678 78.1874C158.864 78.3413 159.017 78.5318 159.126 78.7471C159.235 78.9624 159.299 79.1979 159.313 79.4389C159.409 79.932 159.312 80.4429 159.043 80.8671C158.774 81.2913 158.353 81.5967 157.867 81.7207Z" fill="#E0E0E0"/>
<path d="M133.378 98.3195C120.194 100.358 107 102.242 93.7965 103.972C93.5671 103.997 93.3351 103.976 93.1139 103.91C92.8927 103.845 92.6867 103.736 92.5078 103.59C92.3289 103.445 92.1806 103.265 92.0715 103.062C91.9625 102.858 91.8949 102.635 91.8726 102.406C91.8162 101.945 91.9398 101.48 92.2176 101.108C92.4953 100.735 92.9059 100.485 93.3639 100.407C106.548 98.6078 119.727 96.6442 132.901 94.5164C133.136 94.4918 133.374 94.5146 133.601 94.5835C133.828 94.6523 134.038 94.7658 134.22 94.9173C134.402 95.0688 134.552 95.2552 134.661 95.4656C134.77 95.6759 134.836 95.9059 134.854 96.1421C134.931 96.6246 134.821 97.1182 134.546 97.5226C134.272 97.9269 133.854 98.2119 133.378 98.3195Z" fill="#E0E0E0"/>
<path d="M156.241 27.8522C149.072 29.8407 141.884 31.8292 134.675 33.8177C132.856 25.7543 130.867 17.7456 128.71 9.7915C138.016 15.5085 147.193 21.5287 156.241 27.8522Z" fill="#E0E0E0"/>
<path d="M158.344 76.9485C158.291 76.4319 158.134 75.9313 157.882 75.477C157.631 75.0227 157.29 74.624 156.88 74.3049C156.471 73.9858 156.001 73.7529 155.499 73.6203C154.996 73.4876 154.473 73.458 153.959 73.5332L119.061 77.5301C117.694 77.7645 116.445 78.4475 115.511 79.4712C114.576 80.4948 114.01 81.8007 113.9 83.1824L108.516 158.169C108.429 158.777 108.485 159.397 108.679 159.98C108.873 160.562 109.2 161.092 109.634 161.526C110.068 161.96 110.598 162.287 111.18 162.481C111.763 162.675 112.383 162.731 112.991 162.643L223.696 150.026C225.062 149.797 226.312 149.118 227.247 148.096C228.182 147.075 228.749 145.77 228.856 144.389L233.33 82.571C233.428 81.9581 233.38 81.331 233.19 80.74C233.001 80.149 232.676 79.6107 232.24 79.1683C231.805 78.7259 231.272 78.3918 230.685 78.1927C230.097 77.9937 229.471 77.9353 228.856 78.0223L168.604 84.9423C167.401 85.1264 166.172 85.0629 164.994 84.7557C163.816 84.4486 162.712 83.9041 161.752 83.1558C160.791 82.4075 159.994 81.471 159.408 80.4036C158.822 79.3363 158.459 78.1606 158.344 76.9485Z" fill="#407BFF"/>
<path opacity="0.7" fill-rule="evenodd" clip-rule="evenodd" d="M178.797 103.461L179.524 99.5198L178.027 99.2446L177.168 103.846L178.945 106.163C177.61 106.402 176.305 106.788 175.054 107.314L175.042 107.319L171.405 102.577L170.191 103.508L173.609 107.965C172.329 108.587 171.098 109.304 169.924 110.11L169.901 110.125L168.152 107.853L162.119 108.624L162.306 110.143L167.48 109.482L168.651 111.015C168.077 111.417 167.524 111.85 166.996 112.312L180.669 130.145C180.669 130.145 181.342 129.7 182.365 128.896L183.553 130.443L181.572 135.264L182.992 135.848L185.303 130.211L183.53 127.898L183.553 127.878C184.64 126.958 185.653 125.953 186.58 124.872L186.584 124.868L190.007 129.33L191.221 128.399L187.585 123.658C188.416 122.58 189.121 121.41 189.686 120.171L191.501 122.538L196.179 122.913L196.301 121.382L192.304 121.063L190.33 118.491L190.334 118.476C190.742 117.008 190.802 115.465 190.512 113.969C190.221 112.473 189.587 111.065 188.66 109.856C187.732 108.646 186.537 107.669 185.167 107.001C183.798 106.332 182.292 105.991 180.768 106.004L180.751 106.004L178.797 103.461ZM186.69 112.257L185.898 111.211L174.988 119.577L175.781 120.623L186.69 112.257ZM179.37 131.246L165.609 113.335C163.326 115.08 162.354 118.355 163.062 121.87L158.41 121.261L153.566 124.971L154.491 126.193L158.839 122.858L163.498 123.47C163.966 124.832 164.689 126.201 165.686 127.503C166.682 128.804 167.814 129.855 169.007 130.66L168.394 135.319L164.046 138.655L164.981 139.866L169.836 136.145L170.444 131.498C173.66 133.092 177.086 132.998 179.37 131.246Z" fill="white"/>
</svg>
