<svg width="400" height="226" viewBox="0 0 400 226" fill="none" xmlns="http://www.w3.org/2000/svg">
<path d="M98.6175 74.1864L62.0815 162.236L192.713 216.441L229.249 128.392L98.6175 74.1864Z" fill="#EBEBEB"/>
<path d="M229.241 128.371C228.696 128.648 228.127 128.873 227.541 129.044L222.583 130.715L204.255 136.663L143.505 155.886L143 156.039L142.749 155.58L142.128 154.466L111.127 97.817L101.855 80.579L99.3963 75.8612C99.0893 75.3229 98.8318 74.7578 98.627 74.1729C99.0087 74.6599 99.3417 75.1833 99.6211 75.7355L102.296 80.3355L111.916 97.4117L143.258 153.881C143.461 154.267 143.674 154.644 143.87 154.995L143.115 154.689L203.982 135.838L222.437 130.245L227.468 128.805C228.043 128.602 228.637 128.457 229.241 128.371Z" fill="#E0E0E0"/>
<path d="M62.079 162.264C61.915 161.95 76.7476 153.961 95.2016 144.414C113.656 134.866 128.753 127.388 128.917 127.702C129.081 128.016 114.249 136.005 95.7862 145.552C77.3235 155.099 62.2455 162.535 62.079 162.264Z" fill="#E0E0E0"/>
<path d="M172.798 144.571C173.134 144.478 177.87 160.518 183.374 180.323C188.878 200.129 193.057 216.327 192.713 216.419C192.368 216.512 187.641 200.473 182.137 180.667C176.633 160.862 172.454 144.664 172.798 144.571Z" fill="#E0E0E0"/>
<path d="M168.18 74.0019L335.984 72.7854L340.658 186.869L166.9 185.262L168.18 74.0019Z" fill="#016CDE"/>
<path d="M168.173 74.0018L247.597 9.73884C249.229 8.42005 251.265 7.7042 253.363 7.71198C255.461 7.71975 257.493 8.45067 259.115 9.78153L335.984 72.7852" fill="#01366F"/>
<path d="M166.9 185.262C166.694 185.062 180.125 170.393 196.908 152.501C213.69 134.608 227.456 120.259 227.67 120.451C227.883 120.643 214.445 135.313 197.662 153.212C180.88 171.111 167.113 185.454 166.9 185.262Z" fill="#263238"/>
<path d="M340.658 186.869C340.445 187.061 327.362 172.69 311.44 154.777C295.518 136.863 282.784 122.179 282.983 121.987C283.182 121.795 296.28 136.166 312.201 154.087C328.123 172.007 340.886 186.677 340.658 186.869Z" fill="#263238"/>
<g opacity="0.5">
<path d="M335.984 72.7854L251.716 140.1L168.181 74.0019" fill="black"/>
</g>
<path d="M311.824 119.156C321.628 119.156 329.575 111.209 329.575 101.406C329.575 91.6027 321.628 83.6558 311.824 83.6558C302.021 83.6558 294.074 91.6027 294.074 101.406C294.074 111.209 302.021 119.156 311.824 119.156Z" fill="#263238"/>
<path d="M307.207 119.156C317.01 119.156 324.957 111.209 324.957 101.406C324.957 91.6027 317.01 83.6558 307.207 83.6558C297.404 83.6558 289.457 91.6027 289.457 101.406C289.457 111.209 297.404 119.156 307.207 119.156Z" fill="white"/>
<path d="M307.186 108.9C305.773 108.9 304.646 108.501 303.806 107.704C302.981 106.892 302.568 105.807 302.568 104.45V98.2355C302.568 96.8779 302.981 95.8003 303.806 95.0025C304.646 94.2048 305.773 93.8059 307.186 93.8059C308.6 93.8059 309.727 94.2048 310.566 95.0025C311.42 95.8003 311.847 96.8779 311.847 98.2355V104.45C311.847 105.807 311.42 106.892 310.566 107.704C309.727 108.501 308.6 108.9 307.186 108.9ZM307.186 107.158C307.998 107.158 308.642 106.927 309.118 106.465C309.594 105.989 309.832 105.359 309.832 104.576V98.1515C309.832 97.3678 309.594 96.745 309.118 96.2831C308.642 95.8073 307.998 95.5694 307.186 95.5694C306.403 95.5694 305.773 95.8073 305.297 96.2831C304.821 96.745 304.583 97.3678 304.583 98.1515V104.576C304.583 105.359 304.821 105.989 305.297 106.465C305.773 106.927 306.403 107.158 307.186 107.158Z" fill="#016CDE"/>
</svg>
