<svg width="401" height="225" viewBox="0 0 401 225" fill="none" xmlns="http://www.w3.org/2000/svg">
<path d="M148.64 197.151H266.485C266.992 197.159 267.495 197.058 267.96 196.857C268.426 196.656 268.843 196.358 269.184 195.983C269.526 195.608 269.784 195.165 269.941 194.683C270.099 194.201 270.152 193.691 270.097 193.187L255.304 24.1839C255.196 23.1112 254.699 22.1152 253.906 21.3846C253.113 20.6539 252.08 20.2392 251.002 20.2191H133.133C132.626 20.2117 132.123 20.312 131.658 20.5134C131.193 20.7149 130.775 21.0129 130.434 21.3878C130.092 21.7626 129.834 22.2057 129.677 22.6877C129.519 23.1698 129.466 23.6797 129.521 24.1839L144.314 193.187C144.423 194.263 144.923 195.263 145.721 195.994C146.519 196.725 147.558 197.137 148.64 197.151Z" fill="#263238"/>
<path d="M150.314 197.151H268.183C268.691 197.16 269.194 197.061 269.66 196.859C270.126 196.658 270.544 196.36 270.886 195.985C271.227 195.61 271.485 195.167 271.642 194.684C271.799 194.201 271.851 193.691 271.796 193.186L257.01 24.1838C256.9 23.1104 256.402 22.1143 255.608 21.3838C254.814 20.6533 253.779 20.2389 252.701 20.219H134.839C134.332 20.2103 133.828 20.3097 133.363 20.5107C132.897 20.7118 132.479 21.0098 132.137 21.3849C131.795 21.76 131.537 22.2037 131.38 22.6863C131.223 23.1689 131.171 23.6794 131.227 24.1838L146.013 193.186C146.12 194.259 146.618 195.255 147.41 195.986C148.203 196.716 149.236 197.131 150.314 197.151Z" fill="#263238"/>
<path opacity="0.5" d="M150.314 197.151H268.183C268.691 197.16 269.194 197.061 269.66 196.859C270.126 196.658 270.544 196.36 270.886 195.985C271.227 195.61 271.485 195.167 271.642 194.684C271.799 194.201 271.851 193.691 271.796 193.186L257.01 24.1838C256.9 23.1104 256.402 22.1143 255.608 21.3838C254.814 20.6533 253.779 20.2389 252.701 20.219H134.839C134.332 20.2103 133.828 20.3097 133.363 20.5107C132.897 20.7118 132.479 21.0098 132.137 21.3849C131.795 21.76 131.537 22.2037 131.38 22.6863C131.223 23.1689 131.171 23.6794 131.227 24.1838L146.013 193.186C146.12 194.259 146.618 195.255 147.41 195.986C148.203 196.716 149.236 197.131 150.314 197.151Z" fill="white"/>
<path opacity="0.2" d="M246.045 29.9827L260.182 191.016H153.942L139.805 29.9827H246.045Z" fill="black"/>
<path d="M246.693 29.9907L250.77 81.917C251.838 95.3785 253.44 108.781 255.576 122.125L265.989 187.371H159.725L149.313 121.965C147.177 108.642 145.588 95.2556 144.547 81.8048L140.478 29.9907H246.693Z" fill="white"/>
<path d="M176.185 50.6316H216.016C216.321 50.6389 216.623 50.5792 216.902 50.4566C217.181 50.334 217.429 50.1516 217.629 49.9223C217.829 49.6929 217.977 49.4223 218.061 49.1296C218.145 48.8369 218.163 48.5293 218.115 48.2287L217.803 45.6416C217.713 44.9877 217.394 44.3869 216.903 43.9467C216.411 43.5064 215.779 43.2555 215.119 43.2387H175.28C174.975 43.2311 174.673 43.2907 174.395 43.4134C174.116 43.536 173.869 43.7186 173.669 43.9482C173.469 44.1777 173.323 44.4485 173.24 44.7412C173.157 45.034 173.139 45.3414 173.189 45.6416L173.501 48.2287C173.591 48.8825 173.91 49.4833 174.401 49.9236C174.893 50.3638 175.525 50.6148 176.185 50.6316Z" fill="#407BFF"/>
<path d="M231.583 69H160.218C158.152 69 157.822 68 159.929 68H231.294C233.359 68 233.711 69 231.583 69Z" fill="#263238"/>
<path d="M161.12 79H233.431C235.524 79 235.88 80 233.724 80H161.329C159.236 80 158.88 79 161.036 79H161.12Z" fill="#263238"/>
<path d="M163.177 90H234.542C236.608 90 236.938 91 234.831 91H163.466C161.401 91 161.049 90 163.177 90Z" fill="#263238"/>
<path d="M164.278 101H236.677C238.773 101 239.108 102 236.97 102H164.572C162.476 102 162.119 101 164.278 101Z" fill="#263238"/>
<path d="M166.417 112H237.782C239.848 112 240.178 113 238.071 113H166.706C164.641 113 164.289 112 166.417 112Z" fill="#263238"/>
<path d="M166.417 127H237.782C239.848 127 240.178 128 238.071 128H166.706C164.641 128 164.289 127 166.417 127Z" fill="#263238"/>
<path d="M165.194 169H199.67C200.668 169 200.828 170 199.81 170H165.334C164.336 170 164.166 169 165.194 169Z" fill="#263238"/>
<path d="M176.898 17.3196H187.31L185.708 13.4029C185.188 12.1694 186.285 11 187.919 11H198.059C199.661 11 200.999 12.1934 200.694 13.4029L199.733 17.3196H210.146C211.695 17.345 213.181 17.938 214.322 18.9862C215.464 20.0343 216.18 21.4648 216.337 23.0064L217.138 32.1454C217.184 32.5633 217.14 32.9861 217.009 33.3858C216.879 33.7854 216.665 34.1528 216.381 34.4634C216.098 34.774 215.752 35.0207 215.366 35.1873C214.98 35.3538 214.563 35.4363 214.142 35.4293H176.073C175.18 35.4123 174.324 35.0688 173.668 34.4637C173.011 33.8586 172.598 33.0338 172.509 32.1454L171.708 23.0064C171.628 22.2822 171.703 21.5494 171.929 20.8567C172.155 20.164 172.525 19.5273 173.017 18.9892C173.508 18.4511 174.108 18.0238 174.777 17.7359C175.446 17.448 176.169 17.3061 176.898 17.3196Z" fill="#407BFF"/>
<path opacity="0.2" d="M199.733 17.3195H187.294L186.325 15.0127H200.302L199.733 17.3195Z" fill="black"/>
<path d="M208.111 29.9508C208.16 30.4298 208.382 30.8743 208.736 31.2004C209.091 31.5265 209.552 31.7117 210.033 31.7209C210.259 31.7222 210.482 31.6759 210.688 31.5851C210.894 31.4943 211.079 31.361 211.23 31.1939C211.381 31.0269 211.495 30.8298 211.565 30.6156C211.635 30.4014 211.659 30.1749 211.635 29.9508C211.586 29.4719 211.364 29.0274 211.01 28.7012C210.655 28.3751 210.194 28.1899 209.713 28.1807C209.488 28.1794 209.265 28.2257 209.058 28.3165C208.852 28.4074 208.667 28.5406 208.516 28.7077C208.365 28.8747 208.251 29.0718 208.181 29.286C208.111 29.5002 208.087 29.7267 208.111 29.9508Z" fill="#263238"/>
<path d="M177.587 29.9506C177.637 30.4303 177.861 30.8749 178.217 31.2008C178.572 31.5268 179.035 31.7117 179.517 31.7208C179.742 31.722 179.965 31.6757 180.171 31.5849C180.378 31.4941 180.562 31.3608 180.713 31.1937C180.865 31.0267 180.979 30.8296 181.049 30.6154C181.119 30.4012 181.142 30.1747 181.119 29.9506C181.072 29.471 180.85 29.0255 180.495 28.6991C180.141 28.3726 179.678 28.188 179.196 28.1805C178.97 28.1781 178.747 28.2236 178.539 28.3139C178.332 28.4042 178.147 28.5373 177.994 28.7045C177.842 28.8717 177.727 29.0691 177.657 29.2839C177.587 29.4987 177.563 29.7259 177.587 29.9506Z" fill="#263238"/>
<path d="M240.122 209.381L244.729 203.058L252.44 204.353L241.356 177.204L229.038 182.238L240.122 209.381Z" fill="#455A64"/>
<path d="M234.539 195.698L229.038 182.238L241.356 177.204L234.539 195.698Z" fill="#37474F"/>
<path d="M239.765 177.861L250.441 204.015L250.722 204.063L239.987 177.769L239.765 177.861Z" fill="white"/>
<path d="M230.408 181.678L241.143 207.972L241.317 207.744L230.635 181.585L230.408 181.678Z" fill="white"/>
<path d="M216.54 210.847L223.879 208.143L229.579 213.501L236.189 181.024L223.156 178.369L216.54 210.847Z" fill="#455A64"/>
<path d="M234.501 180.688L228.101 212.113L228.307 212.305L234.737 180.734L234.501 180.688Z" fill="white"/>
<path d="M224.604 178.671L218.174 210.242L218.44 210.147L224.846 178.717L224.604 178.671Z" fill="white"/>
<path d="M231.696 146.78C231.788 146.972 231.93 147.135 232.108 147.252C232.285 147.369 232.492 147.436 232.704 147.444C232.917 147.453 233.128 147.404 233.314 147.301C233.501 147.199 233.656 147.048 233.763 146.864C233.881 146.662 234.056 146.5 234.267 146.399C234.477 146.298 234.714 146.262 234.945 146.296C235.176 146.331 235.391 146.433 235.564 146.591C235.736 146.749 235.857 146.955 235.911 147.182C235.961 147.389 236.067 147.578 236.216 147.73C236.366 147.881 236.554 147.989 236.76 148.042C236.966 148.094 237.183 148.089 237.387 148.028C237.591 147.966 237.774 147.85 237.917 147.693C238.073 147.519 238.278 147.397 238.505 147.341C238.732 147.285 238.971 147.299 239.19 147.38C239.409 147.461 239.599 147.606 239.735 147.796C239.871 147.986 239.948 148.212 239.954 148.446C239.959 148.658 240.022 148.866 240.137 149.045C240.251 149.225 240.413 149.37 240.603 149.465C240.794 149.559 241.007 149.6 241.219 149.583C241.431 149.565 241.635 149.49 241.807 149.366C241.997 149.229 242.223 149.152 242.456 149.145C242.69 149.138 242.92 149.201 243.118 149.325C243.315 149.45 243.471 149.631 243.564 149.845C243.658 150.059 243.685 150.297 243.643 150.526C243.604 150.736 243.622 150.953 243.697 151.153C243.772 151.353 243.9 151.529 244.068 151.661C244.235 151.794 244.436 151.877 244.648 151.904C244.86 151.93 245.075 151.898 245.27 151.811C245.484 151.717 245.721 151.689 245.951 151.731C246.18 151.772 246.392 151.882 246.559 152.045C246.726 152.208 246.841 152.418 246.888 152.647C246.935 152.875 246.912 153.113 246.823 153.329C246.744 153.525 246.72 153.738 246.753 153.947C246.786 154.155 246.875 154.351 247.01 154.513C247.145 154.675 247.321 154.798 247.521 154.868C247.72 154.938 247.934 154.953 248.141 154.911C248.371 154.858 248.612 154.875 248.832 154.961C249.052 155.047 249.24 155.198 249.373 155.393C249.506 155.588 249.576 155.819 249.576 156.055C249.575 156.292 249.502 156.522 249.368 156.716C249.247 156.892 249.177 157.097 249.164 157.309C249.151 157.522 249.197 157.734 249.296 157.923C249.395 158.112 249.543 158.27 249.726 158.38C249.908 158.49 250.117 158.549 250.33 158.549C250.564 158.549 250.793 158.62 250.987 158.752C251.18 158.883 251.33 159.07 251.416 159.288C251.503 159.506 251.522 159.744 251.471 159.973C251.42 160.202 251.302 160.41 251.132 160.57C250.977 160.717 250.866 160.903 250.809 161.108C250.753 161.314 250.754 161.531 250.811 161.736C250.869 161.941 250.982 162.126 251.137 162.272C251.292 162.417 251.484 162.518 251.693 162.562C251.922 162.611 252.131 162.728 252.293 162.897C252.455 163.066 252.563 163.279 252.602 163.51C252.642 163.741 252.611 163.979 252.514 164.192C252.417 164.405 252.258 164.584 252.058 164.706C251.876 164.817 251.729 164.976 251.631 165.165C251.533 165.354 251.489 165.566 251.502 165.778C251.516 165.99 251.587 166.195 251.708 166.37C251.829 166.544 251.996 166.683 252.19 166.77C252.404 166.865 252.584 167.023 252.708 167.222C252.831 167.421 252.892 167.652 252.883 167.886C252.873 168.121 252.793 168.346 252.654 168.535C252.515 168.723 252.322 168.865 252.101 168.943C251.9 169.013 251.723 169.138 251.587 169.302C251.452 169.466 251.364 169.665 251.333 169.875C251.301 170.086 251.328 170.301 251.411 170.498C251.493 170.694 251.627 170.864 251.799 170.99C251.989 171.127 252.134 171.318 252.214 171.538C252.294 171.758 252.305 171.997 252.247 172.224C252.189 172.451 252.064 172.656 251.888 172.81C251.712 172.965 251.494 173.063 251.261 173.091C251.05 173.119 250.85 173.204 250.683 173.336C250.517 173.469 250.389 173.645 250.315 173.845C250.241 174.044 250.223 174.26 250.263 174.47C250.302 174.679 250.399 174.874 250.541 175.032C250.701 175.208 250.804 175.427 250.836 175.662C250.868 175.897 250.828 176.137 250.721 176.349C250.614 176.56 250.445 176.735 250.237 176.848C250.028 176.962 249.79 177.009 249.555 176.985C249.344 176.969 249.133 177.011 248.945 177.106C248.756 177.201 248.596 177.345 248.483 177.523C248.37 177.702 248.307 177.907 248.301 178.118C248.295 178.329 248.346 178.538 248.449 178.722C248.565 178.925 248.618 179.158 248.6 179.391C248.583 179.623 248.496 179.846 248.351 180.029C248.206 180.212 248.01 180.348 247.787 180.418C247.565 180.489 247.326 180.491 247.102 180.425C246.898 180.364 246.68 180.359 246.473 180.413C246.267 180.466 246.078 180.575 245.929 180.728C245.78 180.88 245.675 181.071 245.626 181.279C245.577 181.487 245.587 181.704 245.653 181.907C245.724 182.13 245.727 182.368 245.661 182.593C245.596 182.817 245.464 183.016 245.285 183.165C245.105 183.314 244.884 183.406 244.652 183.429C244.419 183.451 244.185 183.404 243.98 183.292C243.793 183.191 243.581 183.142 243.369 183.152C243.156 183.162 242.95 183.23 242.773 183.348C242.596 183.466 242.454 183.631 242.364 183.823C242.273 184.016 242.237 184.23 242.259 184.441C242.282 184.674 242.236 184.908 242.125 185.114C242.014 185.32 241.844 185.488 241.637 185.596C241.43 185.704 241.195 185.748 240.963 185.722C240.731 185.695 240.512 185.6 240.334 185.448C240.172 185.31 239.976 185.218 239.766 185.183C239.556 185.148 239.34 185.171 239.143 185.249C238.945 185.328 238.772 185.459 238.643 185.628C238.514 185.797 238.434 185.999 238.41 186.21C238.386 186.443 238.292 186.662 238.141 186.841C237.99 187.019 237.79 187.149 237.565 187.212C237.34 187.275 237.101 187.27 236.879 187.197C236.657 187.123 236.463 186.985 236.32 186.8C236.19 186.631 236.017 186.501 235.819 186.423C235.621 186.346 235.406 186.324 235.196 186.359C234.986 186.395 234.79 186.487 234.629 186.626C234.468 186.765 234.347 186.945 234.281 187.147C234.208 187.37 234.071 187.565 233.886 187.709C233.701 187.852 233.477 187.937 233.243 187.952C233.01 187.967 232.777 187.911 232.575 187.793C232.374 187.674 232.212 187.497 232.112 187.286C232.02 187.094 231.878 186.931 231.7 186.814C231.523 186.696 231.316 186.63 231.104 186.621C230.891 186.613 230.68 186.662 230.494 186.764C230.307 186.867 230.152 187.018 230.045 187.202C229.927 187.403 229.752 187.565 229.541 187.666C229.33 187.768 229.094 187.803 228.863 187.769C228.632 187.735 228.417 187.632 228.244 187.474C228.072 187.317 227.951 187.111 227.897 186.884C227.847 186.677 227.741 186.487 227.592 186.336C227.442 186.184 227.254 186.076 227.048 186.024C226.842 185.971 226.625 185.976 226.421 186.038C226.217 186.099 226.034 186.215 225.891 186.373C225.735 186.546 225.53 186.669 225.303 186.724C225.076 186.78 224.837 186.767 224.618 186.686C224.399 186.605 224.209 186.46 224.073 186.27C223.937 186.08 223.86 185.854 223.854 185.62C223.848 185.407 223.783 185.2 223.668 185.021C223.553 184.841 223.391 184.697 223.2 184.602C223.01 184.508 222.797 184.467 222.584 184.484C222.372 184.501 222.168 184.576 221.995 184.7C221.806 184.837 221.58 184.914 221.346 184.921C221.113 184.928 220.882 184.865 220.685 184.74C220.487 184.616 220.332 184.435 220.238 184.221C220.144 184.006 220.117 183.769 220.159 183.54C220.198 183.33 220.18 183.114 220.105 182.915C220.03 182.716 219.903 182.541 219.736 182.408C219.569 182.276 219.369 182.192 219.158 182.165C218.947 182.138 218.733 182.169 218.538 182.254C218.324 182.348 218.087 182.376 217.858 182.335C217.628 182.293 217.416 182.184 217.249 182.02C217.082 181.857 216.967 181.648 216.92 181.419C216.873 181.19 216.896 180.953 216.985 180.737C217.064 180.541 217.088 180.327 217.055 180.119C217.022 179.91 216.933 179.715 216.798 179.552C216.663 179.39 216.487 179.267 216.287 179.197C216.088 179.127 215.874 179.112 215.667 179.154C215.436 179.209 215.194 179.192 214.973 179.106C214.752 179.02 214.562 178.869 214.429 178.672C214.296 178.476 214.226 178.244 214.227 178.006C214.229 177.769 214.303 177.538 214.44 177.344C214.56 177.168 214.631 176.963 214.644 176.751C214.656 176.538 214.611 176.326 214.512 176.137C214.413 175.948 214.264 175.79 214.082 175.68C213.9 175.57 213.691 175.511 213.478 175.511C213.243 175.512 213.014 175.443 212.82 175.312C212.626 175.181 212.475 174.994 212.389 174.777C212.302 174.559 212.284 174.32 212.335 174.091C212.386 173.863 212.505 173.655 212.676 173.495C212.831 173.348 212.942 173.162 212.999 172.957C213.055 172.752 213.054 172.535 212.997 172.33C212.939 172.125 212.826 171.94 212.671 171.794C212.516 171.648 212.324 171.548 212.115 171.503C211.886 171.454 211.677 171.338 211.515 171.169C211.353 171 211.245 170.786 211.206 170.555C211.166 170.324 211.197 170.087 211.294 169.874C211.391 169.66 211.55 169.481 211.75 169.359C211.932 169.248 212.079 169.09 212.177 168.901C212.275 168.712 212.319 168.5 212.306 168.288C212.292 168.075 212.221 167.871 212.1 167.696C211.979 167.521 211.812 167.383 211.618 167.295C211.404 167.2 211.224 167.043 211.1 166.844C210.977 166.645 210.916 166.413 210.925 166.179C210.935 165.945 211.015 165.719 211.154 165.531C211.293 165.343 211.486 165.2 211.707 165.123C211.908 165.052 212.085 164.928 212.221 164.763C212.356 164.599 212.444 164.401 212.475 164.19C212.507 163.98 212.48 163.764 212.397 163.568C212.315 163.372 212.181 163.201 212.009 163.075C211.82 162.938 211.676 162.746 211.596 162.526C211.517 162.306 211.505 162.067 211.563 161.84C211.621 161.613 211.746 161.408 211.921 161.253C212.096 161.098 212.314 160.999 212.547 160.969C212.758 160.941 212.958 160.856 213.124 160.724C213.291 160.591 213.418 160.415 213.492 160.215C213.566 160.016 213.585 159.8 213.545 159.59C213.505 159.381 213.409 159.186 213.267 159.028C213.109 158.852 213.008 158.633 212.977 158.399C212.946 158.165 212.986 157.927 213.093 157.716C213.2 157.506 213.368 157.332 213.575 157.219C213.782 157.105 214.019 157.057 214.254 157.081C214.464 157.096 214.675 157.054 214.863 156.959C215.052 156.864 215.212 156.72 215.325 156.542C215.438 156.364 215.501 156.158 215.507 155.947C215.513 155.736 215.462 155.528 215.359 155.343C215.243 155.141 215.19 154.908 215.208 154.675C215.225 154.442 215.312 154.22 215.457 154.037C215.602 153.854 215.798 153.718 216.021 153.647C216.243 153.577 216.482 153.574 216.706 153.64C216.91 153.7 217.127 153.704 217.332 153.65C217.538 153.596 217.726 153.487 217.874 153.335C218.023 153.182 218.127 152.992 218.176 152.785C218.224 152.578 218.215 152.361 218.15 152.159C218.079 151.936 218.076 151.697 218.141 151.473C218.207 151.249 218.338 151.05 218.518 150.901C218.698 150.752 218.918 150.66 219.151 150.637C219.383 150.615 219.617 150.662 219.823 150.774C220.01 150.875 220.222 150.923 220.435 150.913C220.647 150.902 220.853 150.835 221.031 150.717C221.208 150.599 221.35 150.435 221.441 150.242C221.533 150.05 221.57 149.836 221.549 149.624C221.527 149.391 221.575 149.157 221.687 148.952C221.799 148.747 221.97 148.58 222.178 148.472C222.385 148.365 222.621 148.323 222.853 148.35C223.085 148.378 223.303 148.475 223.48 148.628C223.642 148.766 223.838 148.858 224.048 148.893C224.258 148.928 224.474 148.905 224.672 148.827C224.87 148.748 225.042 148.617 225.171 148.448C225.3 148.279 225.381 148.078 225.404 147.866C225.429 147.634 225.522 147.414 225.673 147.236C225.824 147.057 226.025 146.928 226.25 146.864C226.475 146.801 226.713 146.806 226.935 146.88C227.157 146.953 227.352 147.091 227.494 147.276C227.624 147.445 227.797 147.575 227.995 147.653C228.193 147.731 228.409 147.753 228.618 147.717C228.828 147.681 229.024 147.589 229.185 147.45C229.346 147.311 229.467 147.131 229.533 146.929C229.606 146.708 229.743 146.513 229.926 146.37C230.11 146.227 230.332 146.142 230.564 146.126C230.797 146.11 231.028 146.164 231.23 146.28C231.432 146.397 231.594 146.57 231.696 146.78Z" fill="#407BFF"/>
<path d="M249.646 170.686C251.658 160.88 245.34 151.299 235.533 149.287C225.727 147.274 216.146 153.593 214.133 163.399C212.121 173.206 218.44 182.787 228.246 184.799C238.053 186.811 247.634 180.493 249.646 170.686Z" fill="white"/>
<path d="M232.96 183.87C229.632 184.083 226.315 183.305 223.429 181.633C220.544 179.961 218.219 177.471 216.748 174.478C215.278 171.484 214.728 168.122 215.168 164.816C215.608 161.511 217.019 158.41 219.222 155.906C221.424 153.402 224.32 151.607 227.543 150.749C230.765 149.89 234.17 150.007 237.327 151.084C240.483 152.16 243.249 154.149 245.275 156.798C247.302 159.447 248.497 162.637 248.71 165.965C248.991 170.427 247.491 174.818 244.538 178.175C241.585 181.532 237.421 183.58 232.96 183.87ZM230.832 150.636C227.585 150.843 224.474 152.009 221.89 153.986C219.306 155.962 217.367 158.661 216.317 161.74C215.267 164.818 215.154 168.14 215.991 171.283C216.829 174.426 218.58 177.25 221.023 179.399C223.465 181.547 226.49 182.922 229.715 183.351C232.94 183.78 236.219 183.242 239.138 181.807C242.058 180.372 244.486 178.104 246.116 175.288C247.746 172.473 248.504 169.238 248.295 165.992C248.011 161.641 246.012 157.582 242.738 154.703C239.465 151.824 235.183 150.361 230.832 150.636Z" fill="#92989B"/>
<path d="M230.668 177.233L220.117 167.951L223.923 163.618L230.147 169.093L247.575 149.28L251.903 153.092L230.668 177.233Z" fill="#407BFF"/>
</svg>
