<svg width="304" height="172" viewBox="0 0 304 172" fill="none" xmlns="http://www.w3.org/2000/svg">
<path d="M199.837 55.9277L218.271 57.4654L217.3 58.288L218.564 59.3884L217.059 60.0776L218.404 61.2744L199.085 59.6589L200.289 58.64L199.693 57.5469L200.727 57.0208L199.837 55.9277Z" fill="#E0E0E0"/>
<path d="M231.68 97.7561C231.68 97.7561 229.905 96.2925 227.093 100.617C225.617 102.815 224.29 105.11 223.121 107.486C223.121 107.486 222.406 108.379 221.813 107.682C221.22 106.986 220.509 105.118 219.357 105.318C218.204 105.519 217.645 106.782 217.663 108.705C217.682 110.628 217.578 114.852 217.567 115.23C217.556 115.608 217.285 116.13 216.804 115.723C216.322 115.315 213.702 111.692 212.061 113.04C210.419 114.389 211.353 119.739 211.446 120.325C211.538 120.91 211.401 121.144 211.112 121.258C210.823 121.373 210.06 120.069 209.26 119.072C208.459 118.076 207.381 117.049 206.499 117.909C205.617 118.769 204.954 122.637 207.981 129.362L209.597 132.382L213.032 132.552C220.413 132.471 223.644 130.233 224.047 129.073C224.451 127.913 223.065 127.354 221.824 127.061C220.583 126.768 219.082 126.624 219.064 126.32C219.045 126.016 219.197 125.79 219.768 125.627C220.338 125.464 225.589 124.049 226.115 121.992C226.641 119.936 222.25 119.083 221.669 118.824C221.087 118.565 221.457 118.083 221.795 117.927C222.132 117.772 225.911 115.875 227.664 115.078C229.416 114.281 230.335 113.285 230.02 112.114C229.705 110.943 227.719 111.128 226.837 110.887C225.956 110.647 226.467 109.617 226.467 109.617C228.125 107.553 229.644 105.382 231.013 103.118C233.748 98.7417 231.61 97.7338 231.61 97.7338" fill="#EBEBEB"/>
<path d="M209.023 132.937C211.042 129.732 214.725 124.097 217.863 119.228C221.002 114.359 223.836 109.965 225.87 106.782L228.275 102.995L228.931 101.965L229.105 101.699C229.123 101.669 229.143 101.64 229.164 101.613L229.112 101.706L228.949 101.976L228.312 103.018C227.756 103.918 226.945 105.218 225.933 106.823C223.899 110.043 221.091 114.445 217.971 119.298C214.851 124.152 211.12 129.784 209.078 132.978" fill="#E0E0E0"/>
<path d="M220.257 107.961C220.287 108.039 220.308 108.119 220.32 108.202C220.353 108.357 220.394 108.572 220.442 108.865C220.542 109.425 220.653 110.203 220.764 111.066C220.876 111.929 220.968 112.685 221.039 113.271C221.076 113.537 221.102 113.76 221.128 113.937C221.145 114.019 221.152 114.102 221.15 114.186C221.12 114.108 221.099 114.027 221.087 113.945C221.053 113.789 221.013 113.574 220.965 113.282C220.872 112.718 220.768 111.94 220.661 111.081C220.553 110.221 220.446 109.462 220.368 108.876C220.335 108.613 220.301 108.387 220.279 108.209C220.262 108.128 220.254 108.044 220.257 107.961Z" fill="#E0E0E0"/>
<path d="M221.457 114.293C221.457 114.264 223.047 113.96 225.018 113.612C226.989 113.263 228.594 113.004 228.597 113.034C228.601 113.063 227.008 113.367 225.037 113.715C223.065 114.064 221.461 114.323 221.457 114.293Z" fill="#E0E0E0"/>
<path d="M216.303 121.533C216.387 121.523 216.472 121.523 216.555 121.533L217.241 121.607C217.815 121.67 218.615 121.752 219.497 121.811C220.379 121.871 221.183 121.896 221.761 121.911L222.45 121.93C222.535 121.926 222.619 121.932 222.702 121.948C222.619 121.965 222.535 121.972 222.45 121.971C222.287 121.971 222.054 121.971 221.761 121.971C221.179 121.971 220.375 121.971 219.49 121.9C218.604 121.83 217.804 121.748 217.23 121.667C216.941 121.626 216.711 121.589 216.548 121.559C216.466 121.559 216.384 121.55 216.303 121.533Z" fill="#E0E0E0"/>
<path d="M213.962 116.057C214.006 116.12 214.044 116.188 214.073 116.26L214.347 116.835C214.573 117.32 214.881 117.998 215.21 118.747C215.54 119.495 215.836 120.177 216.044 120.67L216.289 121.259C216.323 121.329 216.348 121.404 216.363 121.481C216.316 121.418 216.278 121.348 216.251 121.274C216.174 121.118 216.085 120.929 215.977 120.699C215.751 120.214 215.444 119.54 215.114 118.791C214.784 118.043 214.488 117.361 214.277 116.864C214.184 116.635 214.102 116.438 214.036 116.279C214.001 116.209 213.976 116.134 213.962 116.057Z" fill="#E0E0E0"/>
<path d="M208.6 121.865C208.654 121.949 208.701 122.037 208.741 122.128L209.112 122.869C209.404 123.492 209.804 124.351 210.223 125.311C210.642 126.271 211.046 127.134 211.335 127.764C211.464 128.064 211.572 128.316 211.653 128.505C211.696 128.596 211.731 128.69 211.761 128.787C211.705 128.703 211.657 128.615 211.616 128.524L211.264 127.783C210.972 127.16 210.571 126.3 210.153 125.341C209.734 124.381 209.33 123.518 209.041 122.888L208.719 122.147C208.669 122.057 208.63 121.963 208.6 121.865Z" fill="#E0E0E0"/>
<path d="M211.716 128.603C211.822 128.593 211.929 128.593 212.035 128.603L212.906 128.666C213.647 128.718 214.658 128.788 215.781 128.833C216.904 128.877 217.919 128.892 218.656 128.9H219.531C219.637 128.891 219.743 128.891 219.849 128.9C219.744 128.919 219.638 128.929 219.531 128.929L218.656 128.955C217.915 128.955 216.9 128.955 215.774 128.918C214.647 128.881 213.636 128.796 212.902 128.722C212.531 128.688 212.239 128.655 212.031 128.625C211.926 128.627 211.82 128.62 211.716 128.603Z" fill="#E0E0E0"/>
<path d="M104.85 67.7852C104.85 67.7852 101.015 111.381 102.397 136.829C103.593 158.901 105.702 166.337 105.702 166.337L118.266 166.319L104.85 67.7852Z" fill="#E0E0E0"/>
<path d="M89.8805 141.718C89.7267 141.135 89.6917 140.526 89.7776 139.928C89.8635 139.33 90.0686 138.756 90.3807 138.239C91.0148 137.208 91.8767 136.336 92.9002 135.69C94.8381 134.389 97.4725 133.874 99.7994 133.756C99.7661 136.35 97.7949 138.613 96.7241 139.684C95.0271 141.403 90.9216 143.478 89.8805 141.704" fill="#EBEBEB"/>
<path d="M101.256 129.551C100.838 130.081 100.287 130.492 99.6586 130.741C99.0306 130.989 98.3479 131.067 97.68 130.966C97.0124 130.856 96.3735 130.614 95.8009 130.254C95.2282 129.894 94.7333 129.423 94.3452 128.869C93.9747 128.365 93.682 127.739 93.8413 127.135C93.9325 126.858 94.0965 126.61 94.3162 126.418C94.5358 126.225 94.8031 126.096 95.09 126.042C95.6664 125.939 96.2599 125.991 96.8092 126.194C98.71 126.794 100.444 127.724 101.256 129.551Z" fill="#EBEBEB"/>
<path d="M108.296 126.857C108.167 126.954 108.031 127.04 107.888 127.113L106.754 127.769C105.513 128.531 104.157 129.086 102.738 129.414C101.312 129.727 99.8275 129.653 98.4396 129.199C98.0232 129.057 97.6252 128.865 97.2539 128.629C97.1205 128.547 97.0279 128.469 96.9612 128.421C96.8945 128.373 96.8649 128.343 96.8686 128.34C97.3794 128.638 97.918 128.886 98.4767 129.081C99.85 129.488 101.304 129.544 102.704 129.244C104.099 128.911 105.436 128.374 106.673 127.65C107.158 127.395 107.555 127.183 107.829 127.046C107.978 126.968 108.134 126.905 108.296 126.857Z" fill="#263238"/>
<path d="M92.8706 139.862C92.9116 139.805 92.9588 139.753 93.0114 139.707C93.1263 139.603 93.2671 139.466 93.4449 139.295C93.8154 138.925 94.3749 138.428 95.0604 137.813C96.4388 136.565 98.3618 134.849 100.529 133.041C102.697 131.233 104.694 129.602 106.158 128.461C106.899 127.887 107.484 127.427 107.903 127.116L108.381 126.746C108.436 126.702 108.496 126.664 108.559 126.631C108.513 126.685 108.461 126.734 108.403 126.775L107.944 127.146L106.232 128.532C104.79 129.699 102.804 131.322 100.637 133.148C98.4692 134.975 96.5351 136.657 95.1419 137.88L93.4746 139.344L93.0225 139.733C92.9756 139.78 92.9248 139.823 92.8706 139.862Z" fill="#263238"/>
<path d="M104.505 131.21C103.588 132.299 102.944 133.59 102.626 134.977C102.307 136.365 102.324 137.808 102.675 139.187C102.86 139.888 103.256 140.67 103.971 140.762C104.687 140.855 105.276 140.199 105.62 139.562C106.314 138.219 106.595 136.701 106.428 135.199C106.26 133.697 105.652 132.278 104.679 131.121" fill="#EBEBEB"/>
<path d="M104.146 137.524C104.087 137.384 104.042 137.239 104.012 137.09C103.965 136.92 103.928 136.746 103.901 136.571C103.872 136.368 103.816 136.138 103.797 135.878C103.765 135.596 103.749 135.311 103.749 135.026C103.741 134.7 103.751 134.373 103.779 134.048C103.848 133.301 104.001 132.564 104.235 131.851C104.483 131.141 104.811 130.463 105.213 129.828C105.388 129.553 105.581 129.289 105.791 129.039C105.967 128.815 106.156 128.602 106.358 128.401C106.521 128.232 106.693 128.071 106.873 127.92C107.002 127.8 107.139 127.69 107.284 127.59C107.398 127.493 107.522 127.408 107.655 127.338C107.681 127.368 107.147 127.734 106.439 128.483C106.246 128.686 106.064 128.9 105.895 129.124C105.696 129.377 105.51 129.641 105.339 129.913C104.952 130.541 104.635 131.209 104.394 131.906C104.163 132.607 104.008 133.33 103.931 134.063C103.905 134.4 103.879 134.722 103.886 135.026C103.881 135.307 103.891 135.588 103.916 135.867C104.005 136.894 104.179 137.516 104.146 137.524Z" fill="#263238"/>
<path d="M111.727 120.08C116.506 113.496 115.113 104.829 112.323 97.5672C111.856 96.3555 111.545 95.0142 110.589 94.1398C109.633 93.2654 108.018 93.0023 107.099 93.8989C106.335 94.64 106.306 95.8368 106.098 96.8891C105.822 98.2932 105.154 99.5906 104.172 100.631C103.531 101.306 102.649 101.891 101.73 101.743C100.47 101.524 99.8401 100.105 99.4251 98.8825L97.1131 92.0278C96.6981 90.8051 96.272 89.5601 95.4902 88.5338C94.7084 87.5074 93.5005 86.7219 92.2296 86.796C90.9587 86.8701 89.7507 88.0373 89.9175 89.3156C90.0469 89.8362 90.2116 90.3475 90.4103 90.8458C90.5511 91.3646 90.5066 92.0093 90.0768 92.3279C89.647 92.6466 89.0319 92.4613 88.5428 92.2279C86.857 91.4313 85.4564 90.1418 84.0965 88.8413C82.7367 87.5407 81.4176 86.1883 79.8096 85.2435C78.2015 84.2987 76.2562 83.7614 74.474 84.2801C72.6918 84.7989 71.206 86.5033 71.3579 88.3559C71.5098 90.2085 73.1142 91.6276 74.6926 92.6429C77.0283 94.1546 79.5705 95.3203 82.2402 96.1036C82.736 96.1915 83.1912 96.4341 83.5408 96.7965C84.0891 97.519 83.5963 98.5935 82.8849 99.1382C82.0809 99.7532 81.0619 100.001 80.1505 100.442C79.239 100.883 78.3534 101.658 78.2978 102.666C78.2311 104.088 79.7244 105.033 81.0471 105.533C83.6952 106.538 86.4965 107.08 89.3283 107.134C90.3399 107.153 91.3848 107.112 92.3259 107.505C93.267 107.897 94.0822 108.831 93.9414 109.839C93.8006 110.847 92.7742 111.514 91.7738 111.666C90.7734 111.818 89.7582 111.595 88.7429 111.569C86.8495 111.514 84.7227 112.381 84.1521 114.2C83.7816 115.397 84.1521 116.742 84.9191 117.757C85.716 118.733 86.6998 119.541 87.8129 120.132C91.5732 122.405 95.8694 123.639 100.263 123.708C104.616 123.708 108.347 122.83 111.723 120.08" fill="#EBEBEB"/>
<path d="M112.03 122.293C110.759 119.474 110.608 119.459 108.236 116.131C105.632 112.55 102.825 109.121 99.829 105.86L97.4873 103.285C96.7166 102.44 95.9533 101.603 95.153 100.829C93.6186 99.347 92.0031 97.9516 90.3139 96.6492C88.7096 95.3931 87.1422 94.263 85.6676 93.2144C84.1929 92.1658 82.796 91.221 81.488 90.4096C79.4303 89.1199 77.2733 87.9962 75.0372 87.0489C74.248 86.7154 73.6292 86.4746 73.2031 86.3078L72.7214 86.13L72.5547 86.0781C72.6054 86.1078 72.6587 86.1326 72.714 86.1522L73.1883 86.3523C73.6033 86.5228 74.2183 86.7784 75.0039 87.1267C77.2196 88.1046 79.3586 89.2478 81.4028 90.5467C82.6997 91.3655 84.0854 92.3178 85.5564 93.37C87.0274 94.4223 88.5836 95.5599 90.1805 96.8159C91.8605 98.1184 93.4685 99.5111 94.9974 100.988C95.7903 101.759 96.5462 102.589 97.3169 103.437L99.6586 106.031C102.649 109.283 105.454 112.699 108.062 116.265C110.437 119.577 110.596 119.57 111.882 122.371" fill="#263238"/>
<path d="M95.0864 100.842C95.0854 100.653 95.0655 100.464 95.0271 100.279C94.9752 99.9082 94.8789 99.4006 94.7566 98.7633C94.5083 97.4924 94.1082 95.7435 93.645 93.8168C93.1819 91.89 92.8188 90.1412 92.5927 88.8666C92.4779 88.2293 92.389 87.7142 92.3334 87.3548C92.3135 87.1674 92.275 86.9825 92.2185 86.8027C92.2039 86.9907 92.2113 87.1797 92.2407 87.3659C92.2704 87.7365 92.3334 88.2515 92.426 88.8925C92.6113 90.1782 92.9633 91.9419 93.4153 93.8686C93.8673 95.7954 94.2712 97.4887 94.5825 98.8003C94.7158 99.3932 94.8307 99.9119 94.9233 100.282C94.9576 100.474 95.0122 100.662 95.0864 100.842Z" fill="#263238"/>
<path d="M78.3905 103.333C78.6103 103.305 78.8272 103.258 79.0389 103.192C79.4539 103.088 80.0541 102.936 80.8026 102.77C82.2847 102.429 84.367 102.029 86.6754 101.688C88.9838 101.347 91.0884 101.136 92.6038 101.025C93.3671 100.962 93.9859 100.928 94.412 100.902C94.6344 100.902 94.8563 100.882 95.0752 100.843C94.8547 100.808 94.6311 100.797 94.4082 100.81C93.9784 100.81 93.356 100.81 92.5927 100.854C91.0587 100.924 88.943 101.113 86.6272 101.451C84.6498 101.734 82.6883 102.12 80.7507 102.607C80.0097 102.792 79.4131 102.977 79.0018 103.103C78.7913 103.16 78.5866 103.237 78.3905 103.333Z" fill="#263238"/>
<path d="M107.944 115.908C107.967 115.833 107.981 115.756 107.984 115.678C108.007 115.5 108.029 115.282 108.058 115.019C108.118 114.444 108.184 113.614 108.251 112.584C108.384 110.524 108.485 107.675 108.547 104.533C108.61 101.391 108.685 98.5376 108.777 96.4812C108.825 95.4771 108.866 94.6545 108.896 94.0432C108.896 93.7764 108.896 93.5578 108.922 93.3799C108.935 93.3026 108.935 93.2238 108.922 93.1465C108.898 93.2209 108.884 93.2982 108.881 93.3762C108.881 93.5541 108.84 93.769 108.811 94.0358C108.751 94.6064 108.685 95.44 108.618 96.4701C108.481 98.5265 108.384 101.376 108.318 104.525C108.251 107.675 108.181 110.517 108.092 112.573C108.044 113.574 108.003 114.4 107.973 115.011C107.973 115.278 107.973 115.497 107.947 115.674C107.937 115.752 107.936 115.83 107.944 115.908Z" fill="#263238"/>
<path d="M84.7783 116.398C84.8571 116.407 84.9367 116.407 85.0155 116.398H85.6935L88.1723 116.349C90.2695 116.309 93.1633 116.286 96.3646 116.264C99.566 116.242 102.463 116.194 104.557 116.112C105.606 116.072 106.454 116.027 107.036 115.986L107.71 115.934C107.789 115.933 107.867 115.922 107.944 115.901C107.865 115.892 107.785 115.892 107.706 115.901H107.032L104.55 115.949C102.456 115.99 99.5585 116.012 96.3609 116.035C93.1633 116.057 90.2621 116.101 88.1686 116.186C87.12 116.227 86.2715 116.268 85.6861 116.312L85.0155 116.361C84.9349 116.36 84.8548 116.372 84.7783 116.398Z" fill="#263238"/>
<path d="M149.594 13.5952C149.935 13.5239 150.249 13.3613 150.504 13.1249C150.759 12.8885 150.945 12.5872 151.041 12.2533C151.138 11.9194 151.142 11.5654 151.053 11.2294C150.964 10.8933 150.785 10.5879 150.535 10.3457C150.69 10.2638 150.828 10.152 150.939 10.017C151.051 9.88193 151.135 9.72618 151.187 9.55862C151.239 9.39106 151.257 9.21498 151.24 9.04042C151.224 8.86587 151.173 8.69626 151.091 8.54129C151.009 8.38631 150.897 8.249 150.762 8.1372C150.627 8.02539 150.472 7.94129 150.304 7.88968C150.137 7.83807 149.96 7.81997 149.786 7.83641C149.611 7.85285 149.442 7.90351 149.287 7.9855C149.322 7.69057 149.272 7.39171 149.143 7.12421C149.014 6.85672 148.811 6.63176 148.558 6.47592C148.305 6.32007 148.013 6.23984 147.716 6.24471C147.419 6.24958 147.13 6.33935 146.882 6.5034C146.633 6.29425 146.334 6.15414 146.014 6.09712C145.695 6.0401 145.365 6.06818 145.06 6.17853C144.754 6.28888 144.483 6.47763 144.274 6.72585C144.064 6.97407 143.924 7.27303 143.866 7.59274C143.709 7.30244 143.464 7.07006 143.165 6.92977C142.866 6.78948 142.531 6.74869 142.207 6.81338C141.884 6.87808 141.59 7.04486 141.368 7.28919C141.146 7.53352 141.009 7.84252 140.976 8.17076C140.357 7.9892 139.623 7.83358 139.123 8.24116C138.623 8.64874 138.63 9.31198 138.645 9.91593C138.636 10.6316 138.706 11.346 138.853 12.0464C139.122 13.1274 139.752 14.0842 140.639 14.7587C141.067 15.2063 141.628 15.5037 142.239 15.6065C142.85 15.7093 143.478 15.6121 144.029 15.3293" fill="#263238"/>
<path d="M150.369 16.0715C150.569 15.9388 150.738 15.7653 150.866 15.5625C150.995 15.3596 151.079 15.132 151.113 14.8945C151.147 14.657 151.131 14.4149 151.065 14.1842C150.999 13.9534 150.885 13.7392 150.731 13.5554C150.576 13.3717 150.385 13.2226 150.169 13.1179C149.953 13.0133 149.718 12.9554 149.478 12.9481C149.238 12.9407 148.999 12.9841 148.777 13.0754C148.555 13.1667 148.355 13.3039 148.19 13.4778C148.005 13.6594 147.819 13.8965 147.567 13.9114C147.316 13.9262 147.123 13.7372 146.915 13.6001C146.648 13.4233 146.336 13.3265 146.016 13.3212C145.696 13.3159 145.381 13.4023 145.108 13.5702C144.836 13.7381 144.617 13.9805 144.477 14.2687C144.338 14.557 144.284 14.8791 144.322 15.1971C143.466 14.8266 142.28 14.9377 141.847 15.7603C141.476 16.5013 141.906 17.4536 142.617 17.876C143.365 18.2465 144.217 18.3536 145.033 18.1798C146.999 17.8905 148.828 17.0001 150.269 15.6306" fill="#016CDE"/>
<path d="M145.044 16.1087C145.026 16.1568 144.744 16.0457 144.537 15.7567C144.329 15.4677 144.322 15.1638 144.374 15.1564C144.425 15.149 144.514 15.3935 144.696 15.6418C144.878 15.8901 145.074 16.0716 145.044 16.1087Z" fill="white"/>
<path d="M148.083 15.8942C148.027 15.8942 148.083 15.4718 147.931 14.9864C147.779 14.501 147.56 14.1601 147.616 14.123C147.884 14.3186 148.064 14.6111 148.12 14.9382C148.234 15.2492 148.221 15.593 148.083 15.8942Z" fill="white"/>
<path d="M149.717 15.4922C149.661 15.4922 149.768 15.0661 149.672 14.5695C149.576 14.073 149.339 13.7285 149.383 13.6914C149.632 13.9108 149.801 14.2076 149.861 14.5341C149.922 14.8606 149.871 15.198 149.717 15.4922Z" fill="white"/>
<path d="M143.829 17.1536C143.829 17.1759 143.695 17.1759 143.507 17.098C143.262 16.9885 143.053 16.8129 142.903 16.5909C142.753 16.369 142.668 16.1096 142.658 15.842C142.658 15.6382 142.702 15.5159 142.725 15.5196C142.784 15.8569 142.898 16.1822 143.062 16.483C143.377 16.9535 143.866 17.1018 143.829 17.1536Z" fill="white"/>
<path d="M161.281 35.2904C161.91 35.0853 162.441 34.6557 162.773 34.0836C163.105 33.5114 163.215 32.837 163.081 32.1891C163.444 31.9369 163.751 31.6131 163.984 31.2376C164.217 30.862 164.371 30.4428 164.435 30.0057C164.5 29.5686 164.474 29.1229 164.36 28.6961C164.245 28.2693 164.045 27.8705 163.771 27.5242C164.117 27.2269 164.366 26.8324 164.486 26.3919C164.605 25.9514 164.59 25.4852 164.441 25.0536C164.293 24.622 164.018 24.2449 163.653 23.9713C163.287 23.6976 162.848 23.54 162.392 23.5188C162.586 23.0118 162.642 22.4627 162.556 21.927C162.469 21.3912 162.243 20.8877 161.9 20.4672C161.557 20.0468 161.109 19.7242 160.602 19.532C160.094 19.3398 159.545 19.2848 159.009 19.3726C159.094 18.8289 159.018 18.2722 158.791 17.771C158.564 17.2698 158.195 16.8459 157.73 16.5515C157.266 16.257 156.725 16.1049 156.175 16.1137C155.624 16.1225 155.089 16.2919 154.633 16.6011C153.248 14.7299 150.069 14.6151 148.557 16.3862C146.797 15.3117 144.177 16.1157 143.321 17.9906C142.173 16.9197 140.168 17.3014 139.123 18.476C138.078 19.6505 137.83 21.3401 137.956 22.9222C137.54 23.1149 137.182 23.4146 136.919 23.7907C136.656 24.1669 136.498 24.606 136.46 25.0634C136.422 25.5207 136.507 25.9798 136.704 26.3939C136.902 26.808 137.206 27.1622 137.586 27.4204C136.133 29.2249 136.526 32.215 138.397 33.5785C138.269 34.5818 138.44 35.6006 138.889 36.5069C139.338 37.4133 140.045 38.1669 140.92 38.6733" fill="#263238"/>
<path d="M142.728 26.2271L142.073 24.3745L153.663 22.5219C157.227 22.2514 160.962 25.927 161.073 29.4989C161.207 33.4672 161.21 38.3173 160.654 41.2593C159.543 47.1877 154.956 47.7991 154.956 47.7991L154.585 57.1326L141.487 56.6101L142.728 26.2271Z" fill="#FFBE9D"/>
<path d="M158.928 33.3934C158.921 33.5879 158.841 33.7726 158.704 33.9102C158.566 34.0478 158.381 34.128 158.187 34.1344C157.991 34.1405 157.802 34.0691 157.659 33.9358C157.516 33.8026 157.431 33.6183 157.423 33.423C157.429 33.2283 157.509 33.043 157.647 32.9052C157.784 32.7675 157.97 32.6876 158.165 32.682C158.36 32.676 158.55 32.7474 158.693 32.8806C158.836 33.0138 158.92 33.1981 158.928 33.3934Z" fill="#263238"/>
<path d="M159.75 31.9669C159.654 32.0633 159.091 31.6186 158.268 31.5964C157.446 31.5742 156.834 31.9669 156.749 31.8632C156.708 31.815 156.808 31.6409 157.075 31.4556C157.439 31.2213 157.865 31.1036 158.298 31.1184C158.724 31.1296 159.135 31.2762 159.472 31.5371C159.721 31.7409 159.799 31.9262 159.75 31.9669Z" fill="#263238"/>
<path d="M150.828 32.9639C150.822 33.1587 150.743 33.3439 150.605 33.4817C150.467 33.6195 150.282 33.6994 150.087 33.705C149.892 33.711 149.703 33.6401 149.56 33.5077C149.417 33.3752 149.332 33.1919 149.324 32.9973C149.329 32.8025 149.409 32.6172 149.547 32.4795C149.685 32.3417 149.87 32.2618 150.065 32.2562C150.26 32.2502 150.449 32.3211 150.592 32.4535C150.734 32.5859 150.819 32.7693 150.828 32.9639Z" fill="#263238"/>
<path d="M151.503 31.8659C151.406 31.9622 150.839 31.5176 150.02 31.4954C149.202 31.4731 148.586 31.8659 148.501 31.7621C148.457 31.7177 148.557 31.5398 148.827 31.3583C149.189 31.1222 149.615 31.0044 150.046 31.0211C150.474 31.0322 150.886 31.1788 151.225 31.4398C151.469 31.6325 151.551 31.8214 151.503 31.8659Z" fill="#263238"/>
<path d="M154.482 38.0548C154.918 37.932 155.369 37.8648 155.823 37.8547C156.03 37.8547 156.23 37.8028 156.271 37.662C156.292 37.4458 156.25 37.2281 156.149 37.0358L155.575 35.424C154.782 33.1268 154.215 31.2408 154.307 31.2075C154.4 31.1741 155.119 33.0156 155.912 35.3092L156.464 36.9321C156.587 37.1893 156.616 37.4819 156.545 37.7584C156.511 37.8333 156.46 37.8992 156.395 37.9507C156.331 38.0022 156.255 38.0378 156.175 38.0548C156.053 38.0832 155.929 38.0957 155.804 38.0918C155.364 38.136 154.919 38.1235 154.482 38.0548Z" fill="#263238"/>
<path d="M154.982 47.795C152.116 47.7553 149.315 46.9341 146.882 45.4199C146.882 45.4199 148.768 49.6402 154.937 49.2771L154.982 47.795Z" fill="#EB996E"/>
<path d="M151.217 27.5565C151.173 27.7899 150.346 27.8159 149.416 28.0863C148.486 28.3568 147.756 28.7385 147.597 28.5606C147.527 28.4754 147.627 28.2457 147.901 27.9826C148.221 27.5876 148.685 27.3357 149.19 27.2823C149.672 27.1419 150.181 27.1203 150.672 27.2193C151.032 27.3045 151.236 27.449 151.217 27.5565Z" fill="#263238"/>
<path d="M159.732 29.3836C159.572 29.5578 159.024 29.3206 158.346 29.2613C157.668 29.2021 157.086 29.2873 156.968 29.0835C156.919 28.9835 157.023 28.8056 157.286 28.65C157.638 28.457 158.041 28.3804 158.439 28.4314C158.836 28.4705 159.211 28.631 159.513 28.8908C159.739 29.102 159.798 29.2984 159.732 29.3836Z" fill="#263238"/>
<path d="M148.657 22.4079C148.775 22.8891 149.015 23.3319 149.353 23.6936C149.527 23.868 149.76 23.9722 150.006 23.9866C150.251 24.0009 150.494 23.9243 150.687 23.7714C150.821 23.9153 150.986 24.0274 151.169 24.0997C151.352 24.1719 151.549 24.2024 151.745 24.1889C151.942 24.1754 152.132 24.1183 152.304 24.0217C152.475 23.9251 152.623 23.7915 152.736 23.6306C153.025 23.8994 153.395 24.066 153.788 24.1048C154.18 24.1436 154.575 24.0525 154.911 23.8455L156.682 24.216C157.323 24.3568 158.124 24.4421 158.516 23.9159C158.609 23.7973 158.676 23.6417 158.813 23.5787C158.962 23.5381 159.119 23.5381 159.269 23.5787C159.525 23.5944 159.781 23.5453 160.014 23.4359C160.246 23.3264 160.447 23.1602 160.599 22.9526C160.895 22.534 161.119 22.0678 161.258 21.5742C161.518 20.8331 161.722 19.8698 161.114 19.3511C160.86 19.1728 160.568 19.0572 160.262 19.0139C159.661 18.8387 159.03 18.7908 158.409 18.8731C157.652 19.0836 156.995 19.558 156.556 20.2107C156.62 20.0071 156.602 19.787 156.508 19.5959C156.413 19.4049 156.249 19.2575 156.049 19.1843C155.637 19.0559 155.19 19.0959 154.808 19.2955C154.233 19.5587 153.748 19.9836 153.411 20.5182C152.913 20.5181 152.425 20.6567 152.001 20.9185C151.578 21.1803 151.236 21.5549 151.013 22.0003C150.791 21.8534 150.541 21.7533 150.278 21.7061C150.016 21.659 149.747 21.6658 149.487 21.7261C149.395 21.7409 149.307 21.7741 149.228 21.8238C149.149 21.8734 149.081 21.9385 149.027 22.0151C149.004 22.0541 148.989 22.0979 148.984 22.1432C148.979 22.1886 148.984 22.2344 148.999 22.2776C149.014 22.3207 149.038 22.36 149.07 22.3928C149.102 22.4256 149.14 22.4509 149.183 22.4672" fill="#263238"/>
<path d="M154.393 22.7628C154.236 23.1605 154.214 23.5982 154.329 24.0096C154.444 24.4211 154.69 24.7838 155.03 25.0427C155.37 25.3017 155.785 25.4427 156.212 25.4445C156.639 25.4463 157.056 25.3087 157.398 25.0526C157.543 25.4565 157.826 25.7956 158.198 26.0094C158.57 26.2232 159.006 26.2978 159.428 26.2198C159.424 26.7281 159.556 27.2283 159.812 27.6677C160.067 28.1071 160.436 28.4696 160.88 28.7171C160.663 29.2336 160.648 29.8133 160.84 30.34C160.893 30.5101 160.98 30.6677 161.095 30.8038C161.211 30.94 161.352 31.0518 161.51 31.133C161.709 31.2033 161.92 31.2321 162.131 31.2174C162.341 31.2028 162.546 31.145 162.733 31.0477C163.013 30.9417 163.269 30.7795 163.484 30.5711C163.7 30.3628 163.87 30.1127 163.985 29.8361C164.089 29.5547 164.09 29.2454 163.987 28.9637C163.884 28.682 163.683 28.4461 163.422 28.2984C163.941 27.8266 164.348 27.2458 164.615 26.5977C164.707 26.4203 164.763 26.2265 164.779 26.0275C164.796 25.8284 164.773 25.6281 164.712 25.438C164.676 25.3464 164.621 25.2638 164.55 25.196C164.479 25.1282 164.394 25.0769 164.301 25.0458C164.208 25.0146 164.109 25.0044 164.012 25.0158C163.914 25.0273 163.821 25.0601 163.737 25.1119C163.893 24.822 163.964 24.494 163.942 24.1656C163.92 23.8371 163.805 23.5216 163.612 23.2553C163.418 22.989 163.153 22.7828 162.848 22.6602C162.542 22.5377 162.208 22.5039 161.885 22.5627C161.88 22.2857 161.797 22.0156 161.644 21.7845C161.491 21.5533 161.276 21.3707 161.022 21.2581C160.769 21.1455 160.489 21.1077 160.215 21.1491C159.941 21.1906 159.685 21.3095 159.476 21.4919" fill="#263238"/>
<path d="M147.286 22.0957C147.342 21.3547 146.652 20.7655 145.937 20.6655C145.211 20.6227 144.489 20.7968 143.862 21.1657C143.523 20.7724 143.071 20.4927 142.567 20.3641C142.064 20.2356 141.533 20.2645 141.046 20.4469C140.087 20.8174 139.472 21.7474 138.679 22.4107C138.224 22.7157 137.82 23.0908 137.482 23.5222C137.193 23.9854 137.2 24.7042 137.671 24.9821C137.357 25.0918 137.078 25.2841 136.864 25.5387C136.65 25.7934 136.508 26.101 136.454 26.4293C136.4 26.7575 136.435 27.0944 136.556 27.4043C136.677 27.7143 136.879 27.986 137.141 28.1909C137.308 28.3205 137.511 28.4354 137.578 28.6355C137.616 28.8095 137.598 28.9912 137.526 29.1542C137.245 29.9508 136.807 30.6956 136.637 31.5219C136.467 32.3481 136.637 33.3374 137.352 33.8006C137.537 33.9229 137.767 34.0192 137.852 34.2267C137.899 34.3662 137.899 34.517 137.852 34.6565C137.692 35.112 137.491 35.5523 137.252 35.9719C137.012 36.3942 136.933 36.889 137.03 37.365C137.09 37.5999 137.241 37.8014 137.449 37.9256C137.657 38.0498 137.906 38.0867 138.141 38.0283C137.826 38.9398 137.849 40.0254 138.438 40.785C139.027 41.5446 140.983 41.8966 142.143 41.1852L142.25 38.4618C142.095 37.9838 142.84 35.4309 142.532 34.9122C142.532 34.9122 141.713 36.6833 143.555 36.3943C144.151 36.5573 145.3 34.801 145.381 34.1711C145.401 33.8605 145.332 33.5507 145.184 33.2774C145.035 33.004 144.812 32.7782 144.54 32.626C145.052 32.2187 145.404 31.6445 145.536 31.0039C145.667 30.3632 145.569 29.6967 145.259 29.1209C145.596 29.0832 145.909 28.9314 146.148 28.6906C146.386 28.4499 146.535 28.1347 146.569 27.7977C146.603 27.4606 146.521 27.122 146.336 26.8383C146.151 26.5545 145.874 26.3427 145.552 26.2382C145.965 26.1167 146.347 25.9096 146.675 25.6305C147.002 25.3513 147.267 25.0064 147.452 24.618C147.637 24.2297 147.739 23.8067 147.75 23.3766C147.761 22.9465 147.681 22.5189 147.516 22.1217" fill="#263238"/>
<path d="M138.393 22.6328C138.393 22.6328 138.304 22.6846 138.19 22.8365C137.982 23.1356 137.884 23.4967 137.911 23.8595C137.938 24.2223 138.089 24.5648 138.338 24.83C138.546 25.0385 138.804 25.1892 139.088 25.2671C139.372 25.3451 139.672 25.3477 139.957 25.2746L139.809 25.1264C139.771 25.2824 139.764 25.4444 139.79 25.6028C139.816 25.7613 139.874 25.9129 139.959 26.0487C140.045 26.1845 140.157 26.3016 140.289 26.3932C140.421 26.4848 140.57 26.5489 140.727 26.5817C140.884 26.6145 141.046 26.6154 141.203 26.5842C141.361 26.5531 141.511 26.4906 141.643 26.4005C141.776 26.3103 141.89 26.1944 141.977 26.0595C142.064 25.9246 142.123 25.7736 142.15 25.6155H141.873C141.914 25.8108 142.003 25.9927 142.133 26.1447C142.262 26.2968 142.427 26.4141 142.614 26.4862C142.856 26.5848 143.125 26.5992 143.377 26.527C143.623 26.4527 143.835 26.2922 143.973 26.0749C144.106 25.8745 144.177 25.6393 144.177 25.3987C144.177 25.1582 144.106 24.9229 143.973 24.7225L143.799 24.9189C144.162 25.1142 144.561 25.2331 144.971 25.2681C145.382 25.3032 145.795 25.2537 146.185 25.1227C146.688 24.9466 147.132 24.6351 147.469 24.2225C147.806 23.81 148.022 23.3124 148.094 22.7847C148.124 22.6393 148.124 22.4891 148.094 22.3438C148.019 22.8822 147.825 23.3973 147.527 23.8518C147.183 24.3473 146.686 24.7158 146.111 24.9004C145.751 25.0115 145.372 25.0493 144.996 25.0118C144.621 24.9743 144.257 24.862 143.925 24.6818L143.388 24.3816L143.759 24.8781C143.859 25.0331 143.913 25.2139 143.913 25.3987C143.913 25.5835 143.859 25.7643 143.759 25.9193C143.654 26.0829 143.495 26.2037 143.309 26.2595C143.124 26.3152 142.924 26.3024 142.747 26.2231C142.604 26.1699 142.477 26.0821 142.376 25.9677C142.275 25.8533 142.204 25.7158 142.169 25.5673L142.013 24.7299L141.887 25.5747C141.859 25.7023 141.806 25.8231 141.731 25.9298C141.656 26.0365 141.56 26.1271 141.449 26.1962C141.338 26.2652 141.215 26.3114 141.086 26.3319C140.957 26.3525 140.825 26.347 140.698 26.3158C140.471 26.2356 140.28 26.0759 140.162 25.866C140.043 25.6562 140.005 25.4106 140.053 25.1746L140.109 24.9671L139.905 25.0263C139.659 25.0952 139.4 25.0993 139.152 25.0382C138.904 24.9772 138.676 24.8531 138.49 24.6781C138.348 24.5394 138.236 24.3725 138.163 24.188C138.089 24.0035 138.055 23.8056 138.064 23.6072C138.083 23.2584 138.197 22.9214 138.393 22.6328Z" fill="#455A64"/>
<path d="M160.54 19.3583C160.586 19.4669 160.608 19.5847 160.603 19.7029C160.597 19.7673 160.577 19.8297 160.544 19.885C160.51 19.9404 160.465 19.9871 160.41 20.0215C160.339 20.0672 160.257 20.0914 160.173 20.0914C160.089 20.0914 160.006 20.0672 159.936 20.0215L159.695 19.8548L159.813 20.1253C159.895 20.3416 159.911 20.577 159.859 20.8023C159.808 21.0277 159.691 21.2329 159.524 21.3925C159.307 21.58 159.026 21.6763 158.739 21.6611C158.452 21.6459 158.183 21.5204 157.987 21.311L157.846 21.1591L157.764 21.348C157.626 21.6659 157.411 21.9441 157.138 22.1569C156.864 22.3698 156.542 22.5105 156.2 22.5662C155.858 22.6219 155.507 22.5908 155.181 22.4757C154.854 22.3606 154.561 22.1652 154.33 21.9075L154.244 21.8075L154.141 21.8927C153.653 22.3034 153.062 22.5736 152.432 22.6745C151.941 22.7613 151.437 22.75 150.95 22.6412C150.511 22.5237 150.086 22.3571 149.683 22.1446C149.683 22.1446 149.768 22.2447 149.965 22.3818C150.254 22.5714 150.572 22.714 150.906 22.8042C151.419 22.9469 151.957 22.981 152.484 22.9042C153.164 22.8118 153.805 22.5336 154.337 22.1002H154.152C154.411 22.3962 154.74 22.6214 155.11 22.7546C155.48 22.8879 155.878 22.9247 156.266 22.8617C156.654 22.7987 157.02 22.6379 157.329 22.3944C157.638 22.151 157.879 21.833 158.031 21.4703L157.809 21.5073C158.02 21.7419 158.308 21.893 158.621 21.9332C158.934 21.9735 159.251 21.9002 159.514 21.7268C159.778 21.5533 159.971 21.2911 160.057 20.9878C160.144 20.6844 160.119 20.36 159.987 20.0734L159.865 20.1772C159.963 20.2356 160.076 20.264 160.19 20.2587C160.304 20.2534 160.414 20.2148 160.506 20.1475C160.572 20.0977 160.625 20.0332 160.662 19.9593C160.699 19.8854 160.718 19.8039 160.717 19.7214C160.699 19.4398 160.54 19.3472 160.54 19.3583Z" fill="#455A64"/>
<path d="M150.091 15.7977C150.091 15.82 150.217 15.7459 150.435 15.7347C150.587 15.7289 150.738 15.7552 150.878 15.8121C151.019 15.8689 151.146 15.955 151.251 16.0645C151.394 16.2364 151.494 16.4402 151.542 16.6588C151.591 16.8773 151.586 17.1043 151.528 17.3206C151.368 17.868 151.072 18.3662 150.669 18.7693L150.873 18.9657C151.013 18.8212 151.343 18.9657 151.432 19.1436C151.479 19.2621 151.501 19.3887 151.498 19.516C151.495 19.6433 151.466 19.7686 151.414 19.8846C151.251 20.3225 150.999 20.7214 150.673 21.0555C150.348 21.3525 149.995 21.618 149.62 21.8484C149.62 21.8484 149.757 21.8484 149.991 21.7484C150.298 21.6127 150.581 21.4274 150.828 21.2C151.201 20.8609 151.493 20.4415 151.68 19.9735C151.749 19.8266 151.786 19.6672 151.79 19.5053C151.793 19.3434 151.764 19.1824 151.703 19.0324C151.614 18.8589 151.461 18.7271 151.276 18.6656C151.18 18.6276 151.075 18.6164 150.972 18.6334C150.87 18.6504 150.774 18.6948 150.695 18.7619L150.899 18.9583C151.337 18.5189 151.649 17.9699 151.803 17.3688C151.863 17.1137 151.858 16.8476 151.789 16.5947C151.721 16.3418 151.59 16.1099 151.41 15.92C151.282 15.7997 151.127 15.7107 150.959 15.6599C150.79 15.6091 150.613 15.598 150.439 15.6273C150.165 15.6755 150.083 15.7866 150.091 15.7977Z" fill="#455A64"/>
<path d="M140.39 17.95C140.725 17.8163 141.077 17.7315 141.435 17.698C141.831 17.6826 142.223 17.7762 142.569 17.9685C143.005 18.2186 143.341 18.6112 143.521 19.0801L143.614 19.3209L143.758 19.106C143.908 18.893 144.121 18.7324 144.366 18.6469C144.612 18.5613 144.879 18.5552 145.128 18.6293C145.378 18.7035 145.597 18.8541 145.757 19.06C145.916 19.2659 146.006 19.5166 146.015 19.7767V19.9434L146.178 19.9064C146.418 19.8579 146.666 19.862 146.905 19.9183C147.143 19.9745 147.367 20.0817 147.56 20.2324C147.87 20.476 148.08 20.8235 148.153 21.2106C148.206 21.5658 148.183 21.9282 148.086 22.274C148.086 22.274 148.164 22.1962 148.234 22.0147C148.332 21.7482 148.361 21.4616 148.32 21.181C148.258 20.7475 148.039 20.3518 147.705 20.0694C147.487 19.8887 147.231 19.7585 146.957 19.688C146.683 19.6176 146.397 19.6086 146.119 19.6618L146.282 19.7915C146.279 19.4706 146.173 19.159 145.98 18.9026C145.787 18.6461 145.517 18.4583 145.21 18.3667C144.902 18.275 144.573 18.2845 144.271 18.3935C143.969 18.5026 143.71 18.7056 143.532 18.9727L143.77 19.0023C143.555 18.4817 143.161 18.0556 142.658 17.8018C142.273 17.6022 141.837 17.5198 141.406 17.5647C141.127 17.5914 140.856 17.6733 140.609 17.8055C140.461 17.8648 140.383 17.9241 140.39 17.95Z" fill="#455A64"/>
<path d="M140.439 8.51928C140.584 8.33298 140.771 8.18222 140.983 8.07835C141.228 7.96807 141.506 7.95875 141.758 8.05241C141.918 8.11369 142.061 8.21325 142.174 8.34242C142.287 8.47158 142.367 8.62643 142.406 8.79346L142.528 9.34925L142.621 8.78605C142.676 8.50511 142.81 8.24558 143.006 8.03764C143.203 7.82971 143.455 7.68193 143.733 7.61149C144.057 7.54662 144.393 7.59197 144.689 7.74035C144.984 7.88872 145.221 8.13159 145.363 8.43035L145.418 8.55633L145.548 8.50075C145.719 8.42772 145.903 8.39233 146.089 8.397C146.407 8.39108 146.717 8.49085 146.972 8.68064C147.227 8.87044 147.412 9.1395 147.497 9.44559C147.563 9.72117 147.551 10.0097 147.462 10.2787C147.373 10.5478 147.211 10.7866 146.993 10.9684L146.652 11.2241L147.075 11.1833C147.288 11.1675 147.501 11.2106 147.691 11.308C147.881 11.4054 148.041 11.5533 148.153 11.7354C148.238 11.879 148.289 12.0402 148.302 12.2066C148.315 12.373 148.289 12.5401 148.227 12.6951C148.109 12.9742 147.912 13.2126 147.66 13.3806C147.66 13.3806 147.753 13.3806 147.894 13.2879C148.098 13.153 148.257 12.961 148.353 12.7358C148.435 12.5609 148.475 12.3689 148.469 12.1756C148.462 11.9823 148.41 11.7933 148.316 11.6243C148.192 11.4012 148.007 11.218 147.782 11.096C147.558 10.974 147.304 10.9182 147.049 10.9351L147.134 11.15C147.395 10.9425 147.592 10.6653 147.702 10.3506C147.812 10.0359 147.831 9.69646 147.756 9.37148C147.658 9.00585 147.441 8.68333 147.139 8.45462C146.837 8.22591 146.468 8.10398 146.089 8.10799C145.865 8.1069 145.643 8.15101 145.437 8.23768L145.622 8.31178C145.474 7.97706 145.221 7.69957 144.901 7.52107C144.582 7.34257 144.213 7.27273 143.85 7.32204C143.487 7.37136 143.15 7.53717 142.89 7.79452C142.629 8.05187 142.46 8.38684 142.406 8.749H142.625C142.572 8.55076 142.471 8.36869 142.331 8.21926C142.191 8.06982 142.015 7.95772 141.821 7.89309C141.675 7.84657 141.522 7.82949 141.37 7.84285C141.218 7.85621 141.07 7.89974 140.935 7.9709C140.768 8.05723 140.625 8.18474 140.52 8.34142C140.446 8.44888 140.431 8.51557 140.439 8.51928Z" fill="#455A64"/>
<path d="M132.139 10.5578C132.392 10.3879 132.69 10.2999 132.995 10.3058C133.166 10.3097 133.333 10.3536 133.484 10.4341C133.634 10.5145 133.764 10.6292 133.862 10.769C133.981 10.95 134.047 11.1604 134.054 11.377C134.06 11.5935 134.007 11.8076 133.899 11.9954L133.417 12.7698L134.073 12.1325C134.259 11.9691 134.494 11.8724 134.741 11.8576C134.988 11.8428 135.233 11.9109 135.437 12.051C135.652 12.2269 135.791 12.479 135.826 12.755C135.86 13.0309 135.787 13.3096 135.622 13.5331L135.855 13.6813C135.921 13.5434 136.014 13.4198 136.127 13.3175C136.241 13.2153 136.374 13.1365 136.518 13.0856C136.662 13.0347 136.815 13.0126 136.968 13.0208C137.12 13.0289 137.27 13.067 137.408 13.1329C137.546 13.1989 137.669 13.2913 137.772 13.405C137.874 13.5187 137.953 13.6515 138.003 13.7956C138.054 13.9398 138.076 14.0926 138.068 14.2452C138.06 14.3979 138.022 14.5475 137.956 14.6854L138.171 14.641C138.099 14.5569 138.059 14.4498 138.059 14.339C138.059 14.2282 138.099 14.121 138.171 14.037C138.248 13.9544 138.346 13.8946 138.454 13.8645C138.563 13.8344 138.678 13.8351 138.786 13.8666C139.002 13.9433 139.193 14.0767 139.34 14.2527C139.487 14.4287 139.583 14.6408 139.62 14.867L139.835 14.7929C139.796 14.6898 139.789 14.5778 139.813 14.4705C139.838 14.3633 139.893 14.2655 139.972 14.1889C140.041 14.1125 140.127 14.0529 140.222 14.0143C140.318 13.9758 140.421 13.9595 140.524 13.9666C140.702 13.9821 140.875 14.0331 141.032 14.1164C141.19 14.1998 141.33 14.3139 141.443 14.452C141.813 14.9226 141.965 15.2635 141.999 15.2412C141.982 15.1566 141.952 15.0752 141.91 15.0004C141.812 14.7763 141.688 14.5648 141.539 14.3705C141.42 14.2103 141.269 14.0766 141.095 13.9778C140.922 13.8789 140.73 13.8171 140.531 13.7962C140.4 13.7853 140.268 13.8036 140.144 13.8497C140.02 13.8958 139.908 13.9686 139.816 14.063C139.706 14.1685 139.629 14.304 139.594 14.4528C139.56 14.6016 139.57 14.7572 139.623 14.9003L139.835 14.8225C139.779 14.572 139.675 14.3344 139.531 14.1222C139.369 13.8801 139.124 13.706 138.842 13.6331C138.686 13.5871 138.52 13.5868 138.363 13.6321C138.207 13.6774 138.067 13.7665 137.96 13.8888C137.846 14.0269 137.785 14.2017 137.79 14.3809C137.795 14.5601 137.864 14.7315 137.986 14.8633L138.123 14.993L138.204 14.8188C138.342 14.479 138.345 14.0996 138.213 13.7577C138.08 13.4158 137.823 13.1372 137.492 12.9786C137.162 12.8199 136.783 12.7932 136.434 12.9038C136.084 13.0144 135.79 13.254 135.611 13.5739L135.844 13.7221C136.045 13.4629 136.141 13.1371 136.111 12.8103C136.082 12.4836 135.929 12.1801 135.685 11.9612C135.441 11.7422 135.123 11.624 134.795 11.6304C134.467 11.6367 134.153 11.7672 133.917 11.9954L134.092 12.1325C134.219 11.9065 134.279 11.6485 134.263 11.3894C134.247 11.1304 134.157 10.8815 134.003 10.6727C133.807 10.4238 133.526 10.2569 133.214 10.2048C132.902 10.1527 132.582 10.2191 132.317 10.3911C132.183 10.48 132.135 10.5504 132.139 10.5578Z" fill="#263238"/>
<path d="M165.356 39.2295C165.356 39.2295 165.267 39.2295 165.127 39.1665C165.029 39.1227 164.941 39.0593 164.868 38.9803C164.796 38.9013 164.74 38.8083 164.704 38.707C164.641 38.5531 164.617 38.3857 164.634 38.2201C164.651 38.0544 164.71 37.8958 164.804 37.7585C165.071 37.395 165.411 37.0909 165.801 36.8655L165.664 36.6729C165.399 36.8467 165.09 36.9429 164.774 36.9508C164.457 36.9586 164.144 36.8778 163.871 36.7173C163.564 36.532 163.331 36.2459 163.212 35.908C163.093 35.57 163.096 35.2012 163.218 34.8647C163.295 34.6314 163.421 34.4176 163.589 34.2385C163.727 34.07 163.92 33.9557 164.134 33.9162C164.293 33.9162 164.412 34.1237 164.4 34.3126C164.394 34.4061 164.36 34.4955 164.301 34.5689C164.243 34.6423 164.164 34.6964 164.074 34.7239C163.881 34.7806 163.678 34.7963 163.479 34.7702C163.279 34.744 163.087 34.6765 162.915 34.572C162.589 34.4006 162.315 34.1446 162.122 33.8309C161.844 33.3711 161.751 32.8227 161.862 32.297C161.94 31.9264 162.062 31.7338 162.037 31.7227C161.896 31.8758 161.798 32.0639 161.755 32.2673C161.674 32.5442 161.649 32.8345 161.683 33.121C161.717 33.4075 161.808 33.6842 161.951 33.9347C162.153 34.2845 162.446 34.5727 162.8 34.7684C163.002 34.8955 163.228 34.9781 163.465 35.0107C163.701 35.0433 163.942 35.0251 164.171 34.9573C164.301 34.9085 164.416 34.8283 164.508 34.7239C164.608 34.6097 164.666 34.4644 164.671 34.3126C164.68 34.1618 164.642 34.0118 164.563 33.8828C164.52 33.8099 164.46 33.7486 164.387 33.704C164.315 33.6595 164.233 33.6331 164.148 33.6272C163.992 33.6284 163.84 33.6761 163.711 33.7642C163.592 33.8409 163.483 33.9317 163.385 34.0347C163.189 34.2471 163.042 34.5001 162.955 34.7758C162.82 35.1835 162.82 35.6241 162.955 36.0319C163.094 36.4219 163.371 36.7476 163.734 36.9471C164.051 37.1296 164.414 37.2181 164.78 37.2024C165.146 37.1866 165.5 37.0672 165.801 36.8581L165.664 36.6692C165.253 36.9188 164.902 37.2567 164.638 37.6585C164.534 37.8233 164.474 38.012 164.463 38.2065C164.453 38.4011 164.492 38.5951 164.578 38.77C164.625 38.8825 164.697 38.9832 164.787 39.0652C164.877 39.1471 164.984 39.2083 165.101 39.2443C165.267 39.2739 165.356 39.2369 165.356 39.2295Z" fill="#263238"/>
<path d="M149.342 12.2806C149.342 12.2806 149.394 12.3361 149.513 12.4102C149.683 12.5186 149.863 12.6104 150.05 12.6844C150.355 12.8215 150.697 12.8515 151.021 12.7697C151.226 12.708 151.411 12.5914 151.554 12.4325C151.64 12.3402 151.703 12.2291 151.738 12.1082C151.774 11.9873 151.781 11.8599 151.758 11.7359L151.614 11.8582C151.738 11.9089 151.87 11.9345 152.004 11.9334C152.138 11.9324 152.271 11.9048 152.394 11.8521C152.517 11.7995 152.629 11.7229 152.722 11.6269C152.815 11.5308 152.889 11.4171 152.938 11.2925C152.987 11.1678 153.011 11.0347 153.008 10.9007C153.005 10.7668 152.976 10.6348 152.921 10.5123C152.867 10.3898 152.789 10.2793 152.692 10.1872C152.595 10.0952 152.48 10.0233 152.355 9.9759L152.299 10.2353C152.573 10.2445 152.84 10.1524 153.05 9.97666C153.26 9.80094 153.398 9.55396 153.437 9.28302C153.472 8.99778 153.406 8.70926 153.252 8.46668C153.098 8.2241 152.865 8.04249 152.592 7.95283C152.369 7.86731 152.128 7.83804 151.892 7.86761L151.969 8.13439C152.155 8.04982 152.318 7.9241 152.447 7.7668C152.576 7.60951 152.668 7.42479 152.715 7.22673C152.762 7.02866 152.763 6.82247 152.719 6.62387C152.674 6.42527 152.584 6.23949 152.457 6.0807C152.33 5.92191 152.168 5.79428 151.984 5.70756C151.799 5.62083 151.598 5.57728 151.394 5.58023C151.191 5.58319 150.991 5.63256 150.809 5.7246C150.627 5.81664 150.469 5.9489 150.346 6.11133H150.532C150.349 5.8969 150.11 5.7376 149.842 5.65122C149.573 5.56485 149.286 5.55481 149.013 5.62223C148.678 5.71515 148.388 5.9272 148.198 6.21853C148.009 6.50987 147.932 6.86044 147.982 7.20437C147.988 7.29728 148.019 7.38691 148.071 7.46374C148.019 7.13009 148.067 6.78852 148.209 6.48185C148.289 6.3127 148.407 6.16408 148.553 6.04724C148.7 5.9304 148.871 5.84841 149.053 5.8075C149.289 5.75804 149.534 5.77362 149.762 5.85259C149.99 5.93156 150.192 6.07094 150.346 6.25583L150.439 6.3744L150.532 6.25213C150.735 6.02326 151.02 5.88393 151.325 5.8645C151.631 5.84507 151.932 5.9471 152.162 6.14838C152.276 6.27463 152.359 6.42522 152.405 6.58859C152.451 6.75197 152.46 6.92378 152.429 7.09085C152.399 7.25792 152.331 7.41581 152.23 7.55238C152.129 7.68896 151.998 7.8006 151.847 7.87873L151.039 8.24925L151.925 8.1418C152.114 8.11679 152.307 8.14103 152.484 8.2122C152.696 8.27648 152.879 8.41265 153.002 8.59728C153.124 8.78191 153.178 9.00344 153.155 9.22373C153.126 9.42652 153.026 9.6124 152.873 9.74815C152.719 9.8839 152.522 9.96069 152.318 9.96478L151.173 9.84992L152.262 10.2204C152.362 10.2597 152.453 10.3188 152.53 10.3942C152.606 10.4695 152.667 10.5596 152.707 10.6589C152.748 10.7583 152.769 10.8648 152.767 10.9722C152.766 11.0796 152.743 11.1856 152.699 11.2839C152.604 11.4528 152.452 11.5826 152.27 11.6504C152.089 11.7182 151.889 11.7196 151.706 11.6544L151.514 11.5729L151.558 11.7729C151.573 11.9574 151.523 12.1414 151.417 12.293C151.311 12.4446 151.155 12.5542 150.976 12.6029C150.687 12.682 150.38 12.6691 150.098 12.5659C149.609 12.4065 149.353 12.2546 149.342 12.2806Z" fill="#263238"/>
<path d="M143.162 33.6052C143.08 33.5607 139.827 32.2305 139.568 35.6801C139.308 39.1297 142.843 38.6665 142.854 38.5665C142.866 38.4664 143.162 33.6052 143.162 33.6052Z" fill="#FFBE9D"/>
<path d="M141.891 37.1914C141.891 37.1914 141.828 37.2285 141.724 37.2692C141.576 37.3184 141.415 37.3105 141.272 37.247C140.902 37.0877 140.65 36.506 140.679 35.8612C140.691 35.5652 140.769 35.2755 140.905 35.0127C140.946 34.9074 141.011 34.8134 141.096 34.7386C141.18 34.6638 141.281 34.6104 141.391 34.5829C141.461 34.57 141.534 34.5817 141.597 34.6162C141.66 34.6506 141.709 34.7056 141.735 34.7719C141.773 34.8719 141.735 34.9386 141.765 34.9461C141.795 34.9535 141.843 34.8942 141.824 34.7497C141.813 34.6627 141.771 34.5826 141.706 34.5237C141.615 34.4474 141.498 34.4077 141.38 34.4125C141.236 34.4307 141.099 34.4856 140.982 34.5719C140.865 34.6581 140.773 34.773 140.713 34.9053C140.545 35.1943 140.451 35.52 140.439 35.8538C140.409 36.5504 140.72 37.2248 141.209 37.4063C141.3 37.4391 141.397 37.4511 141.494 37.4415C141.59 37.4318 141.682 37.4009 141.765 37.3508C141.88 37.2655 141.902 37.1914 141.891 37.1914Z" fill="#EB996E"/>
<path d="M152.114 39.1922C152.252 39.0604 152.42 38.9635 152.603 38.9097C152.786 38.856 152.98 38.8468 153.167 38.8831C153.355 38.9194 153.531 39 153.681 39.1182C153.831 39.2365 153.95 39.3889 154.029 39.5627C154.093 39.707 154.125 39.8628 154.125 40.0203C154.125 40.1778 154.093 40.3337 154.029 40.4779C153.933 40.6753 153.778 40.8385 153.586 40.9458C153.394 41.053 153.174 41.0992 152.955 41.0782C152.737 41.0481 152.533 40.951 152.373 40.8004C152.212 40.6497 152.102 40.4529 152.058 40.2371C151.977 39.8036 151.84 39.2923 152.225 39.0848" fill="#EB996E"/>
<path d="M152.062 38.3027C152.192 38.3027 152.251 39.1549 153.036 39.7255C153.822 40.2962 154.741 40.1368 154.759 40.2554C154.759 40.311 154.563 40.4407 154.17 40.474C153.662 40.5176 153.155 40.3783 152.74 40.0813C152.339 39.7975 152.065 39.3679 151.977 38.8845C151.921 38.5288 152.018 38.3027 152.062 38.3027Z" fill="#263238"/>
<path d="M139.112 49.4433L141.465 49.0469L154.704 50.2214L159.428 52.4668L160.684 53.2079C160.684 53.2079 155.76 60.0626 150.713 59.692C145.667 59.3215 136.952 52.1259 136.952 52.1259L136.911 49.7731L139.112 49.4433Z" fill="#FFBE9D"/>
<path d="M176.472 60.6377L165.649 54.3833C164.308 53.9386 158.057 51.8155 158.057 51.8155C158.057 51.8155 153.203 59.5224 149.187 59.0259C147.015 58.7591 144.37 56.8806 142.417 55.2169C140.736 53.7886 139.302 52.0937 138.171 50.2L137.734 49.459C135.833 49.459 129.919 50.8855 127.83 51.4079C127.332 51.5301 126.881 51.7954 126.533 52.1712C125.373 53.4125 123.131 55.7764 122.657 58.0996C122.201 60.3228 120.345 67.4776 120.345 67.4776L173.623 65.8473L176.472 60.6377Z" fill="#016CDE"/>
<path d="M193.587 60.8184C192.775 61.1889 186.061 63.475 185.761 63.8159C185.461 64.1568 176.254 60.9036 176.254 60.9036L173.623 65.8871L197.373 65.3721L193.587 60.8184Z" fill="#FFBE9D"/>
<path d="M133.043 59.2044C133.01 59.2044 132.898 58.7783 132.572 58.141C132.135 57.3144 131.567 56.5637 130.89 55.9179C130.209 55.2775 129.483 54.6857 128.719 54.1468C128.393 53.9332 128.084 53.6941 127.796 53.4316C128.147 53.6018 128.482 53.8027 128.797 54.0319C129.591 54.5441 130.335 55.1296 131.02 55.7808C131.712 56.4353 132.279 57.2114 132.691 58.0706C132.813 58.3305 132.911 58.6008 132.984 58.8784C133.022 58.9827 133.042 59.0931 133.043 59.2044Z" fill="#263238"/>
<path d="M165.023 63.9433C164.965 63.5757 164.943 63.2035 164.956 62.8317C164.956 62.1462 164.956 61.2014 165.001 60.1565C165.045 59.1116 165.134 58.1705 165.208 57.4924C165.23 57.1172 165.289 56.7449 165.382 56.3809C165.398 56.7518 165.386 57.1234 165.345 57.4924C165.304 58.2335 165.253 59.1487 165.197 60.1565C165.141 61.1643 165.123 62.0795 165.093 62.8206C165.103 63.1961 165.079 63.5718 165.023 63.9433Z" fill="#263238"/>
<path d="M139.879 53.0615C139.879 53.0615 139.857 53.1022 139.801 53.1689C139.719 53.2682 139.627 53.3588 139.527 53.4394C139.164 53.7449 138.736 53.9618 138.275 54.073C137.585 54.2485 136.858 54.2018 136.196 53.9396C135.808 53.7788 135.456 53.5434 135.159 53.2467C134.844 52.9503 134.562 52.6131 134.236 52.3167C133.632 51.7526 132.839 51.433 132.013 51.42C131.335 51.4075 130.67 51.6084 130.112 51.9944C129.732 52.2524 129.406 52.5821 129.152 52.9651C128.975 53.2356 128.904 53.4061 128.886 53.3986C128.891 53.3538 128.904 53.3101 128.923 53.269C128.971 53.1507 129.027 53.0356 129.089 52.9244C129.386 52.4122 129.813 51.9872 130.326 51.692C130.839 51.3967 131.421 51.2416 132.013 51.2422C132.89 51.2438 133.735 51.5774 134.377 52.1759C134.714 52.4834 134.996 52.8243 135.299 53.1096C135.579 53.3913 135.91 53.6176 136.274 53.7766C136.8 53.99 137.372 54.0657 137.935 53.9963C138.499 53.9269 139.035 53.7148 139.494 53.3801C139.746 53.1912 139.861 53.0429 139.879 53.0615Z" fill="white"/>
<path d="M164.656 58.855C164.656 58.855 164.541 58.655 164.286 58.3067C163.888 57.8072 163.393 57.3948 162.829 57.0951C161.94 56.6084 160.913 56.436 159.913 56.606C159.262 56.7345 158.645 57.0016 158.106 57.3889C157.566 57.7763 157.116 58.275 156.786 58.8513C156.394 59.5173 156.209 60.2845 156.253 61.056C156.28 61.4518 156.408 61.8343 156.623 62.1675C156.862 62.5093 157.207 62.7621 157.605 62.8864C157.807 62.9499 158.022 62.9659 158.231 62.9331C158.441 62.9004 158.64 62.8197 158.813 62.6974C159.176 62.4404 159.433 62.0596 159.535 61.6266C159.633 61.178 159.573 60.7095 159.365 60.3001C159.159 59.8723 158.848 59.5038 158.461 59.2293C157.63 58.6733 156.622 58.4486 155.634 58.5994C154.6 58.7437 153.617 59.138 152.77 59.748C150.999 60.9374 149.602 62.7456 147.634 63.9609C146.665 64.575 145.553 64.9285 144.407 64.9872C143.296 65.0466 142.187 64.8342 141.176 64.3685C140.188 63.9332 139.351 63.2167 138.767 62.3083C138.489 61.8698 138.305 61.3782 138.227 60.8648C138.148 60.3514 138.177 59.8273 138.312 59.3256C138.424 58.8406 138.66 58.3931 138.997 58.0267C139.334 57.6604 139.761 57.3879 140.235 57.2359C140.686 57.111 141.162 57.1047 141.616 57.2176C142.071 57.3306 142.488 57.5589 142.828 57.8806C143.143 58.2058 143.343 58.6246 143.399 59.0737C143.443 59.5018 143.373 59.934 143.195 60.326C142.863 61.0636 142.269 61.6513 141.528 61.9749C140.852 62.2386 140.116 62.3117 139.401 62.1861C138.771 62.0773 138.161 61.8763 137.589 61.5895C136.691 61.1103 135.839 60.5497 135.044 59.9147C134.377 59.4108 133.851 59.0366 133.476 58.8032C133.291 58.6883 133.15 58.5994 133.05 58.5438C132.95 58.4882 132.906 58.4549 132.906 58.4549C132.906 58.4549 132.961 58.4771 133.061 58.529C133.161 58.5809 133.31 58.6587 133.499 58.7698C133.869 58.9959 134.418 59.359 135.088 59.8518C135.885 60.4747 136.737 61.0229 137.634 61.4895C138.198 61.7672 138.799 61.9607 139.42 62.0638C140.112 62.1812 140.823 62.1069 141.476 61.8489C142.181 61.5353 142.745 60.9716 143.058 60.2667C143.223 59.8984 143.288 59.4935 143.247 59.0922C143.197 58.6728 143.01 58.2819 142.714 57.9806C142.393 57.678 142 57.464 141.572 57.3594C141.144 57.2548 140.696 57.2633 140.272 57.3841C139.827 57.5291 139.427 57.7869 139.112 58.1324C138.796 58.4778 138.575 58.8991 138.471 59.3553C138.345 59.8338 138.319 60.3332 138.395 60.8222C138.471 61.3112 138.647 61.7793 138.912 62.1972C139.479 63.0718 140.289 63.762 141.243 64.1832C142.228 64.6337 143.307 64.8396 144.388 64.7834C145.5 64.7229 146.578 64.3785 147.519 63.783C149.45 62.5936 150.854 60.7892 152.651 59.5776C153.528 58.9491 154.546 58.5446 155.615 58.3993C156.652 58.2441 157.71 58.4834 158.579 59.07C158.99 59.3637 159.32 59.7562 159.539 60.2112C159.757 60.6586 159.818 61.1661 159.713 61.6525C159.601 62.1255 159.319 62.5408 158.92 62.8197C158.726 62.9539 158.505 63.0423 158.272 63.0782C158.039 63.1142 157.801 63.0967 157.575 63.0272C157.145 62.8885 156.771 62.6126 156.512 62.2416C156.273 61.8826 156.131 61.4677 156.101 61.0374C156.057 60.2375 156.253 59.4428 156.664 58.755C157.006 58.1648 157.472 57.6552 158.029 57.2607C158.585 56.8662 159.221 56.5962 159.891 56.4689C160.911 56.3033 161.956 56.4902 162.855 56.9987C163.424 57.31 163.92 57.7381 164.311 58.2548C164.448 58.4416 164.564 58.6429 164.656 58.855Z" fill="white"/>
<path d="M172.274 58.2076C172.25 58.3144 172.21 58.4169 172.156 58.5114C172.023 58.7807 171.863 59.0353 171.678 59.271C171.404 59.6217 171.082 59.9323 170.722 60.1936C170.281 60.5141 169.802 60.7768 169.295 60.9754C168.37 61.3379 167.368 61.459 166.383 61.3274C166.087 61.2856 165.796 61.2187 165.512 61.1273C165.405 61.1033 165.303 61.0593 165.212 60.9977C165.212 60.9643 165.66 61.1199 166.398 61.1903C167.358 61.2821 168.327 61.1463 169.225 60.7939C170.128 60.4578 170.935 59.9042 171.574 59.1821C172.048 58.6189 172.241 58.1891 172.274 58.2076Z" fill="white"/>
<path d="M175.731 60.5343C175.731 60.5343 175.612 60.475 175.386 60.4157C175.069 60.3401 174.737 60.3477 174.423 60.4379C173.959 60.59 173.527 60.8262 173.148 61.1345C172.7 61.468 172.222 61.8533 171.741 62.2794C170.916 63.0099 170.15 63.8027 169.447 64.6508C168.902 65.2992 168.598 65.7253 168.573 65.7105C168.619 65.5946 168.68 65.485 168.754 65.3844C168.884 65.188 169.08 64.9027 169.339 64.5656C170.018 63.685 170.778 62.8711 171.611 62.1349C172.068 61.7293 172.547 61.3484 173.045 60.9937C173.443 60.6782 173.9 60.4452 174.39 60.3082C174.726 60.2222 175.08 60.235 175.409 60.3453C175.532 60.3772 175.643 60.4426 175.731 60.5343Z" fill="white"/>
<path d="M160.966 53.2832C160.822 53.4538 160.642 53.5904 160.439 53.6834C159.495 54.2115 158.389 54.37 157.334 54.128C157.113 54.0952 156.902 54.0143 156.716 53.8909C157.434 54.0393 158.171 54.078 158.902 54.0057C159.623 53.8715 160.319 53.6279 160.966 53.2832Z" fill="white"/>
<path d="M129.012 66.1701C129.02 65.6246 128.998 65.0791 128.945 64.5361C128.78 63.2329 128.269 61.9979 127.463 60.9605C127.017 60.3976 126.496 59.8988 125.914 59.4784C125.434 59.1367 124.911 58.8613 124.358 58.6595C123.84 58.4915 123.311 58.3578 122.776 58.2594C122.922 58.2391 123.07 58.2391 123.217 58.2594C123.62 58.3007 124.018 58.3865 124.402 58.515C124.975 58.7041 125.518 58.9749 126.014 59.3191C126.62 59.7437 127.159 60.2556 127.615 60.8382C128.448 61.8989 128.962 63.1752 129.097 64.5175C129.136 64.9204 129.136 65.3262 129.097 65.7291C129.087 65.8791 129.059 66.0273 129.012 66.1701Z" fill="white"/>
<g opacity="0.3">
<path d="M132.784 64.302C132.493 64.0823 132.148 63.9462 131.785 63.9083C131.423 63.8704 131.057 63.9322 130.727 64.0871C130.449 64.2204 130.205 64.4205 129.919 64.5428C129.781 64.6144 129.627 64.6473 129.471 64.6382C129.316 64.6291 129.166 64.5782 129.038 64.4909C128.83 64.3168 128.771 64.0204 128.611 63.8018C128.311 63.3979 127.722 63.3349 127.226 63.4312C126.743 63.5703 126.245 63.6512 125.744 63.6721C125.254 63.58 124.774 63.4424 124.31 63.2608C123.768 63.125 123.198 63.1451 122.667 63.3188C122.136 63.4925 121.665 63.8128 121.308 64.2427L120.412 66.8956L133.491 66.2361C133.56 65.8798 133.53 65.5117 133.405 65.171C133.281 64.8303 133.066 64.5299 132.784 64.302Z" fill="black"/>
</g>
<path d="M137.197 66.0104C137.163 66.0104 137.048 65.6659 136.689 65.199C136.23 64.5864 135.579 64.1461 134.839 63.9491C134.1 63.7522 133.316 63.81 132.613 64.1134C132.068 64.3394 131.791 64.595 131.768 64.5654C131.746 64.5358 131.824 64.4876 131.95 64.3764C132.136 64.2231 132.34 64.0925 132.558 63.9874C133.282 63.6281 134.113 63.5447 134.895 63.7526C135.677 63.9605 136.357 64.4456 136.807 65.1175C136.945 65.3152 137.057 65.5293 137.141 65.7548C137.176 65.8354 137.195 65.9224 137.197 66.0104Z" fill="white"/>
<g opacity="0.3">
<path d="M168.206 64.6687C167.319 64.491 166.489 64.0978 165.79 63.5238C165.134 62.9124 164.764 61.9083 165.123 61.082C164.526 62.4479 163.547 63.6122 162.304 64.4351C161.061 65.258 159.607 65.7046 158.116 65.721L170.759 65.5135C169.946 65.127 169.088 64.8432 168.206 64.6687Z" fill="black"/>
</g>
<path d="M153.474 33.2487C153.433 32.937 153.375 32.6277 153.299 32.3224C153.064 31.4993 152.559 30.779 151.866 30.2771C151.357 29.9082 150.764 29.6726 150.14 29.5917C149.517 29.5108 148.884 29.5872 148.297 29.814C147.605 30.0782 147.007 30.5441 146.582 31.1516C146.121 31.8004 145.879 32.5798 145.892 33.3758C145.906 34.1718 146.173 34.9426 146.656 35.5756C146.88 35.8789 147.152 36.1442 147.46 36.3612C147.752 36.5734 148.074 36.7408 148.416 36.8577C148.914 37.0283 149.442 37.0934 149.967 37.049C150.492 37.0046 151.001 36.8516 151.464 36.5997C151.926 36.3478 152.331 36.0025 152.653 35.5857C152.974 35.1689 153.206 34.6898 153.333 34.1788C153.396 33.8714 153.443 33.561 153.474 33.2487C153.501 33.5652 153.478 33.884 153.407 34.1936C153.219 35.0563 152.74 35.8282 152.051 36.3797C151.538 36.7922 150.93 37.0678 150.281 37.1805C149.633 37.2933 148.967 37.2396 148.346 37.0244C147.61 36.773 146.965 36.3088 146.493 35.6905C145.985 35.0255 145.703 34.2151 145.689 33.3783C145.675 32.5414 145.93 31.7221 146.415 31.0404C146.867 30.4073 147.496 29.9224 148.223 29.6472C148.879 29.3979 149.589 29.33 150.28 29.4509C151.013 29.5799 151.694 29.9176 152.241 30.4236C152.788 30.9295 153.177 31.5824 153.362 32.3039C153.449 32.611 153.487 32.9299 153.474 33.2487Z" fill="#455A64"/>
<path d="M163.104 33.0819C163.062 32.7702 163.004 32.461 162.929 32.1555C162.694 31.3326 162.187 30.6132 161.492 30.1139C161.02 29.7682 160.472 29.5385 159.895 29.4433C159.233 29.3359 158.554 29.4062 157.927 29.6471C157.588 29.7746 157.271 29.9533 156.986 30.1769C156.685 30.4032 156.424 30.6773 156.212 30.9884C155.747 31.6357 155.503 32.4157 155.516 33.2127C155.529 34.0097 155.799 34.7811 156.286 35.4124C156.51 35.7146 156.782 35.9786 157.09 36.1943C157.38 36.41 157.703 36.5777 158.046 36.6908C158.639 36.8979 159.275 36.9528 159.895 36.8505C160.516 36.7482 161.1 36.492 161.596 36.1053C162.273 35.58 162.754 34.843 162.963 34.0119C163.026 33.7046 163.073 33.3941 163.104 33.0819C163.13 33.3998 163.107 33.7199 163.033 34.0304C162.849 34.8928 162.371 35.6644 161.681 36.2128C161.169 36.6262 160.56 36.9027 159.912 37.0161C159.264 37.1295 158.597 37.0762 157.976 36.8612C157.617 36.7413 157.278 36.5677 156.971 36.3462C156.647 36.1203 156.36 35.8438 156.123 35.5273C155.618 34.8634 155.339 34.0549 155.327 33.2207C155.315 32.3864 155.57 31.5703 156.056 30.892C156.282 30.5673 156.559 30.2809 156.875 30.0435C157.175 29.8129 157.507 29.628 157.861 29.4952C158.518 29.2487 159.229 29.1822 159.921 29.3025C160.654 29.4316 161.334 29.7689 161.881 30.2742C162.428 30.7794 162.817 31.4312 163.004 32.1518C163.085 32.4548 163.119 32.7685 163.104 33.0819Z" fill="#455A64"/>
<path d="M145.856 32.6152C145.426 32.8916 144.954 33.0967 144.459 33.2229C143.984 33.4055 143.484 33.513 142.977 33.5415C143.436 33.3299 143.913 33.1612 144.403 33.0376C144.874 32.855 145.36 32.7137 145.856 32.6152Z" fill="#455A64"/>
<path d="M155.819 32.1517C155.398 32.0932 154.973 32.0734 154.548 32.0924C154.131 32.1769 153.723 32.3009 153.329 32.4629C153.642 32.1311 154.071 31.9333 154.526 31.9108C154.972 31.819 155.436 31.9054 155.819 32.1517Z" fill="#455A64"/>
<path d="M148.357 36.1983C148.137 36.1766 147.926 36.0988 147.745 35.9723C147.283 35.7056 146.901 35.319 146.64 34.8534C146.38 34.3878 146.249 33.8603 146.263 33.3268C146.248 33.1073 146.29 32.8875 146.386 32.6895C146.415 32.6895 146.386 32.9377 146.386 33.3268C146.411 33.8308 146.553 34.322 146.801 34.7614C147.049 35.2007 147.397 35.576 147.816 35.8574C148.138 36.0798 148.368 36.1687 148.357 36.1983Z" fill="white"/>
<path d="M157.883 35.9234C157.677 35.8997 157.48 35.8231 157.312 35.7011C156.88 35.4438 156.523 35.0787 156.275 34.6414C156.032 34.2025 155.905 33.7091 155.904 33.2075C155.886 33.0006 155.922 32.7925 156.008 32.6035C156.032 32.8015 156.043 33.0007 156.041 33.2001C156.081 33.6725 156.222 34.1311 156.453 34.5451C156.688 34.956 157.009 35.3112 157.394 35.5862C157.563 35.6887 157.727 35.8013 157.883 35.9234Z" fill="white"/>
<path d="M105.205 66.6889C105.205 66.6889 104.22 126.266 112.442 166.338L214.977 166.019L188.136 66.2109L105.205 66.6889Z" fill="#E0E0E0"/>
<path d="M105.205 66.6886L188.136 66.1328H188.196L188.214 66.1884C195.858 94.6076 205.088 128.9 215.07 165.993L215.103 166.115H214.977L206.825 166.141L112.442 166.423H112.371V166.356C112.026 164.513 111.686 162.692 111.352 160.891C111.193 159.987 111.008 159.094 110.867 158.197C110.726 157.3 110.597 156.411 110.459 155.526C110.193 153.75 109.927 151.997 109.663 150.268C109.443 148.539 109.227 146.822 109.014 145.118C108.908 144.273 108.802 143.432 108.696 142.594C108.592 141.757 108.514 140.923 108.425 140.097C108.255 138.439 108.086 136.807 107.918 135.199C107.736 133.591 107.625 131.997 107.484 130.43C107.343 128.863 107.217 127.321 107.088 125.806C106.147 113.649 105.709 103.015 105.454 94.2556C105.198 85.4964 105.161 78.601 105.157 73.899C105.157 71.5462 105.157 69.7454 105.183 68.5301C105.183 67.9224 105.191 67.463 105.205 67.1518C105.205 66.859 105.205 66.7294 105.205 66.6886C105.205 66.8665 105.205 69.2193 105.205 73.899C105.205 78.5787 105.287 85.4927 105.546 94.2519C105.806 103.011 106.287 113.641 107.221 125.795C107.354 127.31 107.488 128.855 107.621 130.419C107.755 131.982 107.877 133.576 108.058 135.184C108.24 136.792 108.399 138.426 108.573 140.078C108.662 140.905 108.74 141.738 108.844 142.576C108.948 143.413 109.055 144.254 109.163 145.099C109.378 146.796 109.595 148.512 109.815 150.246C110.081 151.976 110.345 153.729 110.615 155.5C110.753 156.384 110.89 157.274 111.026 158.171C111.163 159.068 111.352 159.961 111.512 160.861C111.848 162.662 112.187 164.482 112.531 166.323L112.449 166.256L206.833 165.945L214.984 165.923L214.892 166.041C204.925 128.948 195.706 94.6484 188.07 66.2329L188.147 66.2884L105.205 66.6886Z" fill="#263238"/>
<path d="M105.205 66.6882C105.205 66.6882 105.12 74.5396 106.45 88.5195C107.328 97.7826 107.232 109.917 109.685 125.398C114.872 158.104 117.596 163.106 117.596 163.106L217.6 162.428L190.986 65.2246L105.205 66.6882Z" fill="#EBEBEB"/>
<path d="M105.205 66.6877L190.986 65.1426H191.049V65.2019C198.704 93.0283 207.848 126.435 217.708 162.428L217.741 162.55H217.619L212.168 162.587L117.596 163.187H117.559L117.537 163.143C117.174 162.299 116.867 161.433 116.618 160.549C116.351 159.686 116.117 158.815 115.877 157.955C115.636 157.096 115.432 156.229 115.228 155.362C115.024 154.495 114.828 153.646 114.635 152.794C113.867 149.392 113.185 146.058 112.59 142.79C111.367 136.243 110.337 130.007 109.422 124.138C108.974 121.203 108.618 118.35 108.31 115.586C108.003 112.822 107.784 110.161 107.603 107.597C107.232 102.466 107.028 97.745 106.762 93.4877C106.636 91.3572 106.465 89.3452 106.287 87.4519C106.11 85.5585 105.969 83.7837 105.846 82.1311C105.598 78.8223 105.439 76.0064 105.343 73.7202C105.246 71.4341 105.202 69.6815 105.187 68.4995C105.187 67.9067 105.187 67.4584 105.187 67.1582C105.187 66.8581 105.187 66.7062 105.187 66.7062C105.187 66.7914 105.187 67.3361 105.213 68.4958C105.239 69.6556 105.287 71.4341 105.394 73.7165C105.502 75.999 105.669 78.8186 105.924 82.1237C106.05 83.7763 106.198 85.5548 106.376 87.4445C106.554 89.3341 106.728 91.3498 106.858 93.4803C107.132 97.7413 107.343 102.462 107.721 107.586C107.907 110.15 108.145 112.813 108.436 115.575C108.729 118.331 109.089 121.184 109.548 124.119C110.467 129.984 111.501 136.217 112.731 142.76C113.338 146.036 114.021 149.379 114.78 152.79C114.969 153.642 115.15 154.502 115.373 155.358C115.595 156.214 115.795 157.081 116.021 157.952C116.247 158.822 116.484 159.678 116.762 160.545C117.01 161.414 117.313 162.265 117.67 163.094L117.596 163.05L212.165 162.413L217.615 162.376L217.523 162.498C207.67 126.487 198.526 93.0727 190.923 65.2463L191 65.3056L105.205 66.6877Z" fill="#263238"/>
<path d="M200.034 69.8457L105.287 71.4575C104.887 97.1534 113.935 137.259 120.567 158.353L220.001 157.312C209.819 130.282 198.114 99.5507 200.034 69.8457Z" fill="#F5F5F5"/>
<path d="M200.034 69.8457C200.034 69.9309 200.034 70.4237 199.986 71.4945C199.986 72.0392 199.945 72.7173 199.919 73.525C199.893 74.3328 199.826 75.2702 199.871 76.3262C199.919 78.4419 199.9 81.0541 200.164 84.1072C200.215 84.8729 200.269 85.6671 200.323 86.4897C200.404 87.3085 200.504 88.157 200.601 89.0315C200.697 89.9059 200.801 90.8063 200.905 91.7326C201.008 92.6589 201.179 93.6112 201.32 94.5856C201.46 95.5601 201.62 96.5679 201.779 97.5943C201.938 98.6206 202.168 99.6655 202.368 100.74C202.568 101.815 202.761 102.915 203.013 104.027C203.265 105.138 203.517 106.279 203.776 107.443C203.91 108.025 204.036 108.614 204.18 109.203L204.632 110.989C204.941 112.189 205.253 113.413 205.569 114.661C205.886 115.908 206.241 117.169 206.637 118.444C206.818 119.085 207.007 119.733 207.189 120.382L207.785 122.342C210.953 132.902 215.277 144.573 220.079 157.282L220.12 157.393H220.001L123.858 158.42L120.56 158.453H120.486L120.467 158.386C118.07 150.661 116.021 142.961 114.224 135.38C112.427 127.799 110.849 120.33 109.522 113.023C108.196 105.716 107.114 98.5725 106.339 91.6214C105.543 84.9301 105.16 78.196 105.194 71.4575V71.376H105.276L200.023 69.8457L105.28 71.5427L105.361 71.4612C105.331 78.1925 105.717 84.9192 106.517 91.6029C107.292 98.5428 108.37 105.683 109.707 112.99C111.045 120.296 112.601 127.759 114.409 135.336C116.217 142.913 118.255 150.609 120.649 158.327L120.556 158.26L123.858 158.227L220.001 157.241L219.924 157.353C215.129 144.644 210.816 132.961 207.656 122.394C207.455 121.734 207.259 121.078 207.059 120.43C206.859 119.781 206.688 119.129 206.511 118.488L205.447 114.705C205.134 113.455 204.822 112.23 204.513 111.03C204.362 110.429 204.213 109.833 204.061 109.244C203.91 108.654 203.795 108.062 203.665 107.48C203.406 106.316 203.15 105.179 202.902 104.06C202.653 102.941 202.472 101.837 202.261 100.77C202.05 99.7026 201.853 98.6503 201.679 97.6239L201.223 94.6227C201.086 93.6445 200.912 92.696 200.812 91.7696C200.712 90.8433 200.612 89.9355 200.516 89.0611C200.419 88.1867 200.323 87.3382 200.245 86.5193C200.167 85.7005 200.138 84.9001 200.089 84.1368C199.837 81.0726 199.86 78.4604 199.819 76.3558C199.782 75.2961 199.863 74.3698 199.882 73.5621C199.9 72.7543 199.941 72.08 199.963 71.5353C200.012 70.4311 200.03 69.9309 200.034 69.8457Z" fill="#263238"/>
<path d="M200.208 65.0684L105.205 66.6876C104.805 92.3797 109.018 115.986 115.654 137.087L143.073 154.065L222.651 152.709C212.461 125.671 198.289 94.7733 200.208 65.0684Z" fill="#FAFAFA"/>
<path d="M200.208 65.0684C200.208 65.1536 200.186 65.6538 200.141 66.732C200.115 67.2841 200.082 67.9733 200.078 68.7847C200.075 69.5962 200.041 70.541 200.078 71.6081C200.185 77.7763 200.815 83.9244 201.961 89.9861C203.387 97.8339 205.899 107.212 209.527 117.72C211.331 122.978 213.399 128.521 215.64 134.345C217.882 140.17 220.305 146.265 222.725 152.675L222.765 152.786H222.647L143.073 154.157H143.043H143.021L131.164 146.806L115.625 137.172L115.595 137.154V137.121C111.839 125.192 109.062 112.978 107.291 100.598C105.705 89.3679 104.992 78.0317 105.157 66.6913V66.6097H105.239L200.241 65.0758L105.242 66.7765L105.324 66.695C105.158 78.0176 105.867 89.3362 107.443 100.55C109.215 112.918 111.99 125.122 115.743 137.039L115.702 136.987L131.242 146.621L143.099 153.976H143.047L222.621 152.634L222.547 152.746C220.131 146.336 217.712 140.233 215.477 134.408C213.243 128.584 211.175 123.037 209.375 117.775C205.758 107.26 203.257 97.8709 201.846 90.0158C200.698 83.9487 200.078 77.7934 199.993 71.6192C199.963 70.5521 199.993 69.6073 200.012 68.7958C200.03 67.9844 200.056 67.3137 200.086 66.7505C200.186 65.6575 200.204 65.1536 200.208 65.0684Z" fill="#263238"/>
<path d="M115.732 137.076L139.872 134.482L143.062 154.061L115.732 137.076Z" fill="#E0E0E0"/>
<path d="M143.062 154.062C143.05 154.031 143.043 153.999 143.04 153.966C143.04 153.888 143.006 153.795 142.98 153.677L142.78 152.565C142.614 151.576 142.373 150.168 142.076 148.419C141.495 144.892 140.687 140.004 139.775 134.506L139.883 134.587L137.634 134.828L122.094 136.47L117.385 136.944L116.103 137.066L115.769 137.092H115.654C115.69 137.08 115.728 137.073 115.765 137.07L116.099 137.025L117.377 136.87L122.079 136.333L137.615 134.639L139.861 134.398H139.953V134.487C140.835 139.99 141.621 144.862 142.176 148.412C142.447 150.161 142.669 151.576 142.821 152.565C142.89 153.044 142.946 153.415 142.988 153.677L143.025 153.97C143.043 153.998 143.056 154.029 143.062 154.062Z" fill="#263238"/>
<path d="M182.375 91.8664C182.375 91.9183 169.573 92.1814 153.785 92.4519C137.997 92.7223 125.188 92.8928 125.188 92.8409C125.188 92.789 137.986 92.526 153.781 92.2592C169.577 91.9924 182.375 91.8145 182.375 91.8664Z" fill="#263238"/>
<path d="M183.972 100.777C183.972 100.829 171.17 101.092 155.378 101.362C139.586 101.633 126.785 101.803 126.785 101.751C126.785 101.699 139.583 101.436 155.378 101.166C171.174 100.895 183.968 100.725 183.972 100.777Z" fill="#263238"/>
<path d="M187.551 109.655C187.551 109.707 174.749 109.97 158.961 110.237C143.173 110.503 130.364 110.681 130.364 110.629C130.364 110.577 143.162 110.314 158.957 110.044C174.753 109.773 187.551 109.599 187.551 109.655Z" fill="#263238"/>
<path d="M191.293 119.718C191.293 119.774 178.492 120.033 162.703 120.304C146.915 120.574 134.106 120.748 134.106 120.693C134.106 120.637 146.904 120.381 162.7 120.111C178.495 119.84 191.293 119.666 191.293 119.718Z" fill="#263238"/>
<path d="M195.539 129.081C195.539 129.133 182.738 129.396 166.95 129.662C151.162 129.929 138.353 130.107 138.353 130.055C138.353 130.003 151.15 129.74 166.946 129.47C182.741 129.199 195.539 129.025 195.539 129.081Z" fill="#263238"/>
<path d="M108.94 66.669C108.94 66.669 110.07 65.0572 110.693 64.7089C111.315 64.3606 112.175 64.3384 112.571 64.6756L112.964 65.009C112.964 65.009 114.928 64.0568 115.902 64.7163C115.902 64.7163 117.755 63.7678 118.704 64.7645C118.704 64.7645 120.134 63.7752 120.775 64.5829C121.416 65.3907 121.394 66.8061 121.116 67.5212C120.838 68.2363 120.349 70.7225 119.915 70.7781C119.915 70.7781 118.755 70.9337 118.585 70.3112C118.415 69.6888 118.337 69.3849 118.337 69.3849C118.337 69.3849 117.966 71.6081 117.425 71.7489C116.884 71.8897 115.869 71.8415 115.806 70.867C115.806 70.867 115.332 71.6081 114.839 71.4191C114.346 71.2301 113.727 70.8818 113.776 70.2779C113.824 69.6739 113.802 69.0663 113.802 69.0663C113.802 69.0663 113.561 69.9555 113.116 69.7777C112.671 69.5998 112.231 69.6517 111.964 68.9144C111.697 68.177 111.019 66.7209 111.019 66.7209L108.94 66.669Z" fill="#FFBE9D"/>
<path d="M113.765 69.0218C113.735 69.0218 113.846 68.7773 113.935 68.3845C114.057 67.8786 114.063 67.3518 113.953 66.8431C113.844 66.3344 113.621 65.857 113.301 65.4463C113.057 65.1276 112.864 64.9646 112.883 64.9386C112.901 64.9127 113.124 65.0498 113.405 65.361C113.774 65.7682 114.03 66.2653 114.146 66.8024C114.262 67.3394 114.236 67.8973 114.072 68.4216C114.02 68.6439 113.915 68.85 113.765 69.0218Z" fill="#EB996E"/>
<path d="M116.028 64.7246C116.164 64.9995 116.257 65.2929 116.306 65.5953C116.625 67.0419 116.567 68.5458 116.14 69.9638C116.069 70.2604 115.953 70.5442 115.795 70.8049C116.065 69.8163 116.237 68.8036 116.31 67.7814C116.315 66.7558 116.221 65.732 116.028 64.7246Z" fill="#EB996E"/>
<path d="M118.752 64.791C119.016 66.3511 118.878 67.9527 118.352 69.4448C118.296 69.4448 118.548 68.411 118.655 67.129C118.763 65.847 118.692 64.7984 118.752 64.791Z" fill="#EB996E"/>
<path d="M126.592 65.0655C126.539 64.9695 126.465 64.8864 126.376 64.8223C126.287 64.7582 126.185 64.7147 126.077 64.695C125.822 64.6461 125.559 64.6593 125.31 64.7334C125.061 64.8076 124.834 64.9405 124.647 65.1211C124.278 65.487 123.97 65.9099 123.735 66.3734L126.448 66.3512C126.41 65.9029 126.759 65.462 126.592 65.0655Z" fill="#FFBE9D"/>
<path d="M229.394 158.031C229.365 158.005 229.835 157.497 230.435 156.571C230.784 156.025 231.091 155.454 231.354 154.863C232.001 153.414 232.378 151.86 232.466 150.276C232.501 149.633 232.486 148.989 232.421 148.349C232.314 147.237 232.121 146.585 232.162 146.574C232.225 146.724 232.273 146.879 232.306 147.037C232.361 147.219 232.404 147.403 232.436 147.589C232.477 147.808 232.533 148.056 232.558 148.331C232.641 148.98 232.67 149.636 232.644 150.291C232.606 151.092 232.496 151.888 232.314 152.669C232.12 153.448 231.857 154.208 231.528 154.941C231.253 155.536 230.93 156.107 230.561 156.649C230.409 156.886 230.246 157.079 230.113 157.256C229.998 157.408 229.874 157.552 229.742 157.69C229.638 157.815 229.522 157.93 229.394 158.031Z" fill="#263238"/>
<path d="M223.695 160.142C223.673 160.12 224.136 159.698 224.807 158.942C226.53 156.968 227.76 154.614 228.397 152.072C228.642 151.102 228.724 150.483 228.768 150.49C228.766 150.642 228.748 150.794 228.716 150.942C228.672 151.339 228.605 151.732 228.516 152.121C227.942 154.709 226.693 157.099 224.896 159.049C224.627 159.345 224.341 159.624 224.04 159.887C223.937 159.987 223.821 160.073 223.695 160.142Z" fill="#263238"/>
<path d="M208.879 100.912C215.805 97.7676 218.87 89.6039 215.726 82.6781C212.581 75.7522 204.417 72.687 197.492 75.8316C190.566 78.9762 187.501 87.1399 190.645 94.0657C193.79 100.992 201.953 104.057 208.879 100.912Z" fill="#016CDE"/>
<path d="M202.85 83.5614C202.904 86.7553 202.958 89.9492 203.013 93.1432C203.035 94.3326 204.888 94.3363 204.865 93.1432C204.814 89.9492 204.759 86.7553 204.702 83.5614C204.684 82.372 202.831 82.3683 202.85 83.5614Z" fill="white"/>
<path d="M198.733 89.3684L208.986 89.1905C210.175 89.1905 210.179 87.3379 208.986 87.3379L198.733 87.5157C197.544 87.5343 197.54 89.3869 198.733 89.3684Z" fill="white"/>
<g opacity="0.3">
<path d="M205.744 74.7983C203.127 74.2658 200.411 74.5517 197.963 75.6171C198.486 76.5203 199.09 77.3747 199.767 78.17C200.345 78.8889 201.212 79.6521 202.083 79.3298C202.306 79.2068 202.55 79.124 202.802 79.0852C203.194 79.0852 203.457 79.4743 203.676 79.8041C204.26 80.6816 205.002 81.444 205.862 82.0531C206.325 82.3829 207.026 82.6386 207.4 82.2125C207.561 81.9798 207.636 81.6979 207.611 81.4158C207.641 79.3076 206.696 76.6805 205.744 74.7983Z" fill="black"/>
</g>
<path d="M193.587 60.8201L195.81 60.1531C196.696 59.9077 197.628 59.8693 198.532 60.0409C199.435 60.2124 200.288 60.5893 201.023 61.1424C202.231 62.0502 203.524 63.084 203.939 63.6472L205.844 66.2075C206.055 66.4814 206.199 66.8014 206.263 67.1413C206.328 67.4813 206.311 67.8316 206.214 68.1639C206.187 68.3085 206.111 68.4394 205.999 68.5344L205.325 69.5126C205.325 69.5126 205.525 70.9947 205.532 71.9395C205.54 72.8844 204.621 74.4962 204.621 74.4962L206.422 79.413C206.508 79.6372 206.527 79.8821 206.475 80.1168C206.423 80.3515 206.302 80.5656 206.129 80.7321C206.084 80.7846 206.028 80.8274 205.966 80.858C205.904 80.8886 205.836 80.9063 205.767 80.9101C205.698 80.9139 205.629 80.9037 205.563 80.8801C205.498 80.8565 205.439 80.8201 205.388 80.7728C204.68 80.2022 202.794 76.1932 202.794 76.1932L202.053 75.3335L201.027 75.0779C201.027 75.0779 201.212 76.56 200.545 76.8527L197.725 74.422L195.543 70.7168C195.543 70.7168 195.484 65.648 194.935 64.2474L193.587 60.8201Z" fill="#FFBE9D"/>
<path d="M203.291 70.6152C204.055 71.7768 204.508 73.1151 204.606 74.502C204.55 74.502 204.38 73.6054 204.017 72.5383C203.654 71.4711 203.243 70.6449 203.291 70.6152Z" fill="#EB996E"/>
<path d="M204.925 68.3408C204.984 68.3149 205.191 68.8003 205.295 69.4154C205.402 69.7831 205.44 70.1676 205.406 70.5492C205.251 70.2024 205.15 69.8337 205.106 69.4561C205.014 69.0902 204.954 68.7171 204.925 68.3408Z" fill="#EB996E"/>
<path d="M203.224 77.0822C202.999 76.7587 202.794 76.4221 202.609 76.0744C202.238 75.4445 201.712 74.5923 201.101 73.6622C200.797 73.1954 200.497 72.7582 200.223 72.3617C199.997 72.0084 199.717 71.6933 199.393 71.428C199.08 71.2038 198.71 71.0751 198.326 71.0575C198.427 71.0173 198.537 71.0058 198.644 71.0241C198.942 71.0537 199.226 71.1597 199.471 71.3316C199.822 71.5913 200.125 71.9097 200.367 72.2728C200.653 72.6655 200.956 73.1027 201.264 73.5696C201.875 74.4996 202.375 75.3741 202.727 76.0225C202.93 76.357 203.097 76.7123 203.224 77.0822Z" fill="#EB996E"/>
<path d="M198.993 71.4824C199.022 71.4824 199.052 71.7751 199.2 72.2235C199.394 72.8045 199.711 73.3367 200.13 73.7834C200.389 74.0146 200.624 74.2702 200.834 74.5467C200.999 74.794 201.089 75.0834 201.093 75.3803C201.118 75.6439 201.079 75.9096 200.979 76.1547C200.945 76.1547 200.997 75.8546 200.956 75.3915C200.936 75.1249 200.844 74.8688 200.69 74.6504C200.476 74.385 200.242 74.1371 199.989 73.9094C199.548 73.4453 199.232 72.8766 199.07 72.2568C198.987 72.0078 198.96 71.7431 198.993 71.4824Z" fill="#EB996E"/>
<path d="M195.295 66.2333C195.239 66.2333 195.295 65.3515 195.128 64.2844C194.961 63.2172 194.706 62.3724 194.787 62.3613C194.884 62.5275 194.959 62.7056 195.009 62.8912C195.153 63.3369 195.257 63.7944 195.321 64.2584C195.444 64.9119 195.435 65.5833 195.295 66.2333Z" fill="#EB996E"/>
</svg>
