<svg width="400" height="225" viewBox="0 0 400 225" fill="none" xmlns="http://www.w3.org/2000/svg">
<path d="M147.491 24.1324C147.502 26.1681 146.908 28.1613 145.785 29.8593C144.662 31.5572 143.06 32.8835 141.182 33.67C139.305 34.4565 137.236 34.6678 135.238 34.2771C133.24 33.8864 131.403 32.9113 129.96 31.4754C128.517 30.0394 127.532 28.2074 127.132 26.2114C126.731 24.2155 126.932 22.1455 127.709 20.2639C128.486 18.3823 129.805 16.7738 131.497 15.6423C133.189 14.5108 135.179 13.9072 137.215 13.9081C139.932 13.9068 142.539 14.982 144.464 16.8982C146.39 18.8145 147.478 21.4157 147.491 24.1324Z" fill="#F5F5F5"/>
<path d="M145.042 24.1323C145.049 25.6829 144.596 27.2007 143.74 28.4935C142.883 29.7863 141.663 30.7958 140.232 31.394C138.802 31.9923 137.226 32.1524 135.704 31.8541C134.183 31.5558 132.784 30.8124 131.685 29.7183C130.586 28.6242 129.837 27.2285 129.533 25.7081C129.228 24.1878 129.381 22.6112 129.974 21.1782C130.566 19.7452 131.57 18.5203 132.86 17.6587C134.149 16.7972 135.665 16.3377 137.215 16.3386C139.286 16.3362 141.273 17.1554 142.741 18.6167C144.208 20.0779 145.035 22.0616 145.042 24.1323Z" fill="#EBEBEB"/>
<path d="M145.042 23.9045C144.942 23.6023 144.871 23.291 144.833 22.975C144.659 22.1321 144.355 21.3214 143.931 20.5723C143.637 20.062 143.288 19.5851 142.89 19.1502C142.436 18.6545 141.919 18.2201 141.352 17.8582C141.045 17.6628 140.725 17.4889 140.394 17.3377C139.693 17.0156 138.947 16.7995 138.182 16.6964C137.781 16.6473 137.377 16.6287 136.974 16.6406C136.57 16.6556 136.168 16.6991 135.77 16.7707C135.386 16.8449 135.009 16.949 134.641 17.0821C134.283 17.2076 133.936 17.363 133.604 17.5468C133.28 17.7144 132.969 17.9071 132.675 18.1231C131.651 18.8708 130.826 19.8586 130.272 20.9999C129.895 21.7717 129.643 22.5983 129.524 23.4491C129.506 23.7632 129.457 24.0746 129.375 24.3785C129.279 24.0643 129.251 23.7333 129.292 23.4072C129.325 22.5086 129.527 21.6243 129.887 20.8C130.129 20.2248 130.441 19.6816 130.816 19.1827C131.25 18.6085 131.759 18.0957 132.331 17.6584C132.642 17.4218 132.97 17.2074 133.312 17.017C133.67 16.8269 134.043 16.6653 134.427 16.5337C134.825 16.3892 135.234 16.2757 135.649 16.1945C136.077 16.1095 136.51 16.0598 136.946 16.0457C137.381 16.0323 137.816 16.054 138.247 16.1108C138.667 16.1657 139.082 16.2527 139.488 16.3711C139.878 16.488 140.259 16.634 140.627 16.8079C140.98 16.9755 141.32 17.1697 141.645 17.3888C142.244 17.7872 142.787 18.2656 143.257 18.8109C143.662 19.2865 144.009 19.8074 144.294 20.3632C144.706 21.163 144.965 22.0332 145.056 22.9285C145.124 23.2508 145.119 23.5843 145.042 23.9045Z" fill="#E0E0E0"/>
<path d="M138.098 28.8259L138.145 30.1737H136.927V28.8492C135.846 28.83 134.791 28.508 133.883 27.9197L134.483 26.4557C135.189 26.934 136.007 27.2192 136.858 27.283L136.83 25.2521C135.473 24.9407 133.953 24.5131 133.93 22.7704C133.93 21.483 134.831 20.3584 136.751 20.112V18.7596H137.968V20.0888C138.844 20.1145 139.701 20.3487 140.469 20.772L139.865 22.2731C139.291 21.9491 138.659 21.7421 138.006 21.6643L138.038 23.737C139.395 24.0345 140.887 24.462 140.915 26.1816C140.933 27.4549 140.004 28.5657 138.098 28.8259ZM136.802 23.4582L136.774 21.7293C136.133 21.8873 135.882 22.2452 135.886 22.6588C135.891 23.0724 136.286 23.3002 136.802 23.4582ZM138.94 26.3628C138.94 25.9399 138.577 25.7122 138.052 25.5356V27.2179C138.684 27.0739 138.944 26.7532 138.94 26.3628Z" fill="#E0E0E0"/>
<path d="M120.95 74.3707C121.133 75.6106 120.945 76.8771 120.408 78.01C119.872 79.1428 119.012 80.091 117.936 80.7346C116.86 81.3782 115.618 81.6882 114.366 81.6254C113.114 81.5626 111.909 81.1298 110.903 80.3818C109.898 79.6338 109.136 78.6043 108.716 77.4234C108.296 76.2426 108.235 74.9636 108.542 73.7483C108.849 72.533 109.509 71.436 110.44 70.5963C111.37 69.7565 112.529 69.2117 113.769 69.0308C115.43 68.7875 117.118 69.2132 118.465 70.2145C119.811 71.2158 120.705 72.7107 120.95 74.3707Z" fill="#F5F5F5"/>
<path d="M119.453 74.5891C119.593 75.5343 119.449 76.4996 119.04 77.363C118.631 78.2265 117.975 78.9492 117.155 79.4397C116.335 79.9302 115.389 80.1664 114.434 80.1185C113.48 80.0707 112.562 79.7408 111.795 79.1707C111.028 78.6006 110.448 77.8159 110.127 76.9158C109.807 76.0158 109.761 75.0409 109.994 74.1145C110.228 73.1882 110.731 72.352 111.441 71.7118C112.15 71.0716 113.033 70.6561 113.978 70.518C114.605 70.4258 115.244 70.458 115.858 70.6127C116.473 70.7674 117.05 71.0416 117.559 71.4197C118.067 71.7977 118.496 72.2722 118.821 72.816C119.146 73.3598 119.361 73.9624 119.453 74.5891Z" fill="#EBEBEB"/>
<path d="M119.43 74.4404C119.342 74.2616 119.272 74.0749 119.221 73.8827C119.038 73.3814 118.779 72.9112 118.454 72.4885C118.229 72.207 117.975 71.95 117.696 71.7217C117.374 71.4603 117.019 71.2416 116.641 71.071C116.438 70.9784 116.228 70.9007 116.014 70.8386C115.561 70.7078 115.091 70.6451 114.62 70.6528C114.372 70.6578 114.125 70.6811 113.881 70.7225C113.637 70.769 113.396 70.8311 113.16 70.9084C112.932 70.9883 112.71 71.0846 112.496 71.1965C112.289 71.3046 112.092 71.4289 111.906 71.5683C111.724 71.7003 111.553 71.8463 111.394 72.0051C111.097 72.2955 110.839 72.6236 110.627 72.9811C110.436 73.2924 110.28 73.6245 110.163 73.971C110.003 74.4762 109.922 75.0028 109.921 75.5325C109.944 75.7302 109.944 75.9298 109.921 76.1274C109.836 75.9438 109.79 75.7443 109.786 75.5418C109.726 74.9901 109.77 74.432 109.916 73.8966C110.019 73.5249 110.164 73.1662 110.349 72.8277C110.562 72.4385 110.828 72.0804 111.139 71.7635C111.305 71.5932 111.485 71.4377 111.678 71.2987C111.877 71.1454 112.088 71.0086 112.31 70.8898C112.539 70.7648 112.779 70.659 113.026 70.5737C113.278 70.4833 113.538 70.4149 113.802 70.3693C114.066 70.324 114.333 70.2991 114.601 70.2949C114.862 70.2885 115.124 70.3056 115.382 70.346C115.63 70.381 115.876 70.4353 116.116 70.5087C116.346 70.5788 116.57 70.6674 116.785 70.7736C117.531 71.1316 118.171 71.6758 118.644 72.3537C118.973 72.8068 119.214 73.3175 119.355 73.8595C119.419 74.0462 119.444 74.2437 119.43 74.4404Z" fill="#E0E0E0"/>
<path d="M115.628 78.042L115.763 78.8692L115.02 78.9901L114.908 78.1954C114.247 78.2793 113.575 78.1763 112.97 77.8979L113.23 76.9266C113.704 77.1569 114.229 77.2595 114.755 77.2241L114.555 75.9878C113.7 75.9181 112.738 75.7927 112.57 74.7284C112.445 73.943 112.905 73.1762 114.057 72.8694L113.923 72.0468L114.666 71.9307L114.796 72.7393C115.331 72.6818 115.871 72.7536 116.372 72.9484L116.149 73.9198C115.766 73.7735 115.359 73.7041 114.95 73.7153L115.154 74.9747C116.005 75.0398 116.953 75.1653 117.12 76.2109C117.232 76.9684 116.767 77.726 115.628 78.042ZM114.364 74.8818L114.197 73.8593C113.816 74.0081 113.695 74.2497 113.732 74.496C113.769 74.7423 114.02 74.8446 114.364 74.8957V74.8818ZM115.926 76.4665C115.884 76.2063 115.647 76.0994 115.308 76.039L115.47 77.0614C115.837 76.9359 115.963 76.7175 115.926 76.4805V76.4665Z" fill="#E0E0E0"/>
<path d="M283.035 135.499L280.861 146.694L297.472 149.92L299.646 138.725L283.035 135.499Z" fill="#EBEBEB"/>
<path d="M299.679 138.877C299.621 138.922 299.559 138.963 299.494 138.998L298.954 139.309L296.947 140.447L290.287 144.165L290.231 144.193L290.189 144.147L290.115 144.035C288.172 141.712 286.397 139.657 285.124 138.138L283.609 136.325L283.204 135.828C283.155 135.774 283.112 135.714 283.074 135.651C283.13 135.699 283.182 135.752 283.228 135.809L283.65 136.274L285.189 138.045L290.213 143.91L290.31 144.026H290.217L296.9 140.359L298.931 139.262L299.484 138.974C299.546 138.935 299.611 138.902 299.679 138.877Z" fill="#E0E0E0"/>
<path d="M280.895 146.847C280.867 146.814 282.414 145.522 284.348 143.961C286.281 142.399 287.875 141.173 287.903 141.196C287.931 141.219 286.383 142.52 284.445 144.082C282.507 145.643 280.923 146.88 280.895 146.847Z" fill="#E0E0E0"/>
<path d="M293.447 142.125C293.489 142.125 294.423 143.873 295.543 146.066C296.663 148.26 297.551 150.077 297.504 150.077C297.458 150.077 296.528 148.334 295.408 146.141C294.288 143.947 293.41 142.144 293.447 142.125Z" fill="#E0E0E0"/>
<path d="M247.633 20.5165C247.573 20.2686 247.543 20.0142 247.545 19.759C247.536 19.4469 247.502 19.1361 247.443 18.8295C247.391 18.4173 247.312 18.0089 247.206 17.6073C246.942 16.5012 246.514 15.4407 245.937 14.461C245.183 13.1625 244.19 12.0191 243.009 11.0916C241.587 9.96466 239.92 9.18778 238.143 8.82367C236.107 8.40452 233.996 8.53607 232.027 9.20476C230.964 9.55507 229.961 10.066 229.053 10.7198C228.584 11.0532 228.137 11.4165 227.714 11.8073C227.295 12.2196 226.906 12.6607 226.548 13.1272C225.038 15.0775 224.192 17.4593 224.131 19.9249C224.071 22.3904 224.801 24.8107 226.213 26.8324C226.548 27.3215 226.916 27.7873 227.315 28.2266C227.719 28.6376 228.149 29.0225 228.602 29.3792C229.476 30.0777 230.453 30.6373 231.497 31.0383C234.022 32.0224 236.81 32.1038 239.388 31.2688C241.966 30.4337 244.176 28.7335 245.644 26.4559C246.268 25.5051 246.748 24.4667 247.066 23.3747C247.192 22.9791 247.292 22.5754 247.364 22.1664C247.433 21.8696 247.481 21.5683 247.508 21.2648C247.521 21.0099 247.563 20.7573 247.633 20.5119C247.66 20.7653 247.66 21.0207 247.633 21.2741C247.633 21.5858 247.605 21.8969 247.55 22.2036C247.5 22.6242 247.42 23.0406 247.308 23.4491C247.024 24.5816 246.566 25.6634 245.951 26.6558C245.047 28.1218 243.841 29.3778 242.413 30.3396C240.985 31.3014 239.367 31.9469 237.669 32.2327C235.516 32.5927 233.306 32.368 231.27 31.582C230.168 31.1645 229.137 30.5815 228.212 29.8532C227.733 29.4794 227.278 29.0758 226.85 28.6449C226.429 28.1903 226.039 27.7074 225.683 27.1995C224.184 25.0697 223.409 22.5145 223.471 19.9106C223.534 17.3067 224.432 14.7919 226.032 12.7368C226.413 12.2453 226.826 11.7796 227.268 11.3426C227.716 10.9302 228.191 10.5483 228.69 10.1993C229.649 9.51572 230.707 8.9843 231.827 8.62383C233.761 7.97725 235.826 7.83036 237.832 8.19684C239.837 8.56331 241.717 9.43124 243.297 10.7198C244.501 11.7017 245.503 12.9074 246.248 14.2704C246.814 15.2862 247.218 16.3837 247.447 17.5236C247.541 17.9366 247.603 18.356 247.633 18.7784C247.674 19.0865 247.686 19.3976 247.67 19.7079C247.689 19.978 247.676 20.2493 247.633 20.5165Z" fill="#EBEBEB"/>
<path d="M245.249 13.0714C245.272 13.1039 245.058 13.2944 244.645 13.6012L243.878 14.1542C243.725 14.2564 243.567 14.3726 243.39 14.4842L242.8 14.7909C240.669 16.0058 238.248 16.6164 235.796 16.5569L234.737 16.5104L233.719 16.3478C233.551 16.3199 233.384 16.3013 233.221 16.2641L232.757 16.1386C232.445 16.055 232.134 15.9806 231.827 15.883C230.79 15.5354 229.793 15.0773 228.853 14.5167C227.254 13.55 226.478 12.6577 226.529 12.6159C226.58 12.5741 227.459 13.2758 229.071 14.1124C230.018 14.5943 231.006 14.9924 232.022 15.3021C232.306 15.3811 232.603 15.4462 232.905 15.5205L233.37 15.6367L233.835 15.7064L234.806 15.8505L235.819 15.8923C238.168 15.94 240.492 15.4186 242.595 14.3726L243.186 14.117C243.367 14.0194 243.534 13.9172 243.692 13.8335L244.505 13.3688C244.956 13.1504 245.221 13.0342 245.249 13.0714Z" fill="#EBEBEB"/>
<path d="M226.181 27.5573C226.153 27.5201 226.371 27.3342 226.785 27.0275L227.552 26.4559C227.705 26.3536 227.863 26.2374 228.04 26.1259L228.625 25.8192C230.757 24.6034 233.18 23.9928 235.633 24.0532L236.693 24.0996L237.711 24.2623C237.878 24.2902 238.045 24.3088 238.208 24.3413L238.673 24.4714C238.984 24.5551 239.296 24.6294 239.602 24.7224C240.64 25.0808 241.637 25.5482 242.577 26.1166C244.171 27.0833 244.947 27.9756 244.9 28.0174C244.854 28.0592 243.971 27.3575 242.363 26.5209C241.424 26.0371 240.444 25.6359 239.435 25.3219C239.152 25.2429 238.849 25.1778 238.552 25.0988L238.087 24.9873L237.623 24.9176L236.647 24.7735L235.638 24.7317C233.286 24.6839 230.958 25.207 228.853 26.256L228.258 26.5116C228.077 26.6092 227.914 26.7115 227.756 26.7951L226.943 27.2599C226.473 27.4783 226.208 27.5945 226.181 27.5573Z" fill="#EBEBEB"/>
<path d="M247.624 20.7909C247.624 20.9721 242.279 20.9907 235.703 20.828C229.127 20.6654 223.792 20.4144 223.797 20.2146C223.801 20.0147 229.137 20.0147 235.717 20.1774C242.298 20.3401 247.629 20.6096 247.624 20.7909Z" fill="#EBEBEB"/>
<path d="M235.159 32.1303C234.978 32.1303 234.964 26.7904 235.122 20.2097C235.28 13.629 235.559 8.30304 235.74 8.33092C235.922 8.3588 235.936 13.6708 235.778 20.2515C235.62 26.8322 235.341 32.1349 235.159 32.1303Z" fill="#EBEBEB"/>
<path d="M235.16 32.1117C235.118 32.1814 233.802 31.2891 232.287 29.2767C231.405 28.0897 230.691 26.7871 230.164 25.4055C229.518 23.7022 229.203 21.8915 229.234 20.0702C229.28 18.2449 229.689 16.447 230.438 14.7815C231.04 13.4339 231.822 12.1739 232.761 11.0357C234.365 9.09306 235.689 8.24723 235.736 8.303C235.782 8.35877 234.597 9.35331 233.124 11.3192C232.268 12.4703 231.55 13.7182 230.986 15.0371C230.302 16.6376 229.928 18.3535 229.885 20.0935C229.855 21.8339 230.138 23.5655 230.721 25.2056C231.207 26.5497 231.858 27.8282 232.659 29.0118C234.044 31.0381 235.225 32.0327 235.16 32.1117Z" fill="#EBEBEB"/>
<path d="M236.005 8.33095C236.052 8.26124 237.362 9.14889 238.877 11.1659C239.763 12.3506 240.481 13.6518 241.011 15.0325C241.657 16.7373 241.972 18.5496 241.94 20.3724C241.896 22.1965 241.487 23.9933 240.736 25.6565C240.133 27.0049 239.351 28.2663 238.413 29.4069C236.809 31.3449 235.485 32.1954 235.443 32.135C235.401 32.0746 236.577 31.0847 238.05 29.1188C238.911 27.9708 239.629 26.7223 240.188 25.4009C240.873 23.7989 241.246 22.0814 241.289 20.3398C241.319 18.5998 241.037 16.8685 240.458 15.2277C239.97 13.8834 239.318 12.6049 238.515 11.4215C237.135 9.38591 235.94 8.38207 236.005 8.33095Z" fill="#EBEBEB"/>
<path d="M120.317 154.315L120.908 153.005C121.406 151.86 121.429 150.564 120.972 149.401C120.746 148.826 120.409 148.301 119.979 147.856C119.55 147.411 119.037 147.054 118.47 146.808C117.903 146.561 117.293 146.428 116.675 146.417C116.056 146.406 115.442 146.516 114.867 146.743C113.704 147.2 112.771 148.1 112.273 149.245L111.655 150.574C111.045 150.411 110.397 150.472 109.828 150.746C109.26 151.02 108.808 151.488 108.555 152.066L105.195 159.837C104.918 160.475 104.904 161.197 105.156 161.845C105.409 162.493 105.907 163.016 106.542 163.299L114.624 166.808C115.265 167.086 115.99 167.1 116.64 166.844C117.29 166.589 117.812 166.086 118.091 165.446L121.465 157.68C121.729 157.077 121.757 156.398 121.544 155.775C121.332 155.152 120.894 154.632 120.317 154.315ZM113.588 161.184L111.478 160.255L112.468 158.861C112.297 158.613 112.211 158.316 112.223 158.015C112.234 157.714 112.343 157.425 112.533 157.191C112.722 156.958 112.982 156.791 113.274 156.717C113.566 156.644 113.874 156.666 114.152 156.782C114.43 156.898 114.663 157.101 114.816 157.36C114.969 157.619 115.034 157.921 115.002 158.22C114.969 158.52 114.841 158.8 114.635 159.02C114.43 159.241 114.159 159.388 113.862 159.441C113.765 160.125 113.588 161.184 113.588 161.184ZM119.393 153.897L112.617 150.951L113.202 149.654C113.608 148.78 114.34 148.1 115.241 147.758C116.141 147.415 117.14 147.439 118.024 147.822C118.908 148.206 119.607 148.92 119.972 149.812C120.337 150.703 120.339 151.703 119.978 152.596L119.393 153.897Z" fill="#EBEBEB"/>
<path d="M285.17 69.5934C285.171 70.2488 284.978 70.8897 284.615 71.4351C284.251 71.9805 283.734 72.406 283.129 72.6576C282.524 72.9093 281.858 72.9758 281.215 72.8489C280.572 72.7219 279.981 72.4071 279.517 71.9444C279.053 71.4816 278.737 70.8916 278.608 70.249C278.479 69.6064 278.544 68.9401 278.794 68.3343C279.044 67.7284 279.468 67.2103 280.012 66.8455C280.556 66.4806 281.197 66.2853 281.852 66.2844C282.287 66.2838 282.718 66.3689 283.121 66.5349C283.523 66.7008 283.888 66.9444 284.197 67.2517C284.505 67.5589 284.749 67.9239 284.916 68.3257C285.084 68.7275 285.17 69.1582 285.17 69.5934Z" fill="#EBEBEB"/>
<path d="M294.07 64.443C294.897 62.8102 294.243 60.8165 292.61 59.99C290.977 59.1634 288.984 59.817 288.157 61.4498C287.331 63.0825 287.984 65.0762 289.617 65.9027C291.25 66.7293 293.243 66.0757 294.07 64.443Z" fill="#EBEBEB"/>
<path d="M291.153 80.6048C292.983 80.6022 294.464 78.9855 294.462 76.9937C294.459 75.002 292.973 73.3894 291.143 73.392C289.313 73.3945 287.832 75.0112 287.834 77.003C287.837 78.9947 289.323 80.6073 291.153 80.6048Z" fill="#EBEBEB"/>
<path d="M290.171 76.5734C290.027 76.7825 287.824 75.5324 285.249 73.7849C282.675 72.0375 280.7 70.4435 280.839 70.2343C280.978 70.0252 283.163 71.28 285.761 73.0228C288.358 74.7655 290.31 76.3643 290.171 76.5734Z" fill="#EBEBEB"/>
<path d="M290.436 62.7057C290.589 62.9055 288.888 64.481 286.634 66.2284C284.38 67.9758 282.452 69.226 282.275 69.0169C282.099 68.8077 283.823 67.2415 286.077 65.4988C288.331 63.756 290.283 62.5244 290.436 62.7057Z" fill="#EBEBEB"/>
<path d="M292.104 216.865C292.104 216.93 250.426 216.986 199.031 216.986C147.635 216.986 105.948 216.93 105.948 216.865C105.948 216.8 147.616 216.744 199.031 216.744C250.445 216.744 292.104 216.795 292.104 216.865Z" fill="#263238"/>
<path d="M266.599 39.8218C266.641 39.8729 260.85 44.6551 253.67 50.5109C246.49 56.3666 240.629 61.0465 240.588 60.9954C240.546 60.9443 246.332 56.1668 253.517 50.3064C260.702 44.446 266.553 39.7707 266.599 39.8218Z" fill="#263238"/>
<path d="M276.131 117.847C276.108 117.912 268.616 115.226 259.4 111.857C250.185 108.487 242.712 105.699 242.753 105.638C242.795 105.578 250.268 108.255 259.484 111.629C268.7 115.003 276.173 117.787 276.131 117.847Z" fill="#263238"/>
<path d="M121.024 53.4854C121.056 53.425 129.129 57.668 139.046 62.994C148.964 68.3199 156.99 72.6652 156.958 72.721C156.925 72.7768 148.857 68.5383 138.935 63.2078C129.013 57.8772 120.991 53.5411 121.024 53.4854Z" fill="#263238"/>
<path d="M123.933 122.476C123.933 122.411 130.542 119.864 138.74 116.788C146.938 113.711 153.611 111.266 153.635 111.327C153.658 111.387 147.031 113.934 138.828 117.015C130.625 120.097 123.956 122.536 123.933 122.476Z" fill="#263238"/>
<path d="M202.586 136.442C194.605 136.443 186.804 134.077 180.168 129.644C173.532 125.211 168.36 118.91 165.305 111.537C162.251 104.164 161.451 96.0512 163.007 88.224C164.564 80.3968 168.406 73.2069 174.049 67.5636C179.691 61.9202 186.881 58.0769 194.708 56.5197C202.535 54.9624 210.648 55.7612 218.021 58.815C225.394 61.8687 231.696 67.0403 236.13 73.6758C240.563 80.3112 242.93 88.1124 242.93 96.0928C242.918 106.789 238.663 117.044 231.1 124.608C223.537 132.173 213.282 136.428 202.586 136.442ZM202.586 56.2134C194.697 56.2125 186.985 58.551 180.426 62.9332C173.866 67.3153 168.753 73.5443 165.734 80.8324C162.715 88.1204 161.925 96.1401 163.463 103.877C165.002 111.615 168.801 118.722 174.379 124.3C179.957 129.878 187.064 133.677 194.801 135.215C202.539 136.754 210.558 135.964 217.846 132.945C225.134 129.925 231.363 124.813 235.746 118.253C240.128 111.693 242.466 103.982 242.465 96.0928C242.457 85.5175 238.253 75.3776 230.776 67.8984C223.3 60.4192 213.161 56.2118 202.586 56.1995V56.2134Z" fill="#016CDE"/>
<path d="M253.591 95.5163C253.591 95.5163 253.591 95.2374 253.559 94.689C253.559 94.4148 253.559 94.0756 253.526 93.6713C253.494 93.2669 253.526 92.7975 253.456 92.277C253.387 91.7565 253.363 91.1524 253.312 90.4971C253.261 89.8418 253.14 89.1307 253.043 88.3546C252.824 86.8117 252.49 85.041 252.006 83.0752C251.452 80.8888 250.754 78.7416 249.915 76.6478C248.93 74.1636 247.744 71.7638 246.369 69.4722C243.006 63.8738 238.611 58.9645 233.417 55.0048C230.405 52.7054 227.141 50.755 223.69 49.1909C219.955 47.4712 216.021 46.2223 211.978 45.473C205.377 44.2547 198.603 44.332 192.032 45.7007C189.724 46.2006 187.451 46.8494 185.228 47.6433C175.763 51.0928 167.53 57.2667 161.568 65.3871C160.013 67.502 158.625 69.7349 157.418 72.0655C157.125 72.6603 156.795 73.2366 156.535 73.8454L155.712 75.6626C155.219 76.9034 154.713 78.1443 154.318 79.4223C153.455 82.0027 152.807 84.6498 152.38 87.3368C151.951 90.0457 151.728 92.7831 151.711 95.5256C151.728 98.2694 151.95 101.008 152.375 103.719C152.804 106.392 153.452 109.025 154.313 111.592C154.718 112.874 155.243 114.115 155.707 115.356L156.53 117.173C156.79 117.787 157.125 118.363 157.418 118.953C158.621 121.287 160.007 123.521 161.563 125.636C167.527 133.758 175.761 139.934 185.228 143.385C187.459 144.174 189.74 144.816 192.055 145.309C198.626 146.678 205.401 146.755 212.001 145.536C219.783 144.074 227.115 140.816 233.417 136.023C238.608 132.061 242.999 127.148 246.355 121.546C247.73 119.255 248.916 116.855 249.901 114.371C250.739 112.285 251.437 110.145 251.992 107.967C252.457 106.001 252.81 104.249 253.029 102.692C253.126 101.916 253.233 101.205 253.298 100.549C253.363 99.8941 253.396 99.2993 253.442 98.7648C253.489 98.2304 253.503 97.7656 253.512 97.3706C253.521 96.9756 253.535 96.627 253.545 96.3528C253.545 95.8044 253.577 95.5256 253.577 95.5256C253.577 95.5256 253.577 95.8044 253.577 96.3528C253.577 96.627 253.577 96.9663 253.577 97.3706C253.577 97.7749 253.577 98.2489 253.517 98.7648C253.456 99.2807 253.433 99.8941 253.387 100.549C253.34 101.205 253.224 101.92 253.131 102.697C252.917 104.244 252.587 106.015 252.113 107.985C251.564 110.17 250.87 112.315 250.036 114.408C249.056 116.902 247.874 119.311 246.499 121.611C243.143 127.237 238.748 132.172 233.547 136.153C227.225 140.984 219.858 144.264 212.039 145.731C207.696 146.552 203.265 146.8 198.859 146.47C196.556 146.312 194.267 145.993 192.008 145.518C189.686 145.022 187.399 144.371 185.163 143.57C175.65 140.113 167.374 133.914 161.382 125.757C159.815 123.632 158.416 121.389 157.199 119.046C156.906 118.451 156.572 117.87 156.307 117.257C156.042 116.643 155.759 116.039 155.48 115.43C154.987 114.185 154.476 112.939 154.086 111.652C153.22 109.077 152.569 106.434 152.138 103.751C151.246 98.3023 151.246 92.7442 152.138 87.295C152.573 84.6127 153.226 81.9704 154.09 79.3944C154.494 78.1071 155.02 76.8616 155.484 75.6161C155.763 75.0073 156.037 74.3985 156.312 73.7896C156.586 73.1808 156.906 72.5999 157.204 72.0004C158.421 69.659 159.819 67.4167 161.387 65.2942C167.378 57.138 175.652 50.9394 185.163 47.4807C187.396 46.6746 189.68 46.0163 191.999 45.5102C198.598 44.1459 205.398 44.0733 212.025 45.2964C216.08 46.0426 220.027 47.2916 223.773 49.0143C227.238 50.587 230.512 52.5484 233.533 54.8608C238.735 58.8424 243.132 63.7774 246.49 69.4025C247.862 71.7036 249.045 74.1127 250.027 76.606C250.86 78.6986 251.554 80.8442 252.104 83.0287C252.569 84.9992 252.908 86.7745 253.122 88.3221C253.215 89.0982 253.312 89.8093 253.377 90.4645C253.442 91.1198 253.47 91.7193 253.507 92.2538C253.545 92.7882 253.563 93.253 253.568 93.648C253.573 94.043 253.568 94.3916 253.568 94.6658C253.596 95.2374 253.591 95.5163 253.591 95.5163Z" fill="#263238"/>
<path d="M203.209 153.521V153.056C214.821 153.053 226.172 149.607 235.825 143.154C245.479 136.7 253.003 127.529 257.445 116.8C261.887 106.071 263.047 94.266 260.78 82.8773C258.513 71.4885 252.92 61.0277 244.708 52.8177C236.496 44.6076 226.034 39.0168 214.644 36.7524C203.255 34.488 191.45 35.6516 180.722 40.096C169.994 44.5405 160.825 52.0662 154.374 61.7215C147.923 71.3769 144.479 82.7284 144.479 94.3406H144.015C144.015 61.7112 170.565 35.1652 203.195 35.1652C218.799 35.3034 233.717 41.5991 244.702 52.6821C255.687 63.7651 261.85 78.7382 261.85 94.3429C261.85 109.948 255.687 124.921 244.702 136.004C233.717 147.087 218.799 153.382 203.195 153.521H203.209Z" fill="#016CDE"/>
<path d="M202.591 147.679V145.355C215.809 145.355 228.485 140.104 237.832 130.758C247.178 121.411 252.429 108.735 252.429 95.5165C252.429 82.2984 247.178 69.6217 237.832 60.2752C228.485 50.9286 215.809 45.6777 202.591 45.6777V43.354C216.425 43.354 229.693 48.8497 239.475 58.632C249.257 68.4144 254.753 81.6821 254.753 95.5165C254.753 109.351 249.257 122.619 239.475 132.401C229.693 142.183 216.425 147.679 202.591 147.679Z" fill="#016CDE"/>
<path d="M263.3 94.3405H260.976C260.839 79.1051 254.691 64.5402 243.87 53.8151C233.048 43.0901 218.428 37.0729 203.192 37.0729C187.956 37.0729 173.337 43.0901 162.515 53.8151C151.694 64.5402 145.546 79.1051 145.409 94.3405H143.085C143.085 61.1999 170.04 34.2356 203.195 34.2356C219.13 34.254 234.407 40.5924 245.675 51.8603C256.943 63.1282 263.281 78.4054 263.3 94.3405Z" fill="#016CDE"/>
<path d="M203.641 162.448C166.717 162.448 136.677 132.403 136.677 95.4793C136.677 58.5556 166.717 28.5101 203.641 28.5101V30.8338C168 30.8338 139 59.8337 139 95.4793C139 131.125 168 160.125 203.641 160.125C239.282 160.125 268.272 131.125 268.272 95.4793H270.596C270.596 132.417 240.569 162.448 203.641 162.448Z" fill="#016CDE"/>
<path d="M202.587 170.308H201.419V169.842H202.582L202.587 170.308Z" fill="#016CDE"/>
<path d="M196.702 170.061C195.926 170 195.136 169.926 194.378 169.838L194.43 169.373C195.201 169.457 195.986 169.531 196.753 169.592L196.702 170.061ZM189.731 169.192C188.955 169.057 188.174 168.908 187.407 168.75L187.505 168.286C188.258 168.444 189.029 168.592 189.801 168.727L189.731 169.192ZM182.839 167.644C182.091 167.44 181.329 167.217 180.58 166.984L180.72 166.52C181.463 166.752 182.216 166.984 182.964 167.18L182.839 167.644ZM176.123 165.441C175.389 165.163 174.655 164.865 173.93 164.563L174.111 164.135C174.827 164.438 175.561 164.73 176.291 165.009L176.123 165.441ZM169.622 162.625C168.92 162.277 168.227 161.914 167.526 161.542L167.744 161.133C168.432 161.5 169.138 161.863 169.826 162.211L169.622 162.625ZM163.445 159.181C162.781 158.768 162.111 158.34 161.465 157.908L161.721 157.518C162.367 157.95 163.032 158.377 163.692 158.786L163.445 159.181ZM157.631 155.171C157.009 154.706 156.386 154.209 155.772 153.711L156.07 153.353C156.669 153.841 157.287 154.329 157.906 154.799L157.631 155.171ZM152.222 150.625C151.641 150.091 151.069 149.543 150.516 148.999L150.842 148.669C151.39 149.208 151.962 149.752 152.538 150.286L152.222 150.625ZM147.268 145.569C146.747 144.983 146.227 144.389 145.725 143.789L146.083 143.492C146.58 144.087 147.096 144.681 147.616 145.262L147.268 145.569ZM142.815 140.094C142.351 139.458 141.886 138.816 141.449 138.175L141.83 137.915C142.267 138.547 142.723 139.188 143.187 139.816L142.815 140.094ZM138.902 134.22C138.503 133.556 138.103 132.868 137.722 132.185L138.145 131.952C138.521 132.631 138.916 133.309 139.311 133.974L138.902 134.22ZM135.565 128.007C135.226 127.3 134.896 126.58 134.585 125.869L135.012 125.683C135.319 126.389 135.649 127.105 135.984 127.807L135.565 128.007ZM132.837 121.5C132.568 120.766 132.308 120.018 132.066 119.279L132.531 119.13C132.772 119.869 133.028 120.613 133.298 121.342L132.837 121.5ZM130.737 114.757C130.542 113.999 130.356 113.232 130.184 112.47L130.649 112.368C130.816 113.126 131.002 113.888 131.197 114.641L130.737 114.757ZM129.315 107.851C129.194 107.084 129.082 106.298 128.98 105.527L129.445 105.471C129.542 106.243 129.654 107.023 129.775 107.795L129.315 107.851ZM128.52 100.815C128.469 100.038 128.432 99.2437 128.408 98.463H128.873C128.873 99.2391 128.934 100.024 128.985 100.787L128.52 100.815ZM128.85 93.7877H128.385C128.413 93.0023 128.45 92.2122 128.497 91.4314L128.962 91.464C128.929 92.2215 128.896 93.0069 128.85 93.7877ZM129.398 86.7887L128.934 86.7329C129.031 85.9568 129.143 85.1714 129.264 84.4092L129.728 84.4836C129.626 85.2411 129.515 86.0172 129.417 86.7887H129.398ZM130.607 79.878L130.142 79.7757C130.314 79.0136 130.5 78.2421 130.695 77.4892L131.16 77.6054C130.979 78.3536 130.793 79.1205 130.625 79.9012L130.607 79.878ZM132.466 73.1114L132.024 72.9673C132.27 72.2237 132.531 71.4755 132.796 70.7365L133.232 70.8945C132.986 71.6288 132.726 72.3771 132.484 73.1114H132.466ZM134.975 66.5446L134.548 66.3587C134.864 65.643 135.194 64.9226 135.528 64.2116L135.951 64.4114C135.631 65.1178 135.305 65.8335 134.994 66.5446H134.975ZM138.098 60.2473L137.694 60.0243C138.075 59.3364 138.469 58.6548 138.874 57.9794L139.269 58.2211C138.888 58.8856 138.493 59.5688 138.117 60.2473H138.098ZM141.816 54.2847L141.431 54.0198C141.895 53.3785 142.337 52.7325 142.802 52.1004L143.173 52.3746C142.723 53.002 142.262 53.6434 141.826 54.2847H141.816ZM146.069 48.7078L145.715 48.4057C146.217 47.8109 146.738 47.2114 147.258 46.6258L147.602 46.9372C147.096 47.5088 146.58 48.1037 146.078 48.6985L146.069 48.7078ZM150.832 43.5492L150.507 43.2192C151.06 42.6755 151.636 42.1271 152.208 41.5926L152.524 41.9366C151.962 42.4571 151.395 43.0008 150.842 43.5399L150.832 43.5492ZM156.061 38.8693L155.768 38.5068C156.372 38.0141 156.995 37.5262 157.627 37.0521L157.91 37.4239C157.287 37.884 156.669 38.372 156.07 38.86L156.061 38.8693ZM161.703 34.6866L161.447 34.3009C162.088 33.8687 162.757 33.4411 163.422 33.0275L163.668 33.4225C163.013 33.8408 162.353 34.2683 161.712 34.6959L161.703 34.6866ZM167.721 31.1034L167.502 30.6898C168.19 30.3227 168.897 29.9602 169.589 29.6116L169.798 30.0299C169.106 30.3599 168.409 30.7177 167.721 31.1034ZM174.046 28.0826L173.865 27.6551C174.585 27.353 175.319 27.0556 176.044 26.7814L176.212 27.2136C175.491 27.4738 174.762 27.7666 174.046 28.0687V28.0826ZM180.631 25.6799L180.492 25.2384C181.24 25.0061 182.002 24.7737 182.751 24.5738L182.876 25.0386C182.128 25.2152 181.366 25.4336 180.631 25.666V25.6799ZM187.407 23.9046L187.314 23.4399C188.081 23.2772 188.857 23.1285 189.638 22.9751L189.722 23.4399C188.96 23.5979 188.183 23.7466 187.407 23.9046ZM194.337 22.7985L194.285 22.3338C195.062 22.2455 195.852 22.1711 196.609 22.1107L196.646 22.5755C195.907 22.6359 195.122 22.7381 194.351 22.7985H194.337Z" fill="#016CDE"/>
<path d="M201.424 22.3526V21.8875H202.591V22.3526H201.424Z" fill="#016CDE"/>
<path d="M300.04 110.914L274.736 111.444L275.093 128.5L300.398 127.97L300.04 110.914Z" fill="#016CDE"/>
<path d="M300.116 111.128C300.049 111.213 299.973 111.291 299.888 111.36L299.196 111.992L296.621 114.292L288.051 121.817L287.982 121.877L287.907 121.821L287.726 121.682L278.566 114.636C277.418 113.735 276.479 113.005 275.806 112.48C275.499 112.229 275.253 112.015 275.062 111.885C274.972 111.82 274.889 111.745 274.816 111.662C274.912 111.716 275.004 111.778 275.09 111.848L275.861 112.406L278.65 114.506L287.852 121.501L288.033 121.64H287.889L296.5 114.167L299.122 111.927L299.842 111.327C299.928 111.254 300.02 111.188 300.116 111.128Z" fill="#263238"/>
<path d="M275.169 128.699C275.122 128.657 276.977 126.283 279.31 123.387C281.643 120.492 283.581 118.182 283.632 118.224C283.683 118.266 281.829 120.641 279.491 123.536C277.153 126.431 275.243 128.755 275.169 128.699Z" fill="#263238"/>
<path d="M292.039 117.847C292.085 117.81 294.014 120.087 296.342 122.96C298.671 125.832 300.525 128.16 300.474 128.197C300.423 128.234 298.494 125.957 296.166 123.085C293.838 120.213 291.974 117.889 292.039 117.847Z" fill="#263238"/>
<path d="M276.772 41.4347C276.769 41.849 276.644 42.2532 276.412 42.5962C276.179 42.9393 275.85 43.2058 275.467 43.362C275.083 43.5182 274.661 43.5572 274.255 43.474C273.85 43.3908 273.477 43.1891 273.186 42.8945C272.895 42.5999 272.697 42.2256 272.618 41.8188C272.54 41.412 272.583 40.991 272.744 40.609C272.904 40.227 273.174 39.9011 273.52 39.6725C273.866 39.4439 274.271 39.3229 274.686 39.3247C274.961 39.3259 275.234 39.3815 275.488 39.4883C275.742 39.595 275.973 39.7508 276.167 39.9468C276.36 40.1428 276.514 40.3751 276.618 40.6304C276.722 40.8857 276.774 41.159 276.772 41.4347Z" fill="#455A64"/>
<path d="M270.484 38.7391C271.019 38.1625 271.665 37.7005 272.384 37.3812C273.102 37.0619 273.878 36.8918 274.664 36.8814C275.45 36.871 276.23 37.0204 276.957 37.3205C277.684 37.6207 278.342 38.0654 278.892 38.6275C279.965 39.7057 281.638 38.0466 280.569 36.9638C279.799 36.1861 278.881 35.5705 277.869 35.1534C276.857 34.7363 275.771 34.5261 274.677 34.5352C273.582 34.5443 272.5 34.7725 271.495 35.2064C270.49 35.6402 269.583 36.271 268.825 37.0614C267.775 38.1582 269.434 39.8498 270.484 38.7391Z" fill="#455A64"/>
<path d="M263.36 28.975C266.548 26.2144 270.354 24.4809 274.62 24.4716C278.87 24.4223 282.978 25.9945 286.109 28.8681C287.215 29.9044 288.897 28.25 287.782 27.2043C284.207 23.8905 279.504 22.0625 274.63 22.0922C269.722 22.0922 265.363 24.1091 261.701 27.2787C260.548 28.2732 262.217 29.9463 263.36 28.9564V28.975Z" fill="#455A64"/>
<path d="M266.172 34.3845C267.236 33.1968 268.535 32.2425 269.986 31.5817C271.437 30.9209 273.01 30.5681 274.605 30.5454C276.199 30.5227 277.781 30.8306 279.251 31.4498C280.721 32.0689 282.046 32.9859 283.144 34.1428C284.203 35.2303 285.877 33.5712 284.817 32.4837C283.502 31.1085 281.919 30.018 280.166 29.2798C278.412 28.5417 276.526 28.1716 274.623 28.1925C272.721 28.2134 270.843 28.6249 269.106 29.4014C267.369 30.178 265.81 31.303 264.526 32.7068C263.495 33.8222 265.149 35.4952 266.185 34.3845H266.172Z" fill="#455A64"/>
<path d="M119.044 119.288C119.044 117.788 118.699 116.308 118.035 114.964C117.371 113.619 116.406 112.446 115.215 111.534C114.024 110.623 112.639 109.999 111.167 109.709C109.696 109.42 108.177 109.474 106.73 109.866C105.282 110.259 103.945 110.98 102.821 111.973C101.698 112.966 100.818 114.205 100.25 115.593C99.683 116.981 99.4432 118.482 99.5494 119.977C99.6557 121.473 100.105 122.925 100.863 124.219L100.891 124.256C101.268 124.888 101.737 125.339 102.211 126.003L107.881 133.513C108.045 133.731 108.258 133.907 108.501 134.029C108.745 134.15 109.014 134.214 109.287 134.214C109.559 134.214 109.828 134.15 110.072 134.029C110.316 133.907 110.528 133.731 110.693 133.513L116.27 126.124C116.767 125.529 117.232 124.909 117.664 124.265V124.237C118.561 122.742 119.038 121.032 119.044 119.288ZM109.284 123.54C108.434 123.54 107.603 123.288 106.896 122.816C106.189 122.343 105.638 121.672 105.313 120.886C104.987 120.101 104.902 119.236 105.068 118.403C105.234 117.569 105.644 116.803 106.245 116.201C106.846 115.6 107.612 115.191 108.446 115.025C109.28 114.859 110.144 114.944 110.93 115.27C111.715 115.595 112.386 116.146 112.859 116.853C113.331 117.56 113.583 118.391 113.583 119.241C113.583 119.806 113.472 120.366 113.256 120.887C113.039 121.409 112.722 121.883 112.323 122.283C111.923 122.682 111.448 122.998 110.926 123.214C110.404 123.43 109.845 123.541 109.28 123.54H109.284Z" fill="#455A64"/>
<path d="M126.364 45.9287C126.538 48.4722 125.954 51.0102 124.686 53.2217C123.417 55.4331 121.521 57.2184 119.238 58.3516C116.954 59.4849 114.385 59.915 111.857 59.5876C109.329 59.2602 106.954 58.19 105.035 56.5125C103.115 54.835 101.736 52.6256 101.072 50.164C100.409 47.7024 100.491 45.0993 101.308 42.6843C102.125 40.2693 103.639 38.1509 105.661 36.5973C107.682 35.0437 110.119 34.1249 112.663 33.957C114.349 33.8433 116.04 34.0628 117.641 34.603C119.242 35.1431 120.721 35.9933 121.993 37.105C123.265 38.2167 124.306 39.5682 125.056 41.0821C125.806 42.5961 126.25 44.243 126.364 45.9287Z" fill="#016CDE"/>
<g opacity="0.3">
<path d="M123.273 45.8262C123.121 45.452 123.008 45.0625 122.939 44.6644C122.647 43.6264 122.199 42.6391 121.609 41.7365C121.207 41.1227 120.739 40.5539 120.215 40.0402C119.598 39.4533 118.908 38.9488 118.161 38.5391C117.762 38.3189 117.347 38.1278 116.92 37.9674C116.478 37.7973 116.022 37.6621 115.558 37.5631C115.079 37.4605 114.593 37.3937 114.104 37.3633C113.599 37.3354 113.092 37.3448 112.589 37.3912C112.086 37.4454 111.588 37.5339 111.097 37.6561C110.622 37.7782 110.156 37.9335 109.703 38.1208C109.269 38.3109 108.85 38.5314 108.448 38.7807C108.058 39.0187 107.688 39.2876 107.342 39.5847C106.695 40.128 106.122 40.7529 105.636 41.4437C105.213 42.0472 104.858 42.6956 104.577 43.377C104.17 44.3764 103.922 45.4333 103.842 46.5094C103.849 46.9133 103.813 47.3167 103.735 47.7131C103.588 47.3264 103.525 46.913 103.55 46.5001C103.518 45.3737 103.697 44.2513 104.079 43.1911C104.351 42.4596 104.71 41.7636 105.148 41.1184C105.642 40.3632 106.238 39.6798 106.919 39.0875C107.286 38.7631 107.677 38.4679 108.09 38.2045C108.518 37.9254 108.969 37.6829 109.438 37.4795C109.922 37.2628 110.422 37.0856 110.934 36.9497C111.995 36.6706 113.093 36.5639 114.188 36.6336C114.716 36.6691 115.241 36.7452 115.758 36.8614C116.256 36.9782 116.744 37.1336 117.218 37.3261C117.673 37.5045 118.114 37.7173 118.537 37.9628C119.318 38.4162 120.036 38.9709 120.671 39.6126C121.217 40.1743 121.696 40.7983 122.097 41.4716C122.674 42.4402 123.068 43.5067 123.259 44.6179C123.351 45.0149 123.356 45.4272 123.273 45.8262Z" fill="black"/>
</g>
<g opacity="0.3">
<path d="M115.005 52.5464L115.145 54.252L113.621 54.3728L113.514 52.7184C112.155 52.7799 110.807 52.4578 109.624 51.7889L110.312 49.8649C111.234 50.4058 112.282 50.6973 113.351 50.7107L113.147 48.1686C111.422 47.8944 109.489 47.4807 109.317 45.3058C109.187 43.6931 110.247 42.2152 112.626 41.7458L112.491 40.0588L113.978 39.9333L114.113 41.5925C115.207 41.5653 116.292 41.7978 117.278 42.271L116.669 44.2043C115.919 43.8485 115.105 43.6432 114.276 43.6002L114.485 46.1888C116.205 46.449 118.105 46.8626 118.282 49.0051C118.417 50.6224 117.371 52.0677 115.005 52.5464ZM112.942 45.9471L112.765 43.7861C111.975 44.0324 111.692 44.4971 111.734 45.0037C111.776 45.5102 112.254 45.7844 112.942 45.9471ZM115.837 49.4001C115.796 48.8703 115.331 48.6147 114.657 48.4381L114.824 50.5387C115.591 50.311 115.893 49.8881 115.837 49.4001Z" fill="black"/>
</g>
<path d="M103.717 47.4299C103.745 47.4299 103.777 47.8575 103.926 48.6197C104.148 49.6897 104.547 50.7153 105.106 51.6544C105.491 52.3021 105.946 52.9053 106.463 53.453C107.068 54.0689 107.748 54.6074 108.485 55.0563C109.303 55.5457 110.187 55.9136 111.111 56.1485C112.105 56.3917 113.129 56.4872 114.15 56.432C115.169 56.351 116.171 56.1224 117.125 55.7534C118.008 55.403 118.836 54.9272 119.583 54.3406C120.857 53.3336 121.856 52.0212 122.488 50.5251C122.924 49.5132 123.19 48.4358 123.273 47.337C123.32 46.5655 123.296 46.1333 123.324 46.1333C123.346 46.2356 123.355 46.3401 123.352 46.4447C123.371 46.7434 123.371 47.0429 123.352 47.3416C123.31 48.4591 123.07 49.5603 122.646 50.5948C122.353 51.3045 121.982 51.9794 121.54 52.6071C121.016 53.3159 120.408 53.9575 119.727 54.5172C118.969 55.1186 118.128 55.6084 117.231 55.9719C115.275 56.7677 113.114 56.9112 111.069 56.3808C110.12 56.1438 109.21 55.7697 108.369 55.2701C107.618 54.8078 106.93 54.2519 106.319 53.6156C105.797 53.0493 105.34 52.4257 104.958 51.7567C104.404 50.7938 104.024 49.7416 103.833 48.6475C103.788 48.3474 103.762 48.0447 103.754 47.7413C103.729 47.6394 103.717 47.5348 103.717 47.4299Z" fill="#263238"/>
<path d="M119.671 188.218C119.671 188.218 122.79 190.235 124.23 190.166C125.671 190.096 131.336 183.074 131.336 183.074L128.385 180.843L121.117 182.047L119.681 188.153" fill="#263238"/>
<path d="M181.496 85.2277C182.112 87.5628 182.135 90.015 181.561 92.361C180.987 94.7069 179.835 96.8719 178.21 98.6587C176.718 100.267 174.817 101.582 173.874 103.562C172.828 105.755 173.168 108.335 172.703 110.723C172.238 113.112 170.212 115.65 167.888 115.073C170.091 118.326 173.437 120.701 177.025 122.333C180.613 123.964 184.461 124.921 188.286 125.874C190.414 126.399 192.71 126.92 194.746 126.102C197.381 125.047 198.691 122.151 199.746 119.516L208.939 96.5534" fill="#263238"/>
<path d="M212.968 76.0721C212.966 75.211 212.642 74.3818 212.058 73.7485C211.475 73.1152 210.675 72.7238 209.817 72.6516L193.611 65.2158C187.76 64.7231 181.919 75.1937 181.677 81.0588C181.407 87.5651 182.253 95.41 183.127 100.248C184.884 109.98 191.45 110.165 191.45 110.165L192.008 125.911L212.345 125.874L212.968 76.0721Z" fill="#B5715A"/>
<path d="M185.943 88.8433C185.948 89.1696 186.08 89.4813 186.311 89.7121C186.542 89.9429 186.853 90.0747 187.18 90.0795C187.339 90.0882 187.498 90.0651 187.649 90.0113C187.799 89.9576 187.937 89.8744 188.055 89.7667C188.173 89.6589 188.268 89.5287 188.334 89.3837C188.401 89.2387 188.438 89.0818 188.444 88.9223C188.44 88.5963 188.309 88.2847 188.079 88.0538C187.849 87.8228 187.538 87.6909 187.212 87.6861C187.052 87.676 186.892 87.6983 186.741 87.7514C186.59 87.8046 186.451 87.8877 186.332 87.9956C186.214 88.1036 186.119 88.2343 186.052 88.3799C185.985 88.5255 185.948 88.6831 185.943 88.8433Z" fill="#263238"/>
<path d="M184.34 85.5156C184.475 85.6318 185.46 85.4737 186.775 85.7665C188.09 86.0593 188.997 86.617 189.155 86.5659C189.229 86.5426 189.099 86.3567 188.69 86.1011C188.105 85.7492 187.466 85.4979 186.798 85.3576C186.159 85.2081 185.497 85.1766 184.846 85.2646C184.428 85.339 184.27 85.4784 184.34 85.5156Z" fill="#263238"/>
<path d="M198.649 88.1926C198.653 88.5198 198.784 88.8326 199.015 89.0644C199.246 89.2962 199.558 89.4286 199.886 89.4334C200.045 89.4422 200.205 89.419 200.355 89.3653C200.505 89.3116 200.643 89.2284 200.761 89.1206C200.879 89.0128 200.974 88.8826 201.041 88.7376C201.107 88.5926 201.144 88.4358 201.15 88.2762C201.146 87.9498 201.016 87.6377 200.786 87.406C200.556 87.1743 200.245 87.0414 199.918 87.0354C199.759 87.0266 199.599 87.0498 199.448 87.1034C199.298 87.1571 199.159 87.2402 199.041 87.3479C198.923 87.4556 198.828 87.5858 198.76 87.7308C198.693 87.8759 198.655 88.0328 198.649 88.1926Z" fill="#263238"/>
<path d="M196.804 86.2499C196.999 86.2964 197.85 85.6132 199.253 85.2042C200.657 84.7953 201.823 84.8743 201.944 84.7395C202.005 84.6744 201.782 84.5582 201.27 84.5164C200.53 84.4726 199.787 84.5608 199.077 84.7767C198.386 84.9613 197.738 85.2768 197.167 85.7061C196.8 86.0268 196.702 86.2359 196.804 86.2499Z" fill="#263238"/>
<path d="M192.055 95.2381C192.055 95.1591 191.218 95.0336 189.856 94.8895C189.513 94.8616 189.187 94.8012 189.122 94.5642C189.088 94.2101 189.16 93.8538 189.331 93.5418C189.638 92.7006 189.959 91.8222 190.293 90.8974C191.627 87.1377 192.584 84.0518 192.431 83.996C192.278 83.9402 191.074 86.9518 189.74 90.7115C189.424 91.641 189.118 92.524 188.811 93.3652C188.602 93.7857 188.55 94.2665 188.662 94.7222C188.714 94.8502 188.796 94.9639 188.901 95.0537C189.007 95.1434 189.132 95.2067 189.266 95.2381C189.458 95.2845 189.655 95.3064 189.852 95.3031C191.213 95.3357 192.055 95.3217 192.055 95.2381Z" fill="#263238"/>
<path d="M191.451 110.277C196.053 110.251 200.558 108.948 204.463 106.513C204.463 106.513 201.596 113.697 191.809 112.991L191.451 110.277Z" fill="#884C3B"/>
<path d="M192.357 98.5146C192.624 98.0482 192.991 97.6472 193.432 97.3409C193.874 97.0346 194.378 96.8306 194.908 96.7439C195.217 96.7083 195.529 96.767 195.803 96.9121C196.078 97.0573 196.302 97.2822 196.447 97.5572C196.601 97.9172 196.667 98.3092 196.638 98.7C196.609 99.0908 196.486 99.4688 196.279 99.8019C196.081 100.152 195.784 100.437 195.425 100.62C195.067 100.804 194.663 100.878 194.262 100.834C193.6 100.66 193.005 100.292 192.552 99.7786C192.398 99.6553 192.276 99.4956 192.199 99.3139C192.159 99.1972 192.146 99.0729 192.161 98.9505C192.176 98.828 192.219 98.7107 192.287 98.6075" fill="#884C3B"/>
<path d="M196.052 96.0931C195.829 96.0931 195.856 97.5477 194.63 98.612C193.403 99.6762 191.841 99.5415 191.841 99.7552C191.841 99.8482 192.194 100.029 192.854 100.034C193.707 100.025 194.529 99.7176 195.178 99.165C195.802 98.6295 196.195 97.8735 196.275 97.0551C196.321 96.4416 196.149 96.0838 196.052 96.0931Z" fill="#263238"/>
<path d="M195.773 79.8502C195.949 80.1987 197.264 79.8502 198.854 79.8502C200.443 79.8502 201.768 80.1197 201.94 79.7665C202.009 79.5992 201.749 79.3018 201.196 78.995C200.46 78.6461 199.655 78.4697 198.84 78.4794C198.026 78.489 197.225 78.6845 196.498 79.0508C195.954 79.3622 195.698 79.6828 195.773 79.8502Z" fill="#263238"/>
<path d="M183.118 83.8842C183.42 84.1863 184.568 83.8377 185.953 83.7866C187.338 83.7355 188.518 83.9307 188.783 83.6007C188.895 83.4427 188.704 83.136 188.184 82.8664C187.462 82.5133 186.662 82.3532 185.86 82.4017C185.066 82.4279 184.292 82.6601 183.615 83.0755C183.141 83.4194 182.988 83.7401 183.118 83.8842Z" fill="#263238"/>
<path d="M222.955 100.187C222.114 95.8561 219.484 81.9789 215.608 74.7429C211.732 67.5069 207.303 64.6488 202.999 63.5892C201.366 63.1452 199.645 63.13 198.004 63.5452C196.363 63.9604 194.856 64.7919 193.63 65.9593C191.739 67.7346 191.195 72.7817 191.195 72.7817C191.195 72.7817 201.573 74.8312 205.184 80.6359C209.339 87.3002 210.384 90.6789 210.384 90.6789L211.778 94.3457C211.778 94.3457 212.875 112.196 212.513 115.724L228.1 121.352C224.754 114.469 223.801 104.533 222.955 100.187Z" fill="#263238"/>
<path d="M191.832 72.7026C191.832 72.7026 184.991 72.3494 182.964 79.0649C182.035 82.1043 181.942 90.939 181.942 90.939C181.942 90.939 180.478 83.9353 180.701 79.9804C180.924 76.0255 182.778 70.9923 185.739 68.1574C188.616 65.4015 191.069 64.0816 196.335 64.2768C196.335 64.2768 195.582 65.7733 194.285 67.7996C193.635 68.8173 192.612 68.9289 191.832 72.7026Z" fill="#263238"/>
<path d="M210.324 91.1946C210.384 89.0289 212.703 87.5324 214.599 88.5735C215.64 89.1404 216.458 90.3162 216.416 92.6167C216.309 98.7373 210.184 97.3664 210.175 97.1898C210.179 97.0968 210.258 93.7274 210.324 91.1946Z" fill="#B5715A"/>
<path d="M212.085 94.9033C212.113 94.9033 212.192 94.9823 212.373 95.066C212.624 95.1786 212.909 95.1903 213.168 95.0985C213.818 94.8708 214.381 93.853 214.432 92.7748C214.455 92.2496 214.362 91.7257 214.158 91.2412C214.105 91.0488 214.006 90.8723 213.869 90.7272C213.732 90.5822 213.561 90.473 213.372 90.4093C213.25 90.3732 213.12 90.3814 213.003 90.4324C212.886 90.4834 212.792 90.574 212.736 90.6881C212.652 90.8601 212.689 90.9809 212.657 90.9902C212.624 90.9995 212.526 90.888 212.582 90.637C212.616 90.4845 212.703 90.3493 212.829 90.2559C212.999 90.133 213.211 90.0813 213.419 90.1118C213.67 90.165 213.903 90.2818 214.096 90.4511C214.289 90.6204 214.435 90.8365 214.52 91.0785C214.77 91.6143 214.887 92.2027 214.859 92.7934C214.799 94.025 214.144 95.1682 213.256 95.4099C213.091 95.4542 212.918 95.461 212.75 95.4296C212.582 95.3982 212.423 95.3296 212.285 95.2286C212.094 95.052 212.066 94.9126 212.085 94.9033Z" fill="#884C3B"/>
<path d="M198.765 63.3984C198.765 63.4449 198.068 63.5936 197.009 64.063C195.627 64.6754 194.438 65.6522 193.57 66.8886C192.716 68.1341 192.049 69.4979 191.59 70.9365C191.218 72.038 191.032 72.7397 190.99 72.7258C190.999 72.5558 191.027 72.3874 191.074 72.2239C191.139 71.9032 191.264 71.4477 191.427 70.8854C191.844 69.4075 192.502 68.0085 193.374 66.7446C193.867 66.051 194.462 65.4367 195.14 64.9228C195.695 64.5091 196.299 64.1672 196.939 63.905C197.183 63.8013 197.432 63.7129 197.687 63.6401C197.875 63.5741 198.068 63.5213 198.263 63.4821C198.426 63.4321 198.595 63.404 198.765 63.3984Z" fill="#455A64"/>
<path d="M220.241 110.797C220.217 110.757 220.199 110.713 220.186 110.667C220.148 110.57 220.107 110.44 220.046 110.282C219.874 109.781 219.74 109.269 219.646 108.748C219.373 106.824 219.373 104.872 219.646 102.948C219.772 101.726 219.949 100.392 220.065 98.9605C220.215 97.4411 220.186 95.9093 219.976 94.3968C219.697 92.7353 219.114 91.1394 218.257 89.689C217.335 88.1298 216.201 86.7064 214.888 85.4598C212.197 82.8712 209.055 81.1099 206.22 79.5669C203.385 78.024 200.764 76.6948 198.691 75.3842C197.051 74.3532 195.467 73.2347 193.946 72.0335C193.407 71.6059 193.017 71.262 192.729 71.0296L192.417 70.7601C192.352 70.695 192.315 70.6625 192.32 70.6578L192.436 70.7415C192.52 70.8066 192.626 70.8856 192.757 70.9925L194.007 71.9591C195.094 72.7864 196.698 73.9528 198.784 75.2402C200.871 76.5275 203.46 77.8613 206.327 79.381C209.194 80.9007 212.331 82.676 215.055 85.2972C216.384 86.5598 217.532 88.0002 218.466 89.5774C219.333 91.0562 219.921 92.682 220.2 94.3736C220.404 95.9039 220.425 97.453 220.265 98.9884C220.139 100.429 219.953 101.777 219.8 102.971C219.518 104.883 219.494 106.825 219.73 108.743C219.816 109.261 219.934 109.774 220.083 110.277C220.134 110.44 220.172 110.565 220.2 110.667C220.217 110.71 220.231 110.753 220.241 110.797Z" fill="#455A64"/>
<path d="M121.93 180.457C122.037 180.361 122.16 180.282 122.292 180.225C122.642 180.037 123.007 179.882 123.385 179.76C124.639 179.358 125.975 179.286 127.265 179.551C128.553 179.822 129.75 180.415 130.746 181.275C131.044 181.534 131.318 181.818 131.564 182.126C131.741 182.349 131.82 182.479 131.806 182.488C131.792 182.498 131.401 182.024 130.635 181.41C129.641 180.604 128.469 180.048 127.216 179.789C125.964 179.53 124.667 179.576 123.436 179.923C122.488 180.193 121.949 180.499 121.93 180.457Z" fill="#263238"/>
<path d="M128.646 176.995C128.962 177.156 129.249 177.368 129.496 177.623C130.76 178.781 131.653 180.289 132.061 181.954C132.165 182.293 132.214 182.646 132.205 183C131.897 181.867 131.455 180.775 130.89 179.747C130.254 178.744 129.5 177.82 128.646 176.995Z" fill="#263238"/>
<path d="M164.133 216.865C164.133 216.865 169.069 192.834 179.53 188.186L221.008 186.969C221.008 186.969 234.713 196.147 236.907 217L164.133 216.865Z" fill="#263238"/>
<path d="M191.655 114.501C191.655 114.501 192.877 122.193 201.085 121.263C209.292 120.334 212.503 115.747 212.503 115.747L223.908 119.404L225.702 141.466C219.199 154.13 215.55 168.067 215.013 182.293C214.92 184.677 214.836 187.294 213.247 189.074C212.271 190.171 210.858 190.77 209.464 191.244C205.025 192.729 200.33 193.297 195.664 192.913C190.998 192.529 186.46 191.2 182.323 189.009C182.323 189.009 178.838 151.262 179.265 150.194C179.693 149.125 185.4 117.369 185.4 117.369L191.655 114.501Z" fill="#E0E0E0"/>
<path d="M179.53 116.244C179.53 116.244 172.28 116.756 170.337 117.727C168.395 118.698 142.978 150.584 141.988 151.072C141.18 151.476 126.052 165.535 119.811 179.142C118.579 181.824 117.626 185.649 119.653 188.186C119.653 188.186 126.94 179.036 131.318 183.051L150.893 163.211L171.341 151.286L179.53 116.244Z" fill="#455A64"/>
<g opacity="0.3">
<path d="M186.943 178.561C195.55 161.942 195.55 137.859 191.446 115.747L187.765 147.168L186.943 178.561Z" fill="black"/>
</g>
<path d="M168.381 122.072L169.027 149.027C169.027 149.027 171.606 178.891 172.103 178.891C172.601 178.891 174.046 189.413 172.103 194.107C170.161 198.801 163.85 205.117 163.85 205.117L171.783 213.696C171.783 213.696 179.219 201.877 181.496 194.27C183.773 186.662 190.075 175.173 191.046 153.795C192.018 132.417 191.618 111.56 191.618 111.56L185.381 116.077L179.386 116.202L168.381 122.072Z" fill="#455A64"/>
<path d="M182.76 192.833C182.76 192.833 182.76 192.745 182.825 192.578C182.89 192.41 182.941 192.155 183.034 191.834L183.819 188.967C184.479 186.471 185.413 182.851 186.278 178.32C186.71 176.056 187.124 173.561 187.407 170.884C187.542 169.536 187.644 168.137 187.677 166.701C187.722 165.22 187.641 163.739 187.435 162.272C187.32 161.515 187.142 160.768 186.901 160.041C186.654 159.302 186.436 158.549 186.106 157.815L185.641 156.7L185.139 155.594C184.814 154.85 184.442 154.116 184.075 153.372C182.588 150.412 180.85 147.442 178.963 144.468C177.336 141.898 175.668 139.421 173.976 137.078L173.911 136.985L173.999 136.916L186.134 126.956L186.213 127.142L175.524 128.374L175.31 128.397L175.445 128.23C178.498 124.512 180.975 121.463 182.69 119.358L184.665 116.955L185.186 116.332C185.307 116.193 185.372 116.128 185.372 116.128L185.204 116.351L184.707 116.988L182.76 119.372L175.58 128.295L175.501 128.155L186.19 126.887L186.547 126.845L186.269 127.073L174.148 137.064L174.171 136.902C175.868 139.249 177.536 141.726 179.167 144.301C181.026 147.279 182.792 150.254 184.279 153.233C184.651 153.976 185.023 154.711 185.348 155.464L185.85 156.574L186.315 157.694C186.631 158.433 186.863 159.191 187.114 159.934C187.355 160.674 187.534 161.433 187.649 162.202C187.854 163.682 187.932 165.176 187.881 166.668C187.849 168.118 187.742 169.522 187.602 170.874C187.31 173.579 186.887 176.075 186.445 178.343C185.553 182.879 184.586 186.494 183.908 188.985C183.559 190.226 183.276 191.188 183.076 191.839C182.974 192.155 182.899 192.401 182.843 192.578C182.788 192.754 182.76 192.833 182.76 192.833Z" fill="#263238"/>
<path d="M212.503 109.129C212.503 109.129 216.519 115.319 216.937 115.747C216.937 115.747 233.9 120.548 234.904 122.569C239.031 130.907 235.699 133.904 234.904 145.365C233.914 159.609 229.146 179.435 229.146 179.435C229.146 179.435 235.857 205.298 236.582 206.725C237.307 208.151 213.74 216.819 211.239 213.556C208.739 210.294 206.782 199.056 206.782 199.056C206.782 199.056 204.459 176.224 205.356 167.129C206.253 158.034 210.468 148.683 211.955 137.697C213.47 126.088 212.503 109.129 212.503 109.129Z" fill="#455A64"/>
<path d="M206.206 172.85C206.211 172.737 206.228 172.625 206.257 172.515C206.308 172.278 206.373 171.962 206.452 171.586C206.531 171.209 206.657 170.656 206.782 170.094C206.908 169.532 207.168 168.876 207.396 168.165C208.699 164.481 210.467 160.978 212.657 157.741C214.844 154.506 217.31 151.469 220.027 148.665C221.073 147.591 221.956 146.759 222.584 146.202C222.895 145.923 223.15 145.737 223.322 145.579C223.408 145.507 223.502 145.445 223.601 145.393C223.601 145.393 222.207 146.611 220.153 148.781C217.482 151.611 215.043 154.653 212.861 157.876C210.686 161.094 208.904 164.561 207.554 168.202C207.321 168.909 207.089 169.546 206.912 170.112C206.736 170.679 206.648 171.177 206.545 171.59C206.443 172.004 206.364 172.287 206.304 172.52C206.279 172.632 206.247 172.742 206.206 172.85Z" fill="#263238"/>
<path d="M216.918 116.035C216.987 116.134 217.045 116.24 217.09 116.351C217.202 116.583 217.351 116.895 217.555 117.281C217.941 118.117 218.485 119.288 219.159 120.724C219.496 121.455 219.862 122.249 220.255 123.104L220.869 124.428C221.073 124.893 221.306 125.358 221.478 125.85C222.221 127.839 223.039 130.033 223.899 132.306L225.823 137.474L225.869 137.599L225.739 137.627L221.208 138.607L221.273 138.468L223.55 143.469C223.806 144.054 224.015 144.524 224.168 144.863L224.322 145.235C224.343 145.276 224.357 145.319 224.364 145.365C224.336 145.329 224.312 145.29 224.294 145.249L224.113 144.891L223.448 143.52L221.096 138.552L221.041 138.44L221.166 138.412L225.688 137.404L225.609 137.557L223.657 132.417C222.807 130.126 221.998 127.946 221.259 125.962C221.087 125.455 220.859 124.995 220.655 124.535L220.06 123.206L219.01 120.799C218.373 119.353 217.848 118.173 217.476 117.332L217.072 116.402C217.01 116.284 216.959 116.162 216.918 116.035Z" fill="#263238"/>
<path d="M228.086 176.54C228.086 176.54 236.763 185.216 241.224 184.719C245.686 184.222 251.514 174.555 251.514 171.209C251.514 167.863 247.331 146.29 247.331 146.29L249.064 138.171L232.798 137.859L229.545 162.867L228.086 176.54Z" fill="#455A64"/>
<path d="M238.64 118.577C238.629 118.64 238.61 118.7 238.585 118.758L238.389 119.274L238.064 120.111C237.92 120.436 237.762 120.813 237.576 121.231C237.2 122.072 236.707 123.09 236.089 124.242C235.471 125.395 234.695 126.673 233.765 128.03C231.58 131.219 228.991 134.112 226.064 136.637C224.344 138.137 222.493 139.48 220.534 140.652C218.431 141.928 216.132 142.85 213.73 143.38C211.313 143.905 208.805 143.845 206.415 143.204C205.283 142.889 204.199 142.42 203.195 141.81C202.238 141.216 201.372 140.486 200.625 139.644C199.291 138.062 198.145 136.331 197.209 134.485C196.279 132.789 195.433 131.195 194.727 129.708C194.083 128.371 193.522 126.996 193.049 125.59C192.698 124.527 192.425 123.44 192.231 122.337C192.063 121.397 191.988 120.443 192.008 119.488C192.013 119.551 192.013 119.615 192.008 119.679C192.008 119.813 192.008 119.995 192.041 120.227C192.093 120.93 192.181 121.629 192.306 122.323C192.514 123.418 192.8 124.498 193.161 125.553C193.646 126.947 194.214 128.311 194.862 129.638C195.578 131.116 196.433 132.701 197.367 134.392C198.3 136.222 199.442 137.937 200.769 139.504C201.506 140.327 202.357 141.039 203.297 141.619C204.285 142.214 205.35 142.671 206.462 142.976C208.814 143.602 211.282 143.66 213.661 143.143C216.037 142.617 218.311 141.706 220.395 140.448C222.343 139.285 224.186 137.954 225.902 136.47C228.821 133.963 231.409 131.094 233.603 127.932C234.532 126.585 235.304 125.307 235.954 124.177C236.605 123.048 237.084 122.026 237.474 121.194C237.664 120.775 237.832 120.404 237.98 120.083L238.324 119.256L238.543 118.749C238.569 118.688 238.601 118.631 238.64 118.577Z" fill="#263238"/>
<path d="M235.206 119.172C235.124 119.281 235.032 119.382 234.932 119.474L234.123 120.301L231.093 123.308L226.617 127.77C225.72 128.642 224.736 129.421 223.68 130.093C222.54 130.836 221.241 131.299 219.888 131.446C218.526 131.606 217.148 131.341 215.942 130.688C215.387 130.373 214.9 129.949 214.511 129.442C214.122 128.935 213.839 128.356 213.679 127.737C213.405 126.632 213.277 125.497 213.298 124.358C213.298 123.299 213.335 122.314 213.354 121.412C213.44 119.998 213.34 118.58 213.056 117.192C212.958 116.821 212.826 116.46 212.661 116.114C212.6 115.993 212.546 115.869 212.499 115.742C212.578 115.852 212.646 115.968 212.703 116.091C212.89 116.433 213.038 116.794 213.145 117.169C213.468 118.56 213.596 119.99 213.526 121.417C213.526 122.318 213.484 123.304 213.498 124.358C213.487 125.475 213.619 126.589 213.893 127.672C214.047 128.262 214.318 128.815 214.69 129.298C215.062 129.781 215.528 130.184 216.058 130.484C217.224 131.108 218.552 131.359 219.865 131.204C221.18 131.061 222.444 130.612 223.555 129.894C224.599 129.228 225.574 128.459 226.464 127.598C227.328 126.789 228.1 125.957 228.867 125.232C229.634 124.507 230.335 123.81 230.981 123.183L234.058 120.227L234.899 119.432C234.996 119.339 235.098 119.252 235.206 119.172Z" fill="#263238"/>
<path d="M173.656 182.344C173.641 182.304 173.631 182.262 173.628 182.219L173.572 181.843C173.53 181.494 173.47 181.006 173.391 180.393C173.233 179.11 173.01 177.293 172.735 175.053C172.187 170.545 171.411 164.312 170.681 157.42C170.314 153.972 170.007 150.686 169.752 147.689C169.496 144.691 169.333 141.996 169.236 139.723C169.171 138.589 169.138 137.562 169.11 136.66C169.083 135.759 169.059 134.983 169.059 134.337C169.059 133.691 169.059 133.226 169.059 132.873V132.496C169.055 132.453 169.055 132.409 169.059 132.366C169.065 132.408 169.065 132.45 169.059 132.492C169.059 132.594 169.059 132.719 169.083 132.873C169.083 133.226 169.101 133.714 169.138 134.337C169.138 134.969 169.185 135.731 169.231 136.66C169.278 137.59 169.32 138.589 169.389 139.718C169.51 141.986 169.719 144.682 169.961 147.675C170.203 150.668 170.533 153.953 170.89 157.402C171.625 164.289 172.373 170.521 172.875 175.034C173.116 177.279 173.34 179.105 173.456 180.383C173.516 181.001 173.563 181.489 173.595 181.843C173.595 181.997 173.604 182.123 173.623 182.219C173.641 182.259 173.652 182.301 173.656 182.344Z" fill="#263238"/>
<path d="M249.083 138.171H247.893L244.557 138.138L232.799 137.962L232.91 137.873C232.25 141.363 231.716 145.342 231.302 149.548C230.568 157.267 230.261 164.285 229.885 169.355C229.703 171.892 229.531 173.942 229.42 175.355C229.35 176.052 229.29 176.595 229.253 176.986C229.229 177.158 229.215 177.297 229.202 177.409C229.198 177.456 229.191 177.503 229.178 177.548C229.172 177.5 229.172 177.452 229.178 177.404C229.178 177.297 229.178 177.153 229.202 176.981C229.234 176.591 229.276 176.052 229.327 175.35C229.434 173.956 229.578 171.878 229.736 169.346C230.071 164.275 230.349 157.262 231.088 149.524C231.497 145.309 232.041 141.326 232.72 137.831V137.739H232.813L244.566 138.003L247.907 138.096L248.79 138.129H249.018C249.06 138.161 249.083 138.166 249.083 138.171Z" fill="#263238"/>
<path d="M245.11 144.064C245.813 144.064 246.383 143.493 246.383 142.79C246.383 142.087 245.813 141.517 245.11 141.517C244.406 141.517 243.836 142.087 243.836 142.79C243.836 143.493 244.406 144.064 245.11 144.064Z" fill="#E0E0E0"/>
<path d="M246.383 142.79C246.35 142.691 246.322 142.59 246.299 142.488C246.216 142.229 246.054 142.003 245.835 141.842C245.675 141.728 245.49 141.656 245.295 141.631C245.1 141.605 244.903 141.629 244.719 141.698C244.497 141.781 244.305 141.931 244.17 142.126C244.035 142.321 243.963 142.553 243.963 142.79C243.963 143.028 244.035 143.259 244.17 143.454C244.305 143.65 244.497 143.799 244.719 143.882C244.903 143.951 245.101 143.973 245.296 143.948C245.49 143.922 245.675 143.848 245.835 143.734C246.055 143.573 246.217 143.347 246.299 143.088C246.321 142.987 246.349 142.887 246.383 142.79C246.383 142.79 246.425 142.902 246.383 143.111C246.322 143.411 246.157 143.681 245.918 143.873C245.739 144.017 245.525 144.112 245.298 144.15C245.071 144.189 244.839 144.168 244.622 144.091C244.359 143.99 244.133 143.812 243.973 143.579C243.813 143.347 243.728 143.072 243.728 142.79C243.728 142.508 243.813 142.233 243.973 142.001C244.133 141.769 244.359 141.59 244.622 141.489C244.839 141.412 245.071 141.392 245.298 141.43C245.525 141.468 245.739 141.564 245.918 141.707C246.158 141.897 246.323 142.165 246.383 142.465C246.43 142.674 246.397 142.79 246.383 142.79Z" fill="#263238"/>
<path d="M208.915 183.26C209.619 183.26 210.189 182.69 210.189 181.987C210.189 181.283 209.619 180.713 208.915 180.713C208.212 180.713 207.642 181.283 207.642 181.987C207.642 182.69 208.212 183.26 208.915 183.26Z" fill="#E0E0E0"/>
<path d="M210.179 181.986C210.179 181.986 210.152 181.875 210.091 181.689C210.008 181.43 209.845 181.204 209.626 181.043C209.452 180.915 209.245 180.839 209.03 180.821C208.814 180.804 208.598 180.847 208.405 180.945C208.212 181.042 208.051 181.192 207.937 181.376C207.824 181.56 207.764 181.772 207.764 181.989C207.764 182.205 207.824 182.417 207.937 182.601C208.051 182.786 208.212 182.935 208.405 183.033C208.598 183.131 208.814 183.173 209.03 183.156C209.245 183.139 209.452 183.062 209.626 182.934C209.845 182.773 210.008 182.547 210.091 182.288C210.152 182.103 210.156 181.986 210.179 181.986C210.208 182.093 210.208 182.205 210.179 182.312C210.121 182.612 209.956 182.881 209.715 183.069C209.536 183.213 209.324 183.309 209.098 183.348C208.872 183.387 208.639 183.368 208.423 183.292C208.158 183.192 207.93 183.013 207.77 182.781C207.609 182.548 207.523 182.272 207.523 181.989C207.523 181.706 207.609 181.43 207.77 181.197C207.93 180.964 208.158 180.785 208.423 180.685C208.639 180.609 208.872 180.59 209.098 180.629C209.324 180.668 209.536 180.764 209.715 180.908C209.956 181.096 210.121 181.365 210.179 181.666C210.209 181.77 210.209 181.882 210.179 181.986Z" fill="#263238"/>
<path d="M212.824 201.389C212.824 201.642 212.749 201.889 212.609 202.099C212.468 202.31 212.268 202.473 212.035 202.57C211.801 202.667 211.544 202.692 211.297 202.643C211.049 202.594 210.821 202.472 210.642 202.293C210.463 202.114 210.342 201.887 210.292 201.639C210.243 201.391 210.268 201.134 210.365 200.9C210.462 200.667 210.626 200.467 210.836 200.327C211.046 200.186 211.293 200.111 211.546 200.111C211.885 200.111 212.21 200.246 212.45 200.486C212.689 200.725 212.824 201.05 212.824 201.389Z" fill="#E0E0E0"/>
<path d="M212.824 201.389C212.801 201.389 212.796 201.273 212.736 201.087C212.654 200.828 212.491 200.601 212.271 200.441C212.136 200.339 211.981 200.267 211.816 200.23C211.651 200.193 211.479 200.192 211.314 200.227C211.148 200.263 210.992 200.333 210.857 200.434C210.721 200.535 210.609 200.665 210.527 200.813C210.446 200.962 210.398 201.126 210.386 201.295C210.374 201.464 210.399 201.633 210.459 201.791C210.518 201.95 210.611 202.093 210.732 202.213C210.852 202.332 210.997 202.423 211.156 202.482C211.339 202.55 211.537 202.573 211.732 202.547C211.926 202.521 212.112 202.447 212.271 202.333C212.492 202.174 212.656 201.947 212.736 201.687C212.796 201.501 212.801 201.385 212.824 201.389C212.854 201.494 212.854 201.605 212.824 201.71C212.767 202.011 212.601 202.28 212.359 202.468C212.18 202.612 211.967 202.708 211.74 202.747C211.513 202.786 211.28 202.766 211.063 202.691C210.798 202.59 210.57 202.412 210.41 202.179C210.249 201.946 210.163 201.67 210.163 201.387C210.163 201.104 210.249 200.828 210.41 200.595C210.57 200.362 210.798 200.184 211.063 200.083C211.28 200.008 211.513 199.988 211.74 200.027C211.967 200.066 212.18 200.162 212.359 200.307C212.601 200.494 212.767 200.763 212.824 201.064C212.853 201.171 212.853 201.283 212.824 201.389Z" fill="#263238"/>
<path d="M247.359 146.29C247.359 146.359 244.022 146.257 239.923 146.071C235.824 145.885 232.487 145.676 232.487 145.607C232.487 145.537 235.824 145.639 239.923 145.83C244.022 146.02 247.359 146.225 247.359 146.29Z" fill="#263238"/>
<path d="M173.823 171.181L169.027 173.096L158.593 146.987C158.008 145.522 157.14 144.187 156.039 143.058C154.938 141.928 153.626 141.027 152.176 140.405C150.727 139.783 149.169 139.452 147.592 139.432C146.015 139.412 144.45 139.703 142.985 140.288C141.52 140.873 140.185 141.74 139.056 142.841C137.926 143.942 137.025 145.255 136.403 146.704C135.781 148.154 135.45 149.711 135.43 151.289C135.41 152.866 135.701 154.431 136.286 155.896L146.719 182.005L141.923 183.924L131.485 157.815C130.648 155.722 130.232 153.484 130.26 151.229C130.288 148.975 130.76 146.748 131.649 144.676C132.538 142.604 133.826 140.727 135.44 139.153C137.054 137.578 138.963 136.338 141.056 135.501C143.15 134.664 145.388 134.248 147.642 134.276C149.897 134.304 152.124 134.776 154.196 135.665C158.381 137.46 161.681 140.844 163.371 145.072L173.823 171.181Z" fill="#E0E0E0"/>
<path d="M173.823 171.181L173.609 170.661L173 169.132L170.677 163.332C169.664 160.813 168.423 157.755 166.987 154.167C166.268 152.382 165.503 150.477 164.691 148.451C163.84 146.448 163.153 144.217 161.833 142.191C160.464 140.058 158.628 138.264 156.465 136.944C156.181 136.772 155.903 136.595 155.614 136.432L154.713 135.991C154.109 135.701 153.488 135.448 152.854 135.233C152.533 135.113 152.194 135.048 151.864 134.95C151.534 134.852 151.199 134.75 150.855 134.704C150.165 134.566 149.467 134.473 148.764 134.425C147.327 134.317 145.881 134.386 144.461 134.629L143.387 134.88L142.848 135.006L142.318 135.182L141.259 135.549C140.91 135.684 140.575 135.856 140.231 136.014C137.397 137.334 134.984 139.414 133.26 142.023C131.888 144.092 130.985 146.437 130.614 148.892C130.244 151.347 130.416 153.853 131.118 156.235C131.629 157.852 132.326 159.446 132.977 161.068L140.994 181.127L142.09 183.864L141.932 183.799L146.729 181.879L146.664 182.037C144.586 176.846 142.56 171.762 140.585 166.826L137.675 159.53L136.253 155.975C135.793 154.792 135.507 153.549 135.403 152.285C135.24 149.811 135.835 147.347 137.108 145.221C137.249 144.958 137.404 144.704 137.573 144.459L138.108 143.743C138.869 142.842 139.748 142.046 140.719 141.377C140.961 141.21 141.217 141.075 141.468 140.913L141.839 140.694L142.235 140.513C143.265 140.018 144.36 139.67 145.488 139.481C146.584 139.308 147.698 139.278 148.801 139.393C150.925 139.64 152.946 140.442 154.662 141.717C156.287 142.894 157.579 144.473 158.412 146.299C158.51 146.517 158.612 146.736 158.71 146.95C158.807 147.163 158.886 147.391 158.97 147.609L159.49 148.906C159.828 149.767 160.163 150.609 160.494 151.43L164.101 160.487C166.266 165.953 167.963 170.247 169.092 173.073L169.045 173.049L172.67 171.623L173.558 171.279L173.855 171.167L173.577 171.288C173.381 171.367 173.112 171.483 172.703 171.646L169.073 173.114H169.041V173.082C167.898 170.247 166.183 165.981 163.989 160.534C162.892 157.806 161.665 154.78 160.355 151.485L159.346 148.966C159.174 148.539 158.998 148.107 158.826 147.67L158.561 147.01C158.463 146.796 158.366 146.582 158.263 146.369C157.855 145.491 157.343 144.666 156.739 143.91C156.099 143.142 155.368 142.454 154.564 141.861C152.87 140.617 150.88 139.837 148.792 139.597C147.708 139.489 146.615 139.52 145.539 139.69C144.436 139.88 143.364 140.223 142.355 140.708L141.97 140.885L141.602 141.103C141.361 141.252 141.105 141.387 140.868 141.545C140.394 141.872 139.942 142.231 139.516 142.618C139.084 143.007 138.68 143.427 138.307 143.873L137.782 144.579C137.596 144.812 137.466 145.077 137.318 145.323C136.07 147.413 135.488 149.833 135.649 152.262C135.755 153.502 136.036 154.721 136.486 155.882C136.95 157.058 137.415 158.247 137.912 159.442L140.826 166.734L146.91 181.945L146.956 182.056L146.845 182.103C145.283 182.721 143.68 183.367 142.049 184.017L141.932 184.064L141.891 183.952L140.794 181.21C138.047 174.341 135.37 167.63 132.782 161.152C132.145 159.525 131.453 157.95 130.923 156.295C130.457 154.652 130.222 152.952 130.226 151.244C130.265 149.571 130.529 147.911 131.011 146.308C131.51 144.751 132.215 143.268 133.107 141.898C134.848 139.259 137.285 137.154 140.148 135.814C140.501 135.661 140.84 135.489 141.194 135.35L142.262 134.982C142.444 134.927 142.62 134.857 142.797 134.806L143.345 134.68L144.433 134.429C145.872 134.181 147.336 134.113 148.792 134.225C149.501 134.274 150.206 134.37 150.902 134.513C151.247 134.576 151.588 134.659 151.924 134.759C152.259 134.862 152.603 134.927 152.924 135.048C153.572 135.269 154.209 135.527 154.829 135.819L155.758 136.284C156.047 136.446 156.33 136.632 156.614 136.8C158.797 138.139 160.649 139.957 162.028 142.116C163.357 144.175 164.04 146.415 164.886 148.427L167.173 154.172C168.595 157.755 169.817 160.841 170.821 163.364L173.112 169.164L173.707 170.67C173.763 170.991 173.823 171.181 173.823 171.181Z" fill="#263238"/>
<path d="M171.234 153.28L134.787 167.851C132.401 168.804 131.24 171.512 132.194 173.897L143.43 202.003C144.383 204.389 147.091 205.55 149.476 204.596L185.924 190.025C188.309 189.072 189.47 186.365 188.517 183.979L177.281 155.873C176.327 153.487 173.62 152.326 171.234 153.28Z" fill="#016CDE"/>
<g opacity="0.3">
<path d="M171.07 153.346L134.951 167.785C132.474 168.775 131.27 171.585 132.259 174.061L143.364 201.839C144.354 204.316 147.164 205.52 149.64 204.531L185.76 190.091C188.236 189.101 189.441 186.291 188.451 183.815L177.346 156.037C176.356 153.561 173.546 152.356 171.07 153.346Z" fill="black"/>
</g>
<path d="M165.936 155.398L132.721 168.676C130.342 169.627 129.185 172.326 130.136 174.704L141.382 202.836C142.333 205.215 145.032 206.372 147.411 205.421L180.626 192.143C183.004 191.192 184.162 188.493 183.211 186.114L171.965 157.983C171.014 155.604 168.315 154.447 165.936 155.398Z" fill="#016CDE"/>
<g opacity="0.3">
<path d="M161.182 174.853C160.804 173.896 160.167 173.063 159.342 172.449C158.516 171.834 157.536 171.462 156.511 171.375C155.485 171.288 154.456 171.488 153.539 171.955C152.622 172.421 151.853 173.134 151.319 174.013C150.785 174.893 150.507 175.904 150.516 176.933C150.526 177.961 150.823 178.967 151.373 179.837C151.923 180.706 152.706 181.404 153.632 181.853C154.557 182.302 155.59 182.483 156.614 182.377L159.119 188.651C159.268 189.022 159.559 189.318 159.926 189.474C160.294 189.631 160.709 189.636 161.08 189.488C161.264 189.414 161.431 189.306 161.573 189.168C161.714 189.03 161.828 188.865 161.906 188.683C161.984 188.502 162.025 188.306 162.028 188.109C162.031 187.911 161.994 187.715 161.921 187.531L159.411 181.257C160.363 180.527 161.051 179.507 161.37 178.352C161.69 177.196 161.624 175.968 161.182 174.853Z" fill="black"/>
</g>
<path d="M183.569 186.969C183.504 186.992 180.924 180.602 177.806 172.696C174.687 164.791 172.201 158.359 172.266 158.336C172.331 158.313 174.906 164.703 178.029 172.608C181.152 180.513 183.629 186.945 183.569 186.969Z" fill="#263238"/>
<path d="M160.791 181.786C161.297 181.261 161.737 180.675 162.102 180.044C162.478 179.351 162.73 178.597 162.846 177.817C163.004 176.867 162.933 175.892 162.638 174.974C162.343 174.056 161.832 173.223 161.149 172.543C160.605 171.97 159.963 171.498 159.253 171.148C158.587 170.85 157.888 170.63 157.171 170.493C157.37 170.482 157.57 170.494 157.766 170.53C158.304 170.61 158.829 170.767 159.323 170.995C160.064 171.334 160.737 171.807 161.307 172.389C162.023 173.089 162.558 173.953 162.864 174.906C163.17 175.86 163.239 176.873 163.064 177.859C162.937 178.661 162.661 179.432 162.251 180.132C161.982 180.606 161.645 181.038 161.252 181.415C161.115 181.558 160.96 181.682 160.791 181.786Z" fill="#263238"/>
<path d="M161.01 158.661C161.033 158.721 155.456 161.096 148.55 163.964C141.644 166.831 136.002 169.108 136.002 169.048C136.002 168.988 141.556 166.613 148.467 163.741C155.377 160.868 160.982 158.601 161.01 158.661Z" fill="white"/>
<path d="M151.859 181.787C151.733 181.725 151.618 181.645 151.515 181.55C151.227 181.307 150.966 181.034 150.735 180.736C149.95 179.751 149.484 178.55 149.401 177.293C149.318 176.036 149.621 174.784 150.27 173.705C150.462 173.38 150.688 173.076 150.944 172.799C151.03 172.689 151.134 172.595 151.251 172.52C151.288 172.552 150.865 172.984 150.419 173.788C149.831 174.852 149.56 176.063 149.638 177.276C149.716 178.489 150.14 179.654 150.86 180.634C151.418 181.392 151.887 181.749 151.859 181.787Z" fill="white"/>
<path d="M154.875 183.404C154.875 183.474 154.513 183.469 154.09 183.404C153.667 183.339 153.328 183.223 153.342 183.153C153.356 183.083 153.704 183.092 154.127 183.153C154.55 183.213 154.875 183.339 154.875 183.404Z" fill="white"/>
<path d="M139.864 137.065C139.602 137.234 139.33 137.389 139.051 137.529C138.315 137.953 137.614 138.434 136.955 138.97C134.453 141.027 132.677 143.832 131.887 146.973C131.097 150.114 131.336 153.426 132.568 156.421C132.796 156.979 132.94 157.281 132.921 157.29C132.871 157.225 132.829 157.155 132.796 157.081C132.721 156.942 132.6 156.737 132.48 156.458C132.122 155.678 131.839 154.866 131.634 154.032C130.926 151.264 131.044 148.349 131.973 145.647C132.902 142.945 134.602 140.574 136.862 138.826C137.536 138.295 138.258 137.828 139.018 137.432C139.288 137.288 139.506 137.199 139.651 137.134C139.719 137.104 139.791 137.081 139.864 137.065Z" fill="white"/>
<path d="M134.338 161.942C134.059 161.547 133.846 161.109 133.706 160.646C133.494 160.207 133.356 159.736 133.297 159.251C133.581 159.644 133.794 160.083 133.929 160.548C134.141 160.987 134.28 161.458 134.338 161.942Z" fill="white"/>
<g opacity="0.3">
<path d="M169.11 134.481C167.024 140.453 168.055 147.168 170.379 153.07C170.379 153.052 169.166 140.731 169.11 134.481Z" fill="black"/>
</g>
<g opacity="0.3">
<path d="M205.648 178.078C207.949 172.882 210.254 167.668 213.219 162.82C216.184 157.973 219.725 153.368 224.256 149.961C225.483 149.032 227.775 147.303 227.775 147.303C227.775 147.303 227.161 146.141 226.557 145.179C225.86 144.064 224.698 142.13 224.085 141.177L226.803 141.721C226.803 141.721 224.944 137.436 224.995 137.724C223.781 138.041 222.551 138.294 221.31 138.482C222.263 140.759 223.276 142.818 224.229 145.095C219.116 149.162 214.934 154.279 211.43 159.688C207.925 165.098 205.5 171.376 205.625 177.813" fill="black"/>
</g>
<path d="M215.366 96.5205C215.427 96.4694 215.571 96.5205 215.733 96.7017C215.952 96.9825 216.064 97.3316 216.049 97.687C216.05 97.9432 215.996 98.1966 215.891 98.4306C215.763 98.7139 215.566 98.9612 215.32 99.1509C215.039 99.3726 214.706 99.5178 214.353 99.5723C213.999 99.6268 213.638 99.5887 213.304 99.4619C212.969 99.335 212.674 99.1236 212.445 98.8484C212.217 98.5732 212.064 98.2435 212.001 97.8915C211.947 97.6133 211.956 97.3263 212.03 97.0524C212.103 96.7785 212.238 96.5251 212.424 96.3114C212.65 96.0382 212.964 95.8524 213.312 95.7862C213.558 95.7537 213.693 95.8141 213.712 95.8931C213.749 96.0604 213.349 96.2742 213.131 96.7947C213.008 97.0588 212.992 97.3599 213.084 97.6359C213.131 97.7945 213.213 97.9402 213.325 98.0615C213.438 98.1827 213.577 98.2761 213.731 98.3343C213.886 98.3924 214.052 98.4138 214.217 98.3966C214.381 98.3795 214.539 98.3243 214.678 98.2354C214.931 98.093 215.12 97.8581 215.203 97.5801C215.38 97.0457 215.222 96.632 215.366 96.5205Z" fill="#E0E0E0"/>
<path d="M131.438 195.845C131.438 195.845 133.023 200.957 133.841 201.984C134.659 203.011 140.129 203.564 140.129 203.564L131.438 195.845Z" fill="#B5715A"/>
<path d="M137.991 187.721L141.026 190.157L150.033 197.1C150.033 197.1 149.977 198.773 147.951 198.392C146.306 198.08 142.657 196.068 142.657 196.068C142.657 196.068 146.942 200.093 147.091 201.975V202.319C147.087 202.736 146.92 203.134 146.626 203.43L141.621 200.088C141.621 200.088 142.695 201.975 143.75 203.931C143.908 204.325 143.96 204.753 143.899 205.172C143.839 205.592 143.669 205.988 143.406 206.32L132.252 196.965L132.182 189.994L137.968 187.717" fill="#B5715A"/>
<path d="M136.806 192.09C136.95 192.099 137.091 192.13 137.225 192.183C137.355 192.229 137.508 192.299 137.689 192.378C137.871 192.457 138.057 192.573 138.27 192.694C139.116 193.196 140.19 194.009 141.379 194.902C142.375 195.676 143.424 196.381 144.516 197.011C145.367 197.476 145.943 197.653 145.911 197.695C145.769 197.685 145.629 197.654 145.497 197.602C145.339 197.556 145.184 197.5 145.032 197.434C144.826 197.356 144.624 197.266 144.428 197.165C143.298 196.573 142.223 195.881 141.217 195.097C140.027 194.2 138.977 193.368 138.163 192.838L137.61 192.499L137.174 192.271C137.044 192.226 136.921 192.165 136.806 192.09Z" fill="#884C3B"/>
<path d="M135.784 195.487C136.127 195.651 136.451 195.852 136.751 196.087C137.322 196.482 138.094 197.058 138.916 197.727C139.739 198.396 140.459 199.033 140.966 199.512C141.255 199.752 141.516 200.025 141.742 200.325C141.421 200.129 141.122 199.9 140.85 199.642L138.763 197.913L136.648 196.221C136.336 196.006 136.047 195.76 135.784 195.487Z" fill="#884C3B"/>
<path d="M120.74 186.968C120.661 187.057 120.777 187.224 120.852 187.382C122.065 189.915 132.47 197.109 132.47 197.109L138.145 187.438C138.145 187.438 142.267 189.432 143.959 188.971C145.353 188.59 147.974 188.307 146.747 185.862C146.747 185.862 140.933 184.793 138.958 183.943C136.983 183.092 135.747 182.651 135.747 182.651C133.491 182.705 131.237 182.481 129.036 181.986C129.036 181.986 125.56 181.498 120.74 186.968Z" fill="#B5715A"/>
<path d="M143.141 206.092C142.68 205.782 142.24 205.44 141.825 205.07C140.97 204.378 139.892 203.499 138.693 202.533C137.494 201.566 136.369 200.622 135.607 199.935C135.222 199.595 134.915 199.312 134.706 199.112C134.589 199.016 134.486 198.905 134.399 198.782C134.862 199.092 135.303 199.433 135.719 199.805L138.846 202.342C140.069 203.337 141.17 204.252 141.932 204.94C142.318 205.279 142.629 205.563 142.834 205.763C143.038 205.962 143.155 206.083 143.141 206.092Z" fill="#884C3B"/>
<path d="M240.676 102.99L244.259 103.552L244.691 100.815L243.297 100.596L243.492 99.3508L242.2 99.1463L242.372 98.0541L243.864 98.2865L244.013 97.357L241.624 96.9806L241.68 96.6227C241.699 96.3968 241.628 96.1723 241.483 95.9982C241.338 95.8241 241.129 95.7145 240.904 95.6933C240.679 95.6787 240.457 95.7511 240.284 95.8955C240.111 96.04 240 96.2455 239.974 96.4694C239.28 100.9 238.585 105.326 237.887 109.747L237.33 113.288C236.171 113.32 235.067 113.783 234.232 114.587C233.397 115.391 232.893 116.477 232.818 117.633C232.743 118.79 233.103 119.932 233.827 120.837C234.551 121.742 235.587 122.344 236.731 122.525C237.876 122.705 239.047 122.452 240.014 121.814C240.981 121.176 241.676 120.2 241.961 119.077C242.246 117.954 242.101 116.765 241.554 115.743C241.008 114.721 240.1 113.94 239.007 113.553C239.547 110.145 240.084 106.737 240.62 103.329L240.676 102.99ZM240.876 118.461C240.769 119.135 240.465 119.763 240.002 120.265C239.539 120.766 238.937 121.119 238.274 121.279C237.61 121.439 236.914 121.399 236.273 121.163C235.632 120.927 235.076 120.507 234.674 119.955C234.272 119.403 234.043 118.744 234.015 118.062C233.987 117.38 234.162 116.705 234.518 116.122C234.874 115.54 235.395 115.075 236.014 114.789C236.634 114.502 237.324 114.405 237.999 114.511C238.449 114.581 238.88 114.74 239.268 114.978C239.656 115.215 239.993 115.527 240.26 115.896C240.528 116.264 240.72 116.681 240.825 117.124C240.931 117.566 240.948 118.026 240.876 118.475V118.461Z" fill="#E0E0E0"/>
<path d="M240.876 118.475C240.903 117.984 240.851 117.491 240.722 117.016C240.564 116.477 240.271 115.988 239.872 115.594C239.363 115.078 238.701 114.74 237.985 114.632L238.045 114.432L238.766 114.748L237.985 114.632C237.375 114.538 236.752 114.615 236.183 114.853C235.614 115.092 235.123 115.484 234.763 115.984C234.403 116.485 234.189 117.076 234.144 117.691C234.099 118.306 234.225 118.922 234.509 119.47C234.806 120.061 235.276 120.547 235.856 120.864C236.345 121.137 236.894 121.285 237.454 121.292C238.015 121.299 238.568 121.166 239.063 120.906C239.739 120.547 240.278 119.975 240.597 119.279C240.704 119.018 240.797 118.751 240.876 118.48C240.886 118.552 240.886 118.626 240.876 118.698C240.841 118.91 240.783 119.117 240.704 119.316C240.407 120.056 239.863 120.67 239.165 121.054C238.751 121.282 238.296 121.424 237.826 121.473C237.356 121.521 236.881 121.476 236.429 121.339C235.978 121.201 235.558 120.975 235.194 120.673C234.831 120.372 234.531 120 234.313 119.581C234.01 118.996 233.876 118.339 233.924 117.682C233.972 117.025 234.202 116.395 234.587 115.861C234.972 115.326 235.498 114.91 236.106 114.657C236.715 114.403 237.381 114.324 238.031 114.427L237.971 114.627L237.218 114.283L238.031 114.427C238.788 114.552 239.483 114.921 240.011 115.477C240.417 115.901 240.708 116.421 240.857 116.988C240.949 117.349 240.984 117.722 240.959 118.094C240.946 118.224 240.918 118.352 240.876 118.475Z" fill="#263238"/>
<path d="M240.676 102.99C240.676 102.99 240.676 103.101 240.639 103.324C240.509 104.333 239.946 108.046 239.096 113.549L239.045 113.456C240.113 113.856 240.998 114.634 241.532 115.642C242.066 116.65 242.213 117.819 241.945 118.928C241.676 120.037 241.011 121.01 240.075 121.662C239.138 122.314 237.996 122.601 236.863 122.468C235.729 122.336 234.684 121.793 233.923 120.943C233.163 120.092 232.74 118.992 232.734 117.851C232.729 116.711 233.141 115.607 233.894 114.749C234.646 113.892 235.687 113.339 236.818 113.196C236.99 113.168 237.162 113.163 237.33 113.149L237.214 113.251C237.808 109.496 238.38 105.876 238.914 102.483C239.184 100.787 239.444 99.1465 239.695 97.5756C239.756 97.1806 239.821 96.7949 239.881 96.4091C239.913 96.195 240.014 95.9974 240.169 95.8469C240.325 95.6964 240.526 95.6016 240.741 95.5772C240.952 95.5571 241.163 95.6072 241.342 95.7199C241.521 95.8326 241.658 96.0014 241.731 96.2C241.791 96.3938 241.791 96.6011 241.731 96.7949V96.9296V96.9668L241.531 96.9389V96.9111V96.846L241.577 96.5764L241.773 96.609L241.717 96.9668L241.633 96.8553L244.022 97.2364H244.115V97.3293C244.059 97.6639 244.013 97.9707 243.962 98.2588V98.3471H243.873L242.381 98.1054L242.479 98.0357C242.414 98.4308 242.358 98.784 242.302 99.1279L242.233 99.0349L243.529 99.244H243.604V99.323C243.529 99.7878 243.464 100.178 243.399 100.564L243.339 100.48L244.733 100.708H244.798V100.773C244.625 101.814 244.47 102.727 244.333 103.51V103.561H244.282L241.638 103.097L240.945 102.976L240.708 102.929H240.931L241.615 103.027L244.301 103.417L244.24 103.459C244.361 102.674 244.496 101.763 244.654 100.722L244.71 100.796L243.316 100.587H243.246V100.517L243.436 99.2719L243.501 99.3602L242.209 99.1604H242.126V99.0814C242.177 98.7328 242.233 98.3796 242.293 97.9846V97.9009H242.377L243.873 98.1287L243.766 98.203C243.817 97.9009 243.864 97.5942 243.915 97.2735L243.994 97.3804L241.601 97.0086H241.503V96.9111L241.559 96.5486L241.754 96.5811L241.712 96.8506V96.9157V96.9436C241.313 96.8785 241.605 96.9436 241.512 96.9064V96.8739V96.7391C241.562 96.5786 241.562 96.407 241.512 96.2465C241.455 96.0906 241.348 95.958 241.208 95.8697C241.067 95.7814 240.901 95.7422 240.736 95.7585C240.566 95.7777 240.408 95.853 240.286 95.9726C240.164 96.0922 240.085 96.2491 240.062 96.4184L239.881 97.5803L239.114 102.493C238.584 105.885 238.013 109.506 237.427 113.261V113.354H237.325C237.167 113.354 237 113.354 236.837 113.395C235.913 113.522 235.051 113.931 234.368 114.566C233.686 115.201 233.216 116.032 233.023 116.944C232.83 117.857 232.924 118.806 233.291 119.664C233.659 120.521 234.282 121.243 235.076 121.733C236.057 122.342 237.235 122.551 238.366 122.318C239.336 122.114 240.212 121.599 240.863 120.851C241.514 120.104 241.903 119.164 241.971 118.176C242.039 117.187 241.783 116.203 241.242 115.373C240.7 114.543 239.903 113.912 238.97 113.577L238.905 113.553V113.484C239.788 107.981 240.397 104.273 240.578 103.259C240.653 103.078 240.676 102.99 240.676 102.99Z" fill="#263238"/>
<path d="M232.785 116.458L238.529 114.948L241.513 115.329C241.784 115.365 242.042 115.469 242.262 115.631C242.482 115.794 242.658 116.009 242.772 116.258L244.705 120.469C244.705 120.469 247.494 122.792 247.173 124.187C246.852 125.581 244.264 138.092 244.264 138.092L236.563 137.859C235.216 136.19 234.406 134.152 234.239 132.013C234.156 130.256 234.825 129.183 234.658 128.253C234.546 127.616 234.941 126.482 235.122 125.609L235.355 124.763L234.843 125.009C234.624 125.116 234.382 125.17 234.138 125.166C233.894 125.163 233.654 125.102 233.438 124.988C233.221 124.874 233.035 124.712 232.893 124.513C232.751 124.314 232.659 124.084 232.622 123.843C232.62 123.798 232.62 123.753 232.622 123.708C232.597 123.213 232.677 122.718 232.857 122.257C233.037 121.795 233.314 121.378 233.668 121.031L236.572 118.177C236.572 118.177 233.361 120.009 232.785 116.458Z" fill="#B5715A"/>
<path d="M242.558 123.443C242.378 123.446 242.199 123.426 242.024 123.383L240.597 123.127L238.482 122.718C238.087 122.644 237.669 122.537 237.246 122.5C237.04 122.466 236.828 122.481 236.628 122.545C236.429 122.609 236.247 122.719 236.098 122.867C235.848 123.219 235.688 123.628 235.634 124.056C235.541 124.489 235.452 124.902 235.369 125.302C235.188 125.988 235.063 126.687 234.992 127.393C234.98 127.625 235.024 127.856 235.121 128.067C235.217 128.278 235.363 128.463 235.545 128.606C235.688 128.698 235.845 128.766 236.01 128.806C235.964 128.819 235.916 128.819 235.871 128.806C235.733 128.795 235.601 128.75 235.485 128.676C235.274 128.537 235.102 128.347 234.984 128.123C234.866 127.9 234.807 127.65 234.811 127.398C234.853 126.675 234.962 125.958 235.136 125.255C235.215 124.856 235.299 124.438 235.387 124.01C235.452 123.536 235.638 123.086 235.926 122.704C236.1 122.529 236.313 122.398 236.547 122.322C236.782 122.246 237.031 122.227 237.274 122.267C237.7 122.321 238.122 122.398 238.538 122.5L240.639 122.964L242.033 123.294C242.213 123.323 242.39 123.373 242.558 123.443Z" fill="#884C3B"/>
<path d="M239.565 129.801C239.565 129.801 239.565 130.038 239.273 130.265C239.086 130.393 238.862 130.457 238.636 130.447C238.349 130.432 238.066 130.377 237.795 130.284C237.056 130.097 236.406 129.656 235.959 129.038C235.736 128.626 235.616 128.166 235.61 127.698C235.603 127.229 235.71 126.766 235.922 126.348C236.102 125.906 236.343 125.491 236.637 125.116C236.792 124.93 236.992 124.788 237.218 124.702C237.438 124.634 237.67 124.618 237.897 124.656C238.622 124.804 239.33 125.03 240.007 125.33C240.463 125.523 240.905 125.746 241.331 125.999C241.501 126.079 241.658 126.184 241.796 126.31C241.796 126.348 241.118 125.939 239.96 125.488C239.29 125.219 238.596 125.013 237.888 124.874C237.694 124.845 237.497 124.861 237.311 124.921C237.129 124.997 236.969 125.119 236.847 125.274C236.572 125.631 236.347 126.023 236.177 126.441C235.981 126.824 235.878 127.248 235.878 127.679C235.878 128.11 235.981 128.534 236.177 128.918C236.59 129.499 237.188 129.924 237.874 130.121C238.129 130.218 238.396 130.282 238.668 130.312C238.87 130.33 239.073 130.286 239.249 130.186C239.388 130.089 239.497 129.956 239.565 129.801Z" fill="#884C3B"/>
<path d="M239.491 128.964C239.491 128.992 239.356 129.071 239.096 129.099C238.756 129.133 238.414 129.068 238.112 128.911C237.809 128.754 237.558 128.513 237.39 128.216C237.265 127.993 237.246 127.83 237.274 127.821C237.302 127.812 237.585 128.369 238.227 128.695C238.629 128.858 239.057 128.949 239.491 128.964Z" fill="#884C3B"/>
<path d="M240.048 130.521C240.011 130.572 239.649 130.358 239.388 129.926C239.128 129.494 239.096 129.071 239.161 129.066C239.226 129.062 239.356 129.41 239.593 129.801C239.83 130.191 240.095 130.465 240.048 130.521Z" fill="#884C3B"/>
<path d="M239.895 134.783C239.575 134.127 239.419 133.404 239.443 132.675C239.466 131.946 239.668 131.233 240.03 130.6C239.865 131.283 239.75 131.977 239.686 132.677C239.704 133.383 239.774 134.087 239.895 134.783Z" fill="#884C3B"/>
<path d="M239.751 130.976C239.077 131.243 238.462 131.641 237.943 132.148C237.425 132.654 237.012 133.259 236.73 133.927C236.725 133.705 236.776 133.484 236.879 133.286C237.086 132.793 237.389 132.346 237.771 131.971C238.153 131.597 238.607 131.305 239.105 131.111C239.305 131.011 239.528 130.964 239.751 130.976Z" fill="#884C3B"/>
<path d="M237.39 121.407C237.46 121.407 237.497 121.645 237.418 121.914C237.339 122.184 237.186 122.379 237.125 122.333C237.065 122.286 237.125 122.091 237.186 121.868C237.246 121.645 237.325 121.403 237.39 121.407Z" fill="#884C3B"/>
<path d="M244.222 121.491C243.821 121.323 243.437 121.117 243.074 120.878C242.377 120.478 241.429 119.906 240.392 119.26C239.916 118.952 239.412 118.689 238.887 118.475C238.461 118.309 238.005 118.23 237.548 118.243C237.126 118.272 236.713 118.386 236.335 118.577C236.335 118.577 236.41 118.47 236.609 118.354C236.895 118.193 237.212 118.096 237.539 118.071C238.021 118.034 238.506 118.101 238.961 118.266C239.507 118.472 240.029 118.737 240.518 119.056C241.559 119.697 242.493 120.292 243.162 120.734C243.537 120.954 243.892 121.208 244.222 121.491Z" fill="#884C3B"/>
<path d="M240.671 103.138C240.706 102.084 240.821 101.034 241.015 99.9968C241.127 98.948 241.323 97.9099 241.601 96.8923C241.565 97.9467 241.45 98.9969 241.257 100.034C241.141 101.082 240.945 102.12 240.671 103.138Z" fill="#263238"/>
<g opacity="0.3">
<path d="M241.601 97.0505C241.845 98.0252 241.892 99.0391 241.738 100.032C241.584 101.025 241.232 101.977 240.704 102.832C241.038 101.136 241.373 98.8398 241.601 97.0505Z" fill="black"/>
</g>
</svg>
