<svg width="304" height="171" viewBox="0 0 304 171" fill="none" xmlns="http://www.w3.org/2000/svg">
<path d="M152 160.407C208.396 160.407 254.114 158.089 254.114 155.23C254.114 152.371 208.396 150.054 152 150.054C95.6042 150.054 49.8862 152.371 49.8862 155.23C49.8862 158.089 95.6042 160.407 152 160.407Z" fill="#F5F5F5"/>
<path d="M89.6642 20.5139C91.0087 19.7033 92.4546 19.0741 93.9642 18.6428L94.8505 14.3838L102.047 14.2607L103.081 18.4869C104.607 18.8609 106.075 19.4378 107.447 20.202L111.082 17.814L116.26 22.8198L114.012 26.529C114.823 27.875 115.45 29.3241 115.875 30.8373L120.134 31.7235L120.265 38.9204L116.039 39.9544C115.663 41.4793 115.087 42.9474 114.324 44.3201L116.704 47.9554L111.698 53.1335L107.98 50.8768C106.636 51.6874 105.19 52.3165 103.68 52.7478L102.794 57.0068L95.5973 57.1299L94.5633 52.9037C93.0379 52.5297 91.5696 51.9529 90.1976 51.1886L86.5622 53.5766L81.3841 48.5709L83.6326 44.8535C82.8219 43.5081 82.198 42.0587 81.778 40.5452L77.519 39.6589L77.3877 32.4621L81.6139 31.4281C81.9879 29.9028 82.5647 28.4344 83.329 27.0624L80.9492 23.4271L85.9468 18.249L89.6642 20.5057V20.5139ZM93.4965 30.0987C92.4392 31.2005 91.7324 32.5911 91.4654 34.0946C91.1983 35.5981 91.383 37.147 91.9961 38.5456C92.6093 39.9441 93.6233 41.1294 94.91 41.9518C96.1967 42.7741 97.6983 43.1965 99.225 43.1655C100.752 43.1345 102.235 42.6516 103.487 41.7778C104.74 40.9039 105.705 39.6784 106.261 38.2562C106.816 36.834 106.938 35.2788 106.61 33.7874C106.283 32.296 105.52 30.9352 104.419 29.8771C103.687 29.1742 102.824 28.6222 101.88 28.2529C100.935 27.8835 99.9261 27.704 98.9118 27.7246C97.8974 27.7452 96.8971 27.9654 95.9679 28.3728C95.0387 28.7802 94.1989 29.3666 93.4965 30.0987Z" fill="#F5F5F5"/>
<path d="M191.736 78.4219C193.678 77.2497 195.767 76.3421 197.95 75.7234L199.23 69.5699L209.629 69.3809L211.124 75.4913C213.329 76.0317 215.451 76.8671 217.433 77.975L222.692 74.5374L230.178 81.7565L226.912 87.1278C228.09 89.0678 229 91.1579 229.619 93.3414L235.773 94.622L235.953 105.021L229.851 106.516C229.307 108.72 228.472 110.841 227.367 112.824L230.805 118.084L223.577 125.561L218.206 122.304C216.265 123.479 214.175 124.389 211.992 125.011L210.72 131.156L200.322 131.336L198.826 125.234C196.62 124.688 194.496 123.853 192.509 122.751L187.258 126.188L179.773 118.961L183.03 113.589C181.856 111.645 180.949 109.553 180.331 107.367L174.178 106.087L173.998 95.6876L180.117 94.2008C180.664 91.9982 181.499 89.8772 182.6 87.8927L179.163 82.6417L186.39 75.1561L191.762 78.4133L191.736 78.4219ZM197.305 92.2757C195.766 93.8638 194.733 95.8728 194.337 98.0483C193.94 100.224 194.198 102.468 195.078 104.497C195.958 106.526 197.421 108.247 199.28 109.445C201.139 110.642 203.312 111.26 205.523 111.222C207.734 111.183 209.884 110.489 211.7 109.228C213.517 107.967 214.918 106.195 215.727 104.137C216.535 102.079 216.715 99.8267 216.243 97.6663C215.771 95.5059 214.669 93.5341 213.075 92.0007C210.945 89.9507 208.089 88.8286 205.133 88.8801C202.177 88.9317 199.362 90.1527 197.305 92.2757Z" fill="#F5F5F5"/>
<path d="M191.736 78.3536C191.614 78.3035 191.496 78.2432 191.384 78.1731L190.361 77.5801L186.304 75.2253H186.433L179.257 82.6936V82.4874L182.695 87.7298L182.755 87.8244L182.703 87.9275C181.613 89.8973 180.792 92.0045 180.263 94.1927V94.313H180.142L174.049 95.8513L174.221 95.6279C174.29 98.9051 174.359 102.371 174.427 106.027L174.23 105.786L180.383 107.024H180.538L180.589 107.178C181.203 109.338 182.105 111.405 183.271 113.323L183.357 113.469L183.271 113.615C182.265 115.283 181.148 117.113 180.022 118.987L179.971 118.635L187.465 125.854H187.095L192.346 122.416L192.501 122.313L192.664 122.407C194.624 123.495 196.719 124.318 198.895 124.857L199.075 124.9V125.08C199.548 126.988 200.064 129.076 200.579 131.182L200.27 130.95L210.669 130.761L210.36 131.01L211.64 124.857V124.668L211.821 124.616C213.976 124.006 216.04 123.11 217.957 121.952L218.12 121.857L218.283 121.952L223.663 125.218L223.268 125.261L230.487 117.784V118.179L227.049 112.919L226.946 112.765L227.041 112.593C228.133 110.637 228.96 108.545 229.499 106.371V106.182L229.679 106.139L235.79 104.652L235.558 104.953C235.495 101.406 235.437 97.9397 235.386 94.5536L235.618 94.8372L229.464 93.5481H229.293V93.3762C228.68 91.2165 227.784 89.1474 226.628 87.2228L226.542 87.0767L226.628 86.9392L229.894 81.5678V81.903L222.426 74.6581H222.735L217.467 78.0958L217.355 78.1731L217.226 78.1044C215.288 77.0098 213.213 76.1775 211.056 75.6292H210.927V75.5089C210.385 73.283 209.904 71.2892 209.449 69.3985L209.638 69.5446L199.239 69.6735L199.376 69.5617C198.843 72.0197 198.414 74.0307 198.053 75.7066V75.7667H198.001C196.359 76.2232 194.765 76.8362 193.24 77.5973L192.123 78.1817C192.005 78.2546 191.881 78.3178 191.753 78.3708L192.097 78.1387C192.338 77.9926 192.699 77.7692 193.197 77.5028C194.708 76.697 196.297 76.049 197.941 75.5691L197.872 75.6464C198.207 73.9706 198.611 71.9509 199.11 69.4844V69.3727H199.221L209.62 69.1406H209.767V69.2867C210.231 71.1774 210.729 73.1713 211.279 75.3886L211.124 75.2339C213.349 75.7727 215.491 76.6081 217.493 77.7176H217.261L222.503 74.2799L222.666 74.1768L222.812 74.3057C225.176 76.5918 227.668 78.981 230.307 81.5162L230.461 81.6623L230.35 81.8428C229.293 83.5617 228.218 85.3836 227.101 87.2228V86.9392C228.289 88.9027 229.211 91.0153 229.843 93.2215L229.628 93.0152L235.781 94.2958L236.013 94.3388V94.5794C236.082 97.954 236.148 101.417 236.211 104.97V105.219L235.979 105.271L229.963 106.749L230.195 106.525C229.644 108.755 228.801 110.903 227.685 112.911V112.584L231.123 117.844L231.261 118.05L231.08 118.231L223.861 125.716L223.681 125.897L223.466 125.768L218.051 122.493H218.378C216.413 123.682 214.297 124.601 212.087 125.226L212.31 124.986L211.056 131.156L211.004 131.405H210.746L200.347 131.577H200.098L200.038 131.337C199.522 129.223 199.015 127.143 198.551 125.226L198.775 125.458C196.546 124.901 194.399 124.054 192.389 122.94H192.707L187.447 126.378L187.25 126.507L187.078 126.343L179.601 119.107L179.438 118.952L179.558 118.755L182.824 113.383V113.676C181.649 111.71 180.739 109.597 180.117 107.393L180.323 107.574L174.101 106.285H173.903V106.087C173.84 102.437 173.786 98.971 173.74 95.688V95.5076L173.912 95.4646L180.022 93.9864L179.867 94.1325C180.426 91.9162 181.276 89.7835 182.394 87.79V87.9791L178.956 82.7108L178.888 82.5991L178.982 82.5132L186.244 75.0706L186.304 75.0104L186.373 75.0534L190.327 77.5199L191.349 78.1645L191.736 78.3536Z" fill="#F5F5F5"/>
<path d="M116.575 153.722H183.145C183.94 153.73 184.729 153.573 185.461 153.261C186.192 152.948 186.851 152.487 187.396 151.907C187.94 151.327 188.359 150.64 188.624 149.89C188.889 149.14 188.996 148.343 188.938 147.55L181.76 31.1424C181.634 29.4819 180.892 27.9284 179.68 26.7865C178.468 25.6446 176.873 24.9967 175.208 24.97H108.633C107.838 24.9628 107.049 25.1205 106.318 25.4332C105.587 25.7459 104.928 26.2067 104.384 26.7867C103.84 27.3667 103.421 28.0531 103.156 28.8028C102.89 29.5525 102.782 30.3491 102.84 31.1424L110.023 147.534C110.143 149.198 110.882 150.757 112.095 151.903C113.308 153.048 114.907 153.698 116.575 153.722Z" fill="#263238"/>
<path d="M105.073 66.9558H106.042C106.217 66.9577 106.39 66.9232 106.552 66.8545C106.713 66.7858 106.858 66.6844 106.978 66.5566C107.097 66.4288 107.189 66.2776 107.248 66.1124C107.306 65.9472 107.329 65.7717 107.316 65.597L106.231 48.0434C106.205 47.6773 106.042 47.3344 105.775 47.0827C105.507 46.8311 105.155 46.689 104.788 46.6846H103.845C103.67 46.6828 103.496 46.7172 103.335 46.7859C103.173 46.8546 103.028 46.9559 102.908 47.0836C102.788 47.2113 102.695 47.3625 102.636 47.5277C102.577 47.6929 102.553 47.8685 102.566 48.0434L103.651 65.597C103.678 65.9592 103.838 66.2985 104.101 66.5494C104.363 66.8003 104.71 66.9451 105.073 66.9558Z" fill="#263238"/>
<path d="M182.913 55.7537H184.071C184.241 55.7549 184.409 55.721 184.564 55.6541C184.72 55.5872 184.86 55.4889 184.976 55.3652C185.092 55.2415 185.18 55.0952 185.237 54.9355C185.293 54.7757 185.316 54.606 185.304 54.4371L184.824 46.9427C184.799 46.5882 184.642 46.256 184.383 46.0122C184.125 45.7683 183.784 45.6305 183.429 45.6261H182.291C182.121 45.6241 181.953 45.6575 181.797 45.7241C181.64 45.7906 181.5 45.8889 181.383 46.0126C181.267 46.1364 181.178 46.283 181.121 46.4431C181.064 46.6032 181.041 46.7733 181.054 46.9427L181.517 54.4371C181.544 54.7907 181.703 55.1215 181.961 55.3649C182.219 55.6083 182.558 55.7469 182.913 55.7537Z" fill="#407BFF"/>
<path d="M183.74 69.1414H184.883C185.052 69.1425 185.22 69.1086 185.376 69.0418C185.531 68.9749 185.671 68.8765 185.787 68.7528C185.903 68.6291 185.992 68.4828 186.048 68.3231C186.105 68.1634 186.127 67.9937 186.115 67.8247L185.652 60.3303C185.627 59.9758 185.469 59.6437 185.211 59.3998C184.952 59.1559 184.611 59.0181 184.256 59.0137H183.113C182.944 59.0125 182.776 59.0464 182.62 59.1133C182.465 59.1802 182.324 59.2785 182.209 59.4022C182.093 59.5259 182.004 59.6722 181.948 59.832C181.891 59.9917 181.868 60.1614 181.881 60.3303L182.344 67.8247C182.37 68.1788 182.528 68.5103 182.786 68.7539C183.045 68.9975 183.385 69.1358 183.74 69.1414Z" fill="#407BFF"/>
<path d="M157.828 23.1426H150.17V23.6692H157.828V23.1426Z" fill="#407BFF"/>
<path d="M162.447 23.1426H160.225V23.6692H162.447V23.1426Z" fill="#407BFF"/>
<path d="M117.602 153.722H184.177C184.972 153.73 185.761 153.572 186.492 153.259C187.223 152.946 187.882 152.486 188.426 151.906C188.97 151.326 189.389 150.639 189.654 149.89C189.92 149.14 190.028 148.343 189.97 147.55L182.787 31.1425C182.663 29.4811 181.922 27.9262 180.71 26.7838C179.497 25.6414 177.901 24.9944 176.235 24.97H109.665C108.87 24.962 108.081 25.1192 107.349 25.4317C106.618 25.7441 105.959 26.2049 105.414 26.785C104.87 27.3652 104.451 28.052 104.186 28.802C103.921 29.552 103.814 30.349 103.872 31.1425L111.05 147.534C111.172 149.197 111.912 150.755 113.125 151.9C114.337 153.045 115.934 153.695 117.602 153.722Z" fill="#407BFF"/>
<path d="M112.409 146.692H188.506L181.444 32.2275H105.347L112.409 146.692Z" fill="white"/>
<path d="M177.573 88.5484H174.876C173.46 73.7388 160.693 61.7731 145.852 61.3517L145.673 58.65C145.656 58.4315 145.558 58.2272 145.398 58.0772C145.238 57.9272 145.028 57.8422 144.809 57.8389C144.705 57.8378 144.602 57.8585 144.506 57.8996C144.41 57.9408 144.324 58.0015 144.253 58.0778C144.182 58.1542 144.128 58.2445 144.094 58.3431C144.06 58.4416 144.047 58.5461 144.056 58.65L144.235 61.3517C129.452 61.7731 118.287 73.7388 118.856 88.5484H116.159C116.055 88.5474 115.951 88.5681 115.855 88.6091C115.759 88.6502 115.673 88.7108 115.601 88.7871C115.53 88.8634 115.475 88.9537 115.441 89.0522C115.406 89.1507 115.393 89.2554 115.401 89.3595C115.418 89.578 115.516 89.7822 115.675 89.9323C115.835 90.0823 116.045 90.1673 116.264 90.1705H118.966C120.378 104.98 133.144 116.946 147.985 117.367L148.164 120.069C148.181 120.287 148.279 120.492 148.439 120.642C148.599 120.792 148.809 120.877 149.028 120.88C149.132 120.881 149.236 120.86 149.332 120.819C149.428 120.778 149.514 120.718 149.585 120.641C149.657 120.565 149.711 120.475 149.746 120.376C149.781 120.278 149.794 120.173 149.786 120.069L149.602 117.367C164.385 116.946 175.55 104.98 174.982 90.1705H177.683C177.788 90.1716 177.891 90.1509 177.987 90.1098C178.082 90.0687 178.168 90.008 178.239 89.9316C178.31 89.8552 178.364 89.7649 178.398 89.6664C178.432 89.5678 178.445 89.4633 178.437 89.3595C178.421 89.1405 178.323 88.9356 178.163 88.7853C178.003 88.635 177.792 88.5505 177.573 88.5484ZM149.497 115.75L149.318 113.091C149.3 112.872 149.202 112.668 149.043 112.518C148.883 112.368 148.673 112.283 148.454 112.28C148.35 112.279 148.246 112.299 148.151 112.34C148.055 112.382 147.969 112.442 147.898 112.519C147.827 112.595 147.773 112.685 147.739 112.784C147.705 112.882 147.692 112.987 147.701 113.091L147.874 115.75C133.929 115.329 121.937 104.09 120.583 90.1705H123.216C123.32 90.1716 123.424 90.1509 123.52 90.1098C123.615 90.0687 123.701 90.008 123.772 89.9316C123.843 89.8552 123.897 89.7649 123.931 89.6664C123.965 89.5678 123.978 89.4633 123.969 89.3595C123.954 89.1405 123.856 88.9356 123.696 88.7853C123.536 88.635 123.325 88.5505 123.106 88.5484H120.472C119.946 74.6288 130.447 63.3899 144.341 62.9686L144.514 65.6282C144.533 65.8463 144.631 66.0499 144.79 66.1996C144.95 66.3494 145.159 66.4348 145.378 66.4393C145.483 66.4403 145.586 66.4196 145.682 66.3785C145.778 66.3374 145.864 66.2768 145.936 66.2006C146.007 66.1243 146.062 66.034 146.096 65.9355C146.131 65.837 146.145 65.7323 146.137 65.6282L145.957 62.9686C159.903 63.3899 171.895 74.6288 173.249 88.5484H170.589C170.485 88.5473 170.382 88.568 170.286 88.6091C170.19 88.6503 170.104 88.711 170.033 88.7873C169.962 88.8637 169.908 88.9541 169.874 89.0526C169.84 89.1511 169.827 89.2556 169.836 89.3595C169.853 89.578 169.951 89.7822 170.111 89.9323C170.271 90.0823 170.481 90.1673 170.7 90.1705H173.333C173.876 104.085 163.385 115.324 149.497 115.745V115.75Z" fill="#E0E0E0"/>
<path d="M162.326 81.4962V81.454C162.316 81.425 162.303 81.3968 162.289 81.3698L162.252 81.3276C162.234 81.3054 162.215 81.2843 162.194 81.2644C162.181 81.2493 162.164 81.2368 162.147 81.2276L162.099 81.1854L146.252 73.2592C146.177 73.2204 146.094 73.2002 146.01 73.2002C145.925 73.2002 145.842 73.2204 145.767 73.2592L130.773 81.1749L130.726 81.217C130.711 81.2278 130.697 81.2402 130.684 81.2539C130.665 81.2727 130.649 81.2939 130.636 81.3171L130.605 81.3592C130.592 81.3864 130.581 81.4146 130.573 81.4435V81.4856C130.565 81.5327 130.565 81.5808 130.573 81.6278L131.553 98.7285C131.56 98.8274 131.593 98.9226 131.649 99.0049C131.704 99.0871 131.78 99.1534 131.869 99.1972L147.716 107.123C147.785 107.158 147.86 107.176 147.937 107.176C148.013 107.178 148.087 107.16 148.153 107.123H148.18L163.116 99.1972C163.199 99.152 163.268 99.0838 163.313 99.0007C163.359 98.9176 163.38 98.8231 163.374 98.7285L162.389 81.6278C162.375 81.5808 162.354 81.5364 162.326 81.4962ZM138.547 78.2677L153.209 85.5988L146.858 88.9747L132.19 81.6384L138.547 78.2677ZM146.015 74.3283L160.677 81.6647L154.326 85.0353L139.658 77.699L146.015 74.3283ZM131.616 82.5021L146.363 89.8753L147.274 105.791L132.527 98.4177L131.616 82.5021ZM162.262 98.4177L148.348 105.791L147.437 89.8753L153.883 86.4573L154.062 89.5541C154.071 89.6909 154.129 89.8199 154.226 89.9168C154.323 90.0137 154.452 90.072 154.589 90.0807C154.659 90.0854 154.73 90.0749 154.796 90.0501C154.862 90.0253 154.922 89.9867 154.972 89.9368C155.022 89.8869 155.06 89.827 155.085 89.761C155.11 89.695 155.12 89.6244 155.116 89.5541L154.905 85.9148L161.351 82.4916L162.262 98.4177Z" fill="#407BFF"/>
<path opacity="0.2" d="M151.376 27.8398H134.876C134.803 27.8396 134.731 27.8545 134.664 27.8836C134.597 27.9126 134.537 27.9552 134.488 28.0087C134.438 28.0621 134.401 28.1253 134.377 28.1941C134.353 28.263 134.344 28.336 134.349 28.4086V28.7878C134.361 28.9425 134.43 29.0872 134.543 29.1934C134.656 29.2996 134.805 29.3597 134.96 29.3619H151.471C151.544 29.3622 151.617 29.3472 151.684 29.3178C151.751 29.2884 151.812 29.2453 151.861 29.1913C151.911 29.1372 151.949 29.0734 151.972 29.004C151.996 28.9345 152.004 28.8609 151.998 28.7878L151.971 28.4086C151.96 28.2571 151.893 28.1153 151.783 28.0103C151.673 27.9053 151.528 27.8446 151.376 27.8398Z" fill="black"/>
</svg>
