<svg width="400" height="225" viewBox="0 0 400 225" fill="none" xmlns="http://www.w3.org/2000/svg">
<path d="M350.824 109.991C350.824 109.991 346.777 108.314 344.068 117.742C341.359 127.17 340.655 132.437 340.655 132.437C340.655 132.437 339.844 134.458 338.382 133.512C336.92 132.566 334.587 129.572 332.604 130.577C330.62 131.582 330.298 134.189 331.405 137.677C332.512 141.166 334.63 148.9 334.845 149.604C335.06 150.308 334.845 151.394 333.732 150.916C332.62 150.437 325.853 145.304 323.611 148.669C321.37 152.034 326.046 161.246 326.541 162.262C327.035 163.278 326.912 163.778 326.449 164.143C325.987 164.509 323.875 162.568 321.892 161.187C319.908 159.806 317.355 158.553 316.221 160.601C315.087 162.649 316.038 170.061 325.305 180.606L329.916 185.207L336.264 183.595C349.642 179.349 354.28 173.485 354.366 171.147C354.452 168.809 351.625 168.567 349.212 168.723C346.799 168.879 343.982 169.454 343.778 168.905C343.574 168.357 343.724 167.863 344.67 167.25C345.616 166.637 354.383 161.149 354.194 157.113C354.006 153.076 345.557 153.974 344.369 153.818C343.181 153.662 343.579 152.609 344.095 152.114C344.611 151.62 350.448 146.094 353.195 143.676C355.941 141.257 357.059 138.93 355.834 136.979C354.608 135.028 351.104 136.441 349.384 136.506C347.664 136.57 347.997 134.404 347.997 134.404C347.997 134.404 350.12 129.534 352.657 120.059C355.194 110.583 350.755 109.938 350.755 109.938" fill="#EBEBEB"/>
<path d="M348.379 118.43C348.379 118.43 348.379 118.5 348.336 118.634C348.293 118.769 348.255 118.968 348.191 119.22C348.056 119.758 347.863 120.499 347.61 121.461C347.105 123.413 346.347 126.229 345.401 129.707C343.509 136.656 340.811 146.234 337.801 156.807C334.791 167.379 332.071 176.935 330.136 183.891C329.18 187.357 328.4 190.163 327.858 192.114C327.594 193.076 327.385 193.823 327.239 194.345C327.164 194.592 327.11 194.785 327.067 194.925L327.008 195.124C327.008 195.124 327.008 195.054 327.046 194.92C327.084 194.785 327.132 194.587 327.196 194.334C327.331 193.796 327.524 193.055 327.777 192.087C328.282 190.142 329.04 187.325 329.986 183.848C331.878 176.898 334.576 167.32 337.586 156.742C340.596 146.164 343.316 136.602 345.251 129.664C346.207 126.197 346.987 123.391 347.524 121.44L348.148 119.209C348.223 118.957 348.277 118.769 348.314 118.629L348.379 118.43Z" fill="#E0E0E0"/>
<path d="M335.699 134.925C335.802 135.046 335.887 135.18 335.952 135.323C336.097 135.592 336.301 135.979 336.549 136.463C337.038 137.425 337.677 138.779 338.355 140.284L340.075 144.143L340.612 145.315C340.688 145.453 340.747 145.599 340.789 145.75C340.687 145.63 340.602 145.496 340.537 145.353C340.386 145.089 340.187 144.697 339.946 144.213C339.462 143.24 338.844 141.881 338.161 140.376L336.414 136.527L335.877 135.366C335.802 135.226 335.743 135.078 335.699 134.925Z" fill="#E0E0E0"/>
<path d="M341.386 145.761C341.386 145.708 344.074 144.262 347.481 142.536C350.889 140.811 353.646 139.457 353.679 139.51C353.711 139.564 350.991 141.01 347.583 142.735C344.176 144.461 341.413 145.804 341.386 145.761Z" fill="#E0E0E0"/>
<path d="M336.027 161.778C336.178 161.719 336.335 161.679 336.495 161.66L337.78 161.413C338.855 161.203 340.359 160.908 341.999 160.526C343.638 160.144 345.111 159.752 346.175 159.451L347.438 159.107C347.592 159.056 347.75 159.022 347.911 159.005C347.77 159.084 347.62 159.147 347.465 159.193C347.175 159.295 346.75 159.44 346.223 159.607C345.148 159.935 343.697 160.359 342.053 160.741C340.408 161.123 338.903 161.391 337.806 161.563C337.269 161.644 336.817 161.709 336.511 161.741C336.352 161.775 336.19 161.787 336.027 161.778Z" fill="#E0E0E0"/>
<path d="M328.728 153.114C328.848 153.205 328.956 153.309 329.051 153.426C329.25 153.63 329.529 153.936 329.868 154.313C330.556 155.076 331.48 156.129 332.507 157.312C333.533 158.494 334.436 159.564 335.087 160.349C335.415 160.741 335.678 161.063 335.855 161.284C336.033 161.504 336.124 161.639 336.108 161.649C335.987 161.562 335.879 161.459 335.785 161.343C335.592 161.139 335.312 160.832 334.968 160.451C334.286 159.693 333.356 158.634 332.335 157.457C331.314 156.28 330.405 155.205 329.75 154.42C329.427 154.022 329.164 153.705 328.986 153.48C328.885 153.369 328.798 153.246 328.728 153.114Z" fill="#E0E0E0"/>
<path d="M322.203 166.664C322.353 166.782 322.49 166.915 322.612 167.062L323.687 168.201C324.568 169.169 325.772 170.518 327.094 172.012C328.416 173.506 329.599 174.877 330.454 175.871L331.448 177.054C331.577 177.195 331.692 177.348 331.792 177.511C331.644 177.391 331.507 177.258 331.383 177.113L330.308 175.973C329.432 175.006 328.228 173.657 326.906 172.163C325.584 170.668 324.401 169.298 323.547 168.304L322.553 167.121C322.419 166.982 322.302 166.829 322.203 166.664Z" fill="#E0E0E0"/>
<path d="M331.609 177.188C331.8 177.114 331.998 177.06 332.2 177.027L333.813 176.651C335.178 176.339 337.038 175.898 339.134 175.355C341.23 174.812 343.058 174.28 344.401 173.883L346.014 173.415C346.206 173.347 346.404 173.299 346.605 173.27C346.423 173.36 346.235 173.436 346.041 173.496C345.675 173.63 345.138 173.818 344.471 174.033C343.138 174.469 341.279 175.033 339.209 175.57C337.14 176.108 335.243 176.532 333.872 176.807C333.184 176.941 332.625 177.048 332.26 177.108C332.046 177.156 331.828 177.183 331.609 177.188Z" fill="#E0E0E0"/>
<path d="M334.539 199.956C335.163 199.255 335.962 198.732 336.854 198.438C337.746 198.145 338.699 198.092 339.618 198.284C340.533 198.493 341.397 198.882 342.16 199.429C342.923 199.975 343.57 200.668 344.063 201.466C344.531 202.197 344.891 203.079 344.6 203.917C344.451 204.295 344.203 204.625 343.882 204.875C343.562 205.124 343.181 205.284 342.778 205.336C341.971 205.428 341.153 205.306 340.408 204.982C337.817 203.993 335.485 202.563 334.496 199.956" fill="#E0E0E0"/>
<path d="M330.137 197.392C331.503 195.96 332.508 194.222 333.069 192.324C333.63 190.425 333.73 188.421 333.361 186.476C333.168 185.492 332.684 184.374 331.695 184.181C330.706 183.987 329.841 184.847 329.309 185.702C328.229 187.505 327.708 189.589 327.811 191.689C327.914 193.788 328.637 195.811 329.889 197.5" fill="#E0E0E0"/>
<path d="M351.303 183.998C351.471 184.821 351.471 185.669 351.303 186.492C351.134 187.315 350.802 188.096 350.325 188.787C349.359 190.165 348.093 191.304 346.621 192.119C343.826 193.77 340.128 194.269 336.887 194.237C337.145 190.647 340.064 187.664 341.644 186.239C344.138 183.998 350.008 181.45 351.319 183.998" fill="#E0E0E0"/>
<path d="M325.079 202.681C325.521 202.367 325.982 202.082 326.46 201.827C328.315 200.952 330.278 200.33 332.297 199.978C334.344 199.638 336.445 199.859 338.376 200.617C338.95 200.857 339.492 201.168 339.989 201.542C340.18 201.667 340.35 201.821 340.494 201.999C339.782 201.564 339.038 201.183 338.269 200.859C336.374 200.187 334.341 200.003 332.356 200.322C330.367 200.674 328.425 201.253 326.568 202.047" fill="#FAFAFA"/>
<path d="M325.03 202.735L327.508 200.94C329.599 199.424 332.48 197.328 335.64 194.974C338.801 192.619 341.617 190.443 343.665 188.862L346.089 187.003C346.375 186.761 346.681 186.543 347.003 186.352C346.75 186.629 346.473 186.883 346.175 187.11C345.638 187.583 344.826 188.25 343.821 189.067C341.816 190.679 338.983 192.904 335.855 195.264C332.727 197.623 329.787 199.666 327.653 201.122C326.578 201.848 325.718 202.434 325.111 202.826" fill="#FAFAFA"/>
<path d="M331.147 188.653C331.236 188.854 331.294 189.068 331.319 189.287C331.379 189.534 331.418 189.786 331.437 190.039C331.486 190.376 331.513 190.715 331.518 191.055C331.543 191.939 331.482 192.823 331.335 193.694C331.139 194.759 330.832 195.8 330.422 196.801C329.985 197.794 329.444 198.738 328.809 199.617C328.286 200.33 327.691 200.987 327.035 201.579C326.787 201.812 326.525 202.029 326.251 202.23C326.052 202.391 325.842 202.536 325.622 202.665C325.267 202.891 325.084 202.848 325.084 202.832C325.7 202.386 326.29 201.907 326.853 201.397C327.469 200.79 328.03 200.13 328.53 199.424C329.756 197.691 330.597 195.715 330.997 193.63C331.156 192.781 331.24 191.919 331.249 191.055C331.287 189.577 331.093 188.669 331.147 188.653Z" fill="#FAFAFA"/>
<path d="M84.3062 195.167C90.8743 186.981 89.6166 175.726 86.4562 166.196C85.9187 164.584 85.6123 162.859 84.4352 161.671C83.2581 160.483 81.2103 160.058 79.9526 161.133C78.926 162.047 78.8131 163.584 78.4799 164.928C78.0358 166.721 77.0928 168.352 75.7602 169.631C74.8948 170.459 73.7231 171.157 72.5352 170.894C70.9228 170.534 70.2026 168.669 69.7457 167.067C68.9144 164.082 68.0795 161.101 67.241 158.123C66.8695 156.497 66.2379 154.942 65.3705 153.517C64.4299 152.146 62.9196 151.055 61.2749 151.077C59.6302 151.098 58.007 152.523 58.1413 154.178C58.2757 154.858 58.4552 155.527 58.6788 156.183C58.8293 156.86 58.7326 157.683 58.1413 158.053C57.5501 158.424 56.7869 158.161 56.1742 157.833C54.0242 156.699 52.3257 154.947 50.6757 153.189C49.0256 151.432 47.3916 149.604 45.376 148.282C43.3605 146.96 40.888 146.17 38.5607 146.712C36.2334 147.255 34.2071 149.4 34.2608 151.792C34.3146 154.184 36.3194 156.118 38.2866 157.521C41.2085 159.606 44.4165 161.257 47.8109 162.423C48.4376 162.569 49.002 162.91 49.4233 163.396C50.079 164.358 49.3803 165.713 48.429 166.368C47.354 167.115 46.0264 167.368 44.8224 167.879C43.6185 168.389 42.4306 169.335 42.3016 170.652C42.1242 172.474 43.9947 173.786 45.6663 174.517C49.0151 175.974 52.5894 176.845 56.2333 177.091C57.5394 177.183 58.8831 177.199 60.0763 177.747C61.2695 178.295 62.2585 179.564 62.0113 180.854C61.764 182.144 60.3988 182.939 59.1035 183.073C57.8081 183.208 56.5074 182.858 55.2067 182.756C52.7665 182.568 49.9769 183.552 49.1223 185.863C48.8842 186.641 48.8296 187.464 48.963 188.267C49.0964 189.07 49.414 189.831 49.8909 190.491C50.8571 191.794 52.0742 192.89 53.4706 193.716C58.1743 196.877 63.6331 198.731 69.2888 199.091C74.9002 199.37 79.7591 198.467 84.2847 195.135" fill="#EBEBEB"/>
<path d="M35.9539 148.922L36.1527 149.024L36.7547 149.309C37.2922 149.556 38.0554 149.921 39.0444 150.421C41.8374 151.82 44.5216 153.426 47.0745 155.226C48.6869 156.36 50.423 157.677 52.2505 159.123C54.0779 160.569 56.0129 162.133 57.9962 163.853C60.0683 165.637 62.042 167.531 63.9085 169.529C64.8814 170.572 65.8059 171.679 66.7465 172.829L69.6005 176.296C73.2572 180.674 76.6666 185.254 79.8128 190.012C82.3595 193.912 84.5351 198.042 86.311 202.348C87.4997 205.257 88.4349 208.264 89.1059 211.335C89.3317 212.41 89.4929 213.275 89.5789 213.855C89.6273 214.13 89.6649 214.35 89.6918 214.511C89.7011 214.588 89.7173 214.663 89.7402 214.737C89.7474 214.66 89.7474 214.583 89.7402 214.506C89.7187 214.345 89.6918 214.124 89.6595 213.845C89.5897 213.264 89.4499 212.41 89.2403 211.313C88.6175 208.225 87.7181 205.199 86.5529 202.273C84.8033 197.94 82.6435 193.784 80.103 189.862C76.9632 185.087 73.5536 180.495 69.8908 176.108L67.0045 172.636C66.0639 171.496 65.134 170.367 64.1558 169.325C62.2707 167.32 60.2753 165.421 58.1789 163.638C56.1902 161.918 54.2392 160.365 52.4063 158.919C50.5735 157.473 48.832 156.172 47.1981 155.044C44.628 153.254 41.9194 151.673 39.0982 150.314C38.0984 149.83 37.3137 149.481 36.7762 149.239L36.1689 148.986C36.0994 148.958 36.0274 148.936 35.9539 148.922Z" fill="#E0E0E0"/>
<path d="M64.0645 169.335C64.0776 169.093 64.0632 168.849 64.0215 168.61C63.9785 168.142 63.8925 167.47 63.7689 166.643C63.5324 164.987 63.1239 162.708 62.6617 160.193C62.1995 157.677 61.8286 155.404 61.5867 153.743C61.4792 152.915 61.3986 152.243 61.3449 151.781C61.3333 151.538 61.2955 151.296 61.232 151.061C61.2052 151.302 61.2052 151.545 61.232 151.786C61.232 152.259 61.2965 152.931 61.3771 153.77C61.5383 155.436 61.877 157.726 62.3392 160.22C62.8014 162.714 63.2153 164.933 63.5324 166.669C63.6722 167.443 63.7904 168.099 63.8818 168.62C63.916 168.865 63.9773 169.105 64.0645 169.335Z" fill="#E0E0E0"/>
<path d="M42.3931 171.501C42.6802 171.484 42.9648 171.438 43.2423 171.362C43.7798 171.254 44.5645 171.093 45.5374 170.932C47.4777 170.582 50.1813 170.195 53.1751 169.9C56.1689 169.604 58.8939 169.464 60.8665 169.416C61.8555 169.384 62.6563 169.378 63.2046 169.373C63.4917 169.39 63.7799 169.377 64.0645 169.335C63.7828 169.282 63.4967 169.255 63.2099 169.255C62.6724 169.222 61.8555 169.196 60.8665 169.196C58.8832 169.196 56.1474 169.303 53.1428 169.593C50.5772 169.834 48.0261 170.209 45.4997 170.717C44.5269 170.91 43.7475 171.098 43.2154 171.254C42.9348 171.313 42.6597 171.396 42.3931 171.501Z" fill="#E0E0E0"/>
<path d="M79.6892 189.556C79.7268 189.463 79.7503 189.365 79.759 189.265C79.7967 189.034 79.8397 188.755 79.8934 188.416C80.0063 187.68 80.1407 186.616 80.2912 185.293C80.5975 182.649 80.8985 178.983 81.1834 174.936C81.4683 170.889 81.7209 167.218 81.9789 164.573C82.1025 163.289 82.2046 162.23 82.2799 161.44L82.3605 160.585C82.3755 160.485 82.3755 160.384 82.3605 160.284C82.3257 160.38 82.3022 160.479 82.2906 160.58C82.2584 160.806 82.21 161.085 82.1562 161.424C82.0434 162.16 81.909 163.23 81.7585 164.552C81.4575 167.191 81.1511 170.857 80.8716 174.909C80.5922 178.962 80.3342 182.622 80.0708 185.267L79.7698 188.4C79.7376 188.744 79.7161 189.024 79.6946 189.255C79.6834 189.355 79.6816 189.455 79.6892 189.556Z" fill="#E0E0E0"/>
<path d="M49.8157 188.76C49.9134 188.789 50.015 188.801 50.1167 188.798L50.9874 188.83L54.2123 188.921C56.8997 189.002 60.6622 189.152 64.7686 189.324C68.875 189.496 72.632 189.62 75.3355 189.642C76.69 189.642 77.7811 189.642 78.5605 189.642L79.4312 189.615C79.5309 189.63 79.6325 189.63 79.7322 189.615C79.6338 189.59 79.5325 189.579 79.4312 189.582L78.5605 189.545L75.3624 189.453C72.675 189.378 68.9126 189.222 64.8008 189.05C60.689 188.878 56.9427 188.76 54.2338 188.733C52.8847 188.733 51.7883 188.733 51.0089 188.733H50.1382C50.03 188.729 49.9216 188.738 49.8157 188.76Z" fill="#E0E0E0"/>
<path d="M148.315 82.757L149.82 98.3656H157.426L159.248 82.757H148.315Z" fill="#F5F5F5"/>
<path d="M148.316 80.7253C147.848 81.3091 147.596 82.036 147.601 82.7839H159.963C160.023 82.4084 159.989 82.0239 159.865 81.6646C159.74 81.3054 159.528 80.9827 159.248 80.7253H148.316Z" fill="#E0E0E0"/>
<path d="M149.724 79.3118L149.304 80.8544L158.635 80.9242L158.017 79.2957L149.724 79.3118Z" fill="#E0E0E0"/>
<path d="M148.16 86.6646C148.16 86.8097 149.063 94.5226 149.063 94.5226H158.361L159.248 86.6646H148.16Z" fill="#EBEBEB"/>
<path d="M370.104 216.86C370.104 216.941 293.942 217 200.011 217C106.08 217 29.8962 216.941 29.8962 216.86C29.8962 216.78 106.042 216.71 200 216.71C293.958 216.71 370.104 216.785 370.104 216.86Z" fill="#263238"/>
<path d="M326.838 56.2323C335.284 47.7859 335.284 34.0915 326.838 25.6451C318.391 17.1986 304.697 17.1986 296.25 25.6451C287.804 34.0915 287.804 47.7859 296.25 56.2324C304.697 64.6788 318.391 64.6788 326.838 56.2323Z" fill="#016CDE"/>
<path d="M321.365 41.6016C321.113 41.6454 320.857 41.6634 320.602 41.6553L318.5 41.6983C316.716 41.6983 314.2 41.7413 311.421 41.7413H311.287V41.6016C311.287 41.1555 311.287 40.6825 311.287 40.2041C311.287 37.0706 311.287 34.2327 311.33 32.1795C311.33 31.1905 311.362 30.3681 311.373 29.75C311.369 29.4517 311.386 29.1534 311.427 28.8578C311.471 29.153 311.491 29.4515 311.486 29.75C311.486 30.3681 311.513 31.1905 311.529 32.1795C311.529 34.2327 311.572 37.0706 311.572 40.2041C311.572 40.6825 311.572 41.1555 311.572 41.6016L311.432 41.4672C314.238 41.4672 316.726 41.4672 318.511 41.5102L320.613 41.5532C320.864 41.5495 321.116 41.5657 321.365 41.6016Z" fill="#FAFAFA"/>
<path d="M311.491 22.8594C311.628 23.4546 311.675 24.0669 311.631 24.6761C311.676 25.2852 311.629 25.8977 311.491 26.4928C311.351 25.8981 311.304 25.2852 311.351 24.6761C311.304 24.0669 311.351 23.4541 311.491 22.8594Z" fill="#FAFAFA"/>
<path d="M321.343 25.7782C321.029 26.2918 320.635 26.7525 320.177 27.1434C319.783 27.6005 319.323 27.9955 318.812 28.3151C319.127 27.8008 319.521 27.3384 319.978 26.9445C320.372 26.4896 320.832 26.0964 321.343 25.7782Z" fill="#FAFAFA"/>
<path d="M327.111 32.0774C326.652 32.4646 326.151 32.7982 325.616 33.0717C325.127 33.4182 324.601 33.7085 324.047 33.9371C324.911 33.0892 325.96 32.4527 327.111 32.0774Z" fill="#FAFAFA"/>
<path d="M330.486 41.4188C328.839 41.6051 327.177 41.6051 325.53 41.4188C327.177 41.2325 328.839 41.2325 330.486 41.4188Z" fill="#FAFAFA"/>
<path d="M296.13 41.0856C294.575 41.2719 293.003 41.2719 291.448 41.0856C293.003 40.8992 294.575 40.8992 296.13 41.0856Z" fill="#FAFAFA"/>
<path d="M298.559 48.0409C298.035 48.6462 297.442 49.1875 296.791 49.6534C296.2 50.1918 295.547 50.6574 294.845 51.0401C295.372 50.4379 295.965 49.897 296.614 49.4276C297.207 48.892 297.859 48.4267 298.559 48.0409Z" fill="#FAFAFA"/>
<path d="M304.552 53.421C304.203 54.145 303.801 54.842 303.348 55.5065C302.974 56.2173 302.548 56.8999 302.074 57.5489C302.622 56.0239 303.464 54.6213 304.552 53.421Z" fill="#FAFAFA"/>
<path d="M311.491 60.3546C311.35 59.5367 311.303 58.7053 311.351 57.8767C311.303 57.0482 311.35 56.2168 311.491 55.3989C311.629 56.2172 311.676 57.0482 311.631 57.8767C311.676 58.7053 311.629 59.5363 311.491 60.3546Z" fill="#FAFAFA"/>
<path d="M322.171 57.0759C320.701 56.3047 319.431 55.2003 318.463 53.851C319.107 54.3556 319.724 54.8938 320.312 55.4634C320.959 55.9687 321.579 56.5069 322.171 57.0759Z" fill="#FAFAFA"/>
<path d="M327.181 51.658C326.584 51.246 326.043 50.7602 325.568 50.2122C325.021 49.7388 324.537 49.1968 324.128 48.5997C324.732 49.0114 325.283 49.4971 325.767 50.0456C326.303 50.5224 326.778 51.064 327.181 51.658Z" fill="#FAFAFA"/>
<path d="M298.36 34.4262C297.818 34.0822 297.329 33.6603 296.909 33.1739C296.426 32.7548 296.006 32.2678 295.662 31.728C296.202 32.0715 296.689 32.4916 297.108 32.975C297.594 33.3947 298.016 33.8836 298.36 34.4262Z" fill="#FAFAFA"/>
<path d="M304.515 27.9066C303.984 27.5721 303.506 27.1609 303.096 26.6865C302.618 26.2798 302.205 25.8032 301.87 25.2729C302.402 25.6054 302.881 26.0168 303.289 26.493C303.766 26.8997 304.18 27.3763 304.515 27.9066Z" fill="#FAFAFA"/>
<path d="M320.091 216.871L280.715 216.709C279.589 216.706 278.476 216.481 277.438 216.046C276.399 215.612 275.457 214.978 274.664 214.179C273.872 213.38 273.244 212.433 272.818 211.392C272.391 210.35 272.174 209.235 272.179 208.11L272.593 109.674C272.607 107.406 273.521 105.236 275.133 103.64C276.745 102.043 278.924 101.152 281.193 101.161L320.569 101.343C321.695 101.347 322.808 101.572 323.846 102.006C324.884 102.441 325.827 103.075 326.62 103.874C327.412 104.673 328.04 105.62 328.466 106.661C328.893 107.703 329.109 108.818 329.105 109.943L328.691 208.373C328.672 210.639 327.757 212.805 326.145 214.397C324.534 215.99 322.357 216.879 320.091 216.871Z" fill="#263238"/>
<path d="M320.526 104.729L312.894 104.692C312.392 104.702 311.915 104.91 311.567 105.27C311.218 105.631 311.027 106.115 311.034 106.616V107.997C311.041 108.5 310.849 108.984 310.499 109.345C310.15 109.706 309.671 109.913 309.169 109.921L294.291 109.852C293.789 109.839 293.312 109.628 292.966 109.264C292.619 108.9 292.431 108.414 292.442 107.911V106.53C292.454 106.028 292.266 105.541 291.919 105.177C291.572 104.814 291.096 104.602 290.593 104.59H287.906L281.225 104.557C280.437 104.552 279.655 104.703 278.925 105C278.195 105.297 277.531 105.735 276.971 106.29C276.41 106.844 275.964 107.503 275.658 108.229C275.353 108.956 275.193 109.735 275.189 110.523L274.781 206.599C274.778 208.19 275.406 209.716 276.528 210.844C277.649 211.972 279.172 212.608 280.763 212.614L320.053 212.796C320.841 212.801 321.623 212.651 322.353 212.354C323.083 212.057 323.747 211.618 324.307 211.064C324.868 210.51 325.314 209.851 325.62 209.125C325.925 208.398 326.085 207.619 326.089 206.83L326.497 110.755C326.501 109.967 326.349 109.186 326.051 108.457C325.753 107.728 325.314 107.065 324.76 106.505C324.205 105.946 323.546 105.501 322.819 105.196C322.093 104.892 321.314 104.733 320.526 104.729Z" fill="white"/>
<path d="M293.523 184.057L293.91 191.195C293.915 191.318 293.968 191.434 294.057 191.52C294.147 191.605 294.265 191.652 294.388 191.652L307.234 191.743C307.298 191.745 307.361 191.733 307.42 191.71C307.479 191.686 307.532 191.651 307.578 191.607C307.623 191.562 307.658 191.509 307.683 191.45C307.707 191.391 307.719 191.328 307.718 191.265L307.761 185.707C307.761 185.579 307.71 185.456 307.619 185.365C307.529 185.275 307.406 185.224 307.277 185.224H299.376C299.249 185.222 299.127 185.17 299.038 185.078L297.672 183.719C297.629 183.674 297.577 183.638 297.52 183.614C297.463 183.59 297.401 183.578 297.339 183.579L294.007 183.552C293.941 183.552 293.877 183.565 293.816 183.591C293.756 183.616 293.702 183.654 293.657 183.701C293.612 183.748 293.576 183.804 293.553 183.866C293.53 183.927 293.52 183.992 293.523 184.057Z" fill="#016CDE"/>
<path d="M307.778 184.384L293.739 184.281L293.678 192.671L307.716 192.774L307.778 184.384Z" fill="#F5F5F5"/>
<path d="M292.62 185.025L293.63 193.78C293.638 193.856 293.674 193.926 293.731 193.976C293.787 194.027 293.861 194.055 293.937 194.054L307.616 194.156C307.694 194.156 307.768 194.126 307.826 194.073C307.883 194.021 307.92 193.949 307.927 193.872L308.68 185.132C308.684 185.089 308.678 185.046 308.665 185.006C308.651 184.965 308.629 184.928 308.601 184.896C308.572 184.864 308.537 184.839 308.498 184.821C308.459 184.803 308.416 184.794 308.374 184.793L292.932 184.681C292.888 184.68 292.844 184.689 292.804 184.707C292.764 184.725 292.728 184.75 292.699 184.783C292.669 184.815 292.647 184.854 292.634 184.895C292.62 184.937 292.615 184.981 292.62 185.025Z" fill="#016CDE"/>
<path d="M315.845 157.161C315.691 156.672 315.61 156.163 315.603 155.651C315.501 155.173 315.415 154.576 315.248 153.915L314.942 152.84C314.829 152.464 314.657 152.087 314.506 151.684C313.177 148.444 310.767 145.763 307.686 144.097C304.605 142.432 301.042 141.884 297.603 142.547C295.617 142.933 293.727 143.706 292.04 144.821C290.897 145.584 289.853 146.487 288.933 147.508C288.594 147.863 288.352 148.153 288.18 148.346C288.008 148.54 287.906 148.637 287.879 148.621C287.853 148.604 287.912 148.481 288.046 148.25C288.234 147.917 288.446 147.599 288.68 147.298C289.534 146.17 290.553 145.175 291.701 144.348C293.42 143.109 295.379 142.243 297.452 141.805C300.005 141.267 302.652 141.385 305.147 142.148C307.642 142.912 309.902 144.295 311.717 146.17C313.184 147.695 314.32 149.506 315.055 151.491C315.194 151.915 315.356 152.313 315.452 152.706C315.549 153.098 315.624 153.469 315.705 153.818C315.834 154.517 315.877 155.13 315.931 155.624C315.973 156.138 315.944 156.655 315.845 157.161Z" fill="#016CDE"/>
<path d="M308.573 151.738C308.712 151.555 312.045 153.85 316.011 156.866L316.232 157.038L315.581 157.231C317.194 152.646 318.645 149.04 318.86 149.115C319.075 149.19 317.968 152.921 316.372 157.511L316.183 158.048L315.721 157.699L315.501 157.532C311.507 154.522 308.406 151.926 308.573 151.738Z" fill="#016CDE"/>
<path d="M287.073 154.624C287.164 155.115 287.184 155.616 287.132 156.113C287.159 156.586 287.191 157.188 287.256 157.828C287.354 158.578 287.501 159.322 287.696 160.053C288.207 161.948 289.072 163.73 290.244 165.304C291.667 167.224 293.528 168.775 295.673 169.83L296.097 170.05L296.533 170.222L297.403 170.566C297.699 170.657 297.995 170.733 298.285 170.819C298.573 170.915 298.868 170.99 299.166 171.044C302.228 171.701 305.418 171.401 308.304 170.184C309.531 169.666 310.693 169.004 311.765 168.212C312.147 167.932 312.437 167.707 312.636 167.545C312.835 167.384 312.953 167.325 312.974 167.346C312.996 167.368 312.915 167.475 312.749 167.669C312.508 167.952 312.248 168.218 311.969 168.464C310.946 169.383 309.792 170.146 308.546 170.727C306.693 171.604 304.681 172.09 302.633 172.157C301.418 172.196 300.202 172.093 299.011 171.851C298.698 171.791 298.39 171.714 298.086 171.619C297.774 171.533 297.463 171.453 297.151 171.356L296.21 171.023L295.743 170.84L295.297 170.614L294.41 170.158C294.125 169.986 293.872 169.803 293.577 169.62C293.038 169.268 292.523 168.882 292.034 168.464C291.787 168.271 291.577 168.034 291.351 167.825C291.126 167.615 290.895 167.406 290.701 167.169L290.121 166.481L289.836 166.142L289.583 165.782C288.377 164.108 287.523 162.206 287.073 160.193C286.902 159.428 286.79 158.652 286.74 157.871C286.74 157.183 286.74 156.586 286.74 156.102C286.776 155.596 286.888 155.097 287.073 154.624Z" fill="#016CDE"/>
<path d="M293.625 160.902C293.464 161.063 290.438 158.381 286.874 154.904L286.675 154.705L287.342 154.592C285.192 158.946 283.3 162.348 283.095 162.246C282.891 162.144 284.445 158.58 286.589 154.221L286.847 153.684L287.261 154.087L287.46 154.28C291.023 157.779 293.786 160.735 293.625 160.902Z" fill="#016CDE"/>
<path d="M79.6621 98.5913H248.336C248.812 98.5913 249.283 98.685 249.723 98.8671C250.162 99.0491 250.561 99.316 250.898 99.6524C251.234 99.9888 251.501 100.388 251.683 100.828C251.865 101.267 251.959 101.738 251.959 102.214V207.454C251.959 209.531 251.134 211.523 249.665 212.991C248.197 214.46 246.205 215.285 244.128 215.285H83.3278C81.2508 215.285 79.2589 214.46 77.7903 212.991C76.3217 211.523 75.4966 209.531 75.4966 207.454V102.762C75.4959 102.215 75.6031 101.672 75.8121 101.166C76.0211 100.66 76.3279 100.201 76.7147 99.8133C77.1016 99.4259 77.5611 99.1186 78.0668 98.9089C78.5725 98.6992 79.1146 98.5913 79.6621 98.5913Z" fill="#263238"/>
<path d="M68.1169 206.653H259.301V209.486C259.301 210.454 259.11 211.413 258.74 212.308C258.369 213.202 257.826 214.015 257.141 214.7C256.456 215.385 255.643 215.928 254.749 216.298C253.854 216.669 252.895 216.86 251.927 216.86H75.4966C74.5282 216.86 73.5693 216.669 72.6746 216.298C71.7799 215.928 70.967 215.385 70.2822 214.7C69.5974 214.015 69.0542 213.202 68.6837 212.308C68.3131 211.413 68.1223 210.454 68.1223 209.486V206.653H68.1169Z" fill="#263238"/>
<path d="M246.729 103.23H80.2373V201.773H246.729V103.23Z" fill="#455A64"/>
<path d="M146.332 206.653L148.702 210.426H182.086L184.289 206.653H146.332Z" fill="#455A64"/>
<path d="M239.075 109.793H85.7896V201.735H239.075V109.793Z" fill="white"/>
<path d="M92.3307 114.324C92.3317 114.579 92.2568 114.829 92.1155 115.042C91.9742 115.255 91.7728 115.421 91.5368 115.52C91.3009 115.618 91.0411 115.644 90.7904 115.594C90.5396 115.545 90.3093 115.422 90.1286 115.241C89.9478 115.06 89.8249 114.83 89.7753 114.579C89.7257 114.329 89.7517 114.069 89.85 113.833C89.9483 113.597 90.1144 113.395 90.3274 113.254C90.5403 113.113 90.7905 113.038 91.0461 113.039C91.3863 113.04 91.7122 113.176 91.9529 113.417C92.1935 113.657 92.3292 113.983 92.3307 114.324Z" fill="#263238"/>
<path d="M97.5765 114.324C97.5765 114.578 97.5012 114.826 97.36 115.037C97.2189 115.248 97.0182 115.413 96.7835 115.51C96.5488 115.608 96.2905 115.633 96.0413 115.583C95.7921 115.534 95.5632 115.412 95.3836 115.232C95.2039 115.052 95.0816 114.823 95.032 114.574C94.9824 114.325 95.0079 114.067 95.1051 113.832C95.2023 113.597 95.367 113.397 95.5782 113.255C95.7895 113.114 96.0379 113.039 96.2919 113.039C96.6322 113.04 96.9581 113.176 97.1987 113.417C97.4393 113.657 97.5751 113.983 97.5765 114.324Z" fill="#263238"/>
<path d="M102.828 114.324C102.829 114.579 102.754 114.829 102.613 115.042C102.471 115.255 102.27 115.421 102.034 115.52C101.798 115.618 101.538 115.644 101.288 115.594C101.037 115.545 100.807 115.422 100.626 115.241C100.445 115.06 100.322 114.83 100.273 114.579C100.223 114.329 100.249 114.069 100.347 113.833C100.446 113.597 100.612 113.395 100.825 113.254C101.038 113.113 101.288 113.038 101.543 113.039C101.884 113.04 102.21 113.176 102.45 113.417C102.691 113.657 102.827 113.983 102.828 114.324Z" fill="#263238"/>
<path d="M239.075 119.962C239.075 120.042 204.757 120.107 162.435 120.107C120.113 120.107 85.7896 120.042 85.7896 119.962C85.7896 119.881 120.097 119.817 162.435 119.817C204.773 119.817 239.075 119.87 239.075 119.962Z" fill="#263238"/>
<path d="M251.953 206.728H75.4966V207.293H251.953V206.728Z" fill="#455A64"/>
<path d="M137.012 140.483L138.555 168.873C138.582 169.359 138.793 169.817 139.145 170.154C139.498 170.49 139.965 170.68 140.452 170.684L191.513 171.055C192.021 171.058 192.51 170.859 192.871 170.503C193.233 170.146 193.438 169.66 193.443 169.152L193.604 147.062C193.605 146.809 193.557 146.559 193.462 146.325C193.366 146.092 193.225 145.879 193.048 145.7C192.87 145.521 192.659 145.378 192.426 145.281C192.193 145.183 191.943 145.133 191.691 145.132L160.28 145.105C159.776 145.109 159.29 144.916 158.925 144.568L153.507 139.15C153.149 138.802 152.668 138.609 152.169 138.613L138.925 138.516C138.67 138.516 138.416 138.567 138.181 138.666C137.945 138.766 137.731 138.912 137.553 139.095C137.375 139.278 137.235 139.496 137.142 139.734C137.049 139.973 137.005 140.227 137.012 140.483Z" fill="#016CDE"/>
<path d="M193.652 141.791L137.852 141.382L137.608 174.726L193.408 175.135L193.652 141.791Z" fill="#F5F5F5"/>
<path d="M133.395 144.342L137.399 179.144C137.437 179.44 137.581 179.713 137.804 179.91C138.028 180.108 138.315 180.218 138.614 180.219L192.991 180.617C193.302 180.62 193.601 180.505 193.831 180.295C194.06 180.086 194.202 179.798 194.227 179.488L197.221 144.74C197.236 144.57 197.216 144.4 197.161 144.238C197.107 144.077 197.019 143.929 196.905 143.803C196.79 143.677 196.65 143.577 196.495 143.508C196.339 143.439 196.171 143.402 196.001 143.402L134.625 142.95C134.449 142.949 134.275 142.985 134.114 143.057C133.953 143.128 133.809 143.234 133.693 143.366C133.576 143.498 133.489 143.653 133.438 143.822C133.386 143.99 133.372 144.168 133.395 144.342Z" fill="#016CDE"/>
<path d="M177.2 162.026C177.028 162.026 177.119 160.504 176.195 158.338C175.658 157.087 174.886 155.951 173.921 154.99C172.735 153.829 171.291 152.965 169.707 152.469C168.115 152 166.435 151.908 164.8 152.2C163.46 152.451 162.181 152.963 161.038 153.705C159.076 154.995 158.27 156.301 158.151 156.205C158.114 156.178 158.254 155.823 158.651 155.269C159.224 154.483 159.915 153.791 160.699 153.216C161.873 152.351 163.218 151.747 164.644 151.442C166.403 151.065 168.229 151.142 169.95 151.668C171.67 152.194 173.228 153.15 174.475 154.447C175.479 155.502 176.253 156.754 176.748 158.123C177.069 159.039 177.25 159.997 177.286 160.967C177.291 161.655 177.254 162.026 177.2 162.026Z" fill="#E0E0E0"/>
<path d="M172.228 158.333C172.368 158.15 174.674 159.666 177.372 161.719L177.522 161.832L176.872 162.031C177.947 158.908 179.022 156.468 179.232 156.543C179.441 156.618 178.753 159.177 177.667 162.305L177.479 162.843L177.017 162.493L176.867 162.375C174.163 160.332 172.088 158.516 172.228 158.333Z" fill="#E0E0E0"/>
<path d="M157.581 160.3C157.753 160.3 157.479 161.778 158.119 163.971C158.476 165.245 159.069 166.441 159.866 167.497C160.832 168.789 162.092 169.832 163.542 170.539C163.92 170.723 164.308 170.886 164.703 171.029C165.101 171.141 165.493 171.276 165.886 171.351C166.645 171.517 167.42 171.598 168.197 171.593C169.52 171.579 170.828 171.313 172.051 170.808C172.885 170.466 173.678 170.032 174.416 169.513C174.953 169.147 175.222 168.916 175.27 168.975C175.319 169.034 175.104 169.319 174.62 169.776C173.931 170.422 173.146 170.957 172.293 171.362C171.02 171.98 169.632 172.326 168.218 172.378C167.38 172.407 166.541 172.337 165.719 172.168C165.294 172.093 164.87 171.953 164.434 171.829C164.002 171.678 163.58 171.498 163.171 171.292C161.751 170.599 160.507 169.594 159.531 168.351C158.555 167.108 157.874 165.66 157.538 164.116C157.425 163.586 157.355 163.046 157.329 162.504C157.329 162.031 157.329 161.623 157.361 161.295C157.442 160.644 157.538 160.273 157.581 160.3Z" fill="#E0E0E0"/>
<path d="M162.064 164.573C161.897 164.74 159.801 162.961 157.366 160.58L157.232 160.451L157.904 160.332C156.431 163.299 155.093 165.589 154.889 165.492C154.684 165.396 155.689 162.934 157.151 159.962L157.404 159.424L157.818 159.827L157.958 159.962C160.387 162.348 162.225 164.407 162.064 164.573Z" fill="#E0E0E0"/>
<path d="M115.706 62.3702L113.099 70.5131C112.6 72.1722 111.653 73.6616 110.363 74.8175C109.072 75.9734 107.488 76.7511 105.784 77.0651L88.3803 80.333L83.645 80.1825L88.3803 74.3185L101.463 69.8574C102.09 69.7215 102.667 69.416 103.133 68.9744C103.598 68.5327 103.933 67.9718 104.102 67.3527L109.315 56.0171L115.91 60.0644L115.706 62.3702Z" fill="#FFBE9D"/>
<path d="M141.371 54.3886C141.129 55.6517 137.447 64.8373 137.447 64.8373C137.447 64.8373 123.118 60 123.306 59.269C123.462 58.6939 126.214 49.4921 129.514 44.3967C130.135 43.4154 130.978 42.5928 131.973 41.9946C132.969 41.3964 134.091 41.0392 135.249 40.9514C135.899 40.9084 137.297 41.5803 137.678 41.7953C140.694 43.4884 143.258 44.6278 141.371 54.3886Z" fill="#455A64"/>
<path d="M121.151 36.5817C114.669 37.3073 113.626 41.7093 110.595 46.0468L106.225 54.1091L114.26 59.0379L113.981 71.4001L110.154 83.2248L140.388 80.3815L137.593 70.2552L141.624 54.3564C141.93 52.2064 142.763 48.1591 142.199 46.0307C140.436 39.3659 133.513 37.4309 128.762 36.1839C127.778 35.926 123.037 35.9421 122.215 36.1463" fill="#016CDE"/>
<path d="M141.108 54.2595C141.082 54.3153 141.061 54.3728 141.043 54.4315C141 54.5551 140.946 54.7271 140.876 54.9421L140.253 56.8932C139.715 58.5917 138.968 61.0157 138.055 63.9558L138.157 63.9074L124.72 58.941L124.386 58.8013L124.44 58.9142C125.25 55.895 126.296 52.9441 127.568 50.0886C128.564 47.7344 129.915 45.5466 131.573 43.6012C132.22 42.869 132.985 42.2496 133.835 41.7683C134.474 41.4008 135.19 41.189 135.926 41.1502C136.068 41.1397 136.209 41.1397 136.351 41.1502L136.727 41.1879C136.84 41.1879 136.947 41.1879 137.044 41.2255L137.302 41.2953L137.657 41.3867H137.781C137.744 41.3649 137.704 41.3503 137.662 41.3437L137.313 41.2308L137.055 41.1556C136.949 41.1326 136.841 41.1165 136.732 41.1072L136.356 41.0589C136.211 41.0481 136.066 41.0481 135.921 41.0589C135.166 41.0855 134.429 41.2919 133.771 41.6608C132.904 42.1385 132.122 42.758 131.46 43.4937C129.778 45.4379 128.409 47.6321 127.402 49.9973C126.101 52.8623 125.035 55.8282 124.214 58.8658V58.9464L124.29 58.9787L124.628 59.1184C129.67 61.005 134.346 62.6819 138.103 64.0525L138.178 64.0794V64.0042L140.328 56.9147C140.575 56.0762 140.774 55.4151 140.909 54.9529C140.973 54.7379 141.022 54.5587 141.054 54.4154C141.076 54.3651 141.094 54.3129 141.108 54.2595Z" fill="#263238"/>
<path d="M124.935 57.0762C124.935 57.1246 128.025 58.1995 131.879 59.4734C135.733 60.7472 138.866 61.7416 138.866 61.6878C138.866 61.6341 135.776 60.5645 131.927 59.2906C128.079 58.0168 124.951 57.0332 124.935 57.0762Z" fill="#263238"/>
<path d="M123.306 82.8593L124.467 54.9047H114.604L111.825 84.3589L123.306 82.8593Z" fill="#263238"/>
<g opacity="0.3">
<path d="M137.399 63.7357C136.824 66.3672 136.077 68.9581 135.163 71.4916C134.581 73.1005 133.758 74.6119 132.723 75.9743C131.185 77.7436 129.136 78.9924 126.859 79.5485C124.591 80.0963 122.241 80.2112 119.931 79.8872L131.444 73.3836L134.507 62.7467L137.399 63.7357Z" fill="black"/>
</g>
<path d="M136.077 63.1389L133.239 72.4266C132.747 74.0985 131.804 75.6025 130.514 76.7735C129.223 77.9445 127.635 78.7373 125.924 79.0646L108.514 82.3701L103.779 82.2143L108.514 76.3019L121.602 71.787C122.232 71.6447 122.811 71.3325 123.277 70.8843C123.742 70.4361 124.075 69.8691 124.241 69.2447L126.665 59.8978L136.077 63.1389Z" fill="#FFBE9D"/>
<path d="M114.002 71.0776C114.056 70.7886 114.085 70.4955 114.088 70.2015C114.115 69.5834 114.153 68.7772 114.201 67.799C114.287 65.7726 114.389 62.9616 114.486 59.8818C114.583 56.802 114.647 53.9694 114.685 51.9592C114.685 50.981 114.685 50.1748 114.685 49.5566C114.707 49.2632 114.707 48.9686 114.685 48.6752C114.631 48.9642 114.604 49.2574 114.604 49.5513C114.572 50.1694 114.534 50.9756 114.486 51.9485C114.4 53.9748 114.298 56.7858 114.201 59.871C114.104 62.9562 114.04 65.7834 114.002 67.7936C114.002 68.7718 114.002 69.5834 113.975 70.1961C113.963 70.4902 113.972 70.7849 114.002 71.0776Z" fill="#263238"/>
<path d="M107.402 51.9645C108.482 52.758 109.615 53.4763 110.793 54.1144C111.926 54.8346 113.108 55.4741 114.33 56.0279C113.25 55.2344 112.117 54.516 110.939 53.8779C109.806 53.1577 108.624 52.5183 107.402 51.9645Z" fill="#263238"/>
<path d="M67.5688 143.402L67.4613 138.081L77.6735 134.458L78.0928 141.864L77.523 142.139C74.9592 143.348 64.4137 148.115 62.4465 148.293C60.2536 148.497 67.5688 143.402 67.5688 143.402Z" fill="#016CDE"/>
<g opacity="0.4">
<path d="M64.0428 146.03C64.0428 146.03 61.5489 147.997 62.0917 148.32C62.6346 148.642 73.4703 144.229 78.0819 141.87L77.9798 141.66L65.3811 146.917C65.3811 146.917 64.6072 145.831 64.0428 146.03Z" fill="white"/>
</g>
<path d="M78.1304 141.591L77.9746 141.677L77.5177 141.892L75.8407 142.671C74.4057 143.316 72.4116 144.181 70.1864 145.09C67.9612 145.998 65.9295 146.777 64.4514 147.32L62.6938 147.949L62.2155 148.11C62.1603 148.133 62.1025 148.15 62.0435 148.159L62.2047 148.089L62.6777 147.901L64.4191 147.234C65.8865 146.67 67.9128 145.88 70.138 144.977C72.3632 144.074 74.3627 143.214 75.8085 142.59L77.5177 141.849L77.9853 141.65C78.0314 141.625 78.08 141.605 78.1304 141.591Z" fill="#263238"/>
<path d="M65.4456 147.057C65.2509 146.802 65.0293 146.57 64.7845 146.363C64.5174 146.19 64.2305 146.049 63.9299 145.944C64.269 145.934 64.5999 146.048 64.8598 146.266C65.1468 146.448 65.3558 146.729 65.4456 147.057Z" fill="#263238"/>
<path d="M67.6655 144.498C67.6655 144.525 67.4451 144.418 67.2194 144.256C66.9936 144.095 66.8216 143.939 66.8431 143.912C66.8646 143.886 67.0635 143.993 67.2892 144.154C67.515 144.316 67.687 144.466 67.6655 144.498Z" fill="#263238"/>
<path d="M68.2728 143.778C68.2728 143.81 68.0685 143.778 67.8428 143.692C67.6171 143.606 67.4504 143.52 67.4612 143.488C67.4719 143.455 67.6654 143.488 67.8858 143.574C68.1062 143.66 68.2835 143.746 68.2728 143.778Z" fill="#263238"/>
<path d="M68.3911 142.682C68.3911 142.714 68.1976 142.832 67.9235 142.95C67.7584 143.041 67.5741 143.091 67.386 143.096C67.5251 142.978 67.6857 142.888 67.859 142.832C68.0228 142.743 68.2047 142.691 68.3911 142.682Z" fill="#263238"/>
<path d="M68.3159 141.999C68.3159 141.999 68.1439 142.23 67.8322 142.386C67.6545 142.494 67.4486 142.546 67.241 142.536C67.241 142.499 67.4882 142.418 67.7785 142.268C67.9502 142.164 68.1299 142.074 68.3159 141.999Z" fill="#263238"/>
<path d="M67.0098 143.8C66.8199 143.913 66.613 143.994 66.397 144.041C66.1649 144.105 65.9274 144.146 65.6876 144.165C65.5429 144.181 65.3969 144.181 65.2522 144.165C65.1637 144.151 65.0833 144.105 65.0265 144.036C64.9991 143.994 64.9846 143.944 64.9846 143.894C64.9846 143.843 64.9991 143.794 65.0265 143.751C65.2129 143.543 65.4662 143.405 65.7428 143.363C66.0194 143.321 66.302 143.376 66.5422 143.52C66.6852 143.601 66.8097 143.711 66.9077 143.843C66.9465 143.889 66.9741 143.945 66.9883 144.004C66.8511 143.839 66.6854 143.701 66.4992 143.595C66.2955 143.491 66.0662 143.446 65.8381 143.466C65.5666 143.486 65.3137 143.611 65.134 143.816C65.0641 143.923 65.134 144.025 65.2844 144.041C65.4185 144.055 65.5535 144.055 65.6876 144.041C65.9204 144.026 66.1521 143.996 66.3809 143.95C66.7679 143.875 66.999 143.778 67.0098 143.8Z" fill="#263238"/>
<path d="M66.8646 143.896C66.7372 143.798 66.6494 143.656 66.6174 143.499C66.5719 143.322 66.5719 143.137 66.6174 142.961C66.6273 142.846 66.668 142.735 66.7351 142.64C66.8021 142.546 66.8933 142.471 66.999 142.424C67.0656 142.414 67.1336 142.429 67.1893 142.467C67.2451 142.505 67.2846 142.562 67.3 142.628C67.3241 142.732 67.3241 142.841 67.3 142.945C67.2756 143.111 67.2305 143.274 67.1656 143.429C67.1159 143.579 67.029 143.714 66.913 143.821C66.913 143.821 66.9936 143.66 67.0796 143.402C67.1332 143.249 67.1693 143.09 67.1871 142.929C67.2194 142.768 67.1871 142.51 67.0205 142.547C66.8539 142.585 66.7679 142.811 66.7195 142.966C66.6876 143.121 66.6876 143.28 66.7195 143.434C66.7503 143.593 66.799 143.748 66.8646 143.896Z" fill="#263238"/>
<path d="M76.878 139.07C76.878 139.07 76.5932 139.156 76.1847 139.381C75.6542 139.675 75.2138 140.108 74.9108 140.634C74.6186 141.166 74.4791 141.769 74.5077 142.375C74.5077 142.843 74.626 143.122 74.6045 143.128C74.583 143.133 74.5669 143.063 74.5239 142.934C74.4727 142.759 74.4385 142.579 74.4217 142.397C74.3624 141.77 74.4958 141.139 74.804 140.59C75.1123 140.041 75.5809 139.598 76.1471 139.322C76.3184 139.235 76.4986 139.167 76.6846 139.118C76.7462 139.092 76.8114 139.076 76.878 139.07Z" fill="#263238"/>
<path d="M74.2874 135.549C74.904 136.808 75.4425 138.104 75.8998 139.43C75.5725 138.807 75.28 138.166 75.0237 137.511C74.7394 136.872 74.4935 136.217 74.2874 135.549Z" fill="#263238"/>
<path d="M73.0403 142.746C72.6288 143.038 72.1806 143.275 71.7073 143.45C71.2511 143.664 70.7685 143.816 70.2722 143.902C70.2722 143.869 70.9011 143.654 71.6589 143.337C72.4168 143.02 73.0188 142.714 73.0403 142.746Z" fill="#263238"/>
<path d="M74.8999 141.999C74.9322 141.999 74.8999 142.149 74.8999 142.316C74.8999 142.483 74.8999 142.628 74.8999 142.638C74.8999 142.649 74.7924 142.509 74.7978 142.316C74.8032 142.122 74.8677 141.999 74.8999 141.999Z" fill="#263238"/>
<path d="M75.2438 140.827C75.2761 140.827 75.2438 140.967 75.1955 141.107C75.1471 141.246 75.0665 141.348 75.0342 141.332C75.002 141.316 75.0342 141.198 75.0826 141.058C75.131 140.918 75.2116 140.816 75.2438 140.827Z" fill="#263238"/>
<path d="M76.0879 140.021C76.0879 140.059 75.9643 140.107 75.8461 140.215C75.7278 140.322 75.658 140.435 75.6203 140.424C75.5827 140.414 75.6203 140.247 75.7655 140.118C75.9106 139.989 76.0826 139.989 76.0879 140.021Z" fill="#263238"/>
<path d="M76.7219 139.543C76.7488 139.569 76.7219 139.639 76.6467 139.704C76.5714 139.768 76.5069 139.795 76.48 139.768C76.4532 139.741 76.48 139.672 76.5607 139.612C76.6413 139.553 76.7004 139.516 76.7219 139.543Z" fill="#263238"/>
<path d="M108.514 83.6869L78.5603 84.2244C76.2443 84.268 74.0219 85.1462 72.3017 86.6976C70.5815 88.2489 69.4791 90.3691 69.1973 92.6683L63.2849 140.935H79.5493L84.5156 99.2418H108.09L108.514 83.6869Z" fill="#263238"/>
<path d="M63.4785 137.887C63.4785 137.962 67.0421 138.048 71.4387 138.075C75.8353 138.102 79.3236 137.995 79.3989 137.984C79.9041 137.936 75.8353 137.823 71.4387 137.796C67.0421 137.769 63.4785 137.812 63.4785 137.887Z" fill="#455A64"/>
<path d="M136.63 99.2633C148.584 95.3074 140.393 79.4945 140.393 79.4945L88.1382 84.4071C87.141 84.4008 86.1524 84.5917 85.2293 84.9688C84.3062 85.346 83.4668 85.9021 82.7594 86.6049C82.052 87.3078 81.4907 88.1436 81.1076 89.0643C80.7245 89.985 80.5273 90.9724 80.5274 91.9696C80.5259 92.9629 80.7204 93.9467 81.0995 94.8648C81.4787 95.7829 82.0351 96.6173 82.737 97.3202C83.4388 98.023 84.2724 98.5807 85.19 98.9611C86.1075 99.3416 87.0911 99.5374 88.0844 99.5374L136.63 99.274" fill="#263238"/>
<path d="M120.656 82.4937L120.506 81.365L107.133 80.8383L100.57 64.2891L75.5664 65.9875L84.0049 84.3588L120.656 82.4937Z" fill="#455A64"/>
<path d="M90.7288 75.0228C90.867 75.2426 91.0672 75.4164 91.3042 75.5222C91.5412 75.6281 91.8043 75.6612 92.0602 75.6175C92.316 75.5737 92.5531 75.455 92.7415 75.2764C92.9298 75.0978 93.061 74.8673 93.1182 74.6141C93.1755 74.3609 93.1563 74.0964 93.0632 73.8542C92.97 73.6119 92.8071 73.4027 92.595 73.2531C92.3829 73.1035 92.1311 73.0202 91.8716 73.0137C91.6121 73.0073 91.3566 73.078 91.1373 73.2169C90.8441 73.4026 90.6365 73.6969 90.5599 74.0354C90.4833 74.3739 90.5441 74.729 90.7288 75.0228Z" fill="white"/>
<path d="M124.988 82.1658C124.938 82.1579 124.888 82.1579 124.838 82.1658H124.397L122.715 82.2357L116.523 82.5259L96.0984 83.6009C95.1041 83.6439 94.1151 83.7299 93.1476 83.7406C92.1801 83.7514 91.2127 83.7944 90.2721 83.8481C89.3315 83.9019 88.407 83.9664 87.504 84.0578C86.6067 84.1233 85.7216 84.304 84.8703 84.5952C84.0573 84.8821 83.3125 85.3341 82.6827 85.9228C82.095 86.4869 81.6413 87.1757 81.3552 87.9384C81.0931 88.6428 80.9127 89.375 80.8177 90.1206C80.7202 90.8043 80.6718 91.494 80.6726 92.1846C80.6548 93.3768 80.8931 94.559 81.3713 95.6514C81.7333 96.4736 82.2861 97.1977 82.9837 97.7637C83.425 98.1222 83.9302 98.3939 84.4726 98.5645C84.8488 98.672 84.8542 98.6398 84.4726 98.5108C83.9473 98.3222 83.4595 98.042 83.0321 97.6831C82.3573 97.1152 81.8222 96.3999 81.468 95.5922C81.0161 94.5125 80.7981 93.3493 80.8284 92.1792C80.8337 91.499 80.8875 90.82 80.9897 90.1475C81.0845 89.4123 81.2648 88.6908 81.5272 87.9975C81.8095 87.2699 82.248 86.6131 82.8117 86.0733C83.4232 85.5126 84.1417 85.0811 84.9241 84.8049C85.7558 84.5319 86.6194 84.3675 87.4932 84.3157C88.3962 84.2297 89.3153 84.1653 90.2559 84.1115C91.1965 84.0578 92.1479 84.0201 93.1207 84.0094C94.0936 83.9986 95.0772 83.9126 96.0769 83.8696L116.501 82.7302L122.693 82.3539L124.376 82.2357L124.811 82.2034L124.988 82.1658Z" fill="#455A64"/>
<path d="M122.973 54.9261C122.973 54.9261 124.306 42.0264 135.83 38.6671C136.685 38.9917 137.469 39.4811 138.135 40.1076C138.135 40.1076 127.278 39.6561 124.467 54.9261H122.973Z" fill="#263238"/>
<path d="M114.696 55.5497C114.696 55.5497 112.046 43.6229 121.683 36.4367C122.606 36.4352 123.519 36.618 124.37 36.9741C124.37 36.9741 113.465 40.3334 116.152 55.6196L114.696 55.5497Z" fill="#263238"/>
<path d="M134.427 13.3191C134.678 12.6182 135.119 12.001 135.702 11.5368C136.284 11.0726 136.984 10.7798 137.723 10.691C138.463 10.6023 139.212 10.7212 139.888 11.0345C140.563 11.3477 141.138 11.8429 141.548 12.4645C142.008 13.2921 142.368 14.1706 142.623 15.0821C142.888 15.9935 143.469 16.7806 144.263 17.3019C145.235 17.8394 146.509 17.6459 147.396 18.3124C148.38 19.0488 148.407 20.672 147.579 21.5857C147.14 22.0184 146.582 22.3111 145.976 22.4269C145.371 22.5427 144.744 22.4763 144.177 22.2361C144.459 22.9549 144.617 23.7164 144.644 24.4881C144.656 24.8748 144.572 25.2585 144.401 25.6053C144.229 25.9521 143.975 26.2514 143.661 26.4768C143.314 26.6632 142.926 26.7576 142.532 26.751C142.139 26.7444 141.754 26.637 141.414 26.4392C140.741 26.0309 140.165 25.4806 139.726 24.8267C139.614 25.3698 139.422 25.8933 139.156 26.3801C139.023 26.6236 138.839 26.8356 138.616 27.0016C138.394 27.1676 138.138 27.2838 137.867 27.3422C137.528 27.3711 137.187 27.3068 136.882 27.1562C136.577 27.0055 136.319 26.7743 136.136 26.4876C135.776 25.9128 135.559 25.2605 135.502 24.5849C135.302 22.913 135.411 21.2186 135.824 19.5862C136.077 18.5435 136.437 17.4739 136.238 16.4151C136.039 15.3562 134.996 14.3672 133.97 14.6844" fill="#263238"/>
<path d="M147.907 20.5269C147.907 20.5269 147.853 20.5646 147.735 20.6076C147.56 20.6735 147.38 20.7256 147.197 20.7634C146.528 20.8919 145.84 20.8919 145.171 20.7634C144.16 20.5759 143.226 20.0978 142.484 19.3875C142.048 18.9704 141.684 18.4836 141.409 17.947C141.128 17.3694 140.928 16.7564 140.812 16.1249C140.697 15.5126 140.528 14.9118 140.307 14.3297C140.096 13.8038 139.742 13.3476 139.285 13.0129C138.895 12.7306 138.447 12.5364 137.974 12.4436C137.501 12.3508 137.013 12.3616 136.544 12.4754C135.905 12.6397 135.316 12.9591 134.83 13.4052C134.48 13.717 134.33 13.9427 134.292 13.9427C134.315 13.8822 134.348 13.8259 134.389 13.7761C134.492 13.622 134.609 13.478 134.738 13.3461C135.218 12.8534 135.818 12.4956 136.48 12.3088C136.977 12.1711 137.499 12.1455 138.007 12.2338C138.516 12.3221 138.998 12.5221 139.42 12.8194C139.922 13.1755 140.312 13.6678 140.543 14.2383C140.781 14.8344 140.961 15.4517 141.081 16.0819C141.201 16.6909 141.4 17.2817 141.672 17.8395C141.93 18.3528 142.271 18.8197 142.682 19.2208C143.379 19.9071 144.257 20.3791 145.214 20.5807C145.862 20.7192 146.53 20.7411 147.187 20.6452C147.649 20.5914 147.901 20.5269 147.907 20.5269Z" fill="#455A64"/>
<path d="M138.888 26.8479C138.888 26.8479 138.834 26.8479 138.753 26.7619C138.63 26.6638 138.519 26.55 138.425 26.4233C138.077 25.9528 137.866 25.3944 137.818 24.8108C137.739 23.9528 137.836 23.0876 138.103 22.2685C138.444 21.2996 138.717 20.3082 138.92 19.3016C139.082 18.3028 138.892 17.2787 138.382 16.4045C137.958 15.6874 137.329 15.113 136.577 14.7544C136.071 14.5066 135.525 14.3535 134.964 14.3029C134.757 14.3027 134.551 14.2883 134.346 14.2599C134.55 14.2 134.763 14.1781 134.975 14.1954C135.556 14.2053 136.129 14.3352 136.657 14.5771C137.455 14.9313 138.126 15.5199 138.581 16.2648C139.143 17.1827 139.36 18.2705 139.194 19.3338C138.993 20.3561 138.711 21.3608 138.35 22.3384C138.082 23.1244 137.967 23.9546 138.012 24.7839C138.039 25.3434 138.211 25.8861 138.511 26.3588C138.726 26.6866 138.909 26.8317 138.888 26.8479Z" fill="#455A64"/>
<path d="M116.05 20.3711C113.363 14.1685 117.044 10.39 119.442 9.03549C120.866 8.22926 122.559 8.06264 124.198 8.01964C125.823 7.94292 127.451 8.09124 129.036 8.46038C130.62 8.83707 132.066 9.65306 133.207 10.8146C135.169 12.9161 135.615 16.0228 135.432 18.8769C135.226 22.2764 134.25 25.5846 132.578 28.5516C132.39 28.9407 132.1 29.2714 131.739 29.5084C131.554 29.6231 131.333 29.6651 131.119 29.6264C130.904 29.5877 130.712 29.471 130.578 29.2987" fill="#263238"/>
<path d="M130.514 13.1311C130.949 13.1769 131.352 13.3846 131.641 13.7131C131.931 14.0416 132.087 14.467 132.078 14.9049L131.083 38.5543C131.046 41.3492 125.983 44.6494 122.994 44.5849C119.979 44.5204 120.613 41.3116 120.844 38.6725C120.975 36.649 120.949 34.6185 120.769 32.5989C120.769 32.5989 116.931 31.9378 116.152 26.9768C115.76 24.5044 115.883 20.4463 116.093 17.1301C116.137 16.4224 116.325 15.731 116.644 15.0976C116.962 14.4643 117.406 13.9019 117.948 13.4445C118.49 12.987 119.118 12.6439 119.796 12.4358C120.474 12.2277 121.187 12.1589 121.892 12.2335L130.514 13.1311Z" fill="#FFBE9D"/>
<path d="M117.378 20.3334C117.375 20.4998 117.437 20.6607 117.552 20.7814C117.666 20.902 117.824 20.9728 117.99 20.9784C118.072 20.985 118.153 20.9752 118.231 20.9497C118.309 20.9243 118.38 20.8835 118.442 20.8299C118.503 20.7764 118.554 20.711 118.59 20.6378C118.626 20.5645 118.647 20.4848 118.651 20.4033C118.653 20.2364 118.589 20.0755 118.474 19.955C118.358 19.8345 118.2 19.7639 118.033 19.7583C117.952 19.7525 117.871 19.7628 117.794 19.7886C117.717 19.8144 117.646 19.8553 117.585 19.9088C117.524 19.9623 117.474 20.0274 117.439 20.1003C117.403 20.1732 117.382 20.2524 117.378 20.3334Z" fill="#263238"/>
<path d="M116.964 19.2263C117.044 19.3069 117.528 18.9522 118.216 18.9522C118.904 18.9522 119.404 19.2961 119.479 19.2155C119.555 19.1349 119.436 19.0274 119.216 18.8662C118.918 18.6596 118.563 18.5507 118.2 18.5544C117.843 18.5532 117.494 18.6662 117.206 18.8769C116.996 19.0382 116.926 19.1886 116.964 19.2263Z" fill="#263238"/>
<path d="M124.091 20.3334C124.088 20.4998 124.151 20.6607 124.265 20.7814C124.38 20.902 124.537 20.9728 124.704 20.9784C124.785 20.985 124.867 20.9752 124.944 20.9497C125.022 20.9243 125.094 20.8835 125.155 20.8299C125.217 20.7764 125.267 20.711 125.303 20.6378C125.339 20.5645 125.36 20.4848 125.365 20.4033C125.366 20.2364 125.302 20.0755 125.187 19.955C125.071 19.8345 124.913 19.7639 124.747 19.7583C124.666 19.7525 124.584 19.7628 124.508 19.7886C124.431 19.8144 124.36 19.8553 124.299 19.9088C124.238 19.9623 124.188 20.0274 124.152 20.1003C124.117 20.1732 124.096 20.2524 124.091 20.3334Z" fill="#263238"/>
<path d="M123.715 19.3553C123.795 19.4359 124.279 19.0812 124.962 19.0812C125.644 19.0812 126.155 19.4252 126.23 19.3392C126.305 19.2532 126.187 19.1564 125.967 18.9952C125.669 18.787 125.314 18.6779 124.951 18.6834C124.593 18.6822 124.245 18.7952 123.956 19.0059C123.747 19.1672 123.677 19.3177 123.715 19.3553Z" fill="#263238"/>
<path d="M121.221 24.4451C120.859 24.3327 120.486 24.2659 120.108 24.2462C119.931 24.2462 119.764 24.1924 119.737 24.0688C119.717 23.8816 119.759 23.693 119.855 23.5313C120.017 23.1085 120.196 22.6624 120.393 22.193C120.861 21.0689 121.24 19.9097 121.527 18.7262C120.952 19.8129 120.468 20.9455 120.081 22.1124C119.909 22.5853 119.743 23.0315 119.587 23.4561C119.474 23.6667 119.441 23.9113 119.495 24.1441C119.521 24.2056 119.559 24.2607 119.609 24.3053C119.658 24.3499 119.716 24.383 119.78 24.4021C119.879 24.4277 119.98 24.4421 120.081 24.4451C120.459 24.4937 120.842 24.4937 121.221 24.4451Z" fill="#263238"/>
<path d="M120.748 32.5719C123.1 32.6121 125.417 31.996 127.439 30.7928C127.439 30.7928 125.827 34.2113 120.839 33.7436L120.748 32.5719Z" fill="#AA6550"/>
<path d="M121.527 26.1008C121.658 25.9364 121.829 25.8079 122.024 25.7271C122.218 25.6463 122.43 25.6158 122.639 25.6385C122.791 25.6529 122.938 25.6974 123.071 25.7694C123.205 25.8414 123.323 25.9394 123.419 26.0578C123.509 26.1739 123.562 26.3142 123.571 26.4607C123.581 26.6073 123.547 26.7533 123.473 26.8801C123.361 27.0021 123.216 27.0886 123.055 27.1287C122.894 27.1689 122.726 27.1609 122.57 27.1059C122.244 26.9873 121.946 26.8045 121.693 26.5684C121.616 26.516 121.55 26.4483 121.5 26.3695C121.474 26.3317 121.459 26.2866 121.459 26.2405C121.459 26.1944 121.474 26.1494 121.5 26.1115" fill="#AA6550"/>
<path d="M123.242 24.9183C123.129 24.9183 123.129 25.6601 122.489 26.1868C121.85 26.7135 121.059 26.6329 121.054 26.7243C121.049 26.8157 121.231 26.8694 121.565 26.8748C122.003 26.8851 122.43 26.7383 122.769 26.4609C123.096 26.1926 123.304 25.8065 123.349 25.3859C123.376 25.1011 123.295 24.9183 123.242 24.9183Z" fill="#263238"/>
<path d="M123.403 18.1513C123.473 18.3394 124.161 18.248 124.962 18.3448C125.763 18.4415 126.424 18.6619 126.526 18.4953C126.574 18.4146 126.461 18.2373 126.198 18.0599C125.852 17.8319 125.455 17.6917 125.042 17.6514C124.63 17.6019 124.212 17.6516 123.822 17.7965C123.527 17.9148 123.376 18.0599 123.403 18.1513Z" fill="#263238"/>
<path d="M117.227 17.2377C117.351 17.3935 117.824 17.2377 118.388 17.2377C118.952 17.2377 119.463 17.3398 119.549 17.1785C119.635 17.0173 119.522 16.942 119.312 16.7916C119.031 16.6113 118.7 16.5231 118.366 16.5389C118.033 16.5449 117.711 16.6538 117.442 16.8507C117.227 17.0012 117.162 17.1624 117.227 17.2377Z" fill="#263238"/>
<path d="M116.082 17.114C116.953 12.8732 118.135 14.5502 119.474 12.5239C121.409 14.4857 125.864 16.7431 128.584 17.1893C128.866 17.2084 129.139 17.295 129.38 17.4419C129.559 17.6318 129.694 17.8603 129.772 18.1099C129.85 18.3595 129.87 18.6237 129.831 18.8823C129.778 20.3552 129.899 21.8291 130.191 23.2736C130.497 24.7307 131.249 26.0566 132.341 27.0683C133.954 23.6122 134.147 19.5864 133.416 15.8294C133.115 14.2976 132.61 12.6905 131.384 11.7123C130.462 11.0698 129.395 10.6655 128.278 10.5352C125.558 10.0353 122.683 9.91168 120.097 10.8845C117.512 11.8574 115.496 13.0345 115.147 15.7918" fill="#263238"/>
<path d="M134.889 14.1361C134.721 14.2556 134.541 14.3565 134.351 14.4371C134.13 14.5494 133.9 14.6429 133.663 14.7166L133.223 14.867L132.717 14.996C131.882 15.1959 131.028 15.3129 130.17 15.3454C129.113 15.3824 128.054 15.3176 127.009 15.1519C125.975 14.9746 124.959 14.6974 123.978 14.3242C123.55 14.157 123.132 13.965 122.726 13.7491L122.188 13.4588L121.704 13.1471C121.427 12.9691 121.161 12.7734 120.909 12.5612L120.597 12.3032L120.355 12.0614C120.197 11.9216 120.056 11.7627 119.936 11.5884C120.538 12.0834 121.164 12.548 121.812 12.9805L122.296 13.2707L122.833 13.5448C123.236 13.7447 123.648 13.9241 124.069 14.0823C125.039 14.4382 126.039 14.7044 127.058 14.8778C128.078 15.04 129.11 15.1138 130.143 15.0982C130.985 15.0787 131.823 14.9833 132.648 14.8133C134.061 14.5069 134.862 14.0769 134.889 14.1361Z" fill="#455A64"/>
<path d="M133.481 10.7823C133.354 10.9182 133.21 11.0358 133.051 11.1317C132.883 11.2627 132.703 11.3779 132.513 11.4757L132.153 11.6692L131.734 11.8519C130.176 12.4513 128.517 12.7468 126.848 12.7227C125.187 12.7312 123.529 12.5509 121.909 12.1852C121.418 12.0809 120.934 11.9499 120.457 11.7928C120.27 11.752 120.089 11.685 119.92 11.594C119.92 11.551 120.689 11.7606 121.93 11.9917C123.542 12.3036 125.18 12.4602 126.821 12.4593C128.467 12.483 130.104 12.2192 131.659 11.68C132.282 11.4137 132.89 11.114 133.481 10.7823Z" fill="#455A64"/>
<path d="M118.189 9.70179C118.189 9.66954 118.361 9.63729 118.624 9.70179C118.973 9.79941 119.282 10.0021 119.511 10.2823C119.743 10.5614 119.886 10.9043 119.92 11.2659C119.92 11.54 119.871 11.7012 119.834 11.6959C119.737 11.2542 119.555 10.8359 119.296 10.465C118.839 9.87378 118.173 9.77704 118.189 9.70179Z" fill="#455A64"/>
<path d="M143.892 15.0608C143.929 14.992 143.981 14.9316 144.042 14.8834C144.209 14.734 144.417 14.6401 144.639 14.6147C145.001 14.5678 145.368 14.6496 145.676 14.8458C145.884 14.9799 146.05 15.169 146.156 15.392C146.263 15.6151 146.305 15.8633 146.278 16.1089C146.247 16.4041 146.143 16.6871 145.978 16.9334C145.812 17.1797 145.588 17.3819 145.327 17.5225C145.016 17.6669 144.672 17.7241 144.331 17.6882C143.99 17.6522 143.666 17.5243 143.392 17.3183C143.086 17.1086 142.84 16.8234 142.677 16.4905C142.522 16.1522 142.432 15.7874 142.414 15.4155C142.437 14.6643 142.417 13.9124 142.355 13.1635C142.209 12.4688 141.888 11.8226 141.424 11.2858C140.959 10.7489 140.366 10.3389 139.7 10.0944C139.149 9.90472 138.563 9.84339 137.985 9.91512C137.408 9.98685 136.854 10.1898 136.367 10.5083C135.694 10.9286 135.15 11.5253 134.792 12.2336C134.545 12.7442 134.491 13.056 134.464 13.0506C134.46 12.9726 134.469 12.8944 134.491 12.8195C134.535 12.6026 134.603 12.3915 134.696 12.1906C134.977 11.5522 135.411 10.9921 135.957 10.5585C136.504 10.1249 137.149 9.83099 137.834 9.70206C138.487 9.58229 139.159 9.63415 139.786 9.85256C140.5 10.1059 141.137 10.5393 141.635 11.1108C142.133 11.6823 142.475 12.3727 142.629 13.1151C142.696 13.8746 142.715 14.6375 142.688 15.3994C142.7 15.7427 142.778 16.0805 142.919 16.3938C143.072 16.6812 143.294 16.9266 143.564 17.1086C143.801 17.29 144.081 17.4047 144.377 17.4406C144.673 17.4765 144.973 17.4324 145.246 17.3129C145.479 17.194 145.679 17.0204 145.83 16.8069C145.981 16.5934 146.078 16.3465 146.112 16.0874C146.141 15.8751 146.11 15.659 146.022 15.4633C145.935 15.2677 145.795 15.1004 145.617 14.9802C145.342 14.7895 145.01 14.6984 144.677 14.7222C144.386 14.7503 144.112 14.8688 143.892 15.0608Z" fill="#263238"/>
<path d="M130.826 17.3019C130.649 17.339 130.468 17.3516 130.288 17.3395C129.955 17.3395 129.471 17.3395 128.875 17.3395C127.307 17.3139 125.753 17.0456 124.268 16.5441C122.768 16.0216 121.458 15.0634 120.506 13.7921C120.227 13.4048 120.001 12.9818 119.834 12.5344C119.765 12.3741 119.723 12.2033 119.71 12.0292C119.977 12.605 120.296 13.1555 120.662 13.6739C121.629 14.869 122.909 15.7715 124.36 16.2807C125.821 16.7701 127.341 17.0594 128.88 17.1407C129.531 17.1571 130.181 17.211 130.826 17.3019Z" fill="#263238"/>
<path d="M137.888 29.4601C137.861 29.6385 137.778 29.8039 137.652 29.9331C137.49 30.1193 137.292 30.2709 137.071 30.379C136.849 30.487 136.608 30.5493 136.362 30.5619C135.624 30.582 134.908 30.3118 134.368 29.8094C134.027 29.5144 133.81 29.1018 133.76 28.6538C133.734 28.4032 133.784 28.1506 133.903 27.9284C134.021 27.7061 134.204 27.5245 134.427 27.4069C134.665 27.2971 134.936 27.2846 135.183 27.372C135.43 27.4593 135.633 27.6396 135.749 27.8745C135.794 27.9909 135.813 28.1161 135.804 28.2407C135.794 28.3653 135.757 28.4863 135.695 28.5947C135.588 28.8012 135.416 28.9672 135.206 29.0677C134.827 29.2207 134.403 29.2207 134.024 29.0677C133.7 28.9589 133.407 28.7747 133.169 28.5302C132.823 28.1815 132.602 27.7279 132.54 27.2402C132.503 27.0617 132.513 26.8767 132.567 26.7028C132.594 26.7028 132.567 26.8909 132.648 27.208C132.746 27.6543 132.976 28.0606 133.309 28.3743C133.531 28.5907 133.802 28.751 134.099 28.842C134.422 28.9594 134.777 28.9498 135.093 28.8151C135.252 28.7432 135.38 28.6171 135.453 28.4595C135.527 28.3018 135.543 28.123 135.496 27.9551C135.407 27.7932 135.26 27.6707 135.085 27.6119C134.91 27.5532 134.719 27.5625 134.55 27.638C134.383 27.7362 134.247 27.8807 134.159 28.0542C134.071 28.2277 134.035 28.4229 134.056 28.6162C134.101 28.9953 134.282 29.3449 134.566 29.5998C135.056 30.066 135.702 30.3308 136.378 30.3415C136.832 30.3345 137.267 30.1537 137.593 29.8363C137.797 29.6267 137.867 29.4493 137.888 29.4601Z" fill="#263238"/>
<path d="M115.007 55.4635C115.007 55.4957 114.964 55.571 114.975 55.6892C114.986 55.8075 115.077 55.915 115.222 55.8559C115.367 55.7967 115.357 55.6624 115.271 55.5656C115.185 55.4689 115.099 55.4635 115.088 55.4259C115.077 55.3882 115.201 55.3022 115.394 55.4259C115.45 55.459 115.498 55.5051 115.532 55.5603C115.567 55.6155 115.588 55.6781 115.593 55.743C115.595 55.8275 115.57 55.9103 115.523 55.9805C115.476 56.0506 115.408 56.1046 115.33 56.1354C115.253 56.1697 115.167 56.1794 115.084 56.163C115.001 56.1467 114.926 56.1051 114.868 56.044C114.824 55.9959 114.794 55.9378 114.779 55.8749C114.764 55.812 114.765 55.7463 114.782 55.6839C114.841 55.4635 115.002 55.4312 115.007 55.4635Z" fill="#455A64"/>
<path d="M123.607 55.2971C123.607 55.3401 123.494 55.3723 123.424 55.5174C123.401 55.5543 123.387 55.5965 123.385 55.64C123.382 55.6836 123.391 55.727 123.41 55.7664C123.429 55.8057 123.457 55.8396 123.493 55.865C123.528 55.8903 123.569 55.9062 123.613 55.9113C123.656 55.9163 123.7 55.9103 123.74 55.8938C123.781 55.8772 123.816 55.8508 123.843 55.8168C123.871 55.7828 123.889 55.7425 123.897 55.6995C123.904 55.6566 123.901 55.6124 123.886 55.5712C123.849 55.4153 123.741 55.3562 123.752 55.3132C123.763 55.2702 123.946 55.2702 124.069 55.4959C124.103 55.5645 124.12 55.6399 124.12 55.7163C124.12 55.7927 124.103 55.8681 124.069 55.9367C124.021 56.023 123.949 56.0927 123.86 56.1369C123.772 56.181 123.672 56.1974 123.575 56.1839C123.487 56.1791 123.402 56.1495 123.33 56.0985C123.258 56.0476 123.202 55.9773 123.168 55.8958C123.134 55.8143 123.124 55.7249 123.139 55.638C123.154 55.5511 123.193 55.4702 123.252 55.4046C123.435 55.2111 123.618 55.2648 123.607 55.2971Z" fill="#455A64"/>
<path d="M115.561 60.0806C115.561 60.0806 115.561 60.3655 115.561 60.8761C115.578 61.5914 115.695 62.3007 115.91 62.9831C116.07 63.4397 116.316 63.8613 116.636 64.2247C117.018 64.6203 117.521 64.8774 118.066 64.9556C118.662 65.0821 119.283 64.9965 119.823 64.7138C120.394 64.3894 120.857 63.9056 121.156 63.3217C121.669 62.317 121.98 61.2213 122.07 60.0968L122.204 60.2365C120.28 60.2365 118.635 60.1989 117.453 60.172L116.061 60.1344C115.881 60.1369 115.701 60.1261 115.523 60.1021C115.676 60.0761 115.831 60.0653 115.985 60.0699L117.351 60.0323C118.528 60.0054 120.21 59.9785 122.188 59.9731H122.328V60.1129C122.253 61.2873 121.935 62.4332 121.393 63.4776C121.069 64.1088 120.566 64.6304 119.947 64.9771C119.352 65.2823 118.671 65.3734 118.017 65.2351C117.42 65.14 116.873 64.8465 116.464 64.402C116.129 64.0099 115.875 63.5549 115.717 63.0637C115.516 62.3654 115.425 61.64 115.448 60.9137C115.439 60.6317 115.477 60.3502 115.561 60.0806Z" fill="#455A64"/>
<path d="M136.491 87.1753C136.368 87.2717 136.227 87.3429 136.077 87.3849C135.677 87.5286 135.259 87.6137 134.835 87.6375C134.13 87.6906 133.422 87.5885 132.761 87.3385C132.1 87.0884 131.501 86.6965 131.008 86.1902C130.514 85.684 130.138 85.0758 129.905 84.4083C129.672 83.7409 129.588 83.0305 129.659 82.3272C129.693 81.9051 129.789 81.4903 129.944 81.0963C130.057 80.8168 130.143 80.6771 130.159 80.6878C130.004 81.2265 129.903 81.7793 129.858 82.3379C129.813 83.0084 129.909 83.6809 130.142 84.3116C130.374 84.9422 130.736 85.5169 131.205 85.9981C131.674 86.4794 132.239 86.8564 132.864 87.1046C133.488 87.3528 134.158 87.4666 134.83 87.4387C135.39 87.4044 135.947 87.3162 136.491 87.1753Z" fill="#455A64"/>
<path d="M85.7842 98.5915C85.7842 98.5163 97.4476 98.4518 111.825 98.4518C126.203 98.4518 137.867 98.5163 137.867 98.5915C137.867 98.6668 126.209 98.7313 111.825 98.7313C97.4423 98.7313 85.7842 98.6722 85.7842 98.5915Z" fill="#455A64"/>
<path d="M262.886 74.5712C262.886 74.5712 262.725 74.5712 262.397 74.5712H260.919L255.173 74.6088L233.615 74.6841L159.221 74.797H159.017L158.963 74.6035C158.149 71.809 158.006 68.8617 158.546 66.0015C159.086 63.1413 160.294 60.4492 162.072 58.1442C163.849 55.8392 166.146 53.9866 168.775 52.7371C171.404 51.4877 174.29 50.8767 177.2 50.954L176.926 51.3088C176.469 49.6894 176.275 48.0072 176.351 46.3263C176.582 40.5806 179.85 35.0391 184.87 32.4538C187.305 31.1804 190.014 30.522 192.762 30.5361C195.51 30.5501 198.213 31.2362 200.634 32.5344L200.247 32.6741C202.935 26.149 208.562 21.4191 214.684 19.237C220.806 17.0548 227.638 17.2966 232.991 20.0969C238.079 22.7892 242.082 27.1561 244.321 32.4591C246.37 37.1374 246.849 42.353 245.687 47.326L245.477 47.0895C248.401 46.7806 251.357 47.2036 254.077 48.3204C256.496 49.3026 258.675 50.797 260.462 52.7009C261.278 53.5536 261.958 54.5271 262.478 55.5872C262.936 56.5706 263.296 57.5968 263.553 58.6509C263.989 60.4856 264.234 62.3608 264.284 64.2461C264.378 66.8436 264.155 69.4429 263.617 71.9859C263.474 72.6457 263.295 73.297 263.08 73.937C262.929 74.367 262.849 74.5712 262.849 74.5712" fill="#016CDE"/>
<g opacity="0.3">
<path d="M262.886 74.5712C262.886 74.5712 262.725 74.5712 262.397 74.5712H260.919L255.173 74.6088L233.615 74.6841L159.221 74.797H159.017L158.963 74.6035C158.149 71.809 158.006 68.8617 158.546 66.0015C159.086 63.1413 160.294 60.4492 162.072 58.1442C163.849 55.8392 166.146 53.9866 168.775 52.7371C171.404 51.4877 174.29 50.8767 177.2 50.954L176.926 51.3088C176.469 49.6894 176.275 48.0072 176.351 46.3263C176.582 40.5806 179.85 35.0391 184.87 32.4538C187.305 31.1804 190.014 30.522 192.762 30.5361C195.51 30.5501 198.213 31.2362 200.634 32.5344L200.247 32.6741C202.935 26.149 208.562 21.4191 214.684 19.237C220.806 17.0548 227.638 17.2966 232.991 20.0969C238.079 22.7892 242.082 27.1561 244.321 32.4591C246.37 37.1374 246.849 42.353 245.687 47.326L245.477 47.0895C248.401 46.7806 251.357 47.2036 254.077 48.3204C256.496 49.3026 258.675 50.797 260.462 52.7009C261.278 53.5536 261.958 54.5271 262.478 55.5872C262.936 56.5706 263.296 57.5968 263.553 58.6509C263.989 60.4856 264.234 62.3608 264.284 64.2461C264.378 66.8436 264.155 69.4429 263.617 71.9859C263.474 72.6457 263.295 73.297 263.08 73.937C262.929 74.367 262.849 74.5712 262.849 74.5712" fill="black"/>
</g>
<path d="M254.663 74.5714C254.663 74.5714 254.501 74.5714 254.168 74.5714H252.695L246.944 74.609L225.391 74.6842L150.992 74.7971H150.793L150.734 74.6036C149.92 71.8087 149.777 68.8609 150.317 66.0003C150.858 63.1397 152.066 60.4472 153.844 58.1421C155.622 55.837 157.92 53.9844 160.549 52.7354C163.179 51.4863 166.066 50.876 168.976 50.9542L168.702 51.3089C168.241 49.6849 168.047 47.9967 168.127 46.3103C168.353 40.5646 171.626 35.0231 176.646 32.4378C179.08 31.1644 181.789 30.506 184.536 30.5201C187.283 30.5341 189.985 31.2202 192.406 32.5184L192.024 32.6581C194.711 26.133 200.339 21.4032 206.461 19.221C212.583 17.0388 219.409 17.2806 224.762 20.0809C229.852 22.7714 233.855 27.1389 236.092 32.4431C238.146 37.1098 238.636 42.3152 237.49 47.2831L237.28 47.0466C240.205 46.7354 243.16 47.1585 245.88 48.2775C248.302 49.2583 250.482 50.7528 252.271 52.658C253.085 53.5109 253.764 54.4845 254.281 55.5443C254.741 56.5269 255.101 57.5533 255.356 58.608C255.792 60.4428 256.037 62.3179 256.087 64.2032C256.18 66.8009 255.955 69.4003 255.415 71.943C255.274 72.6033 255.095 73.2548 254.878 73.8941C254.727 74.3241 254.646 74.5284 254.646 74.5284" fill="#016CDE"/>
<path d="M222.478 50.5672C222.324 50.0727 222.243 49.5585 222.236 49.0407C222.134 48.557 222.048 47.9658 221.876 47.2831L221.569 46.2082C221.451 45.8319 221.279 45.4503 221.129 45.0418C220.336 43.1566 219.188 41.4413 217.748 39.9894C215.98 38.2234 213.806 36.9182 211.417 36.1882C209.027 35.4582 206.495 35.3257 204.042 35.8024C202.035 36.1892 200.124 36.9692 198.42 38.0975C197.268 38.8639 196.212 39.7662 195.276 40.7849C194.937 41.145 194.69 41.4407 194.518 41.6395C194.346 41.8384 194.238 41.9298 194.217 41.9137C194.195 41.8975 194.249 41.7685 194.383 41.5428C194.57 41.2037 194.784 40.8802 195.023 40.5753C195.889 39.4365 196.92 38.433 198.081 37.5976C199.819 36.3505 201.798 35.4792 203.892 35.0392C206.47 34.4958 209.144 34.6151 211.665 35.3858C214.185 36.1566 216.468 37.5537 218.302 39.4466C219.781 40.9894 220.93 42.8185 221.677 44.8215C221.817 45.2514 221.983 45.6546 222.08 46.0469C222.177 46.4393 222.252 46.8209 222.333 47.1703C222.467 47.8798 222.505 48.4979 222.558 48.9977C222.605 49.5221 222.578 50.0504 222.478 50.5672Z" fill="#FAFAFA"/>
<path d="M215.104 45.09C215.243 44.9019 218.608 47.24 222.628 50.2768L222.854 50.4434L222.204 50.6423C223.816 46.0091 225.3 42.3596 225.515 42.4349C225.73 42.5101 224.606 46.2779 222.994 50.9164L222.806 51.4539L222.344 51.1045L222.123 50.9325C218.097 47.8957 214.964 45.2513 215.104 45.09Z" fill="#FAFAFA"/>
<path d="M193.373 48.0087C193.461 48.5036 193.479 49.0083 193.427 49.5083C193.454 49.9866 193.491 50.5832 193.556 51.2443C193.651 52.0029 193.8 52.7537 194.002 53.491C194.516 55.4083 195.389 57.2104 196.576 58.8014C198.023 60.7481 199.916 62.3186 202.096 63.3808L202.521 63.5958L202.967 63.7732L203.843 64.1171C204.139 64.2139 204.44 64.2891 204.735 64.3805C205.026 64.4716 205.323 64.5452 205.622 64.6009C206.763 64.8463 207.928 64.9635 209.094 64.9502C211.079 64.9202 213.039 64.5077 214.867 63.7355C216.109 63.2101 217.283 62.5389 218.366 61.7361C218.753 61.4566 219.049 61.2255 219.248 61.0642C219.446 60.903 219.565 60.8438 219.586 60.86C219.608 60.8761 219.532 60.9943 219.36 61.1878C219.119 61.4754 218.855 61.7432 218.57 61.9887C217.537 62.916 216.372 63.6857 215.114 64.273C213.242 65.1603 211.208 65.6525 209.137 65.7189C207.909 65.7587 206.681 65.654 205.477 65.4071C205.161 65.3529 204.848 65.2775 204.542 65.1814C204.23 65.09 203.908 65.0094 203.596 64.9073L202.666 64.5471L202.199 64.3644L201.747 64.1333L200.849 63.671C200.559 63.499 200.285 63.3109 200.006 63.1335C199.463 62.7765 198.942 62.387 198.447 61.9672C198.2 61.7683 197.985 61.5318 197.754 61.3222C197.522 61.1126 197.297 60.8976 197.103 60.6611L196.512 59.9624L196.227 59.6184L195.974 59.2583C194.284 56.9261 193.291 54.162 193.11 51.2873C193.11 50.5886 193.11 49.9866 193.11 49.4975C193.123 48.9909 193.212 48.4892 193.373 48.0087Z" fill="#FAFAFA"/>
<path d="M200 54.3454C199.839 54.5121 196.775 51.7978 193.179 48.2826L192.975 48.0837L193.647 47.9709C191.465 52.3675 189.562 55.8128 189.347 55.7107C189.132 55.6085 190.712 52.0074 192.884 47.6L193.137 47.0625L193.55 47.4656L193.755 47.6645C197.388 51.1958 200.183 54.1788 200 54.3454Z" fill="#FAFAFA"/>
<path d="M300.65 101.687C300.65 101.687 300.65 101.596 300.65 101.413V100.607C300.65 99.8815 300.65 98.8333 300.623 97.4843C300.623 94.7538 300.623 90.7979 300.58 85.8692L300.677 85.9605L256.931 86.0089L208.374 85.9498H208.294V85.8692C208.294 82.3916 208.321 79.6451 208.331 77.7531C208.331 76.8179 208.331 76.0977 208.331 75.6032C208.331 75.3667 208.331 75.1839 208.331 75.0657C208.323 75.0032 208.323 74.94 208.331 74.8776C208.331 74.8776 208.331 74.9421 208.331 75.0657C208.331 75.1893 208.331 75.3828 208.331 75.6032C208.331 76.103 208.331 76.8233 208.331 77.7531C208.331 79.6451 208.331 82.3916 208.369 85.8692L208.288 85.7885L256.845 85.7294L300.591 85.7724H300.688V85.8692C300.688 90.7979 300.65 94.7538 300.645 97.4843C300.645 98.8333 300.645 99.8815 300.618 100.607C300.618 100.956 300.618 101.22 300.618 101.413C300.633 101.504 300.644 101.596 300.65 101.687Z" fill="#016CDE"/>
<path d="M165.306 98.5916C165.23 98.5916 165.166 93.2597 165.166 86.6809C165.166 80.102 165.23 74.7701 165.306 74.7701C165.381 74.7701 165.445 80.102 165.445 86.6809C165.445 93.2597 165.381 98.5916 165.306 98.5916Z" fill="#016CDE"/>
</svg>
