<svg width="400" height="225" viewBox="0 0 400 225" fill="none" xmlns="http://www.w3.org/2000/svg">
<path d="M254.919 201.473H249.688V201.624H254.919V201.473Z" fill="#EBEBEB"/>
<path d="M113.122 195.261H87.1245V195.412H113.122V195.261Z" fill="#EBEBEB"/>
<path d="M122.295 195.261H118.485V195.412H122.295V195.261Z" fill="#EBEBEB"/>
<path d="M191.071 197.802H134.683V197.952H191.071V197.802Z" fill="#EBEBEB"/>
<path d="M237.962 100.192L298.559 100.192V23.4034L237.962 23.4034V100.192Z" fill="#F0F0F0"/>
<path d="M244.001 92.5476H292.528V31.0491L244.001 31.0491V92.5476Z" fill="#FAFAFA"/>
<path d="M302.417 23.4094H298.565V100.198H302.417V23.4094Z" fill="#E0E0E0"/>
<path d="M261.203 62.7459C258.598 65.3504 257.135 68.8829 257.135 72.5663C257.135 76.2496 258.598 79.7821 261.203 82.3867C263.808 84.9912 267.34 86.4544 271.023 86.4544C274.707 86.4544 278.239 84.9912 280.844 82.3867C286.267 76.9633 266.626 57.3226 261.203 62.7459Z" fill="#F5F5F5"/>
<path d="M281.115 61.096C283.164 59.0462 284.314 56.2664 284.314 53.3682C284.313 50.4699 283.161 47.6906 281.112 45.6416C279.062 43.5926 276.282 42.4418 273.384 42.4424C270.486 42.4429 267.706 43.5948 265.657 45.6446C261.408 49.9303 276.847 65.3817 281.115 61.096Z" fill="#EBEBEB"/>
<path d="M262.401 56.0824L262.497 59.4712C262.493 59.5144 262.477 59.5556 262.451 59.5904C262.425 59.6253 262.39 59.6524 262.35 59.6691C262.31 59.6858 262.266 59.6913 262.223 59.685C262.18 59.6788 262.14 59.6611 262.106 59.6337L261.504 59.1461L259.536 53.8733L262.401 56.0824Z" fill="#E0E0E0"/>
<path d="M263.472 55.0109L267.288 54.6859C267.331 54.6853 267.372 54.672 267.407 54.6477C267.441 54.6234 267.468 54.5892 267.483 54.5495C267.498 54.5099 267.501 54.4666 267.491 54.4254C267.481 54.3842 267.458 54.347 267.427 54.3187L266.825 53.8311L260.631 52.7717L263.472 55.0109Z" fill="#E0E0E0"/>
<path d="M265.392 56.5097L264.315 57.5812L263.321 56.4255L263.971 55.7754L265.392 56.5097Z" fill="#E0E0E0"/>
<path d="M256.441 49.509L251.337 45.5243C251.006 45.2655 248.207 43.5078 247.912 43.8028C247.617 44.0977 249.928 46.3369 250.266 46.6017L255.364 50.5865C256.381 51.7627 257.475 52.8707 258.638 53.9031L262.792 57.1474L264.718 55.2273L260.564 51.9769C259.241 51.0717 257.864 50.2475 256.441 49.509Z" fill="#EBEBEB"/>
<path d="M284.666 190.386H317.929V107.969H284.666V190.386Z" fill="#E6E6E6"/>
<path d="M222.451 190.386H291.932V107.969L222.451 107.969V190.386Z" fill="#F5F5F5"/>
<path d="M255.136 186.298H225.755V122.205C225.755 119.81 226.706 117.513 228.4 115.82C230.093 114.127 232.39 113.176 234.784 113.176H246.125C248.519 113.176 250.816 114.127 252.509 115.82C254.202 117.513 255.154 119.81 255.154 122.205V186.298H255.136Z" fill="#EBEBEB"/>
<path d="M287.941 186.298H258.561V122.205C258.561 119.81 259.512 117.513 261.205 115.82C262.899 114.127 265.195 113.176 267.59 113.176H278.93C281.325 113.176 283.621 114.127 285.315 115.82C287.008 117.513 287.959 119.81 287.959 122.205V186.298H287.941Z" fill="#EBEBEB"/>
<path d="M261.209 149.183C261.245 149.752 261.445 150.298 261.787 150.754C262.129 151.209 262.596 151.555 263.132 151.749C263.668 151.942 264.249 151.974 264.803 151.842C265.357 151.709 265.86 151.417 266.25 151.002C266.64 150.587 266.901 150.066 266.999 149.505C267.097 148.944 267.029 148.366 266.802 147.844C266.576 147.321 266.202 146.875 265.726 146.563C265.25 146.25 264.692 146.083 264.123 146.083C263.325 146.108 262.571 146.449 262.024 147.03C261.478 147.612 261.185 148.386 261.209 149.183Z" fill="#E0E0E0"/>
<path d="M246.173 149.183C246.208 149.752 246.409 150.297 246.75 150.753C247.092 151.209 247.559 151.555 248.095 151.748C248.63 151.942 249.211 151.974 249.765 151.842C250.318 151.71 250.822 151.419 251.212 151.004C251.602 150.589 251.863 150.07 251.962 149.509C252.061 148.948 251.993 148.371 251.768 147.848C251.543 147.325 251.169 146.879 250.694 146.565C250.219 146.252 249.662 146.084 249.092 146.083C248.697 146.095 248.308 146.184 247.947 146.347C247.587 146.509 247.261 146.74 246.99 147.028C246.719 147.316 246.507 147.655 246.367 148.024C246.227 148.394 246.161 148.788 246.173 149.183Z" fill="#E0E0E0"/>
<path d="M87.4509 190.337C87.3717 190.331 87.2946 190.31 87.2238 190.274C87.1531 190.238 87.0902 190.188 87.0387 190.127C86.9873 190.067 86.9483 189.997 86.9239 189.921C86.8996 189.846 86.8905 189.766 86.8971 189.687L99.008 44.5793H100.212V45.7832H100.134L88.0949 189.79C88.0811 189.947 88.0058 190.093 87.8853 190.195C87.7647 190.298 87.6087 190.349 87.4509 190.337Z" fill="#E0E0E0"/>
<path d="M141.265 190.337C141.344 190.331 141.421 190.31 141.492 190.274C141.563 190.238 141.625 190.188 141.677 190.127C141.728 190.067 141.767 189.997 141.792 189.921C141.816 189.846 141.825 189.766 141.819 189.687L129.708 44.5793H128.504V45.7832H128.6L136.341 138.577H97.384L89.5588 44.5793H88.355V45.7832H88.4513L100.49 189.79C100.504 189.948 100.58 190.095 100.702 190.198C100.824 190.3 100.981 190.351 101.14 190.337C101.219 190.331 101.296 190.31 101.367 190.274C101.438 190.238 101.501 190.188 101.552 190.127C101.604 190.067 101.643 189.997 101.667 189.921C101.691 189.846 101.7 189.766 101.694 189.687L97.5284 139.781H136.485L140.657 189.79C140.671 189.941 140.741 190.081 140.853 190.183C140.966 190.284 141.113 190.339 141.265 190.337Z" fill="#E0E0E0"/>
<path d="M144.052 119.412H86.5129L79.2476 32.3601H136.786L144.052 119.412Z" fill="#F5F5F5"/>
<path d="M136.737 34.4065H79.1569C78.653 34.4034 78.1707 34.2009 77.8155 33.8434C77.4602 33.4859 77.2609 33.0024 77.2609 32.4984C77.2609 31.9924 77.4619 31.507 77.8197 31.1492C78.1776 30.7914 78.6629 30.5903 79.169 30.5903H136.749C137.255 30.5903 137.74 30.7914 138.098 31.1492C138.456 31.507 138.657 31.9924 138.657 32.4984C138.657 32.75 138.607 32.9991 138.511 33.2314C138.414 33.4637 138.272 33.6746 138.094 33.8519C137.916 34.0293 137.704 34.1696 137.471 34.2648C137.238 34.3599 136.989 34.4081 136.737 34.4065Z" fill="#EBEBEB"/>
<path d="M113.81 101.733L106.28 109.72C106.171 109.811 106.04 109.87 105.9 109.891C105.76 109.913 105.618 109.896 105.487 109.842C105.356 109.788 105.243 109.699 105.159 109.586C105.074 109.472 105.023 109.337 105.01 109.197L104.697 106.645L112.377 90.0435L113.81 101.733Z" fill="#E0E0E0"/>
<path d="M118.734 101.739L128.226 109.726C128.321 109.829 128.445 109.898 128.582 109.926C128.719 109.953 128.861 109.936 128.987 109.878C129.114 109.82 129.219 109.724 129.288 109.602C129.357 109.481 129.385 109.341 129.37 109.203L129.051 106.651L117.301 90.0435L118.734 101.739Z" fill="#E0E0E0"/>
<path d="M119.697 109.558H114.768L115.141 104.634H118.12L119.697 109.558Z" fill="#E0E0E0"/>
<path d="M115.218 73.0262L112.666 52.2177C112.504 50.8574 110.12 40.426 108.76 40.426C107.4 40.426 107.556 50.8574 107.743 52.2177L110.295 73.0262C109.926 78.0505 109.892 83.0937 110.192 88.1225L112.269 105.073H121.093L119.017 88.1164C118.066 83.0123 116.797 77.9724 115.218 73.0262Z" fill="#EBEBEB"/>
<path d="M133.656 111.346L131.219 111.34L131.297 108.053H132.772L133.656 111.346Z" fill="#E0E0E0"/>
<path d="M129.924 108.835L127.859 91.9812C127.703 90.7172 127.504 81.0142 128.72 81.0142C129.936 81.0142 132.115 90.7172 132.271 91.9812L134.336 108.835H129.924Z" fill="#E0E0E0"/>
<path d="M103.571 111.34H101.127L101.205 108.047H102.686L103.571 111.34Z" fill="#E0E0E0"/>
<path d="M99.8395 108.829L97.7749 91.9756C97.6184 90.7116 97.4138 81.0085 98.6357 81.0085C99.8576 81.0085 102.031 90.7116 102.181 91.9756L104.246 108.829H99.8395Z" fill="#E0E0E0"/>
<path d="M106.995 60.1573L105.087 57.4306L104.75 53.4158H86.0244L86.4698 58.7428H104.594L106.995 60.1573Z" fill="#E0E0E0"/>
<path d="M117.26 74.6038L119.168 71.8771L119.505 67.8623H138.225L137.779 73.1893H119.662L117.26 74.6038Z" fill="#E0E0E0"/>
<path d="M206.031 217.003C270.487 217.003 322.739 213.952 322.739 210.189C322.739 206.426 270.487 203.375 206.031 203.375C141.574 203.375 89.3219 206.426 89.3219 210.189C89.3219 213.952 141.574 217.003 206.031 217.003Z" fill="#F5F5F5"/>
<path d="M234.922 144.451C234.922 144.451 247.195 139.443 273.391 149.182L271.08 124.847L272.97 104.67L249.663 99.8125L242.567 121.446L234.922 144.451Z" fill="#016CDE"/>
<path opacity="0.5" d="M234.922 144.451C234.922 144.451 247.195 139.443 273.391 149.182L271.08 124.847L272.97 104.67L249.663 99.8125L242.567 121.446L234.922 144.451Z" fill="white"/>
<path d="M259.168 69.3249C257.759 71.4637 256.329 73.5905 254.876 75.7052L250.518 82.0254C249.808 83.0788 249.074 84.1201 248.393 85.1554C247.893 85.9136 247.284 86.5949 246.588 87.1779C245.755 87.8869 244.75 88.3643 243.674 88.5623C242.632 88.7351 241.562 88.627 240.574 88.2493C239.77 87.9362 239.02 87.4974 238.353 86.9492C237.761 86.4686 237.221 85.928 236.74 85.336C236.269 84.7704 235.846 84.1664 235.476 83.5303L237.884 81.6823C238.293 81.9953 238.781 82.3926 239.244 82.6876C239.691 82.9851 240.16 83.2487 240.647 83.4761C241.038 83.6637 241.456 83.7876 241.887 83.8433C242.13 83.8905 242.382 83.8478 242.597 83.7229C242.766 83.6019 242.917 83.4557 243.042 83.2895C243.268 82.9767 243.47 82.6466 243.644 82.3023C244.3 81.1406 244.95 80.015 245.631 78.9015C246.979 76.6804 248.357 74.4954 249.76 72.3285C251.162 70.1615 252.601 68.0247 254.088 65.8999L259.168 69.3249Z" fill="#957573"/>
<path d="M238.245 82.1162L234.862 78.3481L233.267 83.2659C233.267 83.2659 235.904 85.9504 237.216 84.247L238.245 82.1162Z" fill="#957573"/>
<path d="M230.347 77.3728L230.414 82.0678L233.267 83.2656L234.862 78.3479L230.347 77.3728Z" fill="#957573"/>
<path d="M257.091 62.6615C251.505 65.3942 243.397 80.8275 242.422 82.7537C242.037 83.5121 239.13 81.911 239.13 81.911L236.722 86.2148C236.722 86.2148 239.425 90.043 243.945 89.417C248.466 88.791 250.705 83.9395 252.011 81.4174C253.034 79.4551 255.243 75.6329 256.327 73.7008C257.651 71.287 261.931 60.2959 257.091 62.6615Z" fill="#016CDE"/>
<path opacity="0.7" d="M257.091 62.6615C251.505 65.3942 243.397 80.8275 242.422 82.7537C242.037 83.5121 239.13 81.911 239.13 81.911L236.722 86.2148C236.722 86.2148 239.425 90.043 243.945 89.417C248.466 88.791 250.705 83.9395 252.011 81.4174C253.034 79.4551 255.243 75.6329 256.327 73.7008C257.651 71.287 261.931 60.2959 257.091 62.6615Z" fill="white"/>
<path opacity="0.2" d="M250.115 84.7881C250.793 83.6965 251.416 82.5715 251.981 81.4174C252.806 79.8343 254.389 77.0233 255.593 74.9888L256.002 68.5844L254.991 67.3203C247.743 79.9788 248.911 83.9033 250.115 84.7881Z" fill="black"/>
<path d="M236.312 205.018L232.141 203.658L234.735 193.816L238.907 195.171L236.312 205.018Z" fill="#957573"/>
<path d="M232.075 203.105L236.764 204.628C236.804 204.638 236.841 204.656 236.874 204.682C236.907 204.707 236.934 204.738 236.954 204.774C236.974 204.81 236.987 204.85 236.992 204.891C236.996 204.932 236.993 204.973 236.981 205.013L236.006 208.799C235.943 208.994 235.807 209.157 235.625 209.251C235.444 209.346 235.232 209.365 235.037 209.305C233.411 208.745 232.665 208.396 230.6 207.728C229.33 207.318 223.895 205.699 222.143 205.127C220.392 204.555 221.006 202.846 221.794 202.93C225.352 203.303 229.794 203.671 231.275 203.129C231.532 203.034 231.813 203.026 232.075 203.105Z" fill="#263238"/>
<path opacity="0.2" d="M238.907 195.177L234.73 193.823L233.393 198.897L237.571 200.251L238.907 195.177Z" fill="black"/>
<path d="M249.08 95.533C249.08 95.533 243.151 131.252 241.399 143.688C239.473 157.333 231.919 197.26 231.919 197.26L239.666 199.396C239.666 199.396 250.729 160.722 253.865 147.462C257.272 133.064 264.766 95.521 264.766 95.521L249.08 95.533Z" fill="#016CDE"/>
<path opacity="0.3" d="M258.597 110.184C255.587 117.75 255.22 130.619 256.454 135.898C258.314 127.237 260.444 116.877 262.082 108.812C261.498 106.753 260.438 105.579 258.597 110.184Z" fill="black"/>
<path d="M239.858 199.565L231.563 197.278L231.726 193.901L241.067 197.127L239.858 199.565Z" fill="#016CDE"/>
<path d="M229.649 202.882C229.606 202.791 229.587 202.69 229.596 202.589C229.604 202.489 229.639 202.392 229.697 202.31C229.73 202.253 229.776 202.205 229.832 202.17C229.887 202.135 229.951 202.115 230.016 202.111C230.588 202.075 231.509 203.267 231.612 203.4C231.623 203.416 231.629 203.436 231.629 203.457C231.629 203.477 231.623 203.497 231.612 203.514C231.602 203.531 231.588 203.545 231.571 203.555C231.554 203.565 231.535 203.569 231.515 203.568C231.121 203.537 230.732 203.465 230.354 203.351C230.07 203.285 229.819 203.118 229.649 202.882ZM230.029 202.316C229.996 202.317 229.964 202.327 229.936 202.345C229.908 202.363 229.886 202.389 229.872 202.418C229.833 202.47 229.808 202.532 229.8 202.596C229.793 202.661 229.803 202.726 229.83 202.786C229.962 203.044 230.504 203.243 231.299 203.339C230.913 202.87 230.335 202.298 230.029 202.316Z" fill="#016CDE"/>
<path d="M231.455 203.532C231.118 203.146 230.781 202.075 231.022 201.654C231.066 201.577 231.134 201.518 231.216 201.485C231.298 201.452 231.389 201.448 231.473 201.473C231.551 201.486 231.625 201.516 231.688 201.562C231.752 201.608 231.804 201.668 231.841 201.738C232.129 202.286 231.648 203.453 231.624 203.502C231.618 203.518 231.608 203.533 231.594 203.543C231.58 203.554 231.563 203.56 231.546 203.562H231.497C231.481 203.555 231.467 203.545 231.455 203.532ZM231.455 201.672C231.311 201.642 231.257 201.672 231.227 201.75C231.129 202.27 231.237 202.807 231.528 203.249C231.73 202.806 231.784 202.31 231.684 201.834C231.645 201.763 231.581 201.709 231.503 201.684L231.455 201.672Z" fill="#016CDE"/>
<path d="M269.732 206.938H265.344L264.772 196.772H269.16L269.732 206.938Z" fill="#957573"/>
<path d="M265.115 206.427H270.045C270.127 206.425 270.207 206.456 270.268 206.512C270.329 206.568 270.365 206.645 270.37 206.728L270.605 210.628C270.605 210.833 270.525 211.029 270.382 211.175C270.239 211.322 270.045 211.406 269.84 211.411C268.125 211.381 267.3 211.278 265.133 211.278C263.803 211.278 258.127 211.417 256.285 211.417C254.443 211.417 254.479 209.611 255.28 209.43C258.777 208.69 263.105 207.673 264.357 206.698C264.572 206.526 264.839 206.431 265.115 206.427Z" fill="#263238"/>
<path opacity="0.2" d="M269.16 196.778H264.772L265.067 202.015H269.461L269.16 196.778Z" fill="black"/>
<path d="M257.652 95.3044C257.652 95.3044 257.79 128.844 258.506 141.406C259.283 155.167 263.213 200.745 263.213 200.745H271.255C271.255 200.745 271.015 156.274 271.496 142.652C272.026 127.863 273.386 95.2983 273.386 95.2983L257.652 95.3044Z" fill="#016CDE"/>
<path d="M271.55 200.751H262.864L262.383 197.699L271.965 198.174L271.55 200.751Z" fill="#016CDE"/>
<path d="M262.731 206.963C262.665 206.887 262.619 206.797 262.597 206.699C262.575 206.601 262.578 206.499 262.605 206.403C262.617 206.338 262.646 206.278 262.688 206.227C262.73 206.177 262.784 206.138 262.846 206.114C263.381 205.903 264.621 206.752 264.76 206.854C264.777 206.865 264.79 206.881 264.797 206.899C264.805 206.917 264.806 206.937 264.802 206.957C264.799 206.976 264.789 206.994 264.775 207.008C264.761 207.022 264.743 207.032 264.724 207.035C264.341 207.129 263.95 207.181 263.556 207.191C263.262 207.219 262.969 207.137 262.731 206.963ZM262.918 206.307C262.888 206.318 262.861 206.338 262.841 206.363C262.821 206.389 262.808 206.419 262.804 206.451C262.782 206.512 262.778 206.578 262.79 206.642C262.803 206.705 262.833 206.764 262.876 206.812C263.081 207.017 263.658 207.041 264.447 206.884C263.935 206.565 263.213 206.192 262.918 206.307Z" fill="#016CDE"/>
<path d="M264.651 207.023C264.212 206.764 263.562 205.849 263.658 205.368C263.678 205.283 263.725 205.206 263.793 205.151C263.86 205.095 263.944 205.064 264.031 205.061C264.11 205.048 264.19 205.054 264.265 205.078C264.34 205.102 264.409 205.143 264.465 205.199C264.91 205.626 264.808 206.89 264.802 206.945C264.802 206.962 264.797 206.98 264.788 206.995C264.778 207.01 264.764 207.022 264.748 207.029H264.706C264.687 207.033 264.668 207.03 264.651 207.023ZM264.05 205.259C263.899 205.259 263.869 205.35 263.857 205.41C263.791 205.723 264.224 206.421 264.603 206.74C264.659 206.258 264.557 205.77 264.314 205.35C264.286 205.32 264.253 205.297 264.215 205.282C264.178 205.266 264.138 205.259 264.098 205.259H264.05Z" fill="#016CDE"/>
<path d="M282.276 67.5311C280.353 72.2632 278.785 77.1323 277.587 82.0977C276.732 85.5588 276.07 88.8874 275.54 91.909C274.3 98.9997 273.801 104.465 273.367 106.283L249.369 101.425C249.194 75.1515 257.097 62.6616 257.097 62.6616C259.056 62.5528 261.021 62.5669 262.978 62.7037C263.393 62.7037 263.809 62.7699 264.236 62.8181C267.684 63.3101 271.1 63.9994 274.469 64.8827C275.107 65.0452 275.751 65.2258 276.371 65.4124C279.519 66.3634 282.276 67.5311 282.276 67.5311Z" fill="#016CDE"/>
<path opacity="0.7" d="M282.276 67.5311C280.353 72.2632 278.785 77.1323 277.587 82.0977C276.732 85.5588 276.07 88.8874 275.54 91.909C274.3 98.9997 273.801 104.465 273.367 106.283L249.369 101.425C249.194 75.1515 257.097 62.6616 257.097 62.6616C259.056 62.5528 261.021 62.5669 262.978 62.7037C263.393 62.7037 263.809 62.7699 264.236 62.8181C267.684 63.3101 271.1 63.9994 274.469 64.8827C275.107 65.0452 275.751 65.2258 276.371 65.4124C279.519 66.3634 282.276 67.5311 282.276 67.5311Z" fill="white"/>
<path d="M264.742 67.7476C263.803 69.4269 262.509 70.7211 260.89 75.2536C260.992 76.2889 261.143 77.3302 261.341 78.3896C262.082 77.5409 262.864 76.6982 263.677 75.8615C264.881 71.4193 264.634 70.1432 265.699 67.9763L264.742 67.7476Z" fill="#016CDE"/>
<path d="M264.519 69.2102L264.128 66.7845L265.891 66.4053L266.963 67.3924L264.519 69.2102Z" fill="#016CDE"/>
<path d="M276.341 65.4124C270.818 69.094 265.779 73.4539 261.341 78.3899C260.294 72.792 260.547 67.5552 262.412 62.6676C260.64 62.5685 258.864 62.5685 257.091 62.6676C257.091 62.6676 249.188 75.1515 249.369 101.425L273.373 106.283C273.807 104.477 274.306 98.9997 275.546 91.9091C276.076 88.8995 276.75 85.5588 277.593 82.0977C278.791 77.1323 280.359 72.2633 282.282 67.5312C282.282 67.5312 279.519 66.3634 276.341 65.4124Z" fill="#263238"/>
<path d="M275.637 53.1809C274.361 56.335 272.561 62.2098 274.433 64.8823C273.216 65.7338 271.829 66.3123 270.367 66.5782C268.905 66.8442 267.403 66.7913 265.964 66.4232C263.153 65.7852 263.388 63.7808 264.231 62.8117C268.059 62.6793 268.486 59.9405 268.342 57.2559L275.637 53.1809Z" fill="#957573"/>
<path d="M265.891 66.4055C265.891 66.4055 266.68 67.9886 267.661 69.5957C269.72 68.9938 274.613 67.2843 274.962 64.7803C274.814 64.2232 274.481 63.733 274.017 63.3899C271.489 64.8257 268.745 65.844 265.891 66.4055Z" fill="white"/>
<path d="M265.892 66.4056C264.801 66.9881 263.798 67.7216 262.912 68.5845C261.775 67.3807 263.514 62.9926 264.116 62.5954C264.723 62.319 265.401 62.241 266.054 62.3727C266.054 62.3727 263.875 65.4244 265.892 66.4056Z" fill="white"/>
<path opacity="0.2" d="M272.657 54.8481L268.342 57.2558C268.399 57.8805 268.399 58.5092 268.342 59.1338C269.78 59.2121 271.995 58.0684 272.423 56.6298C272.609 56.0553 272.689 55.4514 272.657 54.8481Z" fill="black"/>
<path d="M267.306 41.7564C266.06 43.1227 264.808 46.5296 267.535 46.5055C270.262 46.4815 269.449 39.4269 267.306 41.7564Z" fill="#263238"/>
<path d="M277.803 49.2806C276.136 53.494 275.396 56.0522 272.482 57.5329C268.13 59.754 263.453 55.998 263.845 51.3512C264.182 47.1738 266.854 40.974 271.622 40.6791C272.677 40.6147 273.732 40.819 274.688 41.2728C275.644 41.7266 276.468 42.4151 277.086 43.2741C277.703 44.1331 278.093 45.1346 278.218 46.1849C278.344 47.2353 278.201 48.3003 277.803 49.2806Z" fill="#957573"/>
<path d="M270.888 48.2872C270.774 48.6364 270.497 48.8591 270.286 48.7808C270.075 48.7026 269.967 48.3595 270.081 48.0103C270.196 47.6612 270.473 47.4084 270.683 47.5107C270.894 47.6131 271.002 47.9381 270.888 48.2872Z" fill="#263238"/>
<path d="M266.933 46.9509C266.819 47.3061 266.542 47.5228 266.331 47.4505C266.121 47.3783 266.006 47.0231 266.121 46.674C266.235 46.3249 266.518 46.1022 266.723 46.1805C266.927 46.2587 267.048 46.6018 266.933 46.9509Z" fill="#263238"/>
<path d="M267.631 52.6693C267.474 52.6398 267.319 52.5996 267.168 52.5489C267.14 52.5393 267.118 52.5197 267.104 52.494C267.091 52.4683 267.088 52.4384 267.095 52.4105C267.1 52.3965 267.106 52.3835 267.116 52.3722C267.125 52.3609 267.136 52.3517 267.149 52.3449C267.162 52.3382 267.176 52.3341 267.191 52.333C267.205 52.3318 267.22 52.3336 267.234 52.3383C267.658 52.4997 268.115 52.5594 268.566 52.5123C269.018 52.4653 269.452 52.3129 269.834 52.0674C269.844 52.057 269.855 52.0487 269.868 52.043C269.881 52.0374 269.895 52.0344 269.909 52.0344C269.924 52.0344 269.938 52.0374 269.951 52.043C269.963 52.0487 269.975 52.057 269.985 52.0674C270.004 52.0876 270.015 52.1146 270.015 52.1426C270.015 52.1707 270.004 52.1977 269.985 52.2179C269.644 52.4503 269.26 52.6103 268.855 52.6879C268.45 52.7656 268.033 52.7593 267.631 52.6693Z" fill="#263238"/>
<path d="M272.526 47.4208C272.489 47.4121 272.454 47.3943 272.426 47.3691C272.398 47.3439 272.376 47.312 272.363 47.2763C272.284 47.0141 272.143 46.7747 271.952 46.5779C271.762 46.3811 271.527 46.2325 271.268 46.1447C271.212 46.1292 271.165 46.093 271.136 46.0436C271.107 45.9943 271.098 45.9356 271.111 45.8798C271.118 45.8521 271.13 45.8261 271.148 45.8032C271.165 45.7803 271.186 45.761 271.211 45.7464C271.235 45.7319 271.263 45.7224 271.291 45.7184C271.319 45.7144 271.348 45.7161 271.376 45.7233C271.705 45.8297 272.004 46.0138 272.247 46.26C272.49 46.5062 272.67 46.8073 272.772 47.1379C272.79 47.1914 272.786 47.2496 272.761 47.3001C272.736 47.3507 272.693 47.3896 272.64 47.4087C272.603 47.4217 272.564 47.4258 272.526 47.4208Z" fill="#263238"/>
<path d="M265.675 45.0128C265.636 45.008 265.598 44.992 265.567 44.9668C265.536 44.9416 265.513 44.9081 265.501 44.8703C265.488 44.8324 265.487 44.7918 265.496 44.7531C265.506 44.7144 265.526 44.6792 265.555 44.6516C265.788 44.3994 266.08 44.2074 266.403 44.0922C266.727 43.9769 267.074 43.9416 267.415 43.9895C267.471 44.0007 267.521 44.0339 267.554 44.0819C267.586 44.1299 267.597 44.1887 267.586 44.2453C267.575 44.302 267.542 44.3519 267.494 44.3841C267.446 44.4162 267.387 44.428 267.33 44.4169C267.061 44.3798 266.787 44.4093 266.532 44.5027C266.277 44.5961 266.049 44.7505 265.868 44.9526C265.844 44.9789 265.814 44.9984 265.78 45.009C265.746 45.0195 265.71 45.0209 265.675 45.0128Z" fill="#263238"/>
<path d="M276.763 65.1294C276.763 65.1294 263.689 75.9281 263.291 100.824C262.894 125.72 265.819 150.471 265.819 150.471H276.113C276.113 150.471 270.093 138.511 273.849 107.174C277.605 75.8378 283.51 67.8802 283.51 67.8802L276.763 65.1294Z" fill="#016CDE"/>
<path opacity="0.7" d="M276.763 65.1294C276.763 65.1294 263.689 75.9281 263.291 100.824C262.894 125.72 265.819 150.471 265.819 150.471H276.113C276.113 150.471 270.093 138.511 273.849 107.174C277.605 75.8378 283.51 67.8802 283.51 67.8802L276.763 65.1294Z" fill="white"/>
<path opacity="0.2" d="M274.843 91.8493L269.233 88.7253L267.427 89.9894C269.175 93.5306 271.759 96.5924 274.957 98.9099C275.306 96.5805 275.667 94.4195 276.035 92.4091L274.843 91.8493Z" fill="black"/>
<path opacity="0.2" d="M280.519 74.5013L279.634 69.9929H277.876L277.13 73.8874C277.671 77.0185 277.945 80.1901 277.949 83.3677C278.863 79.6357 279.73 76.7465 280.519 74.5013Z" fill="black"/>
<path d="M262.334 62.541C262.334 62.541 258.241 66.1225 255.875 82.4048C253.51 98.687 241.652 124.678 236.728 146.854L232.635 145.186C232.635 145.186 237.48 133.226 243.879 115.144C250.277 97.0618 248.604 94.01 250.091 83.3498C251.577 72.6896 256.856 62.4868 256.856 62.4868L262.334 62.541Z" fill="#016CDE"/>
<path opacity="0.7" d="M262.334 62.541C262.334 62.541 258.241 66.1225 255.875 82.4048C253.51 98.687 241.652 124.678 236.728 146.854L232.635 145.186C232.635 145.186 237.48 133.226 243.879 115.144C250.277 97.0618 248.604 94.01 250.091 83.3498C251.577 72.6896 256.856 62.4868 256.856 62.4868L262.334 62.541Z" fill="white"/>
<path d="M272.953 47.6311L269.546 46.5295C269.496 46.5204 269.445 46.5204 269.395 46.5295C269.291 46.5297 269.189 46.5629 269.105 46.6246C269.02 46.6863 268.958 46.7731 268.926 46.8726C268.794 46.7509 268.638 46.6589 268.468 46.6029C268.297 46.5468 268.117 46.5279 267.939 46.5476C267.971 46.4255 267.957 46.2955 267.898 46.1838C267.838 46.0721 267.739 45.987 267.62 45.9457L265.019 45.0548C264.97 45.0462 264.919 45.0462 264.869 45.0548C264.764 45.0546 264.661 45.0877 264.575 45.1493C264.49 45.2109 264.426 45.2979 264.393 45.3979L263.864 47.0291C263.831 47.1512 263.845 47.2812 263.905 47.3929C263.964 47.5046 264.063 47.5897 264.183 47.6311L266.801 48.4798C266.851 48.488 266.902 48.488 266.951 48.4798C267.057 48.48 267.159 48.4469 267.245 48.3853C267.33 48.3237 267.394 48.2367 267.427 48.1367L267.854 46.8185C268.031 46.7734 268.217 46.7782 268.391 46.8324C268.566 46.8866 268.721 46.988 268.842 47.1254L268.414 48.4557C268.38 48.5778 268.394 48.7084 268.453 48.8205C268.513 48.9326 268.613 49.0175 268.733 49.0576L272.134 50.1652C272.184 50.1709 272.235 50.1709 272.285 50.1652C272.389 50.1641 272.49 50.1305 272.574 50.069C272.659 50.0074 272.721 49.9211 272.754 49.8221L273.29 48.1848C273.309 48.0675 273.285 47.9473 273.223 47.8458C273.161 47.7444 273.066 47.6682 272.953 47.6311ZM267.132 48.0765C267.117 48.1172 267.09 48.1523 267.055 48.1771C267.019 48.2019 266.977 48.2151 266.933 48.2149H266.873L264.255 47.3602C264.229 47.353 264.204 47.3401 264.183 47.3224C264.162 47.3047 264.146 47.2827 264.134 47.2579C264.124 47.2331 264.118 47.2065 264.118 47.1796C264.118 47.1527 264.124 47.1261 264.134 47.1014L264.664 45.4641C264.679 45.4234 264.706 45.3883 264.742 45.3635C264.777 45.3388 264.819 45.3255 264.863 45.3257H264.923L267.541 46.1804C267.568 46.1863 267.593 46.1988 267.614 46.2166C267.635 46.2344 267.652 46.2572 267.662 46.2828C267.672 46.3075 267.678 46.3341 267.678 46.361C267.678 46.3879 267.672 46.4145 267.662 46.4392L267.132 48.0765ZM272.995 48.1668L272.465 49.804C272.45 49.8447 272.423 49.8798 272.388 49.9046C272.352 49.9294 272.31 49.9426 272.266 49.9424H272.206L268.799 48.8349C268.774 48.8267 268.75 48.8135 268.729 48.796C268.708 48.7785 268.692 48.7572 268.679 48.7331C268.667 48.709 268.659 48.6828 268.657 48.6558C268.655 48.6289 268.659 48.6018 268.667 48.5761L269.203 46.9449C269.215 46.9035 269.241 46.8673 269.275 46.8413C269.31 46.8154 269.352 46.801 269.395 46.8004C269.417 46.7948 269.44 46.7948 269.461 46.8004L272.862 47.9019C272.889 47.9101 272.913 47.9235 272.934 47.9414C272.956 47.9593 272.973 47.9813 272.985 48.006C272.998 48.0308 273.005 48.0578 273.006 48.0854C273.008 48.113 273.004 48.1407 272.995 48.1668Z" fill="#263238"/>
<path d="M258.031 87.2563L256.869 87.5693L257.182 86.4076L263.887 79.7021C264 79.59 264.153 79.5271 264.312 79.5271C264.471 79.5271 264.623 79.59 264.736 79.7021C264.848 79.8149 264.911 79.9675 264.911 80.1265C264.911 80.2855 264.848 80.4381 264.736 80.5509L258.031 87.2563Z" fill="#263238"/>
<path opacity="0.8" d="M258.031 87.2563L256.869 87.5693L257.182 86.4076L263.887 79.7021C264 79.59 264.153 79.5271 264.312 79.5271C264.471 79.5271 264.623 79.59 264.736 79.7021C264.848 79.8149 264.911 79.9675 264.911 80.1265C264.911 80.2855 264.848 80.4381 264.736 80.5509L258.031 87.2563Z" fill="white"/>
<path opacity="0.2" d="M263.887 79.7021L257.194 86.4075L256.881 87.5692L264.748 79.7021C264.692 79.6448 264.625 79.5992 264.551 79.5681C264.477 79.537 264.398 79.521 264.318 79.521C264.238 79.521 264.158 79.537 264.084 79.5681C264.01 79.5992 263.943 79.6448 263.887 79.7021Z" fill="black"/>
<path d="M263.229 80.359L262.889 80.6995L263.736 81.5465L264.076 81.2059L263.229 80.359Z" fill="#016CDE"/>
<path d="M267.426 85.6914L264.164 82.3928L262.13 87.9064C262.13 87.9064 265.53 90.0854 266.879 88.394L267.426 85.6914Z" fill="#957573"/>
<path d="M260.397 81.9111L258.928 86.5399L262.136 87.9063L264.171 82.3927L260.397 81.9111Z" fill="#957573"/>
<path d="M286.73 87.4669C286.654 85.6535 286.483 83.8453 286.219 82.0496C285.704 78.545 284.974 75.0754 284.034 71.6604L278.129 73.2555C278.917 76.4397 279.652 79.7623 280.217 82.9946C280.5 84.6138 280.729 86.233 280.868 87.81C280.934 88.5925 280.97 89.363 280.958 90.0853C280.96 90.6747 280.908 91.2631 280.801 91.8429C280.511 91.8181 280.224 91.7718 279.941 91.7045C278.449 91.314 276.997 90.7819 275.607 90.1154C274.12 89.4412 272.633 88.6768 271.152 87.8883C269.672 87.0997 268.179 86.257 266.734 85.4324L264.929 87.8702C267.575 90.2284 270.425 92.3475 273.446 94.2024C275.051 95.2095 276.763 96.0352 278.55 96.6643C279.076 96.8418 279.616 96.9766 280.163 97.0676C280.853 97.1922 281.557 97.2084 282.252 97.1158C282.718 97.0406 283.171 96.9029 283.6 96.7065C284.114 96.4633 284.577 96.1265 284.967 95.7133C285.298 95.3409 285.572 94.9209 285.779 94.4673C285.922 94.1649 286.045 93.8532 286.146 93.5343C286.465 92.4898 286.657 91.4105 286.718 90.32C286.76 89.3449 286.76 88.3939 286.73 87.4669Z" fill="#957573"/>
<path d="M266.584 89.9888L268.811 86.2268C268.811 86.2268 278.34 91.3071 280.073 90.9579C280.073 90.9579 281.879 89.3568 276.877 73.0808C276.359 71.3954 276.528 67.7598 281.361 67.4408C286.682 67.0917 287.098 78.7389 287.513 84.8966C287.928 91.0542 288.001 98.7408 280.892 98.0306C273.783 97.3203 266.584 89.9888 266.584 89.9888Z" fill="#016CDE"/>
<path opacity="0.7" d="M266.584 89.9888L268.811 86.2268C268.811 86.2268 278.34 91.3071 280.073 90.9579C280.073 90.9579 281.879 89.3568 276.877 73.0808C276.359 71.3954 276.528 67.7598 281.361 67.4408C286.682 67.0917 287.098 78.7389 287.513 84.8966C287.928 91.0542 288.001 98.7408 280.892 98.0306C273.783 97.3203 266.584 89.9888 266.584 89.9888Z" fill="white"/>
<path d="M252.607 92.7878H237.691L230.131 72.0034H242.838L252.607 92.7878Z" fill="#263238"/>
<path opacity="0.6" d="M252.607 92.7878H237.691L230.131 72.0034H242.838L252.607 92.7878Z" fill="white"/>
<path d="M251.481 94.5576H237.42L229.047 71.5581H243.114L251.481 94.5576Z" fill="#016CDE"/>
<path d="M233.261 71.0283L233.785 72.4669C233.884 72.7397 234.065 72.9751 234.303 73.141C234.541 73.3069 234.825 73.3952 235.115 73.3939H239.045C239.148 73.3952 239.249 73.3717 239.34 73.3253C239.431 73.2789 239.51 73.211 239.569 73.1275C239.628 73.0441 239.666 72.9474 239.68 72.846C239.694 72.7445 239.682 72.6413 239.647 72.5452L239.094 71.0283H233.261Z" fill="#263238"/>
<path d="M232.707 71.0283L233.231 72.4669C233.33 72.7387 233.51 72.9734 233.747 73.1393C233.984 73.3051 234.266 73.394 234.555 73.3939H238.492C238.594 73.3952 238.695 73.3717 238.786 73.3253C238.878 73.2789 238.956 73.211 239.015 73.1275C239.075 73.0441 239.113 72.9474 239.126 72.846C239.14 72.7445 239.129 72.6413 239.094 72.5452L238.534 71.0283H232.707Z" fill="#016CDE"/>
<path opacity="0.5" d="M232.707 71.0283L233.231 72.4669C233.33 72.7387 233.51 72.9734 233.747 73.1393C233.984 73.3051 234.266 73.394 234.555 73.3939H238.492C238.594 73.3952 238.695 73.3717 238.786 73.3253C238.878 73.2789 238.956 73.211 239.015 73.1275C239.075 73.0441 239.113 72.9474 239.126 72.846C239.14 72.7445 239.129 72.6413 239.094 72.5452L238.534 71.0283H232.707Z" fill="black"/>
<path d="M275.733 51.3451C275.445 50.3227 275.421 49.2439 275.664 48.21C275.908 47.176 276.41 46.2208 277.123 45.4342C277.123 45.4342 270.051 45.6087 270.502 43.49C270.502 43.49 263.989 41.8347 265.717 38.7649C267.005 36.4655 268.895 38.3074 268.895 38.3074C268.895 38.3074 268.781 35.9599 271.062 35.665C273.47 35.352 273.813 37.2661 273.813 37.2661C273.813 37.2661 275.703 35.665 277.774 36.5739C278.29 36.7869 278.704 37.1918 278.929 37.7036C279.153 38.2154 279.171 38.7943 278.977 39.3186C278.977 39.3186 281.752 39.4932 282.625 41.5397C282.856 42.0591 282.951 42.6283 282.903 43.1945C282.854 43.7607 282.664 44.3054 282.348 44.7781C282.348 44.7781 284.437 45.2596 283.739 47.7877C283.654 48.2792 283.411 48.7295 283.047 49.0706C282.683 49.4117 282.218 49.6248 281.722 49.6777C281.798 50.3021 281.674 50.9344 281.368 51.4838C281.062 52.0333 280.59 52.4715 280.019 52.7355C277.9 53.7046 275.733 51.3451 275.733 51.3451Z" fill="#263238"/>
<path d="M278.292 53.4097C277.964 53.8678 277.549 54.2556 277.069 54.5502C276.589 54.8448 276.055 55.0404 275.499 55.1252C274.006 55.3419 273.434 53.9214 274 52.6393C274.506 51.4354 275.896 49.9126 277.323 50.2918C277.632 50.3832 277.915 50.5496 278.145 50.7763C278.375 51.003 278.546 51.2831 278.641 51.5915C278.737 51.8999 278.755 52.2273 278.695 52.5445C278.634 52.8616 278.495 53.1589 278.292 53.4097Z" fill="#957573"/>
<path d="M271.376 51.8387C270.918 50.4182 267.818 51.4896 267.818 51.4896C265.711 50.4543 265.705 51.0923 265.711 51.616C265.711 53.3014 265.844 57.4005 268.86 57.5811C271.875 57.7617 271.839 53.2713 271.376 51.8387ZM269.943 56.0522C268.685 56.9972 268.697 53.506 268.697 53.506L267.427 53.2171C267.427 53.2171 268.727 55.4382 267.668 56.0281C266.608 56.618 266.277 51.6943 266.277 51.6943C266.739 51.9284 267.252 52.0442 267.77 52.0313C269.112 52.7236 269.66 51.5618 270.304 52.0313C270.948 52.5008 271.207 55.0771 269.943 56.0341V56.0522Z" fill="#263238"/>
<path d="M192.721 89.0442H186.479C184.483 89.0426 182.568 89.8336 181.155 91.2433C179.742 92.653 178.946 94.5662 178.943 96.5622V102.81C178.945 103.903 179.185 104.981 179.645 105.972C180.105 106.962 180.776 107.841 181.61 108.547L177.739 113.037C177.673 113.116 177.634 113.215 177.628 113.318C177.623 113.421 177.651 113.524 177.709 113.609C177.767 113.695 177.851 113.76 177.949 113.793C178.047 113.827 178.153 113.828 178.251 113.795L188.574 110.328H192.703C194.697 110.327 196.609 109.534 198.02 108.125C199.43 106.715 200.224 104.804 200.227 102.81V96.5622C200.224 94.5714 199.433 92.6628 198.026 91.2539C196.619 89.8451 194.712 89.0506 192.721 89.0442ZM197.248 102.81C197.246 104.01 196.769 105.159 195.92 106.007C195.071 106.855 193.921 107.331 192.721 107.331H186.479C185.28 107.331 184.13 106.855 183.281 106.007C182.432 105.159 181.955 104.01 181.953 102.81V96.5622C181.955 95.3638 182.431 94.2149 183.279 93.3675C184.126 92.5201 185.275 92.0434 186.473 92.0418H192.715C193.915 92.0418 195.065 92.5178 195.914 93.3654C196.763 94.213 197.24 95.3628 197.242 96.5622L197.248 102.81Z" fill="#407BFF"/>
<path d="M192.005 104.64L189.507 101.028L187.051 104.64H184.301L188.135 99.3792L184.493 94.293H187.214L189.622 97.6517L191.957 94.293H194.545L190.934 99.2889L194.792 104.64H192.005Z" fill="black"/>
<path d="M186.298 40.793H181.284C179.688 40.793 178.157 41.4272 177.028 42.556C175.899 43.6848 175.265 45.2158 175.265 46.8122V51.8263C175.266 52.7026 175.458 53.5681 175.828 54.3624C176.199 55.1567 176.738 55.8606 177.408 56.425L174.29 60.0365C174.238 60.0998 174.208 60.1783 174.204 60.2602C174.2 60.3421 174.223 60.423 174.269 60.4908C174.315 60.5586 174.382 60.6097 174.46 60.6363C174.537 60.6629 174.621 60.6636 174.699 60.6384L183 57.8636H186.317C187.107 57.8636 187.89 57.7079 188.62 57.4054C189.35 57.1029 190.014 56.6595 190.573 56.1006C191.132 55.5416 191.575 54.8781 191.878 54.1478C192.18 53.4175 192.336 52.6348 192.336 51.8443V46.8303C192.338 46.0368 192.184 45.2507 191.881 44.5171C191.579 43.7835 191.134 43.117 190.573 42.556C190.012 41.9949 189.345 41.5503 188.612 41.2477C187.878 40.9451 187.092 40.7906 186.298 40.793ZM189.91 51.8383C189.91 52.7961 189.53 53.7147 188.852 54.392C188.175 55.0693 187.256 55.4498 186.298 55.4498H181.284C180.327 55.4498 179.408 55.0693 178.731 54.392C178.053 53.7147 177.673 52.7961 177.673 51.8383V46.8243C177.673 45.8664 178.053 44.9478 178.731 44.2705C179.408 43.5932 180.327 43.2127 181.284 43.2127H186.298C187.256 43.2127 188.175 43.5932 188.852 44.2705C189.53 44.9478 189.91 45.8664 189.91 46.8243V51.8383Z" fill="#407BFF"/>
<path d="M182.843 53.963C182.713 53.8418 182.61 53.6945 182.54 53.5306C182.471 53.3667 182.437 53.19 182.44 53.012C182.436 52.8363 182.47 52.6618 182.538 52.5C182.607 52.3381 182.709 52.1926 182.837 52.073C183.121 51.8289 183.483 51.6947 183.858 51.6947C184.232 51.6947 184.594 51.8289 184.878 52.073C185.007 52.1926 185.109 52.3381 185.177 52.5C185.245 52.6618 185.279 52.8363 185.275 53.012C185.279 53.19 185.245 53.3667 185.175 53.5306C185.106 53.6945 185.002 53.8418 184.872 53.963C184.738 54.0939 184.578 54.1965 184.404 54.2647C184.229 54.333 184.042 54.3655 183.855 54.3603C183.668 54.3653 183.482 54.3328 183.309 54.2645C183.135 54.1962 182.977 54.0937 182.843 53.963ZM182.482 43.8928H185.233L184.776 50.6464H182.94L182.482 43.8928Z" fill="black"/>
<path d="M113.121 144.313V150.555C113.124 152.55 113.918 154.462 115.328 155.872C116.739 157.282 118.651 158.076 120.645 158.079H124.768L135.116 161.546C135.214 161.582 135.322 161.583 135.422 161.551C135.521 161.518 135.607 161.452 135.665 161.365C135.723 161.278 135.751 161.174 135.743 161.069C135.735 160.964 135.692 160.865 135.621 160.788L131.739 156.292C132.575 155.588 133.246 154.71 133.707 153.719C134.168 152.728 134.406 151.648 134.405 150.555V144.313C134.404 142.319 133.611 140.407 132.202 138.997C130.792 137.586 128.881 136.792 126.887 136.789H120.645C118.651 136.792 116.739 137.586 115.328 138.997C113.918 140.407 113.124 142.319 113.121 144.313ZM116.131 144.313C116.132 143.115 116.609 141.966 117.457 141.119C118.304 140.271 119.453 139.794 120.651 139.793H126.899C128.098 139.794 129.247 140.271 130.094 141.119C130.941 141.966 131.418 143.115 131.42 144.313V150.555C131.42 151.755 130.944 152.905 130.096 153.754C129.248 154.603 128.099 155.08 126.899 155.082H120.645C119.446 155.08 118.296 154.603 117.448 153.754C116.601 152.905 116.125 151.755 116.125 150.555L116.131 144.313Z" fill="#407BFF"/>
<path d="M123.433 147.774C123.731 147.37 124.072 146.999 124.45 146.667C124.71 146.439 124.95 146.19 125.166 145.921C125.317 145.724 125.398 145.482 125.395 145.234C125.401 145.064 125.364 144.896 125.287 144.744C125.21 144.593 125.096 144.463 124.956 144.368C124.612 144.14 124.205 144.028 123.794 144.049C123.375 144.046 122.962 144.145 122.59 144.337C122.23 144.534 121.919 144.81 121.681 145.144L119.875 144.097C120.291 143.465 120.872 142.959 121.555 142.634C122.338 142.27 123.195 142.093 124.059 142.116C125.021 142.068 125.974 142.321 126.785 142.839C127.114 143.059 127.381 143.359 127.561 143.71C127.741 144.062 127.828 144.454 127.815 144.849C127.822 145.214 127.754 145.577 127.616 145.914C127.498 146.199 127.333 146.461 127.129 146.691C126.893 146.947 126.644 147.19 126.382 147.419C126.09 147.668 125.822 147.944 125.582 148.244C125.409 148.477 125.32 148.761 125.329 149.051H123.102C123.08 148.601 123.195 148.156 123.433 147.774ZM123.198 152.367C123.067 152.246 122.963 152.099 122.892 151.935C122.821 151.771 122.786 151.594 122.789 151.416C122.783 151.24 122.816 151.064 122.886 150.902C122.955 150.739 123.06 150.594 123.192 150.477C123.328 150.35 123.488 150.251 123.663 150.186C123.837 150.12 124.023 150.091 124.209 150.098C124.587 150.084 124.955 150.221 125.232 150.477C125.363 150.595 125.467 150.74 125.535 150.902C125.604 151.065 125.636 151.24 125.63 151.416C125.632 151.594 125.597 151.771 125.526 151.935C125.456 152.099 125.352 152.246 125.22 152.367C124.944 152.618 124.583 152.758 124.209 152.758C123.835 152.758 123.475 152.618 123.198 152.367Z" fill="black"/>
<path d="M170.571 207.498L156.359 207.492L159.17 193.281L167.766 193.287L170.571 207.498Z" fill="#263238"/>
<path d="M156.365 184.913L131.806 207.967C131.512 208.243 131.143 208.426 130.745 208.495C130.348 208.564 129.939 208.515 129.568 208.355C129.198 208.194 128.883 207.929 128.661 207.592C128.44 207.254 128.322 206.86 128.321 206.456V199.077L156.365 151.169V184.913Z" fill="#C5C5C5"/>
<path opacity="0.5" d="M156.365 184.913L131.806 207.967C131.512 208.243 131.143 208.426 130.745 208.495C130.348 208.564 129.939 208.515 129.568 208.355C129.198 208.194 128.883 207.929 128.661 207.592C128.44 207.254 128.322 206.86 128.321 206.456V199.077L156.365 151.169V184.913Z" fill="white"/>
<path d="M170.577 184.919L195.123 207.967C195.417 208.243 195.785 208.427 196.182 208.497C196.579 208.566 196.988 208.518 197.358 208.358C197.728 208.198 198.043 207.933 198.264 207.596C198.485 207.259 198.603 206.865 198.603 206.462V199.094L170.577 151.175V184.919Z" fill="#C5C5C5"/>
<path opacity="0.5" d="M170.577 184.919L195.123 207.967C195.417 208.243 195.785 208.427 196.182 208.497C196.579 208.566 196.988 208.518 197.358 208.358C197.728 208.198 198.043 207.933 198.264 207.596C198.485 207.259 198.603 206.865 198.603 206.462V199.094L170.577 151.175V184.919Z" fill="white"/>
<path d="M170.595 102.07V42.0212C170.595 38.0966 167.423 8 163.498 8C159.573 8 156.383 38.0966 156.383 42.0212V102.07C152.988 118.485 150.749 141.238 150.749 145.638V194.557H176.211V145.638C176.211 141.244 173.984 118.491 170.595 102.07Z" fill="#C5C5C5"/>
<path opacity="0.5" d="M170.595 102.07V42.0212C170.595 38.0966 167.423 8 163.498 8C159.573 8 156.383 38.0966 156.383 42.0212V102.07C152.988 118.485 150.749 141.238 150.749 145.638V194.557H176.211V145.638C176.211 141.244 173.984 118.491 170.595 102.07Z" fill="white"/>
<path d="M186.076 212.639H179.034L180.43 203.146H184.686L186.076 212.639Z" fill="#263238"/>
<path d="M176.193 205.403V156.791C176.193 153.144 179.052 125.148 182.567 125.148C186.082 125.148 188.936 153.144 188.936 156.803V205.415L176.193 205.403Z" fill="#C5C5C5"/>
<path opacity="0.2" d="M183.254 125.503C185.414 134.664 186.468 152.698 186.347 155.738L184.403 205.409H188.924V156.797C188.936 153.384 186.45 128.699 183.254 125.503Z" fill="black"/>
<path d="M188.935 158.308H176.205V165.278H188.935V158.308Z" fill="#263238"/>
<path opacity="0.5" d="M188.935 158.308H176.205V165.278H188.935V158.308Z" fill="white"/>
<path d="M147.89 212.633L140.848 212.627L142.244 203.134H146.5L147.89 212.633Z" fill="#263238"/>
<path d="M138.012 205.398V156.803C138.012 153.156 140.872 125.16 144.387 125.16C147.902 125.16 150.743 153.162 150.743 156.81V205.422L138.012 205.398Z" fill="#C5C5C5"/>
<path opacity="0.2" d="M145.067 125.503C147.228 134.67 148.282 152.698 148.161 155.738L146.217 205.409H150.737V156.797C150.75 153.372 148.245 128.693 145.067 125.503Z" fill="black"/>
<path d="M150.749 158.296H138.018V165.267H150.749V158.296Z" fill="#263238"/>
<path opacity="0.5" d="M150.749 158.296H138.018V165.267H150.749V158.296Z" fill="white"/>
<path d="M170.613 45.6265V42.0149C170.613 42.0149 170.613 41.9367 170.613 41.9126H156.408C156.408 41.9427 156.408 41.9969 156.408 42.0209V45.6325L170.613 45.6265Z" fill="#C5C5C5"/>
<path d="M170.601 97.5071H156.389V101.432H170.601V97.5071Z" fill="#C5C5C5"/>
<path d="M156.365 190.602H152.747L154.559 175.759L156.365 175.765V190.602Z" fill="#263238"/>
<path d="M162.047 190.608L158.43 190.602L159.64 175.765H162.054L162.047 190.608Z" fill="#263238"/>
<path d="M167.729 190.608H164.118V175.765H166.532L167.729 190.608Z" fill="#263238"/>
<path d="M173.412 190.608H169.8V175.765H171.612L173.412 190.608Z" fill="#263238"/>
<path d="M158.743 50.731C158.497 50.731 158.261 50.6334 158.088 50.4595C157.914 50.2857 157.816 50.0499 157.816 49.8041V48.7146C157.816 48.5923 157.84 48.4713 157.887 48.3585C157.934 48.2456 158.003 48.1431 158.09 48.057C158.176 47.9708 158.279 47.9027 158.392 47.8564C158.506 47.8102 158.627 47.7868 158.749 47.7876C158.995 47.7876 159.231 47.8853 159.404 48.0591C159.578 48.233 159.676 48.4687 159.676 48.7146V49.8041C159.676 49.9263 159.652 50.0473 159.605 50.1602C159.558 50.273 159.489 50.3755 159.402 50.4617C159.316 50.5478 159.213 50.616 159.1 50.6622C158.986 50.7084 158.865 50.7318 158.743 50.731Z" fill="#263238"/>
<path d="M161.662 50.731C161.416 50.731 161.18 50.6333 161.006 50.4595C160.832 50.2857 160.735 50.0499 160.735 49.804V48.7146C160.735 48.4687 160.832 48.2329 161.006 48.0591C161.18 47.8853 161.416 47.7876 161.662 47.7876C161.908 47.7876 162.143 47.8853 162.317 48.0591C162.491 48.2329 162.589 48.4687 162.589 48.7146V49.804C162.589 50.0499 162.491 50.2857 162.317 50.4595C162.143 50.6333 161.908 50.731 161.662 50.731Z" fill="#263238"/>
<path d="M164.576 50.731C164.33 50.731 164.094 50.6333 163.92 50.4595C163.746 50.2857 163.649 50.0499 163.649 49.804V48.7146C163.649 48.4687 163.746 48.2329 163.92 48.0591C164.094 47.8853 164.33 47.7876 164.576 47.7876C164.821 47.7876 165.057 47.8853 165.231 48.0591C165.405 48.2329 165.502 48.4687 165.502 48.7146V49.804C165.502 50.0499 165.405 50.2857 165.231 50.4595C165.057 50.6333 164.821 50.731 164.576 50.731Z" fill="#263238"/>
<path d="M167.507 50.737C167.385 50.737 167.264 50.7129 167.151 50.6659C167.038 50.6189 166.935 50.5501 166.849 50.4634C166.763 50.3767 166.695 50.2738 166.649 50.1606C166.602 50.0475 166.579 49.9263 166.58 49.804V48.7146C166.58 48.4687 166.678 48.2329 166.851 48.0591C167.025 47.8853 167.261 47.7876 167.507 47.7876C167.753 47.7876 167.988 47.8853 168.162 48.0591C168.336 48.2329 168.434 48.4687 168.434 48.7146V49.8101C168.434 50.0559 168.336 50.2917 168.162 50.4655C167.988 50.6394 167.753 50.737 167.507 50.737Z" fill="#263238"/>
<path d="M158.743 55.5404C158.497 55.5404 158.261 55.4427 158.088 55.2688C157.914 55.095 157.816 54.8592 157.816 54.6134V53.5239C157.816 53.4017 157.84 53.2806 157.887 53.1678C157.934 53.0549 158.003 52.9525 158.09 52.8663C158.176 52.7801 158.279 52.712 158.392 52.6658C158.506 52.6195 158.627 52.5961 158.749 52.5969C158.995 52.5969 159.231 52.6946 159.404 52.8684C159.578 53.0423 159.676 53.2781 159.676 53.5239V54.6134C159.676 54.7356 159.652 54.8567 159.605 54.9695C159.558 55.0824 159.489 55.1848 159.402 55.271C159.316 55.3571 159.213 55.4253 159.1 55.4715C158.986 55.5177 158.865 55.5411 158.743 55.5404Z" fill="#263238"/>
<path d="M161.662 55.5403C161.416 55.5403 161.18 55.4427 161.006 55.2688C160.832 55.095 160.735 54.8592 160.735 54.6134V53.5239C160.735 53.278 160.832 53.0423 161.006 52.8684C161.18 52.6946 161.416 52.5969 161.662 52.5969C161.908 52.5969 162.143 52.6946 162.317 52.8684C162.491 53.0423 162.589 53.278 162.589 53.5239V54.6134C162.589 54.8592 162.491 55.095 162.317 55.2688C162.143 55.4427 161.908 55.5403 161.662 55.5403Z" fill="#263238"/>
<path d="M164.576 55.5403C164.33 55.5403 164.094 55.4427 163.92 55.2688C163.746 55.095 163.649 54.8592 163.649 54.6134V53.5239C163.649 53.278 163.746 53.0423 163.92 52.8684C164.094 52.6946 164.33 52.5969 164.576 52.5969C164.821 52.5969 165.057 52.6946 165.231 52.8684C165.405 53.0423 165.502 53.278 165.502 53.5239V54.6134C165.502 54.8592 165.405 55.095 165.231 55.2688C165.057 55.4427 164.821 55.5403 164.576 55.5403Z" fill="#263238"/>
<path d="M167.507 55.5403C167.261 55.5403 167.025 55.4427 166.851 55.2688C166.677 55.095 166.58 54.8592 166.58 54.6134V53.5239C166.58 53.278 166.677 53.0423 166.851 52.8684C167.025 52.6946 167.261 52.5969 167.507 52.5969C167.753 52.5969 167.988 52.6946 168.162 52.8684C168.336 53.0423 168.434 53.278 168.434 53.5239V54.6134C168.435 54.7353 168.411 54.8562 168.365 54.969C168.319 55.0819 168.25 55.1844 168.164 55.2706C168.078 55.3568 167.975 55.4251 167.862 55.4714C167.75 55.5177 167.629 55.5411 167.507 55.5403Z" fill="#263238"/>
<path d="M150.749 145.638V147.775H176.21V145.668C176.21 144.175 175.946 140.539 175.476 135.784H151.489C151.014 140.509 150.749 144.163 150.749 145.638Z" fill="#C5C5C5"/>
<path opacity="0.2" d="M170.595 102.07V42.021C170.595 38.3191 167.766 11.3224 164.148 8.31274C166.803 16.493 168.199 37.2055 168.085 40.4619L167.555 101.119C170.493 118.25 171.986 141.99 171.823 146.583L170.138 194.575H176.157V145.656C176.211 141.243 173.984 118.49 170.595 102.07Z" fill="black"/>
</svg>
