<svg width="400" height="226" viewBox="0 0 400 226" fill="none" xmlns="http://www.w3.org/2000/svg">
<path d="M72.8486 153.602C76.6633 151.193 78.0537 148.076 78.6843 143.605C78.985 141.363 78.8009 139.082 78.1446 136.917C77.4883 134.752 76.3751 132.753 74.88 131.055C72.3782 128.243 68.8427 126.315 67.0335 123.017C65.1107 119.497 65.395 114.84 62.6296 111.94C60.7274 109.95 57.8432 109.304 55.4861 107.877C53.5633 106.714 52.0126 105.04 50.2707 103.618C48.5287 102.197 46.4353 100.992 44.1868 101.034C40.8012 101.132 38.0151 104.326 37.6998 107.702C37.3845 111.077 39.1213 114.421 41.6023 116.716C43.4011 118.391 45.6496 119.714 46.7713 121.885C48.8906 125.989 46.2234 131.432 48.5184 135.438C50.1931 138.369 54.2042 139.92 54.6384 143.269C54.7935 144.499 54.3903 145.73 54.3438 146.97C54.1887 150.847 57.6674 154.134 61.4511 154.998C65.2348 155.861 69.1787 154.848 72.8228 153.566" fill="#F5F5F5"/>
<path d="M50.8754 115.016C50.9856 115.186 51.1139 115.343 51.2579 115.486L52.426 116.778C52.9429 117.326 53.5684 118.008 54.2403 118.846C54.9123 119.683 55.7393 120.583 56.5302 121.678L57.8069 123.363C58.2515 123.953 58.6598 124.599 59.1147 125.25C60.0347 126.537 60.8928 128 61.8284 129.52C63.7593 132.865 65.4537 136.342 66.8991 139.925C68.2935 143.531 69.4318 147.23 70.3054 150.997C70.6621 152.744 71.0342 154.398 71.241 155.969C71.3547 156.75 71.4943 157.52 71.577 158.238C71.6597 158.957 71.7217 159.67 71.7941 160.342C71.9647 161.681 71.9853 162.927 72.0525 163.96C72.1197 164.994 72.1404 165.956 72.1404 166.71C72.1404 167.465 72.1404 168.002 72.1662 168.447C72.159 168.651 72.1729 168.856 72.2076 169.057C72.2436 168.857 72.2609 168.655 72.2593 168.452C72.2593 168.008 72.2955 167.418 72.3213 166.71C72.3472 166.002 72.3678 165.025 72.3213 163.95C72.2748 162.875 72.28 161.65 72.1301 160.301C72.068 159.629 72.006 158.921 71.9388 158.187C71.8716 157.453 71.7372 156.688 71.6287 155.902C71.4374 154.315 71.0808 152.651 70.7293 150.893C69.8763 147.098 68.7429 143.371 67.3385 139.744C65.8878 136.136 64.1722 132.641 62.2057 129.287C61.2546 127.767 60.3811 126.305 59.4403 125.018C58.9803 124.366 58.5564 123.72 58.1067 123.136L56.799 121.461C55.9875 120.376 55.1501 119.476 54.4471 118.66C53.7441 117.843 53.1083 117.176 52.5708 116.644L51.3354 115.414C51.1955 115.266 51.0414 115.133 50.8754 115.016Z" fill="#E0E0E0"/>
<path d="M359.947 66.6449C359.947 66.6449 355.088 63.4298 349.17 75.0547C343.251 86.6797 341.003 93.3579 341.003 93.3579C341.003 93.3579 339.452 95.7925 337.762 94.2005C336.072 92.6085 333.797 88.0908 330.954 88.9075C328.008 89.75 327.036 93.0426 327.6 97.8756C328.163 102.709 329.006 113.351 329.078 114.313C329.151 115.274 328.608 116.649 327.295 115.745C325.982 114.84 318.425 106.441 314.652 110.255C310.878 114.07 314.652 127.313 315.039 128.745C315.427 130.176 315.138 130.812 314.45 131.174C313.763 131.536 311.488 128.471 309.24 126.165C306.991 123.86 303.983 121.58 302.003 123.968C300.024 126.356 299.372 136.271 308.806 152.398L313.67 159.572L322.359 159.091C340.9 156.926 348.426 150.444 349.134 147.415C349.842 144.386 346.208 143.352 343.014 142.949C339.819 142.546 336.005 142.577 335.875 141.806C335.746 141.036 336.072 140.442 337.462 139.873C338.853 139.305 351.682 134.363 352.452 129.049C353.222 123.736 341.964 122.764 340.455 122.258C338.946 121.751 339.726 120.485 340.527 119.973C341.329 119.461 350.348 113.718 354.535 111.253C358.722 108.787 360.779 106.032 359.678 103.174C358.613 100.414 353.631 101.303 351.351 100.925C349.072 100.548 350.074 97.8239 350.074 97.8239C350.074 97.8239 354.075 91.9933 359.782 80.2495C365.488 68.5057 359.854 66.557 359.854 66.557" fill="#EBEBEB"/>
<path d="M354.628 77.0449L354.52 77.293L354.179 78.0219L352.85 80.8027C351.692 83.2218 349.997 86.7057 347.878 91.0011C343.649 99.597 337.71 111.424 331.11 124.465C324.509 137.506 318.539 149.317 314.269 157.892L309.219 168.049L307.844 170.81L307.482 171.523C307.442 171.606 307.397 171.687 307.348 171.766L307.456 171.513L307.798 170.789L309.126 168.003C310.284 165.589 311.979 162.105 314.099 157.804C318.327 149.209 324.266 137.382 330.872 124.341C337.478 111.3 343.437 99.4936 347.707 90.9184L352.742 80.7614L354.116 77.996L354.478 77.2827C354.577 77.1225 354.628 77.0449 354.628 77.0449Z" fill="#E0E0E0"/>
<path d="M333.906 95.3738C334.004 95.5538 334.08 95.7446 334.133 95.9424C334.263 96.3249 334.428 96.8831 334.624 97.5758C335.017 98.961 335.508 100.889 336.015 103.029L337.292 108.503C337.447 109.159 337.581 109.712 337.69 110.157C337.753 110.357 337.793 110.563 337.809 110.772C337.715 110.585 337.641 110.39 337.586 110.188C337.462 109.805 337.297 109.242 337.106 108.549C336.728 107.159 336.258 105.226 335.751 103.091C335.245 100.956 334.79 99.0851 334.438 97.6274L334.035 95.9734C333.972 95.7783 333.929 95.5775 333.906 95.3738Z" fill="#E0E0E0"/>
<path d="M338.594 110.932C338.594 110.86 342.502 109.671 347.381 108.27C352.261 106.87 356.21 105.794 356.231 105.867C356.251 105.939 352.323 107.128 347.443 108.529C342.564 109.93 338.615 111.015 338.594 110.932Z" fill="#E0E0E0"/>
<path d="M327.553 130.512C327.764 130.479 327.977 130.469 328.189 130.481H329.931C331.399 130.481 333.425 130.481 335.663 130.388C337.902 130.295 339.923 130.166 341.385 130.047L343.122 129.913C343.335 129.888 343.55 129.888 343.763 129.913C343.558 129.978 343.347 130.02 343.133 130.037C342.724 130.099 342.135 130.176 341.406 130.259C339.943 130.424 337.917 130.6 335.674 130.678C333.43 130.755 331.399 130.74 329.926 130.678C329.192 130.652 328.597 130.621 328.189 130.59C327.975 130.59 327.761 130.564 327.553 130.512Z" fill="#E0E0E0"/>
<path d="M320.208 117.363C320.345 117.507 320.46 117.671 320.55 117.848L321.387 119.218C322.085 120.381 323.036 121.999 324.07 123.798C325.103 125.597 326.023 127.225 326.68 128.414L327.44 129.83C327.542 129.993 327.627 130.166 327.693 130.347C327.558 130.201 327.443 130.038 327.352 129.861L326.514 128.507C325.817 127.344 324.866 125.726 323.832 123.932C322.798 122.139 321.878 120.5 321.221 119.311L320.462 117.9C320.359 117.73 320.274 117.55 320.208 117.363Z" fill="#E0E0E0"/>
<path d="M308.289 133.396C308.447 133.594 308.591 133.803 308.718 134.022C308.997 134.482 309.359 135.056 309.798 135.779C310.697 137.263 311.933 139.33 313.277 141.62C314.621 143.91 315.825 145.988 316.688 147.497C317.097 148.226 317.433 148.831 317.696 149.296C317.829 149.511 317.941 149.738 318.032 149.973C317.871 149.778 317.727 149.569 317.603 149.348L316.523 147.596C315.623 146.107 314.388 144.045 313.044 141.755C311.7 139.465 310.496 137.387 309.633 135.872L308.625 134.079C308.491 133.863 308.379 133.634 308.289 133.396Z" fill="#E0E0E0"/>
<path d="M317.893 149.513C318.159 149.47 318.429 149.451 318.699 149.456L320.906 149.384C322.767 149.322 325.336 149.224 328.174 149.038C331.011 148.852 333.575 148.624 335.41 148.443L337.607 148.226C337.876 148.186 338.147 148.171 338.419 148.18C338.158 148.254 337.892 148.304 337.623 148.33C337.106 148.412 336.356 148.516 335.431 148.629C333.58 148.862 331.017 149.146 328.194 149.306C325.372 149.467 322.777 149.56 320.917 149.575C319.981 149.575 319.226 149.575 318.704 149.575C318.432 149.581 318.161 149.561 317.893 149.513Z" fill="#E0E0E0"/>
<path d="M304.727 12.6345H77.4747C75.5939 12.6345 73.79 13.3817 72.4601 14.7117C71.1301 16.0416 70.3829 17.8455 70.3829 19.7263V180.243C70.3829 182.124 71.1301 183.927 72.4601 185.257C73.79 186.587 75.5939 187.334 77.4747 187.334H164.695C164.695 187.334 170.242 204.49 153.045 213.365H234.595C234.595 213.365 215.181 206.713 220.169 187.334H304.727C306.608 187.334 308.412 186.587 309.742 185.257C311.072 183.927 311.819 182.124 311.819 180.243V19.7263C311.819 17.8455 311.072 16.0416 309.742 14.7117C308.412 13.3817 306.608 12.6345 304.727 12.6345Z" fill="#263238"/>
<path d="M194.133 170.453C197.234 174.872 192.386 179.71 187.966 176.619C187.819 176.515 187.691 176.385 187.589 176.237C184.487 171.823 189.336 166.99 193.755 170.075C193.903 170.177 194.031 170.305 194.133 170.453Z" fill="#455A64"/>
<path d="M304.531 22.2593H77.2007C76.2672 22.2593 75.5105 23.016 75.5105 23.9495V157.417C75.5105 158.35 76.2672 159.107 77.2007 159.107H304.531C305.464 159.107 306.221 158.35 306.221 157.417V23.9495C306.221 23.016 305.464 22.2593 304.531 22.2593Z" fill="#E0E0E0"/>
<path d="M306.221 32.2817H75.5105V159.102H306.221V32.2817Z" fill="white"/>
<path d="M94.4289 27.5418C94.4299 27.9072 94.3224 28.2647 94.1201 28.569C93.9177 28.8732 93.6295 29.1105 93.2921 29.2508C92.9548 29.3911 92.5833 29.4281 92.2249 29.3571C91.8664 29.286 91.5371 29.1102 91.2788 28.8518C91.0204 28.5934 90.8445 28.2641 90.7735 27.9057C90.7025 27.5473 90.7394 27.1758 90.8797 26.8384C91.02 26.501 91.2574 26.2129 91.5616 26.0105C91.8659 25.8081 92.2233 25.7006 92.5888 25.7017C93.0768 25.7017 93.5448 25.8955 93.8899 26.2406C94.235 26.5857 94.4289 27.0538 94.4289 27.5418Z" fill="#455A64"/>
<path d="M83.2639 27.5418C83.2649 27.907 83.1575 28.2643 82.9554 28.5684C82.7532 28.8726 82.4654 29.1099 82.1283 29.2503C81.7912 29.3908 81.42 29.4281 81.0617 29.3575C80.7034 29.2868 80.3741 29.1115 80.1156 28.8536C79.857 28.5958 79.6807 28.267 79.6091 27.9089C79.5375 27.5508 79.5737 27.1795 79.7132 26.842C79.8527 26.5045 80.0892 26.216 80.3928 26.013C80.6964 25.81 81.0534 25.7017 81.4185 25.7017C81.6606 25.701 81.9005 25.7481 82.1243 25.8403C82.3482 25.9324 82.5517 26.0679 82.7231 26.2388C82.8945 26.4097 83.0305 26.6128 83.1233 26.8364C83.2161 27.06 83.2639 27.2997 83.2639 27.5418Z" fill="#455A64"/>
<path d="M88.6086 27.5418C88.6096 27.907 88.5023 28.2643 88.3001 28.5684C88.098 28.8726 87.8101 29.1099 87.473 29.2503C87.1359 29.3908 86.7647 29.4281 86.4065 29.3575C86.0482 29.2868 85.7189 29.1115 85.4603 28.8536C85.2017 28.5958 85.0254 28.267 84.9538 27.9089C84.8822 27.5508 84.9184 27.1795 85.0579 26.842C85.1974 26.5045 85.434 26.216 85.7375 26.013C86.0411 25.81 86.3981 25.7017 86.7633 25.7017C87.0054 25.701 87.2452 25.7481 87.4691 25.8403C87.6929 25.9324 87.8964 26.0679 88.0678 26.2388C88.2392 26.4097 88.3752 26.6128 88.468 26.8364C88.5608 27.06 88.6086 27.2997 88.6086 27.5418Z" fill="#455A64"/>
<path d="M299.047 39.9265H238.291V141.434H299.047V39.9265Z" fill="#F5F5F5"/>
<path d="M266.188 111.599C266.188 111.677 261.577 111.733 255.886 111.733C250.195 111.733 245.584 111.677 245.584 111.599C245.584 111.521 250.195 111.465 255.886 111.465C261.577 111.465 266.188 111.527 266.188 111.599Z" fill="#FF725E"/>
<path d="M292.079 116.101C292.079 116.174 281.793 116.236 269.103 116.236C256.413 116.236 246.127 116.174 246.127 116.101C246.127 116.029 256.413 115.967 269.103 115.967C281.793 115.967 292.079 115.998 292.079 116.101Z" fill="#263238"/>
<path d="M292.079 119.916C292.079 119.988 281.793 120.05 269.103 120.05C256.413 120.05 246.127 119.988 246.127 119.916C246.127 119.844 256.413 119.781 269.103 119.781C281.793 119.781 292.079 119.844 292.079 119.916Z" fill="#263238"/>
<path d="M292.079 123.762C292.079 123.834 281.793 123.896 269.103 123.896C256.413 123.896 246.127 123.834 246.127 123.762C246.127 123.689 256.413 123.627 269.103 123.627C281.793 123.627 292.079 123.684 292.079 123.762Z" fill="#263238"/>
<path d="M292.079 127.602C292.079 127.68 281.793 127.737 269.103 127.737C256.413 127.737 246.127 127.68 246.127 127.602C246.127 127.525 256.413 127.468 269.103 127.468C281.793 127.468 292.079 127.53 292.079 127.602Z" fill="#263238"/>
<path d="M292.079 131.448C292.079 131.52 281.793 131.582 269.103 131.582C256.413 131.582 246.127 131.52 246.127 131.448C246.127 131.376 256.413 131.313 269.103 131.313C281.793 131.313 292.079 131.37 292.079 131.448Z" fill="#263238"/>
<path d="M294.622 45.0801H242.286V95.3222H294.622V45.0801Z" fill="#E0E0E0"/>
<path d="M286.848 86.5659L290.249 95.3273H282.01L280.154 90.5563L286.848 86.5659Z" fill="#FFBE9D"/>
<path d="M255.478 95.3274H277.792C278.138 92.0297 278.356 88.9128 278.356 88.9128L279.503 92.0141L288.874 87.3259C288.874 87.3259 285.468 78.2441 282.615 75.1686C278.996 71.2763 272.53 71.664 272.53 71.664L264.115 71.8036C261.961 72.0584 259.865 72.6698 257.912 73.6127L257.706 73.6747V73.7161C255.886 75.2668 250.417 82.5963 250.417 82.5963L252.433 84.5554L256.568 88.4062C256.563 88.4185 256.56 88.4317 256.56 88.445C256.56 88.4583 256.563 88.4715 256.568 88.4838C256.599 88.9024 255.478 95.3274 255.478 95.3274Z" fill="#455A64"/>
<path d="M272.768 71.364C272.768 71.364 272.794 71.4157 272.814 71.5139C272.845 71.6604 272.864 71.809 272.871 71.9584C272.898 72.5123 272.821 73.0663 272.644 73.5918C272.377 74.3792 271.904 75.0807 271.274 75.6232C270.482 76.2747 269.496 76.6441 268.471 76.6732C267.447 76.7022 266.441 76.3891 265.614 75.7835C264.957 75.2744 264.447 74.6002 264.136 73.8296C263.93 73.3148 263.823 72.766 263.82 72.2117C263.817 72.0612 263.827 71.9107 263.851 71.762C263.851 71.6638 263.877 71.6121 263.888 71.6121C263.894 72.3473 264.038 73.0748 264.311 73.7572C264.633 74.4789 265.133 75.1069 265.764 75.5819C266.551 76.1426 267.5 76.4312 268.467 76.4042C269.433 76.3771 270.364 76.0358 271.119 75.432C271.723 74.924 272.186 74.2689 272.463 73.5298C272.701 72.8337 272.804 72.0987 272.768 71.364Z" fill="#263238"/>
<path d="M280.738 73.3594C280.738 73.3852 280.511 73.3594 280.144 73.5145C279.625 73.7109 279.173 74.0517 278.841 74.4965C278.366 75.1698 278.076 75.9557 277.999 76.7761C277.875 77.7013 277.849 78.7454 277.807 79.8309C277.751 82.0122 277.833 83.9661 277.937 85.4134C277.983 86.0802 278.03 86.6436 278.061 87.0984C278.095 87.305 278.104 87.5151 278.087 87.7239C278.024 87.5252 277.981 87.3209 277.957 87.1139C277.9 86.7159 277.818 86.1422 277.745 85.4289C277.558 83.5674 277.489 81.6959 277.539 79.8257C277.556 78.7888 277.629 77.7536 277.756 76.7244C277.847 75.8657 278.173 75.0487 278.697 74.3622C279.057 73.9023 279.552 73.5662 280.113 73.4007C280.262 73.3556 280.417 73.3312 280.573 73.3284C280.681 73.3439 280.738 73.349 280.738 73.3594Z" fill="#263238"/>
<path d="M260.734 72.4185C260.702 72.633 260.65 72.844 260.579 73.0491C260.44 73.5039 260.269 74.0829 260.062 74.7496C259.633 76.1814 259.06 78.1663 258.481 80.3786C257.902 82.5909 257.447 84.6017 257.126 86.0645C256.971 86.7519 256.842 87.3309 256.739 87.7961C256.705 88.0118 256.648 88.2233 256.568 88.4267C256.571 88.208 256.594 87.9901 256.635 87.7754C256.697 87.3619 256.801 86.7416 256.935 86.0283C257.214 84.55 257.649 82.5237 258.222 80.3114C258.796 78.0991 259.406 76.1142 259.882 74.6928C260.119 73.9795 260.321 73.4109 260.471 73.018C260.538 72.8097 260.626 72.6088 260.734 72.4185Z" fill="#263238"/>
<path opacity="0.2" d="M277.658 80.4355L280.759 91.4247L279.524 92.045L278.376 88.9436C278.376 88.9436 277.239 82.3997 277.658 80.4355Z" fill="black"/>
<g opacity="0.2">
<path d="M261.096 72.429C259.303 73.3387 263.707 75.6957 265.717 75.6751L264.353 71.7673C264.353 71.7673 261.696 72.124 261.096 72.429Z" fill="black"/>
</g>
<path d="M268.669 76.4244C268.046 76.4669 267.421 76.3779 266.835 76.1631C266.249 75.9484 265.714 75.6126 265.266 75.1778C264.818 74.7429 264.467 74.2187 264.234 73.6391C264.002 73.0595 263.895 72.4376 263.919 71.8137C263.97 70.3819 264.017 69.2292 264.017 69.2292C264.017 69.2292 260.466 68.9191 260.187 65.4094C259.907 61.8997 259.969 53.7896 259.969 53.7896C261.909 52.797 264.079 52.3403 266.254 52.4666C268.43 52.5929 270.532 53.2977 272.344 54.5081L272.892 54.8699L272.825 72.0205C272.814 73.1431 272.38 74.2204 271.61 75.0369C270.839 75.8534 269.789 76.3489 268.669 76.4244Z" fill="#FFBE9D"/>
<path d="M261.877 59.9718C261.951 59.9002 262.002 59.8082 262.023 59.7074C262.045 59.6067 262.035 59.5019 261.997 59.4064C261.958 59.3109 261.892 59.2292 261.807 59.1716C261.721 59.114 261.62 59.0833 261.518 59.0833C261.415 59.0833 261.314 59.114 261.229 59.1716C261.143 59.2292 261.077 59.3109 261.038 59.4064C261 59.5019 260.99 59.6067 261.012 59.7074C261.033 59.8082 261.084 59.9002 261.158 59.9718C261.255 60.065 261.383 60.117 261.518 60.117C261.652 60.117 261.78 60.065 261.877 59.9718Z" fill="#263238"/>
<path d="M260.321 58.9276C260.378 58.9845 260.703 58.7002 261.189 58.664C261.675 58.6278 262.042 58.8552 262.089 58.788C262.135 58.7208 262.053 58.6536 261.892 58.5451C261.674 58.4118 261.419 58.3503 261.163 58.3694C260.909 58.3899 260.668 58.4914 260.476 58.6588C260.336 58.788 260.29 58.9018 260.321 58.9276Z" fill="#263238"/>
<path d="M266.291 59.2015C266.207 59.2603 266.142 59.3428 266.105 59.4386C266.068 59.5344 266.06 59.639 266.083 59.7392C266.106 59.8394 266.157 59.9306 266.232 60.0011C266.307 60.0716 266.401 60.1183 266.502 60.1352C266.603 60.152 266.707 60.1384 266.801 60.0959C266.894 60.0534 266.973 59.984 267.027 59.8966C267.081 59.8092 267.108 59.7077 267.104 59.605C267.1 59.5024 267.065 59.4033 267.004 59.3204C266.925 59.2112 266.805 59.1377 266.672 59.1154C266.539 59.0932 266.402 59.1241 266.291 59.2015Z" fill="#263238"/>
<path d="M265.438 58.9429C265.5 58.9998 265.826 58.7103 266.312 58.6741C266.798 58.6379 267.159 58.8654 267.211 58.7982C267.263 58.731 267.175 58.6638 267.01 58.5604C266.795 58.4226 266.54 58.3608 266.286 58.3847C266.032 58.4012 265.79 58.5011 265.598 58.669C265.454 58.8033 265.412 58.9171 265.438 58.9429Z" fill="#263238"/>
<path d="M263.898 63.2022C263.64 63.1218 263.371 63.0851 263.102 63.0937C262.973 63.0937 262.874 63.0627 262.859 62.9955C262.847 62.8693 262.87 62.7423 262.926 62.6285L263.241 61.5947C263.547 60.7382 263.767 59.8534 263.898 58.9534C263.503 59.7718 263.194 60.6294 262.978 61.512C262.874 61.8635 262.776 62.1995 262.683 62.5458C262.615 62.7096 262.603 62.891 262.647 63.0627C262.668 63.1105 262.7 63.1526 262.741 63.1858C262.781 63.219 262.829 63.2423 262.88 63.2539C262.951 63.2662 263.025 63.2662 263.097 63.2539C263.365 63.2836 263.636 63.2661 263.898 63.2022Z" fill="#263238"/>
<path d="M264.012 69.162C265.636 69.0831 267.2 68.5216 268.503 67.5493C268.503 67.5493 267.588 70.1338 264.063 70.0718L264.012 69.162Z" fill="#EB996E"/>
<path d="M272.737 58.5918C272.804 58.5659 275.611 58.261 275.166 60.9747C274.784 63.3162 272.261 62.6029 272.266 62.5253C272.272 62.4478 272.737 58.5918 272.737 58.5918Z" fill="#FFBE9D"/>
<path d="M273.248 61.4915C273.248 61.4915 273.285 61.5225 273.352 61.5587C273.446 61.6077 273.555 61.6188 273.657 61.5897C273.81 61.5013 273.938 61.375 274.029 61.223C274.119 61.0709 274.169 60.8982 274.174 60.7213C274.197 60.5224 274.174 60.3206 274.107 60.1321C274.089 60.0575 274.055 59.9881 274.005 59.9296C273.956 59.8712 273.893 59.8254 273.822 59.7961C273.776 59.7815 273.726 59.7834 273.681 59.8012C273.636 59.8191 273.598 59.852 273.574 59.8943C273.538 59.9563 273.574 60.0028 273.538 60.0028C273.502 60.0028 273.491 59.9615 273.538 59.8685C273.557 59.8121 273.593 59.7632 273.641 59.7289C273.709 59.6858 273.79 59.6709 273.869 59.6875C273.964 59.7127 274.05 59.7622 274.12 59.8311C274.19 59.9 274.24 59.9859 274.267 60.0804C274.349 60.2889 274.381 60.5137 274.36 60.7368C274.355 60.9448 274.29 61.1469 274.171 61.3179C274.053 61.4889 273.886 61.6212 273.693 61.6983C273.629 61.7122 273.563 61.7115 273.499 61.6963C273.436 61.6811 273.377 61.6517 273.326 61.6104C273.248 61.5484 273.238 61.4967 273.248 61.4915Z" fill="#EB996E"/>
<path d="M272.148 61.0312C271.605 61.3568 270.866 60.9485 270.597 60.3799C270.378 59.7835 270.284 59.1481 270.323 58.5139C270.292 57.6498 270.142 56.7942 269.878 55.9708C269.845 55.6695 269.735 55.3819 269.559 55.1349C269.383 54.888 269.147 54.6901 268.873 54.5597C268.6 54.4293 268.297 54.3708 267.995 54.3898C267.692 54.4088 267.399 54.5046 267.144 54.6682C266.577 54.9518 265.954 55.1071 265.319 55.1231C264.487 55.0507 263.8 54.3942 262.968 54.2805C262.135 54.1668 261.463 54.5442 260.714 54.7561C259.969 55.0033 259.162 54.985 258.429 54.7044C258.068 54.5584 257.76 54.3074 257.543 53.9839C257.326 53.6604 257.212 53.2794 257.215 52.8901C257.229 52.6986 257.283 52.5123 257.374 52.3431C257.465 52.1738 257.59 52.0253 257.741 51.9071C257.892 51.7889 258.067 51.7035 258.253 51.6565C258.439 51.6095 258.633 51.6018 258.822 51.634C258.689 51.5432 258.576 51.4245 258.493 51.2863C258.409 51.148 258.357 50.9933 258.339 50.8328C258.32 50.6723 258.337 50.5098 258.388 50.3564C258.438 50.2029 258.521 50.0622 258.631 49.9438C258.872 49.7181 259.172 49.5642 259.496 49.4994C259.82 49.4345 260.156 49.4614 260.466 49.5768C261.08 49.8139 261.637 50.1786 262.099 50.6468C262.162 50.3596 262.32 50.1019 262.547 49.9145C262.773 49.7272 263.056 49.6211 263.35 49.613C263.948 49.6156 264.529 49.8134 265.004 50.1764C265.521 50.5072 265.94 50.9104 266.462 51.2102C267.496 51.7839 268.726 51.846 269.889 52.0579C271.052 52.2698 272.298 52.7402 272.861 53.7843C273.378 54.6992 273.026 55.8002 272.985 56.8443C272.944 57.8885 272.938 58.1727 272.887 59.191C272.876 59.1548 272.944 60.5711 272.148 61.0312Z" fill="#263238"/>
<path d="M263.458 64.6239C263.458 64.6549 263.588 64.7117 263.825 64.7066C264.136 64.6968 264.435 64.5925 264.685 64.4078C264.934 64.2231 265.121 63.9667 265.221 63.6728C265.293 63.4454 265.273 63.3006 265.221 63.2954C265.169 63.2903 265.03 63.8123 264.518 64.2155C264.189 64.4066 263.831 64.5444 263.458 64.6239Z" fill="white"/>
<path d="M259.421 52.3528C259.34 52.4096 259.277 52.4885 259.24 52.5801C259.202 52.6718 259.192 52.7723 259.21 52.8697C259.232 53.09 259.335 53.2944 259.499 53.4434C259.613 53.5343 259.746 53.599 259.888 53.633C260.03 53.6669 260.178 53.6693 260.321 53.6399C260.663 53.5742 260.99 53.4426 261.282 53.2522C261.601 53.0323 261.949 52.8583 262.316 52.7353C262.735 52.6467 263.172 52.7128 263.546 52.9214C263.944 53.1178 264.316 53.4021 264.73 53.6554C265.119 53.9335 265.585 54.0835 266.064 54.0844C266.507 54.0268 266.921 53.8316 267.247 53.5261C267.539 53.269 267.878 53.0707 268.245 52.942C268.571 52.8632 268.912 52.883 269.227 52.9989C269.693 53.1664 270.076 53.5071 270.297 53.95C270.365 54.1166 270.415 54.2898 270.447 54.4669C270.447 54.2884 270.408 54.112 270.333 53.95C270.228 53.7198 270.079 53.5128 269.893 53.3407C269.708 53.1686 269.49 53.0348 269.253 52.9472C268.923 52.8194 268.563 52.7942 268.219 52.8748C267.837 52.9989 267.485 53.2014 267.185 53.4693C266.866 53.75 266.47 53.9299 266.048 53.9862C265.589 53.9823 265.143 53.836 264.771 53.5675C264.368 53.3194 263.991 53.0506 263.577 52.8335C263.184 52.6166 262.725 52.5487 262.285 52.6422C261.918 52.7665 261.571 52.9404 261.251 53.1591C260.969 53.3471 260.653 53.4788 260.321 53.5468C260.187 53.5777 260.048 53.5784 259.914 53.5489C259.78 53.5194 259.654 53.4604 259.546 53.3762C259.392 53.2429 259.289 53.0601 259.256 52.8593C259.24 52.7678 259.247 52.6738 259.276 52.5855C259.305 52.4972 259.355 52.4173 259.421 52.3528Z" fill="#455A64"/>
<path d="M260.977 50.5022C260.952 50.4641 260.916 50.4337 260.874 50.4144C260.814 50.3851 260.747 50.3699 260.68 50.3699C260.613 50.3699 260.547 50.3851 260.486 50.4144C260.387 50.4557 260.304 50.5289 260.251 50.6224C260.197 50.716 260.177 50.8246 260.192 50.9313C260.212 51.0726 260.27 51.2055 260.362 51.3151C260.453 51.4247 260.573 51.5066 260.709 51.5515C261.034 51.6465 261.381 51.6301 261.696 51.505C262.042 51.3659 262.4 51.2586 262.766 51.1845C262.967 51.1699 263.169 51.2004 263.357 51.2737C263.544 51.3471 263.713 51.4614 263.851 51.6084C264.15 51.9442 264.499 52.2318 264.885 52.4613C265.102 52.5377 265.333 52.5702 265.562 52.5569C265.792 52.5436 266.017 52.4847 266.224 52.3837C266.598 52.21 266.992 52.0849 267.397 52.0116C267.977 51.9328 268.567 52.0308 269.09 52.2927C269.612 52.5546 270.044 52.9683 270.328 53.4795C270.494 53.7742 270.545 53.9551 270.556 53.9499C270.513 53.7804 270.449 53.6171 270.364 53.464C270.142 53.0361 269.817 52.6702 269.418 52.3992C268.821 51.9956 268.097 51.8247 267.382 51.9185C266.97 51.9919 266.569 52.1169 266.188 52.2907C265.993 52.3873 265.782 52.4439 265.565 52.4572C265.348 52.4705 265.131 52.4403 264.927 52.3682C264.543 52.1433 264.194 51.8629 263.893 51.536C263.746 51.3792 263.565 51.2578 263.365 51.1808C263.164 51.1038 262.949 51.0733 262.735 51.0915C262.363 51.1662 261.999 51.2788 261.649 51.4275C261.359 51.545 261.038 51.5667 260.735 51.4895C260.61 51.4511 260.499 51.3783 260.414 51.2796C260.329 51.1808 260.273 51.0601 260.254 50.9313C260.237 50.8344 260.253 50.7347 260.3 50.6483C260.347 50.5619 260.422 50.494 260.512 50.4557C260.569 50.429 260.631 50.4152 260.693 50.4152C260.756 50.4152 260.818 50.429 260.874 50.4557C260.946 50.4557 260.972 50.5074 260.977 50.5022Z" fill="#455A64"/>
<path d="M271.357 53.252C271.424 53.2778 271.615 52.8539 272.07 52.5748C272.525 52.2957 272.98 52.3009 272.985 52.2285C272.99 52.1561 272.876 52.1458 272.675 52.1406C272.413 52.1469 272.157 52.2237 271.936 52.3629C271.714 52.5021 271.533 52.6985 271.413 52.9315C271.331 53.1176 271.326 53.2416 271.357 53.252Z" fill="#263238"/>
<path d="M271.77 50.6521C271.698 50.6521 271.801 51.2 271.713 51.8461C271.626 52.4922 271.408 52.9781 271.47 53.0143C271.741 52.6904 271.913 52.2958 271.966 51.8771C272.019 51.4584 271.951 51.0333 271.77 50.6521Z" fill="#263238"/>
<path d="M272.592 60.0751C272.688 59.9286 272.751 59.7632 272.777 59.5901C272.803 59.417 272.791 59.2404 272.742 59.0723C272.637 58.7102 272.443 58.3798 272.179 58.1109C272.043 57.9509 271.95 57.7587 271.91 57.5526C271.892 57.3254 271.92 57.0968 271.993 56.8807C272.135 56.44 272.162 55.9701 272.07 55.5161C271.988 55.1403 271.764 54.8107 271.445 54.596C271.23 54.4553 270.977 54.3849 270.721 54.3944C270.628 54.3983 270.536 54.4212 270.452 54.4616C270.452 54.4616 270.55 54.4616 270.721 54.4358C270.966 54.4395 271.203 54.5169 271.403 54.658C271.702 54.8651 271.907 55.1804 271.977 55.5368C272.061 55.976 272.033 56.4296 271.894 56.8548C271.818 57.0844 271.79 57.3272 271.812 57.5681C271.856 57.7901 271.958 57.9968 272.106 58.1677C272.365 58.4246 272.559 58.7402 272.67 59.0878C272.724 59.3277 272.724 59.5767 272.67 59.8166C272.652 59.9051 272.626 59.9917 272.592 60.0751Z" fill="#455A64"/>
<path d="M270.039 85.0876C270.045 85.1995 270.045 85.3117 270.039 85.4236C270.039 85.6666 270.039 85.9405 270.064 86.3127C270.064 87.0777 270.111 88.1528 270.121 89.4502L270.09 89.3675L271.682 90.851H271.548L274.287 89.7397L274.21 89.8431C274.221 89.7562 274.236 89.6699 274.256 89.5846C274.556 87.9564 274.835 86.4212 275.083 85.0876L275.202 85.2272C273.677 85.2272 272.396 85.191 271.481 85.1703L270.411 85.1393C270.285 85.1322 270.161 85.1149 270.039 85.0876C270.155 85.07 270.272 85.0614 270.39 85.0618L271.424 85.0308C272.328 85.0308 273.641 84.9791 275.218 84.9688H275.357V85.1083C275.12 86.4471 274.84 87.9822 274.561 89.6105L274.515 89.8689V89.9413L274.448 89.9723L271.703 91.0629L271.625 91.0939L271.569 91.0371L270.018 89.5329L269.982 89.4967V89.4502C269.982 88.1063 270.018 87.0001 270.039 86.2455C270.039 85.8992 270.039 85.6149 270.07 85.3771C270.047 85.2823 270.037 85.185 270.039 85.0876Z" fill="#263238"/>
<path d="M274.903 86.4366C274.102 86.6139 273.281 86.6817 272.463 86.6381C271.643 86.6842 270.821 86.6217 270.018 86.4521C270.829 86.354 271.647 86.3263 272.463 86.3694C273.277 86.323 274.093 86.3455 274.903 86.4366Z" fill="#263238"/>
<path d="M251.57 83.7385C251.679 83.8471 243.3 95.3273 243.3 95.3273H251.513L256.553 88.4216L251.57 83.7385Z" fill="#FFBE9D"/>
<path d="M234.931 21.0496H148.331V165.733H234.931V21.0496Z" fill="#F5F5F5"/>
<path d="M188.095 123.209C188.095 123.281 181.52 123.343 173.41 123.343C165.3 123.343 158.725 123.281 158.725 123.209C158.725 123.136 165.3 123.074 173.41 123.074C181.52 123.074 188.095 123.131 188.095 123.209Z" fill="#FF725E"/>
<path d="M224.996 129.582C224.996 129.659 210.332 129.716 192.251 129.716C174.17 129.716 159.501 129.659 159.501 129.582C159.501 129.504 174.16 129.448 192.251 129.448C210.342 129.448 224.996 129.51 224.996 129.582Z" fill="#263238"/>
<path d="M224.996 135.061C224.996 135.133 210.332 135.195 192.251 135.195C174.17 135.195 159.501 135.133 159.501 135.061C159.501 134.989 174.16 134.927 192.251 134.927C210.342 134.927 224.996 134.989 224.996 135.061Z" fill="#263238"/>
<path d="M224.996 140.54C224.996 140.613 210.332 140.675 192.251 140.675C174.17 140.675 159.501 140.613 159.501 140.54C159.501 140.468 174.16 140.406 192.251 140.406C210.342 140.406 224.996 140.463 224.996 140.54Z" fill="#263238"/>
<path d="M224.996 146.019C224.996 146.092 210.332 146.154 192.251 146.154C174.17 146.154 159.501 146.092 159.501 146.019C159.501 145.947 174.16 145.885 192.251 145.885C210.342 145.885 224.996 145.942 224.996 146.019Z" fill="#263238"/>
<path d="M224.996 151.493C224.996 151.571 210.332 151.628 192.251 151.628C174.17 151.628 159.501 151.571 159.501 151.493C159.501 151.416 174.16 151.359 192.251 151.359C210.342 151.359 224.996 151.421 224.996 151.493Z" fill="#263238"/>
<path d="M228.625 28.3945H154.027V100.01H228.625V28.3945Z" fill="#E0E0E0"/>
<path d="M187.051 40.2626C187.832 37.642 190.23 35.6829 192.887 35.0471C195.544 34.4114 198.842 33.543 201.276 34.7835C202.796 35.5589 204.253 36.6857 204.853 38.2829C205.561 40.1799 204.471 43.7155 203.928 45.6642C203.385 47.6128 202.977 49.8407 204.047 51.5568C205.117 53.2728 207.22 53.8724 208.544 55.3301C209.422 56.3785 209.858 57.728 209.759 59.0924C209.66 60.4568 209.033 61.7289 208.011 62.639C210.363 62.4994 212.348 64.8978 212.265 67.2497C212.183 69.6015 210.461 71.6691 208.363 72.7339C206.264 73.7987 203.84 74.021 201.488 74.0261C198.568 74.0303 195.656 73.7272 192.799 73.1216C190.447 72.6047 187.992 71.8345 186.462 69.9789C185.051 68.2731 184.663 65.9471 184.658 63.7348C184.658 55.9142 188.752 48.1608 186.968 40.5417" fill="#263238"/>
<path d="M188.959 38.4638C187.728 37.6215 186.28 37.1521 184.789 37.1119C183.298 37.0717 181.827 37.4624 180.553 38.2372C179.278 39.0119 178.254 40.1378 177.603 41.4799C176.953 42.822 176.703 44.3233 176.884 45.8037C177.075 47.3544 177.721 48.9051 177.328 50.3783C176.589 53.185 172.635 54.2756 172.118 57.1289C171.911 58.2557 172.309 59.3877 172.609 60.4887C172.909 61.5897 173.126 62.8354 172.537 63.8278C172.113 64.5618 171.348 65.0219 170.748 65.6163C168.826 67.5391 168.862 70.9145 170.474 73.1113C172.087 75.3081 174.94 76.3574 177.659 76.2695C180.378 76.1816 182.983 75.0806 185.304 73.6592" fill="#263238"/>
<path d="M183.247 41.6064L183.283 43.4621L183.655 71.3071C183.697 74.5429 186.514 77.0809 189.972 76.993C193.471 76.9155 196.309 74.2121 196.319 70.9453C196.319 67.5183 196.402 63.9104 196.402 63.9104C196.402 63.9104 200.821 63.1764 201.736 57.413C202.191 54.5494 202.046 49.8509 201.803 46.0103C201.754 45.189 201.539 44.3861 201.171 43.6503C200.802 42.9145 200.288 42.2611 199.66 41.7296C199.032 41.198 198.303 40.7995 197.516 40.558C196.729 40.3165 195.902 40.237 195.084 40.3245L183.247 41.6064Z" fill="#B78876"/>
<path d="M199.586 49.2978C199.587 49.4904 199.514 49.6759 199.38 49.8149C199.247 49.9539 199.065 50.0354 198.872 50.0422C198.778 50.0499 198.684 50.0386 198.594 50.009C198.505 49.9795 198.422 49.9321 198.351 49.8699C198.28 49.8077 198.223 49.7319 198.182 49.6469C198.141 49.5619 198.117 49.4696 198.113 49.3754C198.11 49.1833 198.182 48.9978 198.315 48.8587C198.447 48.7195 198.629 48.6378 198.821 48.631C198.915 48.6233 199.01 48.6345 199.1 48.6641C199.19 48.6936 199.273 48.7408 199.344 48.803C199.415 48.8651 199.473 48.9409 199.515 49.0259C199.556 49.1109 199.581 49.2034 199.586 49.2978Z" fill="#263238"/>
<path d="M200.775 48.4709C200.682 48.564 200.123 48.1505 199.327 48.1505C198.531 48.1505 197.947 48.5537 197.865 48.4554C197.782 48.3572 197.911 48.2383 198.17 48.0523C198.514 47.8166 198.921 47.6905 199.338 47.6904C199.752 47.69 200.155 47.8202 200.49 48.0626C200.744 48.2487 200.826 48.4244 200.775 48.4709Z" fill="#263238"/>
<path d="M191.925 49.2978C191.927 49.4904 191.853 49.6759 191.72 49.8149C191.587 49.9539 191.405 50.0354 191.212 50.0422C191.118 50.0485 191.024 50.0362 190.935 50.0061C190.846 49.9759 190.764 49.9286 190.694 49.8666C190.623 49.8046 190.565 49.7294 190.524 49.6451C190.483 49.5608 190.458 49.4691 190.452 49.3754C190.45 49.1824 190.523 48.9962 190.656 48.8569C190.79 48.7176 190.973 48.6364 191.166 48.631C191.26 48.6233 191.354 48.6346 191.444 48.6641C191.533 48.6937 191.616 48.741 191.687 48.8033C191.758 48.8655 191.816 48.9413 191.857 49.0263C191.898 49.1113 191.921 49.2036 191.925 49.2978Z" fill="#263238"/>
<path d="M192.97 48.6157C192.877 48.7139 192.313 48.3004 191.522 48.3004C190.731 48.3004 190.142 48.7035 190.054 48.6053C189.966 48.5071 190.106 48.3882 190.359 48.2022C190.705 47.9655 191.114 47.8393 191.533 47.8403C191.946 47.8399 192.35 47.9701 192.685 48.2125C192.928 48.3882 193.021 48.5743 192.97 48.6157Z" fill="#263238"/>
<path d="M195.854 54.5134C196.273 54.3821 196.707 54.3039 197.146 54.2808C197.348 54.2808 197.539 54.2188 197.575 54.0792C197.592 53.8703 197.545 53.6612 197.441 53.4796L196.836 51.9289C196.004 49.727 195.399 47.9178 195.492 47.8817C195.585 47.8455 196.324 49.6081 197.162 51.81C197.363 52.3528 197.555 52.8697 197.735 53.3607C197.865 53.6048 197.902 53.8876 197.839 54.1567C197.81 54.2283 197.765 54.2923 197.707 54.3442C197.65 54.3961 197.582 54.4345 197.508 54.4565C197.395 54.4856 197.279 54.5012 197.162 54.5031C196.728 54.5623 196.289 54.5658 195.854 54.5134Z" fill="#263238"/>
<path d="M196.402 63.926C193.688 63.9643 191.016 63.2486 188.684 61.8584C188.684 61.8584 190.556 65.8178 196.324 65.2802L196.402 63.926Z" fill="#AA6550"/>
<path d="M195.518 56.431C195.364 56.2436 195.165 56.098 194.941 56.0077C194.716 55.9174 194.471 55.8852 194.231 55.9141C194.056 55.9294 193.885 55.9804 193.731 56.064C193.576 56.1475 193.44 56.2619 193.331 56.4C193.224 56.5314 193.16 56.6929 193.148 56.8623C193.136 57.0317 193.176 57.2006 193.264 57.3459C193.392 57.4865 193.558 57.5864 193.741 57.6333C193.925 57.6802 194.119 57.6719 194.298 57.6096C194.679 57.478 195.03 57.2725 195.332 57.0048C195.419 56.9374 195.496 56.8572 195.559 56.767C195.589 56.7235 195.604 56.6722 195.604 56.6197C195.604 56.5672 195.589 56.5159 195.559 56.4724" fill="#AA6550"/>
<path d="M193.538 55.0665C193.667 55.0665 193.667 55.9194 194.407 56.5345C195.146 57.1496 196.066 57.0514 196.071 57.1703C196.076 57.2891 195.869 57.3408 195.482 57.3512C194.976 57.3558 194.484 57.1839 194.091 56.8653C193.716 56.5569 193.474 56.1167 193.414 55.6351C193.357 55.2733 193.455 55.0613 193.538 55.0665Z" fill="#263238"/>
<path d="M187.935 38.9083C187.935 38.836 188.028 38.7998 188.075 38.8205C188.121 38.8411 188.142 38.9135 188.111 38.9859C188.101 39.0152 188.081 39.0399 188.054 39.0552C188.028 39.0704 187.996 39.0752 187.966 39.0686C187.942 39.0509 187.925 39.0244 187.919 38.9946C187.913 38.9648 187.919 38.934 187.935 38.9083Z" fill="#263238"/>
<path d="M182.942 68.8674C183.787 68.5485 184.553 68.0509 185.189 67.4086C185.824 66.7663 186.313 65.9944 186.622 65.1457C187.229 63.433 187.272 61.5712 186.746 59.832C186.519 59.0309 186.198 58.1521 186.55 57.3975C186.878 56.8884 187.305 56.4507 187.806 56.1104C188.792 55.1572 189.377 53.8626 189.439 52.4921C189.492 51.1263 189.243 49.7656 188.71 48.5069C188.436 47.8091 188.106 47.0441 188.359 46.3411C188.591 45.8617 188.935 45.4451 189.362 45.1264C190.182 44.3572 190.859 43.449 191.362 42.4437C191.714 41.7356 191.977 40.893 191.636 40.1642C191.217 39.2958 190.132 39.027 189.176 38.9547C186.891 38.7789 184.368 39.2855 182.916 41.0533C181.619 42.635 181.469 44.8421 181.365 46.8942C181.076 53.345 180.786 59.8631 181.882 66.226" fill="#263238"/>
<path d="M203.99 40.9655C203.672 41.1578 203.342 41.3305 203.002 41.4824C202.704 41.6983 202.425 41.9405 202.17 42.206C202.02 42.3508 201.86 42.511 201.715 42.6764L201.612 42.8005L201.447 42.9659L201.049 43.3432C200.664 43.7008 200.251 44.0259 199.813 44.315C199.165 44.7665 198.44 45.0958 197.673 45.2867C196.199 45.6158 194.657 45.4336 193.3 44.7698C192.365 44.3197 191.545 43.662 190.902 42.847C189.92 41.5393 189.77 40.4796 190.22 39.9059C190.669 39.3321 191.812 39.389 193.083 39.725C193.702 39.8863 194.331 40.0106 194.965 40.0971C195.463 40.1684 195.97 40.1544 196.464 40.0558C196.705 40.0012 196.94 39.9179 197.162 39.8077C197.487 39.6629 197.89 39.451 198.356 39.2287C198.588 39.1202 198.831 39.0116 199.095 38.9083C199.224 38.8566 199.364 38.81 199.498 38.7635C199.632 38.717 199.803 38.6601 199.953 38.624C200.516 38.4779 201.1 38.4306 201.679 38.4844C202.139 38.5019 202.589 38.6213 202.996 38.8341C203.404 39.0469 203.759 39.3476 204.036 39.7146C204.181 39.8934 204.256 40.1188 204.248 40.3488C204.239 40.5788 204.148 40.7979 203.99 40.9655Z" fill="#263238"/>
<path d="M174.868 72.8372C174.839 72.8114 174.811 72.7837 174.785 72.7545C174.707 72.6695 174.635 72.5797 174.568 72.4857C174.306 72.1279 174.109 71.7274 173.984 71.302C173.791 70.63 173.756 69.9224 173.881 69.2344C174.064 68.307 174.556 67.469 175.276 66.8567C176.046 66.1537 177.054 65.6265 177.98 64.8925C178.461 64.5207 178.874 64.0677 179.2 63.5538C179.537 63.0148 179.674 62.3745 179.587 61.7446C179.411 60.4421 178.336 59.2997 178.243 57.7387C178.206 56.952 178.395 56.1711 178.789 55.4892C179.183 54.8073 179.765 54.2532 180.466 53.893C181.162 53.5935 181.823 53.2173 182.435 52.7713C182.702 52.5354 182.911 52.2421 183.048 51.9136C183.185 51.585 183.246 51.2297 183.226 50.8743C183.191 50.1712 183.015 49.4822 182.709 48.8481C182.409 48.2227 182.048 47.6283 181.737 47.0235C181.418 46.4331 181.198 45.7938 181.086 45.1317C181.002 44.4932 181.082 43.8439 181.319 43.245C181.758 42.1898 182.524 41.3037 183.505 40.7174C184.311 40.2441 185.201 39.9333 186.126 39.8025C186.81 39.7013 187.502 39.6564 188.193 39.6681C188.767 39.6681 189.227 39.7094 189.506 39.7353L189.848 39.7715C189.925 39.7715 189.961 39.7715 189.961 39.7715C189.81 39.7817 189.658 39.7817 189.506 39.7715C189.207 39.7715 188.762 39.7715 188.193 39.7715C187.501 39.7747 186.809 39.8335 186.126 39.9472C185.228 40.0897 184.367 40.4038 183.588 40.8724C182.655 41.4477 181.931 42.3062 181.52 43.3225C181.303 43.8849 181.232 44.493 181.314 45.0903C181.426 45.7262 181.643 46.3392 181.955 46.9046C182.26 47.499 182.627 48.0883 182.937 48.7344C183.269 49.3978 183.461 50.1229 183.5 50.864C183.524 51.2573 183.458 51.6508 183.306 52.0145C183.155 52.3782 182.922 52.7025 182.627 52.9626C182 53.4276 181.322 53.8179 180.605 54.1256C179.95 54.4663 179.406 54.9887 179.039 55.6304C178.672 56.2721 178.498 57.0059 178.538 57.7439C178.605 59.1808 179.665 60.3283 179.861 61.724C179.955 62.4105 179.803 63.1081 179.432 63.6933C179.089 64.2282 178.656 64.6988 178.15 65.0838C177.189 65.8333 176.186 66.3398 175.437 67.0118C174.735 67.5893 174.251 68.3874 174.062 69.2758C173.923 69.9482 173.943 70.6435 174.118 71.3072C174.279 71.8561 174.533 72.3736 174.868 72.8372Z" fill="#455A64"/>
<path d="M207.019 71.7259C207.143 71.6619 207.252 71.5735 207.341 71.466C207.43 71.3585 207.496 71.2342 207.536 71.1005C207.617 70.7897 207.593 70.4608 207.468 70.1649C207.276 69.7842 206.981 69.4653 206.616 69.2448C206.218 68.9709 205.726 68.7538 205.235 68.4178C204.959 68.2517 204.723 68.0265 204.545 67.7584C204.366 67.4903 204.249 67.1859 204.202 66.8671C204.187 66.153 204.418 65.4555 204.858 64.8926C205.272 64.2981 205.809 63.7916 206.223 63.192C206.646 62.6306 206.832 61.925 206.74 61.2278C206.62 60.5795 206.349 59.9686 205.949 59.4445C205.204 58.4107 204.279 57.6561 203.695 56.86C203.184 56.2557 202.843 55.5259 202.708 54.7459C202.678 54.5351 202.678 54.3211 202.708 54.1102C202.708 53.9654 202.749 53.8879 202.76 53.8931C202.754 54.173 202.77 54.4529 202.806 54.7304C202.975 55.4772 203.331 56.169 203.84 56.7412C204.429 57.5113 205.36 58.2402 206.145 59.3256C206.573 59.8803 206.864 60.5287 206.993 61.2175C207.05 61.5916 207.028 61.9735 206.931 62.3391C206.82 62.7111 206.645 63.061 206.414 63.3729C205.98 64.0087 205.437 64.5152 205.039 65.0735C204.634 65.5871 204.415 66.2232 204.419 66.8775C204.46 67.1649 204.564 67.4397 204.724 67.682C204.884 67.9242 205.096 68.1279 205.344 68.2782C205.804 68.6039 206.295 68.8365 206.698 69.1259C207.088 69.3775 207.397 69.7365 207.587 70.1597C207.719 70.4902 207.728 70.8569 207.613 71.1935C207.549 71.4064 207.412 71.5896 207.225 71.7104C207.159 71.7328 207.088 71.7382 207.019 71.7259Z" fill="#455A64"/>
<path d="M204.393 38.6086C204.393 38.6086 204.393 38.6706 204.393 38.7895C204.392 38.9633 204.373 39.1365 204.336 39.3064C204.209 39.9387 203.898 40.5194 203.442 40.9759C203.103 41.3188 202.692 41.5817 202.239 41.7454C201.785 41.909 201.301 41.9693 200.821 41.9218C200.248 41.8796 199.696 41.689 199.219 41.3688C198.738 41.0063 198.307 40.5822 197.937 40.1075C197.577 39.6555 197.158 39.2539 196.691 38.9135C196.251 38.6061 195.766 38.3674 195.254 38.2054C194.381 37.9336 193.452 37.8997 192.561 38.1072C191.959 38.2509 191.384 38.4937 190.861 38.8256C190.489 39.0634 190.302 39.2237 190.292 39.2082C190.436 39.0225 190.611 38.8634 190.809 38.7378C191.323 38.3613 191.903 38.0859 192.52 37.9263C193.443 37.6799 194.416 37.6942 195.332 37.9676C195.871 38.1317 196.382 38.3775 196.846 38.6964C197.335 39.0464 197.774 39.4621 198.149 39.9318C198.504 40.3887 198.916 40.7986 199.374 41.1517C199.814 41.4437 200.321 41.6214 200.847 41.6686C201.295 41.7168 201.748 41.6669 202.175 41.5223C202.601 41.3777 202.992 41.1419 203.318 40.8312C203.76 40.4068 204.08 39.8711 204.243 39.2805C204.352 38.8567 204.352 38.6086 204.393 38.6086Z" fill="#455A64"/>
<path d="M193.171 45.4987C193.094 45.7158 192.298 45.6125 191.367 45.7262C190.437 45.8399 189.682 46.0932 189.558 45.9019C189.501 45.8089 189.63 45.6021 189.935 45.385C190.341 45.1284 190.8 44.9676 191.278 44.9147C191.755 44.8619 192.238 44.9184 192.69 45.0801C193.021 45.23 193.207 45.4005 193.171 45.4987Z" fill="#263238"/>
<path d="M200.49 46.1656C200.351 46.3465 199.803 46.1656 199.146 46.1656C198.49 46.1656 197.927 46.2896 197.797 46.0984C197.746 46.0054 197.834 45.8244 198.076 45.6539C198.402 45.443 198.785 45.3399 199.172 45.3592C199.557 45.3681 199.931 45.4943 200.242 45.7211C200.475 45.8916 200.552 46.0777 200.49 46.1656Z" fill="#263238"/>
<path d="M177.98 100.243C178.259 100.724 176.217 93.8438 176.217 93.8438L174.506 100.129L161.816 100.222C161.816 100.222 168.986 76.7863 172.392 73.5144C176.837 69.2448 185.17 69.0122 185.17 69.0122L190.158 73.2663L198.035 69.219L198.325 69.25C200.907 69.5677 203.371 70.5193 205.497 72.02C207.622 73.5207 209.344 75.5239 210.508 77.8511L219.052 99.9897H207.773L205.365 93.4561L206.171 99.9897" fill="#016CDE"/>
<path d="M181.133 69.519L192.566 95.5291L198.345 69.2502C198.345 69.2502 196.743 69.1571 194.453 69.0692C193.187 69.0227 191.708 74.0314 190.178 74.0056C189.196 74.0056 188.199 68.9245 187.211 68.9297C185.966 68.9297 184.751 68.9297 183.645 69.0124C182.683 69.0641 181.841 69.4518 181.133 69.519Z" fill="#FAFAFA"/>
<path d="M183.283 69.7618V67.3738C183.283 67.3738 190.096 67.4668 190.215 72.9201C190.215 72.9201 191.181 67.5444 196.681 67.3738L197.032 69.2036L195.482 75.4735L191.512 78.1148H186.162L183.95 75.2047L183.283 69.7618Z" fill="#FAFAFA"/>
<path d="M192.468 96.2216C192.478 96.1226 192.501 96.0253 192.535 95.9321C192.622 95.6576 192.733 95.3912 192.866 95.1361C193.087 94.7359 193.358 94.3659 193.673 94.0351C194.034 93.6423 194.469 93.2288 194.908 92.7377C196.002 91.6388 196.957 90.4097 197.751 89.0781C198.183 88.2816 198.432 87.3986 198.48 86.4936C198.55 85.5251 198.269 84.5638 197.689 83.7851L197.508 83.5525H197.808C197.923 83.5652 198.039 83.5652 198.154 83.5525C198.63 83.4541 199.055 83.1859 199.348 82.7978C199.641 82.4171 199.828 81.9661 199.891 81.4901C199.962 80.5612 199.89 79.6269 199.679 78.7195C199.384 76.9414 199.116 75.339 198.893 73.9796C198.671 72.6202 198.511 71.5761 198.376 70.7852C198.33 70.4286 198.288 70.1443 198.252 69.9117C198.234 69.811 198.226 69.7089 198.226 69.6067C198.265 69.7033 198.293 69.8039 198.309 69.9065C198.351 70.1288 198.413 70.4234 198.48 70.7645C198.63 71.5554 198.831 72.6305 199.074 73.9486L199.917 78.673C200.144 79.6077 200.221 80.5726 200.144 81.5314C200.079 82.0536 199.873 82.5484 199.55 82.9632C199.218 83.4062 198.733 83.7101 198.19 83.8161C198.055 83.8313 197.918 83.8313 197.782 83.8161L197.896 83.599C198.516 84.4268 198.816 85.4516 198.738 86.4833C198.687 87.428 198.422 88.3488 197.963 89.1763C197.15 90.5206 196.168 91.7556 195.042 92.8514C194.588 93.3373 194.143 93.7456 193.776 94.123C193.46 94.4332 193.182 94.7803 192.949 95.1568C192.592 95.8236 192.504 96.2319 192.468 96.2216Z" fill="#263238"/>
<path d="M192.468 95.9994C192.388 95.9297 192.316 95.8498 192.256 95.7616L191.672 95.0638C191.155 94.4591 190.416 93.601 189.47 92.5569C188.524 91.5128 187.403 90.2671 186.25 88.7784C185.628 88.0129 185.092 87.1808 184.653 86.2973C184.173 85.3115 184.104 84.1756 184.462 83.1391C184.518 82.9997 184.586 82.8649 184.663 82.7359L184.73 82.9323C183.737 82.5732 182.853 81.9623 182.167 81.1594C181.533 80.4265 181.036 79.5863 180.699 78.6783C180.156 77.1445 179.939 75.5142 180.063 73.8918C180.131 72.8103 180.26 71.7334 180.45 70.6664C180.518 70.3149 180.569 70.0306 180.616 69.8032C180.627 69.7005 180.651 69.5997 180.688 69.5034C180.7 69.6065 180.7 69.7105 180.688 69.8135C180.657 70.041 180.621 70.3304 180.574 70.6819C180.481 71.4418 180.321 72.5376 180.275 73.9022C180.176 75.4944 180.405 77.09 180.947 78.5904C181.281 79.468 181.768 80.2799 182.384 80.9888C183.039 81.751 183.879 82.3328 184.823 82.679L184.973 82.7307L184.891 82.8755C184.824 82.9929 184.764 83.1137 184.71 83.2373C184.381 84.2073 184.448 85.2677 184.896 86.1888C185.32 87.0575 185.84 87.8758 186.446 88.6285C187.563 90.112 188.685 91.3629 189.61 92.4277C190.535 93.4925 191.269 94.3712 191.75 95.0121C191.993 95.3275 192.174 95.5704 192.292 95.7461C192.36 95.8238 192.419 95.9087 192.468 95.9994Z" fill="#263238"/>
<path d="M192.344 100.186C192.228 99.4148 192.202 98.6325 192.267 97.855C192.246 97.0765 192.312 96.2982 192.463 95.5342C192.599 97.0844 192.559 98.645 192.344 100.186Z" fill="#263238"/>
<path d="M175.886 95.3946C175.942 95.0921 176.016 94.7935 176.108 94.5003C176.258 93.9266 176.475 93.0944 176.682 92.0554C177.22 89.351 177.428 86.5913 177.303 83.8368C177.258 82.324 177.053 80.8201 176.693 79.3502C176.401 78.1526 175.852 77.0327 175.085 76.0679C174.567 75.4202 173.928 74.8795 173.204 74.4758C172.687 74.1967 172.361 74.1089 172.371 74.083C172.45 74.0919 172.528 74.1092 172.604 74.1347C172.826 74.1984 173.042 74.2814 173.25 74.3828C174.013 74.7548 174.689 75.2831 175.235 75.9335C176.038 76.9093 176.619 78.049 176.936 79.2726C177.312 80.7596 177.525 82.283 177.571 83.8161C177.702 86.5918 177.466 89.3726 176.868 92.0864C176.636 93.1202 176.393 93.9524 176.212 94.521C176.119 94.8001 176.036 95.0379 175.984 95.1671C175.933 95.2963 175.897 95.4256 175.886 95.3946Z" fill="#263238"/>
<path d="M205.463 91.1818C205.429 90.8954 205.417 90.6069 205.427 90.3186C205.427 89.7604 205.427 88.9592 205.375 87.9668C205.286 85.3842 205.06 82.8081 204.698 80.2495C204.195 76.854 203.468 73.4955 202.522 70.1959L202.486 70.0615L202.589 70.1442C202.775 70.274 202.948 70.4211 203.106 70.5836C202.907 70.4785 202.719 70.3557 202.542 70.2166L202.615 70.1701C203.703 73.4391 204.491 76.8009 204.967 80.2133C205.336 82.782 205.538 85.3719 205.571 87.9668C205.571 88.9644 205.571 89.7707 205.535 90.3238C205.536 90.6113 205.511 90.8984 205.463 91.1818Z" fill="#263238"/>
<path d="M188.948 69.829C188.948 69.8548 188.819 69.829 188.643 69.9685C188.413 70.165 188.236 70.4154 188.126 70.6974C187.634 71.6363 187.327 72.6611 187.222 73.716L187.186 74.052L186.979 73.778L186.607 73.2611C185.743 72.1395 184.896 71.1936 184.27 70.4906C183.91 70.1406 183.576 69.764 183.273 69.3638C183.687 69.6538 184.068 69.9883 184.41 70.3614C185.274 71.2175 186.078 72.131 186.819 73.0957L187.196 73.6126L186.953 73.6747C187.074 72.589 187.426 71.542 187.987 70.6043C188.131 70.3037 188.357 70.0495 188.638 69.8703C188.809 69.7721 188.953 69.8186 188.948 69.829Z" fill="#263238"/>
<path d="M196.944 69.3174C196.678 69.7663 196.372 70.1901 196.03 70.5838C195.44 71.3488 194.608 72.3929 193.678 73.5352L193.187 74.1348L192.959 74.414V74.0521C192.964 73.4586 192.921 72.8657 192.83 72.2792C192.753 71.8161 192.588 71.3722 192.344 70.9714C192.106 70.6146 191.805 70.3045 191.455 70.0565C191.575 70.0769 191.688 70.1247 191.786 70.1961C192.071 70.3678 192.316 70.5987 192.504 70.8732C192.785 71.2845 192.979 71.7489 193.073 72.2378C193.184 72.8345 193.239 73.4401 193.238 74.047L193.001 73.9694L193.492 73.3647C194.422 72.2223 195.275 71.1989 195.906 70.4649C196.218 70.0532 196.566 69.6692 196.944 69.3174Z" fill="#263238"/>
<path d="M192.241 94.9086C192.178 94.6244 192.137 94.3358 192.117 94.0454C192.05 93.4406 191.967 92.6498 191.863 91.6884C191.662 89.6932 191.409 86.9381 191.14 83.8936C190.871 80.8491 190.623 78.0941 190.489 76.0937C190.421 75.1323 190.37 74.3362 190.323 73.7315C190.298 73.4408 190.298 73.1486 190.323 72.8579C190.386 73.1423 190.43 73.4307 190.452 73.7211C190.514 74.3259 190.597 75.1167 190.7 76.0782C190.902 78.0734 191.16 80.8284 191.429 83.8729C191.698 86.9174 191.946 89.6725 192.075 91.6677C192.143 92.6343 192.199 93.4303 192.241 94.0351C192.266 94.3257 192.266 94.618 192.241 94.9086Z" fill="#263238"/>
<path d="M192.256 77.6083C192.256 77.5824 192.447 77.4532 192.727 77.6393C192.807 77.6943 192.873 77.7675 192.92 77.8528C192.966 77.9381 192.992 78.0331 192.995 78.1303C192.984 78.2528 192.936 78.3691 192.859 78.465C192.782 78.5609 192.679 78.6322 192.562 78.6701C192.445 78.708 192.319 78.7109 192.201 78.6784C192.082 78.6458 191.976 78.5793 191.894 78.487C191.839 78.4072 191.804 78.3154 191.791 78.2192C191.779 78.123 191.789 78.0252 191.822 77.9339C191.941 77.6186 192.189 77.5979 192.184 77.6289C192.179 77.66 192.044 77.7478 192.008 77.9804C191.996 78.0415 191.997 78.1045 192.011 78.1652C192.025 78.2258 192.053 78.2827 192.091 78.3319C192.14 78.3828 192.203 78.4182 192.272 78.4339C192.34 78.4495 192.412 78.4446 192.478 78.4198C192.548 78.4015 192.61 78.3633 192.658 78.31C192.705 78.2568 192.737 78.1907 192.747 78.12C192.748 78.0582 192.736 77.9968 192.712 77.9399C192.688 77.8829 192.653 77.8316 192.608 77.7892C192.437 77.6186 192.261 77.6496 192.256 77.6083Z" fill="#263238"/>
<path d="M193.249 84.054C193.249 84.023 193.476 83.9403 193.709 84.1884C193.778 84.26 193.828 84.3474 193.855 84.443C193.882 84.5386 193.885 84.6393 193.864 84.7363C193.827 84.8587 193.752 84.966 193.65 85.0423C193.547 85.1187 193.423 85.16 193.295 85.1602C193.168 85.172 193.041 85.1421 192.933 85.0749C192.825 85.0077 192.741 84.907 192.696 84.788C192.665 84.6929 192.658 84.5916 192.676 84.4933C192.694 84.395 192.737 84.3027 192.799 84.2246C193.011 83.961 193.264 84.023 193.244 84.054C193.223 84.0851 193.068 84.1161 192.959 84.3332C192.928 84.3883 192.908 84.4498 192.903 84.5132C192.898 84.5766 192.906 84.6405 192.928 84.7002C192.961 84.7649 193.012 84.818 193.076 84.8523C193.14 84.8865 193.213 84.9002 193.285 84.8914C193.358 84.8936 193.429 84.8735 193.49 84.8337C193.551 84.794 193.599 84.7366 193.626 84.6691C193.641 84.6078 193.643 84.544 193.633 84.4818C193.622 84.4195 193.599 84.3601 193.564 84.3073C193.43 84.0799 193.249 84.054 193.249 84.054Z" fill="#263238"/>
<g opacity="0.3">
<path d="M180.461 69.8289C179.494 73.2662 178.579 77.1584 180.378 80.2443C180.895 81.1747 181.681 81.9655 182.187 82.9166C183.061 84.5448 183.118 86.478 183.66 88.2406C184.751 91.8124 188.648 95.2859 192.344 95.8286C190.437 93.5078 187.485 90.484 185.728 87.853C185.169 87.1671 184.757 86.3736 184.518 85.5218C184.301 84.5655 184.141 83.5524 184.777 82.8029C182.306 82.4204 180.9 79.8669 180.456 77.4065C180.045 74.9326 180.149 72.4005 180.761 69.9684" fill="black"/>
</g>
<g opacity="0.3">
<path d="M205.566 88.1115C204.951 91.8022 205.365 96.6403 207.634 99.6176C208.466 95.5652 208.053 90.267 205.566 86.9434" fill="black"/>
</g>
<path d="M145.162 42.8574H84.4062V144.365H145.162V42.8574Z" fill="#F5F5F5"/>
<path d="M112.303 114.551C112.303 114.623 107.692 114.685 102.001 114.685C96.3103 114.685 91.71 114.602 91.71 114.551C91.71 114.499 96.3258 114.416 102.012 114.416C107.697 114.416 112.303 114.452 112.303 114.551Z" fill="#263238"/>
<path d="M138.194 119.001C138.194 119.073 127.908 119.135 115.218 119.135C102.529 119.135 92.2423 119.073 92.2423 119.001C92.2423 118.929 102.529 118.867 115.218 118.867C127.908 118.867 138.194 118.929 138.194 119.001Z" fill="#263238"/>
<path d="M138.194 122.847C138.194 122.919 127.908 122.981 115.218 122.981C102.529 122.981 92.2423 122.919 92.2423 122.847C92.2423 122.774 102.529 122.707 115.218 122.707C127.908 122.707 138.194 122.769 138.194 122.847Z" fill="#263238"/>
<path d="M138.194 126.687C138.194 126.759 127.908 126.822 115.218 126.822C102.529 126.822 92.2423 126.759 92.2423 126.687C92.2423 126.615 102.529 126.553 115.218 126.553C127.908 126.553 138.194 126.615 138.194 126.687Z" fill="#263238"/>
<path d="M138.194 130.533C138.194 130.605 127.908 130.667 115.218 130.667C102.529 130.667 92.2423 130.605 92.2423 130.533C92.2423 130.461 102.529 130.399 115.218 130.399C127.908 130.399 138.194 130.456 138.194 130.533Z" fill="#263238"/>
<path d="M138.194 134.374C138.194 134.451 127.908 134.508 115.218 134.508C102.529 134.508 92.2268 134.451 92.2268 134.374C92.2268 134.296 102.513 134.239 115.203 134.239C127.893 134.239 138.194 134.301 138.194 134.374Z" fill="#263238"/>
<path d="M140.644 48.0107H88.3088V98.2529H140.644V48.0107Z" fill="#E0E0E0"/>
<path d="M310.621 98.5428C311.589 94.474 309.074 90.3916 305.005 89.4245C300.936 88.4574 296.854 90.9719 295.887 95.0407C294.92 99.1095 297.434 103.192 301.503 104.159C305.572 105.126 309.654 102.612 310.621 98.5428Z" fill="#E0E0E0"/>
<path d="M302.086 100.01C302.406 99.6475 302.761 99.3168 303.146 99.0231C303.828 98.4442 304.779 97.6534 305.844 96.7902V96.9969L305.792 96.9504C304.758 96.0407 303.807 95.2085 303.135 94.5934C302.759 94.2816 302.413 93.9355 302.102 93.5596C302.516 93.8215 302.907 94.119 303.27 94.4486C303.973 95.0276 304.929 95.8391 305.978 96.7488L306.03 96.7902L306.154 96.8987L306.025 96.9969C304.965 97.8601 303.993 98.6303 303.285 99.173C302.91 99.4857 302.509 99.7658 302.086 100.01Z" fill="#263238"/>
<path d="M87.701 98.825C88.6629 94.7683 86.1541 90.6999 82.0974 89.738C78.0406 88.7761 73.9723 91.285 73.0104 95.3417C72.0485 99.3984 74.5573 103.467 78.614 104.429C82.6707 105.391 86.7391 102.882 87.701 98.825Z" fill="#E0E0E0"/>
<path d="M81.889 93.5596C81.5633 93.9173 81.2071 94.2459 80.8242 94.5417C80.1419 95.1258 79.196 95.9166 78.1312 96.7798V96.5731L78.188 96.6196C79.2218 97.5293 80.1729 98.3615 80.8397 98.9766C81.2161 99.2879 81.5622 99.634 81.8735 100.01C81.4561 99.7485 81.0633 99.4492 80.7001 99.1162C79.9972 98.5424 79.0409 97.7309 77.9968 96.8212L77.9399 96.7747L77.821 96.6713L77.9451 96.5679C79.0099 95.7099 79.9817 94.9397 80.6898 94.3969C81.0611 94.0792 81.4628 93.7987 81.889 93.5596Z" fill="#263238"/>
<path d="M163.326 22.6728C153.178 28.0642 144.857 36.3434 139.414 46.4636C133.972 56.5838 131.652 68.0906 132.749 79.529C133.845 90.9675 138.309 101.824 145.575 110.726C152.841 119.628 162.584 126.175 173.571 129.541C182.504 132.273 191.965 132.81 201.15 131.104C210.335 129.399 218.973 125.502 226.33 119.746L275.295 180.997L282.785 175.027L233.406 113.259C239.26 106.895 243.612 99.2997 246.143 91.0321C246.758 89.0242 247.266 86.9847 247.662 84.9224C249.725 74.1578 248.7 63.0294 244.708 52.822C240.716 42.6146 233.918 33.7445 225.1 27.2356C216.281 20.7266 205.802 16.8444 194.871 16.037C183.941 15.2297 173.005 17.5301 163.326 22.6728ZM204.786 27.5988C215.52 30.8843 224.783 37.7901 230.996 47.1395C237.209 56.489 239.989 67.7036 238.86 78.8724C237.732 90.0413 232.766 100.473 224.808 108.391C216.85 116.309 206.393 121.222 195.218 122.294C184.044 123.366 172.844 120.53 163.526 114.27C154.208 108.009 147.349 98.7118 144.118 87.9612C140.886 77.2105 141.483 65.6721 145.805 55.3119C150.128 44.9518 157.909 36.4109 167.823 31.1447C173.443 28.1391 179.604 26.2781 185.949 25.6694C192.294 25.0608 198.696 25.7165 204.786 27.5988Z" fill="#455A64"/>
<mask id="mask0_22434_20362" style="mask-type:alpha" maskUnits="userSpaceOnUse" x="88" y="48" width="57" height="51">
<rect x="88.3088" y="48.0107" width="56.5534" height="50.1654" fill="#D9D9D9"/>
</mask>
<g mask="url(#mask0_22434_20362)">
<path d="M104.478 60.4097C104.906 59.501 104.449 58.3389 103.61 57.7913C102.771 57.2437 101.659 57.2366 100.712 57.5689C99.8724 57.8768 99.138 58.4175 98.5947 59.1277C98.0514 59.8379 97.7216 60.6881 97.6441 61.579C96.9101 61.7765 96.2625 62.2122 95.8029 62.8176C94.4925 64.4747 94.6933 67.0906 96.152 68.621C97.6106 70.1514 100.107 70.5076 101.998 69.5631C103.89 68.6186 105.107 66.5096 105.083 64.3958" fill="#263238"/>
<path d="M105.86 61.366C105.903 61.1833 105.885 60.9919 105.811 60.8197C105.736 60.6476 105.609 60.5038 105.447 60.4095C105.279 60.3197 105.095 60.266 104.905 60.252C104.716 60.238 104.525 60.264 104.347 60.3282C103.99 60.4585 103.66 60.653 103.373 60.9021C102.929 61.2388 102.547 61.6498 102.242 62.1168C101.939 62.5884 101.802 63.1485 101.855 63.707C101.885 63.9841 101.983 64.2495 102.141 64.4794C102.299 64.7094 102.511 64.8966 102.759 65.0245C103.01 65.1447 103.294 65.18 103.567 65.1252C103.841 65.0705 104.089 64.9286 104.275 64.7208" fill="#016CDE"/>
<path d="M107.254 56.3421C107.221 55.3067 108.175 54.5033 109.136 54.1183C110.097 53.7333 111.169 53.5874 112.025 53.004C112.783 52.4899 113.292 51.6888 113.938 51.0313C114.728 50.2225 115.72 49.6386 116.81 49.3393C117.901 49.0401 119.052 49.0363 120.144 49.3283C121.237 49.6203 122.232 50.1977 123.028 51.0011C123.824 51.8046 124.392 52.8053 124.674 53.9007C125.049 55.3736 124.806 57.1192 123.648 58.1044C122.304 59.2474 120.301 59.0035 118.574 58.6567C116.848 58.31 114.884 57.9729 113.447 58.9939C112.579 59.6108 112.084 60.6079 111.556 61.5309C111.028 62.4539 110.36 63.4008 109.361 63.75C108.361 64.0991 106.989 63.5108 106.943 62.4468" fill="#263238"/>
<path d="M107.324 56.9185C107.443 57.7865 106.819 58.566 106.195 59.183C105.571 59.7999 104.87 60.4503 104.76 61.3207C104.636 62.3345 105.382 63.3293 105.171 64.3312C105.038 64.9648 104.547 65.4574 104.251 66.0337C103.857 66.8665 103.795 67.8184 104.079 68.6951C104.339 69.5679 104.76 71.5191 105.37 72.1934C107.058 74.0657 109.741 75.6726 112.199 76.2273C114.657 76.7821 117.209 76.7701 119.724 76.6051C121.783 76.4688 124.15 76.5525 125.853 73.7118C126.735 72.2412 127.166 70.2876 127.632 68.6377C128.031 67.2149 128.376 65.6918 127.948 64.2786C127.696 63.456 127.197 62.7267 126.95 61.9017C126.642 60.8711 126.747 59.7688 126.62 58.6999C126.482 57.539 126.069 56.4278 125.416 55.4586C124.762 54.4895 123.886 53.6904 122.861 53.1277C121.837 52.565 120.692 52.2551 119.524 52.2236C118.355 52.1921 117.196 52.4401 116.142 52.9468" fill="#263238"/>
<path d="M125.645 60.3833C125.439 57.4302 123.457 53.8172 120.516 54.1495L111.336 56.5407C110.905 56.5891 110.508 56.7975 110.223 57.1248C109.938 57.452 109.787 57.8742 109.798 58.3078L110.932 80.4741L110.87 80.486C110.87 80.486 112.993 86.7294 119.06 84.7902C120.255 84.4052 120.807 83.0852 121.039 81.7294H121.102C121.102 81.5668 121.102 81.4186 121.102 81.2656C121.216 80.2553 121.223 79.2358 121.123 78.224C121.123 76.4354 121.123 75.7013 121.123 75.718C121.123 75.7347 124.894 75.0652 125.645 70.1346C126.025 67.6788 125.874 63.6664 125.645 60.3833Z" fill="#FFBE9D"/>
<path d="M124.406 63.7425C124.409 63.9073 124.348 64.0668 124.235 64.1866C124.121 64.3065 123.966 64.3771 123.801 64.3833C123.721 64.3905 123.64 64.3815 123.563 64.3568C123.487 64.3321 123.416 64.2922 123.355 64.2396C123.294 64.1869 123.244 64.1226 123.209 64.0503C123.173 63.9781 123.153 63.8994 123.148 63.819C123.145 63.6546 123.206 63.4955 123.319 63.3757C123.432 63.2559 123.587 63.185 123.751 63.1782C123.831 63.171 123.912 63.18 123.989 63.2047C124.066 63.2293 124.137 63.2692 124.198 63.3218C124.259 63.3744 124.309 63.4388 124.345 63.511C124.38 63.5833 124.401 63.662 124.406 63.7425Z" fill="#263238"/>
<path d="M124.789 62.4801C124.712 62.5614 124.229 62.2099 123.55 62.2171C122.871 62.2243 122.374 62.5662 122.3 62.4849C122.264 62.4491 122.343 62.2984 122.558 62.1382C122.852 61.9335 123.201 61.8233 123.56 61.8226C123.913 61.8197 124.258 61.9285 124.545 62.1334C124.755 62.2936 124.827 62.4419 124.789 62.4801Z" fill="#263238"/>
<path d="M117.914 63.8215C117.917 63.9861 117.855 64.1453 117.742 64.265C117.629 64.3847 117.474 64.4555 117.309 64.4624C117.229 64.4696 117.148 64.4605 117.072 64.4358C116.995 64.4111 116.924 64.3713 116.863 64.3186C116.802 64.266 116.753 64.2016 116.717 64.1294C116.681 64.0571 116.661 63.9784 116.656 63.8981C116.653 63.7334 116.714 63.574 116.827 63.4539C116.939 63.3337 117.094 63.2623 117.259 63.2548C117.339 63.2476 117.421 63.2567 117.498 63.2815C117.574 63.3064 117.646 63.3464 117.707 63.3993C117.768 63.4521 117.818 63.5168 117.853 63.5893C117.889 63.6619 117.91 63.7408 117.914 63.8215Z" fill="#263238"/>
<path d="M118.108 62.657C118.029 62.7383 117.548 62.3891 116.869 62.3939C116.19 62.3987 115.693 62.7454 115.619 62.6617C115.583 62.6259 115.662 62.4752 115.877 62.315C116.17 62.1102 116.519 62 116.876 61.9994C117.231 61.9952 117.577 62.105 117.864 62.3126C118.074 62.4657 118.146 62.6139 118.108 62.657Z" fill="#263238"/>
<path d="M120.609 67.6786C120.609 67.6403 121.027 67.5638 121.711 67.4706C121.886 67.4514 122.048 67.418 122.077 67.2984C122.091 67.1188 122.05 66.9392 121.958 66.7843L121.436 65.4667C120.719 63.5897 120.183 62.045 120.26 62.0163C120.336 61.9876 120.977 63.4869 121.711 65.3639C121.885 65.8262 122.052 66.2686 122.211 66.691C122.322 66.8992 122.355 67.1396 122.307 67.3701C122.282 67.4318 122.244 67.487 122.194 67.5314C122.145 67.5758 122.086 67.6082 122.022 67.626C121.927 67.6538 121.828 67.6683 121.728 67.669C121.039 67.7097 120.611 67.7145 120.609 67.6786Z" fill="#263238"/>
<path d="M121.123 75.7177C118.805 75.7691 116.517 75.1755 114.516 74.0032C114.516 74.0032 116.137 77.3747 121.066 76.8726L121.123 75.7177Z" fill="#EB996E"/>
<path d="M120.334 69.3167C120.204 69.1545 120.034 69.0282 119.841 68.95C119.648 68.8717 119.438 68.844 119.232 68.8696C119.082 68.8838 118.936 68.9282 118.804 69.0001C118.672 69.072 118.555 69.17 118.462 69.288C118.373 69.4025 118.321 69.5412 118.312 69.6859C118.303 69.8306 118.339 69.9745 118.414 70.0987C118.524 70.2202 118.667 70.306 118.826 70.3452C118.985 70.3844 119.152 70.3752 119.306 70.3186C119.626 70.2024 119.92 70.0245 120.171 69.795C120.248 69.7401 120.314 69.6712 120.365 69.5917C120.389 69.5537 120.401 69.5098 120.401 69.465C120.401 69.4202 120.389 69.3763 120.365 69.3383" fill="#EB996E"/>
<path d="M118.612 68.157C118.722 68.157 118.73 68.8887 119.363 69.4076C119.997 69.9265 120.784 69.8404 120.798 69.9432C120.798 69.991 120.623 70.0891 120.291 70.0986C119.857 70.1098 119.433 69.9666 119.095 69.6945C118.773 69.4332 118.563 69.0569 118.512 68.6448C118.493 68.3387 118.562 68.157 118.612 68.157Z" fill="#263238"/>
<path d="M118.404 61.4615C118.34 61.6481 117.661 61.5644 116.864 61.6648C116.068 61.7652 115.43 61.99 115.315 61.825C115.267 61.7437 115.379 61.5692 115.638 61.3898C115.983 61.1689 116.375 61.0291 116.782 60.9811C117.19 60.933 117.603 60.9779 117.991 61.1124C118.285 61.2224 118.433 61.3707 118.404 61.4615Z" fill="#263238"/>
<path d="M124.526 60.5051C124.406 60.6605 123.937 60.5051 123.376 60.5051C122.814 60.5051 122.335 60.6174 122.225 60.4548C122.175 60.3783 122.249 60.2157 122.465 60.0746C122.742 59.8937 123.069 59.8035 123.399 59.8164C123.73 59.8192 124.051 59.9254 124.318 60.1201C124.511 60.2803 124.578 60.4381 124.526 60.5051Z" fill="#263238"/>
<path d="M107.972 72.7575C108.653 72.8917 109.356 72.8618 110.024 72.6703C110.691 72.4788 111.303 72.1311 111.809 71.6561C112.316 71.181 112.702 70.5922 112.935 69.9384C113.169 69.2846 113.244 68.5846 113.153 67.8962C112.993 66.7006 112.335 65.4596 112.749 64.3094C113.297 62.7934 115.418 62.3176 115.975 60.8039C116.298 59.9264 115.999 58.891 116.365 58.0373C116.711 57.2267 117.56 56.7557 118.388 56.4544C119.215 56.1531 120.102 55.9379 120.795 55.3951C121.489 54.8523 121.917 53.8289 121.465 53.0732C117.785 53.5303 114.173 54.4245 110.705 55.737C109.901 56.0407 109.06 56.4066 108.586 57.1215C108.086 57.8819 108.108 58.8575 108.163 59.7518C108.389 64.1755 108.616 68.5976 108.842 73.0181" fill="#263238"/>
<path d="M108.287 74.4506C108.259 74.4376 108.232 74.4207 108.208 74.4004L107.988 74.233C107.797 74.0847 107.51 73.8647 107.168 73.5611C106.742 73.196 106.353 72.7899 106.006 72.3487C105.533 71.7613 105.213 71.0653 105.076 70.3234C104.979 69.872 104.984 69.4046 105.092 68.9556C105.2 68.5065 105.406 68.0874 105.698 67.729C106.054 67.3738 106.436 67.0453 106.841 66.7462C107.249 66.4343 107.559 66.0107 107.732 65.5267C108.094 64.5224 107.926 63.3603 108.06 62.179C108.195 60.9382 108.673 59.7596 109.442 58.7764C109.84 58.2828 110.335 57.8759 110.896 57.5808C111.449 57.3277 112.026 57.1307 112.618 56.9925C113.168 56.851 113.682 56.5943 114.126 56.2393C114.546 55.8811 114.913 55.4657 115.217 55.0055C115.831 54.1231 116.286 53.1858 116.872 52.4015C117.145 52.0172 117.467 51.6692 117.828 51.3661C118.17 51.0886 118.558 50.8748 118.976 50.7348C119.332 50.5968 119.715 50.5437 120.094 50.5799C120.474 50.616 120.84 50.7403 121.164 50.9429C121.392 51.1177 121.58 51.3394 121.715 51.5931C121.851 51.8467 121.93 52.1265 121.948 52.4134C121.979 52.7765 121.875 53.1384 121.656 53.4297C121.6 53.5042 121.533 53.5689 121.455 53.621C121.405 53.6592 121.379 53.6784 121.379 53.6736C121.379 53.6688 121.398 53.6473 121.441 53.6042C121.509 53.5451 121.569 53.4776 121.62 53.4034C121.815 53.1141 121.9 52.7646 121.86 52.4182C121.835 52.1475 121.754 51.8849 121.621 51.6476C121.489 51.4103 121.307 51.2036 121.09 51.0409C120.78 50.8563 120.432 50.7456 120.073 50.7173C119.714 50.6891 119.353 50.7442 119.019 50.8783C118.622 51.0184 118.253 51.2272 117.928 51.4952C117.579 51.7927 117.267 52.1325 117.001 52.5067C116.434 53.279 115.989 54.214 115.367 55.1203C115.052 55.5903 114.673 56.0144 114.241 56.3804C113.777 56.7536 113.239 57.025 112.663 57.1767C112.087 57.3123 111.527 57.5054 110.989 57.7529C110.452 58.0351 109.98 58.426 109.602 58.9007C108.86 59.8512 108.396 60.9896 108.263 62.1886C108.127 63.3387 108.297 64.5176 107.914 65.5889C107.727 66.1059 107.395 66.5583 106.958 66.892C106.558 67.1824 106.181 67.5021 105.829 67.8485C105.551 68.1876 105.353 68.5846 105.249 69.0104C105.144 69.4362 105.137 69.88 105.226 70.309C105.352 71.0293 105.652 71.7076 106.102 72.2842C106.438 72.7256 106.814 73.1354 107.226 73.5085C107.563 73.8193 107.833 74.0513 108.017 74.2091C108.114 74.2816 108.204 74.3624 108.287 74.4506Z" fill="#455A64"/>
<path d="M96.2548 65.2993C96.2117 65.3163 96.1714 65.3397 96.1352 65.3687C96.0296 65.4484 95.9333 65.5399 95.8483 65.6413C95.5364 66.0261 95.3585 66.502 95.3413 66.9971C95.3391 67.7282 95.5511 68.4439 95.9511 69.0559C96.4094 69.823 97.0716 70.448 97.864 70.8612C98.6666 71.2699 99.5864 71.3866 100.466 71.1912C100.846 71.1024 101.208 70.9479 101.534 70.7345C101.815 70.5437 102.064 70.3096 102.271 70.041C102.573 69.654 102.772 69.1965 102.85 68.7115C102.87 68.581 102.878 68.449 102.874 68.317C102.875 68.2711 102.87 68.2253 102.859 68.1807C102.842 68.1807 102.859 68.3696 102.787 68.702C102.688 69.1667 102.481 69.6015 102.183 69.9717C101.74 70.5207 101.122 70.9 100.432 71.0453C99.5879 71.226 98.7071 71.1103 97.9382 70.7177C97.1729 70.316 96.5308 69.7144 96.0802 68.977C95.6878 68.391 95.472 67.7046 95.4585 66.9994C95.4648 66.5252 95.6186 66.0647 95.8985 65.6819C96.0094 65.5473 96.1284 65.4196 96.2548 65.2993Z" fill="#263238"/>
<path d="M108.612 66.6171C108.665 66.6481 108.72 66.6737 108.777 66.6936C108.887 66.7366 109.052 66.7988 109.256 66.8658C109.866 67.0589 110.504 67.1517 111.145 67.1407C112.114 67.1289 113.042 66.7475 113.739 66.0743C114.138 65.6639 114.414 65.1505 114.538 64.5917C114.688 64.0298 114.777 63.4296 115.016 62.8892C115.286 62.369 115.68 61.9225 116.161 61.5884C116.611 61.2698 117.086 60.9883 117.582 60.7467C118.538 60.2685 119.389 59.7902 119.918 59.1518C120.354 58.6659 120.607 58.0439 120.635 57.3919C120.634 57.2171 120.609 57.0434 120.561 56.8754C120.546 56.817 120.523 56.7608 120.494 56.708C120.547 56.9321 120.572 57.1617 120.571 57.3919C120.524 58.0202 120.266 58.6142 119.839 59.0777C119.318 59.6802 118.474 60.1465 117.524 60.6152C117.018 60.8558 116.533 61.139 116.075 61.4617C115.571 61.8094 115.161 62.2758 114.88 62.8199C114.61 63.3938 114.535 64.0011 114.401 64.5535C114.285 65.0863 114.025 65.5768 113.648 65.9715C112.979 66.6232 112.09 66.9996 111.157 67.026C110.526 67.0473 109.897 66.9723 109.289 66.8036C108.852 66.6912 108.617 66.6027 108.612 66.6171Z" fill="#263238"/>
<path d="M123.646 81.1363L120.752 78.946L109.856 78.2478L109.418 79.7088L112.962 101.83L110.597 120.371H125.798L123.646 81.1363Z" fill="#263238"/>
<path d="M121.288 81.5833L121.625 78.4198C121.639 78.2875 121.627 78.1538 121.589 78.0263C121.551 77.8989 121.488 77.7803 121.404 77.6775C121.319 77.5746 121.215 77.4896 121.098 77.4274C120.98 77.3652 120.851 77.327 120.719 77.315L110.676 76.4088C110.612 76.4036 110.547 76.4114 110.486 76.4317C110.425 76.4521 110.369 76.4846 110.321 76.5272C110.272 76.5698 110.233 76.6218 110.206 76.6799C110.178 76.7381 110.162 76.8012 110.16 76.8655L110.047 80.6292L112.952 85.5575L115.939 86.5139H119.59L121.69 84.271L121.288 81.5833Z" fill="#263238"/>
<path d="M111.539 79.4219C111.539 79.4219 111.683 79.4075 111.938 79.3812C112.303 79.3475 112.669 79.3411 113.034 79.3621C113.574 79.4009 114.11 79.4809 114.638 79.6012C115.238 79.7279 115.889 79.9025 116.58 80.0794C117.228 80.2503 117.888 80.3687 118.555 80.4333C119.103 80.4842 119.655 80.4462 120.19 80.321C120.552 80.2359 120.898 80.093 121.214 79.8977C121.297 79.843 121.376 79.7839 121.453 79.7208C121.506 79.6753 121.532 79.6514 121.53 79.6466C121.527 79.6419 121.408 79.728 121.183 79.8547C120.864 80.0301 120.522 80.1582 120.167 80.2349C119.639 80.3462 119.096 80.3736 118.56 80.3162C117.9 80.2449 117.246 80.1258 116.604 79.9599C115.915 79.7925 115.262 79.618 114.657 79.4984C114.122 79.3846 113.578 79.315 113.031 79.2904C112.663 79.2766 112.294 79.2966 111.929 79.3501C111.8 79.3717 111.69 79.3908 111.632 79.4075C111.575 79.4243 111.537 79.4171 111.539 79.4219Z" fill="#455A64"/>
<g opacity="0.3">
<path d="M121.049 79.9192C121.317 80.658 121.324 81.5715 120.781 82.1382C120.336 82.5997 119.624 82.7145 118.995 82.5901C118.374 82.4288 117.784 82.1636 117.252 81.8058C115.87 80.9832 114.466 80.132 112.897 79.7853C112.794 79.773 112.697 79.7325 112.615 79.6681C112.597 79.6505 112.582 79.6293 112.572 79.6059C112.562 79.5825 112.557 79.5573 112.557 79.5318C112.557 79.5063 112.562 79.4811 112.572 79.4577C112.582 79.4343 112.597 79.4131 112.615 79.3955C112.655 79.3718 112.7 79.3593 112.747 79.3596C114.134 79.2185 115.468 79.7685 116.829 80.077C118.189 80.3854 119.751 80.7011 120.996 79.967" fill="black"/>
</g>
<path d="M119.134 77.2145C119.275 77.2915 119.393 77.4045 119.475 77.5421C119.633 77.7956 119.612 78.2284 119.612 78.6946C119.588 79.6296 119.432 80.3685 119.468 80.3852C119.539 80.234 119.585 80.0726 119.605 79.907C119.682 79.5128 119.727 79.1129 119.739 78.7114C119.747 78.4881 119.742 78.2645 119.724 78.0419C119.71 77.853 119.651 77.6702 119.552 77.5086C119.482 77.4003 119.384 77.3134 119.267 77.2575C119.186 77.2049 119.134 77.2073 119.134 77.2145Z" fill="#455A64"/>
<path d="M116.482 79.9622C116.479 79.4512 116.503 78.9404 116.554 78.4318C116.647 77.9296 116.766 77.4324 116.91 76.9421C116.818 77.0642 116.748 77.2019 116.704 77.3486C116.573 77.6929 116.481 78.0506 116.429 78.4151C116.378 78.7794 116.367 79.1484 116.398 79.5151C116.401 79.6677 116.429 79.8189 116.482 79.9622Z" fill="#455A64"/>
<path d="M113.251 76.677C113.162 76.7854 113.096 76.9118 113.06 77.0476C112.952 77.3708 112.907 77.7118 112.928 78.0519C112.952 78.3922 113.042 78.7245 113.194 79.0299C113.247 79.1601 113.329 79.2769 113.433 79.3719C113.235 78.9526 113.108 78.5033 113.058 78.0424C113.045 77.5796 113.111 77.1181 113.251 76.677Z" fill="#455A64"/>
<path d="M133.694 109.577C133.694 109.577 132.343 92.2383 131.637 88.9863C130.738 84.8496 127.319 82.5588 127.319 82.5588L125.92 114.625L128.651 118.675L131.953 119.945C132.712 120.236 133.55 120.249 134.318 119.981L137.496 118.874L137.763 112.822L135.08 112.045L133.694 109.577Z" fill="#455A64"/>
<path d="M124.205 120.445L123.835 96.4256L123.153 80.9523L121.52 79.5271L127.319 82.5591L128.686 87.0569L129.906 100.089L127.61 115.369L129.191 120.397" fill="#455A64"/>
<path d="M128.878 108.902C128.878 108.902 128.899 108.838 128.933 108.714L129.069 108.166C129.129 107.927 129.198 107.638 129.265 107.296C129.332 106.954 129.421 106.578 129.49 106.136C129.559 105.694 129.645 105.232 129.712 104.72C129.779 104.209 129.841 103.663 129.904 103.09C130.009 101.935 130.078 100.662 130.078 99.3258C130.078 97.9891 129.997 96.7146 129.889 95.5621C129.825 94.9858 129.77 94.4382 129.691 93.9313C129.612 93.4244 129.543 92.9461 129.452 92.5157C129.361 92.0853 129.294 91.6979 129.225 91.356C129.155 91.0141 129.086 90.7247 129.024 90.488C128.961 90.2513 128.921 90.0767 128.885 89.9404C128.872 89.8768 128.854 89.8144 128.83 89.7539C128.835 89.8192 128.845 89.884 128.861 89.9476C128.89 90.0839 128.928 90.268 128.978 90.4976C129.028 90.7271 129.093 91.0284 129.155 91.3703C129.217 91.7123 129.301 92.0997 129.366 92.5301C129.43 92.9605 129.514 93.4339 129.576 93.9433C129.638 94.4526 129.703 95.0002 129.763 95.574C129.865 96.7242 129.935 97.9915 129.942 99.3258C129.949 100.66 129.875 101.927 129.777 103.078C129.719 103.651 129.669 104.199 129.598 104.708C129.526 105.218 129.461 105.691 129.389 106.122C129.318 106.552 129.246 106.942 129.184 107.284C129.122 107.626 129.062 107.917 129.009 108.156C128.957 108.396 128.926 108.57 128.897 108.709C128.883 108.772 128.877 108.837 128.878 108.902Z" fill="#263238"/>
<path d="M100.647 82.1929C99.4303 82.6661 98.3481 83.431 97.4958 84.4204C96.6436 85.4098 96.0474 86.5934 95.7598 87.8672C93.8636 96.2363 90.6188 107.348 90.5685 110.935C90.504 115.507 92.503 118.635 95.1118 119.211C96.6015 119.541 106.752 119.376 112.264 119.259C113.247 119.238 114.191 118.864 114.922 118.206C115.654 117.547 116.124 116.648 116.247 115.672C116.381 114.606 116.092 113.531 115.442 112.676C114.792 111.821 113.833 111.254 112.771 111.098L101.606 109.455L103.679 97.8695L101.628 81.8223L100.647 82.1929Z" fill="#455A64"/>
<path d="M111.829 92.2863L109.731 81.3418C109.499 80.3081 109.653 79.2249 110.167 78.2979L110.143 77.7288L105.819 80.1128L101.633 81.8249L101.532 94.5507L104.05 120.337L112.924 120.371L112.907 108.857C113.236 103.31 112.874 97.7438 111.829 92.2863Z" fill="#455A64"/>
<path d="M103.801 96.6909C103.784 96.7322 103.773 96.7757 103.768 96.82C103.749 96.9181 103.725 97.04 103.694 97.1907L103.455 98.5584C103.249 99.7325 102.976 101.323 102.666 103.083C102.355 104.842 102.108 106.43 101.912 107.611C101.824 108.178 101.75 108.642 101.697 108.984C101.676 109.137 101.659 109.261 101.644 109.359C101.639 109.403 101.639 109.447 101.644 109.491C101.662 109.451 101.674 109.408 101.678 109.364C101.699 109.266 101.723 109.142 101.754 108.994C101.817 108.652 101.903 108.19 102.008 107.626C102.218 106.468 102.486 104.871 102.799 103.102C103.113 101.332 103.366 99.7349 103.55 98.5752C103.639 98.0061 103.71 97.5422 103.763 97.1979C103.782 97.0472 103.799 96.9229 103.811 96.8224C103.811 96.7784 103.808 96.7344 103.801 96.6909Z" fill="#263238"/>
<path d="M99.6024 84.001C99.7127 84.0525 99.8271 84.0949 99.9444 84.1277C100.255 84.2405 100.558 84.3714 100.853 84.5199C101.822 85.019 102.663 85.736 103.309 86.6145C103.492 86.8618 103.652 87.1251 103.787 87.4012C103.908 87.6624 104.005 87.9337 104.079 88.2118C104.202 88.6818 104.282 89.162 104.318 89.6466C104.354 90.0626 104.361 90.4022 104.363 90.6365C104.366 90.8708 104.363 91.0024 104.363 91.0024C104.392 90.8834 104.406 90.7613 104.404 90.6389C104.422 90.306 104.422 89.9723 104.404 89.6394C104.378 89.144 104.304 88.6524 104.184 88.1712C104.111 87.8859 104.013 87.6075 103.892 87.3391C103.752 87.0555 103.588 86.785 103.4 86.5308C102.743 85.6365 101.878 84.9159 100.879 84.4314C100.578 84.2872 100.267 84.1672 99.9467 84.0727C99.8344 84.0385 99.7191 84.0145 99.6024 84.001Z" fill="#263238"/>
<path d="M94.0432 96.2056C94.0432 96.2392 93.9809 96.2583 93.9163 96.2488C93.8516 96.2392 93.8014 96.2033 93.8085 96.1697C93.8157 96.1362 93.8684 96.1147 93.9355 96.1266C94.0025 96.1386 94.0504 96.1721 94.0432 96.2056Z" fill="#FAFAFA"/>
<path d="M94.9611 96.3729C94.9611 96.4064 94.8463 96.4135 94.722 96.392C94.5976 96.3705 94.4972 96.3203 94.5044 96.2868C94.5116 96.2533 94.6168 96.2438 94.7435 96.2677C94.8702 96.2916 94.9683 96.3346 94.9611 96.3729Z" fill="#FAFAFA"/>
<path d="M95.8721 96.5664C95.8721 96.5999 95.7549 96.6022 95.633 96.5664C95.511 96.5305 95.413 96.4875 95.4202 96.454C95.4273 96.4205 95.5349 96.4181 95.6593 96.454C95.7836 96.4899 95.8793 96.5329 95.8721 96.5664Z" fill="#FAFAFA"/>
<path d="M96.7736 96.7982C96.7736 96.8317 96.6564 96.8317 96.5345 96.7982C96.4125 96.7648 96.3169 96.7121 96.3265 96.6787C96.336 96.6452 96.4436 96.6452 96.5656 96.6787C96.6875 96.7121 96.7832 96.7648 96.7736 96.7982Z" fill="#FAFAFA"/>
<path d="M97.6655 97.0663C97.6655 97.0998 97.5484 97.095 97.4264 97.0663C97.3045 97.0376 97.2112 96.9706 97.2208 96.9372C97.2303 96.9037 97.3403 96.9085 97.4599 96.9372C97.5794 96.9659 97.6894 97.0328 97.6655 97.0663Z" fill="#FAFAFA"/>
<path d="M98.5478 97.3675C98.5478 97.4009 98.4283 97.3914 98.3087 97.3483C98.1892 97.3053 98.0983 97.2455 98.1079 97.212C98.1174 97.1785 98.2274 97.1881 98.347 97.2312C98.4665 97.2742 98.5598 97.3292 98.5478 97.3675Z" fill="#FAFAFA"/>
<path d="M99.4183 97.7024C99.404 97.7358 99.2964 97.7215 99.1792 97.6761C99.062 97.6306 98.9712 97.5637 98.9855 97.5302C98.9998 97.4967 99.1051 97.5111 99.2246 97.5589C99.3442 97.6067 99.4303 97.6713 99.4183 97.7024Z" fill="#FAFAFA"/>
<path d="M100.274 98.0704C100.26 98.1015 100.152 98.0848 100.035 98.0346C99.9181 97.9844 99.8344 97.915 99.8464 97.8839C99.8583 97.8528 99.9683 97.8672 100.085 97.9198C100.203 97.9724 100.289 98.0465 100.274 98.0704Z" fill="#FAFAFA"/>
<path d="M123.591 90.3351C123.591 90.3711 123.546 90.4046 123.481 90.4141C123.416 90.4237 123.359 90.4022 123.354 90.3687C123.349 90.3351 123.4 90.2992 123.464 90.2896C123.529 90.2801 123.586 90.3016 123.591 90.3351Z" fill="#FAFAFA"/>
<path d="M124.507 90.2539C124.507 90.2874 124.409 90.3233 124.282 90.3328C124.155 90.3424 124.043 90.3209 124.043 90.2874C124.043 90.2539 124.141 90.2181 124.267 90.2085C124.394 90.1989 124.504 90.2181 124.507 90.2539Z" fill="#FAFAFA"/>
<path d="M125.427 90.2345C125.427 90.268 125.322 90.2967 125.188 90.2967C125.054 90.2967 124.949 90.2704 124.949 90.2345C124.949 90.1987 125.052 90.1724 125.188 90.1724C125.324 90.1724 125.427 90.1987 125.427 90.2345Z" fill="#FAFAFA"/>
<path d="M126.345 90.2779C126.345 90.3137 126.238 90.3352 126.106 90.3257C125.975 90.3161 125.867 90.2826 125.882 90.2492C125.896 90.2157 125.987 90.1942 126.121 90.2013C126.255 90.2085 126.348 90.2444 126.345 90.2779Z" fill="#FAFAFA"/>
<path d="M127.259 90.3947C127.259 90.4282 127.146 90.4425 127.02 90.4234C126.893 90.4043 126.797 90.366 126.8 90.3325C126.802 90.2991 126.91 90.2847 127.039 90.3014C127.168 90.3182 127.264 90.3517 127.259 90.3947Z" fill="#FAFAFA"/>
<path d="M128.163 90.5574C128.163 90.5909 128.048 90.5981 127.924 90.5717C127.799 90.5454 127.706 90.4976 127.711 90.4641C127.716 90.4307 127.823 90.4235 127.95 90.4498C128.077 90.4761 128.17 90.5239 128.163 90.5574Z" fill="#FAFAFA"/>
<path d="M128.84 90.7299C128.84 90.7635 128.77 90.7754 128.708 90.7587C128.646 90.7419 128.6 90.7012 128.607 90.6677C128.615 90.6342 128.677 90.6198 128.739 90.6389C128.801 90.6581 128.849 90.6964 128.84 90.7299Z" fill="#FAFAFA"/>
<path d="M123.589 82.1238C123.589 82.1597 123.531 82.1836 123.467 82.1812C123.402 82.1788 123.349 82.1453 123.349 82.1118C123.349 82.0783 123.407 82.0519 123.474 82.0567C123.541 82.0615 123.591 82.0902 123.589 82.1238Z" fill="#FAFAFA"/>
<path d="M124.619 82.2098C124.619 82.2457 124.497 82.2624 124.356 82.2481C124.215 82.2337 124.103 82.1955 124.105 82.162C124.107 82.1285 124.224 82.1094 124.368 82.1237C124.511 82.1381 124.624 82.1763 124.619 82.2098Z" fill="#FAFAFA"/>
<path d="M125.642 82.351C125.642 82.3845 125.518 82.3964 125.379 82.3749C125.241 82.3534 125.128 82.3079 125.14 82.2745C125.152 82.241 125.262 82.229 125.403 82.2506C125.544 82.2721 125.65 82.3175 125.642 82.351Z" fill="#FAFAFA"/>
<path d="M126.659 82.5446C126.659 82.5781 126.532 82.5828 126.393 82.5446C126.255 82.5063 126.154 82.4657 126.154 82.4322C126.154 82.3987 126.281 82.3939 126.42 82.4322C126.558 82.4705 126.666 82.5039 126.659 82.5446Z" fill="#FAFAFA"/>
<path d="M127.396 82.7191C127.396 82.7526 127.328 82.767 127.264 82.7502C127.199 82.7335 127.154 82.6952 127.163 82.6616C127.173 82.6281 127.23 82.6137 127.295 82.6281C127.36 82.6425 127.403 82.6856 127.396 82.7191Z" fill="#FAFAFA"/>
<path d="M104.576 89.2591C104.576 89.2926 104.54 89.3333 104.478 89.3501C104.416 89.3669 104.354 89.3501 104.347 89.319C104.339 89.2878 104.38 89.2447 104.445 89.228C104.509 89.2112 104.569 89.2256 104.576 89.2591Z" fill="#FAFAFA"/>
<path d="M105.514 89.0391C105.514 89.0726 105.423 89.1228 105.294 89.1515C105.164 89.1802 105.054 89.1778 105.054 89.1515C105.054 89.1252 105.145 89.0678 105.274 89.0367C105.404 89.0056 105.506 89.0056 105.514 89.0391Z" fill="#FAFAFA"/>
<path d="M106.46 88.8618C106.46 88.8953 106.365 88.9407 106.221 88.9646C106.078 88.9886 105.982 88.979 105.982 88.9455C105.982 88.912 106.075 88.8642 106.207 88.8403C106.338 88.8164 106.453 88.826 106.46 88.8618Z" fill="#FAFAFA"/>
<path d="M107.412 88.7213C107.412 88.7548 107.314 88.7954 107.173 88.8122C107.032 88.8289 106.934 88.8122 106.934 88.7835C106.934 88.7548 107.032 88.7069 107.173 88.6902C107.314 88.6735 107.407 88.6902 107.412 88.7213Z" fill="#FAFAFA"/>
<path d="M108.371 88.6302C108.371 88.6636 108.268 88.7019 108.132 88.7139C107.996 88.7258 107.893 88.7139 107.893 88.6732C107.893 88.6326 107.996 88.6015 108.132 88.5895C108.268 88.5776 108.369 88.5967 108.371 88.6302Z" fill="#FAFAFA"/>
<path d="M109.332 88.5775C109.332 88.6134 109.227 88.6444 109.093 88.6516C108.959 88.6588 108.854 88.6325 108.854 88.599C108.854 88.5655 108.957 88.5321 109.093 88.5273C109.229 88.5225 109.33 88.544 109.332 88.5775Z" fill="#FAFAFA"/>
<path d="M110.294 88.5678C110.294 88.6013 110.186 88.63 110.054 88.63C109.923 88.63 109.815 88.6013 109.815 88.5678C109.815 88.5343 109.923 88.5056 110.054 88.5056C110.186 88.5056 110.294 88.5343 110.294 88.5678Z" fill="#FAFAFA"/>
<path d="M111.016 88.5895C111.016 88.6231 110.958 88.6494 110.894 88.647C110.829 88.6446 110.774 88.6135 110.776 88.58C110.779 88.5464 110.832 88.5177 110.899 88.5225C110.966 88.5273 111.016 88.5536 111.016 88.5895Z" fill="#FAFAFA"/>
<path d="M96.9724 85.5241C96.9724 85.5576 96.9317 85.5959 96.8671 85.6079C96.8024 85.6199 96.7426 85.6079 96.7378 85.5696C96.733 85.5313 96.7761 85.4978 96.8431 85.4858C96.9102 85.4738 96.9724 85.4906 96.9724 85.5241Z" fill="#FAFAFA"/>
<path d="M97.8712 85.3974C97.8712 85.4308 97.7756 85.4715 97.6536 85.4858C97.5317 85.5002 97.4265 85.4858 97.4145 85.45C97.4025 85.4141 97.5078 85.3758 97.6321 85.3615C97.7564 85.3472 97.8664 85.3735 97.8712 85.3974Z" fill="#FAFAFA"/>
<path d="M98.7726 85.3447C98.7726 85.3781 98.6722 85.4092 98.5479 85.414C98.4235 85.4188 98.3231 85.3949 98.3087 85.3614C98.2944 85.3279 98.4068 85.2945 98.5311 85.2897C98.6555 85.2849 98.7702 85.3088 98.7726 85.3447Z" fill="#FAFAFA"/>
<path d="M99.6741 85.3734C99.6741 85.4069 99.5689 85.4308 99.435 85.426C99.301 85.4212 99.2102 85.3877 99.2126 85.3519C99.215 85.316 99.3154 85.2945 99.4517 85.3017C99.588 85.3088 99.6765 85.3327 99.6741 85.3734Z" fill="#FAFAFA"/>
<path d="M100.573 85.4617C100.573 85.4952 100.463 85.5095 100.334 85.4952C100.205 85.4808 100.114 85.4378 100.117 85.4043C100.119 85.3708 100.224 85.3541 100.356 85.3708C100.487 85.3876 100.578 85.4282 100.573 85.4617Z" fill="#FAFAFA"/>
<path d="M101.46 85.6292C101.46 85.6627 101.348 85.6698 101.221 85.6435C101.095 85.6172 101.006 85.5694 101.013 85.5359C101.02 85.5025 101.126 85.4953 101.252 85.5216C101.379 85.5479 101.468 85.5957 101.46 85.6292Z" fill="#FAFAFA"/>
<path d="M102.331 85.8707C102.331 85.9042 102.216 85.9018 102.092 85.8707C101.967 85.8396 101.884 85.7799 101.893 85.7464C101.903 85.7129 102.008 85.7153 102.132 85.7464C102.257 85.7775 102.34 85.8372 102.331 85.8707Z" fill="#FAFAFA"/>
<path d="M102.981 86.1028C102.967 86.1363 102.907 86.1435 102.847 86.1195C102.788 86.0956 102.744 86.0501 102.756 86.019C102.768 85.9878 102.828 85.9783 102.89 86.0022C102.953 86.0261 102.993 86.0716 102.981 86.1028Z" fill="#FAFAFA"/>
<path d="M105.05 80.8015C105.05 80.835 105 80.8662 104.932 80.8686C104.865 80.871 104.813 80.847 104.81 80.8111C104.808 80.7752 104.861 80.7465 104.928 80.7441C104.995 80.7417 105.047 80.7656 105.05 80.8015Z" fill="#FAFAFA"/>
<path d="M105.906 80.7608C105.906 80.7943 105.815 80.8277 105.695 80.8325C105.576 80.8373 105.48 80.8158 105.478 80.7799C105.475 80.7441 105.571 80.713 105.69 80.7082C105.81 80.7034 105.906 80.7249 105.906 80.7608Z" fill="#FAFAFA"/>
<path d="M106.776 80.7203C106.776 80.7537 106.683 80.7848 106.566 80.792C106.448 80.7992 106.348 80.7729 106.348 80.7394C106.348 80.7059 106.441 80.6724 106.558 80.6677C106.676 80.6629 106.762 80.6844 106.776 80.7203Z" fill="#FAFAFA"/>
<path d="M107.62 80.6771C107.62 80.713 107.529 80.7441 107.41 80.7512C107.29 80.7584 107.194 80.7321 107.192 80.6986C107.19 80.6651 107.285 80.6317 107.405 80.6269C107.524 80.6221 107.62 80.6436 107.62 80.6771Z" fill="#FAFAFA"/>
<path d="M108.479 80.6366C108.479 80.6724 108.385 80.7035 108.268 80.7107C108.151 80.7179 108.051 80.6916 108.051 80.6581C108.051 80.6246 108.144 80.5911 108.261 80.5864C108.378 80.5816 108.476 80.6031 108.479 80.6366Z" fill="#FAFAFA"/>
<path d="M109.146 80.6055C109.146 80.6415 109.096 80.6702 109.029 80.675C108.962 80.6798 108.909 80.651 108.907 80.6175C108.904 80.584 108.957 80.5529 109.024 80.5505C109.091 80.5481 109.144 80.572 109.146 80.6055Z" fill="#FAFAFA"/>
<g opacity="0.2">
<path d="M103.636 97.5183L105.303 109.967L103.192 109.491L102.536 104.063L103.636 97.5183Z" fill="black"/>
</g>
</g>
</svg>
