<svg width="400" height="226" viewBox="0 0 400 226" fill="none" xmlns="http://www.w3.org/2000/svg">
<path d="M282.562 64.6177H224.491V216.608H282.562V64.6177Z" fill="#EBEBEB"/>
<path d="M282.556 64.6177H253.521V216.608H282.556V64.6177Z" fill="#E0E0E0"/>
<path d="M251.627 46.5518H231.122V64.6176H251.627V46.5518Z" fill="#EBEBEB"/>
<path d="M251.621 46.5518H246.737V64.6176H251.621V46.5518Z" fill="#E0E0E0"/>
<path d="M284.253 63.5635H219.65V64.6175H284.253V63.5635Z" fill="#E0E0E0"/>
<path d="M240.866 72.4985H235.951V82.8613H240.866V72.4985Z" fill="white"/>
<path d="M253.521 86.9303C253.521 87.0406 247.025 87.1264 239.009 87.1264C230.993 87.1264 224.491 87.0406 224.491 86.9303C224.491 86.82 230.987 86.728 239.009 86.728C247.031 86.728 253.521 86.8138 253.521 86.9303Z" fill="#E0E0E0"/>
<path d="M270.152 72.4985H265.238V82.8613H270.152V72.4985Z" fill="#F5F5F5"/>
<path d="M282.807 86.9303C282.807 87.0406 276.311 87.1264 268.295 87.1264C260.28 87.1264 253.778 87.0406 253.778 86.9303C253.778 86.82 260.274 86.728 268.295 86.728C276.317 86.728 282.807 86.8138 282.807 86.9303Z" fill="#EBEBEB"/>
<path d="M270.152 93.0706H265.238V103.433H270.152V93.0706Z" fill="#F5F5F5"/>
<path d="M282.807 107.502C282.807 107.613 276.311 107.705 268.295 107.705C260.28 107.705 253.778 107.613 253.778 107.502C253.778 107.392 260.274 107.306 268.295 107.306C276.317 107.306 282.807 107.398 282.807 107.502Z" fill="#EBEBEB"/>
<path d="M270.152 114.268H265.238V124.631H270.152V114.268Z" fill="#F5F5F5"/>
<path d="M282.807 128.7C282.807 128.81 276.311 128.902 268.295 128.902C260.28 128.902 253.778 128.81 253.778 128.7C253.778 128.589 260.274 128.504 268.295 128.504C276.317 128.504 282.807 128.596 282.807 128.7Z" fill="#EBEBEB"/>
<path d="M270.152 135.471H265.238V145.834H270.152V135.471Z" fill="#F5F5F5"/>
<path d="M282.807 149.897C282.807 150.008 276.311 150.099 268.295 150.099C260.28 150.099 253.778 150.008 253.778 149.897C253.778 149.787 260.274 149.701 268.295 149.701C276.317 149.701 282.807 149.793 282.807 149.897Z" fill="#EBEBEB"/>
<path d="M270.152 156.062H265.238V166.425H270.152V156.062Z" fill="#F5F5F5"/>
<path d="M282.807 170.494C282.807 170.598 276.311 170.69 268.295 170.69C260.28 170.69 253.778 170.598 253.778 170.494C253.778 170.39 260.274 170.292 268.295 170.292C276.317 170.292 282.807 170.384 282.807 170.494Z" fill="#EBEBEB"/>
<path d="M270.152 176.732H265.238V187.095H270.152V176.732Z" fill="#F5F5F5"/>
<path d="M270.152 197.678H265.238V208.041H270.152V197.678Z" fill="#F5F5F5"/>
<path d="M282.807 191.164C282.807 191.274 276.311 191.366 268.295 191.366C260.28 191.366 253.778 191.274 253.778 191.164C253.778 191.054 260.274 190.968 268.295 190.968C276.317 190.968 282.807 191.054 282.807 191.164Z" fill="#EBEBEB"/>
<path d="M240.866 93.3894H235.951V103.752H240.866V93.3894Z" fill="white"/>
<path d="M253.521 107.821C253.521 107.926 247.025 108.017 239.009 108.017C230.993 108.017 224.491 107.926 224.491 107.821C224.491 107.717 230.987 107.619 239.009 107.619C247.031 107.619 253.521 107.711 253.521 107.821Z" fill="#E0E0E0"/>
<path d="M240.866 114.28H235.951V124.643H240.866V114.28Z" fill="white"/>
<path d="M253.521 128.712C253.521 128.816 247.025 128.908 239.009 128.908C230.993 128.908 224.491 128.816 224.491 128.712C224.491 128.608 230.987 128.51 239.009 128.51C247.031 128.51 253.521 128.602 253.521 128.712Z" fill="#E0E0E0"/>
<path d="M240.866 135.171H235.951V145.534H240.866V135.171Z" fill="white"/>
<path d="M253.521 149.603C253.521 149.707 247.025 149.799 239.009 149.799C230.993 149.799 224.491 149.707 224.491 149.603C224.491 149.499 230.987 149.401 239.009 149.401C247.031 149.401 253.521 149.493 253.521 149.603Z" fill="#E0E0E0"/>
<path d="M240.866 156.062H235.951V166.425H240.866V156.062Z" fill="white"/>
<path d="M253.521 170.494C253.521 170.598 247.025 170.69 239.009 170.69C230.993 170.69 224.491 170.598 224.491 170.494C224.491 170.39 230.987 170.292 239.009 170.292C247.031 170.292 253.521 170.384 253.521 170.494Z" fill="#E0E0E0"/>
<path d="M240.866 176.953H235.951V187.316H240.866V176.953Z" fill="white"/>
<path d="M253.521 191.385C253.521 191.489 247.025 191.581 239.009 191.581C230.993 191.581 224.491 191.489 224.491 191.385C224.491 191.281 230.987 191.183 239.009 191.183C247.031 191.183 253.521 191.275 253.521 191.385Z" fill="#E0E0E0"/>
<path d="M240.866 197.844H235.951V208.207H240.866V197.844Z" fill="white"/>
<path d="M201.639 157.613H157.112V216.345H201.639V157.613Z" fill="#EBEBEB"/>
<path d="M201.639 157.613H180.761V216.345H201.639V157.613Z" fill="#E0E0E0"/>
<path d="M170.447 165.561H166.445V175.286H170.447V165.561Z" fill="#F5F5F5"/>
<path d="M170.447 203.635H166.445V213.36H170.447V203.635Z" fill="#F5F5F5"/>
<path d="M180.761 179.11C180.761 179.214 175.466 179.306 168.933 179.306C162.401 179.306 157.112 179.214 157.112 179.11C157.112 179.006 162.407 178.908 168.933 178.908C175.46 178.908 180.761 179 180.761 179.11Z" fill="#F5F5F5"/>
<path d="M170.447 184.742H166.445V194.467H170.447V184.742Z" fill="#F5F5F5"/>
<path d="M180.761 198.285C180.761 198.396 175.466 198.487 168.933 198.487C162.401 198.487 157.112 198.396 157.112 198.285C157.112 198.175 162.407 198.089 168.933 198.089C175.46 198.089 180.761 198.181 180.761 198.285Z" fill="#F5F5F5"/>
<path d="M189.193 165.561H185.191V175.286H189.193V165.561Z" fill="#F5F5F5"/>
<path d="M197.883 165.561H193.881V175.286H197.883V165.561Z" fill="#F5F5F5"/>
<path d="M189.193 184.019H185.191V193.744H189.193V184.019Z" fill="#F5F5F5"/>
<path d="M197.883 184.019H193.881V193.744H197.883V184.019Z" fill="#F5F5F5"/>
<path d="M189.193 202.477H185.191V212.202H189.193V202.477Z" fill="#F5F5F5"/>
<path d="M197.883 202.477H193.881V212.202H197.883V202.477Z" fill="#F5F5F5"/>
<path d="M204.991 155.566H153.766V157.686H204.991V155.566Z" fill="#E0E0E0"/>
<path d="M201.952 157.901C201.952 158.011 192 158.103 179.725 158.103C167.45 158.103 157.492 158.011 157.492 157.901C157.492 157.79 167.444 157.705 179.725 157.705C192.006 157.705 201.952 157.778 201.952 157.901Z" fill="#EBEBEB"/>
<path d="M126.22 42.783L195.591 43.071C195.591 43.071 189.022 28.0386 174.982 28.0325C164.282 28.0325 163.804 34.6938 157.382 36.6119C150.96 38.53 137.422 26.8436 126.22 42.783Z" fill="#F5F5F5"/>
<path d="M265.354 20.2986L317.621 20.5131C317.621 20.5131 312.688 9.18826 302.092 9.18213C294.028 9.18213 293.672 14.2011 288.831 15.6351C283.99 17.0691 273.774 8.28742 265.354 20.2986Z" fill="#FAFAFA"/>
<path d="M243.146 95.4055H197.717V216.081H243.146V95.4055Z" fill="#455A64"/>
<path d="M243.152 95.4055H225.717V216.081H243.152V95.4055Z" fill="#263238"/>
<path d="M236.159 104.928H232.709V112.209H236.159V104.928Z" fill="#455A64"/>
<path d="M236.159 117.7H232.709V124.98H236.159V117.7Z" fill="#455A64"/>
<path d="M236.159 132.003H232.709V139.283H236.159V132.003Z" fill="#455A64"/>
<path d="M236.159 145.669H232.709V152.949H236.159V145.669Z" fill="#455A64"/>
<path d="M236.159 159.341H232.709V166.621H236.159V159.341Z" fill="#455A64"/>
<path d="M236.159 173.006H232.709V180.287H236.159V173.006Z" fill="#455A64"/>
<path d="M236.159 186.678H232.709V193.959H236.159V186.678Z" fill="#455A64"/>
<path d="M236.159 201.705H232.709V208.985H236.159V201.705Z" fill="#455A64"/>
<path d="M245.413 94.6455H193.765V96.055H245.413V94.6455Z" fill="#263238"/>
<path d="M234.437 86.1519H216.047V95.3502H234.437V86.1519Z" fill="#263238"/>
<path d="M225.717 86.1519H216.047V94.6455H225.717V86.1519Z" fill="#455A64"/>
<path d="M207.633 104.628H204.183V111.908H207.633V104.628Z" fill="#263238"/>
<path d="M216.825 104.628H213.375V111.908H216.825V104.628Z" fill="#263238"/>
<path d="M207.633 118.496H204.183V125.777H207.633V118.496Z" fill="#263238"/>
<path d="M216.825 118.496H213.375V125.777H216.825V118.496Z" fill="#263238"/>
<path d="M207.633 132.364H204.183V139.645H207.633V132.364Z" fill="#263238"/>
<path d="M216.825 132.364H213.375V139.645H216.825V132.364Z" fill="#263238"/>
<path d="M207.633 146.232H204.183V153.513H207.633V146.232Z" fill="#263238"/>
<path d="M216.825 146.232H213.375V153.513H216.825V146.232Z" fill="#263238"/>
<path d="M207.633 160.1H204.183V167.381H207.633V160.1Z" fill="#263238"/>
<path d="M216.825 160.1H213.375V167.381H216.825V160.1Z" fill="#263238"/>
<path d="M207.633 173.969H204.183V181.249H207.633V173.969Z" fill="#263238"/>
<path d="M216.825 173.969H213.375V181.249H216.825V173.969Z" fill="#263238"/>
<path d="M207.633 187.836H204.183V195.117H207.633V187.836Z" fill="#263238"/>
<path d="M216.825 187.836H213.375V195.117H216.825V187.836Z" fill="#263238"/>
<path d="M207.633 201.705H204.183V208.985H207.633V201.705Z" fill="#263238"/>
<path d="M216.825 201.705H213.375V208.985H216.825V201.705Z" fill="#263238"/>
<path d="M225.717 114.764C225.717 114.887 219.448 114.985 211.72 114.985C203.993 114.985 197.717 114.887 197.717 114.764C197.717 114.642 203.987 114.55 211.72 114.55C219.454 114.55 225.717 114.648 225.717 114.764Z" fill="#263238"/>
<path d="M225.717 128.682C225.717 128.804 219.448 128.902 211.72 128.902C203.993 128.902 197.717 128.804 197.717 128.682C197.717 128.559 203.987 128.467 211.72 128.467C219.454 128.467 225.717 128.565 225.717 128.682Z" fill="#263238"/>
<path d="M225.717 142.77C225.717 142.887 219.448 142.985 211.72 142.985C203.993 142.985 197.717 142.887 197.717 142.77C197.717 142.654 203.987 142.55 211.72 142.55C219.454 142.55 225.717 142.648 225.717 142.77Z" fill="#263238"/>
<path d="M225.717 156.755C225.717 156.871 219.448 156.969 211.72 156.969C203.993 156.969 197.717 156.871 197.717 156.755C197.717 156.638 203.987 156.534 211.72 156.534C219.454 156.534 225.717 156.632 225.717 156.755Z" fill="#263238"/>
<path d="M225.717 170.537C225.717 170.653 219.448 170.751 211.72 170.751C203.993 170.751 197.717 170.653 197.717 170.537C197.717 170.42 203.987 170.316 211.72 170.316C219.454 170.316 225.717 170.414 225.717 170.537Z" fill="#263238"/>
<path d="M225.717 183.945C225.717 184.062 219.448 184.16 211.72 184.16C203.993 184.16 197.717 184.062 197.717 183.945C197.717 183.829 203.987 183.725 211.72 183.725C219.454 183.725 225.717 183.823 225.717 183.945Z" fill="#263238"/>
<path d="M225.717 198.806C225.717 198.922 219.448 199.021 211.72 199.021C203.993 199.021 197.717 198.922 197.717 198.806C197.717 198.69 203.987 198.585 211.72 198.585C219.454 198.585 225.717 198.683 225.717 198.806Z" fill="#263238"/>
<path d="M242.949 114.764C242.949 114.887 239.217 114.985 234.615 114.985C230.013 114.985 226.281 114.887 226.281 114.764C226.281 114.642 230.007 114.55 234.615 114.55C239.223 114.55 242.949 114.648 242.949 114.764Z" fill="#455A64"/>
<path d="M242.949 128.682C242.949 128.804 239.217 128.902 234.615 128.902C230.013 128.902 226.281 128.804 226.281 128.682C226.281 128.559 230.007 128.467 234.615 128.467C239.223 128.467 242.949 128.565 242.949 128.682Z" fill="#455A64"/>
<path d="M242.949 142.58C242.949 142.703 239.217 142.801 234.615 142.801C230.013 142.801 226.281 142.721 226.281 142.58C226.281 142.439 230.007 142.365 234.615 142.365C239.223 142.365 242.949 142.482 242.949 142.58Z" fill="#455A64"/>
<path d="M242.766 156.755C242.766 156.871 239.033 156.969 234.431 156.969C229.829 156.969 226.097 156.871 226.097 156.755C226.097 156.638 229.829 156.534 234.431 156.534C239.033 156.534 242.766 156.632 242.766 156.755Z" fill="#455A64"/>
<path d="M242.766 170.537C242.766 170.653 239.033 170.751 234.431 170.751C229.829 170.751 226.097 170.653 226.097 170.537C226.097 170.42 229.829 170.316 234.431 170.316C239.033 170.316 242.766 170.414 242.766 170.537Z" fill="#455A64"/>
<path d="M242.766 184.319C242.766 184.435 239.033 184.533 234.431 184.533C229.829 184.533 226.097 184.435 226.097 184.319C226.097 184.203 229.829 184.098 234.431 184.098C239.033 184.098 242.766 184.196 242.766 184.319Z" fill="#455A64"/>
<path d="M242.766 198.806C242.766 198.922 239.033 199.021 234.431 199.021C229.829 199.021 226.097 198.922 226.097 198.806C226.097 198.69 229.829 198.585 234.431 198.585C239.033 198.585 242.766 198.683 242.766 198.806Z" fill="#455A64"/>
<path d="M181.698 146.465C181.698 146.465 172.193 182.621 159.416 189.411C150.996 193.885 143.563 188.547 138.58 180.091L120.564 151.092C120.104 149.439 120.292 147.674 121.089 146.155C121.886 144.636 123.232 143.478 124.853 142.917L139.873 137.677L154.838 164.353L173.989 141.066" fill="#EB996E"/>
<path d="M88.1764 148.984C88.5073 151.337 94.4332 168.637 94.4332 168.637C94.4332 168.637 121.324 161.032 121.042 159.696C120.809 158.611 116.605 141.379 110.992 131.666C109.939 129.793 108.463 128.193 106.682 126.993C104.901 125.793 102.864 125.026 100.733 124.753C99.5441 124.618 96.9029 125.722 96.1736 126.083C90.4499 128.945 85.6148 130.808 88.1764 148.984Z" fill="#016CDE"/>
<path d="M130.338 123.583C140.664 126.457 141.13 131.151 146.302 139.43L154.446 154.26L140.879 162.907L138.39 168.484L137.048 216.443L82.379 216.173L92.1841 177.351L88.2743 151.858C87.9128 147.838 86.7545 140.325 87.9924 136.446C91.8716 124.324 106.34 123.031 115.238 121.193C117.077 120.813 118.848 121.395 120.343 121.849" fill="#016CDE"/>
<path d="M138.256 170.947C138.213 170.54 138.201 170.131 138.219 169.722C138.219 168.864 138.219 167.724 138.262 166.351V166.321C138.945 165.106 139.541 163.845 140.045 162.546C140.674 161.004 140.831 159.311 140.499 157.68C140.057 155.841 139.04 154.297 138.36 152.777C137.742 151.416 137.329 149.97 137.134 148.488C137.006 147.498 136.979 146.498 137.055 145.503C137.055 145.148 137.122 144.89 137.153 144.694C137.159 144.599 137.182 144.506 137.22 144.418C137.242 144.782 137.242 145.146 137.22 145.509C137.195 146.493 137.259 147.478 137.41 148.451C137.633 149.893 138.06 151.296 138.679 152.618C139.353 154.113 140.394 155.682 140.86 157.582C141.211 159.279 141.042 161.043 140.376 162.644C139.86 163.951 139.246 165.217 138.538 166.431V166.37C138.47 167.742 138.421 168.882 138.378 169.74C138.374 170.145 138.333 170.549 138.256 170.947Z" fill="#263238"/>
<path d="M130.767 121.898C130.814 122.016 130.845 122.139 130.859 122.265C130.925 122.624 130.966 122.986 130.982 123.35C131.031 124.699 130.805 126.043 130.32 127.303C129.6 129.184 128.358 130.821 126.741 132.021C124.714 133.465 122.23 134.119 119.755 133.86C118.483 133.73 117.241 133.392 116.078 132.861C115.003 132.356 114.016 131.681 113.155 130.863C111.714 129.469 110.617 127.759 109.95 125.869C109.498 124.603 109.239 123.277 109.184 121.934C109.16 121.571 109.16 121.207 109.184 120.844C109.18 120.718 109.192 120.592 109.22 120.47C109.263 120.47 109.22 120.991 109.306 121.928C109.415 123.247 109.706 124.544 110.17 125.783C110.852 127.62 111.946 129.276 113.369 130.624C114.207 131.413 115.167 132.061 116.213 132.542C117.337 133.055 118.538 133.38 119.767 133.504C122.148 133.763 124.543 133.152 126.508 131.782C127.829 130.814 128.905 129.55 129.65 128.091C130.395 126.632 130.788 125.019 130.798 123.381C130.841 122.418 130.724 121.904 130.767 121.898Z" fill="#263238"/>
<path d="M151.97 149.781C151.461 150.162 150.92 150.498 150.353 150.786C149.341 151.399 147.932 152.183 146.4 153.108C144.868 154.034 143.501 154.898 142.509 155.523C141.991 155.892 141.441 156.214 140.866 156.485C141.33 156.047 141.835 155.655 142.374 155.314C143.33 154.634 144.684 153.733 146.222 152.802C147.76 151.87 149.188 151.098 150.236 150.565C150.786 150.245 151.367 149.982 151.97 149.781Z" fill="#263238"/>
<path d="M89.8553 150.418C89.8553 150.418 89.8921 150.528 89.9595 150.743L90.2169 151.699L91.179 155.376C91.9941 158.562 93.1584 163.11 94.574 168.619L94.3963 168.521L119.681 160.621L120.294 160.395L120.177 160.597C118.961 154.934 117.297 149.377 115.201 143.977C113.24 139.026 110.991 134.73 108.46 131.635C107.332 130.227 105.98 129.014 104.459 128.044C103.316 127.304 102.014 126.846 100.659 126.708C100.4 126.666 100.138 126.643 99.8749 126.641L99.1763 126.678C98.9618 126.678 98.7657 126.678 98.5635 126.72L98.0855 126.825L97.4236 126.959C97.3488 126.976 97.2731 126.988 97.1969 126.996C97.2653 126.964 97.3373 126.939 97.4114 126.923L98.0671 126.757L98.5512 126.635C98.735 126.598 98.9373 126.598 99.164 126.573L99.8688 126.524C100.135 126.521 100.401 126.535 100.665 126.567C102.046 126.687 103.378 127.134 104.551 127.873C106.096 128.835 107.471 130.046 108.62 131.458C111.237 134.565 113.522 138.873 115.502 143.836C117.62 149.249 119.3 154.823 120.527 160.505V160.658L120.38 160.707L119.767 160.934C110.287 163.943 101.505 166.596 94.4392 168.772L94.2983 168.815L94.2615 168.674C92.8949 163.159 91.7734 158.593 90.9829 155.4C90.603 153.825 90.3088 152.587 90.1005 151.723L89.8798 150.761C89.8572 150.648 89.849 150.533 89.8553 150.418Z" fill="#263238"/>
<path d="M119.424 157.153C119.424 157.251 113.614 158.936 106.389 160.928C99.1641 162.919 93.2994 164.452 93.2994 164.36C93.2994 164.268 99.1028 162.576 106.328 160.585C113.553 158.593 119.393 157.061 119.424 157.153Z" fill="#263238"/>
<path d="M117.199 78.7063C115.526 75.0785 110.924 73.3687 107.045 74.3308C103.166 75.2929 100.102 78.4612 98.4654 82.0952C96.8292 85.7292 96.3941 89.8167 96.3635 93.8123C96.3635 95.9265 96.4554 98.0652 96.0264 100.137C95.5974 102.208 94.5802 104.255 92.803 105.407C91.4058 106.314 89.6899 106.583 88.1885 107.306C86.6871 108.03 85.3082 109.568 85.6821 111.198C86.1233 113.14 88.5623 113.723 90.5417 113.925C90.5749 115.124 90.9465 116.289 91.6134 117.286C92.2804 118.283 93.2156 119.071 94.3111 119.559C95.4067 120.047 96.6179 120.216 97.8051 120.045C98.9923 119.874 100.107 119.372 101.021 118.595C100.408 121.046 102.571 123.571 105.059 123.865C107.547 124.159 109.962 122.602 111.347 120.494C112.732 118.386 113.124 115.812 113.228 113.306C113.332 110.8 113.155 108.262 113.4 105.811" fill="#263238"/>
<path d="M145.432 83.2719C145.432 83.2719 147.27 70.9542 130.32 70.7275C111.359 70.4762 107.94 86.6607 111.188 95.185L120.613 85.8457L145.432 83.2719Z" fill="#263238"/>
<path d="M130.559 123.583C130.749 120.304 130.89 117.633 130.89 117.633C130.89 117.633 140.597 117.859 142.024 109.445C143.452 101.031 145.088 81.4335 145.088 81.4335C140.848 78.6915 135.889 77.2718 130.84 77.3548C125.791 77.4377 120.881 79.0195 116.733 81.8992L115.937 82.4508L109.809 121.358C109.372 124.086 110.033 126.876 111.647 129.118C113.262 131.36 115.699 132.871 118.425 133.321C119.873 133.56 121.355 133.491 122.775 133.119C124.195 132.746 125.521 132.079 126.665 131.16C127.81 130.242 128.749 129.092 129.419 127.787C130.09 126.481 130.478 125.049 130.559 123.583Z" fill="#FFBE9D"/>
<path d="M141.626 96.3677C141.594 96.5739 141.501 96.7661 141.361 96.9203C141.22 97.0746 141.037 97.1842 140.835 97.2356C140.633 97.2869 140.42 97.2778 140.223 97.2092C140.025 97.1407 139.853 97.0157 139.726 96.8499C139.599 96.6841 139.524 96.4847 139.509 96.2765C139.494 96.0683 139.541 95.8603 139.644 95.6785C139.746 95.4966 139.9 95.3488 140.086 95.2535C140.271 95.1581 140.481 95.1194 140.689 95.142C140.831 95.1593 140.969 95.205 141.094 95.2763C141.219 95.3477 141.328 95.4432 141.415 95.5574C141.503 95.6716 141.566 95.8021 141.603 95.9413C141.639 96.0804 141.647 96.2254 141.626 96.3677Z" fill="#263238"/>
<path d="M142.411 95.3565C142.257 95.4852 141.553 94.7436 140.419 94.5292C139.285 94.3147 138.372 94.8111 138.274 94.6456C138.176 94.4801 138.39 94.3269 138.795 94.1002C139.329 93.8198 139.941 93.725 140.535 93.8305C141.132 93.9319 141.679 94.227 142.092 94.6701C142.404 95.0194 142.484 95.3013 142.411 95.3565Z" fill="#263238"/>
<path d="M130.246 95.277C130.242 95.4238 130.207 95.5681 130.144 95.7009C130.081 95.8337 129.992 95.9521 129.881 96.0486C129.77 96.1451 129.641 96.2177 129.501 96.2618C129.36 96.306 129.213 96.3207 129.067 96.305C128.921 96.2893 128.779 96.2436 128.652 96.1708C128.524 96.098 128.413 95.9996 128.325 95.8818C128.237 95.764 128.175 95.6293 128.142 95.4862C128.108 95.3431 128.105 95.1947 128.132 95.0502C128.136 94.9034 128.171 94.759 128.234 94.6263C128.297 94.4935 128.386 94.3751 128.497 94.2786C128.608 94.182 128.737 94.1095 128.878 94.0653C129.018 94.0212 129.165 94.0065 129.311 94.0222C129.458 94.0379 129.599 94.0835 129.726 94.1564C129.854 94.2292 129.965 94.3276 130.053 94.4454C130.141 94.5632 130.203 94.6979 130.236 94.841C130.27 94.9841 130.273 95.1325 130.246 95.277Z" fill="#263238"/>
<path d="M130.81 94.3208C130.663 94.4495 129.952 93.6774 128.824 93.4935C127.697 93.3097 126.777 93.7754 126.673 93.6039C126.624 93.5303 126.796 93.2852 127.2 93.0646C127.734 92.7838 128.347 92.6889 128.941 92.7949C129.538 92.8954 130.085 93.1906 130.497 93.6345C130.804 93.9777 130.883 94.2657 130.81 94.3208Z" fill="#263238"/>
<path d="M132.275 103.084C132.905 103.045 133.538 103.091 134.156 103.219C134.45 103.262 134.732 103.274 134.83 103.078C134.917 102.767 134.917 102.439 134.83 102.128C134.738 101.319 134.646 100.473 134.548 99.5849C134.187 95.9692 134.003 93.0339 134.137 93.0155C134.272 92.9971 134.677 95.9141 135.044 99.5297C135.124 100.418 135.204 101.264 135.277 102.073C135.366 102.486 135.316 102.916 135.136 103.299C135.072 103.392 134.988 103.469 134.889 103.525C134.79 103.58 134.68 103.612 134.566 103.617C134.399 103.62 134.232 103.602 134.07 103.562C133.453 103.485 132.848 103.325 132.275 103.084Z" fill="#263238"/>
<path d="M130.92 117.632C127.001 117.03 123.343 115.298 120.392 112.65C120.392 112.65 122.451 119.342 130.767 119.894L130.92 117.632Z" fill="#EB996E"/>
<path d="M131.165 106.424C131.141 106.058 131.027 105.703 130.834 105.391C130.64 105.079 130.373 104.819 130.056 104.635C129.837 104.504 129.592 104.422 129.338 104.395C129.084 104.367 128.828 104.395 128.585 104.475C128.346 104.564 128.139 104.723 127.991 104.93C127.842 105.138 127.759 105.385 127.752 105.64C127.787 105.922 127.904 106.189 128.088 106.406C128.272 106.624 128.515 106.783 128.788 106.865C129.342 107.018 129.923 107.051 130.491 106.963C130.65 106.959 130.806 106.923 130.951 106.859C131.022 106.824 131.081 106.77 131.122 106.703C131.164 106.636 131.185 106.558 131.184 106.479" fill="#AA6550"/>
<path d="M128.69 103.36C128.61 103.36 128.426 103.642 128.396 104.199C128.373 104.939 128.62 105.663 129.09 106.235C129.56 106.807 130.221 107.19 130.951 107.313C131.509 107.392 131.84 107.27 131.833 107.184C131.833 106.994 130.522 106.926 129.609 105.811C128.696 104.696 128.874 103.391 128.69 103.36Z" fill="#263238"/>
<path d="M114.748 93.4263C114.619 93.3344 109.919 91.306 108.577 96.8397C107.235 102.373 113.657 101.81 113.706 101.65C113.755 101.491 114.748 93.4263 114.748 93.4263Z" fill="#FFBE9D"/>
<path d="M112.389 99.3275C112.389 99.3275 112.272 99.3704 112.076 99.4072C111.81 99.453 111.535 99.4007 111.304 99.2601C110.728 98.9108 110.428 97.8752 110.642 96.8702C110.739 96.3886 110.949 95.937 111.255 95.5526C111.357 95.3878 111.497 95.2496 111.664 95.1494C111.83 95.0493 112.017 94.99 112.211 94.9766C112.333 94.9706 112.453 95.0061 112.552 95.0774C112.651 95.1486 112.723 95.2513 112.756 95.3688C112.799 95.5403 112.756 95.6445 112.756 95.6629C112.756 95.6813 112.904 95.5955 112.916 95.3565C112.913 95.2118 112.858 95.0728 112.763 94.9643C112.625 94.8119 112.434 94.7177 112.229 94.7008C111.981 94.6905 111.734 94.7409 111.51 94.8477C111.286 94.9545 111.091 95.1144 110.942 95.3136C110.579 95.7326 110.326 96.2362 110.207 96.7782C109.974 97.9058 110.33 99.0763 111.132 99.4869C111.283 99.5632 111.448 99.6075 111.617 99.617C111.786 99.6264 111.955 99.6009 112.113 99.542C112.346 99.4562 112.407 99.3398 112.389 99.3275Z" fill="#AA6550"/>
<path d="M143.164 77.5542C144.139 78.2591 144.87 79.2488 145.259 80.3869C145.647 81.525 145.674 82.7555 145.334 83.9091C144.5 86.5564 142.031 89.4244 135.167 89.3325L136.73 87.5982C135.186 88.7764 133.381 89.5661 131.467 89.901C129.554 90.2359 127.588 90.106 125.736 89.5225L127.66 85.7966C127.66 85.7966 118.983 94.9949 114.135 95.3933L114.748 85.5882C115.919 76.3347 119.883 73.5586 125.883 73.0622C128.111 72.8597 130.355 72.8987 132.575 73.1787C136.418 73.7192 140.061 75.2245 143.164 77.5542Z" fill="#263238"/>
<path d="M109.233 69.5386C109.689 69.6496 110.123 69.8404 110.513 70.1024C112.484 71.2537 114.049 72.988 114.993 75.0662C115.212 75.4811 115.358 75.9311 115.422 76.396C115.318 76.445 114.632 74.3921 112.873 72.474C111.114 70.5559 109.171 69.655 109.233 69.5386Z" fill="#263238"/>
<path d="M91.7612 100.909C91.7612 100.909 91.6447 100.786 91.3812 100.62C90.9902 100.385 90.5383 100.269 90.0821 100.29C89.7288 100.298 89.3816 100.383 89.0643 100.539C88.747 100.694 88.467 100.917 88.2436 101.19C87.9734 101.574 87.8043 102.019 87.7518 102.485C87.6993 102.951 87.7652 103.422 87.9433 103.856C88.1607 104.377 88.5112 104.832 88.9597 105.175C89.4082 105.518 89.9389 105.738 90.4988 105.811C91.147 105.91 91.809 105.865 92.438 105.679C93.067 105.494 93.6476 105.173 94.1389 104.739C95.266 103.794 96.0448 102.5 96.3512 101.062C96.5136 100.311 96.5136 99.5332 96.3512 98.782C96.1662 98.0029 95.8906 97.2481 95.53 96.533C95.1868 95.7915 94.8191 95.0622 94.5311 94.2962C94.2492 93.5427 94.0659 92.7558 93.9857 91.9553C93.8552 90.4402 94.0324 88.9143 94.5066 87.4694C95.328 85.0388 96.7559 82.8578 98.6554 81.1329C99.904 79.9647 101.258 78.9143 102.7 77.9953C103.209 77.6705 103.613 77.4254 103.889 77.266C104.025 77.1788 104.169 77.103 104.318 77.0393C104.198 77.1489 104.066 77.2454 103.926 77.3273L102.78 78.1117C101.371 79.0616 100.045 80.1275 98.8147 81.2984C96.9806 83.0206 95.6016 85.1702 94.8007 87.5552C94.3527 88.9592 94.1882 90.4382 94.3166 91.9062C94.4026 92.6761 94.5795 93.4331 94.8436 94.1614C95.1255 94.9029 95.4932 95.6199 95.8425 96.3737C96.2125 97.1122 96.4943 97.8918 96.6821 98.6962C96.8537 99.494 96.8537 100.319 96.6821 101.117C96.351 102.627 95.5223 103.982 94.3289 104.965C93.8015 105.425 93.1794 105.762 92.5069 105.954C91.8343 106.146 91.1278 106.187 90.4375 106.075C89.828 105.988 89.2524 105.741 88.77 105.359C88.2875 104.977 87.9155 104.473 87.6921 103.899C87.5074 103.427 87.4448 102.916 87.5101 102.414C87.5755 101.912 87.7666 101.434 88.0659 101.025C88.311 100.733 88.6181 100.5 88.9647 100.342C89.3114 100.184 89.6889 100.105 90.0698 100.112C90.5466 100.103 91.014 100.244 91.4057 100.516C91.5493 100.622 91.6702 100.755 91.7612 100.909Z" fill="#263238"/>
<path d="M113.964 82.4138C113.77 82.0821 113.653 81.7117 113.62 81.3291C113.476 80.418 113.512 79.4874 113.725 78.5899C113.932 77.6902 114.315 76.8405 114.852 76.0896C115.269 75.5196 115.612 75.2439 115.637 75.2745C115.661 75.3052 114.527 76.6288 114.068 78.6695C113.608 80.7102 114.074 82.3955 113.964 82.4138Z" fill="#263238"/>
<path d="M108.902 100.296C108.577 100.579 108.324 100.936 108.166 101.337C108.099 101.549 108.074 101.771 108.093 101.992C108.112 102.213 108.175 102.428 108.277 102.624C108.42 102.854 108.615 103.048 108.845 103.191C109.076 103.333 109.337 103.42 109.607 103.446C109.875 103.488 110.149 103.47 110.41 103.394C110.67 103.318 110.911 103.185 111.114 103.004C111.431 102.688 111.61 102.258 111.61 101.809C111.591 101.373 111.456 100.95 111.218 100.584C111.218 100.584 111.353 100.633 111.506 100.823C111.72 101.097 111.844 101.431 111.862 101.779C111.879 102.041 111.843 102.305 111.754 102.552C111.665 102.8 111.527 103.027 111.347 103.219C111.111 103.442 110.827 103.608 110.517 103.705C110.207 103.801 109.879 103.826 109.557 103.776C109.241 103.747 108.936 103.643 108.666 103.474C108.397 103.304 108.171 103.074 108.007 102.802C107.892 102.565 107.827 102.306 107.818 102.042C107.808 101.778 107.854 101.515 107.952 101.27C108.073 100.946 108.286 100.665 108.565 100.461C108.761 100.326 108.896 100.296 108.902 100.296Z" fill="#455A64"/>
<path d="M146.841 86.0908C146.774 86.0908 147.043 85.147 147.05 83.6395C147.07 81.6398 146.542 79.6727 145.523 77.9518C144.504 76.2309 143.034 74.8218 141.271 73.8773C139.929 73.1481 138.979 72.9397 138.997 72.8723C139.225 72.8763 139.451 72.9177 139.665 72.9949C140.259 73.1586 140.836 73.3803 141.387 73.6567C143.233 74.5713 144.775 76.0018 145.824 77.7747C146.874 79.5477 147.387 81.5871 147.301 83.6456C147.277 84.2648 147.195 84.8804 147.056 85.4841C147.013 85.6953 146.94 85.8994 146.841 86.0908Z" fill="#263238"/>
<path d="M131.355 92.1638C131.319 92.2067 131.086 91.9861 130.663 91.7287C130.119 91.3938 129.508 91.1844 128.873 91.1159C128.236 91.0518 127.593 91.1336 126.992 91.3549C126.52 91.5203 126.251 91.6858 126.22 91.6367C126.189 91.5877 126.422 91.361 126.894 91.122C127.518 90.8129 128.217 90.6875 128.91 90.7604C129.602 90.8361 130.259 91.1012 130.81 91.5264C131.221 91.8574 131.392 92.1393 131.355 92.1638Z" fill="#263238"/>
<path d="M142.165 93.1995C141.439 93.3173 140.698 93.3173 139.971 93.1995C139.237 93.2023 138.507 93.0885 137.808 92.8624C138.533 92.7461 139.271 92.7461 139.996 92.8624C140.732 92.8583 141.465 92.9721 142.165 93.1995Z" fill="#263238"/>
<path d="M181.698 146.465C181.698 146.465 185.173 138.211 180.473 139.112C173.272 140.484 174.344 147.489 174.344 147.489L181.698 146.465Z" fill="#EB996E"/>
<path d="M188.39 109.439C187.785 109.224 187.151 109.102 186.509 109.077C190.419 111.982 191.479 119.459 188.74 127.008C186.068 134.362 180.663 139.381 175.87 139.344L175.49 139.246C171.685 136.274 170.68 128.89 173.382 121.426C176.085 113.962 181.655 108.863 186.503 109.077C186.011 108.708 185.468 108.411 184.891 108.195C179.707 106.308 172.966 111.676 169.902 120.182C166.905 128.442 168.461 136.605 173.327 138.793H173.229L163.645 163.306C163.44 163.827 163.45 164.407 163.674 164.921C163.898 165.434 164.316 165.837 164.837 166.042C165.358 166.247 165.938 166.236 166.452 166.013C166.965 165.789 167.368 165.371 167.573 164.85L177.255 140.239C182.458 142.121 189.175 136.758 192.257 128.252C195.34 119.747 193.593 111.326 188.39 109.439Z" fill="#263238"/>
<path d="M184.064 131.611C184.132 131.351 184.231 131.1 184.358 130.863L185.252 128.884C186.27 126.724 187.062 124.465 187.618 122.143C188.151 119.828 188.151 117.422 187.618 115.108C187.349 114.16 187.009 113.234 186.601 112.338C186.78 112.54 186.928 112.767 187.042 113.012C187.388 113.656 187.661 114.336 187.857 115.04C188.474 117.388 188.51 119.851 187.961 122.216C187.403 124.553 186.57 126.816 185.479 128.957C185.069 129.778 184.725 130.44 184.48 130.888C184.374 131.146 184.234 131.389 184.064 131.611Z" fill="#263238"/>
<path d="M183.059 133.572C183.126 133.645 182.832 134.056 182.391 134.491C181.949 134.926 181.545 135.22 181.478 135.153C181.41 135.085 181.704 134.675 182.146 134.24C182.587 133.805 182.991 133.504 183.059 133.572Z" fill="#263238"/>
<path d="M172.604 142.776C171.862 141.373 170.998 139.436 169.693 138.529C168.388 137.623 166.574 136.575 165.042 137.917C166.969 140.668 168.754 143.515 170.392 146.447L172.604 142.776Z" fill="#EB996E"/>
<path d="M182.813 140.294C182.813 140.294 182.525 138.664 180.135 139.381C177.745 140.098 170.257 141.661 171.703 143.254C173.149 144.848 175.705 144.131 175.705 144.131C175.705 144.131 171.544 145.031 171.942 145.902C172.34 146.772 173.033 148.279 174.804 147.336C176.575 146.392 181.49 144.792 181.49 144.792L182.813 140.294Z" fill="#EB996E"/>
<path d="M182.544 143.935C182.544 143.935 182.544 143.775 182.544 143.524C182.538 143.355 182.481 143.192 182.38 143.056C182.28 142.921 182.14 142.819 181.98 142.764C181.448 142.704 180.909 142.784 180.417 142.997L178.426 143.53C177.01 143.904 175.723 144.216 174.786 144.425C174.287 144.573 173.773 144.665 173.254 144.701C173.723 144.474 174.216 144.301 174.724 144.186C175.644 143.91 176.918 143.573 178.334 143.193L180.332 142.684C180.882 142.465 181.485 142.409 182.066 142.525C182.261 142.606 182.426 142.747 182.536 142.928C182.646 143.108 182.696 143.319 182.679 143.53C182.66 143.806 182.556 143.941 182.544 143.935Z" fill="#263238"/>
<path d="M118.639 161.283L125.871 174.692L161.769 156.614C161.769 156.614 167.052 146.465 167.928 146.594C168.805 146.723 172.69 148.396 172.69 148.396C172.69 148.396 178.205 145.418 179.394 146.226C180.583 147.035 182.188 156.84 181.147 159.874C180.105 162.907 169.203 169.017 169.203 169.017C169.203 169.017 139.788 188.333 126.998 195.117C118.578 199.591 111.151 194.253 106.162 185.796L97.6565 167.798" fill="#FFBE9D"/>
<path d="M326.894 216.45C326.894 216.237 270.076 216.081 200.005 216.081C129.935 216.081 73.1063 216.237 73.1063 216.45C73.1063 216.662 129.908 216.818 200.005 216.818C270.103 216.818 326.894 216.648 326.894 216.45Z" fill="#263238"/>
</svg>
