<svg
  xmlns="http://www.w3.org/2000/svg"
  fill="none"
  viewBox="0 0 400 226"
  width="400"
  height="226"
>
  <path
    fill="#263238"
    d="M143.465 135.163c-.23.015-.461.015-.69 0l-2 .05-7.3.08-24.09.08h-3.48a12.959 12.959 0 0 1-1.74-.06 5.998 5.998 0 0 1-1.67-.49 7.809 7.809 0 0 1-4.14-4.89 10.143 10.143 0 0 1-.43-3v-2.81c0-1.8 0-3.49.07-5 0-3 .1-5.51.13-7.3 0-.82.02-1.487.06-2a2.997 2.997 0 0 1 .06-.69c.022.229.022.46 0 .69v14.35c0 1.81-.21 3.78.43 5.67a7.402 7.402 0 0 0 3.88 4.57 5.9 5.9 0 0 0 1.54.44c.554.056 1.112.076 1.67.06h3.48l24.09.07 7.3.08 2 .05c.277-.02.556-.003.83.05Z"
  />
  <path
    fill="#fff"
    d="M107.645 43.402h-40.19c-5.733 0-10.38 4.648-10.38 10.38v40.19c0 5.733 4.647 10.38 10.38 10.38h40.19c5.732 0 10.38-4.647 10.38-10.38v-40.19c0-5.732-4.648-10.38-10.38-10.38Z"
  />
  <path
    fill="#263238"
    d="M107.635 104.341a19.547 19.547 0 0 0 2.26-.31 10.366 10.366 0 0 0 5.49-3.33 10.007 10.007 0 0 0 2.16-4.13c.346-1.845.454-3.727.32-5.6v-35.1a18.02 18.02 0 0 0-.34-4.64 10.162 10.162 0 0 0-6.2-6.91 9.36 9.36 0 0 0-2.41-.6c-.848-.072-1.699-.1-2.55-.08h-38.91a10.14 10.14 0 0 0-5.35 1.57 9.478 9.478 0 0 0-2.14 1.8 9.37 9.37 0 0 0-1.56 2.29 10.1 10.1 0 0 0-.88 2.62c-.146.909-.206 1.83-.18 2.75v36.65a26.653 26.653 0 0 0 .2 4.68 10.36 10.36 0 0 0 1.83 4.05 10.107 10.107 0 0 0 7.22 4c2.75.1 5.45 0 8 .07l24.21.08 6.58.05-6.58.05-24.21.09c-2.56 0-5.22.05-8 0a10.474 10.474 0 0 1-7.52-4.18 10.6 10.6 0 0 1-1.92-4.23 25.233 25.233 0 0 1-.22-4.76v-36.65c-.034-.954.026-1.908.18-2.85.182-.954.492-1.879.92-2.75a10.37 10.37 0 0 1 1.64-2.41 10.18 10.18 0 0 1 2.25-1.89 10.71 10.71 0 0 1 5.65-1.63h38.84c.871-.02 1.742.01 2.61.09.863.103 1.71.315 2.52.63a10.592 10.592 0 0 1 6.47 7.25c.324 1.561.439 3.159.34 4.75v35.1a22.48 22.48 0 0 1-.38 5.66 10.07 10.07 0 0 1-2.25 4.2 10.259 10.259 0 0 1-5.62 3.3 9.011 9.011 0 0 1-1.7.21c-.58.12-.77.11-.77.11Z"
  />
  <path fill="#016CDE" d="M74.475 86.012h-7.69v5.89h7.69v-5.89Z"/>
  <path fill="#263238" d="M84.205 72.43h-7.69V91.9h7.69V72.43Z"/>
  <path fill="#016CDE" d="M94.905 80.813h-7.69v11.08h7.69v-11.08Z"/>
  <path fill="#263238" d="M105.115 66.781h-7.69v25.11h7.69v-25.11Z"/>
  <path
    fill="#016CDE"
    d="M70.105 79.941a3.83 3.83 0 1 1 0-7.66 3.83 3.83 0 0 1 0 7.66Zm0-6.65a2.83 2.83 0 1 0 0 5.66 2.83 2.83 0 0 0 0-5.66Zm11-7.908a3.83 3.83 0 1 1 3.83-3.83 3.84 3.84 0 0 1-3.83 3.83Zm0-6.66a2.83 2.83 0 1 0 0 5.66 2.83 2.83 0 0 0 0-5.66Zm10 15.887a3.83 3.83 0 1 1 3.83-3.83 3.84 3.84 0 0 1-3.83 3.83Zm0-6.65a2.83 2.83 0 1 0 2.83 2.82 2.83 2.83 0 0 0-2.83-2.83v.01Zm10.59-6.73a3.83 3.83 0 1 1 3.83-3.83 3.84 3.84 0 0 1-3.83 3.83Zm0-6.66a2.833 2.833 0 0 0-2.615 1.747 2.83 2.83 0 1 0 5.445 1.083 2.832 2.832 0 0 0-2.83-2.79v-.04Z"
  />
  <path
    fill="#016CDE"
    d="m99.027 59.545-6.176 8.787.818.575 6.176-8.787-.818-.575ZM84.035 63.89l-.723.692 4.7 4.915.722-.692-4.7-4.914Zm-5.552.215-6.929 8.926.79.613 6.93-8.926-.79-.613Z"
  />
  <path
    fill="#263238"
    d="M102.345 105.062a2.917 2.917 0 0 1-1.798 2.706 2.925 2.925 0 0 1-3.187-.631 2.92 2.92 0 0 1 2.075-4.985 2.91 2.91 0 0 1 2.91 2.91Z"
  />
  <path
    fill="#fff"
    d="M220.979 4.594h-40.19c-5.733 0-10.38 4.647-10.38 10.38v40.19c0 5.733 4.647 10.38 10.38 10.38h40.19c5.733 0 10.38-4.647 10.38-10.38v-40.19c0-5.733-4.647-10.38-10.38-10.38Z"
  />
  <path
    fill="#263238"
    d="M221.009 65.544a19.5 19.5 0 0 0 2.27-.31 10.358 10.358 0 0 0 5.49-3.33 10.081 10.081 0 0 0 2.16-4.14 22.24 22.24 0 0 0 .32-5.59v-35.1a17.546 17.546 0 0 0-.35-4.64 10.11 10.11 0 0 0-8.6-7.51 19.528 19.528 0 0 0-2.55-.08h-38.95c-1.9.01-3.759.55-5.37 1.56a9.441 9.441 0 0 0-2.14 1.79 9.378 9.378 0 0 0-1.56 2.3 9.826 9.826 0 0 0-.88 2.61 15 15 0 0 0-.18 2.76v36.65a25.674 25.674 0 0 0 .2 4.67c.308 1.47.933 2.855 1.83 4.06a10.153 10.153 0 0 0 7.21 4c2.76.1 5.46 0 8 .07l24.21.08 6.58.05-6.58.05-24.21.08c-2.56 0-5.22.06-8 0a10.5 10.5 0 0 1-7.52-4.18 10.684 10.684 0 0 1-1.93-4.23 27.055 27.055 0 0 1-.22-4.76v-36.53c-.034-.954.027-1.909.18-2.85.183-.954.492-1.879.92-2.75.431-.877.983-1.688 1.64-2.41a10.198 10.198 0 0 1 2.25-1.89 10.722 10.722 0 0 1 5.65-1.64h38.84c.871-.018 1.742.008 2.61.08.863.108 1.709.32 2.52.63a10.641 10.641 0 0 1 6.39 7.24 17.98 17.98 0 0 1 .34 4.76v35.1a21.976 21.976 0 0 1-.37 5.66 10.43 10.43 0 0 1-7.87 7.5c-.559.118-1.128.188-1.7.21-.47.04-.63.03-.63.03Z"
  />
  <path
    fill="#263238"
    d="M204.559 65.972a2.917 2.917 0 0 1-3.483 2.876 2.92 2.92 0 1 1 3.483-2.876Z"
  />
  <path
    fill="#263238"
    d="M201.639 98.822c-.14 0-.26-6.92-.26-15.45s.12-15.45.26-15.45.26 6.92.26 15.45-.11 15.45-.26 15.45Z"
  />
  <path
    fill="#016CDE"
    d="M223.93 37.472c1.53 5.36-2 10.6-7.45 10.6H187.6a7.208 7.208 0 0 1-7-9.07c.066-.24.15-.473.25-.7a7.619 7.619 0 0 1 8.28-4.5 13.12 13.12 0 0 1 25.39-2.8s7.49-.4 9.41 6.47Z"
  />
  <path
    fill="#fff"
    d="M332.365 86.52h-40.19c-5.733 0-10.38 4.647-10.38 10.38v40.19c0 5.732 4.647 10.38 10.38 10.38h40.19c5.733 0 10.38-4.648 10.38-10.38V96.9c0-5.733-4.647-10.38-10.38-10.38Z"
  />
  <path
    fill="#263238"
    d="M332.355 147.459a17.053 17.053 0 0 0 2.26-.31 10.358 10.358 0 0 0 5.49-3.33 10.002 10.002 0 0 0 2.16-4.13c.346-1.845.454-3.727.32-5.6v-35.09a18.142 18.142 0 0 0-.34-4.65 10.162 10.162 0 0 0-6.2-6.91 9.373 9.373 0 0 0-2.41-.6c-.848-.072-1.7-.099-2.55-.08h-38.91c-1.9.004-3.761.54-5.37 1.55a9.72 9.72 0 0 0-2.14 1.8 9.342 9.342 0 0 0-1.56 2.29 10.2 10.2 0 0 0-.88 2.62 14.742 14.742 0 0 0-.18 2.76v36.64a26.623 26.623 0 0 0 .2 4.68 10.294 10.294 0 0 0 1.83 4.05 10.152 10.152 0 0 0 7.22 4.05c2.75.09 5.45 0 8 .06l24.21.08 6.58.05h2.3-8.88l-24.21.09c-2.56 0-5.22.06-8 0a10.642 10.642 0 0 1-9.44-8.42 25.174 25.174 0 0 1-.22-4.76v-36.64a14.49 14.49 0 0 1 .18-2.86c.182-.954.491-1.879.92-2.75.43-.876.982-1.688 1.64-2.41a10.154 10.154 0 0 1 2.25-1.89 10.708 10.708 0 0 1 5.65-1.63h38.84c.871-.02 1.742.01 2.61.09a10.35 10.35 0 0 1 2.52.63 10.59 10.59 0 0 1 6.469 7.25c.326 1.564.44 3.165.341 4.76v35.271a22.48 22.48 0 0 1-.38 5.66 10.08 10.08 0 0 1-2.25 4.2 10.354 10.354 0 0 1-5.62 3.31 9.633 9.633 0 0 1-1.7.2c-.56-.02-.75-.03-.75-.03Z"
  />
  <path
    fill="#016CDE"
    d="M302.741 132.378a18.541 18.541 0 0 0 10.304 3.12 18.563 18.563 0 0 0 18.53-18.53 18.543 18.543 0 0 0-22.155-18.194 18.542 18.542 0 0 0-13.512 25.284 18.537 18.537 0 0 0 6.833 8.32Zm3.091-23.275c2.017-5.452 5.583-8.28 7.113-9.274 1.551 1.009 5.063 3.813 6.93 9.448-1.883.497-4.069.811-6.59.811-2.886 0-5.358-.388-7.453-.985Zm-.325.945c2.189.63 4.769 1.04 7.778 1.04 2.629 0 4.914-.331 6.883-.853.491 1.744.823 3.736.907 6.003l.009.28H304.4c.103-2.456.513-4.604 1.107-6.47Zm-1.13 7.47h16.715a23.644 23.644 0 0 1-.778 5.853c-2.138-.573-4.643-.943-7.549-.943-2.979 0-5.515.412-7.652 1.04-.464-1.751-.745-3.729-.736-5.95Zm-.981-1a22.701 22.701 0 0 1 1.13-6.775c-2.45-.82-4.358-1.906-5.785-2.941a17.528 17.528 0 0 0-3.241 9.716h7.896Zm-7.893 1h7.856c-.04 2.125.23 4.232.792 6.256-2.444.838-4.308 1.951-5.666 2.989a17.55 17.55 0 0 1-2.982-9.245Zm26.588 0a24.728 24.728 0 0 1-.817 6.132c2.732.852 4.806 2.029 6.305 3.121l.039-.057a17.54 17.54 0 0 0 2.948-9.196h-8.475Zm8.477-1a17.548 17.548 0 0 0-3.247-9.712c-1.478 1.124-3.507 2.308-6.174 3.145.504 1.818.843 3.894.928 6.257l.009.31h8.484Zm-17.68 17.989c.73-.503 5.1-3.7 7.148-10.18-2.055-.547-4.468-.899-7.271-.899-2.879 0-5.321.396-7.372.999 2.06 6.48 6.606 9.557 7.447 10.08h.048Zm-5.153-3.449a21.854 21.854 0 0 1-3.295-6.326c-2.32.8-4.084 1.859-5.371 2.848a17.537 17.537 0 0 0 11.917 6.808 17.472 17.472 0 0 1-3.251-3.33Zm19.26-3.471c-1.421-1.049-3.394-2.169-5.999-2.982-1.625 5.163-4.667 8.351-6.398 9.833a17.542 17.542 0 0 0 12.397-6.851Zm-22.137-18.785a22.724 22.724 0 0 1 3.617-6.294 16.525 16.525 0 0 1 3.226-3.03 17.537 17.537 0 0 0-12.355 6.524c1.357.987 3.174 2.02 5.512 2.8Zm21.863-2.791a17.558 17.558 0 0 0-12.517-6.543c1.885 1.367 4.953 4.275 6.656 9.525 2.534-.797 4.458-1.919 5.861-2.982Z"
  />
  <path
    fill="#263238"
    d="M284.485 118.229a2.92 2.92 0 1 1-1.795-2.698c.354.147.675.362.946.633a2.91 2.91 0 0 1 .849 2.065Z"
  />
  <path
    fill="#263238"
    d="M283.205 118.229c0 .14-6.92.26-15.45.26s-15.45-.12-15.45-.26 6.92-.26 15.45-.26 15.45.11 15.45.26Z"
  />
  <path
    fill="#E0E0E0"
    d="m270.365 208.37-13.05-45.94h-114.1l-14.87 45.79a4.293 4.293 0 0 0 .578 3.825 4.298 4.298 0 0 0 3.422 1.805h52.12l2.11-2.11h24.61l2.11 2.11h53a4.282 4.282 0 0 0 4.07-5.48Z"
  />
  <path
    fill="#000"
    d="m270.365 208.37-13.05-45.94h-114.1l-14.87 45.79a4.293 4.293 0 0 0 .578 3.825 4.298 4.298 0 0 0 3.422 1.805h52.12l2.11-2.11h24.61l2.11 2.11h53a4.282 4.282 0 0 0 4.07-5.48Z"
    opacity=".3"
  />
  <path
    fill="#455A64"
    d="M143.165 161.238v-67.41a4.803 4.803 0 0 1 1.401-3.417 4.818 4.818 0 0 1 3.409-1.423h104.85a4.822 4.822 0 0 1 4.81 4.84v67.41h-114.47Z"
  />
  <path fill="#fff" d="M250.715 95.66h-100.63v59.95h100.63V95.66Z"/>
  <path
    fill="#263238"
    d="M250.715 155.608v-4.24c0-2.77 0-6.82-.06-12 0-10.39-.06-25.35-.1-43.69l.2.2-100.65.04.26-.26v59.95l-.24-.24 72.38.11 20.78.07h7.47-7.37l-20.72.06-72.54.12h-.24v-60.33h.22l100.62.06h.2v.2c0 18.4-.08 33.4-.11 43.82 0 5.18 0 9.21-.05 12v3.11c0 .72-.05 1.02-.05 1.02Z"
  />
  <path
    fill="#fff"
    d="M202.255 92.5a1.86 1.86 0 1 1-1.85-1.82 1.83 1.83 0 0 1 1.85 1.82Z"
  />
  <path
    fill="#455A64"
    d="m270.365 206.667-13.05-45.94h-114.1l-14.87 45.79a4.293 4.293 0 0 0 .578 3.825 4.286 4.286 0 0 0 3.422 1.805h52.12l2.11-2.11h24.61l2.11 2.11h53a4.282 4.282 0 0 0 4.07-5.48Z"
  />
  <path
    fill="#EBEBEB"
    d="m249.215 163.67-99.43-.33a2.304 2.304 0 0 0-2.25 1.38l-8 22.62c-.43 1.23.68 2.45 2.24 2.45h115.09c1.55 0 2.67-1.21 2.24-2.44l-7.65-22.28a2.333 2.333 0 0 0-.904-1.046c-.4-.25-.865-.374-1.336-.354Z"
  />
  <path
    fill="#C5DDE9"
    d="M218.334 207.06h-39.23a2.648 2.648 0 0 1-1.995-1.109 2.64 2.64 0 0 1-.385-2.251l2.22-9.29a2.504 2.504 0 0 1 2.38-2h35.06a2.52 2.52 0 0 1 2.4 2.08l2 9.28a2.63 2.63 0 0 1-.44 2.229 2.649 2.649 0 0 1-2.01 1.061Z"
    opacity=".1"
  />
  <path
    fill="#263238"
    d="m218.205 170.829-1-4.74a.7.7 0 0 0-.69-.55h-6.12a.703.703 0 0 0-.679.501.703.703 0 0 0-.021.299l.68 4.74a.71.71 0 0 0 .7.61h6.47a.706.706 0 0 0 .659-.554.718.718 0 0 0 .001-.306Zm-18.45.11-.44-4.76a.691.691 0 0 0-.7-.64h-6.25a.714.714 0 0 0-.662.452.697.697 0 0 0-.048.278l.17 4.76a.71.71 0 0 0 .71.68h6.57a.695.695 0 0 0 .485-.25.706.706 0 0 0 .165-.52Zm9.71-.05-.68-4.75a.7.7 0 0 0-.7-.6h-7.2a.713.713 0 0 0-.522.229.706.706 0 0 0-.178.541l.43 4.75a.717.717 0 0 0 .71.64h7.44a.706.706 0 0 0 .7-.81Zm-45.66.12 1-4.32a1.004 1.004 0 0 0-.532-1.041.99.99 0 0 0-.398-.109h-5.93a1.003 1.003 0 0 0-.91.69l-1.24 4.32a1.003 1.003 0 0 0 .92 1.21h6.2a1 1 0 0 0 .89-.75Zm86.38-.33-1.8-4.69a.7.7 0 0 0-.66-.45h-11.62a.705.705 0 0 0-.581.301.691.691 0 0 0-.079.649l1.75 4.7a.684.684 0 0 0 .66.46h11.69a.713.713 0 0 0 .572-.319.72.72 0 0 0 .068-.651Zm-60.08-5.14h-6.76a.708.708 0 0 0-.71.67l-.23 4.78a.709.709 0 0 0 .71.74h7.17a.704.704 0 0 0 .656-.453.707.707 0 0 0 .044-.277l-.17-4.77a.707.707 0 0 0-.71-.69Zm-35 0h-4.71a1.002 1.002 0 0 0-.9.63l-1.55 4.34a1.009 1.009 0 0 0 .468 1.143c.13.073.274.116.422.127h5a1 1 0 0 0 .91-.69l1.24-4.33a.995.995 0 0 0-.478-1.092 1.004 1.004 0 0 0-.402-.128Zm17.45 5.59.63-4.8a.7.7 0 0 0-.7-.79h-6a.705.705 0 0 0-.69.55l-1.07 4.8a.698.698 0 0 0 .69.86h6.47a.691.691 0 0 0 .67-.62Zm1.549-4.982-.63 4.79a.72.72 0 0 0 .174.561.708.708 0 0 0 .536.239h6.69a.71.71 0 0 0 .71-.67l.23-4.78a.71.71 0 0 0-.193-.525.708.708 0 0 0-.517-.215h-6.3a.708.708 0 0 0-.7.6Zm53.301 4.612-1.4-4.72a.705.705 0 0 0-.68-.5h-6.52a.702.702 0 0 0-.69.85l1 4.73a.707.707 0 0 0 .69.56h6.9a.71.71 0 0 0 .7-.92Zm8.7-.06-1.75-4.7a.713.713 0 0 0-.66-.46h-6a.698.698 0 0 0-.67.9l1.39 4.72a.712.712 0 0 0 .68.5h6.35a.727.727 0 0 0 .574-.312.711.711 0 0 0 .086-.648Zm-45.74 2.09h-7.38a.71.71 0 0 0-.71.67l-.24 4.94a.709.709 0 0 0 .71.74h7.8a.717.717 0 0 0 .71-.74l-.18-4.92a.707.707 0 0 0-.71-.69Zm48.489 5.318-1.81-4.85a.697.697 0 0 0-.66-.46h-6.54a.714.714 0 0 0-.567.285.703.703 0 0 0-.113.625l1.44 4.9a.714.714 0 0 0 .68.5h6.91a.71.71 0 0 0 .66-1Zm-9.249.06-1.45-4.87a.693.693 0 0 0-.67-.5h-7.11a.7.7 0 0 0-.69.85l1.05 4.88a.72.72 0 0 0 .69.56h7.5a.71.71 0 0 0 .68-.92Zm-56.43.98h7.31a.712.712 0 0 0 .7-.67l.24-4.94a.71.71 0 0 0-.71-.74h-6.9a.711.711 0 0 0-.7.62l-.64 4.94a.698.698 0 0 0 .7.79Zm19.63-.03h6.93c.098 0 .195-.02.285-.059a.713.713 0 0 0 .383-.422.69.69 0 0 0 .032-.289l-.45-4.9a.71.71 0 0 0-.7-.65h-6.66a.701.701 0 0 0-.656.461.716.716 0 0 0-.044.279l.18 4.91c.008.18.085.351.215.476a.705.705 0 0 0 .485.194Zm8.04-5.509.45 4.9a.724.724 0 0 0 .71.64h7.81a.703.703 0 0 0 .678-.502.697.697 0 0 0 .022-.298l-.7-4.9a.69.69 0 0 0-.69-.6h-7.57a.718.718 0 0 0-.671.473.699.699 0 0 0-.039.287Zm18.96 4.619-1.06-4.88a.698.698 0 0 0-.69-.55h-6.65a.703.703 0 0 0-.678.501.703.703 0 0 0-.022.299l.7 4.89a.71.71 0 0 0 .7.61h7a.712.712 0 0 0 .7-.87Zm-57.28-5.438h-14.74a.724.724 0 0 0-.66.45l-1.92 5a.695.695 0 0 0 .079.649.705.705 0 0 0 .581.301h15.55a.71.71 0 0 0 .69-.58l1.11-5a.71.71 0 0 0-.69-.82Zm1.21 6.371h7.16a.71.71 0 0 0 .7-.61l.64-5a.703.703 0 0 0-.7-.8h-6.69a.707.707 0 0 0-.69.55l-1.11 5a.719.719 0 0 0 .14.594.704.704 0 0 0 .55.266Zm83.92-.11h4.6a.709.709 0 0 0 .66-1l-1.94-4.83a.72.72 0 0 0-.66-.45h-4.21a.715.715 0 0 0-.701.599.713.713 0 0 0 .021.331l1.57 4.83a.726.726 0 0 0 .66.52Zm-1.71-.923-1.57-4.84a.715.715 0 0 0-.67-.49h-4.91a.707.707 0 0 0-.696.617.7.7 0 0 0 .036.333l1.8 4.85a.705.705 0 0 0 .67.46h4.67a.704.704 0 0 0 .576-.291.694.694 0 0 0 .094-.639Zm-73.45 9.332h7.24a1.048 1.048 0 0 0 1.06-1l.25-5.15a1.065 1.065 0 0 0-.289-.785 1.059 1.059 0 0 0-.771-.325h-6.82a1.057 1.057 0 0 0-1.06.92l-.67 5.14a1.064 1.064 0 0 0 .256.842 1.054 1.054 0 0 0 .804.358Zm80.69-7.262h-11.08a1.062 1.062 0 0 0-1 1.43l2 5.25a1.061 1.061 0 0 0 1 .7h11.23a1.063 1.063 0 0 0 .88-.462 1.067 1.067 0 0 0 .12-.988l-2.06-5.28a1.062 1.062 0 0 0-1.09-.65Zm-90.75.833-1.15 5.12a1.059 1.059 0 0 0 1 1.29h7.17a1.071 1.071 0 0 0 1.05-.93l.67-5.13a1.06 1.06 0 0 0-.249-.842 1.05 1.05 0 0 0-.801-.358h-6.69a1.065 1.065 0 0 0-.648.251 1.064 1.064 0 0 0-.352.599Zm-9.73-.061-1.51 5.29a.914.914 0 0 0 .15.803.9.9 0 0 0 .322.269.902.902 0 0 0 .408.098h7.32a.91.91 0 0 0 .89-.72l1.21-5.39a.901.901 0 0 0-.176-.78.91.91 0 0 0-.724-.34l-7 .09a.923.923 0 0 0-.89.68Zm68.67.511 1.13 5.23a1.047 1.047 0 0 0 1 .83h7.42a1.069 1.069 0 0 0 1-1.37l-1.56-5.23a1.053 1.053 0 0 0-1-.76h-7a1.05 1.05 0 0 0-.99 1.3Zm-39.47-.271-.25 5.15a1.054 1.054 0 0 0 .64 1.034c.132.057.275.086.42.086l37.78.06a1.07 1.07 0 0 0 1-1.29l-1.13-5.22a1.062 1.062 0 0 0-1-.83h-36.4a1.064 1.064 0 0 0-1.06 1.01Zm-37.46-.461-2 5.53a.843.843 0 0 0 .1.771.835.835 0 0 0 .69.359h6.14a.857.857 0 0 0 .81-.61l1.58-5.54a.85.85 0 0 0-.138-.737.85.85 0 0 0-.297-.246.856.856 0 0 0-.375-.087h-5.69a.839.839 0 0 0-.82.56Zm87.05.86 1.55 5.24a1.068 1.068 0 0 0 1 .76h6.77a1.057 1.057 0 0 0 1.058-.926c.022-.17.002-.343-.058-.504l-2-5.25a1.061 1.061 0 0 0-1-.69h-6.37a1.055 1.055 0 0 0-.985.896c-.024.159-.013.321.035.474Zm26.23-20.711c0 .14-25.58.26-57.13.26-31.55 0-57.13-.12-57.13-.26s25.57-.26 57.13-.26c31.56 0 57.13.11 57.13.26Z"
  />
  <path
    fill="#E0E0E0"
    d="M178.275 112.877a15.006 15.006 0 0 1 3.45-2.15l.21-3.77 6.15-1 1.43 3.49a15.7 15.7 0 0 1 4 .91l2.81-2.5 5.08 3.62-1.46 3.47a15.356 15.356 0 0 1 2.16 3.45l3.76.21 1 6.15-3.49 1.43a14.855 14.855 0 0 1-.91 4l2.51 2.81-3.62 5.08-3.49-1.47a15.464 15.464 0 0 1-3.44 2.15l-.22 3.76-6.15 1-1.43-3.49a14.855 14.855 0 0 1-4-.91l-2.77 2.49-5.08-3.62 1.46-3.47a15.787 15.787 0 0 1-2.16-3.45l-3.76-.22-1-6.15 3.49-1.43a15.7 15.7 0 0 1 .91-4l-2.51-2.81 3.62-5.08 3.48 1.46-.03.04Zm4.51 7.72a6.686 6.686 0 0 0-.224 7.428 6.688 6.688 0 0 0 10.254 1.329 6.694 6.694 0 0 0 1.677-7.239 6.682 6.682 0 0 0-9.806-3.302 6.702 6.702 0 0 0-1.901 1.794v-.01Zm29.38 7.943a10.281 10.281 0 0 1 2.33-1.45l.15-2.55 4.16-.7 1 2.36c.916.087 1.818.296 2.68.62l1.9-1.7 3.44 2.45-1 2.35a10.367 10.367 0 0 1 1.45 2.34l2.55.14.7 4.17-2.36 1c-.09.916-.298 1.817-.62 2.68l1.7 1.9-2.46 3.46-2.36-1a10.172 10.172 0 0 1-2.33 1.46l-.14 2.55-4.17.7-1-2.37a10.48 10.48 0 0 1-2.68-.61l-1.9 1.69-3.44-2.45 1-2.35a9.995 9.995 0 0 1-1.46-2.33l-2.55-.15-.7-4.16 2.37-1a9.99 9.99 0 0 1 .61-2.68l-1.7-1.9 2.46-3.44 2.35 1 .02-.03Zm3.06 5.23a4.532 4.532 0 0 0 1.827 6.764 4.53 4.53 0 1 0-1.827-6.764Zm-5.01-29.583a9.644 9.644 0 0 1 2.06-1.29l.13-2.25 3.69-.62.85 2.09a9.595 9.595 0 0 1 2.38.55l1.68-1.51 3 2.17-.87 2.09a8.935 8.935 0 0 1 1.29 2.06l2.26.13.61 3.69-2.09.85a8.996 8.996 0 0 1-.54 2.38l1.5 1.68-2.17 3.05-2.08-.88a9.018 9.018 0 0 1-2.07 1.29l-.13 2.26-3.68.62-.86-2.09a9.316 9.316 0 0 1-2.37-.55l-1.69 1.5-3-2.17.87-2.08a9.274 9.274 0 0 1-1.29-2.07l-2.25-.13-.62-3.68 2.09-.86a8.99 8.99 0 0 1 .55-2.37l-1.51-1.69 2.17-3 2.09.87v-.04Zm2.7 4.63a4 4 0 1 0 6.516 4.64 4 4 0 0 0-6.516-4.64Z"
  />
</svg>
