<svg width="400" height="225" viewBox="0 0 400 225" fill="none" xmlns="http://www.w3.org/2000/svg">
<path d="M196.334 133.517L218.399 57.9692C218.716 56.9358 218.814 55.8479 218.686 54.7746C218.559 53.7013 218.21 52.6664 217.66 51.7357L198.654 19.5056C197.664 17.8284 196.081 16.5826 194.219 16.0133C192.356 15.4441 190.348 15.5925 188.589 16.4295L154.812 32.5295C153.837 32.9958 152.97 33.6594 152.264 34.4785C151.559 35.2976 151.032 36.2541 150.715 37.2877L128.651 112.836C128.351 113.814 128.248 114.842 128.346 115.86C128.444 116.878 128.742 117.868 129.223 118.771C129.703 119.674 130.357 120.474 131.147 121.124C131.937 121.774 132.847 122.263 133.825 122.562L186.608 138.692C187.587 138.991 188.615 139.094 189.633 138.996C190.651 138.898 191.64 138.6 192.543 138.12C193.447 137.639 194.246 136.985 194.897 136.196C195.547 135.406 196.036 134.496 196.334 133.517ZM186.265 42.7844C184.913 42.2699 183.743 41.366 182.905 40.1869C182.066 39.0078 181.596 37.6065 181.554 36.1602C181.512 34.7139 181.899 33.2876 182.668 32.0616C183.436 30.8357 184.551 29.8651 185.871 29.2727C187.191 28.6804 188.657 28.4928 190.084 28.7337C191.511 28.9745 192.834 29.6331 193.887 30.6261C194.939 31.619 195.673 32.9018 195.997 34.3121C196.32 35.7224 196.218 37.1969 195.703 38.5492C195.013 40.3622 193.631 41.827 191.861 42.6212C190.091 43.4154 188.078 43.4741 186.265 42.7844Z" fill="#EBEBEB"/>
<path d="M196.334 133.517L218.399 57.9692C218.716 56.9358 218.814 55.8479 218.686 54.7746C218.559 53.7013 218.21 52.6664 217.66 51.7357L198.654 19.5056C197.664 17.8284 196.081 16.5826 194.219 16.0133C192.356 15.4441 190.348 15.5925 188.589 16.4295L154.812 32.5295C153.837 32.9958 152.97 33.6594 152.264 34.4785C151.559 35.2976 151.032 36.2541 150.715 37.2877L128.651 112.836C128.351 113.814 128.248 114.842 128.346 115.86C128.444 116.878 128.742 117.868 129.223 118.771C129.703 119.674 130.357 120.474 131.147 121.124C131.937 121.774 132.847 122.263 133.825 122.562L186.608 138.692C187.587 138.991 188.615 139.094 189.633 138.996C190.651 138.898 191.64 138.6 192.543 138.12C193.447 137.639 194.246 136.985 194.897 136.196C195.547 135.406 196.036 134.496 196.334 133.517ZM186.265 42.7844C184.913 42.2699 183.743 41.366 182.905 40.1869C182.066 39.0078 181.596 37.6065 181.554 36.1602C181.512 34.7139 181.899 33.2876 182.668 32.0616C183.436 30.8357 184.551 29.8651 185.871 29.2727C187.191 28.6804 188.657 28.4928 190.084 28.7337C191.511 28.9745 192.834 29.6331 193.887 30.6261C194.939 31.619 195.673 32.9018 195.997 34.3121C196.32 35.7224 196.218 37.1969 195.703 38.5492C195.013 40.3622 193.631 41.827 191.861 42.6212C190.091 43.4154 188.078 43.4741 186.265 42.7844Z" fill="#EBEBEB"/>
<path d="M153.562 47.4477C153.742 46.939 154.3 46.6722 154.808 46.8517L208.57 65.8302C209.079 66.0098 209.346 66.5677 209.166 67.0764C208.987 67.5852 208.429 67.852 207.92 67.6724L154.158 48.694C153.649 48.5144 153.383 47.9564 153.562 47.4477Z" fill="#E0E0E0"/>
<path d="M151.055 59.671C151.235 59.1622 151.793 58.8954 152.301 59.075L206.063 78.0534C206.572 78.233 206.839 78.791 206.659 79.2997C206.48 79.8084 205.922 80.0752 205.413 79.8956L151.651 60.9172C151.142 60.7376 150.875 60.1797 151.055 59.671Z" fill="#E0E0E0"/>
<path d="M147.364 70.9087C147.544 70.4 148.102 70.1332 148.611 70.3127L202.373 89.2912C202.882 89.4707 203.148 90.0287 202.969 90.5374C202.789 91.0461 202.231 91.313 201.723 91.1334L147.96 72.155C147.452 71.9754 147.185 71.4174 147.364 70.9087Z" fill="#E0E0E0"/>
<path d="M143.288 86.3398C143.468 85.8311 144.026 85.5643 144.535 85.7439L198.297 104.722C198.805 104.902 199.072 105.46 198.893 105.969C198.713 106.477 198.155 106.744 197.646 106.565L143.884 87.5861C143.376 87.4065 143.109 86.8485 143.288 86.3398Z" fill="#E0E0E0"/>
<path d="M139.753 98.675C139.933 98.1663 140.49 97.8994 140.999 98.079L194.761 117.057C195.27 117.237 195.537 117.795 195.357 118.304C195.178 118.812 194.62 119.079 194.111 118.9L140.349 99.9212C139.84 99.7417 139.573 99.1837 139.753 98.675Z" fill="#E0E0E0"/>
<path d="M132.748 134.26C140.737 132.748 145.987 125.047 144.475 117.058C142.964 109.069 135.262 103.818 127.273 105.33C119.284 106.842 114.034 114.544 115.545 122.532C117.057 130.521 124.759 135.772 132.748 134.26Z" fill="#016CDE"/>
<path fill-rule="evenodd" clip-rule="evenodd" d="M129.245 110.608L132.258 110.853L131.641 118.413L139.197 119.03L138.951 122.043L131.395 121.426L130.779 128.978L127.767 128.733L128.383 121.18L120.826 120.564L121.072 117.551L128.629 118.168L129.245 110.608Z" fill="white"/>
<path d="M106.429 161.11L108.446 139.418C108.478 139.121 108.447 138.82 108.356 138.535C108.265 138.25 108.115 137.987 107.917 137.763L101.055 130.006C100.697 129.602 100.202 129.347 99.6657 129.29C99.1295 129.234 98.5916 129.38 98.1578 129.7L89.8271 135.854C89.5867 136.032 89.3859 136.258 89.2374 136.518C89.0888 136.777 88.9959 137.065 88.9644 137.363L86.9472 159.054C86.9175 159.336 86.9435 159.621 87.0238 159.892C87.1041 160.164 87.2371 160.417 87.4153 160.637C87.5934 160.857 87.8132 161.04 88.0621 161.175C88.3109 161.31 88.584 161.395 88.8656 161.425L104.059 163.028C104.34 163.058 104.625 163.032 104.897 162.952C105.168 162.871 105.421 162.738 105.641 162.56C105.861 162.382 106.044 162.162 106.179 161.913C106.315 161.664 106.399 161.391 106.429 161.11ZM98.9143 136.984C98.5197 136.915 98.1543 136.731 97.8643 136.455C97.5743 136.179 97.3728 135.823 97.2851 135.432C97.1975 135.041 97.2277 134.633 97.372 134.26C97.5163 133.886 97.7681 133.564 98.0956 133.333C98.4231 133.103 98.8117 132.974 99.212 132.965C99.6124 132.955 100.007 133.064 100.345 133.279C100.683 133.493 100.95 133.803 101.113 134.169C101.275 134.535 101.325 134.942 101.256 135.336C101.164 135.865 100.865 136.336 100.426 136.645C99.9872 136.954 99.4433 137.076 98.9143 136.984Z" fill="#EEEEEE"/>
<path d="M106.429 161.11L108.446 139.418C108.478 139.121 108.447 138.82 108.356 138.535C108.265 138.25 108.115 137.987 107.917 137.763L101.055 130.006C100.697 129.602 100.202 129.347 99.6657 129.29C99.1295 129.234 98.5916 129.38 98.1578 129.7L89.8271 135.854C89.5867 136.032 89.3859 136.258 89.2374 136.518C89.0888 136.777 88.9959 137.065 88.9644 137.363L86.9472 159.054C86.9175 159.336 86.9435 159.621 87.0238 159.892C87.1041 160.164 87.2371 160.417 87.4153 160.637C87.5934 160.857 87.8132 161.04 88.0621 161.175C88.3109 161.31 88.584 161.395 88.8656 161.425L104.059 163.028C104.34 163.058 104.625 163.032 104.897 162.952C105.168 162.871 105.421 162.738 105.641 162.56C105.861 162.382 106.044 162.162 106.179 161.913C106.315 161.664 106.399 161.391 106.429 161.11ZM98.9143 136.984C98.5197 136.915 98.1543 136.731 97.8643 136.455C97.5743 136.179 97.3728 135.823 97.2851 135.432C97.1975 135.041 97.2277 134.633 97.372 134.26C97.5163 133.886 97.7681 133.564 98.0956 133.333C98.4231 133.103 98.8117 132.974 99.212 132.965C99.6124 132.955 100.007 133.064 100.345 133.279C100.683 133.493 100.95 133.803 101.113 134.169C101.275 134.535 101.325 134.942 101.256 135.336C101.164 135.865 100.865 136.336 100.426 136.645C99.9872 136.954 99.4433 137.076 98.9143 136.984Z" fill="#EEEEEE"/>
<path d="M290.052 47.1283L265.373 14.4226C265.04 13.9691 264.617 13.5899 264.129 13.3092C263.641 13.0286 263.101 12.8526 262.541 12.7926L243.175 10.7048C242.167 10.5967 241.154 10.8698 240.337 11.4704C239.521 12.071 238.958 12.9556 238.761 13.9501L234.978 33.0584C234.87 33.6105 234.877 34.1792 235 34.7283C235.122 35.2774 235.358 35.7951 235.691 36.2486L260.37 68.9543C260.685 69.3834 261.082 69.7462 261.538 70.0219C261.994 70.2976 262.499 70.4808 263.026 70.5611C263.552 70.6413 264.089 70.617 264.606 70.4896C265.124 70.3622 265.611 70.1342 266.04 69.8185L289.188 52.798C289.617 52.4825 289.98 52.0856 290.256 51.63C290.531 51.1743 290.715 50.6687 290.795 50.1422C290.875 49.6157 290.851 49.0785 290.724 48.5614C290.596 48.0442 290.368 47.5573 290.052 47.1283ZM249.041 23.1162C248.405 23.5208 247.664 23.7279 246.911 23.7114C246.158 23.6948 245.427 23.4553 244.81 23.0231C244.193 22.591 243.718 21.9856 243.445 21.2835C243.173 20.5814 243.114 19.8142 243.277 19.0788C243.44 18.3435 243.818 17.6731 244.362 17.1523C244.907 16.6316 245.593 16.284 246.335 16.1534C247.077 16.0228 247.841 16.1151 248.53 16.4187C249.219 16.7223 249.803 17.2234 250.208 17.8588C250.75 18.7108 250.932 19.7432 250.713 20.7291C250.494 21.7151 249.893 22.5737 249.041 23.1162Z" fill="#F5F5F5"/>
<path d="M290.052 47.1283L265.373 14.4226C265.04 13.9691 264.617 13.5899 264.129 13.3092C263.641 13.0286 263.101 12.8526 262.541 12.7926L243.175 10.7048C242.167 10.5967 241.154 10.8698 240.337 11.4704C239.521 12.071 238.958 12.9556 238.761 13.9501L234.978 33.0584C234.87 33.6105 234.877 34.1792 235 34.7283C235.122 35.2774 235.358 35.7951 235.691 36.2486L260.37 68.9543C260.685 69.3834 261.082 69.7462 261.538 70.0219C261.994 70.2976 262.499 70.4808 263.026 70.5611C263.552 70.6413 264.089 70.617 264.606 70.4896C265.124 70.3622 265.611 70.1342 266.04 69.8185L289.188 52.798C289.617 52.4825 289.98 52.0856 290.256 51.63C290.531 51.1743 290.715 50.6687 290.795 50.1422C290.875 49.6157 290.851 49.0785 290.724 48.5614C290.596 48.0442 290.368 47.5573 290.052 47.1283ZM249.041 23.1162C248.405 23.5208 247.664 23.7279 246.911 23.7114C246.158 23.6948 245.427 23.4553 244.81 23.0231C244.193 22.591 243.718 21.9856 243.445 21.2835C243.173 20.5814 243.114 19.8142 243.277 19.0788C243.44 18.3435 243.818 17.6731 244.362 17.1523C244.907 16.6316 245.593 16.284 246.335 16.1534C247.077 16.0228 247.841 16.1151 248.53 16.4187C249.219 16.7223 249.803 17.2234 250.208 17.8588C250.75 18.7108 250.932 19.7432 250.713 20.7291C250.494 21.7151 249.893 22.5737 249.041 23.1162Z" fill="#F5F5F5"/>
<path d="M205.244 214.319C267.662 214.319 318.262 211.354 318.262 207.695C318.262 204.037 267.662 201.071 205.244 201.071C142.826 201.071 92.2263 204.037 92.2263 207.695C92.2263 211.354 142.826 214.319 205.244 214.319Z" fill="#F5F5F5"/>
<path d="M236.996 57.1982C237.533 57.9765 237.964 58.6319 238.407 59.3575C238.85 60.0831 239.27 60.7852 239.678 61.5167C240.494 62.9679 241.252 64.4425 241.945 65.9873C242.659 67.528 243.29 69.1063 243.834 70.7153C244.415 72.3666 244.874 74.0583 245.209 75.7769L245.431 77.111L245.46 77.2807L245.495 77.4914C245.495 77.6962 245.542 77.8717 245.548 78.0766C245.559 78.3066 245.559 78.537 245.548 78.767L245.518 79.1357L245.454 79.5453C245.405 79.8359 245.331 80.1218 245.233 80.3996C245.126 80.7086 244.989 81.0065 244.825 81.2891C244.498 81.8619 244.06 82.3633 243.537 82.7636C242.767 83.3513 241.863 83.7374 240.908 83.8871C240.28 83.9903 239.642 84.0218 239.007 83.9808C238.489 83.9566 237.973 83.8959 237.463 83.7994C236.562 83.6253 235.672 83.3967 234.799 83.1147C233.203 82.5778 231.645 81.9327 230.136 81.1837C228.647 80.4633 227.203 79.6543 225.811 78.7612L227.489 75.0279C230.385 75.8138 233.319 76.4505 236.279 76.9355C236.934 77.0348 237.594 77.0915 238.256 77.1052C238.678 77.1417 239.104 77.0939 239.509 76.9648C239.544 76.9355 239.41 76.8945 239.025 77.152C238.706 77.3863 238.462 77.71 238.325 78.0824C238.289 78.1736 238.26 78.2675 238.238 78.3633L238.203 78.5505C238.205 78.5837 238.205 78.6169 238.203 78.65C238.203 78.65 238.203 78.6793 238.203 78.65L238.203 78.5739L238.203 78.451L237.941 77.468C237.096 74.7214 235.999 72.0593 234.665 69.5157C234.006 68.1933 233.283 66.8884 232.549 65.5952C232.182 64.9457 231.803 64.3079 231.424 63.67C231.045 63.0322 230.637 62.3652 230.299 61.8327L236.996 57.1982Z" fill="#FFBE9D"/>
<path d="M228.13 75.3443L225.601 72.8164L223.088 78.4397C223.088 78.4397 225.467 79.768 227.583 78.8025L228.13 75.3443Z" fill="#FFBE9D"/>
<path d="M221.864 70.7979L219.999 75.5493L223.083 78.44L225.601 72.8166L221.864 70.7979Z" fill="#FFBE9D"/>
<path d="M212.392 39.4747C212.392 39.8667 212.206 40.1885 211.949 40.1944C211.693 40.2003 211.483 39.8843 211.477 39.4981C211.471 39.1119 211.669 38.7842 211.92 38.7842C212.171 38.7842 212.386 39.0885 212.392 39.4747Z" fill="#263238"/>
<path d="M212.241 40.1826C211.801 41.3819 211.201 42.5157 210.457 43.5531C210.726 43.7371 211.032 43.8601 211.353 43.9137C211.674 43.9672 212.003 43.95 212.317 43.8632L212.241 40.1826Z" fill="#FFBE9D"/>
<path d="M213.762 37.2852C213.701 37.2973 213.638 37.2846 213.587 37.2501C213.359 37.0765 213.092 36.9616 212.809 36.9157C212.527 36.8698 212.237 36.8942 211.966 36.9868C211.91 37.0101 211.847 37.0099 211.79 36.9863C211.734 36.9627 211.689 36.9176 211.666 36.861C211.643 36.8044 211.643 36.7408 211.667 36.6843C211.69 36.6278 211.735 36.5829 211.792 36.5596C212.135 36.445 212.501 36.4138 212.858 36.4688C213.216 36.5237 213.556 36.6631 213.849 36.8756C213.898 36.9099 213.932 36.9624 213.943 37.0216C213.954 37.0808 213.941 37.1419 213.907 37.1916C213.873 37.2404 213.82 37.2739 213.762 37.2852Z" fill="#263238"/>
<path d="M223.63 40.9609C223.386 44.5538 223.665 51.8039 226.399 53.8343C226.399 53.8343 225.729 56.7601 219.241 57.5852C212.112 58.4805 215.388 54.4604 215.388 54.4604C219.165 53.0327 218.705 50.1479 217.685 47.5088L223.63 40.9609Z" fill="#FFBE9D"/>
<path d="M241.304 196.33L241.263 196.33C241.177 196.285 241.107 196.214 241.063 196.127C241.019 196.04 241.004 195.941 241.018 195.845C241.02 195.768 241.039 195.692 241.073 195.623C241.107 195.555 241.156 195.494 241.217 195.447C241.764 194.979 243.362 195.183 243.432 195.189C243.453 195.193 243.473 195.203 243.489 195.217C243.506 195.232 243.518 195.25 243.525 195.271C243.531 195.292 243.531 195.314 243.525 195.335C243.519 195.356 243.506 195.374 243.49 195.388C243.117 195.692 241.881 196.529 241.304 196.33ZM243.128 195.371C242.586 195.33 241.689 195.324 241.38 195.599C241.345 195.627 241.316 195.663 241.296 195.703C241.276 195.744 241.265 195.788 241.263 195.833C241.263 196.049 241.345 196.09 241.374 196.108C241.66 196.254 242.54 195.809 243.128 195.371Z" fill="#016CDE"/>
<path d="M242.61 195.224C242.027 195.031 241.444 194.697 241.356 194.358C241.333 194.275 241.339 194.187 241.373 194.108C241.407 194.03 241.467 193.965 241.543 193.925C241.615 193.876 241.696 193.843 241.781 193.828C241.867 193.813 241.954 193.816 242.038 193.837C242.744 193.984 243.478 195.177 243.513 195.224C243.525 195.241 243.531 195.262 243.531 195.283C243.531 195.303 243.525 195.324 243.513 195.341C243.504 195.36 243.49 195.375 243.472 195.385C243.455 195.396 243.434 195.401 243.414 195.4C243.139 195.379 242.868 195.32 242.61 195.224ZM242.073 194.083L241.992 194.083C241.937 194.069 241.88 194.066 241.825 194.077C241.77 194.087 241.717 194.109 241.671 194.142C241.549 194.223 241.566 194.288 241.572 194.317C241.665 194.627 242.575 195.06 243.187 195.171C242.919 194.715 242.535 194.34 242.073 194.083Z" fill="#016CDE"/>
<path d="M205.911 204.33C205.293 204.33 204.698 204.242 204.494 203.967C204.443 203.893 204.415 203.805 204.415 203.715C204.415 203.625 204.443 203.537 204.494 203.464C204.534 203.398 204.587 203.341 204.649 203.296C204.711 203.251 204.781 203.218 204.856 203.2C205.654 202.978 207.339 203.938 207.409 203.979C207.429 203.991 207.445 204.01 207.454 204.032C207.463 204.054 207.466 204.078 207.461 204.102C207.458 204.124 207.448 204.146 207.432 204.162C207.417 204.179 207.396 204.191 207.374 204.195C206.891 204.281 206.401 204.326 205.911 204.33ZM205.147 203.393C205.073 203.384 204.999 203.384 204.925 203.393C204.879 203.404 204.836 203.424 204.798 203.452C204.76 203.48 204.728 203.516 204.704 203.557C204.622 203.698 204.652 203.768 204.704 203.809C204.925 204.119 206.144 204.125 207.036 204.002C206.452 203.676 205.81 203.469 205.147 203.393Z" fill="#016CDE"/>
<path d="M207.362 204.19L207.315 204.19C206.733 203.932 205.567 202.885 205.672 202.341C205.672 202.212 205.782 202.054 206.097 202.019C206.21 202.008 206.324 202.019 206.432 202.054C206.54 202.088 206.641 202.144 206.727 202.218C207.339 202.721 207.473 204.02 207.473 204.079C207.475 204.098 207.472 204.117 207.463 204.135C207.455 204.152 207.442 204.167 207.426 204.178C207.407 204.19 207.384 204.194 207.362 204.19ZM206.196 202.229L206.103 202.229C205.899 202.229 205.887 202.335 205.881 202.358C205.829 202.686 206.61 203.528 207.199 203.862C207.147 203.313 206.927 202.794 206.569 202.376C206.462 202.287 206.329 202.238 206.19 202.235L206.196 202.229Z" fill="#016CDE"/>
<path d="M212.649 204.078L207.84 204.078L207.362 192.901L212.171 192.901L212.649 204.078Z" fill="#FFBE9D"/>
<path d="M248.608 193.885L244.149 195.114L238.442 184.634L242.901 183.405L248.608 193.885Z" fill="#FFBE9D"/>
<path d="M243.478 194.628L248.293 192.153C248.379 192.112 248.476 192.1 248.569 192.12C248.662 192.14 248.745 192.191 248.806 192.264L251.598 195.647C251.665 195.73 251.712 195.827 251.737 195.931C251.761 196.036 251.762 196.144 251.739 196.248C251.716 196.353 251.67 196.451 251.604 196.535C251.538 196.619 251.455 196.688 251.359 196.735C249.669 197.566 248.8 197.905 246.696 198.976C245.396 199.643 241.526 202.534 239.573 203.072C237.62 203.611 236.862 201.709 237.614 201.317C240.082 200.043 241.98 197.883 242.93 195.266C243.028 194.993 243.223 194.765 243.478 194.628Z" fill="#263238"/>
<path d="M207.851 203.522L213.097 203.522C213.192 203.523 213.284 203.555 213.358 203.615C213.433 203.674 213.484 203.757 213.506 203.85L214.456 208.145C214.48 208.249 214.48 208.357 214.456 208.46C214.432 208.564 214.385 208.661 214.318 208.743C214.251 208.826 214.166 208.892 214.07 208.936C213.973 208.981 213.868 209.002 213.762 209C211.868 208.97 209.128 208.859 206.767 208.859C203.981 208.859 201.579 209.011 198.315 209.011C196.339 209.011 195.791 207.004 196.619 206.823C200.379 205.998 203.451 205.91 206.703 203.897C207.044 203.668 207.442 203.539 207.851 203.522Z" fill="#263238"/>
<path d="M228.533 62.7751C229.034 64.0683 229.588 65.3323 230.147 66.5201C231.103 68.574 232.059 70.3646 232.753 71.5993C233.371 72.7169 233.779 73.3547 233.779 73.3547L244.271 68.1234C244.271 68.1234 240.039 55.9113 235.621 54.5479C231.103 53.2196 226.265 56.9529 228.533 62.7751Z" fill="#263238"/>
<path opacity="0.2" d="M233.19 63.9805C232.275 64.6534 231.622 66.4732 231.156 68.609C231.739 69.7794 232.322 70.8034 232.753 71.5992C233.371 72.7168 233.779 73.3546 233.779 73.3546L234.98 72.7695C234.956 69.7511 234.349 66.766 233.19 63.9805Z" fill="black"/>
<path d="M206.324 70.5639C206.324 72.2023 206.365 74.0105 206.452 76.0059C206.691 81.4185 207.28 88.1654 208.405 96.5506L234.122 96.5506C234.303 92.5891 231.82 73.2498 235.632 54.5716C232.787 54.0244 229.909 53.6609 227.017 53.4833C223.375 53.2725 219.724 53.2725 216.082 53.4833C213.586 53.7411 211.113 54.189 208.685 54.8233C208.685 54.8233 206.318 57.5091 206.324 70.5639Z" fill="#263238"/>
<path d="M212.94 62.8977C212.558 63.7009 212.132 64.4823 211.664 65.2383C211.238 65.9288 210.807 66.5959 210.364 67.2395C209.478 68.5269 208.551 69.7674 207.577 70.9787C205.618 73.4374 203.447 75.7185 201.09 77.7957C199.833 78.9018 198.485 79.9001 197.062 80.78L196.479 81.1194L196.328 81.2013L196.118 81.3066L195.692 81.5114C195.145 81.7706 194.57 81.9669 193.978 82.0966C192.931 82.3078 191.859 82.363 190.796 82.2604C189.021 82.0484 187.298 81.5276 185.701 80.7215C184.963 80.3583 184.248 79.9478 183.562 79.4927C182.867 79.0404 182.203 78.5419 181.574 78.0005L183.638 74.4896C186.162 75.1567 189.006 75.7535 190.965 75.4726C191.37 75.4338 191.765 75.3229 192.131 75.145C192.251 75.0858 192.364 75.0132 192.469 74.9285L192.521 74.8758L192.556 74.8758L192.638 74.8114L192.993 74.5657C193.991 73.8025 194.938 72.9737 195.826 72.0846C197.729 70.1513 199.499 68.0907 201.125 65.9171C201.958 64.8228 202.763 63.6993 203.538 62.57C203.917 61.9848 204.296 61.4465 204.645 60.8906C204.995 60.3347 205.345 59.7671 205.526 59.4102L212.94 62.8977Z" fill="#FFBE9D"/>
<path d="M184.664 74.9757L180.228 72.8633L179.826 78.8377C179.826 78.8377 183.276 79.4229 185.101 78.0829L184.664 74.9757Z" fill="#FFBE9D"/>
<path d="M174.638 73.8814L176.346 78.4339L179.825 78.8377L180.228 72.8633L174.638 73.8814Z" fill="#FFBE9D"/>
<path d="M216.117 59.7329C215.966 64.3498 206.499 74.9762 206.499 74.9762L196.503 68.4342C196.503 68.4342 199.691 62.4656 203.771 58.153C210.003 51.6578 216.298 54.1974 216.117 59.7329Z" fill="#263238"/>
<path opacity="0.2" d="M207.362 192.901L207.606 198.665L212.421 198.665L212.176 192.901L207.362 192.901Z" fill="black"/>
<path opacity="0.2" d="M242.901 183.405L238.442 184.64L241.386 190.041L245.845 188.806L242.901 183.405Z" fill="black"/>
<path d="M225.339 38.3796C225.147 43.1662 225.281 45.9866 222.926 48.4852C219.382 52.2478 213.459 50.1822 212.224 45.4366C211.11 41.1591 211.612 34.0495 216.234 32.0483C217.251 31.6012 218.365 31.423 219.47 31.5304C220.575 31.6379 221.635 32.0275 222.547 32.6621C223.46 33.2968 224.196 34.1554 224.684 35.1562C225.173 36.157 225.398 37.2667 225.339 38.3796Z" fill="#FFBE9D"/>
<path d="M215.819 40.6622C214.1 39.4334 212.415 36.8997 212.549 35.0155C210.958 34.9511 209.891 32.3179 210.766 30.3986C211.314 31.6333 213.208 30.7263 213.948 29.7491C213.552 28.807 213.616 27.2446 216.338 26.1387C216.111 26.9345 216.228 28.2745 218.961 27.309C222.278 26.1387 228.107 26.9228 226.399 30.8843C228.731 31.3114 231.768 36.1507 229.191 38.6961C226.615 41.2415 226.084 45.3551 223.881 45.7765C221.678 46.1978 215.948 46.344 215.819 40.6622Z" fill="#263238"/>
<path d="M224.849 30.7258C225.776 30.3385 226.806 30.2763 227.773 30.5492C228.739 30.822 229.586 31.4141 230.176 32.2296C228.499 31.4259 226.697 30.9173 224.849 30.7258Z" fill="#263238"/>
<path d="M217.073 40.4573C217.025 41.5207 216.63 42.5386 215.948 43.3539C215.039 44.4188 214.042 43.7986 213.838 42.5405C213.657 41.4111 213.914 39.4918 215.045 38.8891C216.175 38.2864 217.114 39.1759 217.073 40.4573Z" fill="#FFBE9D"/>
<path d="M217.528 96.5498C217.528 96.5498 215.26 133.081 219.562 146.551C226.37 167.886 238.518 189.683 238.518 189.683L247.203 187.062C247.203 187.062 237.649 164.053 234.508 146.101C231.686 129.956 234.123 109.757 234.123 96.5674L217.528 96.5498Z" fill="#016CDE"/>
<path opacity="0.2" d="M217.178 104.714C219.603 104.006 221.497 104.275 221.987 106.44C223.269 112.098 219.422 127.026 217.504 133.854C216.712 124.024 216.892 112.321 217.178 104.714Z" fill="black"/>
<path d="M236.064 187.185C236.029 187.185 238.331 189.882 238.331 189.882L247.821 187.015L246.614 183.797L236.064 187.185Z" fill="#263238"/>
<path d="M208.434 96.5498C208.434 96.5498 201.189 127.37 200.676 142.092C200.093 158.605 205.846 197.547 205.846 197.547L214.007 197.547C214.007 197.547 215.009 158.301 215.371 143.263C215.767 126.878 225.35 96.5498 225.35 96.5498L208.434 96.5498Z" fill="#016CDE"/>
<path d="M204.249 194.294C204.214 194.294 204.71 197.688 204.71 197.688L214.619 197.688L214.887 194.657L204.249 194.294Z" fill="#263238"/>
<path d="M212.002 52.3539C213.109 51.9677 221.509 50.8969 227.606 51.2246C231.103 51.4118 233.05 51.8097 234.472 52.4826C235.895 53.1556 233.347 56.6489 232.17 57.0761C232.648 58.4103 229.996 60.1131 228.486 60.9206C227.903 62.1728 221.917 63.3314 218.419 60.6397C215.732 58.5682 208.86 53.4481 212.002 52.3539Z" fill="#016CDE"/>
</svg>
