<svg width="304" height="172" viewBox="0 0 304 172" fill="none" xmlns="http://www.w3.org/2000/svg">
<path d="M90.9434 66.3693H135.636C135.636 66.3693 135.636 56.1392 130.361 56.1392C128.471 56.0769 126.618 56.676 125.122 57.8334C123.626 58.9907 122.58 60.6338 122.166 62.4792C122.166 62.4792 122.166 43.3809 112.554 46.1831C103.467 48.8365 102.434 61.0547 102.434 61.0547C102.434 61.0547 100.798 54.9025 95.8667 58.37C90.9355 61.8374 90.9434 66.3693 90.9434 66.3693Z" fill="#F5F5F5"/>
<path d="M191.963 123.582H213.723C213.723 123.582 213.723 118.601 211.155 118.601C210.234 118.571 209.332 118.863 208.604 119.426C207.875 119.99 207.366 120.79 207.165 121.688C207.165 121.688 207.165 112.39 202.485 113.754C198.06 115.046 197.557 120.995 197.557 120.995C197.557 120.995 196.761 117.999 194.36 119.687C191.959 121.376 191.963 123.582 191.963 123.582Z" fill="#F5F5F5"/>
<path d="M150.309 63.9316C150.309 63.9316 150.954 67.9847 151.233 68.8719C151.513 69.7592 152.866 73.3915 152.446 75.5784C152.025 77.7653 150.888 78.9608 148.73 78.7358L148.68 77.4862C148.68 77.4862 150.954 77.4862 151.046 75.67C151.138 73.8539 150.629 70.9172 149.559 69.8925C149.249 69.5798 148.832 69.3966 148.393 69.3801V63.9316H150.309Z" fill="#455A64"/>
<path d="M180.018 13.7577C180.018 13.7577 168.508 13.2037 165.855 13.2703C162.916 13.2686 159.984 13.5715 157.107 14.1742C153.775 14.924 151.488 15.8654 150.297 17.0193L151.13 14.2909C151.13 14.2909 157.02 7.16786 160.19 7.00124C163.36 6.83462 169.117 8.08427 172.62 9.75463C176.123 11.425 180.018 13.7577 180.018 13.7577Z" fill="#016CDE"/>
<path opacity="0.3" d="M180.018 13.6405C180.018 13.6405 168.508 13.0865 165.855 13.1531C162.916 13.1514 159.984 13.4543 157.107 14.057C153.775 14.8068 151.488 15.7482 150.297 16.9021L151.13 14.1737C151.13 14.1737 157.02 7.05067 160.19 6.88405C163.36 6.71743 169.117 7.96708 172.62 9.63745C176.123 11.3078 180.018 13.6405 180.018 13.6405Z" fill="black"/>
<path d="M204.781 97.0509L196 84.9709L183.87 70.2417L172.836 55.7791L159.84 39.8627C159.84 39.8627 154.179 33.9686 150.542 35.9347C149.905 36.6409 149.574 37.5713 149.622 38.5215L150.13 43.5825C150.097 43.2285 154.237 48.352 154.237 48.352L168.333 67.0676L183.179 85.5541C183.179 85.5541 196.35 101.096 197.562 102.537C198.775 103.978 200.682 106.177 202.649 105.082C203.383 104.678 203.95 104.025 204.246 103.241C204.542 102.457 204.549 101.593 204.265 100.804C203.861 99.7085 204.781 97.0509 204.781 97.0509Z" fill="#FF725E"/>
<path d="M204.781 97.0509L196 84.9709L183.87 70.2417L172.836 55.7791L159.84 39.8627C159.84 39.8627 154.179 33.9686 150.542 35.9347C149.905 36.6409 149.574 37.5713 149.622 38.5215L150.13 43.5825C150.097 43.2285 154.237 48.352 154.237 48.352L168.333 67.0676L183.179 85.5541C183.179 85.5541 196.35 101.096 197.562 102.537C198.775 103.978 200.682 106.177 202.649 105.082C203.383 104.678 203.95 104.025 204.246 103.241C204.542 102.457 204.549 101.593 204.265 100.804C203.861 99.7085 204.781 97.0509 204.781 97.0509Z" fill="#014C9B"/>
<path d="M211.301 90.5452C211.23 90.0328 211.184 89.7121 211.184 89.7121L208.014 75.4119L202.52 50.1274C202.52 50.1274 199.067 34.9025 197.984 32.1532C196.901 29.404 188.728 19.6193 185.621 17.2366C184.629 16.4826 182.176 14.8373 180.93 14.125C180.93 14.125 172.516 9.01807 166.547 7.75176C160.578 6.48545 158.328 5.85646 153.163 11.9964L152.488 13.4668C152.488 13.4668 158.387 8.31827 159.286 7.93921C160.186 7.56015 164.906 7.8434 168.4 8.9306C171.895 10.0178 179.547 14.1458 179.577 14.1625C181.418 15.2996 185.991 18.2238 186.525 19.4193C187.293 20.9372 187.802 22.5734 188.028 24.2596C188.586 27.6753 189.882 32.1741 190.673 35.5065C190.673 35.5065 193.918 50.4148 194.26 51.6228C196.018 57.7711 199.713 80.1356 199.713 80.1356C199.713 80.1356 203.157 98.8262 203.274 99.8676C203.391 100.909 204.19 104.033 201.566 105.354L211.534 103.042C211.534 103.042 212.401 102.813 212.459 100.905C212.505 99.3719 211.622 92.8571 211.301 90.5452Z" fill="#016CDE"/>
<path d="M169.607 80.1021C169.889 80.0684 170.159 79.9638 170.39 79.798C170.59 79.6465 170.743 79.4399 170.828 79.2034C170.913 78.967 170.928 78.7108 170.87 78.4662C170.812 78.2216 170.684 77.999 170.502 77.8258C170.32 77.6525 170.091 77.5359 169.844 77.4903C169.567 77.4732 169.289 77.4732 169.011 77.4903H167.141H162.846C162.675 77.4899 162.505 77.5248 162.348 77.5928C162.191 77.6607 162.049 77.7603 161.932 77.8853C161.814 78.0103 161.724 78.1581 161.667 78.3194C161.609 78.4808 161.585 78.6523 161.596 78.8233C161.615 79.1466 161.758 79.4503 161.996 79.6702C162.233 79.8901 162.547 80.0091 162.871 80.0021L166.374 80.0271L168.74 80.0604H169.382C169.457 80.056 169.533 80.063 169.607 80.0813C169.533 80.0969 169.457 80.1039 169.382 80.1021H168.74L166.374 80.1354L162.871 80.1604C162.505 80.1648 162.15 80.0327 161.876 79.7897C161.73 79.661 161.612 79.5046 161.528 79.3297C161.443 79.1548 161.395 78.9649 161.385 78.771C161.375 78.5771 161.403 78.3832 161.469 78.2005C161.535 78.0178 161.636 77.85 161.767 77.7069C161.904 77.5569 162.071 77.4368 162.257 77.3544C162.442 77.272 162.643 77.2289 162.846 77.2279H167.141H169.011C169.299 77.2188 169.587 77.2285 169.873 77.2571C170.147 77.3126 170.398 77.4456 170.598 77.6403C170.771 77.8039 170.899 78.0083 170.972 78.2347C171.045 78.4611 171.06 78.7022 171.015 78.9358C170.948 79.286 170.748 79.5967 170.457 79.8022C170.277 79.93 170.067 80.0102 169.848 80.0354C169.773 80.0741 169.691 80.0968 169.607 80.1021Z" fill="#263238"/>
<path d="M148.635 80.1021C148.635 80.0813 148.797 80.0813 149.051 80.0022C149.435 79.892 149.772 79.6577 150.009 79.3357C150.179 79.1011 150.289 78.8284 150.329 78.5416C150.369 78.2547 150.338 77.9624 150.238 77.6903C150.115 77.3597 149.894 77.0745 149.605 76.8732C149.315 76.6718 148.971 76.5639 148.618 76.5639C148.265 76.5639 147.921 76.6718 147.631 76.8732C147.342 77.0745 147.121 77.3597 146.998 77.6903C146.897 77.9622 146.866 78.2547 146.906 78.5418C146.946 78.8289 147.056 79.1016 147.227 79.3357C147.463 79.6565 147.798 79.8906 148.181 80.0022C148.456 80.0813 148.618 80.0813 148.618 80.1021C148.618 80.123 148.576 80.1021 148.501 80.1021C148.387 80.1047 148.272 80.0935 148.16 80.0688C147.742 79.9808 147.368 79.7477 147.106 79.4107C146.907 79.1593 146.776 78.8613 146.724 78.5451C146.672 78.2288 146.702 77.9045 146.81 77.6028C146.944 77.2303 147.189 76.908 147.513 76.6802C147.836 76.4524 148.222 76.3301 148.618 76.3301C149.014 76.3301 149.4 76.4524 149.723 76.6802C150.047 76.908 150.292 77.2303 150.426 77.6028C150.533 77.9047 150.562 78.2287 150.51 78.5448C150.459 78.8608 150.328 79.1587 150.13 79.4107C149.867 79.7488 149.492 79.9821 149.072 80.0688C148.961 80.0934 148.848 80.1046 148.735 80.1021C148.676 80.1146 148.635 80.1105 148.635 80.1021Z" fill="#263238"/>
<path d="M134.384 80.1021C134.667 80.0684 134.936 79.9638 135.167 79.798C135.317 79.6833 135.439 79.5376 135.527 79.371C135.614 79.2043 135.665 79.0207 135.675 78.8327C135.685 78.6447 135.654 78.4567 135.584 78.2818C135.514 78.1069 135.408 77.9492 135.271 77.8194C135.092 77.6497 134.868 77.5355 134.626 77.4903C134.348 77.4732 134.07 77.4732 133.793 77.4903H131.918H127.628C127.456 77.4899 127.287 77.5248 127.129 77.5928C126.972 77.6607 126.83 77.7603 126.713 77.8853C126.596 78.0103 126.506 78.1581 126.448 78.3194C126.39 78.4808 126.367 78.6523 126.378 78.8233C126.396 79.1459 126.539 79.4489 126.776 79.6687C127.013 79.8885 127.325 80.008 127.648 80.0021L131.156 80.0271L133.518 80.0604H134.159C134.235 80.0555 134.311 80.0625 134.384 80.0813C134.31 80.0973 134.235 80.1043 134.159 80.1021H133.518L131.156 80.1354L127.648 80.1604C127.282 80.1644 126.927 80.0323 126.653 79.7897C126.508 79.661 126.389 79.5046 126.305 79.3297C126.221 79.1548 126.172 78.9649 126.162 78.771C126.152 78.5771 126.181 78.3832 126.246 78.2005C126.312 78.0178 126.413 77.85 126.545 77.7069C126.683 77.5572 126.85 77.4374 127.036 77.355C127.223 77.2726 127.424 77.2293 127.628 77.2279H131.918H133.793C134.08 77.2188 134.368 77.2285 134.655 77.2571C134.928 77.3135 135.179 77.4464 135.38 77.6403C135.551 77.8048 135.679 78.0093 135.752 78.2354C135.824 78.4616 135.84 78.7022 135.796 78.9358C135.728 79.2865 135.526 79.5971 135.234 79.8022C135.054 79.9306 134.845 80.0109 134.626 80.0354C134.55 80.0737 134.468 80.0964 134.384 80.1021Z" fill="#263238"/>
<path d="M113.389 73.0702L182.786 72.9785H182.878V73.0702C182.878 98.9754 182.878 130.579 182.899 164.657V164.774H182.786H113.389H113.289V164.678C113.343 110.393 113.385 73.9407 113.385 73.0827C113.385 73.9407 113.427 110.393 113.481 164.678L113.385 164.578H182.782L182.674 164.686C182.674 130.608 182.674 99.0045 182.695 73.0993L182.782 73.1868L113.389 73.0702Z" fill="#263238"/>
<path d="M113.391 73.0723V164.576H182.681V73.0723H113.391ZM134.352 80.0966H127.598C127.413 80.1068 127.229 80.0793 127.055 80.0156C126.881 79.9519 126.722 79.8535 126.588 79.7264C126.454 79.5992 126.347 79.4459 126.274 79.276C126.201 79.106 126.163 78.923 126.163 78.7379C126.163 78.5529 126.201 78.3698 126.274 78.1998C126.347 78.0299 126.454 77.8767 126.588 77.7495C126.722 77.6223 126.881 77.5239 127.055 77.4602C127.229 77.3966 127.413 77.369 127.598 77.3792H134.352C134.7 77.3985 135.026 77.55 135.265 77.8027C135.504 78.0554 135.637 78.39 135.637 78.7379C135.637 79.0858 135.504 79.4205 135.265 79.6731C135.026 79.9258 134.7 80.0774 134.352 80.0966ZM148.589 80.0966C148.229 80.0966 147.876 79.9897 147.577 79.7894C147.277 79.5891 147.044 79.3045 146.906 78.9714C146.768 78.6384 146.732 78.2719 146.802 77.9183C146.872 77.5648 147.046 77.24 147.301 76.9851C147.556 76.7302 147.88 76.5566 148.233 76.4863C148.587 76.416 148.953 76.4521 149.286 76.59C149.619 76.728 149.903 76.9616 150.104 77.2613C150.304 77.561 150.411 77.9134 150.411 78.2739C150.411 78.514 150.363 78.7517 150.271 78.9734C150.179 79.195 150.044 79.3963 149.874 79.5657C149.704 79.7351 149.502 79.8691 149.28 79.9602C149.058 80.0514 148.82 80.0977 148.581 80.0966H148.589ZM169.53 80.0966H162.771C162.424 80.0774 162.098 79.9258 161.859 79.6731C161.62 79.4205 161.486 79.0858 161.486 78.7379C161.486 78.39 161.62 78.0554 161.859 77.8027C162.098 77.55 162.424 77.3985 162.771 77.3792H169.521C169.869 77.3985 170.195 77.55 170.434 77.8027C170.673 78.0554 170.806 78.39 170.806 78.7379C170.806 79.0858 170.673 79.4205 170.434 79.6731C170.195 79.9258 169.869 80.0774 169.521 80.0966H169.53Z" fill="#EBEBEB"/>
<path d="M176.747 144.706C176.747 144.77 164.706 144.816 149.859 144.816C135.012 144.816 122.967 144.77 122.967 144.706C122.967 144.642 135.004 144.596 149.859 144.596C164.714 144.596 176.747 144.647 176.747 144.706Z" fill="#263238"/>
<path d="M148.744 149.206C148.744 149.265 142.972 149.316 135.856 149.316C128.74 149.316 122.967 149.265 122.967 149.206C122.967 149.147 128.736 149.096 135.856 149.096C142.977 149.096 148.744 149.147 148.744 149.206Z" fill="#263238"/>
<path d="M149.205 153.706C149.205 153.765 143.331 153.816 136.087 153.816C128.844 153.816 122.967 153.765 122.967 153.706C122.967 153.647 128.839 153.596 136.087 153.596C143.335 153.596 149.205 153.642 149.205 153.706Z" fill="#263238"/>
<path d="M176.747 157.454C176.747 157.514 164.706 157.564 149.859 157.564C135.012 157.564 122.967 157.514 122.967 157.454C122.967 157.395 135.004 157.344 149.859 157.344C164.714 157.344 176.747 157.39 176.747 157.454Z" fill="#263238"/>
<path d="M176.747 161.622C176.747 161.686 164.706 161.732 149.859 161.732C135.012 161.732 122.967 161.686 122.967 161.622C122.967 161.558 135.004 161.512 149.859 161.512C164.714 161.512 176.747 161.563 176.747 161.622Z" fill="#263238"/>
<path d="M179.727 83.0137H118.473V141.819H179.727V83.0137Z" fill="white"/>
<path d="M145.59 92.7581C146.231 90.6062 148.2 88.9976 150.382 88.4755C152.564 87.9535 155.271 87.2404 157.271 88.2591C158.518 88.8957 159.715 89.821 160.208 91.1325C160.789 92.6902 159.894 95.5933 159.448 97.1934C159.002 98.7935 158.667 100.623 159.546 102.032C160.424 103.441 162.152 103.933 163.238 105.13C163.96 105.991 164.318 107.099 164.236 108.22C164.154 109.34 163.64 110.385 162.801 111.132C164.732 111.017 166.362 112.987 166.294 114.918C166.226 116.849 164.813 118.547 163.09 119.421C161.366 120.295 159.376 120.478 157.445 120.482C155.047 120.486 152.655 120.237 150.31 119.739C148.379 119.315 146.363 118.683 145.106 117.159C143.948 115.758 143.629 113.848 143.625 112.032C143.625 105.61 146.987 99.2434 145.522 92.9873" fill="#263238"/>
<path d="M147.155 91.2823C146.144 90.5907 144.956 90.2052 143.731 90.1722C142.507 90.1392 141.299 90.46 140.253 91.0962C139.206 91.7323 138.365 92.6569 137.831 93.7589C137.297 94.8609 137.092 96.0936 137.24 97.3093C137.397 98.5826 137.928 99.8559 137.605 101.066C136.998 103.37 133.752 104.266 133.327 106.609C133.157 107.534 133.484 108.463 133.73 109.367C133.977 110.271 134.155 111.294 133.671 112.109C133.323 112.712 132.695 113.09 132.202 113.578C130.623 115.157 130.653 117.928 131.977 119.732C133.302 121.536 135.645 122.398 137.877 122.325C140.11 122.253 142.249 121.349 144.154 120.182" fill="#263238"/>
<path d="M142.467 93.8621L142.497 95.3859L142.802 118.25C142.836 120.907 145.149 122.991 147.989 122.919C150.862 122.855 153.192 120.635 153.201 117.953C153.201 115.139 153.269 112.176 153.269 112.176C153.269 112.176 156.898 111.574 157.649 106.841C158.022 104.49 157.903 100.632 157.704 97.4783C157.664 96.8039 157.487 96.1446 157.184 95.5404C156.882 94.9363 156.46 94.3997 155.944 93.9633C155.428 93.5268 154.829 93.1996 154.184 93.0013C153.538 92.803 152.858 92.7377 152.186 92.8095L142.467 93.8621Z" fill="#B78876"/>
<path d="M155.882 100.178C155.883 100.336 155.822 100.489 155.713 100.603C155.603 100.717 155.454 100.784 155.296 100.79C155.219 100.796 155.141 100.787 155.067 100.762C154.994 100.738 154.926 100.699 154.868 100.648C154.81 100.597 154.762 100.535 154.729 100.465C154.695 100.395 154.676 100.319 154.672 100.242C154.67 100.084 154.729 99.932 154.838 99.8178C154.947 99.7035 155.096 99.6364 155.253 99.6309C155.331 99.6245 155.409 99.6337 155.483 99.658C155.556 99.6822 155.624 99.721 155.683 99.772C155.742 99.8231 155.789 99.8853 155.823 99.9551C155.858 100.025 155.877 100.101 155.882 100.178Z" fill="#263238"/>
<path d="M156.859 99.4983C156.783 99.5747 156.324 99.2352 155.671 99.2352C155.017 99.2352 154.538 99.5662 154.47 99.4856C154.402 99.4049 154.508 99.3073 154.72 99.1545C155.003 98.961 155.337 98.8575 155.679 98.8574C156.019 98.857 156.35 98.964 156.626 99.163C156.834 99.3158 156.902 99.4601 156.859 99.4983Z" fill="#263238"/>
<path d="M149.593 100.178C149.594 100.336 149.533 100.489 149.424 100.603C149.314 100.717 149.165 100.784 149.007 100.79C148.93 100.795 148.853 100.785 148.78 100.76C148.707 100.735 148.639 100.696 148.581 100.645C148.523 100.595 148.476 100.533 148.442 100.463C148.408 100.394 148.388 100.319 148.383 100.242C148.381 100.084 148.441 99.9307 148.55 99.8163C148.66 99.7019 148.81 99.6353 148.969 99.6309C149.046 99.6245 149.123 99.6337 149.197 99.658C149.271 99.6823 149.338 99.7212 149.397 99.7723C149.455 99.8234 149.502 99.8856 149.536 99.9554C149.57 100.025 149.589 100.101 149.593 100.178Z" fill="#263238"/>
<path d="M150.451 99.6171C150.374 99.6978 149.912 99.3582 149.262 99.3582C148.613 99.3582 148.129 99.6893 148.057 99.6086C147.985 99.528 148.099 99.4304 148.307 99.2776C148.591 99.0833 148.927 98.9797 149.271 98.9805C149.61 98.9801 149.942 99.087 150.217 99.2861C150.417 99.4304 150.493 99.5832 150.451 99.6171Z" fill="#263238"/>
<path d="M152.819 104.46C153.163 104.352 153.519 104.288 153.88 104.269C154.045 104.269 154.202 104.218 154.232 104.103C154.246 103.932 154.207 103.76 154.122 103.611L153.625 102.337C152.942 100.529 152.445 99.0438 152.521 99.0141C152.598 98.9844 153.205 100.432 153.892 102.24C154.058 102.685 154.215 103.11 154.363 103.513C154.47 103.714 154.5 103.946 154.448 104.167C154.424 104.225 154.388 104.278 154.34 104.321C154.293 104.363 154.238 104.395 154.177 104.413C154.084 104.437 153.988 104.45 153.892 104.451C153.536 104.5 153.175 104.503 152.819 104.46Z" fill="#263238"/>
<path d="M153.268 112.19C151.04 112.221 148.846 111.634 146.932 110.492C146.932 110.492 148.468 113.743 153.205 113.302L153.268 112.19Z" fill="#AA6550"/>
<path d="M152.542 106.034C152.415 105.881 152.252 105.761 152.068 105.687C151.883 105.613 151.682 105.586 151.485 105.61C151.341 105.623 151.201 105.664 151.074 105.733C150.947 105.802 150.836 105.896 150.746 106.009C150.658 106.117 150.605 106.25 150.595 106.389C150.586 106.528 150.619 106.666 150.691 106.786C150.796 106.901 150.932 106.983 151.083 107.022C151.234 107.06 151.393 107.053 151.54 107.002C151.853 106.894 152.141 106.725 152.389 106.506C152.461 106.45 152.524 106.384 152.576 106.31C152.6 106.275 152.613 106.233 152.613 106.189C152.613 106.146 152.6 106.104 152.576 106.068" fill="#AA6550"/>
<path d="M150.917 104.914C151.023 104.914 151.023 105.614 151.63 106.12C152.236 106.625 152.992 106.544 152.996 106.642C153 106.739 152.831 106.782 152.512 106.79C152.097 106.794 151.693 106.653 151.371 106.391C151.063 106.138 150.864 105.776 150.815 105.381C150.768 105.084 150.849 104.91 150.917 104.914Z" fill="#263238"/>
<path d="M146.316 91.6472C146.316 91.5878 146.392 91.5581 146.431 91.575C146.469 91.592 146.486 91.6514 146.46 91.7109C146.452 91.7349 146.436 91.7552 146.414 91.7678C146.392 91.7803 146.366 91.7842 146.341 91.7788C146.321 91.7642 146.307 91.7425 146.303 91.7181C146.298 91.6936 146.303 91.6682 146.316 91.6472Z" fill="#263238"/>
<path d="M142.215 116.247C142.909 115.985 143.538 115.577 144.06 115.049C144.581 114.522 144.983 113.888 145.237 113.191C145.735 111.785 145.771 110.256 145.339 108.828C145.152 108.17 144.889 107.449 145.177 106.829C145.447 106.411 145.798 106.052 146.209 105.772C147.019 104.989 147.499 103.926 147.55 102.801C147.593 101.68 147.389 100.562 146.952 99.5287C146.727 98.9557 146.455 98.3275 146.663 97.7503C146.854 97.3567 147.136 97.0146 147.486 96.7529C148.16 96.1213 148.716 95.3755 149.129 94.5501C149.418 93.9686 149.634 93.2768 149.354 92.6783C149.01 91.9653 148.119 91.7446 147.334 91.6851C145.458 91.5408 143.386 91.9568 142.194 93.4083C141.128 94.7071 141.005 96.5194 140.92 98.2044C140.683 103.501 140.445 108.853 141.345 114.078" fill="#263238"/>
<path d="M159.498 93.3362C159.236 93.4941 158.966 93.6359 158.687 93.7606C158.442 93.9379 158.213 94.1368 158.004 94.3548C157.881 94.4737 157.749 94.6053 157.63 94.7411L157.545 94.8429L157.409 94.9788L157.083 95.2886C156.767 95.5822 156.428 95.8491 156.068 96.0865C155.536 96.4573 154.941 96.7277 154.311 96.8845C153.101 97.1547 151.834 97.005 150.72 96.46C149.952 96.0904 149.279 95.5504 148.751 94.8811C147.945 93.8073 147.822 92.9372 148.191 92.4661C148.56 91.995 149.498 92.0417 150.542 92.3176C151.051 92.45 151.567 92.5521 152.087 92.6232C152.496 92.6817 152.913 92.6702 153.318 92.5892C153.516 92.5444 153.709 92.476 153.891 92.3855C154.158 92.2666 154.489 92.0926 154.871 91.9101C155.062 91.821 155.262 91.7318 155.478 91.647C155.584 91.6045 155.699 91.5663 155.809 91.5281C155.92 91.4899 156.06 91.4432 156.183 91.4135C156.645 91.2935 157.125 91.2548 157.6 91.2989C157.978 91.3133 158.347 91.4114 158.682 91.5861C159.017 91.7608 159.308 92.0077 159.536 92.3091C159.655 92.4559 159.717 92.6409 159.71 92.8298C159.703 93.0187 159.627 93.1986 159.498 93.3362Z" fill="#263238"/>
<path d="M135.586 119.507C135.562 119.486 135.539 119.463 135.518 119.439C135.454 119.369 135.394 119.296 135.34 119.218C135.125 118.925 134.962 118.596 134.86 118.246C134.701 117.695 134.672 117.114 134.775 116.549C134.926 115.787 135.33 115.099 135.921 114.596C136.553 114.019 137.381 113.586 138.141 112.983C138.536 112.678 138.875 112.306 139.142 111.884C139.419 111.442 139.532 110.916 139.461 110.399C139.316 109.329 138.434 108.391 138.357 107.109C138.326 106.463 138.482 105.822 138.806 105.262C139.129 104.702 139.607 104.247 140.182 103.951C140.754 103.706 141.296 103.397 141.799 103.03C142.018 102.837 142.19 102.596 142.303 102.326C142.415 102.056 142.465 101.765 142.449 101.473C142.42 100.895 142.276 100.33 142.024 99.809C141.778 99.2954 141.481 98.8073 141.226 98.3107C140.964 97.8259 140.783 97.301 140.692 96.7573C140.623 96.2331 140.688 95.6999 140.883 95.2081C141.243 94.3417 141.872 93.6141 142.678 93.1326C143.339 92.744 144.07 92.4888 144.83 92.3814C145.392 92.2983 145.96 92.2614 146.528 92.271C146.999 92.271 147.376 92.305 147.606 92.3262L147.886 92.3559C147.949 92.3559 147.979 92.3559 147.979 92.3559C147.855 92.3643 147.73 92.3643 147.606 92.3559C147.36 92.3559 146.994 92.3559 146.528 92.3559C145.959 92.3586 145.391 92.4069 144.83 92.5002C144.093 92.6172 143.385 92.8751 142.746 93.26C141.98 93.7323 141.385 94.4373 141.048 95.2718C140.87 95.7336 140.812 96.2329 140.878 96.7233C140.971 97.2455 141.149 97.7488 141.405 98.2131C141.655 98.7012 141.956 99.1851 142.211 99.7156C142.484 100.26 142.642 100.856 142.674 101.464C142.693 101.787 142.639 102.11 142.515 102.409C142.39 102.708 142.199 102.974 141.956 103.187C141.442 103.569 140.885 103.89 140.297 104.142C139.758 104.422 139.312 104.851 139.011 105.378C138.71 105.905 138.567 106.507 138.599 107.113C138.654 108.293 139.524 109.236 139.686 110.382C139.763 110.945 139.638 111.518 139.333 111.999C139.052 112.438 138.696 112.824 138.281 113.14C137.491 113.756 136.668 114.172 136.053 114.724C135.477 115.198 135.079 115.853 134.924 116.583C134.81 117.135 134.826 117.706 134.97 118.251C135.102 118.701 135.311 119.126 135.586 119.507Z" fill="#455A64"/>
<path d="M161.986 118.594C162.088 118.542 162.178 118.469 162.251 118.381C162.323 118.293 162.378 118.191 162.41 118.081C162.477 117.826 162.458 117.556 162.355 117.313C162.197 117 161.955 116.738 161.655 116.557C161.328 116.332 160.925 116.154 160.522 115.878C160.295 115.742 160.101 115.557 159.954 115.337C159.807 115.116 159.711 114.866 159.673 114.605C159.66 114.018 159.851 113.446 160.212 112.983C160.551 112.495 160.993 112.079 161.332 111.587C161.68 111.126 161.832 110.547 161.757 109.974C161.658 109.442 161.436 108.94 161.107 108.51C160.496 107.661 159.736 107.041 159.257 106.388C158.837 105.891 158.557 105.292 158.446 104.652C158.422 104.479 158.422 104.303 158.446 104.13C158.446 104.011 158.48 103.947 158.488 103.951C158.484 104.181 158.497 104.411 158.527 104.639C158.666 105.252 158.958 105.82 159.376 106.29C159.859 106.922 160.623 107.521 161.269 108.412C161.62 108.868 161.859 109.4 161.965 109.966C162.011 110.273 161.994 110.586 161.914 110.887C161.823 111.192 161.679 111.479 161.489 111.735C161.133 112.258 160.687 112.673 160.36 113.132C160.027 113.554 159.848 114.076 159.851 114.613C159.884 114.849 159.97 115.075 160.101 115.274C160.233 115.473 160.407 115.64 160.611 115.763C160.988 116.031 161.392 116.222 161.723 116.459C162.043 116.666 162.296 116.961 162.453 117.308C162.561 117.58 162.569 117.881 162.474 118.157C162.422 118.332 162.309 118.482 162.156 118.582C162.101 118.6 162.043 118.604 161.986 118.594Z" fill="#455A64"/>
<path d="M159.831 91.401C159.831 91.401 159.831 91.452 159.831 91.5496C159.83 91.6923 159.814 91.8345 159.784 91.974C159.679 92.4932 159.424 92.9701 159.05 93.345C158.771 93.6265 158.434 93.8424 158.061 93.9768C157.689 94.1112 157.292 94.1607 156.898 94.1217C156.427 94.0869 155.974 93.9304 155.582 93.6675C155.187 93.3699 154.833 93.0217 154.529 92.6319C154.234 92.2607 153.89 91.9309 153.506 91.6515C153.145 91.3991 152.747 91.203 152.327 91.07C151.61 90.8468 150.846 90.819 150.115 90.9893C149.62 91.1074 149.148 91.3067 148.719 91.5793C148.413 91.7745 148.26 91.9061 148.252 91.8934C148.37 91.741 148.514 91.6103 148.676 91.5072C149.098 91.198 149.575 90.9719 150.081 90.8408C150.839 90.6385 151.638 90.6503 152.39 90.8747C152.833 91.0095 153.252 91.2113 153.634 91.4732C154.035 91.7605 154.395 92.1019 154.703 92.4876C154.995 92.8627 155.333 93.1993 155.709 93.4893C156.071 93.7291 156.487 93.875 156.919 93.9137C157.287 93.9533 157.659 93.9123 158.009 93.7936C158.359 93.6749 158.68 93.4812 158.948 93.2261C159.311 92.8776 159.573 92.4378 159.707 91.9528C159.797 91.6048 159.797 91.401 159.831 91.401Z" fill="#455A64"/>
<path d="M150.614 97.0578C150.551 97.2361 149.897 97.1512 149.133 97.2446C148.369 97.338 147.749 97.5459 147.647 97.3889C147.601 97.3125 147.707 97.1427 147.957 96.9644C148.291 96.7537 148.668 96.6217 149.06 96.5783C149.451 96.5349 149.848 96.5813 150.22 96.714C150.491 96.8371 150.644 96.9772 150.614 97.0578Z" fill="#263238"/>
<path d="M156.625 97.6054C156.511 97.754 156.061 97.6054 155.522 97.6054C154.983 97.6054 154.52 97.7073 154.414 97.5502C154.372 97.4738 154.444 97.3253 154.643 97.1852C154.91 97.0121 155.225 96.9274 155.543 96.9433C155.859 96.9506 156.166 97.0542 156.422 97.2404C156.613 97.3805 156.676 97.5333 156.625 97.6054Z" fill="#263238"/>
<path d="M138.141 142.01C138.37 142.404 136.694 136.755 136.694 136.755L135.289 141.916L124.869 141.993C124.869 141.993 130.756 122.749 133.553 120.062C137.203 116.556 144.045 116.365 144.045 116.365L148.141 119.858L154.609 116.535L154.847 116.56C156.968 116.821 158.991 117.603 160.736 118.835C162.482 120.067 163.895 121.712 164.851 123.623L171.867 141.802H162.606L160.628 136.437L161.29 141.802" fill="#016CDE"/>
<path d="M140.73 116.781L150.119 138.138L154.864 116.56C154.864 116.56 153.548 116.484 151.668 116.411C150.628 116.373 149.414 120.486 148.158 120.465C147.352 120.465 146.532 116.293 145.722 116.297C144.699 116.297 143.702 116.297 142.793 116.365C142.004 116.407 141.312 116.726 140.73 116.781Z" fill="#FAFAFA"/>
<path d="M142.496 116.98V115.02C142.496 115.02 148.09 115.096 148.188 119.574C148.188 119.574 148.981 115.16 153.497 115.02L153.786 116.522L152.513 121.67L149.253 123.839H144.86L143.044 121.45L142.496 116.98Z" fill="#FAFAFA"/>
<path d="M150.037 138.708C150.045 138.626 150.064 138.547 150.092 138.47C150.163 138.245 150.254 138.026 150.364 137.816C150.545 137.488 150.767 137.184 151.026 136.912C151.323 136.59 151.68 136.25 152.04 135.847C152.939 134.945 153.723 133.935 154.375 132.842C154.73 132.188 154.934 131.463 154.973 130.72C155.031 129.925 154.8 129.135 154.324 128.496L154.175 128.305H154.422C154.516 128.315 154.611 128.315 154.706 128.305C155.097 128.224 155.445 128.004 155.686 127.685C155.927 127.372 156.08 127.002 156.132 126.611C156.19 125.848 156.131 125.081 155.958 124.336C155.716 122.876 155.495 121.56 155.313 120.444C155.13 119.328 154.999 118.471 154.888 117.821C154.85 117.528 154.816 117.295 154.787 117.104C154.772 117.021 154.765 116.937 154.765 116.854C154.797 116.933 154.82 117.015 154.833 117.1C154.867 117.282 154.918 117.524 154.973 117.804C155.096 118.454 155.262 119.336 155.461 120.419L156.153 124.298C156.34 125.066 156.403 125.858 156.34 126.645C156.286 127.074 156.118 127.48 155.852 127.821C155.579 128.185 155.182 128.434 154.736 128.521C154.624 128.534 154.512 128.534 154.4 128.521L154.494 128.343C155.003 129.023 155.249 129.864 155.185 130.711C155.143 131.487 154.925 132.243 154.549 132.923C153.881 134.026 153.075 135.041 152.151 135.94C151.777 136.339 151.412 136.675 151.111 136.984C150.851 137.239 150.623 137.524 150.432 137.833C150.139 138.381 150.067 138.716 150.037 138.708Z" fill="#263238"/>
<path d="M150.038 138.526C149.972 138.469 149.914 138.403 149.864 138.331L149.385 137.758C148.96 137.261 148.353 136.557 147.577 135.699C146.8 134.842 145.879 133.819 144.932 132.597C144.421 131.968 143.982 131.285 143.621 130.559C143.227 129.75 143.17 128.817 143.464 127.966C143.511 127.852 143.566 127.741 143.629 127.635L143.685 127.796C142.869 127.501 142.143 127 141.579 126.341C141.059 125.739 140.651 125.049 140.374 124.303C139.928 123.044 139.75 121.705 139.852 120.373C139.908 119.485 140.014 118.601 140.17 117.725C140.225 117.436 140.268 117.202 140.306 117.016C140.315 116.931 140.335 116.849 140.366 116.77C140.375 116.854 140.375 116.94 140.366 117.024C140.34 117.211 140.31 117.449 140.272 117.737C140.196 118.361 140.064 119.261 140.026 120.381C139.945 121.689 140.133 122.999 140.578 124.231C140.852 124.952 141.252 125.618 141.758 126.2C142.296 126.826 142.986 127.304 143.761 127.588L143.884 127.631L143.816 127.75C143.762 127.846 143.712 127.945 143.668 128.047C143.398 128.843 143.453 129.714 143.82 130.47C144.169 131.184 144.596 131.856 145.094 132.474C146.011 133.692 146.932 134.719 147.691 135.593C148.451 136.468 149.054 137.189 149.448 137.715C149.648 137.974 149.796 138.174 149.894 138.318C149.95 138.382 149.998 138.452 150.038 138.526Z" fill="#263238"/>
<path d="M149.936 141.964C149.84 141.331 149.819 140.689 149.872 140.05C149.856 139.411 149.91 138.772 150.034 138.145C150.145 139.417 150.113 140.699 149.936 141.964Z" fill="#263238"/>
<path d="M136.422 138.029C136.467 137.78 136.528 137.535 136.604 137.294C136.727 136.823 136.905 136.14 137.075 135.287C137.517 133.066 137.688 130.8 137.584 128.538C137.548 127.296 137.38 126.061 137.084 124.854C136.844 123.871 136.394 122.951 135.764 122.159C135.338 121.627 134.814 121.183 134.219 120.852C133.794 120.623 133.527 120.551 133.535 120.529C133.6 120.537 133.664 120.551 133.726 120.572C133.909 120.624 134.086 120.692 134.257 120.775C134.883 121.081 135.439 121.515 135.887 122.049C136.546 122.85 137.023 123.786 137.283 124.791C137.592 126.012 137.767 127.263 137.805 128.521C137.912 130.801 137.718 133.084 137.228 135.312C137.037 136.161 136.837 136.845 136.689 137.311C136.613 137.541 136.545 137.736 136.502 137.842C136.46 137.948 136.43 138.054 136.422 138.029Z" fill="#263238"/>
<path d="M160.708 134.569C160.681 134.334 160.671 134.097 160.679 133.86C160.679 133.402 160.679 132.744 160.636 131.929C160.563 129.808 160.378 127.693 160.08 125.592C159.667 122.804 159.07 120.046 158.293 117.337L158.264 117.227L158.349 117.294C158.501 117.401 158.643 117.522 158.773 117.655C158.61 117.569 158.455 117.468 158.31 117.354L158.37 117.316C159.264 120 159.91 122.76 160.301 125.562C160.604 127.672 160.77 129.798 160.798 131.929C160.798 132.748 160.798 133.41 160.768 133.864C160.768 134.1 160.748 134.336 160.708 134.569Z" fill="#263238"/>
<path d="M147.147 117.036C147.147 117.058 147.04 117.036 146.896 117.151C146.707 117.312 146.562 117.518 146.472 117.749C146.068 118.52 145.815 119.362 145.729 120.228L145.699 120.504L145.53 120.279L145.224 119.855C144.515 118.934 143.819 118.157 143.305 117.58C143.01 117.292 142.736 116.983 142.486 116.654C142.827 116.892 143.14 117.167 143.42 117.473C144.129 118.176 144.79 118.927 145.398 119.719L145.708 120.143L145.508 120.194C145.608 119.303 145.897 118.443 146.357 117.673C146.476 117.426 146.661 117.217 146.892 117.07C147.032 116.99 147.151 117.028 147.147 117.036Z" fill="#263238"/>
<path d="M153.713 116.615C153.494 116.984 153.243 117.332 152.961 117.655C152.477 118.283 151.794 119.141 151.03 120.079L150.627 120.571L150.44 120.8V120.503C150.444 120.016 150.409 119.529 150.334 119.047C150.271 118.667 150.136 118.302 149.935 117.973C149.74 117.68 149.492 117.426 149.205 117.222C149.303 117.239 149.396 117.278 149.477 117.337C149.711 117.478 149.912 117.667 150.067 117.893C150.297 118.23 150.456 118.612 150.534 119.013C150.624 119.503 150.67 120.001 150.669 120.499L150.474 120.435L150.877 119.939C151.641 119.001 152.342 118.16 152.859 117.557C153.116 117.219 153.402 116.904 153.713 116.615Z" fill="#263238"/>
<path d="M149.852 137.63C149.8 137.396 149.766 137.159 149.75 136.921C149.695 136.424 149.627 135.775 149.542 134.986C149.376 133.347 149.168 131.085 148.948 128.585C148.727 126.085 148.523 123.823 148.413 122.18C148.358 121.391 148.315 120.737 148.277 120.241C148.257 120.002 148.257 119.762 148.277 119.523C148.329 119.757 148.364 119.994 148.383 120.232C148.434 120.729 148.502 121.378 148.587 122.168C148.752 123.806 148.965 126.068 149.185 128.568C149.406 131.068 149.61 133.33 149.716 134.969C149.771 135.762 149.818 136.416 149.852 136.913C149.872 137.151 149.872 137.391 149.852 137.63Z" fill="#263238"/>
<path d="M149.865 123.425C149.865 123.404 150.022 123.297 150.251 123.45C150.317 123.495 150.371 123.555 150.409 123.626C150.448 123.696 150.469 123.774 150.471 123.853C150.462 123.954 150.423 124.049 150.36 124.128C150.297 124.207 150.212 124.266 150.116 124.297C150.02 124.328 149.916 124.33 149.819 124.303C149.722 124.277 149.634 124.222 149.567 124.146C149.522 124.081 149.493 124.005 149.483 123.926C149.472 123.847 149.481 123.767 149.508 123.692C149.606 123.433 149.809 123.416 149.805 123.442C149.801 123.467 149.691 123.539 149.661 123.73C149.651 123.781 149.652 123.832 149.663 123.882C149.675 123.932 149.697 123.979 149.729 124.019C149.769 124.061 149.821 124.09 149.877 124.103C149.934 124.115 149.993 124.111 150.047 124.091C150.104 124.076 150.155 124.045 150.194 124.001C150.233 123.957 150.259 123.903 150.268 123.845C150.269 123.794 150.259 123.744 150.239 123.697C150.219 123.65 150.19 123.608 150.153 123.573C150.013 123.433 149.869 123.459 149.865 123.425Z" fill="#263238"/>
<path d="M150.679 128.717C150.679 128.692 150.866 128.624 151.057 128.827C151.114 128.886 151.155 128.958 151.177 129.036C151.199 129.115 151.202 129.198 151.184 129.277C151.154 129.378 151.093 129.466 151.009 129.529C150.924 129.591 150.822 129.625 150.717 129.625C150.613 129.635 150.509 129.611 150.42 129.555C150.331 129.5 150.263 129.417 150.225 129.32C150.2 129.242 150.195 129.159 150.209 129.078C150.224 128.997 150.259 128.921 150.31 128.857C150.484 128.641 150.692 128.692 150.675 128.717C150.658 128.743 150.531 128.768 150.442 128.946C150.416 128.992 150.4 129.042 150.395 129.094C150.391 129.146 150.398 129.199 150.416 129.248C150.443 129.301 150.485 129.344 150.538 129.373C150.59 129.401 150.65 129.412 150.709 129.405C150.769 129.406 150.828 129.39 150.878 129.357C150.928 129.325 150.967 129.278 150.989 129.222C151.001 129.172 151.003 129.119 150.995 129.068C150.986 129.017 150.967 128.968 150.938 128.925C150.828 128.738 150.679 128.717 150.679 128.717Z" fill="#263238"/>
<g opacity="0.3">
<path d="M140.177 117.037C139.384 119.86 138.632 123.056 140.109 125.589C140.534 126.353 141.179 127.003 141.595 127.784C142.312 129.121 142.359 130.708 142.805 132.155C143.7 135.088 146.9 137.94 149.935 138.386C148.369 136.48 145.945 133.998 144.502 131.837C144.044 131.274 143.705 130.622 143.509 129.923C143.331 129.138 143.199 128.306 143.721 127.69C141.693 127.376 140.538 125.28 140.173 123.259C139.836 121.228 139.921 119.149 140.424 117.152" fill="black"/>
</g>
<g opacity="0.3">
<path d="M160.793 132.049C160.288 135.08 160.628 139.052 162.491 141.497C163.174 138.169 162.835 133.819 160.793 131.09" fill="black"/>
</g>
<path d="M154.991 145.079L155.075 145.05C154.966 144.946 154.896 144.888 154.883 144.9C154.871 144.913 154.912 144.975 154.991 145.079Z" fill="#263238"/>
<path d="M151.392 63.0502H145.877C144.721 63.0502 143.613 62.5911 142.796 61.774C141.979 60.9569 141.52 59.8486 141.52 58.693C141.52 57.5375 141.979 56.4292 142.796 55.6121C143.613 54.795 144.721 54.3359 145.877 54.3359H151.392C152.547 54.3359 153.656 54.795 154.473 55.6121C155.29 56.4292 155.749 57.5375 155.749 58.693C155.749 59.8486 155.29 60.9569 154.473 61.774C153.656 62.5911 152.547 63.0502 151.392 63.0502ZM145.877 56.0021C145.163 56.0021 144.479 56.2856 143.974 56.7903C143.469 57.2949 143.186 57.9794 143.186 58.693C143.186 59.4067 143.469 60.0912 143.974 60.5958C144.479 61.1005 145.163 61.384 145.877 61.384H151.392C152.105 61.384 152.79 61.1005 153.295 60.5958C153.799 60.0912 154.083 59.4067 154.083 58.693C154.083 57.9794 153.799 57.2949 153.295 56.7903C152.79 56.2856 152.105 56.0021 151.392 56.0021H145.877Z" fill="#263238"/>
<path d="M147.184 63.9316C147.184 63.9316 146.538 67.9847 146.259 68.8719C145.98 69.7592 144.626 73.3915 145.047 75.5784C145.468 77.7653 146.605 78.9608 148.763 78.7358L148.813 77.4862C148.813 77.4862 146.538 77.4862 146.443 75.67C146.347 73.8539 146.859 70.9172 147.934 69.8925C148.244 69.5798 148.661 69.3966 149.1 69.3801V63.9316H147.184Z" fill="#455A64"/>
<path d="M147.422 67.334H145.31C145.117 67.3334 144.926 67.371 144.748 67.4444C144.57 67.5178 144.407 67.6258 144.271 67.762C144.134 67.8982 144.026 68.06 143.952 68.2382C143.878 68.4163 143.84 68.6073 143.84 68.8002C143.84 68.9931 143.878 69.1842 143.952 69.3623C144.026 69.5405 144.134 69.7023 144.271 69.8385C144.407 69.9747 144.57 70.0826 144.748 70.1561C144.926 70.2295 145.117 70.267 145.31 70.2665H146.918L147.422 67.334Z" fill="#455A64"/>
<path d="M146.473 60.9961V63.4621H146.968V64.3826H150.284V63.5912H150.796V60.9961H146.473Z" fill="#263238"/>
<path d="M150.031 60.0957H147.123V61.5703H150.031V60.0957Z" fill="#263238"/>
<path d="M144.797 57.2419L144.222 37.2975C144.222 37.2975 144.047 31.4658 144.251 26.7838C144.38 23.793 144.739 21.6436 146.226 19.6525C147.892 17.4114 155.877 9.38867 155.877 9.38867C155.877 9.38867 153.028 15.5328 152.961 19.0443C152.886 23.3306 153.015 26.0423 153.149 31.2617C153.232 34.4608 153.545 38.1764 153.64 40.4883C153.769 43.5291 154.032 50.5313 154.032 50.5313V57.2419H144.797Z" fill="#016CDE"/>
</svg>
