<svg width="400" height="225" viewBox="0 0 400 225" fill="none" xmlns="http://www.w3.org/2000/svg">
<path d="M200 218.473C267.26 218.473 321.785 215.289 321.785 211.362C321.785 207.436 267.26 204.252 200 204.252C132.74 204.252 78.2148 207.436 78.2148 211.362C78.2148 215.289 132.74 218.473 200 218.473Z" fill="#F5F5F5"/>
<path d="M124.853 69.0072C124.3 70.2634 123.691 71.6201 123.157 72.9455C122.623 74.2708 122.07 75.6338 121.587 76.9905C120.594 79.6354 119.798 82.35 119.206 85.112L119.024 86.117L118.961 86.4939C118.961 86.6007 118.961 86.7389 118.923 86.8645C118.899 87.476 118.912 88.0885 118.961 88.6986C119.08 90.0239 119.294 91.4434 119.589 92.863C120.117 95.7083 120.789 98.6416 121.473 101.531L118.251 102.787C116.749 100.049 115.47 97.1945 114.426 94.2511C113.876 92.7192 113.431 91.1515 113.094 89.5591C112.906 88.678 112.788 87.7832 112.743 86.8833C112.743 86.6321 112.743 86.3934 112.743 86.1233C112.743 85.8532 112.743 85.5517 112.787 85.3759L112.912 84.1196C113.1 82.5017 113.387 80.897 113.773 79.3145C114.125 77.7443 114.577 76.2179 115.029 74.7105C115.481 73.203 116.047 71.7206 116.643 70.2634C116.938 69.5348 117.271 68.8125 117.56 68.0901C117.849 67.3678 118.188 66.6769 118.59 65.9043L124.853 69.0072Z" fill="#E4897B"/>
<path d="M121.304 100.683L123.754 103.076L118.408 105.589C118.408 105.589 117.114 103.321 118.013 101.274L121.304 100.683Z" fill="#E4897B"/>
<path d="M125.732 106.638L121.216 108.484L118.415 105.564L123.754 103.076L125.732 106.638Z" fill="#E4897B"/>
<path opacity="0.4" d="M217.217 104.062C208.33 103.065 199.938 99.4541 193.102 93.6876C186.266 87.9211 181.294 80.2573 178.813 71.6652C176.333 63.073 176.455 53.9383 179.165 45.4157C181.875 36.8932 187.051 29.3655 194.039 23.7842C201.027 18.203 209.512 14.8188 218.423 14.0596C227.334 13.3003 236.27 15.2 244.101 19.5185C251.932 23.837 258.308 30.3805 262.421 38.3217C266.533 46.2628 268.2 55.2452 267.208 64.1331C266.55 70.0383 264.734 75.7558 261.865 80.9589C258.996 86.162 255.129 90.7487 250.487 94.4568C245.844 98.165 240.516 100.922 234.807 102.57C229.099 104.218 223.121 104.725 217.217 104.062Z" fill="#FAFAFA"/>
<path opacity="0.4" d="M250.117 23.4878L181.339 78.4416C181.05 77.8134 180.767 77.1853 180.503 76.5572C178.779 72.4558 177.676 68.1202 177.231 63.6934L236.638 16.2268C241.515 17.8537 246.075 20.3101 250.117 23.4878Z" fill="#FAFAFA"/>
<path opacity="0.4" d="M265.99 47.5635L201.326 99.2259C195.183 96.0235 189.859 91.45 185.768 85.8596L256.374 29.4424C260.925 34.6664 264.215 40.8662 265.99 47.5635Z" fill="#FAFAFA"/>
<path d="M171.352 41.835L170.755 41.634C171.788 38.5845 173.087 35.6316 174.637 32.809L175.183 33.1105C173.654 35.9015 172.372 38.8208 171.352 41.835ZM178.977 27.1748L178.468 26.8042C183.63 19.8245 190.386 14.18 198.172 10.3414L198.455 10.9067C190.757 14.7057 184.079 20.2899 178.977 27.1937V27.1748ZM247.812 11.7672C245.759 10.6662 243.636 9.70311 241.455 8.88413L241.682 8.2937C243.883 9.13189 246.028 10.1139 248.101 11.2333L247.812 11.7672Z" fill="#407BFF"/>
<path opacity="0.3" d="M171.352 41.835L170.755 41.634C171.788 38.5845 173.087 35.6316 174.637 32.809L175.183 33.1105C173.654 35.9015 172.372 38.8208 171.352 41.835ZM178.977 27.1748L178.468 26.8042C183.63 19.8245 190.386 14.18 198.172 10.3414L198.455 10.9067C190.757 14.7057 184.079 20.2899 178.977 27.1937V27.1748ZM247.812 11.7672C245.759 10.6662 243.636 9.70311 241.455 8.88413L241.682 8.2937C243.883 9.13189 246.028 10.1139 248.101 11.2333L247.812 11.7672Z" fill="black"/>
<path d="M269.011 36.0188C263.195 23.956 252.96 14.594 240.428 9.87355C227.896 5.15308 214.027 5.43621 201.698 10.6642C189.369 15.8923 179.525 25.6642 174.206 37.9543C168.887 50.2444 168.502 64.1099 173.129 76.6766C168.934 78.1464 164.788 79.723 160.668 81.3498C154.726 83.7073 148.838 86.1695 143.005 88.7364C137.176 91.318 131.372 93.9498 125.625 96.7009C122.742 98.0514 119.897 99.4772 117.026 100.859C115.533 101.501 114.18 102.429 113.044 103.591C112.429 104.235 111.888 104.945 111.43 105.708C110.871 106.611 110.447 107.591 110.173 108.616C109.701 110.465 109.905 112.421 110.75 114.132C111.594 115.843 113.023 117.195 114.777 117.944C115.752 118.352 116.78 118.619 117.83 118.735C118.717 118.836 119.613 118.836 120.5 118.735C122.111 118.54 123.669 118.029 125.085 117.234C127.93 115.796 130.794 114.407 133.621 112.931C139.274 110.048 144.927 107.04 150.511 103.987C156.095 100.934 161.685 97.7373 167.137 94.4585C170.906 92.1785 174.712 89.8482 178.443 87.4111C185.608 98.7213 196.849 106.842 209.837 110.09C222.826 113.337 236.566 111.464 248.211 104.857C259.855 98.2501 268.512 87.4165 272.387 74.601C276.261 61.7855 275.057 47.9706 269.024 36.0188H269.011ZM240.457 96.0225C233.157 99.6256 224.953 100.983 216.882 99.9239C208.811 98.8646 201.235 95.4358 195.113 90.0711C188.99 84.7064 184.596 77.6467 182.486 69.7847C180.375 61.9227 180.643 53.6115 183.256 45.9019C185.869 38.1923 190.709 31.4306 197.165 26.4717C203.621 21.5129 211.402 18.5796 219.524 18.0428C227.647 17.506 235.746 19.3898 242.798 23.4559C249.851 27.5221 255.539 33.588 259.143 40.8866C261.537 45.7338 262.953 51.005 263.309 56.3993C263.666 61.7936 262.956 67.2053 261.221 72.3253C259.486 77.4453 256.759 82.1734 253.196 86.2394C249.633 90.3054 245.305 93.6297 240.457 96.0225Z" fill="#407BFF"/>
<path opacity="0.3" d="M269.011 36.0188C263.195 23.956 252.96 14.594 240.428 9.87355C227.896 5.15308 214.027 5.43621 201.698 10.6642C189.369 15.8923 179.525 25.6642 174.206 37.9543C168.887 50.2444 168.502 64.1099 173.129 76.6766C168.934 78.1464 164.788 79.723 160.668 81.3498C154.726 83.7073 148.838 86.1695 143.005 88.7364C137.176 91.318 131.372 93.9498 125.625 96.7009C122.742 98.0514 119.897 99.4772 117.026 100.859C115.533 101.501 114.18 102.429 113.044 103.591C112.429 104.235 111.888 104.945 111.43 105.708C110.871 106.611 110.447 107.591 110.173 108.616C109.701 110.465 109.905 112.421 110.75 114.132C111.594 115.843 113.023 117.195 114.777 117.944C115.752 118.352 116.78 118.619 117.83 118.735C118.717 118.836 119.613 118.836 120.5 118.735C122.111 118.54 123.669 118.029 125.085 117.234C127.93 115.796 130.794 114.407 133.621 112.931C139.274 110.048 144.927 107.04 150.511 103.987C156.095 100.934 161.685 97.7373 167.137 94.4585C170.906 92.1785 174.712 89.8482 178.443 87.4111C185.608 98.7213 196.849 106.842 209.837 110.09C222.826 113.337 236.566 111.464 248.211 104.857C259.855 98.2501 268.512 87.4165 272.387 74.601C276.261 61.7855 275.057 47.9706 269.024 36.0188H269.011ZM240.457 96.0225C233.157 99.6256 224.953 100.983 216.882 99.9239C208.811 98.8646 201.235 95.4358 195.113 90.0711C188.99 84.7064 184.596 77.6467 182.486 69.7847C180.375 61.9227 180.643 53.6115 183.256 45.9019C185.869 38.1923 190.709 31.4306 197.165 26.4717C203.621 21.5129 211.402 18.5796 219.524 18.0428C227.647 17.506 235.746 19.3898 242.798 23.4559C249.851 27.5221 255.539 33.588 259.143 40.8866C261.537 45.7338 262.953 51.005 263.309 56.3993C263.666 61.7936 262.956 67.2053 261.221 72.3253C259.486 77.4453 256.759 82.1734 253.196 86.2394C249.633 90.3054 245.305 93.6297 240.457 96.0225Z" fill="black"/>
<path d="M142.213 46.5774C142.213 46.9479 142.408 47.2494 142.653 47.2494C142.898 47.2494 143.093 46.9479 143.093 46.5774C143.093 46.2068 142.898 45.9053 142.653 45.9053C142.408 45.9053 142.213 46.2319 142.213 46.5774Z" fill="#263238"/>
<path d="M142.39 47.2493C142.834 48.3868 143.432 49.4583 144.167 50.4338C143.913 50.6156 143.622 50.7396 143.315 50.7971C143.008 50.8546 142.692 50.8442 142.39 50.7667V47.2493Z" fill="#DE5753"/>
<path d="M140.914 44.5108C140.879 44.5108 140.844 44.5029 140.813 44.4877C140.781 44.4724 140.754 44.4503 140.732 44.4228C140.699 44.3749 140.686 44.3162 140.695 44.2589C140.705 44.2016 140.736 44.1501 140.782 44.1151C141.059 43.9053 141.382 43.7654 141.724 43.7075C142.066 43.6495 142.418 43.6751 142.748 43.7822C142.778 43.7903 142.805 43.8045 142.829 43.8239C142.853 43.8433 142.872 43.8675 142.886 43.895C142.9 43.9224 142.908 43.9524 142.91 43.9831C142.911 44.0138 142.906 44.0445 142.895 44.0732C142.884 44.1019 142.867 44.1279 142.846 44.1497C142.824 44.1714 142.798 44.1884 142.769 44.1994C142.741 44.2105 142.71 44.2154 142.679 44.2138C142.648 44.2123 142.618 44.2043 142.591 44.1904C142.329 44.11 142.051 44.0937 141.781 44.1428C141.511 44.192 141.257 44.3053 141.04 44.4731C141.002 44.4978 140.959 44.5109 140.914 44.5108Z" fill="#263238"/>
<path d="M129.526 49.3723C130.154 52.7453 130.845 58.9322 128.483 61.1871C128.483 61.1871 129.406 64.6104 135.681 64.6104C142.59 64.6104 138.972 61.1871 138.972 61.1871C135.204 60.2827 135.311 57.4938 135.964 54.8683L129.526 49.3723Z" fill="#E4897B"/>
<path d="M125.663 62.9647C126.41 61.8027 125.154 58.9824 125.154 58.9824C125.154 58.9824 136.259 56.1873 140.8 60.4773C141.742 61.363 140.7 62.6695 140.7 62.6695L125.663 62.9647Z" fill="#407BFF"/>
<path opacity="0.1" d="M125.663 62.9647C126.41 61.8027 125.154 58.9824 125.154 58.9824C125.154 58.9824 136.259 56.1873 140.8 60.4773C141.742 61.363 140.7 62.6695 140.7 62.6695L125.663 62.9647Z" fill="black"/>
<path d="M107.291 191.119C106.707 191.119 105.771 190.145 105.494 189.781C105.482 189.763 105.476 189.743 105.476 189.721C105.476 189.7 105.482 189.679 105.494 189.662C105.504 189.644 105.519 189.63 105.537 189.62C105.554 189.61 105.575 189.605 105.595 189.605C105.664 189.605 107.203 189.743 107.624 190.29C107.669 190.348 107.702 190.415 107.719 190.486C107.737 190.558 107.738 190.632 107.724 190.704C107.719 190.798 107.684 190.887 107.626 190.961C107.567 191.034 107.488 191.087 107.397 191.113L107.291 191.119ZM105.833 189.863C106.292 190.39 107.027 190.987 107.341 190.912C107.341 190.912 107.467 190.88 107.504 190.679C107.513 190.637 107.511 190.594 107.5 190.553C107.489 190.511 107.469 190.473 107.441 190.441C106.976 190.088 106.416 189.883 105.833 189.85V189.863Z" fill="#407BFF"/>
<path d="M105.902 189.85C105.79 189.862 105.676 189.862 105.563 189.85C105.543 189.849 105.524 189.841 105.509 189.829C105.493 189.817 105.482 189.8 105.475 189.781C105.467 189.764 105.462 189.744 105.462 189.725C105.462 189.705 105.467 189.686 105.475 189.668C105.519 189.63 106.443 188.669 107.14 188.669C107.223 188.667 107.306 188.683 107.383 188.716C107.46 188.748 107.529 188.797 107.586 188.858C107.648 188.91 107.691 188.982 107.707 189.062C107.723 189.142 107.711 189.225 107.674 189.297C107.492 189.649 106.531 189.85 105.902 189.85ZM105.821 189.63C106.449 189.63 107.36 189.436 107.51 189.159C107.51 189.159 107.554 189.078 107.454 188.977C107.417 188.937 107.373 188.906 107.323 188.886C107.273 188.865 107.219 188.855 107.165 188.858C106.65 188.976 106.182 189.245 105.821 189.63Z" fill="#407BFF"/>
<path d="M148.739 205.377C148.263 205.374 147.788 205.33 147.32 205.245C147.297 205.241 147.276 205.228 147.261 205.21C147.246 205.191 147.238 205.168 147.238 205.145C147.235 205.123 147.238 205.101 147.247 205.081C147.255 205.061 147.27 205.044 147.289 205.032C147.358 204.994 148.966 204.071 149.738 204.284C149.81 204.3 149.877 204.331 149.937 204.374C149.996 204.417 150.046 204.472 150.084 204.535C150.133 204.605 150.159 204.689 150.159 204.774C150.159 204.86 150.133 204.943 150.084 205.013C149.901 205.295 149.33 205.377 148.739 205.377ZM147.678 205.082C148.532 205.208 149.7 205.201 149.914 204.9C149.945 204.862 149.971 204.793 149.914 204.661C149.866 204.583 149.789 204.527 149.7 204.504C149.211 204.378 148.237 204.793 147.678 205.082Z" fill="#407BFF"/>
<path d="M147.346 205.252C147.325 205.257 147.303 205.257 147.283 205.252C147.265 205.24 147.252 205.224 147.244 205.205C147.236 205.186 147.234 205.165 147.239 205.145C147.281 204.491 147.532 203.868 147.955 203.367C148.04 203.293 148.141 203.239 148.249 203.208C148.357 203.176 148.471 203.168 148.583 203.185C148.884 203.185 148.972 203.367 148.991 203.487C149.073 204.008 147.974 205.007 147.415 205.258L147.346 205.252ZM148.47 203.367C148.332 203.366 148.198 203.415 148.093 203.505C147.738 203.902 147.518 204.401 147.465 204.931C148.03 204.586 148.784 203.807 148.721 203.493C148.721 203.493 148.721 203.386 148.508 203.367H148.47Z" fill="#407BFF"/>
<path d="M142.271 205.139H146.887L147.346 194.454H142.729L142.271 205.139Z" fill="#E4897B"/>
<path d="M101.16 186.798L105.017 189.323L113.534 182.131L109.671 179.599L101.16 186.798Z" fill="#E4897B"/>
<path d="M105.651 189.084L101.644 185.799C101.573 185.741 101.484 185.709 101.393 185.709C101.301 185.709 101.212 185.741 101.141 185.799L97.8374 188.393C97.7576 188.456 97.6932 188.537 97.6489 188.629C97.6046 188.721 97.5815 188.822 97.5815 188.924C97.5815 189.026 97.6046 189.126 97.6489 189.218C97.6932 189.31 97.7576 189.391 97.8374 189.454C99.257 190.579 100.004 191.056 101.769 192.501C102.856 193.386 105.538 196.1 107.052 197.325C108.566 198.549 109.954 197.23 109.451 196.596C107.196 193.738 106.311 191.295 106.053 189.781C106.009 189.507 105.866 189.259 105.651 189.084Z" fill="#263238"/>
<path d="M146.855 204.605H141.83C141.739 204.605 141.65 204.636 141.578 204.693C141.506 204.75 141.456 204.83 141.435 204.919L140.524 209.02C140.501 209.12 140.501 209.223 140.524 209.322C140.547 209.422 140.592 209.515 140.656 209.594C140.721 209.673 140.802 209.737 140.894 209.78C140.987 209.823 141.088 209.845 141.19 209.843C143.005 209.812 145.631 209.705 147.917 209.705C150.586 209.705 152.898 209.849 156.026 209.849C157.91 209.849 158.45 207.934 157.653 207.764C154.047 206.973 151.095 206.891 147.98 204.963C147.645 204.741 147.256 204.617 146.855 204.605Z" fill="#263238"/>
<path d="M119.388 62.5627C115.387 64.447 113.107 77.0721 113.107 77.0721L122.887 80.9727C124.318 77.4773 125.475 73.8757 126.348 70.2006C127.692 64.3842 123.483 60.6155 119.388 62.5627Z" fill="#263238"/>
<path d="M124.576 69.6794C122.158 72.129 121.052 76.9278 120.569 80.0495L122.912 80.9854C124.303 77.5892 125.436 74.0933 126.304 70.5273C126.096 69.1957 125.581 68.6618 124.576 69.6794Z" fill="#203048"/>
<path d="M146.07 62.4748C146.07 62.4748 150.982 68.0274 146.346 102.36H121.668C121.498 98.5914 123.879 80.0935 120.223 62.2424C122.95 61.7136 125.71 61.3653 128.483 61.1998C131.976 60.9923 135.479 60.9923 138.972 61.1998C141.368 61.4408 143.741 61.8671 146.07 62.4748Z" fill="#263238"/>
<path d="M148.326 75.8035L144.167 68.6367C143.365 71.9806 143.037 75.4209 143.194 78.8561C143.307 81.3184 145.562 90.4386 147.591 91.7702C148.129 86.4655 148.374 81.1352 148.326 75.8035Z" fill="#203048"/>
<path d="M148.903 67.3804C149.531 70.433 150.159 73.561 150.831 76.6262C151.503 79.6914 152.201 82.7692 153.011 85.7402C153.218 86.4751 153.413 87.2288 153.639 87.9323L153.809 88.4725L153.89 88.7425V88.7111C153.846 88.6546 153.796 88.6483 153.834 88.7111C154.092 88.9931 154.422 89.1994 154.788 89.3079C155.382 89.5288 155.994 89.699 156.616 89.8166C159.586 90.2873 162.593 90.4828 165.598 90.4008L166.195 93.8177C165.353 94.0878 164.568 94.2825 163.739 94.4772C162.91 94.672 162.093 94.8353 161.258 94.9609C159.53 95.2486 157.777 95.3665 156.026 95.3126C155.052 95.2864 154.084 95.1601 153.136 94.9358C151.932 94.6722 150.799 94.1468 149.82 93.3969C149.18 92.8805 148.653 92.2394 148.269 91.5125C148.168 91.3241 148.08 91.1105 147.998 90.9284L147.885 90.6332L147.653 90.0051C147.333 89.2074 147.069 88.4222 146.78 87.6371C145.718 84.4965 144.833 81.3245 144.054 78.1588C143.275 74.9931 142.603 71.8337 142.044 68.5864L148.903 67.3804Z" fill="#E4897B"/>
<path d="M139.908 65.8416C138.608 70.0563 143.878 82.6248 143.878 82.6248L154.374 79.9867C154.374 79.9867 153.972 73.4544 151.579 68.2724C147.973 60.4587 141.466 60.7853 139.908 65.8416Z" fill="#263238"/>
<path d="M165.51 90.401L170.736 90.269L168.224 95.7085C168.224 95.7085 166.094 95.9912 164.348 93.1207L162.508 90.9223L164.625 90.5014C164.916 90.4401 165.212 90.4065 165.51 90.401Z" fill="#E4897B"/>
<path d="M174.034 91.2803L171.044 95.7902L168.224 95.7085L170.737 90.269L174.034 91.2803Z" fill="#E4897B"/>
<path d="M147.346 194.454L147.107 199.963H142.49L142.729 194.454H147.346Z" fill="#CE6F64"/>
<path d="M109.671 179.599L113.534 182.131L109.137 185.837L105.28 183.312L109.671 179.599Z" fill="#CE6F64"/>
<path d="M129.815 45.7796C130.091 50.346 130.022 53.0406 132.327 55.3834C135.794 58.9197 141.441 56.8281 142.534 52.2429C143.52 48.135 142.905 41.3514 138.432 39.5298C137.446 39.1315 136.374 38.9905 135.318 39.1199C134.261 39.2493 133.255 39.6449 132.394 40.2696C131.532 40.8944 130.844 41.7277 130.393 42.6915C129.942 43.6553 129.743 44.7179 129.815 45.7796Z" fill="#E4897B"/>
<path d="M124.438 44.9755C125.575 49.1399 128.251 53.9387 131.712 54.2465C136.008 54.6234 137.949 50.1826 138.514 45.5974C141.089 43.8324 139.739 41.8915 142.32 41.6465C145.637 41.3325 144.575 35.2649 140.21 34.2913C140.21 34.2913 141.673 37.0236 138.602 35.6418C135.681 34.2536 132.436 33.691 129.218 34.0149C129.218 34.0149 133.137 35.9747 129.306 36.8477C125.474 37.7208 124.331 40.0825 126.096 41.5084C126.096 41.5146 123.69 42.237 124.438 44.9755Z" fill="#263238"/>
<path d="M135.895 46.5396C135.979 47.6747 136.436 48.7501 137.195 49.5985C138.2 50.7103 139.249 50.0194 139.425 48.6689C139.588 47.4567 139.255 45.4153 138.024 44.7997C136.793 44.1842 135.813 45.1703 135.895 46.5396Z" fill="#E4897B"/>
<path d="M137.591 102.36C137.591 102.36 142.088 134.928 138.545 147.98C132.93 168.645 111.461 186.088 111.461 186.088L104.181 181.314C104.181 181.314 122.466 166.585 124.702 149.28C126.712 133.747 121.668 114.96 121.668 102.354L137.591 102.36Z" fill="#407BFF"/>
<path opacity="0.1" d="M137.591 102.36C137.591 102.36 142.088 134.928 138.545 147.98C132.93 168.645 111.461 186.088 111.461 186.088L104.181 181.314C104.181 181.314 122.466 166.585 124.702 149.28C126.712 133.747 121.668 114.96 121.668 102.354L137.591 102.36Z" fill="black"/>
<path d="M139.45 120.977C138.253 119.606 136.935 118.345 135.512 117.209C136.278 127.78 136.906 143.439 136.209 154.563C137.146 152.43 137.927 150.232 138.546 147.986C140.273 141.611 140.091 130.6 139.45 120.977Z" fill="#407BFF"/>
<path opacity="0.3" d="M139.45 120.977C138.253 119.606 136.935 118.345 135.512 117.209C136.278 127.78 136.906 143.439 136.209 154.563C137.146 152.43 137.927 150.232 138.546 147.986C140.273 141.611 140.091 130.6 139.45 120.977Z" fill="black"/>
<path d="M114.395 184.461C114.426 184.461 111.574 186.345 111.574 186.345L103.623 181.132L106.135 179.053L114.395 184.461Z" fill="#407BFF"/>
<path opacity="0.3" d="M114.395 184.461C114.426 184.461 111.574 186.345 111.574 186.345L103.623 181.132L106.135 179.053L114.395 184.461Z" fill="black"/>
<path d="M146.347 102.36C146.347 102.36 153.294 131.819 153.784 145.895C154.336 161.673 148.828 198.895 148.828 198.895H141.008C141.008 198.895 140.047 161.384 139.701 147.013C139.318 131.341 130.123 102.36 130.123 102.36H146.347Z" fill="#407BFF"/>
<path opacity="0.1" d="M146.347 102.36C146.347 102.36 153.294 131.819 153.784 145.895C154.336 161.673 148.828 198.895 148.828 198.895H141.008C141.008 198.895 140.047 161.384 139.701 147.013C139.318 131.341 130.123 102.36 130.123 102.36H146.347Z" fill="black"/>
<path d="M150.329 195.786C150.367 195.786 149.889 199.027 149.889 199.027H140.38L140.122 196.131L150.329 195.786Z" fill="#407BFF"/>
<path opacity="0.3" d="M150.329 195.786C150.367 195.786 149.889 199.027 149.889 199.027H140.38L140.122 196.131L150.329 195.786Z" fill="black"/>
<path d="M266.58 74.051C267.114 74.5535 267.535 74.9806 267.975 75.458C268.414 75.9354 268.829 76.4002 269.231 76.8838C270.048 77.8448 270.814 78.8561 271.555 79.8737C273.035 81.9148 274.352 84.0697 275.493 86.3181L275.726 86.7766C275.839 86.9986 275.934 87.2297 276.008 87.4676C276.16 87.9272 276.253 88.4041 276.285 88.8871C276.326 89.7387 276.208 90.5906 275.939 91.3996C275.48 92.7433 274.799 94.0003 273.923 95.118C272.345 97.145 270.483 98.9346 268.396 100.432L266.832 98.6354C267.567 97.7749 268.333 96.8516 269.017 95.9283C269.714 95.0336 270.344 94.0889 270.902 93.1017C271.423 92.2404 271.809 91.304 272.045 90.3255C272.126 89.9754 272.141 89.6132 272.089 89.2577C272.066 89.1381 272.028 89.0219 271.976 88.9122C271.952 88.864 271.925 88.8178 271.894 88.774L271.693 88.4349C270.482 86.4597 269.167 84.5496 267.755 82.7127C267.058 81.7894 266.31 80.9038 265.557 80.0307C265.186 79.591 264.803 79.1639 264.42 78.7368C264.037 78.3096 263.622 77.8825 263.289 77.5496L266.58 74.051Z" fill="#E4897B"/>
<path d="M267.435 98.1079L262.743 97.3416L265.199 101.449C265.199 101.449 268.22 101.343 269.08 99.5651L267.435 98.1079Z" fill="#E4897B"/>
<path d="M259.275 99.2385L261.511 102.574L265.199 101.449L262.743 97.3416L259.275 99.2385Z" fill="#E4897B"/>
<path d="M267.209 205.321C266.89 205.348 266.571 205.261 266.31 205.076C266.232 205.001 266.174 204.908 266.142 204.805C266.11 204.701 266.105 204.591 266.128 204.485C266.133 204.418 266.156 204.353 266.194 204.298C266.233 204.242 266.286 204.199 266.348 204.171C266.895 203.926 268.327 204.843 268.49 204.95C268.509 204.962 268.523 204.979 268.531 204.999C268.539 205.02 268.54 205.042 268.534 205.063C268.532 205.085 268.522 205.105 268.508 205.121C268.493 205.137 268.474 205.147 268.452 205.151C268.045 205.254 267.628 205.311 267.209 205.321ZM266.58 204.347C266.535 204.34 266.488 204.34 266.442 204.347C266.415 204.36 266.391 204.38 266.375 204.406C266.358 204.431 266.349 204.461 266.348 204.492C266.331 204.562 266.333 204.635 266.353 204.704C266.373 204.774 266.41 204.837 266.461 204.887C266.7 205.101 267.315 205.132 268.138 204.969C267.667 204.658 267.137 204.446 266.58 204.347Z" fill="#407BFF"/>
<path d="M268.465 205.145H268.408C267.962 204.887 267.102 203.889 267.208 203.342C267.229 203.256 267.276 203.179 267.344 203.122C267.412 203.066 267.497 203.033 267.585 203.028C267.67 203.016 267.756 203.023 267.838 203.049C267.92 203.075 267.994 203.12 268.056 203.179C268.571 203.631 268.578 204.988 268.578 205.063C268.576 205.082 268.571 205.101 268.561 205.117C268.551 205.134 268.537 205.148 268.521 205.158L268.465 205.145ZM267.661 203.261H267.61C267.472 203.261 267.441 203.336 267.428 203.393C267.365 203.713 267.899 204.479 268.345 204.837C268.356 204.31 268.205 203.793 267.912 203.355C267.874 203.32 267.83 203.293 267.781 203.277C267.732 203.261 267.68 203.255 267.629 203.261H267.661Z" fill="#407BFF"/>
<path d="M245.802 205.321C245.401 205.359 244.999 205.257 244.665 205.032C244.59 204.965 244.532 204.881 244.496 204.787C244.46 204.693 244.447 204.592 244.458 204.492C244.462 204.431 244.482 204.371 244.514 204.32C244.547 204.268 244.593 204.226 244.646 204.196C245.231 203.87 247.102 204.824 247.316 204.944C247.336 204.957 247.351 204.974 247.361 204.995C247.371 205.017 247.375 205.04 247.373 205.063C247.369 205.085 247.358 205.106 247.343 205.121C247.327 205.137 247.307 205.147 247.285 205.151C246.797 205.255 246.301 205.311 245.802 205.321ZM244.967 204.347C244.895 204.342 244.823 204.358 244.76 204.391C244.737 204.402 244.718 204.419 244.705 204.44C244.691 204.461 244.684 204.485 244.684 204.51C244.675 204.576 244.681 204.643 244.703 204.705C244.725 204.767 244.761 204.823 244.81 204.868C245.099 205.126 245.871 205.17 246.914 204.994C246.306 204.67 245.648 204.452 244.967 204.347Z" fill="#407BFF"/>
<path d="M247.266 205.145H247.216C246.657 204.894 245.545 203.889 245.633 203.342C245.633 203.217 245.746 203.06 246.054 203.028C246.166 203.016 246.28 203.027 246.388 203.061C246.496 203.094 246.596 203.149 246.682 203.223C247.272 203.713 247.385 204.982 247.385 205.038C247.388 205.057 247.385 205.077 247.377 205.094C247.369 205.112 247.357 205.127 247.341 205.139C247.318 205.149 247.291 205.151 247.266 205.145ZM246.142 203.261H246.073C245.872 203.261 245.859 203.361 245.853 203.386C245.802 203.707 246.556 204.504 247.109 204.85C247.054 204.313 246.835 203.806 246.481 203.399C246.385 203.318 246.267 203.269 246.142 203.261Z" fill="#407BFF"/>
<path d="M254.69 59.6106C254.508 62.4497 254.018 68.2158 256.197 69.8112C256.197 69.8112 255.802 72.7193 250.657 73.3977C245.004 74.1326 247.586 70.9418 247.586 70.9418C250.582 69.7986 250.199 67.5186 249.382 65.4332L254.69 59.6106Z" fill="#E4897B"/>
<path d="M242.988 54.5922C242.957 54.5922 242.927 54.5855 242.898 54.5725C242.87 54.5595 242.845 54.5405 242.825 54.5168C242.645 54.3037 242.418 54.1359 242.162 54.0268C241.905 53.9176 241.627 53.8703 241.349 53.8887C241.32 53.894 241.289 53.8934 241.26 53.8867C241.231 53.88 241.204 53.8675 241.18 53.8498C241.156 53.8322 241.135 53.8098 241.12 53.7841C241.105 53.7584 241.095 53.7299 241.091 53.7002C241.084 53.6412 241.101 53.5817 241.137 53.5346C241.174 53.4876 241.227 53.4568 241.286 53.449C241.641 53.419 241.997 53.4753 242.326 53.6132C242.654 53.751 242.944 53.9662 243.171 54.2404C243.198 54.2732 243.215 54.3129 243.221 54.3552C243.226 54.3974 243.22 54.4403 243.202 54.479C243.184 54.5177 243.156 54.5507 243.121 54.574C243.085 54.5974 243.044 54.6102 243.001 54.611L242.988 54.5922Z" fill="#263238"/>
<path d="M242.009 57.3748C241.786 58.2757 241.441 59.142 240.985 59.95C241.195 60.0629 241.426 60.1281 241.664 60.1412C241.902 60.1542 242.14 60.1147 242.36 60.0254L242.009 57.3748Z" fill="#DE5753"/>
<path d="M242.26 56.6838C242.31 57.0607 242.153 57.3873 241.908 57.425C241.663 57.4627 241.418 57.1737 241.374 56.7969C241.33 56.42 241.481 56.0934 241.726 56.062C241.971 56.0306 242.216 56.2818 242.26 56.6838Z" fill="#263238"/>
<path d="M241.839 56.0681L240.903 55.9236C240.903 55.9236 241.456 56.5705 241.839 56.0681Z" fill="#263238"/>
<path d="M252.441 205.044H247.731L247.417 194.146H252.127L252.441 205.044Z" fill="#E4897B"/>
<path d="M273.829 205.044H269.118L267.604 194.146H272.315L273.829 205.044Z" fill="#E4897B"/>
<path d="M268.829 204.517H274.118C274.208 204.516 274.296 204.548 274.364 204.607C274.432 204.666 274.476 204.748 274.489 204.837L275.117 209.027C275.128 209.132 275.117 209.239 275.085 209.34C275.052 209.441 274.998 209.534 274.927 209.613C274.856 209.692 274.769 209.755 274.672 209.798C274.574 209.841 274.469 209.863 274.363 209.862C272.523 209.831 271.631 209.724 269.307 209.724C267.875 209.724 265.783 209.868 263.811 209.868C261.838 209.868 261.732 207.915 262.554 207.739C266.242 206.948 266.826 205.855 268.063 204.806C268.279 204.627 268.549 204.525 268.829 204.517Z" fill="#263238"/>
<path d="M247.574 204.517H252.856C252.947 204.516 253.035 204.548 253.104 204.607C253.174 204.665 253.219 204.747 253.233 204.837L253.861 209.027C253.872 209.132 253.862 209.239 253.829 209.34C253.796 209.441 253.742 209.534 253.671 209.613C253.6 209.692 253.513 209.755 253.416 209.798C253.319 209.841 253.213 209.863 253.107 209.862C251.267 209.831 250.375 209.724 248.051 209.724C246.619 209.724 243.654 209.868 241.682 209.868C239.71 209.868 239.603 207.915 240.426 207.739C244.113 206.948 245.564 205.855 246.807 204.806C247.023 204.627 247.293 204.525 247.574 204.517Z" fill="#263238"/>
<path d="M247.417 194.146L247.58 199.768H252.291L252.127 194.146H247.417Z" fill="#CE6F64"/>
<path d="M272.315 194.146H267.604L268.389 199.768H273.094L272.315 194.146Z" fill="#CE6F64"/>
<path d="M254.753 53.7315C255.073 58.3921 255.306 60.3581 253.283 63.0401C250.237 67.0663 244.446 66.4445 242.737 61.9723C241.198 57.9461 240.934 51.0055 245.218 48.5684C246.161 48.0283 247.225 47.7379 248.311 47.7248C249.397 47.7117 250.469 47.9763 251.424 48.4935C252.379 49.0107 253.186 49.7634 253.769 50.6801C254.351 51.5968 254.69 52.6471 254.753 53.7315Z" fill="#E4897B"/>
<path d="M257.467 58.0592C260.08 59.5164 262.021 55.9236 262.021 55.9236C262.021 55.9236 257.335 56.4324 257.756 53.6436C258.309 49.944 255.658 45.4467 249.012 46.0245C248.642 46.0559 248.29 46.0999 247.945 46.1564C247.249 45.8267 246.462 45.7415 245.712 45.9148C244.962 46.0881 244.292 46.5097 243.812 47.1112C241.927 47.2682 239.383 49.5169 241.111 52.4878C241.232 52.1465 241.42 51.8326 241.663 51.5645C241.808 53.3044 243.328 56.0681 245.225 56.2502C245.633 58.6308 244.05 61.3882 244.597 63.8755C245.407 67.4621 251.456 68.2723 251.456 68.2723C251.247 67.8245 251.17 67.3267 251.232 66.8366C251.294 66.3464 251.494 65.8839 251.808 65.5024C255.915 67.3867 258.623 65.5463 258.623 65.5463C255.821 64.5037 256.669 62.6444 256.669 62.6444C257.636 63.0739 258.732 63.1116 259.727 62.7497C260.721 62.3877 261.537 61.6543 262.002 60.7036C261.071 60.7477 260.148 60.5216 259.343 60.0523C258.538 59.583 257.887 58.8908 257.467 58.0592Z" fill="#263238"/>
<path d="M246.864 56.9666C246.875 57.4139 246.798 57.8589 246.636 58.2761C246.474 58.6933 246.232 59.0744 245.922 59.3974C245.093 60.2579 244.075 59.6549 243.799 58.5557C243.554 57.5633 243.692 55.9239 244.773 55.4717C245.01 55.3782 245.268 55.3457 245.521 55.3771C245.775 55.4084 246.016 55.5027 246.224 55.6512C246.432 55.7998 246.599 55.9979 246.711 56.2276C246.823 56.4573 246.876 56.7114 246.864 56.9666Z" fill="#E4897B"/>
<path d="M250.777 100.388C250.777 100.388 251.97 131.391 254.809 149.594C257.096 164.305 267.252 198.675 267.252 198.675H273.672C273.672 198.675 268.377 165.479 267.215 150.938C264.275 114.137 271.907 106.236 264.702 98.5725L250.777 100.388Z" fill="#263238"/>
<path d="M256.141 110.193C256.141 110.193 253.239 109.69 251.543 115.218C252.172 125.688 253.246 139.582 254.81 149.594C255.155 151.824 255.683 154.513 256.33 157.458C255.105 139.771 256.141 110.193 256.141 110.193Z" fill="#161F33"/>
<path d="M245.771 101.041C245.771 101.041 240.482 135.343 240.79 149.695C241.11 164.625 246.581 198.688 246.581 198.688H252.944C252.944 198.688 251.939 165.511 252.498 150.851C253.126 134.865 259.652 99.2385 259.652 99.2385L245.771 101.041Z" fill="#263238"/>
<path d="M274.602 198.977H266.066L265.4 196.113L274.539 196.175L274.602 198.977Z" fill="#407BFF"/>
<path opacity="0.2" d="M274.602 198.977H266.066L265.4 196.113L274.539 196.175L274.602 198.977Z" fill="black"/>
<path d="M264.382 69.8176C266.838 70.0563 270.569 77.0346 270.569 77.0346L264.37 81.7894C264.37 81.7894 259.238 77.2859 259.847 74.7546C260.482 72.1228 262.027 69.5977 264.382 69.8176Z" fill="#407BFF"/>
<path opacity="0.1" d="M264.382 69.8176C266.838 70.0563 270.569 77.0346 270.569 77.0346L264.37 81.7894C264.37 81.7894 259.238 77.2859 259.847 74.7546C260.482 72.1228 262.027 69.5977 264.382 69.8176Z" fill="black"/>
<path d="M262.529 72.82C261.903 72.6513 261.255 72.5793 260.607 72.6064C260.277 73.2931 260.023 74.0133 259.847 74.7546C259.219 77.267 264.369 81.7894 264.369 81.7894L264.828 81.4377L262.529 72.82Z" fill="#407BFF"/>
<path opacity="0.3" d="M262.529 72.82C261.903 72.6513 261.255 72.5793 260.607 72.6064C260.277 73.2931 260.023 74.0133 259.847 74.7546C259.219 77.267 264.369 81.7894 264.369 81.7894L264.828 81.4377L262.529 72.82Z" fill="black"/>
<path d="M243.667 79.5218C241.877 84.0505 239.992 88.6546 238.491 93.1959C238.391 93.4848 238.309 93.7612 238.221 94.0438L238.008 94.741C237.949 94.9463 237.949 95.1638 238.008 95.3691C238.362 96.1544 238.925 96.8278 239.634 97.3163C241.512 98.6637 243.559 99.7596 245.721 100.576L245.156 102.888C242.496 102.537 239.923 101.698 237.568 100.413C236.118 99.6386 234.938 98.4428 234.182 96.9834C233.748 96.0506 233.598 95.0111 233.749 93.9936C233.763 93.869 233.784 93.7453 233.812 93.623L233.875 93.3592L233.981 92.8818C234.057 92.5615 234.132 92.2537 234.214 91.9396C234.842 89.4272 235.646 87.0403 236.494 84.6723C237.342 82.3043 238.227 79.9678 239.226 77.6375L243.667 79.5218Z" fill="#E4897B"/>
<path d="M239.854 73.1655C239.854 73.1655 237.731 74.2396 245.771 101.041L264.727 98.5664C263.396 90.8909 262.768 86.136 264.382 69.8176C261.664 69.623 258.935 69.623 256.217 69.8176C253.323 69.9859 250.444 70.3638 247.605 70.9482C243.968 71.7585 239.854 73.1655 239.854 73.1655Z" fill="#407BFF"/>
<path opacity="0.1" d="M239.854 73.1655C239.854 73.1655 237.731 74.2396 245.771 101.041L264.727 98.5664C263.396 90.8909 262.768 86.136 264.382 69.8176C261.664 69.623 258.935 69.623 256.217 69.8176C253.323 69.9859 250.444 70.3638 247.605 70.9482C243.968 71.7585 239.854 73.1655 239.854 73.1655Z" fill="black"/>
<path d="M264.866 97.4167L265.952 98.9933C266.034 99.1189 265.896 99.2697 265.682 99.3011L245.802 101.901C245.633 101.901 245.476 101.857 245.451 101.751L245.061 100.074C245.03 99.9606 245.168 99.8412 245.356 99.8161L264.551 97.3037C264.609 97.2944 264.668 97.3 264.723 97.3197C264.778 97.3395 264.827 97.3729 264.866 97.4167Z" fill="#407BFF"/>
<path opacity="0.2" d="M264.866 97.4167L265.952 98.9933C266.034 99.1189 265.896 99.2697 265.682 99.3011L245.802 101.901C245.633 101.901 245.476 101.857 245.451 101.751L245.061 100.074C245.03 99.9606 245.168 99.8412 245.356 99.8161L264.551 97.3037C264.609 97.2944 264.668 97.3 264.723 97.3197C264.778 97.3395 264.827 97.3729 264.866 97.4167Z" fill="black"/>
<path d="M262.567 99.8978L263.082 99.8287C263.183 99.8287 263.252 99.7533 263.239 99.6905L262.711 97.5172C262.692 97.4802 262.659 97.4511 262.62 97.4351C262.582 97.4191 262.538 97.417 262.498 97.4293L261.983 97.4921C261.876 97.4921 261.807 97.5675 261.826 97.6366L262.353 99.8036C262.366 99.8727 262.467 99.9104 262.567 99.8978Z" fill="#263238"/>
<path d="M250.105 101.506L250.62 101.437C250.72 101.437 250.796 101.361 250.777 101.299L250.249 99.1254C250.229 99.0887 250.197 99.0597 250.158 99.0427C250.12 99.0257 250.077 99.0216 250.036 99.0311L249.521 99.1002C249.42 99.1002 249.345 99.1756 249.364 99.2384L249.891 101.412C249.904 101.506 250.004 101.544 250.105 101.506Z" fill="#263238"/>
<path d="M240.74 82.2604C241.261 84.6849 241.996 87.7564 243.07 91.6444L243.302 81.7893L240.74 82.2604Z" fill="#407BFF"/>
<path opacity="0.3" d="M240.74 82.2604C241.261 84.6849 241.996 87.7564 243.07 91.6444L243.302 81.7893L240.74 82.2604Z" fill="black"/>
<path d="M239.854 73.1654C237.498 74.1139 235.457 82.1726 235.457 82.1726L243.56 86.1171C243.56 86.1171 247.473 76.262 245.72 74.34C243.968 72.418 242.567 72.0788 239.854 73.1654Z" fill="#407BFF"/>
<path opacity="0.1" d="M239.854 73.1654C237.498 74.1139 235.457 82.1726 235.457 82.1726L243.56 86.1171C243.56 86.1171 247.473 76.262 245.72 74.34C243.968 72.418 242.567 72.0788 239.854 73.1654Z" fill="black"/>
<path d="M254.031 198.977H245.495L244.829 196.113L254.332 196.175L254.031 198.977Z" fill="#407BFF"/>
<path opacity="0.2" d="M254.031 198.977H245.495L244.829 196.113L254.332 196.175L254.031 198.977Z" fill="black"/>
<path d="M245.853 99.7975L245.168 99.5148C245 99.4464 244.816 99.4237 244.636 99.449C244.457 99.4744 244.287 99.5468 244.144 99.6591C244.001 99.7713 243.89 99.9194 243.823 100.088C243.756 100.257 243.734 100.441 243.761 100.62L244.257 103.893C244.281 104.057 244.341 104.213 244.433 104.351C244.524 104.489 244.646 104.604 244.787 104.69C244.929 104.775 245.088 104.828 245.253 104.844C245.418 104.861 245.584 104.84 245.74 104.785C245.989 104.694 246.222 104.565 246.431 104.402C246.658 104.213 246.838 103.974 246.955 103.704C247.073 103.433 247.126 103.138 247.109 102.844L247.04 101.487C247.028 101.121 246.909 100.765 246.698 100.465C246.488 100.165 246.194 99.933 245.853 99.7975Z" fill="#E4897B"/>
</svg>
